<svg height="400" viewBox="0 0 350 400" width="350" xmlns="http://www.w3.org/2000/svg"><path d="m1157.8731 1473.55556v21.77777l-18.65483 10.66667v-21.33333zm-49.7462 0 18.65483 11.11111v21.33333l-18.65483-10.66667zm87.05584-21.33334v21.33334l-18.65482 11.11111v-21.77778zm-124.36548 0 18.65482 10.66667v21.77778l-18.65482-11.11111zm105.71066-11.11111v21.77778l-18.65482 10.66667v-21.33334zm-87.05584 0 18.65482 11.11111v21.33334l-18.65482-10.66667zm68.40102-10.66667v21.77778l-18.65483 10.66667v-21.77778zm-49.7462 0 18.65483 10.66667v21.77778l-18.65483-10.66667zm87.05584-21.77777v21.77777l-18.65482 10.66667v-21.33333zm75.06345 0v21.77777l-18.65482 10.66667v-21.33333zm-199.42893 0 18.65482 11.11111v21.33333l-18.65482-10.66667zm-75.063453 0 18.654823 11.11111v21.33333l-18.654823-10.66667zm312.246193-21.33334v21.33334l-19.09898 11.11111v-21.77778zm-350 0 19.098985 10.66667v21.77778l-19.098985-11.11111zm256.28173-11.11111v21.77778l-19.09899 10.66667v-21.33334zm74.61929 0v21.77778l-18.65483 10.66667v-21.33334zm-237.18275 0 19.09899 11.11111v21.33334l-19.09899-10.66667zm-74.619285 0 18.654822 11.11111v21.33334l-18.654822-10.66667zm293.147205-10.66666v21.77777l-18.65482 10.66667v-21.77778zm-274.492383 0 18.654823 10.66666v21.77778l-18.654823-10.66667zm255.837563-10.66667v21.33333l-18.65482 11.11111v-21.77777zm-237.18274 0 18.65482 10.66667v21.77777l-18.65482-11.11111zm143.46447-11.11111v21.77778l-18.65483 10.66666v-21.33333zm75.06345 0v21.77778l-18.65482 10.66666v-21.33333zm75.06345 0v21.77778l-19.09898 10.66666v-21.33333zm-199.8731 0 18.65483 11.11111v21.33333l-18.65483-10.66666zm-75.06345 0 18.65482 11.11111v21.33333l-18.65482-10.66666zm-75.06345 0 19.098985 11.11111v21.33333l-19.098985-10.66666zm256.28173-10.66667v21.77778l-19.09899 10.66667v-21.77778zm-162.56346 0 19.09899 10.66667v21.77778l-19.09899-10.66667zm143.46447-10.66667v21.33334l-18.65482 11.11111v-21.77778zm-124.36548 0 18.65482 10.66667v21.77778l-18.65482-11.11111zm105.71066-11.11111v21.77778l-18.65482 10.66667v-21.33334zm75.06345 0v21.77778l-18.65482 10.66667v-21.33334zm-162.11929 0 18.65482 11.11111v21.33334l-18.65482-10.66667zm-75.06345 0 18.65482 11.11111v21.33334l-18.65482-10.66667zm143.46447-10.66666v21.77777l-18.65483 10.66667v-21.77778zm-49.7462 0 18.65483 10.66666v21.77778l-18.65483-10.66667zm-112.373093-21.77778 18.654823 10.66667v21.77777l-18.654823-10.66666zm75.063453 0 18.65482 10.66667v21.77777l-18.65482-10.66666zm124.36548 0v21.77778l-18.65482 10.66666v-21.77777zm75.06345 0v21.77778l-18.65482 10.66666v-21.77777zm-137.24619.44444 18.65482 10.66667-18.65482 11.11111-18.65482-11.11111zm175-22.22222v21.77778l-19.09898 10.66667v-21.33334zm-350 0 19.098985 11.11111v21.33334l-19.098985-10.66667zm212.30964.44445 19.09899 11.11111-19.09899 10.66666-18.65482-10.66666zm-74.61928 0 18.65482 11.11111-18.65482 10.66666-19.09899-10.66666zm37.30964 0 18.65482 11.11111-18.65482 10.66666-18.65482-10.66666zm-155.901015-11.11112 18.654822 10.66667v21.77778l-18.654822-10.66667zm311.802035 0v21.77778l-18.65483 10.66667v-21.77778zm-293.147213-10.66666 18.654823 10.66666v21.77778l-18.654823-11.11111zm274.492383 0v21.33333l-18.65482 11.11111v-21.77778zm-137.24619.44444 18.65482 10.66667-18.65482 10.66667-18.65482-10.66667zm175-22.22222v21.77778l-19.09898 10.66666v-21.77777zm-350 0 19.098985 10.66667v21.77777l-19.098985-10.66666zm175 .44444 18.65482 10.66667-18.65482 11.11111-18.65482-11.11111zm112.3731 0 18.65482 10.66667-18.65482 11.11111-18.65483-11.11111zm-224.7462 0 18.65483 10.66667-18.65483 11.11111-18.65482-11.11111zm224.7462-21.77777 18.65482 11.11111-18.65482 10.66666-18.65483-10.66666zm-224.7462 0 18.65483 11.11111-18.65483 10.66666-18.65482-10.66666zm149.68274 0 19.09899 11.11111-19.09899 10.66666-18.65482-10.66666zm-186.992381 0 18.654821 11.11111-18.654821 10.66666-19.098985-10.66666zm224.746191 0 18.65482 11.11111-18.65482 10.66666-18.65482-10.66666zm-150.1269 0 18.65482 11.11111-18.65482 10.66666-18.65482-10.66666zm37.75381 0 18.65482 11.11111-18.65482 10.66666-19.09899-10.66666zm186.99238 0 19.09899 11.11111-19.09899 10.66666-18.65482-10.66666zm-149.68274 0 18.65482 11.11111-18.65482 10.66666-18.65482-10.66666zm-112.3731-21.33334 18.65483 10.66667-18.65483 10.66667-18.65482-10.66667zm112.3731 0 18.65482 10.66667-18.65482 10.66667-18.65482-10.66667zm112.3731 0 18.65482 10.66667-18.65482 10.66667-18.65483-10.66667zm-112.3731-21.77777 18.65482 10.66666-18.65482 11.11111-18.65482-11.11111zm37.30964-21.77778 19.09899 11.11111-19.09899 10.66667-18.65482-10.66667zm-74.61928 0 18.65482 11.11111-18.65482 10.66667-19.09899-10.66667zm37.30964 0 18.65482 11.11111-18.65482 10.66667-18.65482-10.66667zm0-21.77778 18.65482 11.11111-18.65482 10.66667-18.65482-10.66667z" fill="#96dbfb" fill-opacity=".5" transform="translate(-958 -1106)"/></svg>