<svg height="387" viewBox="0 0 720 387" width="720" xmlns="http://www.w3.org/2000/svg" xmlns:xlink="http://www.w3.org/1999/xlink"><linearGradient id="a" x1="100%" x2="0%" y1="50%" y2="50%"><stop offset="0" stop-color="#4fc4f9" stop-opacity="0"/><stop offset="1" stop-color="#4fc4f9"/></linearGradient><path d="m1.02418208 0v387h-1.02418208v-387zm9.21763872 0v387h-1.02418211v-387zm9.2176387 0v387h-1.0241821v-387zm9.2176387 0v387h-1.0241821v-387zm9.2176386 0v387h-1.024182v-387zm9.2176387 0v387h-1.024182v-387zm9.2176387 0v387h-1.0241821v-387zm9.2176387 0v387h-1.0241821v-387zm9.2176387 0v387h-1.0241821v-387zm9.2176387 0v387h-1.0241821v-387zm9.2176387 0v387h-1.0241821v-387zm9.217639 0v387h-1.024182v-387zm9.217638 0v387h-1.024182v-387zm9.217639 0v387h-1.024182v-387zm9.217639 0v387h-1.024182v-387zm9.217638 0v387h-1.024182v-387zm9.217639 0v387h-1.024182v-387zm9.217639 0v387h-1.024182v-387zm9.217639 0v387h-1.024183v-387zm9.217638 0v387h-1.024182v-387zm9.217639 0v387h-1.024182v-387zm9.217639 0v387h-1.024182v-387zm9.217638 0v387h-1.024182v-387zm9.217639 0v387h-1.024182v-387zm9.217639 0v387h-1.024182v-387zm9.217638 0v387h-1.024182v-387zm9.217639 0v387h-1.024182v-387zm9.217639 0v387h-1.024182v-387zm9.217638 0v387h-1.024182v-387zm9.217639 0v387h-1.024182v-387zm9.217639 0v387h-1.024182v-387zm9.217639 0v387h-1.024183v-387zm9.217638 0v387h-1.024182v-387zm9.217639 0v387h-1.024182v-387zm9.217639 0v387h-1.024182v-387zm9.217638 0v387h-1.024182v-387zm9.217639 0v387h-1.024182v-387zm9.217639 0v387h-1.024182v-387zm9.217638 0v387h-1.024182v-387zm9.217639 0v387h-1.024182v-387zm9.217639 0v387h-1.024182v-387zm9.217638 0v387h-1.024182v-387zm9.217639 0v387h-1.024182v-387zm9.217639 0v387h-1.024182v-387zm9.217638 0v387h-1.024182v-387zm9.217639 0v387h-1.024182v-387zm9.217639 0v387h-1.024182v-387zm9.217639 0v387h-1.024183v-387zm9.217638 0v387h-1.024182v-387zm9.217639 0v387h-1.024182v-387zm9.217639 0v387h-1.024182v-387zm9.217638 0v387h-1.024182v-387zm9.217639 0v387h-1.024182v-387zm9.217639 0v387h-1.024182v-387zm9.217638 0v387h-1.024182v-387zm9.217639 0v387h-1.024182v-387zm9.217639 0v387h-1.024182v-387zm9.217638 0v387h-1.024182v-387zm9.217639 0v387h-1.024182v-387zm9.217639 0v387h-1.024182v-387zm9.217639 0v387h-1.024183v-387zm9.217638 0v387h-1.024182v-387zm9.217639 0v387h-1.024182v-387zm9.217639 0v387h-1.024182v-387zm9.217638 0v387h-1.024182v-387zm9.217639 0v387h-1.024182v-387zm9.217639 0v387h-1.024182v-387zm9.217638 0v387h-1.024182v-387zm9.217639 0v387h-1.024182v-387zm9.217639 0v387h-1.024182v-387zm9.217638 0v387h-1.024182v-387zm9.217639 0v387h-1.024182v-387zm9.217639 0v387h-1.024182v-387zm9.217639 0v387h-1.024183v-387zm9.217638 0v387h-1.024182v-387zm9.217639 0v387h-1.024182v-387zm9.217639 0v387h-1.024182v-387zm9.217638 0v387h-1.024182v-387zm9.217639 0v387h-1.024182v-387z" fill="url(#a)" fill-rule="evenodd" opacity=".2"/></svg>