<svg height="428" viewBox="0 0 371 428" width="371" xmlns="http://www.w3.org/2000/svg"><path d="m219 847v214l185.5 107 185.5-107v-214l-185.5-107zm94-51.5 3.833333-2.5 7.666667 4.5 7.666667-4.5 3.833333 2.5-7.666667 4.5 7.666667 4.5-3.833333 2.5-7.666667-4.5-7.666667 4.5-3.833333-2.5 7.666667-4.5zm-49 38.333333 11.5-6.833333 23 13.666667 23-13.666667 11.5 6.833333-23 13.666667 23 13.666667-11.5 6.833333-23-13.666667-23 13.178572-11.5-6.833334 23-13.666666zm72 133.219299v-13.263158l22.8 13.263158v-26.052632l11.4 6.631579v26.052632l22.8 13.263157v13.263162l-22.8-13.263162v26.052632l-11.4-7.10526v-26.052635zm0-69.552632-3.833333 2.5-7.666667-4.5-7.666667 4.5-3.833333-2.5 7.666667-4.5-7.666667-4.5 3.833333-2.5 7.666667 4.5 7.666667-4.5 3.833333 2.5-7.666667 4.5zm-33 15.14v-4.32l7.6 4.32v-8.64l3.8 2.4v8.64l7.6 4.32v4.32l-7.6-4.32v8.64l-3.8-2.4v-8.64zm-73-19.944636 22.8 13.165563v-25.860927l11.4 6.582781v25.860928l22.8 13.165563v13.165562l-22.8-13.635761v25.860927l-11.4-6.582781v-25.860928l-22.8-13.165563zm-7 65.944636v-4.32l7.6 4.32v-8.64l3.8 2.4v8.64l7.6 4.32v4.32l-7.6-4.32v8.64l-3.8-2.4v-8.64zm64 102.57053-22.8-13.26316v26.05263l-11.4-6.63158v-26.05263l-22.8-13.26316v-13.26316l22.8 13.26316v-26.05263l11.4 6.63158v26.05263l22.8 13.26316zm35 45.46947-7.6-4.32v8.64l-3.8-2.4v-8.64l-7.6-4.32v-4.32l7.6 4.32v-8.64l3.8 2.4v8.64l7.6 4.32zm-23.294964-30.34102v-61.22034l-52.705036-30.372877v-30.372882l52.705036 30.372882v-60.745763l26.589928 15.186441v61.220339l52.705036 30.37288v30.37288l-52.705036-30.37288v61.22034zm94.294964 45.96566-22.8-13.16557v25.86093l-11.4-6.58278v-25.86093l-22.8-13.16556v-13.16556l22.8 13.16556v-25.39073l11.4 6.58278v25.86093l22.8 13.16556zm8-61.52913-7.6-4.22449v8.44898l-3.8-1.87755v-8.44898l-7.6-4.22449v-4.22449l7.6 4.22449v-8.44898l3.8 2.34694v8.44898l7.6 4.22449zm-19.5-132.257863-11.5-6.752941 23-13.505882-23-13.505883 11.5-6.752941 23 13.988235 23-13.505882 11.5 6.752941-23 13.505882 23 13.505883-11.5 6.752941-23-13.988235zm91.5 25.271827v13.263158l-22.8 13.263157v26.052631l-11.4 6.63158v-26.052632l-22.8 13.263162v-13.263162l22.8-13.263157v-26.052632l11.4-6.631579v26.052632zm0-65.289474 3.833333-2.5 7.666667 4.5 7.666667-4.5 3.833333 2.5-7.666667 4.5 7.666667 4.5-3.833333 2.5-7.666667-4.5-7.666667 4.5-3.833333-2.5 7.666667-4.5zm34 19.82v4.32l-7.6 4.32v8.64l-3.8 2.4v-8.64l-7.6 4.32v-4.32l7.6-4.32v-8.64l3.8-2.4v8.64zm-99 147.73882 7.6-4.23529v-8.47059l3.8-2.35294v8.47059l7.6-4.2353v4.2353l-7.6 4.23529v8.94118l-3.8 2.35294v-8.47059l-7.6 4.2353zm65 33.99381-22.8 13.26316v26.05263l-11.4 6.63158v-26.05263l-22.8 13.26316v-13.26316l22.8-13.26316v-26.05263l11.4-6.63158v26.05263l22.8-13.26316zm34 5.58737-7.6 4.32v8.64l-3.8 2.4v-8.64l-7.6 4.32v-4.32l7.6-4.32v-8.64l3.8-2.4v8.64l7.6-4.32zm3.294964-18.82644-26.589928 15.18644v-61.22034l-52.705036 30.37288v-30.37288l52.705036-30.37288v-61.220339l26.589928-15.186441v61.220339l52.705036-30.372881v30.372881l-52.705036 30.372881zm67.705036-48.76093-22.8 13.26316v26.05263l-11.4 6.63158v-26.05263l-22.8 13.26316v-13.26316l22.8-13.26316v-26.05263l11.4-6.63158v26.05263l22.8-13.26316zm8-69.41263-7.6 4.32v8.64l-3.8 2.4v-8.64l-7.6 4.32v-4.32l7.6-4.32v-8.64l3.8-2.4v8.64l7.6-4.32zm-8-65.463529v13.17647l-22.8 13.176471v25.882353l-11.4 6.588235v-26.352941l-22.8 13.17647v-13.17647l22.8-13.176471v-25.882353l11.4-6.588235v25.882353zm-45.5-66.200281 11.5 6.833334-23 13.666666 23 13.666667-11.5 5.857143-23-13.666667-23 13.666667-11.5-6.833333 23-13.666667-23-13.666667 11.5-6.833333 23 13.666667zm-59.5-31.47619 3.833333-2.5 7.666667 4.5 7.666667-4.5 3.833333 2.5-7.666667 4.5 7.666667 4.5-3.833333 2.5-7.666667-4.5-7.666667 4.5-3.833333-2.5 7.666667-4.5zm11 20.666667-52.841317 30.333333 52.841317 30.333333-26.658683 15.166667-52.841317-30.333333-52.841317 30.333333-26.658683-15.166667 52.841317-30.333333-52.841317-30.333333 26.658683-15.166667 52.841317 30.333333 52.841317-30.333333zm-45-43.931373-23 13.505882 23 13.505883-11.5 6.752941-23-13.988235-23 13.505882-11.5-6.752941 23-13.505882-23-13.505883 11.5-6.752941 23 13.505882 23-13.505882z" fill="#96dbfb" fill-opacity=".5" transform="translate(-219 -740)"/></svg>