<svg height="417" viewBox="0 0 373 417" width="373" xmlns="http://www.w3.org/2000/svg"><path d="m454 2067v26.66667l-24 13.33333v-26.66667zm-94 0 24 13.33333v26.66667l-24-13.33333zm-70-40 23 13.33333v26.66667l-23-13.33333zm233 0v26.66667l-23 13.33333v-26.66667zm-256-122 70 40.33333v80.66667l-70-40.33333zm-47 81 23 13.33333v26.66667l-23-13.33333zm140 0 24 13.33333v26.66667l-24-13.33333zm94 0v26.66667l-24 13.33333v-26.66667zm93-81v80.66667l-70 40.33333v-80.66667zm46 81v26.66667l-23 13.33333v-26.66667zm-233-80 24 13.33333v26.66667l-24-13.33333zm-140 0 23 13.33333v26.66667l-23-13.33333zm234 0v26.66667l-24 13.33333v-26.66667zm139 0v26.66667l-23 13.33333v-26.66667zm-303-41 23 13.33333v26.66667l-23-13.33333zm233 0v26.66667l-23 13.33333v-26.66667zm-116-13 23 13.5-23 13.5-23-13.5zm-187-27 23 13.33333v26.66667l-23-13.33333zm373 0v26.66667l-23 13.33333v-26.66667zm-256-14 23 13.5-23 13.5-23-13.5zm140 0 23 13.5-23 13.5-23-13.5zm-70-67 70 40.5-70 40.5-70-40.5zm139.732673 27 23.267327 13.5-23.267327 13.5-23.732673-13.5zm-280.465346 0 23.732673 13.5-23.732673 13.5-23.267327-13.5zm210.732673-40 23 13.5-23 13.5-23-13.5zm-140 0 23 13.5-23 13.5-23-13.5zm70-41 23 13.72881-23 13.27119-23-13.27119z" fill="#96dbfb" fill-opacity=".5" transform="translate(-220 -1690)"/></svg>