<?xml version="1.0" encoding="UTF-8"?>
<svg width="371px" height="428px" viewBox="0 0 371 428" version="1.1" xmlns="http://www.w3.org/2000/svg" xmlns:xlink="http://www.w3.org/1999/xlink">
    <!-- Generator: Sketch 62 (91390) - https://sketch.com -->
    <title>admin_f1_0</title>
    <desc>Created with Sketch.</desc>
    <g id="light" stroke="none" stroke-width="1" fill="none" fill-rule="evenodd" fill-opacity="0.5">
        <g id="Admin" transform="translate(-219.000000, -740.000000)" fill="#96DBFB" fill-rule="nonzero">
            <path d="M219,847 L219,1061 L404.5,1168 L590,1061 L590,847 L404.5,740 L219,847 Z M313,795.5 L316.833333,793 L324.5,797.5 L332.166667,793 L336,795.5 L328.333333,800 L336,804.5 L332.166667,807 L324.5,802.5 L316.833333,807 L313,804.5 L320.666667,800 L313,795.5 Z M264,833.833333 L275.5,827 L298.5,840.666667 L321.5,827 L333,833.833333 L310,847.5 L333,861.166667 L321.5,868 L298.5,854.333333 L275.5,867.511905 L264,860.678571 L287,847.011905 L264,833.833333 Z M336,967.052632 L336,953.789474 L358.8,967.052632 L358.8,941 L370.2,947.631579 L370.2,973.684211 L393,986.947368 L393,1000.21053 L370.2,986.947368 L370.2,1013 L358.8,1005.89474 L358.8,979.842105 L336,967.052632 Z M336,897.5 L332.166667,900 L324.5,895.5 L316.833333,900 L313,897.5 L320.666667,893 L313,888.5 L316.833333,886 L324.5,890.5 L332.166667,886 L336,888.5 L328.333333,893 L336,897.5 Z M303,912.64 L303,908.32 L310.6,912.64 L310.6,904 L314.4,906.4 L314.4,915.04 L322,919.36 L322,923.68 L314.4,919.36 L314.4,928 L310.6,925.6 L310.6,916.96 L303,912.64 Z M230,892.695364 L252.8,905.860927 L252.8,880 L264.2,886.582781 L264.2,912.443709 L287,925.609272 L287,938.774834 L264.2,925.139073 L264.2,951 L252.8,944.417219 L252.8,918.556291 L230,905.390728 L230,892.695364 Z M223,958.64 L223,954.32 L230.6,958.64 L230.6,950 L234.4,952.4 L234.4,961.04 L242,965.36 L242,969.68 L234.4,965.36 L234.4,974 L230.6,971.6 L230.6,962.96 L223,958.64 Z M287,1061.21053 L264.2,1047.94737 L264.2,1074 L252.8,1067.36842 L252.8,1041.31579 L230,1028.05263 L230,1014.78947 L252.8,1028.05263 L252.8,1002 L264.2,1008.63158 L264.2,1034.68421 L287,1047.94737 L287,1061.21053 Z M322,1106.68 L314.4,1102.36 L314.4,1111 L310.6,1108.6 L310.6,1099.96 L303,1095.64 L303,1091.32 L310.6,1095.64 L310.6,1087 L314.4,1089.4 L314.4,1098.04 L322,1102.36 L322,1106.68 Z M298.705036,1076.33898 L298.705036,1015.11864 L246,984.745763 L246,954.372881 L298.705036,984.745763 L298.705036,924 L325.294964,939.186441 L325.294964,1000.40678 L378,1030.77966 L378,1061.15254 L325.294964,1030.77966 L325.294964,1092 L298.705036,1076.33898 Z M393,1122.30464 L370.2,1109.13907 L370.2,1135 L358.8,1128.41722 L358.8,1102.55629 L336,1089.39073 L336,1076.22517 L358.8,1089.39073 L358.8,1064 L370.2,1070.58278 L370.2,1096.44371 L393,1109.60927 L393,1122.30464 Z M401,1060.77551 L393.4,1056.55102 L393.4,1065 L389.6,1063.12245 L389.6,1054.67347 L382,1050.44898 L382,1046.22449 L389.6,1050.44898 L389.6,1042 L393.4,1044.34694 L393.4,1052.79592 L401,1057.02041 L401,1060.77551 L401,1060.77551 Z M381.5,928.517647 L370,921.764706 L393,908.258824 L370,894.752941 L381.5,888 L404.5,901.988235 L427.5,888.482353 L439,895.235294 L416,908.741176 L439,922.247059 L427.5,929 L404.5,915.011765 L381.5,928.517647 Z M473,953.789474 L473,967.052632 L450.2,980.315789 L450.2,1006.36842 L438.8,1013 L438.8,986.947368 L416,1000.21053 L416,986.947368 L438.8,973.684211 L438.8,947.631579 L450.2,941 L450.2,967.052632 L473,953.789474 Z M473,888.5 L476.833333,886 L484.5,890.5 L492.166667,886 L496,888.5 L488.333333,893 L496,897.5 L492.166667,900 L484.5,895.5 L476.833333,900 L473,897.5 L480.666667,893 L473,888.5 Z M507,908.32 L507,912.64 L499.4,916.96 L499.4,925.6 L495.6,928 L495.6,919.36 L488,923.68 L488,919.36 L495.6,915.04 L495.6,906.4 L499.4,904 L499.4,912.64 L507,908.32 Z M408,1056.05882 L415.6,1051.82353 L415.6,1043.35294 L419.4,1041 L419.4,1049.47059 L427,1045.23529 L427,1049.47059 L419.4,1053.70588 L419.4,1062.64706 L415.6,1065 L415.6,1056.52941 L408,1060.76471 L408,1056.05882 Z M473,1090.05263 L450.2,1103.31579 L450.2,1129.36842 L438.8,1136 L438.8,1109.94737 L416,1123.21053 L416,1109.94737 L438.8,1096.68421 L438.8,1070.63158 L450.2,1064 L450.2,1090.05263 L473,1076.78947 L473,1090.05263 Z M507,1095.64 L499.4,1099.96 L499.4,1108.6 L495.6,1111 L495.6,1102.36 L488,1106.68 L488,1102.36 L495.6,1098.04 L495.6,1089.4 L499.4,1087 L499.4,1095.64 L507,1091.32 L507,1095.64 Z M510.294964,1076.81356 L483.705036,1092 L483.705036,1030.77966 L431,1061.15254 L431,1030.77966 L483.705036,1000.40678 L483.705036,939.186441 L510.294964,924 L510.294964,985.220339 L563,954.847458 L563,985.220339 L510.294964,1015.59322 L510.294964,1076.81356 L510.294964,1076.81356 Z M578,1028.05263 L555.2,1041.31579 L555.2,1067.36842 L543.8,1074 L543.8,1047.94737 L521,1061.21053 L521,1047.94737 L543.8,1034.68421 L543.8,1008.63158 L555.2,1002 L555.2,1028.05263 L578,1014.78947 L578,1028.05263 Z M586,958.64 L578.4,962.96 L578.4,971.6 L574.6,974 L574.6,965.36 L567,969.68 L567,965.36 L574.6,961.04 L574.6,952.4 L578.4,950 L578.4,958.64 L586,954.32 L586,958.64 Z M578,893.176471 L578,906.352941 L555.2,919.529412 L555.2,945.411765 L543.8,952 L543.8,925.647059 L521,938.823529 L521,925.647059 L543.8,912.470588 L543.8,886.588235 L555.2,880 L555.2,905.882353 L578,893.176471 Z M532.5,826.97619 L544,833.809524 L521,847.47619 L544,861.142857 L532.5,867 L509.5,853.333333 L486.5,867 L475,860.166667 L498,846.5 L475,832.833333 L486.5,826 L509.5,839.666667 L532.5,826.97619 Z M473,795.5 L476.833333,793 L484.5,797.5 L492.166667,793 L496,795.5 L488.333333,800 L496,804.5 L492.166667,807 L484.5,802.5 L476.833333,807 L473,804.5 L480.666667,800 L473,795.5 Z M484,816.166667 L431.158683,846.5 L484,876.833333 L457.341317,892 L404.5,861.666667 L351.658683,892 L325,876.833333 L377.841317,846.5 L325,816.166667 L351.658683,801 L404.5,831.333333 L457.341317,801 L484,816.166667 Z M439,772.235294 L416,785.741176 L439,799.247059 L427.5,806 L404.5,792.011765 L381.5,805.517647 L370,798.764706 L393,785.258824 L370,771.752941 L381.5,765 L404.5,778.505882 L427.5,765 L439,772.235294 Z" id="admin_f1_0"></path>
        </g>
    </g>
</svg>