<svg width="144" height="16" viewBox="0 0 144 16" fill="none" xmlns="http://www.w3.org/2000/svg">
<path fill-rule="evenodd" clip-rule="evenodd" d="M15.4943 0H0V4.64558H3.0882V3.11493H12.4061V12.4061H10.8487V15.5212H15.4943V0ZM3.11493 12.4061V6.20313H0V15.5212H9.31805V12.4061H3.11493ZM24.3825 4.06901e-05H19.6027V15.5211H31.2569V11.5469H24.3825V4.06901e-05ZM33.2978 4.06901e-05H45.3011V3.97429H38.0777V5.90771H44.2807V9.61343H38.0777V15.5211H33.2978V4.06901e-05ZM56.1497 0.0537516H54.5117L48.2818 15.5211H49.8661L51.719 10.7144H58.7545L60.6342 15.5211H62.2185L56.1497 0.0537516ZM58.2443 9.45232H52.1755L55.2636 1.53067L58.2443 9.45232ZM64.2593 0.0537516H65.7363V15.5211H64.2593V0.0537516ZM83.3539 10.2864C83.2754 10.7867 83.1011 11.2672 82.8404 11.7014L79.0463 7.21542C79.4373 6.97816 79.8146 6.7406 80.1782 6.50274C80.5255 6.27856 80.8456 6.0148 81.132 5.71677C81.4051 5.42932 81.6251 5.09577 81.7817 4.73158C81.951 4.316 82.0331 3.87006 82.0229 3.42144C82.0232 3.03721 81.9453 2.65693 81.7939 2.30378C81.6425 1.95062 81.4208 1.63197 81.1424 1.36724C80.8509 1.09442 80.5092 0.880788 80.1363 0.738202C79.7284 0.58162 79.2945 0.503444 78.8576 0.50778C78.4139 0.505191 77.9723 0.568725 77.5474 0.69629C77.1539 0.812205 76.787 1.00456 76.4679 1.26237C76.1585 1.51628 75.9082 1.83458 75.7343 2.19512C75.547 2.5912 75.4537 3.02525 75.4618 3.46334C75.4551 4.10966 75.6293 4.74498 75.9648 5.29747C76.2932 5.84005 76.6647 6.3553 77.0759 6.83821C76.5923 7.05866 76.1293 7.32169 75.6923 7.62419C75.267 7.91767 74.8828 8.26663 74.5499 8.66181C74.2224 9.05181 73.9572 9.49022 73.7638 9.96142C73.5648 10.4541 73.4651 10.9813 73.4704 11.5127C73.4622 12.1431 73.5874 12.7682 73.8378 13.3468C74.0717 13.8835 74.415 14.3654 74.8457 14.7618C75.283 15.1595 75.7929 15.469 76.3474 15.6735C76.9387 15.8933 77.565 16.0034 78.1957 15.9985C79.1031 16.0181 80.0045 15.8467 80.8414 15.4954C81.6673 15.1057 82.393 14.5321 82.9629 13.8185L84.4327 15.6002H86.1313L83.6768 12.7074C84.0517 12.1279 84.3185 11.4852 84.4643 10.8105C84.6105 10.1381 84.6984 9.45426 84.727 8.76668H83.4693C83.4698 9.27545 83.4312 9.78351 83.3539 10.2864ZM76.6671 8.44173C77.0284 8.16631 77.4184 7.93088 77.8305 7.73958L82.1276 12.8542C81.6517 13.4319 81.0811 13.9245 80.4402 14.3111C79.7883 14.6893 79.0452 14.8814 78.2917 14.8665C77.8308 14.8716 77.3728 14.7935 76.9396 14.6359C76.5437 14.4925 76.1803 14.2716 75.8706 13.9862C75.5653 13.7002 75.3226 13.3541 75.1578 12.9696C74.9772 12.5421 74.888 12.0816 74.8958 11.6176C74.8959 11.2116 74.9742 10.8095 75.1264 10.4332C75.2814 10.0463 75.4895 9.68301 75.7447 9.35362C76.0109 9.01059 76.3211 8.70401 76.6671 8.44173ZM80.6709 3.39159C80.691 3.69638 80.637 4.0015 80.5135 4.28089C80.3093 4.74943 79.9791 5.15214 79.5597 5.44424C79.1335 5.74469 78.7108 6.02065 78.2917 6.27212C78.1516 6.10454 77.9909 5.90544 77.8094 5.67484C77.6275 5.44418 77.4564 5.20311 77.296 4.95164C77.1378 4.70527 77.001 4.44577 76.8872 4.17601C76.783 3.94505 76.726 3.69559 76.7195 3.44229C76.7154 3.18108 76.7728 2.92257 76.8872 2.6877C76.9952 2.46897 77.1489 2.27599 77.3379 2.12181C77.5287 1.96683 77.7451 1.84625 77.9772 1.76548C78.2197 1.68073 78.475 1.63815 78.7318 1.63956C79.0634 1.62853 79.392 1.70508 79.6846 1.86151C79.9772 2.01794 80.2234 2.24871 80.3983 2.53059C80.5573 2.79138 80.6509 3.08679 80.6709 3.39159ZM93.0695 15.6002V0.507772H98.2262C98.6453 0.507772 99.0575 0.518235 99.4629 0.53916C99.8641 0.559664 100.263 0.608715 100.658 0.685941C101.049 0.762904 101.432 0.87875 101.8 1.03175C102.182 1.19219 102.544 1.39614 102.88 1.63956C103.376 1.99647 103.797 2.44906 104.116 2.97075C104.436 3.49065 104.693 4.04649 104.882 4.6267C105.069 5.20006 105.202 5.78952 105.28 6.38752C105.353 6.93299 105.392 7.48258 105.395 8.03295C105.395 8.54446 105.363 9.05548 105.301 9.56317C105.239 10.0768 105.137 10.5848 104.997 11.0829C104.859 11.575 104.673 12.0525 104.441 12.5084C104.211 12.9625 103.918 13.3822 103.571 13.7556C103.244 14.1291 102.858 14.4476 102.429 14.6989C102.02 14.9354 101.583 15.1219 101.129 15.2544C100.667 15.3889 100.193 15.4801 99.7143 15.5269C99.225 15.5759 98.729 15.6003 98.2262 15.6002L93.0695 15.6002ZM94.495 14.3844H97.9118C98.5181 14.3868 99.1238 14.3484 99.7249 14.2692C100.331 14.1794 100.916 13.9843 101.454 13.6926C101.942 13.4536 102.366 13.1015 102.691 12.6655C103.012 12.2328 103.27 11.7564 103.456 11.2507C103.647 10.7322 103.78 10.1945 103.854 9.64701C103.929 9.11225 103.968 8.57298 103.97 8.03297C103.969 7.47585 103.934 6.91931 103.865 6.36649C103.798 5.81428 103.664 5.27226 103.467 4.75245C103.273 4.24688 103.005 3.77339 102.67 3.34796C102.317 2.90724 101.874 2.54647 101.37 2.28947C100.873 2.03731 100.333 1.88087 99.7773 1.82827C99.1579 1.75829 98.5351 1.72333 97.9118 1.72358H94.495V14.3844ZM112.228 0.507772L106.296 15.6002H107.763L109.545 10.8628H116.421L118.16 15.6002H119.628L113.842 0.507772H112.228ZM115.939 9.647H110.027L112.983 1.72357L115.939 9.647ZM119.774 0.507772H130.758V1.72356H125.979V15.6002H124.554V1.72357H119.774V0.507772ZM136.292 0.507772L130.36 15.6002L131.827 15.6002L133.609 10.8628H140.485L142.225 15.6002H143.692L137.906 0.507772H136.292ZM140.003 9.647H134.091L137.047 1.72357L140.003 9.647Z" fill="#00B3FF"/>
</svg>
