<svg width="105" height="24" viewBox="0 0 105 24" fill="none" xmlns="http://www.w3.org/2000/svg">
<path d="M16.9129 18.03C20.1664 18.03 22.8039 15.3353 22.8039 12.0111C22.8039 8.68688 20.1664 5.99209 16.9129 5.99209C13.6594 5.99209 11.0219 8.68688 11.0219 12.0111C11.0219 15.3353 13.6594 18.03 16.9129 18.03Z" fill="#00B3FF"/>
<path fill-rule="evenodd" clip-rule="evenodd" d="M7.97503 3.51684C12.6472 -1.17228 20.2235 -1.17228 24.8956 3.51684C29.5753 8.20595 29.5753 15.8085 24.8956 20.4899C20.2235 25.1713 12.6472 25.1713 7.97503 20.4822L0.338563 12.8182C-0.112854 12.3647 -0.112854 11.6344 0.338563 11.1808L7.97503 3.51684ZM10.661 18.2376C14.0917 21.6814 19.6592 21.6814 23.09 18.2376C26.5207 14.7938 26.5207 9.21296 23.0824 5.76915C19.6517 2.32534 14.0842 2.32534 10.6534 5.76915L5.04082 11.3961C4.70978 11.7343 4.70978 12.2724 5.04082 12.603L10.661 18.2376Z" fill="#00B3FF"/>
<path d="M31.5385 7.75236L34.9015 11.1885C35.3454 11.642 35.3454 12.3723 34.9015 12.8335L31.5385 16.2696C31.3428 16.4695 31.0043 16.285 31.0645 16.0006C31.6438 13.3793 31.6438 10.6427 31.0645 8.02141C30.9968 7.73699 31.3353 7.54481 31.5385 7.75236Z" fill="#00B3FF"/>
<path d="M59.9645 4.82776C59.9645 4.34213 60.1157 3.92272 60.4398 3.5916C60.7638 3.26049 61.1527 3.08389 61.6496 3.08389C62.125 3.08389 62.5354 3.26049 62.8595 3.5916C63.1836 3.92272 63.3564 4.34213 63.3564 4.82776C63.3564 5.3134 63.1836 5.73282 62.8595 6.06393C62.5354 6.39505 62.125 6.54957 61.6496 6.54957C61.1743 6.54957 60.7638 6.39505 60.4398 6.06393C60.1373 5.71074 59.9645 5.3134 59.9645 4.82776Z" fill="#00B3FF"/>
<path d="M60.1373 8.8453C60.1373 8.33759 60.2885 7.9844 60.5694 7.78573C60.8503 7.58706 61.2392 7.47669 61.7145 7.47669C62.0601 7.47669 62.3626 7.52084 62.6435 7.60914C62.9243 7.69743 63.0972 7.74158 63.1836 7.76366V17.3439H60.1373V8.8453Z" fill="#00B3FF"/>
<path d="M41.9459 11.0084C41.9459 10.3683 42.0539 9.8164 42.27 9.35284C42.486 8.88928 42.7885 8.49194 43.1774 8.16083C43.5663 7.82971 44.02 7.58689 44.5385 7.43237C45.057 7.27785 45.6403 7.18955 46.2453 7.18955C47.0015 7.18955 47.6712 7.322 48.2762 7.58689C48.8595 7.85178 49.3564 8.20498 49.7237 8.66854C50.091 8.20498 50.5663 7.85178 51.1496 7.58689C51.733 7.322 52.4027 7.18955 53.1589 7.18955C53.7638 7.18955 54.3255 7.27785 54.8441 7.43237C55.3626 7.58689 55.8163 7.82971 56.2052 8.16083C56.5941 8.49194 56.8965 8.88928 57.1126 9.35284C57.3286 9.8164 57.4367 10.3683 57.4367 11.0084V17.3217H54.3904V11.8914C54.3904 11.2292 54.2607 10.7656 54.0015 10.4786C53.7422 10.1917 53.3749 10.0592 52.878 10.0592C52.3811 10.0592 51.9922 10.2358 51.6681 10.5669C51.3657 10.898 51.2144 11.4278 51.2144 12.1784V17.3438H48.1681V12.1784C48.1681 11.4499 48.0169 10.9201 47.7144 10.5669C47.412 10.2358 47.0231 10.0592 46.5262 10.0592C46.0508 10.0592 45.662 10.1917 45.4027 10.4786C45.1218 10.7656 44.9922 11.2292 44.9922 11.8914V17.3217H41.9459V11.0084Z" fill="#00B3FF"/>
<path d="M66.4245 3.39294C66.1436 3.5916 65.9924 3.94479 65.9924 4.4525V17.3218H69.0387V3.37086C68.9523 3.34878 68.7794 3.30463 68.4986 3.21634C68.2177 3.12804 67.9152 3.08389 67.5695 3.08389C67.0942 3.08389 66.7054 3.19427 66.4245 3.39294Z" fill="#00B3FF"/>
<path d="M74.6122 17.3218C74.2234 16.6154 73.8345 15.887 73.4672 15.1365C73.1 14.3862 72.7541 13.6794 72.4518 13.0394C72.1493 12.3992 71.89 11.8253 71.6956 11.3838C71.5011 10.9203 71.3715 10.6333 71.3067 10.5008C71.1987 10.236 71.0906 9.94899 70.9826 9.63995C70.853 9.30883 70.8098 9.02187 70.8098 8.77905C70.8098 8.42586 70.9394 8.11681 71.1987 7.85192C71.4579 7.6091 71.8252 7.47666 72.3437 7.47666C72.7542 7.47666 73.0783 7.52081 73.3376 7.60911C73.5963 7.69724 73.7265 7.74158 73.7697 7.76363C73.9857 8.40379 74.2018 9.04394 74.461 9.6841C74.6519 10.1982 74.8427 10.6838 75.0224 11.1409L75.0231 11.1428C75.0669 11.2543 75.1101 11.364 75.1524 11.4721C75.3684 12.024 75.5629 12.5096 75.7573 12.929C75.9301 13.3484 76.0598 13.6354 76.1462 13.812C76.1942 13.7139 76.2489 13.5817 76.3177 13.4154C76.3726 13.2826 76.4368 13.1273 76.5135 12.9511C76.6286 12.6863 76.7438 12.3922 76.8654 12.0817C76.9262 11.9264 76.9888 11.7663 77.0536 11.6046C77.1508 11.3618 77.248 11.1135 77.3452 10.8652C77.4425 10.6169 77.5397 10.3684 77.6369 10.1256C77.8314 9.63995 78.0042 9.19846 78.1339 8.86735C78.153 8.82331 78.1711 8.78035 78.1889 8.73824C78.2511 8.59038 78.309 8.45294 78.3931 8.31549C78.4795 8.13889 78.6092 8.00645 78.7388 7.874C78.8684 7.74155 79.0413 7.65325 79.2141 7.58703C79.4086 7.52081 79.6462 7.49873 79.9055 7.49873C80.1647 7.49873 80.3808 7.52081 80.5968 7.58703C80.7913 7.63118 80.9857 7.69741 81.1369 7.76363C81.2882 7.82985 81.4178 7.89607 81.5042 7.94022C81.5539 7.97825 81.5964 8.00172 81.6276 8.01899C81.6508 8.03178 81.6679 8.0412 81.6771 8.05059C81.6339 8.29341 81.5042 8.62453 81.3098 9.11017C81.2393 9.27824 81.1659 9.45793 81.0887 9.64712L81.0877 9.64969C80.9522 9.98158 80.8049 10.3427 80.64 10.7216C80.3808 11.3176 80.0999 11.9578 79.7974 12.62C79.6546 12.9328 79.5117 13.2407 79.3711 13.5437L79.3697 13.5465C79.2133 13.8837 79.0593 14.2155 78.9116 14.5405C78.6308 15.1585 78.3499 15.7104 78.0906 16.2181C77.8314 16.7037 77.637 17.101 77.5074 17.3659L74.6122 17.366V17.3218Z" fill="#00B3FF"/>
<path d="M88.0724 14.7391C86.8841 14.7391 86.3008 14.0769 86.3008 12.7304V7.76363C86.2144 7.74155 86.0415 7.69741 85.7607 7.60911C85.4798 7.52081 85.1773 7.47666 84.8317 7.47666C84.3564 7.47666 83.9675 7.58703 83.6866 7.7857C83.4057 7.98437 83.2545 8.33756 83.2545 8.84527V13.3043C83.2545 14.0107 83.3841 14.6508 83.6218 15.1806C83.881 15.7104 84.2051 16.1519 84.6372 16.5051C85.0693 16.8583 85.5878 17.1232 86.1712 17.2998C86.7545 17.4763 87.3811 17.5646 88.0724 17.5646C88.7422 17.5646 89.3903 17.4763 89.9736 17.2998C90.5786 17.1232 91.0755 16.8583 91.5076 16.5051C91.9397 16.1519 92.2854 15.7104 92.523 15.1806C92.7607 14.6508 92.8903 14.0327 92.8903 13.3043V7.76363C92.8039 7.74155 92.6311 7.69741 92.3502 7.60911C92.0693 7.52081 91.7669 7.47666 91.4212 7.47666C90.9459 7.47666 90.557 7.58703 90.2761 7.7857C89.9952 7.98437 89.844 8.33756 89.844 8.84527V12.7304C89.844 14.0769 89.2607 14.7391 88.0724 14.7391Z" fill="#00B3FF"/>
<path d="M95.98 14.3196C96.088 14.4079 96.2392 14.4962 96.4769 14.6065C96.7146 14.7169 96.9954 14.8273 97.3195 14.9156C97.6436 15.0039 98.0108 15.0922 98.4213 15.1584C98.8318 15.2246 99.2639 15.2688 99.7176 15.2688C100.236 15.2688 100.625 15.2246 100.884 15.1142C101.144 15.026 101.273 14.8494 101.273 14.6065C101.273 14.3416 101.165 14.1651 100.949 14.0768C100.733 13.9885 100.387 13.9002 99.9121 13.8339L98.9183 13.7236C98.4213 13.6573 97.946 13.569 97.4923 13.4366C97.0386 13.3042 96.6281 13.1276 96.2825 12.8847C95.9368 12.6419 95.6559 12.3329 95.4615 11.9576C95.267 11.5823 95.159 11.1188 95.159 10.5449C95.159 10.0592 95.2454 9.61774 95.4183 9.2204C95.5911 8.82306 95.8504 8.46987 96.2176 8.16083C96.5849 7.85179 97.0602 7.60897 97.622 7.45445C98.1837 7.27785 98.875 7.18955 99.6528 7.18955C100.452 7.18955 101.122 7.2337 101.705 7.34407C102.289 7.45444 102.764 7.60897 103.196 7.82971C103.434 7.96216 103.628 8.11667 103.779 8.29327C103.931 8.46986 103.995 8.71269 103.995 8.97758C103.995 9.17625 103.952 9.37492 103.866 9.52944C103.779 9.68396 103.693 9.83847 103.585 9.94885C103.477 10.0592 103.369 10.1475 103.282 10.2137C103.196 10.28 103.131 10.3241 103.11 10.3241C103.083 10.2968 103.031 10.2611 102.96 10.2117C102.916 10.1812 102.865 10.1455 102.807 10.1034C102.634 9.99299 102.418 9.9047 102.116 9.79433C101.835 9.70603 101.489 9.61773 101.1 9.52944C100.711 9.44114 100.258 9.41907 99.7393 9.41907C99.1775 9.41907 98.767 9.48529 98.551 9.61774C98.3349 9.75018 98.2269 9.92677 98.2269 10.1475C98.2269 10.3683 98.3349 10.5228 98.5294 10.6111C98.7238 10.6994 99.0263 10.7877 99.4368 10.8539L101.165 11.0967C101.597 11.1629 102.008 11.2512 102.397 11.3837C102.786 11.5161 103.153 11.6927 103.455 11.9135C103.758 12.1563 104.017 12.4433 104.19 12.7964C104.363 13.1496 104.471 13.5911 104.471 14.1209C104.471 15.2025 104.06 16.0414 103.261 16.6595C102.461 17.2555 101.338 17.5645 99.9121 17.5645C99.1775 17.5645 98.5078 17.5204 97.9244 17.41C97.3411 17.2996 96.8658 17.1892 96.4337 17.0568C96.0232 16.9243 95.6775 16.7698 95.4183 16.6374C95.2318 16.5263 95.0901 16.438 94.985 16.3725C94.9439 16.347 94.9085 16.3249 94.8781 16.3063L95.98 14.3196Z" fill="#00B3FF"/>
</svg>
