<?xml version="1.0" encoding="UTF-8"?>
<svg width="80px" height="80px" viewBox="0 0 80 80" version="1.1" xmlns="http://www.w3.org/2000/svg" xmlns:xlink="http://www.w3.org/1999/xlink">
    <!-- Generator: Sketch 62 (91390) - https://sketch.com -->
    <title>community/bilibili</title>
    <desc>Created with Sketch.</desc>
    <g id="light" stroke="none" stroke-width="1" fill="none" fill-rule="evenodd">
        <g id="Home" transform="translate(-917.000000, -2592.000000)" fill="#4FC4F9" fill-rule="nonzero">
            <g id="bilibili" transform="translate(917.000000, 2614.000000)">
                <path d="M22.1814475,26.030581 C20.9989806,25.1335372 19.6697248,24.5056065 18.2915392,23.9510703 C15.4862385,22.841998 12.5586137,22.4424057 9.56574924,22.5239551 C8.86442406,22.5239551 8.15494393,22.5810398 7.42915392,22.6218145 C7.42915392,22.5647299 7.37206932,22.4913354 7.37206932,22.393476 C7.18450561,20.2568807 6.95616718,18.1284404 6.80122324,16.0244648 C6.67074414,14.2711519 6.61365953,12.5178389 6.57288481,10.764526 C6.5158002,7.3883792 6.5158002,4.03669725 6.5158002,0.660550459 C6.5158002,-0.138634047 6.4587156,-0.0407747197 5.8470948,0.220183486 C3.96330275,0.978593272 2.09582059,1.72884811 0.203873598,2.44648318 C0.146788991,2.50356779 0.0489296636,2.6911315 0.0897043833,2.78899083 C0.660550459,4.92558614 1.08460754,7.11111111 1.37003058,9.28848114 C1.65545362,11.1722732 1.90010194,13.0071356 2.16921509,14.8501529 C2.39755352,16.4729867 2.55249745,18.0876656 2.74006116,19.7268094 C2.92762487,21.382263 3.1559633,23.0458716 3.35168196,24.7176351 C3.53924567,26.3160041 3.73496432,27.8654434 3.92252803,29.4638124 C4.05300714,30.6055046 4.16717635,31.7308869 4.26503568,32.872579 C4.32212029,33.7696228 4.39551478,34.6666667 4.41997961,35.5229358 C4.41997961,35.7104995 4.47706422,35.8083588 4.66462793,35.8083588 C5.08053007,35.8083588 5.46381244,35.8654434 5.86340469,35.8083588 C7.80428135,35.6207951 9.75331295,35.4821611 11.6534149,35.196738 C13.1213048,34.9683996 14.54842,34.6258919 15.9592253,34.1447503 C17.9571865,33.4760449 19.6778797,32.3343527 21.3333333,31.0214067 C22.0346585,30.4913354 22.6136595,29.8389399 22.8583078,29.0234455 C23.3965341,27.6860347 23.1681957,26.7726809 22.1814475,26.030581 L22.1814475,26.030581 Z M11.204893,32.3751274 C10.9194699,30.2385321 10.6340469,28.1671764 10.3486239,26.1039755 C11.4576962,26.3486239 16.1060143,28.1997961 16.3343527,28.4852192 C14.6299694,29.7655454 12.9582059,31.0621814 11.204893,32.3751274 L11.204893,32.3751274 Z M33.3863405,27.058104 C33.2884811,25.9490316 33.1987768,24.7910296 33.0601427,23.6819572 C32.9296636,22.1569827 32.7747197,20.6320082 32.6442406,19.0907238 C32.5137615,17.6799185 32.4566769,16.285423 32.3588175,14.8827727 C32.2283384,12.941896 32.0733945,10.9928644 31.9429154,9.05198777 L31.6574924,4.74617737 C31.6167176,4.21610601 31.412844,4.07747197 30.8583078,4.11824669 C30.1896024,4.17533129 29.5453619,4.21610601 28.8766565,4.24872579 C28.3058104,4.3058104 27.7349643,4.37920489 27.1804281,4.4362895 C28.8929664,13.5453619 29.6595311,22.6707441 30.5565749,31.7308869 C31.6085627,31.8287462 32.5545362,31.8858308 33.5494393,31.9755352 C33.7370031,32.0163099 33.8348624,31.9755352 33.8348624,31.7879715 L33.7370031,30.7359837 C33.6472987,29.4801223 33.5168196,28.2568807 33.3863405,27.058104 L33.3863405,27.058104 Z M28.1590214,28.1997961 C28.0285423,27.058104 27.9143731,25.9327217 27.775739,24.7910296 C27.6452599,23.4943935 27.5310907,22.1814475 27.3598369,20.8848114 C27.2619776,20.0856269 27.1314985,19.3190622 27.0173293,18.5606524 C26.9765545,18.2752294 26.7889908,18.1447503 26.4872579,18.17737 C25.9571865,18.2344546 25.3781855,18.2344546 24.8318043,18.3078491 C24.0733945,18.4057085 23.3068298,18.5361876 22.5076453,18.6340469 C23.4617737,23.6085627 24.4159021,28.4689093 25.4026504,33.4026504 C26.5443425,33.2477064 27.6289501,33.1172273 28.7380224,32.9867482 C28.6972477,32.6034659 28.6401631,32.2283384 28.6075433,31.8776758 C28.4444444,30.6218145 28.2976555,29.3985729 28.1590214,28.1997961 L28.1590214,28.1997961 Z M39.559633,33.2884811 C39.5188583,31.4046891 39.4617737,29.5698267 39.4291539,27.6860347 C39.3883792,25.3618756 39.4291539,22.9969419 39.4291539,20.6727829 C39.4291539,20.1590214 39.3883792,19.6778797 39.3720693,19.1641182 C39.3720693,18.9357798 39.2415902,18.7482161 38.988787,18.7482161 C37.9938838,18.7074414 36.9908257,18.6911315 35.9959225,18.6911315 C35.6126402,18.6911315 35.2701325,18.7482161 34.8868502,18.8216106 C34.9276249,18.9520897 34.9276249,19.049949 34.9276249,19.1478084 C35.058104,20.7461774 35.2130479,22.3282365 35.343527,23.8939857 C35.4740061,25.4189602 35.6289501,26.9847095 35.7594292,28.509684 C35.9143731,30.1651376 36.0448522,31.8287462 36.1997961,33.4841998 C36.1997961,33.5820591 36.3547401,33.7288481 36.4444444,33.7288481 C37.4556575,33.7696228 38.5239551,33.7288481 39.5922528,33.7288481 C39.559633,33.5168196 39.559633,33.3863405 39.559633,33.2884811 L39.559633,33.2884811 Z M26.6911315,16.3506626 C26.5035678,14.540265 26.3486239,12.8277268 26.17737,11.0744139 C26.1365953,10.8460754 26.0468909,10.7319062 25.8511723,10.7319062 C25.2395515,10.7319062 24.6116208,10.7319062 23.9673802,10.7726809 C24.2120285,12.7135576 24.440367,14.5810398 24.6931702,16.5056065 C25.4026504,16.440367 26.030581,16.4240571 26.6911315,16.3506626 L26.6911315,16.3506626 Z M39.27421,16.6360856 L39.27421,11.7920489 C39.27421,11.4495413 39.1437309,11.351682 38.8583078,11.351682 L37.2028542,11.351682 L37.2028542,16.9133537 C37.9286442,16.9541284 38.6136595,16.9704383 39.2823649,17.011213 L39.2823649,16.6360856 L39.27421,16.6360856 Z M23.8939857,16.579001 L23.8939857,16.1957187 C23.7961264,15.2008155 23.6656473,14.254842 23.567788,13.2599388 C23.5107034,12.6320082 23.4373089,12.0203874 23.3802243,11.3761468 C23.3394495,11.2212029 23.420999,10.9928644 23.1518858,11.0336391 C22.540265,11.0907238 21.9531091,11.2212029 21.3414883,11.2782875 C21.6839959,13.1620795 22.0101937,14.9969419 22.3527013,16.8399592 L23.8939857,16.579001 L23.8939857,16.579001 Z M36.509684,16.8970438 L36.509684,14.0020387 C36.509684,13.243629 36.4689093,12.4362895 36.509684,11.6778797 C36.509684,11.3924567 36.4118247,11.3353721 36.1671764,11.3353721 L34.470948,11.3353721 C34.6258919,13.3170234 34.756371,15.1845056 34.911315,17.0356779 C35.4250765,16.9949032 35.9388379,16.9541284 36.509684,16.8970438 L36.509684,16.8970438 Z" id="Shape"></path>
                <path d="M62.5810398,26.030581 C61.3985729,25.1335372 60.069317,24.5056065 58.6911315,23.9510703 C55.8858308,22.841998 52.9582059,22.4424057 49.9653415,22.5239551 C49.2640163,22.5239551 48.5545362,22.5810398 47.8287462,22.6218145 C47.8287462,22.5647299 47.7716616,22.4913354 47.7716616,22.393476 C47.5840979,20.2568807 47.3557594,18.1284404 47.2008155,16.0244648 C47.0703364,14.2711519 47.0132518,12.5178389 46.9724771,10.764526 C46.9153925,7.3883792 46.9153925,4.03669725 46.9153925,0.660550459 C46.9153925,-0.138634047 46.8583078,-0.0407747197 46.2466871,0.220183486 C44.362895,0.978593272 42.4954128,1.72884811 40.6034659,2.44648318 C40.5463812,2.4872579 40.4485219,2.67482161 40.4729867,2.77268094 C41.0438328,4.90927625 41.4678899,7.09480122 41.7533129,9.27217125 C42.038736,11.1559633 42.2833843,12.9908257 42.5524975,14.833843 C42.7808359,16.4566769 42.9357798,18.0713558 43.1233435,19.7104995 C43.3109072,21.3659531 43.5392457,23.0295617 43.7349643,24.7013252 C43.922528,26.2996942 44.1182467,27.8491335 44.3058104,29.4475025 C44.4362895,30.5891947 44.5504587,31.714577 44.648318,32.8562691 C44.7054027,33.7533129 44.7787971,34.6503568 44.803262,35.5066259 C44.803262,35.6941896 44.8603466,35.7920489 45.0479103,35.7920489 C45.4638124,35.7920489 45.8470948,35.8491335 46.2466871,35.7920489 C48.1875637,35.6044852 50.1365953,35.4658512 52.0366972,35.1804281 C53.5045872,34.9520897 54.9317023,34.6095821 56.3425076,34.1284404 C58.3404689,33.459735 60.0611621,32.3180428 61.7166157,31.0050968 C62.4179409,30.4750255 62.9969419,29.82263 63.2415902,29.0071356 C63.8042813,27.6860347 63.5759429,26.7726809 62.5810398,26.030581 L62.5810398,26.030581 Z M51.6044852,32.3751274 C51.3190622,30.2385321 51.0336391,28.1671764 50.7482161,26.1039755 C51.8572885,26.3486239 56.5056065,28.1997961 56.733945,28.4852192 C55.0377166,29.7655454 53.3577982,31.0621814 51.6044852,32.3751274 L51.6044852,32.3751274 Z M73.7859327,27.058104 C73.6880734,25.9490316 73.598369,24.7910296 73.459735,23.6819572 C73.3292559,22.1569827 73.1743119,20.6320082 73.0438328,19.0907238 C72.9133537,17.6799185 72.8562691,16.285423 72.7584098,14.8827727 C72.6279307,12.941896 72.4729867,10.9928644 72.3425076,9.05198777 L72.0570846,4.74617737 C72.0163099,4.21610601 71.8124363,4.07747197 71.2579001,4.11824669 C70.5891947,4.17533129 69.9449541,4.21610601 69.2762487,4.24872579 C68.7054027,4.3058104 68.1345566,4.37920489 67.5800204,4.4362895 C69.2925586,13.5453619 70.0509684,22.6707441 70.9480122,31.7227319 C72,31.8205912 72.9459735,31.8776758 73.9408767,31.9673802 C74.1284404,32.0081549 74.2262997,31.9673802 74.2262997,31.7798165 L74.1284404,30.7278287 C74.0550459,29.4801223 73.9245668,28.2568807 73.7859327,27.058104 L73.7859327,27.058104 Z M68.5667686,28.1997961 C68.4362895,27.058104 68.3221203,25.9327217 68.1834862,24.7910296 C68.0530071,23.4943935 67.9388379,22.1814475 67.7675841,20.8848114 C67.6697248,20.0856269 67.5392457,19.3190622 67.4250765,18.5606524 C67.3843017,18.2752294 67.196738,18.1447503 66.8950051,18.17737 C66.3649337,18.2344546 65.7859327,18.2344546 65.2395515,18.3078491 C64.4811417,18.4057085 63.714577,18.5361876 62.9153925,18.6340469 C63.8695209,23.6085627 64.8236493,28.4689093 65.8103976,33.4026504 C66.9520897,33.2477064 68.0366972,33.1172273 69.1457696,32.9867482 C69.1049949,32.6034659 69.0479103,32.2283384 69.0152905,31.8776758 C68.8521916,30.6218145 68.6972477,29.3985729 68.5667686,28.1997961 L68.5667686,28.1997961 Z M79.9592253,33.2884811 C79.9184506,31.4046891 79.861366,29.5698267 79.8287462,27.6860347 C79.7879715,25.3618756 79.8287462,22.9969419 79.8287462,20.6727829 C79.8287462,20.1590214 79.7879715,19.6778797 79.7716616,19.1641182 C79.7716616,18.9357798 79.6411825,18.7482161 79.3883792,18.7482161 C78.393476,18.7074414 77.3904179,18.6911315 76.3955148,18.6911315 C76.0122324,18.6911315 75.6697248,18.7482161 75.2864424,18.8216106 C75.3272171,18.9520897 75.3272171,19.049949 75.3272171,19.1478084 C75.4576962,20.7461774 75.6126402,22.3282365 75.7431193,23.8939857 C75.8735984,25.4189602 76.0285423,26.9847095 76.1590214,28.509684 C76.3139653,30.1651376 76.4444444,31.8287462 76.5993884,33.4841998 C76.5993884,33.5820591 76.7543323,33.7288481 76.8440367,33.7288481 C77.8552497,33.7696228 78.9235474,33.7288481 79.9918451,33.7288481 C79.9592253,33.5168196 79.9592253,33.3863405 79.9592253,33.2884811 L79.9592253,33.2884811 Z M67.0988787,16.3506626 C66.911315,14.540265 66.756371,12.8277268 66.5851172,11.0744139 C66.5443425,10.8460754 66.4546381,10.7319062 66.2589195,10.7319062 C65.6472987,10.7319062 65.019368,10.7319062 64.3751274,10.7726809 C64.6197757,12.7135576 64.8481142,14.5810398 65.1009174,16.5056065 C65.8022426,16.440367 66.4301733,16.4240571 67.0988787,16.3506626 L67.0988787,16.3506626 Z M79.6738022,16.6360856 L79.6738022,11.7920489 C79.6738022,11.4495413 79.5433231,11.351682 79.2579001,11.351682 L77.6024465,11.351682 L77.6024465,16.9133537 C78.3282365,16.9541284 79.0132518,16.9704383 79.6819572,17.011213 L79.6819572,16.6360856 L79.6738022,16.6360856 Z M64.293578,16.579001 L64.293578,16.1957187 C64.1957187,15.2008155 64.0652396,14.254842 63.9673802,13.2599388 C63.9102956,12.6320082 63.8369011,12.0203874 63.7798165,11.3761468 C63.7390418,11.2212029 63.8205912,10.9928644 63.5514781,11.0336391 C62.9398573,11.0907238 62.3527013,11.2212029 61.7410805,11.2782875 C62.0835882,13.1620795 62.4097859,14.9969419 62.7522936,16.8399592 L64.293578,16.579001 L64.293578,16.579001 Z M76.9092762,16.8970438 L76.9092762,14.0020387 C76.9092762,13.243629 76.8685015,12.4362895 76.9092762,11.6778797 C76.9092762,11.3924567 76.8114169,11.3353721 76.5667686,11.3353721 L74.8705403,11.3353721 C75.0254842,13.3170234 75.1559633,15.1845056 75.3109072,17.0356779 C75.8246687,16.9949032 76.3384302,16.9541284 76.9092762,16.8970438 L76.9092762,16.8970438 Z" id="Shape"></path>
            </g>
        </g>
    </g>
</svg>