<?xml version="1.0" encoding="UTF-8"?>
<svg width="81px" height="80px" viewBox="0 0 81 80" version="1.1" xmlns="http://www.w3.org/2000/svg" xmlns:xlink="http://www.w3.org/1999/xlink">
    <!-- Generator: Sketch 62 (91390) - https://sketch.com -->
    <title>community/medium</title>
    <desc>Created with Sketch.</desc>
    <g id="light" stroke="none" stroke-width="1" fill="none" fill-rule="evenodd">
        <g id="Home" transform="translate(-1086.000000, -3074.000000)" fill="#4FC4F9" fill-rule="nonzero">
            <g id="Group-6" transform="translate(256.500000, 2914.000000)">
                <g id="medium-m" transform="translate(836.000000, 173.000000)">
                    <path d="M8.63879503,11.5930253 C8.72066396,10.7936507 8.40683307,9.99427599 7.80646094,9.45232706 L1.65264659,2.08182159 L1.65264659,0.984375 L20.7826859,0.984375 L35.573672,33.1896903 L48.5771866,0.984375 L66.8203125,0.984375 L66.8203125,2.08182159 L61.5534115,7.09484921 C61.1031324,7.43356729 60.8711705,8.00261367 60.9666842,8.55811132 L60.9666842,45.4106387 C60.8711705,45.9661363 61.1031324,46.5351827 61.5534115,46.8739008 L66.6975091,51.8869284 L66.6975091,52.984375 L40.8132833,52.984375 L40.8132833,51.8869284 L46.1484084,46.7519623 C46.6669116,46.2371108 46.6669116,46.0745261 46.6669116,45.2887002 L46.6669116,15.5086064 L31.834991,52.8895339 L29.8292023,52.8895339 L12.5821483,15.5086064 L12.5821483,40.5601957 C12.4320553,41.6169962 12.7868207,42.6737966 13.5372858,43.4325251 L20.468855,51.7785386 L20.468855,52.8759852 L0.8203125,52.8759852 L0.8203125,51.7920874 L7.75188165,43.4325251 C8.488702,42.6737966 8.82982253,41.6034474 8.63879503,40.5601957 L8.63879503,11.5930253 Z" id="Path"></path>
                </g>
            </g>
        </g>
    </g>
</svg>