<?xml version="1.0" encoding="UTF-8"?>
<svg width="80px" height="80px" viewBox="0 0 80 80" version="1.1" xmlns="http://www.w3.org/2000/svg" xmlns:xlink="http://www.w3.org/1999/xlink">
    <!-- Generator: Sketch 62 (91390) - https://sketch.com -->
    <title>community/medium</title>
    <desc>Created with Sketch.</desc>
    <g id="light" stroke="none" stroke-width="1" fill="none" fill-rule="evenodd">
        <g id="Home" transform="translate(-1079.000000, -2592.000000)" fill="#4FC4F9" fill-rule="nonzero">
            <g id="medium-m" transform="translate(1081.000000, 2602.000000)">
                <path d="M8.984375,12.234375 C9.078125,11.3125 8.71875,10.390625 8.03125,9.765625 L0.984375,1.265625 L0.984375,0 L22.890625,0 L39.828125,37.140625 L54.71875,0 L75.609375,0 L75.609375,1.265625 L69.578125,7.046875 C69.0625,7.4375 68.796875,8.09375 68.90625,8.734375 L68.90625,51.234375 C68.796875,51.875 69.0625,52.53125 69.578125,52.921875 L75.46875,58.703125 L75.46875,59.96875 L45.828125,59.96875 L45.828125,58.703125 L51.9375,52.78125 C52.53125,52.1875 52.53125,52 52.53125,51.09375 L52.53125,16.75 L35.546875,59.859375 L33.25,59.859375 L13.5,16.75 L13.5,45.640625 C13.328125,46.859375 13.734375,48.078125 14.59375,48.953125 L22.53125,58.578125 L22.53125,59.84375 L0.03125,59.84375 L0.03125,58.59375 L7.96875,48.953125 C8.8125,48.078125 9.203125,46.84375 8.984375,45.640625 L8.984375,12.234375 Z" id="Path"></path>
            </g>
        </g>
    </g>
</svg>