<?xml version="1.0" encoding="UTF-8"?>
<svg width="80px" height="80px" viewBox="0 0 80 80" version="1.1" xmlns="http://www.w3.org/2000/svg" xmlns:xlink="http://www.w3.org/1999/xlink">
    <!-- Generator: Sketch 62 (91390) - https://sketch.com -->
    <title>community/slack</title>
    <desc>Created with Sketch.</desc>
    <g id="light" stroke="none" stroke-width="1" fill="none" fill-rule="evenodd">
        <g id="Home" transform="translate(-269.000000, -2592.000000)" fill="#4FC4F9" fill-rule="nonzero">
            <path d="M291.605357,2639.91518 C291.605357,2643.38393 288.771429,2646.21786 285.302679,2646.21786 C281.833929,2646.21786 279,2643.38393 279,2639.91518 C279,2636.44643 281.833929,2633.6125 285.302679,2633.6125 L291.605357,2633.6125 L291.605357,2639.91518 Z M294.782143,2639.91518 C294.782143,2636.44643 297.616071,2633.6125 301.084821,2633.6125 C304.553571,2633.6125 307.3875,2636.44643 307.3875,2639.91518 L307.3875,2655.69732 C307.3875,2659.16607 304.553571,2662 301.084821,2662 C297.616071,2662 294.782143,2659.16607 294.782143,2655.69732 L294.782143,2639.91518 Z M301.084821,2614.60536 C297.616071,2614.60536 294.782143,2611.77143 294.782143,2608.30268 C294.782143,2604.83393 297.616071,2602 301.084821,2602 C304.553571,2602 307.3875,2604.83393 307.3875,2608.30268 L307.3875,2614.60536 L301.084821,2614.60536 L301.084821,2614.60536 Z M301.084821,2617.78214 C304.553571,2617.78214 307.3875,2620.61607 307.3875,2624.08482 C307.3875,2627.55357 304.553571,2630.3875 301.084821,2630.3875 L285.302679,2630.3875 C281.833929,2630.3875 279,2627.55357 279,2624.08482 C279,2620.61607 281.833929,2617.78214 285.302679,2617.78214 L301.084821,2617.78214 L301.084821,2617.78214 Z M326.394643,2624.08482 C326.394643,2620.61607 329.228571,2617.78214 332.697321,2617.78214 C336.166071,2617.78214 339,2620.61607 339,2624.08482 C339,2627.55357 336.166071,2630.3875 332.697321,2630.3875 L326.394643,2630.3875 L326.394643,2624.08482 L326.394643,2624.08482 Z M323.217857,2624.08482 C323.217857,2627.55357 320.383929,2630.3875 316.915179,2630.3875 C313.446429,2630.3875 310.6125,2627.55357 310.6125,2624.08482 L310.6125,2608.30268 C310.6125,2604.83393 313.446429,2602 316.915179,2602 C320.383929,2602 323.217857,2604.83393 323.217857,2608.30268 L323.217857,2624.08482 Z M316.915179,2649.39464 C320.383929,2649.39464 323.217857,2652.22857 323.217857,2655.69732 C323.217857,2659.16607 320.383929,2662 316.915179,2662 C313.446429,2662 310.6125,2659.16607 310.6125,2655.69732 L310.6125,2649.39464 L316.915179,2649.39464 Z M316.915179,2646.21786 C313.446429,2646.21786 310.6125,2643.38393 310.6125,2639.91518 C310.6125,2636.44643 313.446429,2633.6125 316.915179,2633.6125 L332.697321,2633.6125 C336.166071,2633.6125 339,2636.44643 339,2639.91518 C339,2643.38393 336.166071,2646.21786 332.697321,2646.21786 L316.915179,2646.21786 Z" id="Shape"></path>
        </g>
    </g>
</svg>