<?xml version="1.0" encoding="UTF-8"?>
<svg width="80px" height="80px" viewBox="0 0 80 80" version="1.1" xmlns="http://www.w3.org/2000/svg" xmlns:xlink="http://www.w3.org/1999/xlink">
    <!-- Generator: Sketch 62 (91390) - https://sketch.com -->
    <title>community/twitter</title>
    <desc>Created with Sketch.</desc>
    <g id="light" stroke="none" stroke-width="1" fill="none" fill-rule="evenodd">
        <g id="Home" transform="translate(-755.000000, -2592.000000)" fill="#4FC4F9" fill-rule="nonzero">
            <path d="M821.39358,2616.95307 C821.440553,2617.60929 821.440553,2618.26565 821.440553,2618.92187 C821.440553,2638.93741 806.18045,2662 778.289423,2662 C769.696718,2662 761.714515,2659.51552 755,2655.2032 C756.22086,2655.34374 757.394603,2655.39063 758.662436,2655.39063 C765.752444,2655.39063 772.279212,2653.00008 777.491174,2648.92194 C770.823632,2648.78126 765.236032,2644.42191 763.310868,2638.42187 C764.250036,2638.5624 765.189059,2638.65619 766.1752,2638.65619 C767.536834,2638.65619 768.898613,2638.46862 770.166301,2638.14065 C763.217067,2636.73428 758.004961,2630.6406 758.004961,2623.28122 L758.004961,2623.09379 C760.023926,2624.2188 762.371845,2624.92191 764.860249,2625.01556 C760.775202,2622.29675 758.098907,2617.65618 758.098907,2612.40614 C758.098907,2609.5937 758.850038,2607.01557 760.164844,2604.76555 C767.630635,2613.95305 778.852808,2619.95295 791.43647,2620.60931 C791.201751,2619.4843 791.060832,2618.31255 791.060832,2617.14064 C791.060832,2608.7968 797.82232,2602 806.227134,2602 C810.593873,2602 814.538002,2603.82812 817.308388,2606.78125 C820.73596,2606.12503 824.022758,2604.85934 826.934062,2603.12501 C825.807003,2606.64071 823.4124,2609.59384 820.266521,2611.46871 C823.318599,2611.14075 826.276732,2610.29681 829,2609.12505 C826.934351,2612.12493 824.351712,2614.7967 821.39358,2616.95307 Z" id="Path"></path>
        </g>
    </g>
</svg>