<?xml version="1.0" encoding="UTF-8"?>
<svg width="80px" height="80px" viewBox="0 0 80 80" version="1.1" xmlns="http://www.w3.org/2000/svg" xmlns:xlink="http://www.w3.org/1999/xlink">
    <!-- Generator: Sketch 62 (91390) - https://sketch.com -->
    <title>community/wechat</title>
    <desc>Created with Sketch.</desc>
    <g id="light" stroke="none" stroke-width="1" fill="none" fill-rule="evenodd">
        <g id="Home" transform="translate(-432.000000, -2592.000000)" fill="#4FC4F9" fill-rule="nonzero">
            <g id="weixin" transform="translate(435.000000, 2602.000000)">
                <path d="M49.7371938,18.1202673 C50.5924276,18.1202673 51.4209354,18.1603563 52.2494432,18.2672606 C50.0311804,7.79064588 38.7928731,0 26.0178174,0 C11.6926503,0 0,9.72828508 0,22.1024499 C0,29.2383073 3.91536748,35.1314031 10.4097996,39.688196 L7.83073497,47.518931 L16.9175947,42.9621381 C20.1781737,43.6035635 22.7706013,44.2583519 26.0311804,44.2583519 C26.8596882,44.2583519 27.6481069,44.2182628 28.4766147,44.1514477 C27.9420935,42.4276169 27.6481069,40.596882 27.6481069,38.6993318 C27.6347439,27.3541203 37.389755,18.1202673 49.7371938,18.1202673 Z M35.7728285,11.0512249 C37.7104677,11.0512249 39.0066815,12.3474388 39.0066815,14.311804 C39.0066815,16.2494432 37.7104677,17.545657 35.7728285,17.545657 C33.7951002,17.545657 31.857461,16.2494432 31.857461,14.311804 C31.8708241,12.3474388 33.8084633,11.0512249 35.7728285,11.0512249 Z M17.545657,17.545657 C15.6080178,17.545657 13.6302895,16.2494432 13.6302895,14.311804 C13.6302895,12.3340757 15.6080178,11.0512249 17.545657,11.0512249 C19.5233853,11.0512249 20.8062361,12.3474388 20.8062361,14.311804 C20.8062361,16.2628062 19.5233853,17.545657 17.545657,17.545657 Z M73.4966592,38.4053452 C73.4966592,27.9955457 63.0868597,19.5233853 51.3942094,19.5233853 C39.0066815,19.5233853 29.2917595,27.9955457 29.2917595,38.4053452 C29.2917595,48.8151448 39.0200445,57.2873051 51.3942094,57.2873051 C53.9732739,57.2873051 56.5924276,56.6057906 59.2249443,55.9643653 L66.3608018,59.8797327 L64.3830735,53.3853007 C69.6213808,49.4565702 73.4966592,44.2583519 73.4966592,38.4053452 Z M44.2182628,35.1314031 C42.922049,35.1314031 41.6391982,33.8351893 41.6391982,32.5122494 C41.6391982,31.2160356 42.935412,29.9331849 44.2182628,29.9331849 C46.1959911,29.9331849 47.4788419,31.2293987 47.4788419,32.5122494 C47.4788419,33.8485523 46.1826281,35.1314031 44.2182628,35.1314031 Z M58.5300668,35.1314031 C57.233853,35.1314031 55.9510022,33.8351893 55.9510022,32.5122494 C55.9510022,31.2160356 57.247216,29.9331849 58.5300668,29.9331849 C60.467706,29.9331849 61.7906459,31.2293987 61.7906459,32.5122494 C61.8040089,33.8485523 60.467706,35.1314031 58.5300668,35.1314031 Z" id="Shape"></path>
            </g>
        </g>
    </g>
</svg>