<?xml version="1.0" encoding="UTF-8"?>
<svg width="80px" height="80px" viewBox="0 0 80 80" version="1.1" xmlns="http://www.w3.org/2000/svg" xmlns:xlink="http://www.w3.org/1999/xlink">
    <!-- Generator: Sketch 62 (91390) - https://sketch.com -->
    <title>community/zhihu</title>
    <desc>Created with Sketch.</desc>
    <g id="light" stroke="none" stroke-width="1" fill="none" fill-rule="evenodd">
        <g id="Home" transform="translate(-593.000000, -2592.000000)" fill="#4FC4F9" fill-rule="nonzero">
            <path d="M638.478276,2609.70636 L638.478276,2655.13839 L643.352534,2655.14047 L644.956483,2660.6477 L653.69603,2655.14047 L664,2655.14047 L664,2609.70636 L638.478276,2609.70636 Z M658.813689,2650.20757 L653.001194,2650.20757 L647.197019,2653.86443 L646.140202,2650.21592 L643.664586,2650.20757 L643.664586,2614.63927 L658.813689,2614.63927 L658.813689,2650.20757 Z M623.283405,2630.49474 C623.645386,2624.83505 623.741082,2619.72045 623.741082,2615.15302 L634.384148,2615.15302 C634.384148,2615.15302 634.793977,2610.44149 632.599209,2610.4937 L614.188118,2610.4937 C614.91416,2607.75367 615.825353,2604.92591 616.917536,2602 C616.917536,2602 611.910136,2602 610.204249,2606.50478 C609.499011,2608.36349 607.456108,2615.51433 603.817577,2622.8197 C605.042903,2622.68604 609.095423,2622.57327 611.481584,2618.18127 C611.920537,2616.95118 612.003751,2616.79037 612.550883,2615.14676 L618.556852,2615.14676 C618.556852,2617.33963 618.30721,2629.11428 618.207353,2630.4843 L607.333367,2630.4843 C604.891037,2630.4843 604.096344,2635.4172 604.096344,2635.4172 L617.739274,2635.4172 C616.823921,2645.83019 611.910136,2654.60583 603,2661.54365 C607.262636,2662.76539 611.510709,2661.34942 613.609781,2659.47609 C613.609781,2659.47609 618.390424,2655.11124 621.013744,2645.01361 L632.239308,2658.57597 C632.239308,2658.57597 633.884865,2652.96014 631.981345,2650.22428 C630.40444,2648.36138 626.143885,2643.31988 624.32774,2641.49249 L621.28627,2643.91926 C622.193302,2640.99962 622.740434,2638.1656 622.923505,2635.42556 L635.748858,2635.42556 C635.748858,2635.42556 635.730134,2630.49265 634.169872,2630.49265 L623.283405,2630.49474 Z" id="Shape"></path>
        </g>
    </g>
</svg>