<svg fill="none" height="27" viewBox="0 0 233 27" width="233" xmlns="http://www.w3.org/2000/svg"><path clip-rule="evenodd" d="m28.0431 3.84298c-5.2608-5.12003-13.7908-5.12791-19.05289 0l-8.609302 8.38502c-.243567.236-.380908.5595-.380908.8973 0 .3379.137341.6614.380908.8973l8.604012 8.3903c5.26078 5.1293 13.79338 5.1319 19.05818 0 2.5239-2.4403 3.9474-5.7894 3.9474-9.2869 0-3.49751-1.4235-6.84663-3.9474-9.28696zm-2.0407 16.10972c-3.8948 3.7678-10.1049 3.7678-13.9997 0l-6.3214-6.1703c-.17771-.1728-.27785-.4094-.27785-.6564s.10014-.4836.27785-.6564l6.3241-6.16113c3.8952-3.76558 10.1031-3.76558 13.9983 0 1.8539 1.79281 2.8994 4.25313 2.8992 6.82243-.0003 2.5692-1.0463 5.0293-2.9005 6.8218zm-8.3361-11.83574c.2285 0 .4178.18931.4178.41779 0 .11097-.0457.21542-.124.29375l-.94.94002 2.1672 2.16728c.0392.0392.0653.0979.0653.1501 0 .0523-.0261.111-.0653.1502l-.7441.7442c-.0392.0391-.098.0652-.1502.0652s-.111-.0261-.1501-.0652l-2.1673-2.1673-.94.94c-.0784.0783-.1828.124-.2938.124-.2284 0-.4178-.1893-.4178-.4177v-2.92455c0-.22848.1894-.41779.4178-.41779zm6.6844.4178c0-.22848-.1893-.41779-.4178-.41779h-2.9245c-.2285 0-.4178.18931-.4178.41779 0 .11097.0457.21542.124.29376l.94.94002-2.1672 2.16726c-.0392.0392-.0653.0979-.0653.1501 0 .0523.0261.111.0653.1502l.7442.7442c.0391.0391.0979.0652.1501.0652s.111-.0261.1501-.0652l2.1673-2.1673.94.94c.0784.0784.1828.1241.2938.1241.2285 0 .4178-.1894.4178-.4178zm-6.0577 4.68054c.0522 0 .111.0261.1502.0653l.7441.7442c.0392.0391.0653.0979.0653.1501s-.0261.111-.0653.1502l-2.1672 2.1672.94.94c.0783.0784.124.1828.124.2938 0 .2285-.1893.4178-.4178.4178h-2.9245c-.2284 0-.4178-.1893-.4178-.4178v-2.9245c0-.2285.1894-.4178.4178-.4178.111 0 .2155.0457.2938.124l.94.9401 2.1673-2.1673c.0391-.0392.0979-.0653.1501-.0653zm2.0887 0c.0522 0 .111.0261.1501.0653l2.1673 2.1673.94-.9401c.0784-.0783.1828-.124.2938-.124.2285 0 .4178.1893.4178.4178v2.9245c0 .2285-.1893.4178-.4178.4178h-2.9245c-.2285 0-.4178-.1893-.4178-.4178 0-.111.0457-.2154.124-.2938l.94-.94-2.1672-2.1672c-.0392-.0392-.0653-.098-.0653-.1502s.0261-.111.0653-.1501l.7442-.7442c.0391-.0392.0979-.0653.1501-.0653zm15.0272-4.76483c-.1011-.10092-.2579-.12385-.3845-.05623s-.1924.20947-.1615.34786c.666 2.8888.666 5.8877 0 8.7766-.0309.1384.0349.2802.1615.3478s.2834.0447.3845-.0562l3.8417-3.778c.5059-.4978.5059-1.3047 0-1.8025zm22.3811-.29047c-.1067.22667-.1667.50667-.18.84l-.68 12h3.38l.44-8.18c.2133.4267.4467.9.7 1.42.2533.5067.5 1.02.74 1.54s.4667 1.02.68 1.5c.2267.48.4133.9.56 1.26h2.48c.16-.36.34-.7667.54-1.22.2133-.4667.4333-.9533.66-1.46.24-.5067.4867-1.02.74-1.54s.5-1.0267.74-1.52l.46 8.2h3.36l-.76-13.18c-.1067-.08-.3533-.18667-.74-.32-.3733-.14667-.8133-.22-1.32-.22-.4667 0-.8867.10667-1.26.32-.36.2-.6667.58667-.92 1.16-.3867.84-.8133 1.7267-1.28 2.66-.4533.9333-.92 1.88-1.4 2.84-.5467-1.04-1.0867-2.1133-1.62-3.22-.52-1.12-1.02-2.17333-1.5-3.16-.12-.10667-.36-.23333-.72-.38s-.8-.22-1.32-.22c-.2533 0-.4933.02667-.72.08s-.4333.14667-.62.28c-.1733.12-.32.29333-.44.52zm17.5859 2.96c-.3066.2133-.46.58-.46 1.1v8.78h3.22v-9.9c-.08-.0267-.2666-.08-.56-.16-.2933-.0933-.62-.14-.98-.14-.5066 0-.9133.1067-1.22.32zm1.14-4.86c-.5066 0-.9333.17333-1.28.52-.3333.34667-.5.77333-.5 1.28s.1667.93333.5 1.28c.3467.33333.7734.5 1.28.5.5067 0 .9334-.16667 1.28-.5.3467-.34667.52-.77333.52-1.28s-.1733-.93333-.52-1.28c-.3466-.34667-.7733-.52-1.28-.52zm4.485.32c-.3066.21333-.46.58-.46 1.1v13.32h3.22v-14.44c-.08-.02667-.2666-.08-.56-.16-.2933-.09333-.62-.14-.98-.14-.5066 0-.9133.10667-1.22.32zm6.965 12.16c.4.7733.8067 1.5267 1.22 2.26h2.98c.1467-.28.3534-.6733.62-1.18.2667-.52.5534-1.1.86-1.74.3067-.64.62-1.3.94-1.98.32-.6933.6134-1.3533.88-1.98.28-.6267.52-1.18.72-1.66.2-.4933.3267-.86.38-1.1-.0266-.0133-.0866-.0467-.18-.1-.0933-.0667-.22-.1333-.38-.2s-.3466-.1267-.56-.18c-.2133-.0533-.4533-.08-.72-.08-.2933 0-.54.0333-.74.1s-.3733.1667-.52.3c-.1333.12-.2533.2667-.36.44-.0933.1733-.18.36-.26.56-.1466.36-.3266.8-.54 1.32-.2.5067-.4066 1.02-.62 1.54-.2.5067-.3866.9733-.56 1.4-.1733.4133-.3.7067-.38.88-.08-.1733-.2133-.4733-.4-.9-.1866-.44-.4-.94-.64-1.5-.2266-.5733-.4666-1.1933-.72-1.86-.2533-.6667-.4933-1.3267-.72-1.98-.04-.0267-.1933-.08-.46-.16-.2666-.0933-.6133-.14-1.04-.14-.5333 0-.9333.1333-1.2.4-.2666.2533-.4.5667-.4.94 0 .2667.06.5667.18.9l.36.9c.0534.1333.1867.44.4.92.2134.4667.48 1.04.8 1.72.32.6667.6734 1.3867 1.06 2.16zm14.9971-.42c-1.254 0-1.88-.6933-1.88-2.08v-5.14c-.08-.0267-.267-.08-.56-.16-.294-.0933-.6202-.14-.9802-.14-.5067 0-.9133.1067-1.22.32-.3066.2133-.46.58-.46 1.1v4.62c0 .7467.1267 1.4.38 1.96.2667.5467.6267 1.0067 1.08 1.38.4534.36.9932.6333 1.6202.82.626.1867 1.3.28 2.02.28s1.393-.0933 2.02-.28c.626-.1867 1.166-.46 1.62-.82.453-.3733.806-.8333 1.06-1.38.266-.56.4-1.2133.4-1.96v-5.74c-.08-.0267-.267-.08-.56-.16-.294-.0933-.62-.14-.98-.14-.507 0-.914.1067-1.22.32-.307.2133-.46.58-.46 1.1v4.02c0 1.3867-.627 2.08-1.88 2.08zm8.362-.14c-.24-.12-.413-.22-.52-.3l-1.14 2.08c.107.08.293.2.56.36.28.1467.64.2933 1.08.44.44.1333.96.2533 1.56.36.613.1067 1.313.16 2.1.16 1.507 0 2.687-.3133 3.54-.94s1.28-1.5 1.28-2.62c0-.5333-.1-.9867-.3-1.36-.187-.3733-.447-.68-.78-.92-.32-.24-.693-.42-1.12-.54-.413-.1333-.847-.2333-1.3-.3l-1.82-.26c-.427-.0667-.747-.1467-.96-.24s-.32-.2533-.32-.48.113-.4067.34-.54c.24-.1467.66-.22 1.26-.22.533 0 1.007.04 1.42.12.427.08.787.1733 1.08.28.307.0933.547.1933.72.3.187.1067.3.18.34.22.027-.0133.087-.0533.18-.12.107-.0667.213-.16.32-.28.12-.12.22-.26.3-.42.093-.1733.14-.3667.14-.58 0-.28-.08-.5133-.24-.7-.147-.2-.347-.3667-.6-.5-.44-.2267-.967-.3933-1.58-.5-.6-.1067-1.32-.16-2.16-.16-.827 0-1.54.0933-2.14.28-.6.1733-1.093.42-1.48.74-.387.3067-.673.6733-.86 1.1-.173.4133-.26.8667-.26 1.36 0 .5867.107 1.0733.32 1.46s.5.7067.86.96c.373.24.8.4267 1.28.56.48.12.98.2133 1.5.28l1.04.12c.493.0667.853.1533 1.08.26.24.0933.36.2733.36.54 0 .2533-.14.4333-.42.54-.28.0933-.693.14-1.24.14-.48 0-.94-.0333-1.38-.1-.427-.08-.813-.1667-1.16-.26-.333-.1067-.627-.2133-.88-.32zm16.571-.78c-.28-.1467-.46-.2533-.54-.32l-1.38 2.64c.067.0667.267.1867.6.36.347.1733.793.36 1.34.56.547.1867 1.18.3533 1.9.5.733.1467 1.533.22 2.4.22 1.907 0 3.38-.3933 4.42-1.18 1.053-.7867 1.58-1.88 1.58-3.28 0-.6267-.1-1.1667-.3-1.62-.187-.4533-.473-.84-.86-1.16s-.867-.5867-1.44-.8c-.56-.2267-1.213-.4133-1.96-.56l-2.12-.42c-.4-.08-.72-.16-.96-.24-.227-.0933-.407-.1867-.54-.28-.12-.1067-.2-.2133-.24-.32-.027-.1067-.04-.22-.04-.34 0-.1333.02-.28.06-.44.053-.16.153-.3.3-.42.16-.1333.393-.24.7-.32.307-.09333.72-.14 1.24-.14.547 0 1.06.04667 1.54.14.48.0933.907.2067 1.28.34s.693.2867.96.46c.267.16.467.3067.6.44.093-.0667.207-.16.34-.28.133-.1333.253-.2867.36-.46.12-.1733.22-.36.3-.56.08-.21333.12-.43333.12-.66 0-.32-.107-.59333-.32-.82-.2-.24-.413-.42667-.64-.56-.107-.06667-.28-.15333-.52-.26-.227-.10667-.527-.21333-.9-.32s-.82-.19333-1.34-.26c-.52-.08-1.127-.12-1.82-.12-.96 0-1.8.12-2.52.36-.707.22667-1.293.54-1.76.94s-.813.87333-1.04 1.42c-.227.5333-.34 1.1067-.34 1.72 0 .7067.133 1.3.4 1.78s.607.8733 1.02 1.18c.427.3067.907.5467 1.44.72s1.067.3067 1.6.4l2.04.36c.707.12 1.187.2867 1.44.5.267.2.4.46.4.78 0 .16-.027.32-.08.48-.053.1467-.167.28-.34.4s-.42.22-.74.3c-.32.0667-.747.1-1.28.1-.653 0-1.26-.0533-1.82-.16-.56-.12-1.053-.2467-1.48-.38-.427-.1467-.78-.2867-1.06-.42zm12.773-6.28c-.307.2133-.46.58-.46 1.1v8.78h3.22v-9.9c-.08-.0267-.267-.08-.56-.16-.293-.0933-.62-.14-.98-.14-.507 0-.913.1067-1.22.32zm1.14-4.86c-.507 0-.933.17333-1.28.52-.333.34667-.5.77333-.5 1.28s.167.93333.5 1.28c.347.33333.773.5 1.28.5s.933-.16667 1.28-.5c.347-.34667.52-.77333.52-1.28s-.173-.93333-.52-1.28-.773-.52-1.28-.52zm4.625 11c-.547.48-1.02.8933-1.42 1.24v2.5h9.96v-2.72h-5.66c.133-.1067.333-.2733.6-.5s.56-.48.88-.76.653-.5733 1-.88c.347-.32.667-.6133.96-.88.307-.28.573-.52.8-.72.227-.2133.38-.36.46-.44.333-.3067.567-.5933.7-.86.147-.2667.22-.5667.22-.9 0-.5067-.153-.8867-.46-1.14-.293-.2667-.673-.4-1.14-.4h-7.92c-.053.0933-.133.2933-.24.6-.107.2933-.16.6133-.16.96 0 .48.127.8333.38 1.06.253.2133.68.32 1.28.32h3.74c-.16.1467-.46.4133-.9.8-.427.3867-.907.8133-1.44 1.28s-1.08.9467-1.64 1.44zm10.836-6.14c-.306.2133-.46.58-.46 1.1v8.78h3.22v-9.9c-.08-.0267-.266-.08-.56-.16-.293-.0933-.62-.14-.98-.14-.506 0-.913.1067-1.22.32zm1.14-4.86c-.506 0-.933.17333-1.28.52-.333.34667-.5.77333-.5 1.28s.167.93333.5 1.28c.347.33333.774.5 1.28.5.507 0 .934-.16667 1.28-.5.347-.34667.52-.77333.52-1.28s-.173-.93333-.52-1.28c-.346-.34667-.773-.52-1.28-.52zm4.025 6.72c-.266.5333-.4 1.1467-.4 1.84v6.18h3.22v-5.44c0-1.3867.627-2.08 1.88-2.08.6 0 1.06.1733 1.38.52.32.3333.48.8533.48 1.56v5.44h3.22v-6.18c0-.6933-.133-1.3067-.4-1.84-.266-.5467-.633-1-1.1-1.36-.453-.36-.993-.6333-1.62-.82-.613-.1867-1.266-.28-1.96-.28-.706 0-1.366.0933-1.98.28-.613.1867-1.153.46-1.62.82-.466.36-.833.8133-1.1 1.36zm13.651 9.16c-.174-.0667-.28-.1133-.32-.14l-.88 2.3c.08.0533.24.1267.48.22.253.1067.566.2067.94.3.386.1067.826.1933 1.32.26.493.08 1.033.12 1.62.12.84 0 1.613-.12 2.32-.36.72-.2267 1.34-.5867 1.86-1.08.52-.48.926-1.1 1.22-1.86.293-.7467.44-1.64.44-2.68v-2.98c0-.88-.087-1.6067-.26-2.18-.16-.5733-.4-1.0733-.72-1.5-.507-.6667-1.154-1.1733-1.94-1.52-.774-.3467-1.62-.52-2.54-.52-.827 0-1.587.1333-2.28.4-.68.2533-1.267.6133-1.76 1.08-.494.4667-.88 1.0267-1.16 1.68-.28.64-.42 1.3533-.42 2.14s.12 1.4933.36 2.12c.24.6133.58 1.1333 1.02 1.56s.96.7533 1.56.98c.613.2133 1.28.32 2 .32.413 0 .786-.0467 1.12-.14.333-.0933.62-.2.86-.32.253-.12.453-.24.6-.36.16-.12.273-.2133.34-.28v.22c0 .5067-.074.9267-.22 1.26-.147.3467-.354.6267-.62.84-.254.2267-.567.3867-.94.48-.36.0933-.754.14-1.18.14-.427 0-.827-.0333-1.2-.1-.36-.0533-.68-.12-.96-.2-.267-.0667-.487-.1333-.66-.2zm1.86-4.62c-.427-.3733-.64-.94-.64-1.7 0-.32.053-.62.16-.9.12-.28.28-.5267.48-.74s.44-.38.72-.5.586-.18.92-.18c.653 0 1.193.22 1.62.66.44.4267.66.98.66 1.66s-.22 1.2267-.66 1.64c-.427.4133-.967.62-1.62.62-.667 0-1.214-.1867-1.64-.56zm14.718-7.12h3.2v10.6h3.34v-10.6h4.48c.067-.1067.154-.3067.26-.6.107-.30667.16-.64.16-1 0-.49333-.133-.86667-.4-1.12-.253-.26667-.686-.4-1.3-.4h-11.02c-.066.10667-.153.31333-.26.62-.106.29333-.16.62-.16.98 0 .49333.127.87333.38 1.14.267.2533.707.38 1.32.38zm11.176 3.36c-.293.6533-.44 1.3667-.44 2.14s.147 1.4867.44 2.14c.294.6533.694 1.22 1.2 1.7.52.48 1.12.86 1.8 1.14.68.2667 1.414.4 2.2.4.774 0 1.5-.1333 2.18-.4.694-.28 1.294-.66 1.8-1.14.52-.48.927-1.0467 1.22-1.7.294-.6533.44-1.3667.44-2.14s-.146-1.4867-.44-2.14c-.293-.6533-.7-1.22-1.22-1.7-.506-.48-1.106-.8533-1.8-1.12-.68-.28-1.406-.42-2.18-.42-.786 0-1.52.14-2.2.42-.68.2667-1.28.64-1.8 1.12-.506.48-.906 1.0467-1.2 1.7zm6.12 4.46c-.28.12-.586.18-.92.18-.346 0-.66-.06-.94-.18-.28-.1333-.526-.3067-.74-.52-.213-.2267-.38-.4933-.5-.8-.106-.3067-.16-.64-.16-1s.054-.6933.16-1c.12-.3067.287-.5667.5-.78.214-.2267.46-.4.74-.52.28-.1333.594-.2.94-.2.334 0 .64.0667.92.2.294.12.547.2933.76.52.214.2133.374.4733.48.78.12.3067.18.64.18 1s-.06.6933-.18 1c-.106.3067-.266.5733-.48.8-.213.2133-.466.3867-.76.52zm6.556-4.46c-.293.6533-.44 1.3667-.44 2.14s.147 1.4867.44 2.14.693 1.22 1.2 1.7c.52.48 1.12.86 1.8 1.14.68.2667 1.413.4 2.2.4.773 0 1.5-.1333 2.18-.4.693-.28 1.293-.66 1.8-1.14.52-.48.927-1.0467 1.22-1.7s.44-1.3667.44-2.14-.147-1.4867-.44-2.14-.7-1.22-1.22-1.7c-.507-.48-1.107-.8533-1.8-1.12-.68-.28-1.407-.42-2.18-.42-.787 0-1.52.14-2.2.42-.68.2667-1.28.64-1.8 1.12-.507.48-.907 1.0467-1.2 1.7zm6.12 4.46c-.28.12-.587.18-.92.18-.347 0-.66-.06-.94-.18-.28-.1333-.527-.3067-.74-.52-.213-.2267-.38-.4933-.5-.8-.107-.3067-.16-.64-.16-1s.053-.6933.16-1c.12-.3067.287-.5667.5-.78.213-.2267.46-.4.74-.52.28-.1333.593-.2.94-.2.333 0 .64.0667.92.2.293.12.547.2933.76.52.213.2133.373.4733.48.78.12.3067.18.64.18 1s-.06.6933-.18 1c-.107.3067-.267.5733-.48.8-.213.2133-.467.3867-.76.52zm7.076-11.64c-.307.21333-.46.58-.46 1.1v13.32h3.22v-14.44c-.08-.02667-.267-.08-.56-.16-.293-.09333-.62-.14-.98-.14-.507 0-.913.10667-1.22.32z" fill="#4fc4f9" fill-rule="evenodd"/></svg>