<svg height="512pt" viewBox="0 0 512 512" width="512pt" xmlns="http://www.w3.org/2000/svg"><path d="m256 120c33.085938 0 60-26.914062 60-60s-26.914062-60-60-60-60 26.914062-60 60 26.914062 60 60 60zm0-80c11.027344 0 20 8.972656 20 20s-8.972656 20-20 20-20-8.972656-20-20 8.972656-20 20-20zm196 153c-10.347656 0-20.09375 2.632812-28.601562 7.265625l-62.21875-41.269531c-19.722657-13.082032-42.660157-19.996094-66.328126-19.996094h-79.039062c-23.402344 0-46.125 6.773438-65.710938 19.589844l-62.722656 41.050781c-8.214844-4.234375-17.519531-6.640625-27.378906-6.640625-33.085938 0-60 26.914062-60 60s26.914062 60 60 60 60-26.914062 60-60c0-8.414062-1.75-16.425781-4.890625-23.703125l56.894531-37.234375c7.421875-4.859375 15.523438-8.410156 23.996094-10.574219v111.660157l-39.621094 99.046874c-30.929687 2.367188-55.378906 28.277344-55.378906 59.804688 0 33.085938 26.914062 60 60 60s60-26.914062 60-60c0-20.363281-10.207031-38.382812-25.765625-49.234375l34.304687-85.765625h52.757813l33.476563 86.472656c-14.996094 10.917969-24.773438 28.597656-24.773438 48.527344 0 33.085938 26.914062 60 60 60s60-26.914062 60-60c0-31.988281-25.164062-58.207031-56.738281-59.90625l-38.261719-98.828125v-111.417969c8.144531 2.230469 15.925781 5.746094 23.070312 10.484375l57.371094 38.050781c-2.855468 6.984376-4.441406 14.617188-4.441406 22.617188 0 33.085938 26.914062 60 60 60s60-26.914062 60-60-26.914062-60-60-60zm-392 80c-11.027344 0-20-8.972656-20-20s8.972656-20 20-20 20 8.972656 20 20-8.972656 20-20 20zm101 199c-11.027344 0-20-8.972656-20-20s8.972656-20 20-20 20 8.972656 20 20-8.972656 20-20 20zm75-293h40v98h-40zm135 273c0 11.027344-8.972656 20-20 20s-20-8.972656-20-20 8.972656-20 20-20 20 8.972656 20 20zm81-179c-11.027344 0-20-8.972656-20-20s8.972656-20 20-20 20 8.972656 20 20-8.972656 20-20 20zm0 0"/></svg>