<svg height="512pt" viewBox="0 0 512 512" width="512pt" xmlns="http://www.w3.org/2000/svg"><path d="m72 144c-39.699219 0-72-32.300781-72-72s32.300781-72 72-72 72 32.300781 72 72-32.300781 72-72 72zm0-104c-17.644531 0-32 14.355469-32 32s14.355469 32 32 32 32-14.355469 32-32-14.355469-32-32-32zm0 472c-39.699219 0-72-32.300781-72-72s32.300781-72 72-72 72 32.300781 72 72-32.300781 72-72 72zm0-104c-17.644531 0-32 14.355469-32 32s14.355469 32 32 32 32-14.355469 32-32-14.355469-32-32-32zm0-80c-39.699219 0-72-32.300781-72-72s32.300781-72 72-72 72 32.300781 72 72-32.300781 72-72 72zm0-104c-17.644531 0-32 14.355469-32 32s14.355469 32 32 32 32-14.355469 32-32-14.355469-32-32-32zm368-80c-39.699219 0-72-32.300781-72-72s32.300781-72 72-72 72 32.300781 72 72-32.300781 72-72 72zm0-104c-17.644531 0-32 14.355469-32 32s14.355469 32 32 32 32-14.355469 32-32-14.355469-32-32-32zm0 472c-39.699219 0-72-32.300781-72-72s32.300781-72 72-72 72 32.300781 72 72-32.300781 72-72 72zm0-104c-17.644531 0-32 14.355469-32 32s14.355469 32 32 32 32-14.355469 32-32-14.355469-32-32-32zm0-80c-39.699219 0-72-32.300781-72-72s32.300781-72 72-72 72 32.300781 72 72-32.300781 72-72 72zm0-104c-17.644531 0-32 14.355469-32 32s14.355469 32 32 32 32-14.355469 32-32-14.355469-32-32-32zm-184-80c-39.699219 0-72-32.300781-72-72s32.300781-72 72-72 72 32.300781 72 72-32.300781 72-72 72zm0-104c-17.644531 0-32 14.355469-32 32s14.355469 32 32 32 32-14.355469 32-32-14.355469-32-32-32zm0 472c-39.699219 0-72-32.300781-72-72s32.300781-72 72-72 72 32.300781 72 72-32.300781 72-72 72zm0-104c-17.644531 0-32 14.355469-32 32s14.355469 32 32 32 32-14.355469 32-32-14.355469-32-32-32zm0-80c-39.699219 0-72-32.300781-72-72s32.300781-72 72-72 72 32.300781 72 72-32.300781 72-72 72zm0-104c-17.644531 0-32 14.355469-32 32s14.355469 32 32 32 32-14.355469 32-32-14.355469-32-32-32zm0 0"/></svg>