<?xml version="1.0" encoding="UTF-8"?>
<svg width="287px" height="322px" viewBox="0 0 287 322" version="1.1" xmlns="http://www.w3.org/2000/svg" xmlns:xlink="http://www.w3.org/1999/xlink">
    <!-- Generator: Sketch 55 (78076) - https://sketchapp.com -->
    <title>megasearch arch</title>
    <desc>Created with Sketch.</desc>
    <g id="Page-3" stroke="none" stroke-width="1" fill="none" fill-rule="evenodd">
        <g id="Rectangle">
            <rect stroke-opacity="0" stroke="#979797" stroke-width="1" fill="#FFFFFF" fill-rule="evenodd" x="0.5" y="0.5" width="286" height="321"></rect>
            <g id="架构的副本_画板-1-副本-8" transform="translate(11.500000, 10.500000)" fill-rule="evenodd" stroke-width="1">
                <g>
                    <path d="M10.5,57.85 L73.89,57.85 L73.89,103.34 L10.5,103.34 L10.5,57.85 Z" id="Rectangle" stroke="#2F333B" stroke-width="0.75" opacity="0.8" stroke-dasharray="2"></path>
                    <path d="M81.31,57.85 L144.7,57.85 L144.7,103.34 L81.31,103.34 L81.31,57.85 Z" id="Rectangle" stroke="#2F333B" stroke-width="0.75" opacity="0.8" stroke-dasharray="2"></path>
                    <path d="M151.22,57.85 L214.61,57.85 L214.61,103.34 L151.22,103.34 L151.22,57.85 Z" id="Rectangle" stroke="#2F333B" stroke-width="0.75" opacity="0.8" stroke-dasharray="2"></path>
                    <rect id="Rectangle" stroke="#2F333B" stroke-width="0.75" x="10.5" y="111.23" width="98.74" height="104.46"></rect>
                    <rect id="Rectangle" stroke="#2F333B" stroke-width="0.75" x="115.87" y="111.23" width="98.74" height="104.46"></rect>
                    <path d="M220.75,57.85 L254.75,57.85 L254.75,215.08 L220.75,215.08 L220.75,57.85 Z" id="Rectangle" stroke="#2F333B" stroke-width="0.75" opacity="0.8" stroke-dasharray="2"></path>
                    <text id="Metadata" fill="#000000" opacity="0.8" font-family="Helvetica" font-size="7" font-weight="normal">
                        <tspan x="28" y="95">Metadata</tspan>
                    </text>
                    <text id="GPU" fill="#000000" opacity="0.8" font-family="Helvetica" font-size="8" font-weight="normal">
                        <tspan x="14.5795" y="281.8674">GPU</tspan>
                    </text>
                    <text id="Scale-out" fill="#000000" font-family="Helvetica" font-size="8" font-weight="normal">
                        <tspan x="42.1918" y="201.2955">Scale-out</tspan>
                    </text>
                    <text id="Partitioning-&amp;-Sharding" fill="#000000" font-family="Helvetica" font-size="8" font-weight="normal">
                        <tspan x="125.0223" y="201.2955">Partitioning &amp; Sharding</tspan>
                    </text>
                    <text id="Scheduler" fill="#000000" opacity="0.8" font-family="Helvetica" font-size="7" font-weight="normal">
                        <tspan x="98.0171" y="94.9149">Scheduler</tspan>
                    </text>
                    <text id="Cache" fill="#000000" opacity="0.8" font-family="Helvetica" font-size="7" font-weight="normal">
                        <tspan x="174.4318" y="94.9149">Cache</tspan>
                    </text>
                    <g id="Group" opacity="0.8" transform="translate(233.000000, 129.000000)" fill="#000000" font-family="Helvetica" font-size="8" font-weight="normal">
                        <text id="Monitoring" transform="translate(5.500000, 24.000000) rotate(90.000000) translate(-5.500000, -24.000000) ">
                            <tspan x="-18" y="27">Monitoring</tspan>
                        </text>
                    </g>
                    <g id="Group" opacity="0.5" transform="translate(57.000000, 0.000000)" fill="#2F333B" fill-rule="nonzero">
                        <path d="M29.47,5.44 L28.7,5.44 L28.7,7.61 L29.5,7.61 C30.44,7.61 30.89,7.25 30.89,6.47 C30.89,5.7 30.4,5.44 29.47,5.44 Z" id="Path"></path>
                        <path d="M0.25,0.87 L0.25,14.41 L43.65,14.41 L43.65,0.87 L0.25,0.87 Z M16.46,10.58 L15.53,10.58 L15.53,7.9 L13.01,7.9 L13.01,10.58 L12.08,10.58 L12.08,4.7 L13.01,4.7 L13.01,7.1 L15.53,7.1 L15.53,4.7 L16.46,4.7 L16.46,10.58 Z M21.87,5.47 L20.13,5.47 L20.13,10.58 L19.2,10.58 L19.2,5.47 L17.47,5.47 L17.47,4.7 L21.86,4.7 L21.86,5.47 L21.87,5.47 Z M26.75,5.47 L25.01,5.47 L25.01,10.58 L24.08,10.58 L24.08,5.47 L22.35,5.47 L22.35,4.7 L26.74,4.7 L26.74,5.47 L26.75,5.47 Z M29.59,8.35 L28.7,8.35 L28.7,10.58 L27.77,10.58 L27.77,4.7 L29.55,4.7 C30.86,4.7 31.8,5.15 31.8,6.47 C31.8,7.76 30.86,8.35 29.59,8.35 Z" id="Shape"></path>
                    </g>
                    <polyline id="Path" stroke="#2F333B" stroke-width="3" opacity="0.5" points="238.09 234.88 238.09 240.800498 238.09 247.38"></polyline>
                    <g id="Group" opacity="0.8" transform="translate(103.000000, 65.000000)" fill="#33B6F2" fill-rule="nonzero">
                        <g id="Shape">
                            <path d="M20.5704545,4.43157895 C20.5704545,4.54736842 20.5418182,4.64210526 20.4654545,4.71578947 L16.8668182,8.68421053 C16.8,8.75789474 16.7140909,8.8 16.6090909,8.8 C16.5136364,8.8 16.4277273,8.75789474 16.3609091,8.68421053 C16.2940909,8.61052632 16.2559091,8.51578947 16.2559091,8.41052632 L16.2559091,6.03157895 L13.3731818,6.03157895 C13.0104545,6.03157895 12.6859091,6.09473684 12.39,6.22105263 C12.0940909,6.34736842 11.8363636,6.53684211 11.6168182,6.77894737 C11.3972727,7.02105263 11.1968182,7.28421053 11.0440909,7.53684211 C10.8818182,7.8 10.7195455,8.11578947 10.5381818,8.49473684 C10.2995455,9.01052632 10.0036364,9.71578947 9.66,10.6105263 C9.44045455,11.1578947 9.25909091,11.6105263 9.10636364,11.9894737 C8.95363636,12.3578947 8.75318182,12.7894737 8.49545455,13.2947368 C8.24727273,13.7894737 8.00863636,14.2 7.77954545,14.5368421 C7.55045455,14.8631579 7.27363636,15.2105263 6.94909091,15.5684211 C6.62454545,15.9263158 6.28090909,16.2105263 5.93727273,16.4210526 C5.59363636,16.6315789 5.19272727,16.8 4.74409091,16.9473684 C4.29545455,17.0842105 3.81818182,17.1473684 3.30272727,17.1473684 L0.782727273,17.1473684 C0.677727273,17.1473684 0.591818182,17.1157895 0.525,17.0315789 C0.458181818,16.9578947 0.42,16.8631579 0.42,16.7473684 L0.42,14.3684211 C0.42,14.2526316 0.448636364,14.1578947 0.525,14.0842105 C0.591818182,14.0105263 0.677727273,13.9684211 0.782727273,13.9684211 L3.30272727,13.9684211 C3.66545455,13.9684211 3.99,13.9052632 4.28590909,13.7789474 C4.58181818,13.6526316 4.83954545,13.4631579 5.05909091,13.2210526 C5.27863636,12.9789474 5.46954545,12.7157895 5.63181818,12.4631579 C5.79409091,12.2 5.95636364,11.8842105 6.13772727,11.5052632 C6.37636364,11 6.67227273,10.2842105 7.01590909,9.38947368 C7.23545455,8.84210526 7.41681818,8.38947368 7.56954545,8.01052632 C7.72227273,7.64210526 7.92272727,7.21052632 8.18045455,6.70526316 C8.42863636,6.21052632 8.66727273,5.8 8.89636364,5.46315789 C9.12545455,5.13684211 9.40227273,4.78947368 9.72681818,4.43157895 C10.0513636,4.07368421 10.395,3.78947368 10.7386364,3.57894737 C11.0822727,3.36842105 11.4831818,3.2 11.9318182,3.05263158 C12.3804545,2.91578947 12.8577273,2.85263158 13.3731818,2.85263158 L16.2463636,2.85263158 L16.2463636,0.473684211 C16.2463636,0.357894737 16.275,0.263157895 16.3513636,0.189473684 C16.4181818,0.115789474 16.5040909,0.0736842105 16.6090909,0.0736842105 C16.695,0.0736842105 16.7904545,0.115789474 16.8763636,0.2 L20.4654545,4.14736842 C20.5418182,4.22105263 20.5704545,4.32631579 20.5704545,4.43157895 L20.5704545,4.43157895 Z M7.92272727,5.64210526 C7.47409091,6.4 6.95863636,7.52631579 6.38590909,9.02105263 C6.22363636,8.65263158 6.08045455,8.34736842 5.97545455,8.12631579 C5.86090909,7.89473684 5.70818182,7.63157895 5.51727273,7.33684211 C5.32636364,7.04210526 5.13545455,6.8 4.94454545,6.63157895 C4.75363636,6.46315789 4.515,6.31578947 4.23818182,6.2 C3.95181818,6.08421053 3.65590909,6.02105263 3.32181818,6.02105263 L0.811363636,6.02105263 C0.706363636,6.02105263 0.620454545,5.98947368 0.553636364,5.90526316 C0.486818182,5.83157895 0.448636364,5.73684211 0.448636364,5.62105263 L0.448636364,3.24210526 C0.448636364,3.12631579 0.477272727,3.03157895 0.553636364,2.95789474 C0.620454545,2.88421053 0.706363636,2.84210526 0.811363636,2.84210526 L3.33136364,2.84210526 C5.19272727,2.85263158 6.72954545,3.77894737 7.92272727,5.64210526 L7.92272727,5.64210526 Z M20.5704545,15.5368421 C20.5704545,15.6526316 20.5418182,15.7473684 20.4654545,15.8210526 L16.8668182,19.7894737 C16.8,19.8631579 16.7140909,19.9052632 16.6090909,19.9052632 C16.5136364,19.9052632 16.4277273,19.8631579 16.3609091,19.7894737 C16.2940909,19.7157895 16.2559091,19.6210526 16.2559091,19.5157895 L16.2559091,17.1368421 C16.0172727,17.1368421 15.6927273,17.1368421 15.3013636,17.1473684 C14.9004545,17.1578947 14.6045455,17.1578947 14.3945455,17.1578947 C14.1845455,17.1684211 13.9077273,17.1578947 13.5736364,17.1473684 C13.2395455,17.1368421 12.9722727,17.1157895 12.7718182,17.0842105 C12.5809091,17.0526316 12.3327273,17.0105263 12.0559091,16.9578947 C11.7695455,16.8947368 11.5309091,16.8210526 11.3495455,16.7263158 C11.1586364,16.6315789 10.9486364,16.5157895 10.7004545,16.3684211 C10.4522727,16.2315789 10.2327273,16.0631579 10.0322727,15.8736842 C9.84136364,15.6842105 9.63136364,15.4631579 9.41181818,15.2105263 C9.19227273,14.9578947 8.98227273,14.6736842 8.78181818,14.3473684 C9.22090909,13.5789474 9.73636364,12.4526316 10.3090909,10.9684211 C10.4713636,11.3368421 10.6145455,11.6421053 10.7195455,11.8631579 C10.8340909,12.0947368 10.9868182,12.3578947 11.1777273,12.6526316 C11.3686364,12.9473684 11.5595455,13.1894737 11.7504545,13.3578947 C11.9413636,13.5263158 12.18,13.6736842 12.4568182,13.7894737 C12.7431818,13.9052632 13.0390909,13.9684211 13.3731818,13.9684211 L16.2463636,13.9684211 L16.2463636,11.5789474 C16.2463636,11.4631579 16.275,11.3684211 16.3513636,11.2947368 C16.4181818,11.2210526 16.5040909,11.1789474 16.6090909,11.1789474 C16.695,11.1789474 16.7904545,11.2210526 16.8763636,11.3052632 L20.4559091,15.2526316 C20.5418182,15.3263158 20.5704545,15.4210526 20.5704545,15.5368421 L20.5704545,15.5368421 Z"></path>
                        </g>
                    </g>
                    <g id="Group" opacity="0.8" transform="translate(31.000000, 65.000000)" fill="#33B6F2" fill-rule="nonzero">
                        <path d="M19.69,0.02 L1.9,0.02 C1.08,0.02 0.42,0.68 0.42,1.5 L0.42,4.46 C0.42,5.28 1.08,5.94 1.9,5.94 L19.69,5.94 C20.51,5.94 21.17,5.28 21.17,4.46 L21.17,1.5 C21.17,0.69 20.5,0.02 19.69,0.02 Z M18.08,3.73 L17.34,3.73 C16.93,3.73 16.6,3.4 16.6,2.99 C16.6,2.58 16.93,2.25 17.34,2.25 L18.08,2.25 C18.49,2.25 18.82,2.58 18.82,2.99 C18.82,3.4 18.49,3.73 18.08,3.73 Z" id="Shape"></path>
                        <path d="M19.69,6.85 L1.9,6.85 C1.08,6.85 0.42,7.51 0.42,8.33 L0.42,11.29 C0.42,12.11 1.08,12.77 1.9,12.77 L19.69,12.77 C20.51,12.77 21.17,12.11 21.17,11.29 L21.17,8.33 C21.17,7.51 20.5,6.85 19.69,6.85 Z M18.08,10.55 L17.34,10.55 C16.93,10.55 16.6,10.22 16.6,9.81 C16.6,9.4 16.93,9.07 17.34,9.07 L18.08,9.07 C18.49,9.07 18.82,9.4 18.82,9.81 C18.82,10.22 18.49,10.55 18.08,10.55 Z" id="Shape"></path>
                        <path d="M19.69,13.67 L1.9,13.67 C1.08,13.67 0.42,14.33 0.42,15.15 L0.42,18.11 C0.42,18.93 1.08,19.59 1.9,19.59 L19.69,19.59 C20.51,19.59 21.17,18.93 21.17,18.11 L21.17,15.15 C21.17,14.33 20.5,13.67 19.69,13.67 Z M18.08,17.37 L17.34,17.37 C16.93,17.37 16.6,17.04 16.6,16.63 C16.6,16.22 16.93,15.89 17.34,15.89 L18.08,15.89 C18.49,15.89 18.82,16.22 18.82,16.63 C18.82,17.04 18.49,17.37 18.08,17.37 Z" id="Shape"></path>
                    </g>
                    <g id="Group" opacity="0.8" transform="translate(9.000000, 247.000000)" fill="#33B6F2" fill-rule="nonzero">
                        <rect id="Rectangle" x="4.91" y="4.49" width="1.34" height="1.34"></rect>
                        <rect id="Rectangle" x="7.59" y="4.49" width="1.34" height="1.34"></rect>
                        <rect id="Rectangle" x="10.27" y="4.49" width="1.34" height="1.34"></rect>
                        <rect id="Rectangle" x="12.95" y="4.49" width="1.34" height="1.34"></rect>
                        <rect id="Rectangle" x="15.63" y="4.49" width="1.34" height="1.34"></rect>
                        <rect id="Rectangle" x="18.31" y="4.49" width="1.34" height="1.34"></rect>
                        <rect id="Rectangle" x="20.99" y="4.49" width="1.34" height="1.34"></rect>
                        <rect id="Rectangle" x="4.91" y="7.17" width="1.34" height="1.34"></rect>
                        <rect id="Rectangle" x="7.59" y="7.17" width="1.34" height="1.34"></rect>
                        <rect id="Rectangle" x="10.27" y="7.17" width="1.34" height="1.34"></rect>
                        <rect id="Rectangle" x="12.95" y="7.17" width="1.34" height="1.34"></rect>
                        <rect id="Rectangle" x="15.63" y="7.17" width="1.34" height="1.34"></rect>
                        <rect id="Rectangle" x="18.31" y="7.17" width="1.34" height="1.34"></rect>
                        <rect id="Rectangle" x="20.99" y="7.17" width="1.34" height="1.34"></rect>
                        <rect id="Rectangle" x="4.91" y="9.85" width="1.34" height="1.34"></rect>
                        <rect id="Rectangle" x="7.59" y="9.85" width="1.34" height="1.34"></rect>
                        <rect id="Rectangle" x="10.27" y="9.85" width="1.34" height="1.34"></rect>
                        <rect id="Rectangle" x="12.95" y="9.85" width="1.34" height="1.34"></rect>
                        <rect id="Rectangle" x="15.63" y="9.85" width="1.34" height="1.34"></rect>
                        <rect id="Rectangle" x="18.31" y="9.85" width="1.34" height="1.34"></rect>
                        <rect id="Rectangle" x="20.99" y="9.85" width="1.34" height="1.34"></rect>
                        <rect id="Rectangle" x="4.91" y="12.53" width="1.34" height="1.34"></rect>
                        <rect id="Rectangle" x="7.59" y="12.53" width="1.34" height="1.34"></rect>
                        <rect id="Rectangle" x="10.27" y="12.53" width="1.34" height="1.34"></rect>
                        <rect id="Rectangle" x="12.95" y="12.53" width="1.34" height="1.34"></rect>
                        <rect id="Rectangle" x="15.63" y="12.53" width="1.34" height="1.34"></rect>
                        <rect id="Rectangle" x="18.31" y="12.53" width="1.34" height="1.34"></rect>
                        <rect id="Rectangle" x="20.99" y="12.53" width="1.34" height="1.34"></rect>
                        <rect id="Rectangle" x="4.91" y="15.21" width="1.34" height="1.34"></rect>
                        <rect id="Rectangle" x="7.59" y="15.21" width="1.34" height="1.34"></rect>
                        <rect id="Rectangle" x="10.27" y="15.21" width="1.34" height="1.34"></rect>
                        <rect id="Rectangle" x="12.95" y="15.21" width="1.34" height="1.34"></rect>
                        <rect id="Rectangle" x="15.63" y="15.21" width="1.34" height="1.34"></rect>
                        <rect id="Rectangle" x="18.31" y="15.21" width="1.34" height="1.34"></rect>
                        <rect id="Rectangle" x="20.99" y="15.21" width="1.34" height="1.34"></rect>
                        <rect id="Rectangle" x="4.91" y="17.89" width="1.34" height="1.34"></rect>
                        <rect id="Rectangle" x="7.59" y="17.89" width="1.34" height="1.34"></rect>
                        <rect id="Rectangle" x="10.27" y="17.89" width="1.34" height="1.34"></rect>
                        <rect id="Rectangle" x="12.95" y="17.89" width="1.34" height="1.34"></rect>
                        <rect id="Rectangle" x="15.63" y="17.89" width="1.34" height="1.34"></rect>
                        <rect id="Rectangle" x="18.31" y="17.89" width="1.34" height="1.34"></rect>
                        <rect id="Rectangle" x="20.99" y="17.89" width="1.34" height="1.34"></rect>
                        <rect id="Rectangle" x="4.91" y="20.57" width="1.34" height="1.34"></rect>
                        <rect id="Rectangle" x="7.59" y="20.57" width="1.34" height="1.34"></rect>
                        <rect id="Rectangle" x="10.27" y="20.57" width="1.34" height="1.34"></rect>
                        <rect id="Rectangle" x="12.95" y="20.57" width="1.34" height="1.34"></rect>
                        <rect id="Rectangle" x="15.63" y="20.57" width="1.34" height="1.34"></rect>
                        <rect id="Rectangle" x="18.31" y="20.57" width="1.34" height="1.34"></rect>
                        <rect id="Rectangle" x="20.99" y="20.57" width="1.34" height="1.34"></rect>
                        <path d="M26.18,8.94 L26.18,0.67 L17.9,0.67 L17.73,0.39 L13.62,0.39 L9.51,0.39 L9.34,0.67 L1.12,0.67 L1.12,8.91 L0.8,9.1 L0.8,13.21 L0.8,17.32 L1.12,17.51 L1.12,25.75 L9.34,25.75 L9.51,26.03 L13.62,26.03 L17.73,26.03 L17.9,25.75 L26.19,25.75 L26.19,17.48 L26.44,17.33 L26.44,13.22 L26.44,9.11 L26.18,8.94 Z M24.72,24.27 L2.58,24.27 L2.58,2.13 L24.72,2.13 L24.72,24.27 Z" id="Shape"></path>
                    </g>
                    <text id="GPU" fill="#000000" opacity="0.8" font-family="Helvetica" font-size="8" font-weight="normal">
                        <tspan x="58.9784" y="281.8674">GPU</tspan>
                    </text>
                    <g id="Group" opacity="0.8" transform="translate(54.000000, 247.000000)" fill="#33B6F2" fill-rule="nonzero">
                        <rect id="Rectangle" x="4.31" y="4.49" width="1.34" height="1.34"></rect>
                        <rect id="Rectangle" x="6.99" y="4.49" width="1.34" height="1.34"></rect>
                        <rect id="Rectangle" x="9.67" y="4.49" width="1.34" height="1.34"></rect>
                        <rect id="Rectangle" x="12.35" y="4.49" width="1.34" height="1.34"></rect>
                        <rect id="Rectangle" x="15.03" y="4.49" width="1.34" height="1.34"></rect>
                        <rect id="Rectangle" x="17.71" y="4.49" width="1.34" height="1.34"></rect>
                        <rect id="Rectangle" x="20.39" y="4.49" width="1.34" height="1.34"></rect>
                        <rect id="Rectangle" x="4.31" y="7.17" width="1.34" height="1.34"></rect>
                        <rect id="Rectangle" x="6.99" y="7.17" width="1.34" height="1.34"></rect>
                        <rect id="Rectangle" x="9.67" y="7.17" width="1.34" height="1.34"></rect>
                        <rect id="Rectangle" x="12.35" y="7.17" width="1.34" height="1.34"></rect>
                        <rect id="Rectangle" x="15.03" y="7.17" width="1.34" height="1.34"></rect>
                        <rect id="Rectangle" x="17.71" y="7.17" width="1.34" height="1.34"></rect>
                        <rect id="Rectangle" x="20.39" y="7.17" width="1.34" height="1.34"></rect>
                        <rect id="Rectangle" x="4.31" y="9.85" width="1.34" height="1.34"></rect>
                        <rect id="Rectangle" x="6.99" y="9.85" width="1.34" height="1.34"></rect>
                        <rect id="Rectangle" x="9.67" y="9.85" width="1.34" height="1.34"></rect>
                        <rect id="Rectangle" x="12.35" y="9.85" width="1.34" height="1.34"></rect>
                        <rect id="Rectangle" x="15.03" y="9.85" width="1.34" height="1.34"></rect>
                        <rect id="Rectangle" x="17.71" y="9.85" width="1.34" height="1.34"></rect>
                        <rect id="Rectangle" x="20.39" y="9.85" width="1.34" height="1.34"></rect>
                        <rect id="Rectangle" x="4.31" y="12.53" width="1.34" height="1.34"></rect>
                        <rect id="Rectangle" x="6.99" y="12.53" width="1.34" height="1.34"></rect>
                        <rect id="Rectangle" x="9.67" y="12.53" width="1.34" height="1.34"></rect>
                        <rect id="Rectangle" x="12.35" y="12.53" width="1.34" height="1.34"></rect>
                        <rect id="Rectangle" x="15.03" y="12.53" width="1.34" height="1.34"></rect>
                        <rect id="Rectangle" x="17.71" y="12.53" width="1.34" height="1.34"></rect>
                        <rect id="Rectangle" x="20.39" y="12.53" width="1.34" height="1.34"></rect>
                        <rect id="Rectangle" x="4.31" y="15.21" width="1.34" height="1.34"></rect>
                        <rect id="Rectangle" x="6.99" y="15.21" width="1.34" height="1.34"></rect>
                        <rect id="Rectangle" x="9.67" y="15.21" width="1.34" height="1.34"></rect>
                        <rect id="Rectangle" x="12.35" y="15.21" width="1.34" height="1.34"></rect>
                        <rect id="Rectangle" x="15.03" y="15.21" width="1.34" height="1.34"></rect>
                        <rect id="Rectangle" x="17.71" y="15.21" width="1.34" height="1.34"></rect>
                        <rect id="Rectangle" x="20.39" y="15.21" width="1.34" height="1.34"></rect>
                        <rect id="Rectangle" x="4.31" y="17.89" width="1.34" height="1.34"></rect>
                        <rect id="Rectangle" x="6.99" y="17.89" width="1.34" height="1.34"></rect>
                        <rect id="Rectangle" x="9.67" y="17.89" width="1.34" height="1.34"></rect>
                        <rect id="Rectangle" x="12.35" y="17.89" width="1.34" height="1.34"></rect>
                        <rect id="Rectangle" x="15.03" y="17.89" width="1.34" height="1.34"></rect>
                        <rect id="Rectangle" x="17.71" y="17.89" width="1.34" height="1.34"></rect>
                        <rect id="Rectangle" x="20.39" y="17.89" width="1.34" height="1.34"></rect>
                        <rect id="Rectangle" x="4.31" y="20.57" width="1.34" height="1.34"></rect>
                        <rect id="Rectangle" x="6.99" y="20.57" width="1.34" height="1.34"></rect>
                        <rect id="Rectangle" x="9.67" y="20.57" width="1.34" height="1.34"></rect>
                        <rect id="Rectangle" x="12.35" y="20.57" width="1.34" height="1.34"></rect>
                        <rect id="Rectangle" x="15.03" y="20.57" width="1.34" height="1.34"></rect>
                        <rect id="Rectangle" x="17.71" y="20.57" width="1.34" height="1.34"></rect>
                        <rect id="Rectangle" x="20.39" y="20.57" width="1.34" height="1.34"></rect>
                        <path d="M25.58,8.94 L25.58,0.67 L17.29,0.67 L17.12,0.39 L13.01,0.39 L8.9,0.39 L8.73,0.67 L0.51,0.67 L0.51,8.91 L0.19,9.1 L0.19,13.21 L0.19,17.32 L0.51,17.51 L0.51,25.75 L8.73,25.75 L8.9,26.03 L13.01,26.03 L17.12,26.03 L17.29,25.75 L25.58,25.75 L25.58,17.48 L25.83,17.33 L25.83,13.22 L25.83,9.11 L25.58,8.94 Z M24.12,24.27 L1.98,24.27 L1.98,2.13 L24.12,2.13 L24.12,24.27 Z" id="Shape"></path>
                    </g>
                    <text id="GPU" fill="#000000" opacity="0.8" font-family="Helvetica" font-size="8" font-weight="normal">
                        <tspan x="100.7023" y="281.8674">GPU</tspan>
                    </text>
                    <g id="Group" opacity="0.8" transform="translate(95.000000, 247.000000)" fill="#33B6F2" fill-rule="nonzero">
                        <rect id="Rectangle" x="5.03" y="4.49" width="1.34" height="1.34"></rect>
                        <rect id="Rectangle" x="7.71" y="4.49" width="1.34" height="1.34"></rect>
                        <rect id="Rectangle" x="10.39" y="4.49" width="1.34" height="1.34"></rect>
                        <rect id="Rectangle" x="13.07" y="4.49" width="1.34" height="1.34"></rect>
                        <rect id="Rectangle" x="15.75" y="4.49" width="1.34" height="1.34"></rect>
                        <rect id="Rectangle" x="18.43" y="4.49" width="1.34" height="1.34"></rect>
                        <rect id="Rectangle" x="21.11" y="4.49" width="1.34" height="1.34"></rect>
                        <rect id="Rectangle" x="5.03" y="7.17" width="1.34" height="1.34"></rect>
                        <rect id="Rectangle" x="7.71" y="7.17" width="1.34" height="1.34"></rect>
                        <rect id="Rectangle" x="10.39" y="7.17" width="1.34" height="1.34"></rect>
                        <rect id="Rectangle" x="13.07" y="7.17" width="1.34" height="1.34"></rect>
                        <rect id="Rectangle" x="15.75" y="7.17" width="1.34" height="1.34"></rect>
                        <rect id="Rectangle" x="18.43" y="7.17" width="1.34" height="1.34"></rect>
                        <rect id="Rectangle" x="21.11" y="7.17" width="1.34" height="1.34"></rect>
                        <rect id="Rectangle" x="5.03" y="9.85" width="1.34" height="1.34"></rect>
                        <rect id="Rectangle" x="7.71" y="9.85" width="1.34" height="1.34"></rect>
                        <rect id="Rectangle" x="10.39" y="9.85" width="1.34" height="1.34"></rect>
                        <rect id="Rectangle" x="13.07" y="9.85" width="1.34" height="1.34"></rect>
                        <rect id="Rectangle" x="15.75" y="9.85" width="1.34" height="1.34"></rect>
                        <rect id="Rectangle" x="18.43" y="9.85" width="1.34" height="1.34"></rect>
                        <rect id="Rectangle" x="21.11" y="9.85" width="1.34" height="1.34"></rect>
                        <rect id="Rectangle" x="5.03" y="12.53" width="1.34" height="1.34"></rect>
                        <rect id="Rectangle" x="7.71" y="12.53" width="1.34" height="1.34"></rect>
                        <rect id="Rectangle" x="10.39" y="12.53" width="1.34" height="1.34"></rect>
                        <rect id="Rectangle" x="13.07" y="12.53" width="1.34" height="1.34"></rect>
                        <rect id="Rectangle" x="15.75" y="12.53" width="1.34" height="1.34"></rect>
                        <rect id="Rectangle" x="18.43" y="12.53" width="1.34" height="1.34"></rect>
                        <rect id="Rectangle" x="21.11" y="12.53" width="1.34" height="1.34"></rect>
                        <rect id="Rectangle" x="5.03" y="15.21" width="1.34" height="1.34"></rect>
                        <rect id="Rectangle" x="7.71" y="15.21" width="1.34" height="1.34"></rect>
                        <rect id="Rectangle" x="10.39" y="15.21" width="1.34" height="1.34"></rect>
                        <rect id="Rectangle" x="13.07" y="15.21" width="1.34" height="1.34"></rect>
                        <rect id="Rectangle" x="15.75" y="15.21" width="1.34" height="1.34"></rect>
                        <rect id="Rectangle" x="18.43" y="15.21" width="1.34" height="1.34"></rect>
                        <rect id="Rectangle" x="21.11" y="15.21" width="1.34" height="1.34"></rect>
                        <rect id="Rectangle" x="5.03" y="17.89" width="1.34" height="1.34"></rect>
                        <rect id="Rectangle" x="7.71" y="17.89" width="1.34" height="1.34"></rect>
                        <rect id="Rectangle" x="10.39" y="17.89" width="1.34" height="1.34"></rect>
                        <rect id="Rectangle" x="13.07" y="17.89" width="1.34" height="1.34"></rect>
                        <rect id="Rectangle" x="15.75" y="17.89" width="1.34" height="1.34"></rect>
                        <rect id="Rectangle" x="18.43" y="17.89" width="1.34" height="1.34"></rect>
                        <rect id="Rectangle" x="21.11" y="17.89" width="1.34" height="1.34"></rect>
                        <rect id="Rectangle" x="5.03" y="20.57" width="1.34" height="1.34"></rect>
                        <rect id="Rectangle" x="7.71" y="20.57" width="1.34" height="1.34"></rect>
                        <rect id="Rectangle" x="10.39" y="20.57" width="1.34" height="1.34"></rect>
                        <rect id="Rectangle" x="13.07" y="20.57" width="1.34" height="1.34"></rect>
                        <rect id="Rectangle" x="15.75" y="20.57" width="1.34" height="1.34"></rect>
                        <rect id="Rectangle" x="18.43" y="20.57" width="1.34" height="1.34"></rect>
                        <rect id="Rectangle" x="21.11" y="20.57" width="1.34" height="1.34"></rect>
                        <path d="M26.31,8.94 L26.31,0.67 L18.02,0.67 L17.85,0.39 L13.74,0.39 L9.63,0.39 L9.46,0.67 L1.24,0.67 L1.24,8.91 L0.92,9.1 L0.92,13.21 L0.92,17.32 L1.24,17.51 L1.24,25.75 L9.46,25.75 L9.63,26.03 L13.74,26.03 L17.85,26.03 L18.02,25.75 L26.31,25.75 L26.31,17.48 L26.56,17.33 L26.56,13.22 L26.56,9.11 L26.31,8.94 Z M24.85,24.27 L2.71,24.27 L2.71,2.13 L24.85,2.13 L24.85,24.27 L24.85,24.27 Z" id="Shape"></path>
                    </g>
                    <text id="GPU" fill="#000000" opacity="0.8" font-family="Helvetica" font-size="8" font-weight="normal">
                        <tspan x="144.1012" y="281.8674">GPU</tspan>
                    </text>
                    <g id="Group" opacity="0.8" transform="translate(139.000000, 247.000000)" fill="#33B6F2" fill-rule="nonzero">
                        <rect id="Rectangle" x="4.43" y="4.49" width="1.34" height="1.34"></rect>
                        <rect id="Rectangle" x="7.11" y="4.49" width="1.34" height="1.34"></rect>
                        <rect id="Rectangle" x="9.79" y="4.49" width="1.34" height="1.34"></rect>
                        <rect id="Rectangle" x="12.47" y="4.49" width="1.34" height="1.34"></rect>
                        <rect id="Rectangle" x="15.15" y="4.49" width="1.34" height="1.34"></rect>
                        <rect id="Rectangle" x="17.83" y="4.49" width="1.34" height="1.34"></rect>
                        <rect id="Rectangle" x="20.51" y="4.49" width="1.34" height="1.34"></rect>
                        <rect id="Rectangle" x="4.43" y="7.17" width="1.34" height="1.34"></rect>
                        <rect id="Rectangle" x="7.11" y="7.17" width="1.34" height="1.34"></rect>
                        <rect id="Rectangle" x="9.79" y="7.17" width="1.34" height="1.34"></rect>
                        <rect id="Rectangle" x="12.47" y="7.17" width="1.34" height="1.34"></rect>
                        <rect id="Rectangle" x="15.15" y="7.17" width="1.34" height="1.34"></rect>
                        <rect id="Rectangle" x="17.83" y="7.17" width="1.34" height="1.34"></rect>
                        <rect id="Rectangle" x="20.51" y="7.17" width="1.34" height="1.34"></rect>
                        <rect id="Rectangle" x="4.43" y="9.85" width="1.34" height="1.34"></rect>
                        <rect id="Rectangle" x="7.11" y="9.85" width="1.34" height="1.34"></rect>
                        <rect id="Rectangle" x="9.79" y="9.85" width="1.34" height="1.34"></rect>
                        <rect id="Rectangle" x="12.47" y="9.85" width="1.34" height="1.34"></rect>
                        <rect id="Rectangle" x="15.15" y="9.85" width="1.34" height="1.34"></rect>
                        <rect id="Rectangle" x="17.83" y="9.85" width="1.34" height="1.34"></rect>
                        <rect id="Rectangle" x="20.51" y="9.85" width="1.34" height="1.34"></rect>
                        <rect id="Rectangle" x="4.43" y="12.53" width="1.34" height="1.34"></rect>
                        <rect id="Rectangle" x="7.11" y="12.53" width="1.34" height="1.34"></rect>
                        <rect id="Rectangle" x="9.79" y="12.53" width="1.34" height="1.34"></rect>
                        <rect id="Rectangle" x="12.47" y="12.53" width="1.34" height="1.34"></rect>
                        <rect id="Rectangle" x="15.15" y="12.53" width="1.34" height="1.34"></rect>
                        <rect id="Rectangle" x="17.83" y="12.53" width="1.34" height="1.34"></rect>
                        <rect id="Rectangle" x="20.51" y="12.53" width="1.34" height="1.34"></rect>
                        <rect id="Rectangle" x="4.43" y="15.21" width="1.34" height="1.34"></rect>
                        <rect id="Rectangle" x="7.11" y="15.21" width="1.34" height="1.34"></rect>
                        <rect id="Rectangle" x="9.79" y="15.21" width="1.34" height="1.34"></rect>
                        <rect id="Rectangle" x="12.47" y="15.21" width="1.34" height="1.34"></rect>
                        <rect id="Rectangle" x="15.15" y="15.21" width="1.34" height="1.34"></rect>
                        <rect id="Rectangle" x="17.83" y="15.21" width="1.34" height="1.34"></rect>
                        <rect id="Rectangle" x="20.51" y="15.21" width="1.34" height="1.34"></rect>
                        <rect id="Rectangle" x="4.43" y="17.89" width="1.34" height="1.34"></rect>
                        <rect id="Rectangle" x="7.11" y="17.89" width="1.34" height="1.34"></rect>
                        <rect id="Rectangle" x="9.79" y="17.89" width="1.34" height="1.34"></rect>
                        <rect id="Rectangle" x="12.47" y="17.89" width="1.34" height="1.34"></rect>
                        <rect id="Rectangle" x="15.15" y="17.89" width="1.34" height="1.34"></rect>
                        <rect id="Rectangle" x="17.83" y="17.89" width="1.34" height="1.34"></rect>
                        <rect id="Rectangle" x="20.51" y="17.89" width="1.34" height="1.34"></rect>
                        <rect id="Rectangle" x="4.43" y="20.57" width="1.34" height="1.34"></rect>
                        <rect id="Rectangle" x="7.11" y="20.57" width="1.34" height="1.34"></rect>
                        <rect id="Rectangle" x="9.79" y="20.57" width="1.34" height="1.34"></rect>
                        <rect id="Rectangle" x="12.47" y="20.57" width="1.34" height="1.34"></rect>
                        <rect id="Rectangle" x="15.15" y="20.57" width="1.34" height="1.34"></rect>
                        <rect id="Rectangle" x="17.83" y="20.57" width="1.34" height="1.34"></rect>
                        <rect id="Rectangle" x="20.51" y="20.57" width="1.34" height="1.34"></rect>
                        <path d="M25.71,8.94 L25.71,0.67 L17.42,0.67 L17.25,0.39 L13.14,0.39 L9.03,0.39 L8.86,0.67 L0.64,0.67 L0.64,8.91 L0.32,9.1 L0.32,13.21 L0.32,17.32 L0.64,17.51 L0.64,25.75 L8.86,25.75 L9.03,26.03 L13.14,26.03 L17.25,26.03 L17.42,25.75 L25.71,25.75 L25.71,17.48 L25.96,17.33 L25.96,13.22 L25.96,9.11 L25.71,8.94 Z M24.24,24.27 L2.1,24.27 L2.1,2.13 L24.24,2.13 L24.24,24.27 Z" id="Shape"></path>
                    </g>
                    <text id="GPU" fill="#000000" opacity="0.8" font-family="Helvetica" font-size="8" font-weight="normal">
                        <tspan x="187.1012" y="281.8674">GPU</tspan>
                    </text>
                    <g id="Group" opacity="0.8" transform="translate(182.000000, 247.000000)" fill="#33B6F2" fill-rule="nonzero">
                        <rect id="Rectangle" x="4.43" y="4.49" width="1.34" height="1.34"></rect>
                        <rect id="Rectangle" x="7.11" y="4.49" width="1.34" height="1.34"></rect>
                        <rect id="Rectangle" x="9.79" y="4.49" width="1.34" height="1.34"></rect>
                        <rect id="Rectangle" x="12.47" y="4.49" width="1.34" height="1.34"></rect>
                        <rect id="Rectangle" x="15.15" y="4.49" width="1.34" height="1.34"></rect>
                        <rect id="Rectangle" x="17.83" y="4.49" width="1.34" height="1.34"></rect>
                        <rect id="Rectangle" x="20.51" y="4.49" width="1.34" height="1.34"></rect>
                        <rect id="Rectangle" x="4.43" y="7.17" width="1.34" height="1.34"></rect>
                        <rect id="Rectangle" x="7.11" y="7.17" width="1.34" height="1.34"></rect>
                        <rect id="Rectangle" x="9.79" y="7.17" width="1.34" height="1.34"></rect>
                        <rect id="Rectangle" x="12.47" y="7.17" width="1.34" height="1.34"></rect>
                        <rect id="Rectangle" x="15.15" y="7.17" width="1.34" height="1.34"></rect>
                        <rect id="Rectangle" x="17.83" y="7.17" width="1.34" height="1.34"></rect>
                        <rect id="Rectangle" x="20.51" y="7.17" width="1.34" height="1.34"></rect>
                        <rect id="Rectangle" x="4.43" y="9.85" width="1.34" height="1.34"></rect>
                        <rect id="Rectangle" x="7.11" y="9.85" width="1.34" height="1.34"></rect>
                        <rect id="Rectangle" x="9.79" y="9.85" width="1.34" height="1.34"></rect>
                        <rect id="Rectangle" x="12.47" y="9.85" width="1.34" height="1.34"></rect>
                        <rect id="Rectangle" x="15.15" y="9.85" width="1.34" height="1.34"></rect>
                        <rect id="Rectangle" x="17.83" y="9.85" width="1.34" height="1.34"></rect>
                        <rect id="Rectangle" x="20.51" y="9.85" width="1.34" height="1.34"></rect>
                        <rect id="Rectangle" x="4.43" y="12.53" width="1.34" height="1.34"></rect>
                        <rect id="Rectangle" x="7.11" y="12.53" width="1.34" height="1.34"></rect>
                        <rect id="Rectangle" x="9.79" y="12.53" width="1.34" height="1.34"></rect>
                        <rect id="Rectangle" x="12.47" y="12.53" width="1.34" height="1.34"></rect>
                        <rect id="Rectangle" x="15.15" y="12.53" width="1.34" height="1.34"></rect>
                        <rect id="Rectangle" x="17.83" y="12.53" width="1.34" height="1.34"></rect>
                        <rect id="Rectangle" x="20.51" y="12.53" width="1.34" height="1.34"></rect>
                        <rect id="Rectangle" x="4.43" y="15.21" width="1.34" height="1.34"></rect>
                        <rect id="Rectangle" x="7.11" y="15.21" width="1.34" height="1.34"></rect>
                        <rect id="Rectangle" x="9.79" y="15.21" width="1.34" height="1.34"></rect>
                        <rect id="Rectangle" x="12.47" y="15.21" width="1.34" height="1.34"></rect>
                        <rect id="Rectangle" x="15.15" y="15.21" width="1.34" height="1.34"></rect>
                        <rect id="Rectangle" x="17.83" y="15.21" width="1.34" height="1.34"></rect>
                        <rect id="Rectangle" x="20.51" y="15.21" width="1.34" height="1.34"></rect>
                        <rect id="Rectangle" x="4.43" y="17.89" width="1.34" height="1.34"></rect>
                        <rect id="Rectangle" x="7.11" y="17.89" width="1.34" height="1.34"></rect>
                        <rect id="Rectangle" x="9.79" y="17.89" width="1.34" height="1.34"></rect>
                        <rect id="Rectangle" x="12.47" y="17.89" width="1.34" height="1.34"></rect>
                        <rect id="Rectangle" x="15.15" y="17.89" width="1.34" height="1.34"></rect>
                        <rect id="Rectangle" x="17.83" y="17.89" width="1.34" height="1.34"></rect>
                        <rect id="Rectangle" x="20.51" y="17.89" width="1.34" height="1.34"></rect>
                        <rect id="Rectangle" x="4.43" y="20.57" width="1.34" height="1.34"></rect>
                        <rect id="Rectangle" x="7.11" y="20.57" width="1.34" height="1.34"></rect>
                        <rect id="Rectangle" x="9.79" y="20.57" width="1.34" height="1.34"></rect>
                        <rect id="Rectangle" x="12.47" y="20.57" width="1.34" height="1.34"></rect>
                        <rect id="Rectangle" x="15.15" y="20.57" width="1.34" height="1.34"></rect>
                        <rect id="Rectangle" x="17.83" y="20.57" width="1.34" height="1.34"></rect>
                        <rect id="Rectangle" x="20.51" y="20.57" width="1.34" height="1.34"></rect>
                        <path d="M25.71,8.94 L25.71,0.67 L17.42,0.67 L17.25,0.39 L13.14,0.39 L9.03,0.39 L8.86,0.67 L0.64,0.67 L0.64,8.91 L0.32,9.1 L0.32,13.21 L0.32,17.32 L0.64,17.51 L0.64,25.75 L8.86,25.75 L9.03,26.03 L13.14,26.03 L17.25,26.03 L17.42,25.75 L25.71,25.75 L25.71,17.48 L25.96,17.33 L25.96,13.22 L25.96,9.11 L25.71,8.94 Z M24.24,24.27 L2.1,24.27 L2.1,2.13 L24.24,2.13 L24.24,24.27 Z" id="Shape"></path>
                    </g>
                    <path d="M250.65,255.94 L250.65,247.67 L242.36,247.67 L242.19,247.39 L238.08,247.39 L233.97,247.39 L233.8,247.67 L225.58,247.67 L225.58,255.91 L225.26,256.1 L225.26,260.21 L225.26,264.32 L225.58,264.51 L225.58,272.75 L233.8,272.75 L233.97,273.03 L238.08,273.03 L242.19,273.03 L242.36,272.75 L250.65,272.75 L250.65,264.48 L250.9,264.33 L250.9,260.22 L250.9,256.11 L250.65,255.94 Z M249.19,271.27 L227.05,271.27 L227.05,249.13 L249.19,249.13 L249.19,271.27 Z" id="Shape" fill="#2F333B" fill-rule="nonzero" opacity="0.5"></path>
                    <text id="CPU" fill="#000000" opacity="0.8" font-family="Helvetica" font-size="8" font-weight="normal">
                        <tspan x="231" y="282">CPU</tspan>
                    </text>
                    <g id="Group" transform="translate(139.000000, 129.000000)" fill="#33B6F2" fill-rule="nonzero">
                        <path d="M26.3,50.1 C35.11,45.21 44.27,44.88 48.34,45.03 L48.34,9.73 L0.66,9.73 L0.66,51.71 C5.7,52.99 17.32,55.08 26.3,50.1 Z" id="Path"></path>
                        <path d="M4.34,5.27 L4.34,8.6 L49.56,8.6 L49.56,40.55 C50.5,40.53 51.34,40.54 52.02,40.56 L52.02,5.26 L4.34,5.26 L4.34,5.27 Z" id="Path"></path>
                        <path d="M7.9,0.92 L7.9,4.25 L53.12,4.25 L53.12,36.2 C54.06,36.18 54.9,36.19 55.58,36.21 L55.58,0.91 L7.9,0.91 L7.9,0.92 Z" id="Path"></path>
                    </g>
                    <g id="Group" transform="translate(20.000000, 133.000000)">
                        <g transform="translate(0.000000, 16.000000)" fill="#33B6F2" fill-rule="nonzero">
                            <circle id="Oval" cx="13.16" cy="13.19" r="1"></circle>
                            <path d="M14.41,0.95 L2.66,0.95 C1.68,0.95 0.88,1.75 0.88,2.73 L0.88,29.67 C0.88,30.65 1.68,31.45 2.66,31.45 L14.42,31.45 C15.4,31.45 16.2,30.65 16.2,29.67 L16.2,2.73 C16.19,1.75 15.39,0.95 14.41,0.95 Z M10.07,13.98 C9.64,13.98 9.29,13.63 9.29,13.2 C9.29,12.77 9.64,12.42 10.07,12.42 C10.5,12.42 10.85,12.77 10.85,13.2 C10.86,13.63 10.51,13.98 10.07,13.98 Z M13.16,14.6 C12.38,14.6 11.75,13.97 11.75,13.19 C11.75,12.41 12.38,11.78 13.16,11.78 C13.94,11.78 14.57,12.41 14.57,13.19 C14.57,13.97 13.94,14.6 13.16,14.6 Z M14.57,9.01 C14.57,9.34 14.31,9.6 13.98,9.6 L3.08,9.6 C2.75,9.6 2.49,9.34 2.49,9.01 L2.49,8.6 C2.49,8.27 2.75,8.01 3.08,8.01 L13.98,8.01 C14.31,8.01 14.57,8.27 14.57,8.6 L14.57,9.01 Z M14.57,4.37 C14.57,4.7 14.31,4.96 13.98,4.96 L3.08,4.96 C2.75,4.96 2.49,4.7 2.49,4.37 L2.49,3.96 C2.49,3.63 2.75,3.37 3.08,3.37 L13.98,3.37 C14.31,3.37 14.57,3.63 14.57,3.96 L14.57,4.37 Z" id="Shape"></path>
                        </g>
                        <g transform="translate(21.000000, 16.000000)" fill="#33B6F2" fill-rule="nonzero">
                            <circle id="Oval" cx="12.86" cy="13.19" r="1"></circle>
                            <path d="M14.11,0.95 L2.35,0.95 C1.37,0.95 0.57,1.75 0.57,2.73 L0.57,29.67 C0.57,30.65 1.37,31.45 2.35,31.45 L14.11,31.45 C15.09,31.45 15.89,30.65 15.89,29.67 L15.89,2.73 C15.89,1.75 15.09,0.95 14.11,0.95 Z M9.77,13.98 C9.34,13.98 8.99,13.63 8.99,13.2 C8.99,12.77 9.34,12.42 9.77,12.42 C10.2,12.42 10.55,12.77 10.55,13.2 C10.56,13.63 10.21,13.98 9.77,13.98 Z M12.86,14.6 C12.08,14.6 11.45,13.97 11.45,13.19 C11.45,12.41 12.08,11.78 12.86,11.78 C13.64,11.78 14.27,12.41 14.27,13.19 C14.27,13.97 13.64,14.6 12.86,14.6 Z M14.27,9.01 C14.27,9.34 14.01,9.6 13.68,9.6 L2.78,9.6 C2.45,9.6 2.19,9.34 2.19,9.01 L2.19,8.6 C2.19,8.27 2.45,8.01 2.78,8.01 L13.68,8.01 C14.01,8.01 14.27,8.27 14.27,8.6 L14.27,9.01 Z M14.27,4.37 C14.27,4.7 14.01,4.96 13.68,4.96 L2.78,4.96 C2.45,4.96 2.19,4.7 2.19,4.37 L2.19,3.96 C2.19,3.63 2.45,3.37 2.78,3.37 L13.68,3.37 C14.01,3.37 14.27,3.63 14.27,3.96 L14.27,4.37 Z" id="Shape"></path>
                        </g>
                        <g transform="translate(42.000000, 16.000000)" fill="#33B6F2" fill-rule="nonzero">
                            <circle id="Oval" cx="13.14" cy="13.19" r="1"></circle>
                            <path d="M14.39,0.95 L2.63,0.95 C1.65,0.95 0.85,1.75 0.85,2.73 L0.85,29.67 C0.85,30.65 1.65,31.45 2.63,31.45 L14.39,31.45 C15.37,31.45 16.17,30.65 16.17,29.67 L16.17,2.73 C16.17,1.75 15.37,0.95 14.39,0.95 Z M10.05,13.98 C9.62,13.98 9.27,13.63 9.27,13.2 C9.27,12.77 9.62,12.42 10.05,12.42 C10.48,12.42 10.83,12.77 10.83,13.2 C10.83,13.63 10.48,13.98 10.05,13.98 Z M13.14,14.6 C12.36,14.6 11.73,13.97 11.73,13.19 C11.73,12.41 12.36,11.78 13.14,11.78 C13.92,11.78 14.55,12.41 14.55,13.19 C14.55,13.97 13.92,14.6 13.14,14.6 Z M14.55,9.01 C14.55,9.34 14.29,9.6 13.96,9.6 L3.06,9.6 C2.73,9.6 2.47,9.34 2.47,9.01 L2.47,8.6 C2.47,8.27 2.73,8.01 3.06,8.01 L13.96,8.01 C14.29,8.01 14.55,8.27 14.55,8.6 L14.55,9.01 Z M14.55,4.37 C14.55,4.7 14.29,4.96 13.96,4.96 L3.06,4.96 C2.73,4.96 2.47,4.7 2.47,4.37 L2.47,3.96 C2.47,3.63 2.73,3.37 3.06,3.37 L13.96,3.37 C14.29,3.37 14.55,3.63 14.55,3.96 L14.55,4.37 Z" id="Shape"></path>
                        </g>
                        <g transform="translate(63.000000, 16.000000)" fill="#33B6F2" fill-rule="nonzero">
                            <circle id="Oval" cx="12.84" cy="13.19" r="1"></circle>
                            <path d="M14.09,0.95 L2.33,0.95 C1.35,0.95 0.55,1.75 0.55,2.73 L0.55,29.67 C0.55,30.65 1.35,31.45 2.33,31.45 L14.09,31.45 C15.07,31.45 15.87,30.65 15.87,29.67 L15.87,2.73 C15.87,1.75 15.07,0.95 14.09,0.95 Z M9.75,13.98 C9.32,13.98 8.97,13.63 8.97,13.2 C8.97,12.77 9.32,12.42 9.75,12.42 C10.18,12.42 10.53,12.77 10.53,13.2 C10.53,13.63 10.18,13.98 9.75,13.98 Z M12.84,14.6 C12.06,14.6 11.43,13.97 11.43,13.19 C11.43,12.41 12.06,11.78 12.84,11.78 C13.62,11.78 14.25,12.41 14.25,13.19 C14.25,13.97 13.62,14.6 12.84,14.6 Z M14.25,9.01 C14.25,9.34 13.99,9.6 13.66,9.6 L2.76,9.6 C2.43,9.6 2.17,9.34 2.17,9.01 L2.17,8.6 C2.17,8.27 2.43,8.01 2.76,8.01 L13.66,8.01 C13.99,8.01 14.25,8.27 14.25,8.6 L14.25,9.01 Z M14.25,4.37 C14.25,4.7 13.99,4.96 13.66,4.96 L2.76,4.96 C2.43,4.96 2.17,4.7 2.17,4.37 L2.17,3.96 C2.17,3.63 2.43,3.37 2.76,3.37 L13.66,3.37 C13.99,3.37 14.25,3.63 14.25,3.96 L14.25,4.37 Z" id="Shape"></path>
                        </g>
                        <polyline id="Path" stroke="#33B6F2" stroke-width="1.5" points="8.53 17.26 8.53 0.57 71.21 0.57 71.21 17.26"></polyline>
                        <path d="M29.52,17.32 L29.52,0.57" id="Path" stroke="#33B6F2" stroke-width="1.5"></path>
                        <path d="M50.45,17.26 L50.45,0.57" id="Path" stroke="#33B6F2" stroke-width="1.5"></path>
                    </g>
                    <polygon id="Path" fill="#2F333B" fill-rule="nonzero" opacity="0.5" points="181.909598 36.23 181.909598 26.42 185.89 26.42 180.173957 18.73 174.457914 26.42 178.438316 26.42 178.438316 33.23 82.3416835 33.23 82.3416835 26.42 86.3220859 26.42 80.6060429 18.73 74.89 26.42 78.8704024 26.42 78.8704024 36.23 128.660145 36.23 128.660145 42.25 124.679743 42.25 130.395785 49.94 136.100257 42.25 132.131426 42.25 132.131426 36.23"></polygon>
                    <g id="Group" opacity="0.5" transform="translate(158.000000, 0.000000)" fill="#2F333B" fill-rule="nonzero">
                        <path d="M21.46,5.27 L20.6,5.27 L20.6,7.71 L21.5,7.71 C22.56,7.71 23.07,7.31 23.07,6.43 C23.06,5.56 22.51,5.27 21.46,5.27 Z" id="Path"></path>
                        <path d="M0.14,0.97 L0.14,14.51 L43.54,14.51 L43.54,0.97 L0.14,0.97 Z M17.27,11.06 L15.77,8.39 L14.7,8.39 L14.7,11.06 L13.66,11.06 L13.66,4.43 L15.83,4.43 C17.2,4.43 18.22,4.92 18.22,6.35 C18.22,7.38 17.67,7.99 16.83,8.25 L18.45,11.06 L17.27,11.06 Z M21.59,8.55 L20.59,8.55 L20.59,11.06 L19.55,11.06 L19.55,4.43 L21.56,4.43 C23.04,4.43 24.09,4.93 24.09,6.43 C24.08,7.88 23.03,8.55 21.59,8.55 Z M27.95,11.18 C26.28,11.18 25.01,9.94 25.01,7.77 C25.01,5.61 26.32,4.31 28,4.31 C28.83,4.31 29.48,4.71 29.88,5.15 L29.31,5.82 C28.97,5.47 28.55,5.23 28.01,5.23 C26.87,5.23 26.07,6.18 26.07,7.74 C26.07,9.32 26.81,10.28 27.98,10.28 C28.58,10.28 29.05,10.01 29.45,9.58 L30.01,10.24 C29.48,10.84 28.81,11.18 27.95,11.18 Z" id="Shape"></path>
                        <path d="M15.7,5.27 L14.7,5.27 L14.7,7.55 L15.7,7.55 C16.66,7.55 17.19,7.15 17.19,6.35 C17.19,5.55 16.66,5.27 15.7,5.27 Z" id="Path"></path>
                    </g>
                    <polygon id="Path" fill="#00A4EF" fill-rule="nonzero" opacity="0.8" points="264.42 33.21 187.101874 33.21 187.101874 36.21 261.193931 36.21 261.193931 231.88 3.64606925 231.88 3.64606925 36.21 75.42611 36.21 75.42611 33.21 0.42 33.21 0.42 234.88 22.6798778 234.88 22.6798778 247.38 25.905947 247.38 25.905947 234.88 66.1565377 234.88 66.1565377 247.38 69.3826069 247.38 69.3826069 234.88 107.805092 234.88 107.805092 247.38 111.031161 247.38 111.031161 234.88 151.238737 234.88 151.238737 247.38 154.464807 247.38 154.464807 234.88 194.252994 234.88 194.252994 247.38 197.479063 247.38 197.479063 234.88 264.42 234.88"></polygon>
                </g>
                <g id="monitor-heart-rate" transform="translate(226.000000, 103.000000)" fill="#33B6F2">
                    <path d="M19.1666667,3.75 L3.83333333,3.75 L3.83333333,10 L7.86432292,10 C7.9853125,10 8.09592014,10.0667969 8.14982639,10.1726562 L8.94444444,11.7273437 L10.9285937,7.8453125 C11.164184,7.38476562 11.835816,7.38476562 12.0714062,7.8453125 L13.172691,10 L15.9722222,10 C16.3252083,10 16.6111111,10.2796875 16.6111111,10.625 C16.6111111,10.9703125 16.3252083,11.25 15.9722222,11.25 L12.3828646,11.25 L11.5,9.52265625 L9.51585069,13.4046875 C9.28026042,13.8652344 8.60862847,13.8652344 8.37303819,13.4046875 L7.27175347,11.25 L3.83333333,11.25 L3.83333333,16.25 L19.1666667,16.25 L19.1666667,3.75 Z M21.0833333,0 L1.91666667,0 C0.858107639,0 0,0.839453125 0,1.875 L0,18.125 C0,19.1605469 0.858107639,20 1.91666667,20 L21.0833333,20 C22.1418924,20 23,19.1605469 23,18.125 L23,1.875 C23,0.839453125 22.1418924,0 21.0833333,0 Z M20.4444444,17.5 L2.55555556,17.5 L2.55555556,2.5 L20.4444444,2.5 L20.4444444,17.5 Z" id="Shape" fill-rule="nonzero"></path>
                </g>
                <g id="coins" transform="translate(174.000000, 65.000000)" fill="#33B6F2">
                    <path d="M0,15.8320313 L0,17.5 C0,18.8789062 3.359375,20 7.5,20 C11.640625,20 15,18.8789062 15,17.5 L15,15.8320313 C13.3867188,16.96875 10.4375,17.5 7.5,17.5 C4.5625,17.5 1.61328125,16.96875 0,15.8320313 Z M12.5,5 C16.640625,5 20,3.87890625 20,2.5 C20,1.12109375 16.640625,0 12.5,0 C8.359375,0 5,1.12109375 5,2.5 C5,3.87890625 8.359375,5 12.5,5 Z M0,11.734375 L0,13.75 C0,15.1289063 3.359375,16.25 7.5,16.25 C11.640625,16.25 15,15.1289063 15,13.75 L15,11.734375 C13.3867188,13.0625 10.4335938,13.75 7.5,13.75 C4.56640625,13.75 1.61328125,13.0625 0,11.734375 Z M16.25,12.1640625 C18.4882812,11.7304688 20,10.9257813 20,10 L20,8.33203125 C19.09375,8.97265625 17.7617188,9.41015625 16.25,9.6796875 L16.25,12.1640625 Z M7.5,6.25 C3.359375,6.25 0,7.6484375 0,9.375 C0,11.1015625 3.359375,12.5 7.5,12.5 C11.640625,12.5 15,11.1015625 15,9.375 C15,7.6484375 11.640625,6.25 7.5,6.25 Z M16.0664062,8.44921875 C18.4101562,8.02734375 20,7.19921875 20,6.25 L20,4.58203125 C18.6132812,5.5625 16.2304687,6.08984375 13.7226562,6.21484375 C14.875,6.7734375 15.7226562,7.5234375 16.0664062,8.44921875 Z" id="Shape" fill-rule="nonzero"></path>
                </g>
            </g>
        </g>
    </g>
</svg>