<svg height="512pt" viewBox="0 -7 512 512" width="512pt" xmlns="http://www.w3.org/2000/svg"><path d="m471.449219 302.160156c.871093-6.769531 1.550781-13.945312 1.550781-21.324218 0-86.558594-52.066406-164.449219-131.09375-198.554688-1.957031-45.703125-39.734375-82.28125-85.90625-82.28125-46.175781 0-83.953125 36.582031-85.90625 82.285156-78.988281 34.117188-131.09375 112.125-131.09375 198.550782 0 7.441406.675781 14.683593 1.527344 21.339843-24.3125 15.210938-40.527344 42.214844-40.527344 72.945313 0 47.421875 38.578125 86 86 86 13.660156 0 26.578125-3.214844 38.058594-8.90625 37.648437 28.996094 84.257812 44.90625 131.941406 44.90625 47.84375 0 94.242188-15.875 131.9375-44.910156 11.484375 5.695312 24.402344 8.910156 38.0625 8.910156 47.421875 0 86-38.578125 86-86 0-30.742188-16.226562-57.753906-40.550781-72.960938zm-215.449219-262.160156c25.363281 0 46 20.636719 46 46s-20.636719 46-46 46-46-20.636719-46-46 20.636719-46 46-46zm-170 381.121094c-25.363281 0-46-20.636719-46-46 0-25.363282 20.636719-46 46-46s46 20.636718 46 46c0 25.363281-20.636719 46-46 46zm69.511719 4.554687c10.355469-14.203125 16.488281-31.671875 16.488281-50.554687 0-47.421875-38.578125-86-86-86-2.226562 0-4.429688.113281-6.617188.28125-.238281-2.898438-.382812-5.738282-.382812-8.566406 0-67.550782 39.117188-128.8125 99.1875-158.257813 13.773438 29.175781 43.464844 49.421875 77.8125 49.421875s64.042969-20.246094 77.8125-49.425781c60.101562 29.429687 99.1875 90.605469 99.1875 158.261719 0 2.808593-.15625 5.671874-.398438 8.566406-2.183593-.167969-4.378906-.28125-6.601562-.28125-47.421875 0-86 38.578125-86 86 0 18.882812 6.132812 36.351562 16.488281 50.554687-29.363281 20.378907-64.421875 31.445313-100.488281 31.445313-35.945312 0-71.136719-11.089844-100.488281-31.445313zm270.488281-4.554687c-25.363281 0-46-20.636719-46-46 0-25.363282 20.636719-46 46-46s46 20.636718 46 46c0 25.363281-20.636719 46-46 46zm0 0"/></svg>