<svg height="512pt" viewBox="0 0 512 512" width="512pt" xmlns="http://www.w3.org/2000/svg"><path d="m512 144h-144v-144h144zm-104-40h64v-64h-64zm104 408h-144v-144h144zm-104-40h64v-64h-64zm104-144h-144v-144h144zm-104-40h64v-64h-64zm-264-144h-144v-144h144zm-104-40h64v-64h-64zm104 408h-144v-144h144zm-104-40h64v-64h-64zm104-144h-144v-144h144zm-104-40h64v-64h-64zm288-144h-144v-144h144zm-104-40h64v-64h-64zm104 408h-144v-144h144zm-104-40h64v-64h-64zm104-144h-144v-144h144zm-104-40h64v-64h-64zm0 0"/></svg>