<svg fill="none" height="35" viewBox="0 0 148 35" width="148" xmlns="http://www.w3.org/2000/svg"><g fill="#4fc4f9"><path d="m35.2688 5.48219c-6.6189-6.64292-17.3519-6.64292-23.9708 0l-10.818369 10.85731c-.639508.6426-.639508 1.6771 0 2.3196l10.818369 10.8574c6.6189 6.6429 17.3519 6.6429 23.9708.0109 6.6296-6.6321 6.6296-17.4023 0-24.04521zm-2.558 20.85441c-4.8603 4.8787-12.7475 4.8787-17.6078 0l-7.96183-7.9824c-.46898-.4683-.46898-1.2306 0-1.7097l7.95123-7.97153c4.8602-4.87874 12.7475-4.87874 17.6077 0 4.871 4.87873 4.871 12.78493.0107 17.66363z"/><path d="m49.4444 16.3503-4.7643-4.8678c-.2878-.2941-.7675-.0218-.6715.3811.8207 3.7135.8207 7.5904 0 11.3039-.0853.4029.3943.6642.6715.3811l4.7643-4.8678c.6288-.6534.6288-1.688 0-2.3305z"/><path d="m23.9598 26.0426c4.6092 0 8.3456-3.8177 8.3456-8.5269 0-4.7093-3.7364-8.52693-8.3456-8.52693-4.6091 0-8.3455 3.81763-8.3455 8.52693 0 4.7092 3.7364 8.5269 8.3455 8.5269z"/><path d="m59.4229 16.0124c0-.9069.153-1.6887.4591-2.3454.306-.6568.7344-1.2196 1.2854-1.6887.5509-.4691 1.1936-.8131 1.9282-1.032s1.5611-.344 2.4181-.344c1.0712 0 2.02.1876 2.877.5629.8264.3753 1.5303.8756 2.0506 1.5323.5203-.6567 1.1938-1.157 2.0202-1.5323.8263-.3753 1.7751-.5629 2.8463-.5629.8571 0 1.6528.1251 2.3874.344.7345.2189 1.3773.5629 1.9282 1.032s.9794 1.0319 1.2855 1.6887c.3061.6567.4592 1.4385.4592 2.3454v8.9438h-4.3157v-7.693c0-.9381-.1835-1.5948-.5508-2.0014-.3673-.4065-.8876-.5941-1.5916-.5941-.7039 0-1.255.2501-1.7141.7192-.4285.4691-.6427 1.2196-.6427 2.2829v7.3176h-4.3155v-7.3176c0-1.032-.2143-1.7825-.6428-2.2829-.4285-.4691-.9795-.7192-1.6835-.7192-.6733 0-1.2241.1876-1.5914.5941-.398.4066-.5817 1.0633-.5817 2.0014v7.693h-4.3154z"/><path d="m84.9492 7.25615c0-.68799.2143-1.28216.6734-1.75124s1.01-.71927 1.714-.71927c.6733 0 1.2549.25019 1.714.71927s.7039 1.06325.7039 1.75124c0 .68797-.2448 1.28215-.7039 1.75123s-1.0407.68798-1.714.68798c-.6734 0-1.2549-.2189-1.714-.68798-.4285-.50036-.6734-1.06326-.6734-1.75123zm.2449 5.69145c0-.7192.2142-1.2196.6121-1.501.3979-.2815.9488-.4378 1.6222-.4378.4897 0 .9182.0625 1.3161.1876s.6427.1877.7652.2189v13.5721h-4.3156z"/><path d="m93.4883 6.72452c0-.71926.2142-1.21961.6121-1.50106s.9488-.43782 1.6222-.43782c.4897 0 .9182.06255 1.3161.18764s.6427.18763.7652.2189v19.76392h-4.3156z"/><path d="m105.7 24.9561c-.551-1.0007-1.102-2.0327-1.622-3.0959-.52-1.0633-1.01-2.064-1.438-2.9709-.429-.9068-.796-1.7199-1.072-2.3454-.275-.6567-.459-1.0632-.551-1.2508-.153-.3753-.306-.7818-.459-1.2197-.183-.469-.245-.8756-.245-1.2196 0-.5003.184-.9381.551-1.3134.368-.344.888-.5316 1.623-.5316.581 0 1.04.0625 1.408.1876.367.1251.55.1877.612.2189.306.9069.612 1.8138.979 2.7207.337.9069.673 1.7512.979 2.533.307.7818.582 1.4698.857 2.064.245.5942.429 1.0007.551 1.2509.123-.2502.276-.6568.521-1.2196.245-.5629.489-1.2197.765-1.9076.275-.688.551-1.4073.826-2.0953.276-.6879.521-1.3134.704-1.7825.123-.2814.215-.5316.368-.7818.122-.2501.306-.4378.489-.6254.184-.1876.429-.3127.674-.4066.275-.0938.612-.125.979-.125s.673.0312.979.125c.276.0626.551.1564.766.2502.214.0938.398.1877.52.2502.122.0938.214.1251.245.1564-.061.3439-.245.813-.52 1.501-.276.6567-.582 1.4385-.949 2.2829-.368.8443-.765 1.7512-1.194 2.6894-.428.9381-.857 1.845-1.255 2.7206-.398.8757-.796 1.6575-1.163 2.3767-.367.688-.643 1.2509-.826 1.6262h-4.102z"/><path d="m122.259 18.4515c0 1.9076.826 2.8458 2.51 2.8458 1.683 0 2.51-.9382 2.51-2.8458v-5.5038c0-.7193.214-1.2197.612-1.5011.398-.2815.948-.4378 1.622-.4378.49 0 .918.0625 1.316.1876s.643.1877.765.2189v7.8493c0 1.032-.184 1.9076-.52 2.6581-.337.7506-.827 1.376-1.439 1.8763-.612.5004-1.316.8757-2.173 1.1258-.826.2502-1.744.3753-2.693.3753-.98 0-1.867-.1251-2.694-.3753-.826-.2501-1.561-.6254-2.173-1.1258-.612-.5003-1.071-1.1257-1.438-1.8763-.337-.7505-.521-1.6574-.521-2.6581v-6.3169c0-.7193.215-1.2197.613-1.5011.397-.2815.948-.4378 1.622-.4378.489 0 .918.0625 1.316.1876s.643.1877.765.2189z"/><path d="m135.971 20.7032c.153.125.367.2501.704.4065s.735.3127 1.194.4378.979.2502 1.561.344c.581.0938 1.193.1564 1.836.1564.735 0 1.286-.0626 1.653-.2189.367-.1251.551-.3753.551-.7193 0-.3753-.153-.6254-.459-.7505s-.796-.2502-1.469-.344l-1.408-.1564c-.704-.0938-1.378-.2189-2.02-.4065-.643-.1876-1.225-.4378-1.714-.7818-.49-.344-.888-.7818-1.163-1.3134-.276-.5317-.429-1.1884-.429-2.0015 0-.6879.122-1.3134.367-1.8763s.612-1.0632 1.133-1.501c.52-.4378 1.193-.7818 1.989-1.0007.796-.2502 1.775-.3753 2.877-.3753 1.133 0 2.082.0625 2.908.2189s1.5.3753 2.112.688c.337.1876.612.4065.826.6567.215.2502.306.5942.306.9694 0 .2815-.061.5629-.183.7818-.123.2189-.245.4378-.398.5942s-.306.2815-.429.3753c-.122.0938-.214.1563-.245.1563-.061-.0625-.214-.1563-.428-.3127-.245-.1564-.551-.2814-.979-.4378-.398-.1251-.888-.2502-1.439-.3753s-1.194-.1563-1.928-.1563c-.796 0-1.378.0938-1.684.2814-.306.1877-.459.4378-.459.7505 0 .3128.153.5317.429.6568.275.125.704.2501 1.285.344l2.449.3439c.612.0939 1.193.219 1.744.4066s1.072.4378 1.5.7505c.429.344.796.7505 1.041 1.2509.245.5003.398 1.1258.398 1.8763 0 1.5323-.582 2.7207-1.714 3.5963-1.133.8443-2.724 1.2822-4.744 1.2822-1.041 0-1.99-.0626-2.816-.219-.827-.1563-1.5-.3127-2.112-.5003-.582-.1876-1.071-.4065-1.439-.5942-.367-.2189-.612-.3752-.765-.4691z"/></g></svg>