<?xml version="1.0" encoding="UTF-8"?>
<svg width="24px" height="24px" viewBox="0 0 24 24" version="1.1" xmlns="http://www.w3.org/2000/svg" xmlns:xlink="http://www.w3.org/1999/xlink">
    <!-- Generator: Sketch 63.1 (92452) - https://sketch.com -->
    <title>icon/platform/cpu</title>
    <desc>Created with Sketch.</desc>
    <g id="icon/platform/cpu" stroke="none" stroke-width="1" fill="none" fill-rule="evenodd">
        <path d="M21.5,2.5 L21.5,21.5 L2.5,21.5 L2.5,2.5 L21.5,2.5 Z M20.5,3.5 L3.5,3.5 L3.5,20.5 L20.5,20.5 L20.5,3.5 Z M11.5,12.5 L11.5,18.5 L5.5,18.5 L5.5,12.5 L11.5,12.5 Z M18.5,12.5 L18.5,18.5 L12.5,18.5 L12.5,12.5 L18.5,12.5 Z M11.5,5.5 L11.5,11.5 L5.5,11.5 L5.5,5.5 L11.5,5.5 Z M18.5,5.5 L18.5,11.5 L12.5,11.5 L12.5,5.5 L18.5,5.5 Z" id="Combined-Shape" fill="#FFFFFF"></path>
    </g>
</svg>