<?xml version="1.0" encoding="UTF-8"?>
<svg width="24px" height="24px" viewBox="0 0 24 24" version="1.1" xmlns="http://www.w3.org/2000/svg" xmlns:xlink="http://www.w3.org/1999/xlink">
    <!-- Generator: Sketch 63.1 (92452) - https://sketch.com -->
    <title>icon/doc/event</title>
    <desc>Created with Sketch.</desc>
    <g id="icon/doc/event" stroke="none" stroke-width="1" fill="none" fill-rule="evenodd">
        <path d="M20.7095584,6.36799651 C20.8255736,6.36799651 20.999952,6.48401175 20.999952,6.65839012 L20.999952,9.50328633 C19.6647138,9.56164585 18.6775951,10.6648428 18.6775951,12.000063 C18.6775951,13.2776473 19.6647858,14.3809198 20.999952,14.4968397 L20.999952,17.283956 C20.999952,17.4583307 20.8255772,17.6320035 20.7095584,17.6320035 L3.29044161,17.6320035 C3.11606685,17.6320035 3.000048,17.4576287 3.000048,17.283956 L3.000048,14.4968397 C4.33528622,14.3808244 5.3224049,13.2776293 5.3224049,12.000063 C5.3224049,10.6648248 4.2775603,9.56160625 3.000048,9.50328633 L3.000048,6.65839012 C3.000048,6.48401535 3.11606325,6.36799651 3.29044161,6.36799651 L20.7095584,6.36799651 Z M12.001048,8.98199651 L11.246233,11.3032299 L8.86537618,11.3032299 L10.7814736,12.6968241 L10.0263206,14.9615811 L12.000738,13.5679869 L13.9168354,14.9615811 L13.1616825,12.6968241 L15.1360998,11.3032299 L12.755243,11.3032299 L12.001048,8.98199651 Z" id="Shape" fill="#9071EF" fill-rule="nonzero" transform="translate(12.000000, 12.000000) rotate(-45.000000) translate(-12.000000, -12.000000) "></path>
    </g>
</svg>