<?xml version="1.0" encoding="UTF-8"?>
<svg width="24px" height="24px" viewBox="0 0 24 24" version="1.1" xmlns="http://www.w3.org/2000/svg" xmlns:xlink="http://www.w3.org/1999/xlink">
    <!-- Generator: Sketch 62 (91390) - https://sketch.com -->
    <title>icon/brand/github</title>
    <desc>Created with Sketch.</desc>
    <g id="icon/brand/github" stroke="none" stroke-width="1" fill="#fff" fill-rule="evenodd">
        <path d="M13.9791667,19.591613 C13.9791667,19.8051967 14.125,20.0614972 14.53125,19.9867429 C17.7083333,18.8974658 20,15.82186 20,12.2016156 C20,7.67364032 16.4166667,4 12,4 C7.58333333,4 4,7.67364032 4,12.2016156 C4,15.82186 6.29166667,18.8974658 9.46875,19.9867429 C9.875,20.0614972 10.0208333,19.8051967 10.0208333,19.591613 C10.0208333,19.3991138 10.0114576,18.8125238 10.010496,18.1692479 L10.0104167,18.0644893 C10.0104167,18.0644893 7.78125,18.5557319 7.3125,17.0926832 C7.3125,17.0926832 6.94791667,16.1422356 6.42708333,15.8966143 C6.42708333,15.8966143 5.69791667,15.3840133 6.47916667,15.3946925 C6.47916667,15.3946925 7.27083333,15.4587676 7.70833333,16.2383483 C8.40625,17.4984923 9.57291667,17.1354 10.03125,16.9218162 C10.1041667,16.3985361 10.3125,16.0354437 10.5416667,15.82186 C8.76041667,15.6189554 6.89583333,14.9141291 6.89583333,11.7744481 C6.89583333,10.8773964 7.20833333,10.1512117 7.71875,9.57453561 C7.63541667,9.36095187 7.36458333,8.52797528 7.80208333,7.39598146 C8.45165598,7.18787423 9.92204279,8.18625534 9.99702017,8.23759119 L10,8.23963723 C10.6354167,8.05809105 11.3229167,7.96197837 12,7.96197837 C12.6770833,7.96197837 13.3645833,8.05809105 14,8.23963723 C14,8.23963723 15.53125,7.18239772 16.1979167,7.39598146 C16.6354167,8.52797528 16.3645833,9.36095187 16.28125,9.57453561 C16.7916667,10.1512117 17.1041667,10.8773964 17.1041667,11.7744481 C17.1041667,14.9248083 15.2291667,15.6189554 13.4479167,15.82186 C13.7395833,16.0781605 13.9895833,16.5694031 13.9895833,17.3383045 C13.9895833,18.3771521 13.9802919,19.2254883 13.9792595,19.5414508 L13.9791667,19.591613 Z M6.96875,15.0709962 C7.02083333,15.1030338 7.08333333,15.0923546 7.10416667,15.0496378 C7.125,15.0069211 7.09375,14.9535252 7.03125,14.9214876 C6.96875,14.9001292 6.91666667,14.9108084 6.89583333,14.942846 C6.875,14.9855627 6.90625,15.0389587 6.96875,15.0709962 Z M6.92708333,16.0694147 C6.97916667,16.1228107 7.05208333,16.144169 7.09375,16.1014523 C7.13541667,16.0694147 7.125,15.9946604 7.07291667,15.9305853 C7.02083333,15.8771893 6.94791667,15.855831 6.90625,15.8985477 C6.86458333,15.9305853 6.875,16.0053396 6.92708333,16.0694147 Z M6.91145833,16.0621167 C6.96354167,16.136871 7.046875,16.1689085 7.08854167,16.136871 C7.140625,16.0941542 7.140625,16.0087207 7.08854167,15.9339664 C7.046875,15.8592121 6.96354167,15.8271745 6.91145833,15.8698913 C6.859375,15.9019289 6.859375,15.9873624 6.91145833,16.0621167 Z M7.92029388,16.0854335 C7.99321054,16.1601878 8.08696054,16.170867 8.12862721,16.1174711 C8.17029388,16.0747543 8.14946054,15.9786416 8.08696054,15.9145665 C8.01404388,15.8398122 7.92029388,15.829133 7.87862721,15.8825289 C7.82654388,15.9252457 7.84737721,16.0213584 7.92029388,16.0854335 Z M7.96875,17.1144816 C8.05208333,17.1465191 8.14583333,17.1144816 8.16666667,17.0504065 C8.1875,16.9863313 8.125,16.911577 8.03125,16.8795395 C7.94791667,16.8581811 7.85416667,16.8902187 7.83333333,16.9542938 C7.8125,17.0183689 7.875,17.0931232 7.96875,17.1144816 Z M9.83333333,17.0354169 C9.84375,17.099492 9.92708333,17.1422088 10.0208333,17.1208504 C10.1145833,17.099492 10.1770833,17.0354169 10.1666667,16.9713418 C10.15625,16.9072667 10.0729167,16.8645499 9.97916667,16.8752291 C9.88541667,16.8965875 9.82291667,16.9606626 9.83333333,17.0354169 Z M8.98605347,17.118733 L9.00520833,17.1174711 C9.09895833,17.1174711 9.171875,17.0640751 9.171875,17 C9.171875,16.9252457 9.08854167,16.8718498 8.99479167,16.8825289 C8.90104167,16.8825289 8.828125,16.9359249 8.828125,17 C8.828125,17.0747543 8.90104167,17.1281502 9.00520833,17.1174711 L8.98605347,17.118733 Z" id="" fill="#fff"></path>
    </g>
</svg>