<?xml version="1.0" encoding="UTF-8"?>
<svg width="24px" height="24px" viewBox="0 0 24 24" version="1.1" xmlns="http://www.w3.org/2000/svg" xmlns:xlink="http://www.w3.org/1999/xlink">
    <!-- Generator: Sketch 63.1 (92452) - https://sketch.com -->
    <title>icon/platform/gpu--white</title>
    <desc>Created with Sketch.</desc>
    <g id="icon/platform/gpu--white" stroke="none" stroke-width="1" fill="none" fill-rule="evenodd">
        <path d="M21.5,2.5 L21.5,21.5 L2.5,21.5 L2.5,2.5 L21.5,2.5 Z M20.5,3.5 L3.5,3.5 L3.5,20.5 L20.5,20.5 L20.5,3.5 Z M7,17 L7,19 L5,19 L5,17 L7,17 Z M10,17 L10,19 L8,19 L8,17 L10,17 Z M13,17 L13,19 L11,19 L11,17 L13,17 Z M16,17 L16,19 L14,19 L14,17 L16,17 Z M19,17 L19,19 L17,19 L17,17 L19,17 Z M7,14 L7,16 L5,16 L5,14 L7,14 Z M10,14 L10,16 L8,16 L8,14 L10,14 Z M13,14 L13,16 L11,16 L11,14 L13,14 Z M16,14 L16,16 L14,16 L14,14 L16,14 Z M19,14 L19,16 L17,16 L17,14 L19,14 Z M7,11 L7,13 L5,13 L5,11 L7,11 Z M10,11 L10,13 L8,13 L8,11 L10,11 Z M13,11 L13,13 L11,13 L11,11 L13,11 Z M16,11 L16,13 L14,13 L14,11 L16,11 Z M19,11 L19,13 L17,13 L17,11 L19,11 Z M7,8 L7,10 L5,10 L5,8 L7,8 Z M10,8 L10,10 L8,10 L8,8 L10,8 Z M13,8 L13,10 L11,10 L11,8 L13,8 Z M16,8 L16,10 L14,10 L14,8 L16,8 Z M19,8 L19,10 L17,10 L17,8 L19,8 Z M7,5 L7,7 L5,7 L5,5 L7,5 Z M10,5 L10,7 L8,7 L8,5 L10,5 Z M13,5 L13,7 L11,7 L11,5 L13,5 Z M16,5 L16,7 L14,7 L14,5 L16,5 Z M19,5 L19,7 L17,7 L17,5 L19,5 Z" id="Combined-Shape" fill="#FFFFFF"></path>
    </g>
</svg>