<?xml version="1.0" encoding="UTF-8"?>
<svg width="24px" height="24px" viewBox="0 0 24 24" version="1.1" xmlns="http://www.w3.org/2000/svg" xmlns:xlink="http://www.w3.org/1999/xlink">
    <!-- Generator: Sketch 63.1 (92452) - https://sketch.com -->
    <title>icon/doc/important</title>
    <desc>Created with Sketch.</desc>
    <g id="icon/doc/important" stroke="none" stroke-width="1" fill="none" fill-rule="evenodd">
        <path d="M4.98214471,22.4062517 C5.39732378,22.4062517 5.7857171,22.2455372 6.09375318,21.9642869 L12.0000102,16.2857087 L17.9062673,21.9642869 C18.2143033,22.2455372 18.6026967,22.3928588 19.0178757,22.3928588 C19.2187688,22.3928588 19.4196619,22.3660731 19.6071621,22.2857158 C20.1964486,22.058037 20.571449,21.5089292 20.571449,20.9062499 L20.571449,3.64283466 C20.571449,3.04015716 20.1964486,2.49104936 19.6071621,2.26337052 C19.4196619,2.18301328 19.2187688,2.14283466 19.0178757,2.14283466 L4.98214471,2.14283466 L4.98214471,2.14283466 C4.78125161,2.14283466 4.58035852,2.18301328 4.39285829,2.26337052 C3.80357188,2.49104936 3.42857143,3.04015716 3.42857143,3.64283466 L3.42857143,20.9062499 C3.42857143,21.5089292 3.80357188,22.058037 4.39285829,22.2857158 C4.58035852,22.3660731 4.78125161,22.4062517 4.98214471,22.4062517 Z" id="" fill="#FFB302" fill-rule="nonzero"></path>
    </g>
</svg>