<?xml version="1.0" encoding="UTF-8"?>
<svg width="24px" height="24px" viewBox="0 0 24 24" version="1.1" xmlns="http://www.w3.org/2000/svg" xmlns:xlink="http://www.w3.org/1999/xlink">
    <!-- Generator: Sketch 62 (91390) - https://sketch.com -->
    <title>icon/learn</title>
    <desc>Created with Sketch.</desc>
    <g id="icon/learn" stroke="none" stroke-width="1" fill="none" fill-rule="evenodd">
        <path d="M16.2060705,21.1428776 C17.1658931,21.1428776 18.1480371,20.4062696 18.4270553,19.4576077 L21.4962554,9.34598852 C21.6525056,8.83259505 21.5743805,8.30804085 21.2953623,7.90625466 C21.1279514,7.6830401 20.8935761,7.52678992 20.6368794,7.42634337 C20.6480401,7.62723647 20.6480401,7.85045102 20.5810757,8.06250484 L17.2328575,19.078143 C17.1100895,19.4799292 16.6301782,19.7143044 16.2172313,19.7143044 L5.9158797,19.7143044 C5.30203968,19.7143044 4.53194947,19.5803757 4.30873492,18.9330535 C4.2194491,18.6875175 4.23060983,18.587071 4.31989565,18.4531422 C4.4203422,18.3192135 4.59891384,18.2857313 4.7440033,18.2857313 L14.4426756,18.2857313 C15.860088,18.2857313 16.1502669,17.9062666 16.6748211,16.1875145 L19.7328605,6.07589533 C19.8891106,5.55134114 19.8221463,5.02678694 19.5319674,4.62500075 C19.2529492,4.23437528 18.7841986,4 18.2596444,4 L9.76633071,4 C9.57659835,4 9.38686598,4.05580364 9.19713361,4.10044655 L9.20829433,4.06696437 C7.79088193,3.66517817 7.70159611,5.19419785 7.23284555,5.88616296 C7.05427391,6.1428597 6.78641645,6.36607425 6.74177354,6.57812807 C6.70829135,6.77902117 6.81989863,6.96875354 6.79757718,7.15848591 C6.73061281,7.75000447 6.28418371,8.81027359 6.01632624,9.1785776 C5.84891533,9.40179215 5.60337932,9.51339943 5.52525423,9.77009616 C5.45828986,9.94866781 5.56989714,10.2053645 5.54757569,10.4397398 C5.49177205,10.964294 5.10114658,11.9575988 4.79980694,12.4709922 C4.68819966,12.6718853 4.47614584,12.8281355 4.4203422,13.0401893 C4.36453856,13.2299217 4.47614584,13.4754577 4.4203422,13.6875115 C4.29757419,14.2678694 3.91810946,15.1718883 3.58328763,15.7299247 C3.40471599,16.0312643 3.17034071,16.2209967 3.1256978,16.4888542 C3.10337634,16.6227829 3.20382289,16.7678724 3.19266216,16.946444 C3.18150144,17.2143015 3.13685853,17.437516 3.11453707,17.6607306 C2.95828688,18.0848382 2.95828688,18.5759102 3.13685853,19.078143 C3.54980545,20.2388586 4.76632475,21.1428776 5.90471897,21.1428776 L16.2060705,21.1428776 Z M16.4516065,8.28571939 L9.66588417,8.28571939 C9.46499107,8.28571939 9.35338379,8.12946921 9.42034816,7.92857611 L9.65472344,7.21428955 C9.7216878,7.01339645 9.93374163,6.85714626 10.123474,6.85714626 L16.9091964,6.85714626 C17.1100895,6.85714626 17.2216967,7.01339645 17.1547324,7.21428955 L16.9203571,7.92857611 C16.8533927,8.12946921 16.6413389,8.28571939 16.4516065,8.28571939 Z M15.5252662,11.1428657 L8.73954378,11.1428657 C8.53865068,11.1428657 8.4270434,10.9866155 8.49400777,10.7857224 L8.72838305,10.0714358 C8.79534741,9.87054271 9.00740124,9.71429253 9.19713361,9.71429253 L15.982856,9.71429253 C16.1837491,9.71429253 16.2953564,9.87054271 16.228392,10.0714358 L15.9940167,10.7857224 C15.9270523,10.9866155 15.7149985,11.1428657 15.5252662,11.1428657 Z" id="" fill="#4eb8f0"></path>
    </g>
</svg>