<?xml version="1.0" encoding="UTF-8"?>
<svg width="24px" height="24px" viewBox="0 0 24 24" version="1.1" xmlns="http://www.w3.org/2000/svg" xmlns:xlink="http://www.w3.org/1999/xlink">
    <!-- Generator: Sketch 63.1 (92452) - https://sketch.com -->
    <title>icon/doc/note</title>
    <desc>Created with Sketch.</desc>
    <g id="icon/doc/note" stroke="none" stroke-width="1" fill="none" fill-rule="evenodd">
        <path d="M19.4263481,10.1450871 L21.6495651,7.92187014 C21.9576012,7.61383406 22.1451014,7.17186924 22.1451014,6.71651156 C22.1451014,6.26115387 21.9576012,5.81918906 21.6495651,5.49776011 L18.5022399,2.3638278 C18.1808109,2.04239884 17.7388461,1.85489862 17.2834884,1.85489862 C16.8281308,1.85489862 16.3861659,2.04239884 16.0781299,2.3638278 L13.8549129,4.57365186 L19.4263481,10.1450871 Z M7.42633383,22.1451014 L18.5692043,11.002231 L12.997769,5.43079574 L1.85489862,16.5736662 L1.85489862,22.1451014 L7.42633383,22.1451014 Z M6.14061802,15.5825936 C5.96651066,15.5825936 5.84597481,15.4620577 5.84597481,15.2879503 C5.84597481,15.2075842 5.87276055,15.1272359 5.93972492,15.0602715 L13.1986621,7.80133428 C13.2656265,7.73436991 13.3459748,7.70758417 13.426341,7.70758417 C13.6004483,7.70758417 13.7209842,7.82812003 13.7209842,8.00222738 C13.7209842,8.08258462 13.6941984,8.16294185 13.6272341,8.22990622 L6.36829686,15.4888434 C6.30133249,15.5558078 6.22097525,15.5825936 6.14061802,15.5825936 Z M6.71651156,20.4308136 L5.28347414,20.4308136 L5.28347414,18.7165259 L3.56918638,18.7165259 L3.56918638,17.2834884 L4.78793783,16.064737 L7.93526301,19.2120622 L6.71651156,20.4308136 Z" id="icon-note" fill="#4FC4F9" fill-rule="nonzero"></path>
    </g>
</svg>