<?xml version="1.0" encoding="UTF-8"?>
<svg width="24px" height="24px" viewBox="0 0 24 24" version="1.1" xmlns="http://www.w3.org/2000/svg" xmlns:xlink="http://www.w3.org/1999/xlink">
    <!-- Generator: Sketch 63.1 (92452) - https://sketch.com -->
    <title>icon/doc/tip</title>
    <desc>Created with Sketch.</desc>
    <g id="icon/doc/tip" stroke="none" stroke-width="1" fill="none" fill-rule="evenodd">
        <path d="M18.549115,22.1116085 C18.9375083,22.1116085 19.0982227,21.7901795 19.0982227,21.4419648 C19.0982227,21.3482147 19.0982227,21.2678575 19.0848299,21.1741074 L17.9330428,14.4776708 L22.7946557,9.73659372 C22.9687631,9.56248637 23.1428704,9.33480752 23.1428704,9.09373581 C23.1428704,8.69194961 22.7142985,8.53123514 22.3928695,8.47766364 L15.6696472,7.49998391 L12.6562508,1.40622664 C12.5357149,1.15176205 12.3080361,0.857118845 12,0.857118845 C11.6919639,0.857118845 11.4642851,1.15176205 11.3437492,1.40622664 L8.33035277,7.49998391 L1.60713047,8.47766364 C1.27230864,8.53123514 0.857129574,8.69194961 0.857129574,9.09373581 C0.857129574,9.33480752 1.03123692,9.56248637 1.1919514,9.73659372 L6.06695721,14.4776708 L4.91517013,21.1741074 C4.90177725,21.2678575 4.88838438,21.3482147 4.88838438,21.4419648 C4.88838438,21.7901795 5.06249173,22.1116085 5.45088505,22.1116085 C5.63838527,22.1116085 5.81249262,22.0446441 5.98659997,21.950894 L12,18.7901759 L18.0134,21.950894 C18.1741145,22.0446441 18.3616147,22.1116085 18.549115,22.1116085 Z" id="" fill="#12C386" fill-rule="nonzero"></path>
    </g>
</svg>