<?xml version="1.0" encoding="UTF-8"?>
<svg width="24px" height="24px" viewBox="0 0 24 24" version="1.1" xmlns="http://www.w3.org/2000/svg" xmlns:xlink="http://www.w3.org/1999/xlink">
    <!-- Generator: Sketch 63.1 (92452) - https://sketch.com -->
    <title>icon/doc/warning</title>
    <desc>Created with Sketch.</desc>
    <g id="icon/doc/warning" stroke="none" stroke-width="1" fill="none" fill-rule="evenodd">
        <path d="M21.2307692,22 C21.7716346,22 22.2764423,21.7115385 22.5528846,21.2427885 C22.8293269,20.7740385 22.8413462,20.1971154 22.5769231,19.7283654 L13.3461538,2.80528846 C13.0817308,2.3125 12.5649038,2 12,2 C11.4350962,2 10.9182692,2.3125 10.6538462,2.80528846 L1.42307692,19.7283654 C1.15865385,20.1971154 1.17067308,20.7740385 1.44711538,21.2427885 C1.72355769,21.7115385 2.22836538,22 2.76923077,22 L21.2307692,22 Z M13.1057692,14.3076923 L10.8822115,14.3076923 C10.6538462,14.3076923 10.4735577,14.1875 10.4735577,14.03125 L10.2692308,8.53846154 C10.2692308,8.46634615 10.3052885,8.34615385 10.3894231,8.28605769 C10.4615385,8.22596154 10.5697115,8.15384615 10.6778846,8.15384615 L13.3221154,8.15384615 C13.4302885,8.15384615 13.5384615,8.22596154 13.6105769,8.28605769 C13.6947115,8.34615385 13.7307692,8.44230769 13.7307692,8.51442308 L13.5144231,14.03125 C13.5024038,14.1875 13.3221154,14.3076923 13.1057692,14.3076923 Z M13.1538462,18.9230769 L10.8461538,18.9230769 C10.6298077,18.9230769 10.4615385,18.7427885 10.4615385,18.5264423 L10.4615385,16.2427885 C10.4615385,16.0264423 10.6298077,15.8461538 10.8461538,15.8461538 L13.1538462,15.8461538 C13.3701923,15.8461538 13.5384615,16.0264423 13.5384615,16.2427885 L13.5384615,18.5264423 C13.5384615,18.7427885 13.3701923,18.9230769 13.1538462,18.9230769 Z" id="icon-warning" fill="#FF644D" fill-rule="nonzero"></path>
    </g>
</svg>