<?xml version="1.0" standalone="no"?>
<!DOCTYPE svg PUBLIC "-//W3C//DTD SVG 1.1//EN" "http://www.w3.org/Graphics/SVG/1.1/DTD/svg11.dtd">
<svg class="icon" width="200px" height="200.00px" viewBox="0 0 1024 1024" version="1.1" xmlns="http://www.w3.org/2000/svg">
    <path fill="#FFB302" d="M1012.184615 836.923077l-450.953846-728.615385c-23.630769-39.384615-74.830769-39.384615-98.461538 0L11.815385 836.923077C-15.753846 882.215385 11.815385 945.230769 61.046154 945.230769h901.907692c49.230769 0 78.769231-63.015385 49.230769-108.307692zM512 787.692308c-33.476923 0-59.076923-25.6-59.076923-59.076923s25.6-59.076923 59.076923-59.076923 59.076923 25.6 59.076923 59.076923-25.6 59.076923-59.076923 59.076923z m59.076923-177.23077c0 11.815385-7.876923 19.692308-19.692308 19.692308h-78.76923c-11.815385 0-19.692308-7.876923-19.692308-19.692308V354.461538c0-11.815385 7.876923-19.692308 19.692308-19.692307h78.76923c11.815385 0 19.692308 7.876923 19.692308 19.692307v256z"/>
</svg>
