<svg fill="none" height="30" viewBox="0 0 30 30" width="30" xmlns="http://www.w3.org/2000/svg"><circle cx="15" cy="15" fill="#000" r="15"/><path clip-rule="evenodd" d="m11.625 9.3125c0 .7249-.5876 1.3125-1.3125 1.3125-.72487 0-1.3125-.5876-1.3125-1.3125 0-.72487.58763-1.3125 1.3125-1.3125.7249 0 1.3125.58763 1.3125 1.3125zm-2.625 2.4375h2.6835v8.25h-2.6835zm9.993.0968-.0282-.0092c-.0186-.0062-.0373-.0123-.0573-.0178-.036-.0083-.072-.0151-.1088-.0211-.1425-.0284-.2985-.0487-.4815-.0487-1.5645 0-2.5567 1.1378-2.8837 1.5773v-1.5773h-2.6835v8.25h2.6835v-4.5s2.028-2.8245 2.8837-.75v5.25h2.6828v-5.5673c0-1.2465-.8542-2.2852-2.007-2.5859z" fill="#fff" fill-rule="evenodd"/></svg>