<?xml version="1.0" encoding="utf-8"?>
<!-- Svg Vector Icons : http://www.onlinewebfonts.com/icon -->
<!DOCTYPE svg PUBLIC "-//W3C//DTD SVG 1.1//EN" "http://www.w3.org/Graphics/SVG/1.1/DTD/svg11.dtd">
<svg version="1.1" xmlns="http://www.w3.org/2000/svg" xmlns:xlink="http://www.w3.org/1999/xlink" x="0px" y="0px" viewBox="0 0 1000 1000" enable-background="new 0 0 1000 1000" xml:space="preserve">
<metadata> Svg Vector Icons : http://www.onlinewebfonts.com/icon </metadata>
<g><g><path d="M608.8,648.2c5.8,5.8,5.8,11.5,0,17c-22.6,22.6-58.9,33.9-108.8,33.9s-86.2-11.3-108.8-33.9c-5.8-5.5-5.8-11.1,0-17c2.2-2.2,4.9-3.3,8.2-3.3s6,1.1,8.2,3.3c17.5,17.9,48.3,26.8,92.4,26.8c43.8,0,74.6-8.9,92.4-26.8c2.2-2.2,4.9-3.3,8.2-3.3C603.9,644.9,606.6,646,608.8,648.2L608.8,648.2z M440.9,549.2c0,13.5-4.7,25-14.2,34.5c-9.5,9.5-21,14.2-34.5,14.2s-25.1-4.7-34.7-14.2c-9.7-9.5-14.5-21-14.5-34.5c0-13.9,4.8-25.5,14.5-35s21.2-14.2,34.7-14.2s25,4.8,34.5,14.5S440.9,535.7,440.9,549.2L440.9,549.2z M657,549.2c0,13.5-4.8,25-14.5,34.5c-9.7,9.5-21.2,14.2-34.7,14.2c-13.5,0-25-4.7-34.5-14.2c-9.5-9.5-14.2-21-14.2-34.5c0-13.5,4.7-25.1,14.2-34.7c9.5-9.7,21-14.5,34.5-14.5c13.5,0,25.1,4.7,34.7,14.2S657,535.4,657,549.2L657,549.2z M794.2,483.6c0-17.9-6.4-33.2-19.1-45.9c-12.8-12.8-28.3-19.1-46.5-19.1s-33.9,6.6-47,19.7c-47.4-32.8-104.1-50.3-170.1-52.5l34.5-154.8l109.4,24.6c0,13.5,4.7,25,14.2,34.5s21,14.2,34.5,14.2s25.1-4.8,34.7-14.5c9.7-9.7,14.5-21.2,14.5-34.7s-4.8-25.1-14.5-34.7c-9.7-9.7-21.2-14.5-34.7-14.5c-19.7,0-34.3,9.1-43.8,27.3l-120.9-26.8c-6.9-1.8-11.5,1.1-13.7,8.8L488,385.7c-65.6,2.6-122,20.2-169,53c-12.8-13.5-28.6-20.2-47.6-20.2c-18.2,0-33.7,6.4-46.5,19.1c-12.8,12.8-19.1,28.1-19.1,45.9c0,12.8,3.4,24.4,10.1,35s15.8,18.6,27.1,24.1c-2.2,9.8-3.3,20.1-3.3,30.6c0,51.8,25.5,96.1,76.6,132.9c51,36.8,112.5,55.2,184.3,55.2c72.2,0,133.8-18.4,184.8-55.2c51-36.8,76.6-81.1,76.6-132.9c0-11.7-1.3-22.1-3.8-31.2c10.9-5.5,19.7-13.4,26.3-23.8S794.2,496.4,794.2,483.6L794.2,483.6z M990,500c0,66.4-12.9,129.8-38.8,190.3S890.5,803,846.7,846.7c-43.8,43.8-95.9,78.6-156.4,104.5S566.4,990,500,990c-66.4,0-129.8-12.9-190.3-38.8c-60.5-25.9-112.7-60.7-156.4-104.5C109.5,803,74.7,750.8,48.8,690.3S10,566.4,10,500c0-66.4,12.9-129.8,38.8-190.3c25.9-60.5,60.7-112.7,104.5-156.4c43.8-43.8,95.9-78.6,156.4-104.5C370.2,22.9,433.6,10,500,10c66.4,0,129.8,12.9,190.3,38.8S803,109.5,846.7,153.3c43.8,43.8,78.6,95.9,104.5,156.4C977.1,370.2,990,433.6,990,500z"/></g></g>
</svg>