<svg fill="none" height="30" viewBox="0 0 30 30" width="30" xmlns="http://www.w3.org/2000/svg"><circle cx="15" cy="15" fill="#000" r="15"/><path d="m22.7692 11.4206c-.5492.2409-1.1344.4006-1.7446.4782.6277-.3748 1.1068-.9637 1.332-1.6736-.5852.349-1.2314.5954-1.92.733-.5557-.5917-1.3477-.9582-2.2117-.9582-1.6763 0-3.0258 1.3606-3.0258 3.0286 0 .24.0203.4708.0701.6905-2.5172-.1228-4.7446-1.3293-6.24089-3.1671-.26123.4532-.41446.972-.41446 1.5305 0 1.0486.54 1.9781 1.34492 2.5163-.48646-.0093-.96369-.1505-1.368-.373v.0333c0 1.4714 1.04954 2.6935 2.42583 2.9751-.2464.0673-.5151.0996-.7938.0996-.1939 0-.38957-.011-.57326-.0516.39226 1.199 1.50556 2.0806 2.82926 2.1092-1.0302.8058-2.3382 1.2914-3.75418 1.2914-.24831 0-.48647-.0111-.72462-.0416 1.34123.865 2.9308 1.3588 4.6449 1.3588 5.5717 0 8.6179-4.6154 8.6179-8.616 0-.1338-.0046-.2631-.0111-.3914.6009-.4264 1.1058-.9591 1.5175-1.572z" fill="#fff"/></svg>