<svg width="842" height="220" viewBox="0 0 842 220" fill="none" xmlns="http://www.w3.org/2000/svg">
<path d="M134.562 4.81348L546.861 242.901" stroke="url(#paint0_linear_523_1200)" stroke-width="2"/>
<path d="M1 68.0073L413.298 306.095" stroke="url(#paint1_linear_523_1200)" stroke-width="2"/>
<path d="M251 -69L841 272" stroke="url(#paint2_linear_523_1200)" stroke-width="2"/>
<path d="M607 -30L135 243" stroke="url(#paint3_linear_523_1200)" stroke-width="2"/>
<path d="M458.047 -84L45.7485 154.088" stroke="url(#paint4_linear_523_1200)" stroke-width="2"/>
<rect width="78.7918" height="78.7918" transform="matrix(0.866025 0.5 -0.866025 0.5 340.799 44.5229)" fill="white"/>
<rect width="78.7918" height="78.7918" transform="matrix(0.866025 0.5 -0.866025 0.5 340.799 66.0278)" fill="white"/>
<rect width="78.7918" height="15.7584" transform="matrix(0.866025 0.5 -2.20305e-08 1 272.562 83.9192)" fill="url(#paint5_linear_523_1200)"/>
<rect width="78.7918" height="15.7584" transform="matrix(0.866025 0.5 -2.20305e-08 1 272.562 105.424)" fill="url(#paint6_linear_523_1200)"/>
<rect width="78.7918" height="15.7584" transform="matrix(0.866025 -0.5 2.20305e-08 1 341.111 123.315)" fill="url(#paint7_linear_523_1200)"/>
<rect width="78.7918" height="15.7584" transform="matrix(0.866025 -0.5 2.20305e-08 1 341.111 144.82)" fill="url(#paint8_linear_523_1200)"/>
<rect opacity="0.6" width="70.9126" height="0.787918" transform="matrix(0.866025 0.5 -2.20305e-08 1 275.715 94.1621)" fill="white"/>
<rect opacity="0.6" width="70.9126" height="0.787918" transform="matrix(0.866025 0.5 -2.20305e-08 1 275.715 115.667)" fill="white"/>
<rect opacity="0.6" width="70.9126" height="0.787918" transform="matrix(0.866025 -0.5 2.20305e-08 1 345.051 129.618)" fill="white"/>
<rect opacity="0.6" width="70.9126" height="0.787918" transform="matrix(0.866025 -0.5 2.20305e-08 1 345.051 151.123)" fill="white"/>
<rect width="55.2251" height="55.2251" transform="matrix(0.866025 0.5 -0.866025 0.5 340.799 56.804)" fill="#DBBFFF"/>
<path opacity="0.3" d="M292.859 -10.2166L340.624 17.3606L340.624 111.615L292.859 84.0374L292.859 -10.2166Z" fill="url(#paint9_linear_523_1200)"/>
<path opacity="0.3" d="M341.111 17.3608L388.876 -10.2163L388.876 84.0377L341.111 111.615L341.111 17.3608Z" fill="url(#paint10_linear_523_1200)"/>
<path d="M372.917 46.0728C372.917 47.6245 372.103 49.1586 370.51 50.6103C368.917 52.0623 366.585 53.3928 363.66 54.5205C357.813 56.7746 349.702 58.1794 340.718 58.1794C331.734 58.1794 323.623 56.7746 317.777 54.5205C314.852 53.3928 312.519 52.0623 310.926 50.6103C309.333 49.1586 308.52 47.6245 308.52 46.0728C308.52 44.521 309.333 42.987 310.926 41.5352C312.519 40.0832 314.852 38.7527 317.777 37.625C323.623 35.3709 331.734 33.9661 340.718 33.9661C349.702 33.9661 357.813 35.3709 363.66 37.625C366.585 38.7527 368.917 40.0832 370.51 41.5352C372.103 42.987 372.917 44.521 372.917 46.0728Z" stroke="url(#paint11_linear_523_1200)"/>
<path d="M383.158 66.2946C383.158 68.3902 382.058 70.4424 379.947 72.3655C377.836 74.2888 374.753 76.0438 370.901 77.528C363.201 80.4951 352.529 82.3408 340.717 82.3408C328.904 82.3408 318.233 80.4951 310.532 77.528C306.681 76.0438 303.598 74.2888 301.487 72.3655C299.376 70.4424 298.275 68.3902 298.275 66.2946C298.275 64.199 299.376 62.1468 301.487 60.2236C303.598 58.3003 306.681 56.5453 310.532 55.0611C318.233 52.0941 328.904 50.2483 340.717 50.2483C352.529 50.2483 363.201 52.0941 370.901 55.0611C374.753 56.5453 377.836 58.3003 379.947 60.2236C382.058 62.1468 383.158 64.199 383.158 66.2946Z" stroke="url(#paint12_linear_523_1200)"/>
<path d="M377.63 54.1367C377.63 55.9499 376.678 57.7331 374.836 59.4115C372.993 61.0901 370.299 62.6248 366.928 63.9239C360.188 66.5208 350.843 68.1377 340.497 68.1377C330.15 68.1377 320.805 66.5208 314.066 63.9239C310.694 62.6248 308 61.0901 306.157 59.4115C304.315 57.7331 303.363 55.9499 303.363 54.1367C303.363 52.3235 304.315 50.5403 306.157 48.8619C308 47.1833 310.694 45.6486 314.066 44.3495C320.805 41.7526 330.15 40.1357 340.497 40.1357C350.843 40.1357 360.188 41.7526 366.928 44.3495C370.299 45.6486 372.993 47.1833 374.836 48.8619C376.678 50.5403 377.63 52.3235 377.63 54.1367Z" stroke="url(#paint13_linear_523_1200)"/>
<circle cx="348.855" cy="71.94" r="1.02477" fill="#923DFF"/>
<circle cx="326.372" cy="38.7054" r="1.02477" fill="#923DFF"/>
<circle cx="334.203" cy="49.9093" r="1.02477" fill="#923DFF"/>
<circle cx="353.742" cy="41.6378" r="1.02477" fill="#923DFF"/>
<circle cx="308.255" cy="67.3192" r="1.02477" fill="#923DFF"/>
<rect width="20.2668" height="20.2668" transform="matrix(0.866025 0.5 -0.866025 0.5 462.277 33.3633)" fill="white"/>
<rect width="20.2668" height="20.2668" transform="matrix(0.866025 0.5 -0.866025 0.5 462.277 38.8948)" fill="white"/>
<rect width="20.2668" height="4.05337" transform="matrix(0.866025 0.5 -2.20305e-08 1 444.725 43.4966)" fill="url(#paint14_linear_523_1200)"/>
<rect width="20.2668" height="4.05337" transform="matrix(0.866025 0.5 -2.20305e-08 1 444.725 49.0281)" fill="url(#paint15_linear_523_1200)"/>
<rect width="20.2668" height="4.05337" transform="matrix(0.866025 -0.5 2.20305e-08 1 462.357 53.6299)" fill="url(#paint16_linear_523_1200)"/>
<rect width="20.2668" height="4.05337" transform="matrix(0.866025 -0.5 2.20305e-08 1 462.357 59.1616)" fill="url(#paint17_linear_523_1200)"/>
<rect opacity="0.6" width="18.2401" height="0.202668" transform="matrix(0.866025 0.5 -2.20305e-08 1 445.535 46.1313)" fill="white"/>
<rect opacity="0.6" width="18.2401" height="0.202668" transform="matrix(0.866025 0.5 -2.20305e-08 1 445.535 51.6628)" fill="white"/>
<rect opacity="0.6" width="18.2401" height="0.202668" transform="matrix(0.866025 -0.5 2.20305e-08 1 463.369 55.2515)" fill="white"/>
<rect opacity="0.6" width="18.2401" height="0.202668" transform="matrix(0.866025 -0.5 2.20305e-08 1 463.369 60.783)" fill="white"/>
<rect width="14.205" height="14.205" transform="matrix(0.866025 0.5 -0.866025 0.5 462.277 36.522)" fill="#5DE4C4"/>
<path opacity="0.3" d="M449.945 16.7688L462.231 23.8622L462.231 50.6205L449.945 43.5271L449.945 16.7688Z" fill="url(#paint18_linear_523_1200)"/>
<path opacity="0.3" d="M462.357 23.8621L474.644 16.7687L474.644 43.527L462.357 50.6204L462.357 23.8621Z" fill="url(#paint19_linear_523_1200)"/>
<path d="M470.167 32.8831C470.167 33.1419 470.033 33.4443 469.669 33.7758C469.306 34.1074 468.751 34.4291 468.024 34.7095C466.572 35.269 464.534 35.6258 462.256 35.6258C459.979 35.6258 457.94 35.269 456.489 34.7095C455.762 34.4291 455.207 34.1074 454.843 33.7758C454.48 33.4443 454.346 33.1419 454.346 32.8831C454.346 32.6242 454.48 32.3219 454.843 31.9904C455.207 31.6587 455.762 31.3371 456.489 31.0567C457.94 30.4971 459.979 30.1404 462.256 30.1404C464.534 30.1404 466.572 30.4971 468.024 31.0567C468.751 31.3371 469.306 31.6587 469.669 31.9904C470.033 32.3219 470.167 32.6242 470.167 32.8831Z" stroke="url(#paint20_linear_523_1200)"/>
<path d="M472.802 38.9633C472.802 39.362 472.594 39.7976 472.097 40.2503C471.6 40.7033 470.853 41.1341 469.887 41.5062C467.959 42.2492 465.261 42.7193 462.256 42.7193C459.252 42.7193 456.554 42.2492 454.626 41.5062C453.66 41.1341 452.913 40.7033 452.416 40.2503C451.919 39.7976 451.711 39.362 451.711 38.9633C451.711 38.5647 451.919 38.129 452.416 37.6763C452.913 37.2234 453.66 36.7925 454.626 36.4204C456.554 35.6774 459.252 35.2073 462.256 35.2073C465.261 35.2073 467.959 35.6774 469.887 36.4204C470.853 36.7925 471.6 37.2234 472.097 37.6763C472.594 38.129 472.802 38.5647 472.802 38.9633Z" stroke="url(#paint21_linear_523_1200)"/>
<path d="M471.38 35.5002C471.38 35.8101 471.215 36.1646 470.786 36.5459C470.359 36.9269 469.711 37.2928 468.868 37.6103C467.186 38.2438 464.828 38.646 462.2 38.646C459.571 38.646 457.213 38.2438 455.531 37.6103C454.688 37.2928 454.041 36.9269 453.613 36.5459C453.184 36.1646 453.02 35.8101 453.02 35.5002C453.02 35.1903 453.184 34.8359 453.613 34.4546C454.041 34.0736 454.688 33.7077 455.531 33.3902C457.213 32.7566 459.571 32.3545 462.2 32.3545C464.828 32.3545 467.186 32.7566 468.868 33.3902C469.711 33.7077 470.359 34.0736 470.786 34.4546C471.215 34.8359 471.38 35.1903 471.38 35.5002Z" stroke="url(#paint22_linear_523_1200)"/>
<circle cx="471.274" cy="30.046" r="0.608005" fill="#5DE4C4"/>
<circle cx="454.249" cy="39.5714" r="0.608005" fill="#5DE4C4"/>
<circle cx="459.161" cy="27.6854" r="0.608005" fill="#5DE4C4"/>
<circle cx="463.436" cy="33.4684" r="0.608005" fill="#5DE4C4"/>
<circle cx="468.715" cy="38.2455" r="0.608005" fill="#5DE4C4"/>
<path d="M635.674 93.6265L223.375 331.714" stroke="url(#paint23_linear_523_1200)"/>
<rect width="6.83179" height="6.83179" transform="matrix(0.866025 -0.5 2.20305e-08 1 463.512 195.42)" fill="url(#paint24_linear_523_1200)"/>
<rect width="6.83179" height="6.83179" transform="matrix(0.866025 0.5 -0.866025 0.5 463.621 188.588)" fill="url(#paint25_linear_523_1200)"/>
<rect width="6.83179" height="6.83179" transform="matrix(0.866025 0.5 -2.20305e-08 1 457.705 192.004)" fill="url(#paint26_linear_523_1200)"/>
<rect width="6.83179" height="6.83179" transform="matrix(0.866025 -0.5 2.20305e-08 1 219.275 54.002)" fill="url(#paint27_linear_523_1200)"/>
<rect width="6.83179" height="6.83179" transform="matrix(0.866025 0.5 -0.866025 0.5 219.385 47.1702)" fill="url(#paint28_linear_523_1200)"/>
<rect width="6.83179" height="6.83179" transform="matrix(0.866025 0.5 -2.20305e-08 1 213.469 50.5859)" fill="url(#paint29_linear_523_1200)"/>
<rect width="20.4369" height="20.4369" transform="matrix(0.866025 0.5 -0.866025 0.5 219.213 173.516)" fill="white"/>
<rect width="20.4369" height="20.4369" transform="matrix(0.866025 0.5 -0.866025 0.5 219.213 179.094)" fill="white"/>
<rect width="20.4369" height="4.08739" transform="matrix(0.866025 0.5 -2.20305e-08 1 201.514 183.734)" fill="url(#paint30_linear_523_1200)"/>
<rect width="20.4369" height="4.08739" transform="matrix(0.866025 0.5 -2.20305e-08 1 201.514 189.312)" fill="url(#paint31_linear_523_1200)"/>
<rect width="20.4369" height="4.08739" transform="matrix(0.866025 -0.5 2.20305e-08 1 219.293 193.953)" fill="url(#paint32_linear_523_1200)"/>
<rect width="20.4369" height="4.08739" transform="matrix(0.866025 -0.5 2.20305e-08 1 219.293 199.531)" fill="url(#paint33_linear_523_1200)"/>
<rect opacity="0.6" width="18.3933" height="0.204369" transform="matrix(0.866025 0.5 -2.20305e-08 1 202.332 186.391)" fill="white"/>
<rect opacity="0.6" width="18.3933" height="0.204369" transform="matrix(0.866025 0.5 -2.20305e-08 1 202.332 191.969)" fill="white"/>
<rect opacity="0.6" width="18.3933" height="0.204369" transform="matrix(0.866025 -0.5 2.20305e-08 1 220.316 195.588)" fill="white"/>
<rect opacity="0.6" width="18.3933" height="0.204369" transform="matrix(0.866025 -0.5 2.20305e-08 1 220.316 201.166)" fill="white"/>
<rect width="14.3242" height="14.3242" transform="matrix(0.866025 0.5 -0.866025 0.5 219.213 176.701)" fill="#FDE82B"/>
<rect opacity="0.3" width="14.3059" height="14.3059" transform="matrix(0.866025 0.5 -2.20305e-08 1 206.779 169.459)" fill="url(#paint34_linear_523_1200)"/>
<rect opacity="0.3" width="14.3059" height="14.3059" transform="matrix(0.866025 -0.5 2.20305e-08 1 219.293 176.612)" fill="url(#paint35_linear_523_1200)"/>
<path d="M227.172 173.032C227.172 173.294 227.036 173.6 226.668 173.935C226.301 174.27 225.741 174.595 225.008 174.878C223.544 175.442 221.487 175.802 219.19 175.802C216.894 175.802 214.837 175.442 213.373 174.878C212.639 174.595 212.08 174.27 211.712 173.935C211.345 173.6 211.209 173.294 211.209 173.032C211.209 172.769 211.345 172.463 211.712 172.129C212.08 171.794 212.639 171.469 213.373 171.186C214.837 170.622 216.894 170.262 219.19 170.262C221.487 170.262 223.544 170.622 225.008 171.186C225.741 171.469 226.301 171.794 226.668 172.129C227.036 172.463 227.172 172.769 227.172 173.032Z" stroke="url(#paint36_linear_523_1200)"/>
<path d="M229.831 179.163C229.831 179.566 229.621 180.007 229.119 180.464C228.617 180.921 227.863 181.356 226.889 181.731C224.944 182.48 222.223 182.955 219.193 182.955C216.163 182.955 213.442 182.48 211.497 181.731C210.523 181.356 209.769 180.921 209.267 180.464C208.765 180.007 208.555 179.566 208.555 179.163C208.555 178.759 208.765 178.319 209.267 177.862C209.769 177.405 210.523 176.97 211.497 176.595C213.442 175.845 216.163 175.371 219.193 175.371C222.223 175.371 224.944 175.845 226.889 176.595C227.863 176.97 228.617 177.405 229.119 177.862C229.621 178.319 229.831 178.759 229.831 179.163Z" stroke="url(#paint37_linear_523_1200)"/>
<circle cx="228.287" cy="170.171" r="0.613108" fill="#FDE82B"/>
<circle cx="211.119" cy="179.776" r="0.613108" fill="#FDE82B"/>
<defs>
<linearGradient id="paint0_linear_523_1200" x1="117.141" y1="1.56838" x2="511.677" y2="224.797" gradientUnits="userSpaceOnUse">
<stop stop-color="#F1F4F6" stop-opacity="0"/>
<stop offset="0.333333" stop-color="#E3ECF2"/>
<stop offset="0.755208" stop-color="#E3ECF2"/>
<stop offset="1" stop-color="#F1F4F6" stop-opacity="0"/>
</linearGradient>
<linearGradient id="paint1_linear_523_1200" x1="11.7601" y1="74.3267" x2="354.033" y2="273.132" gradientUnits="userSpaceOnUse">
<stop offset="0.333333" stop-color="#F1F4F6" stop-opacity="0"/>
<stop offset="0.593522" stop-color="#E3ECF2"/>
<stop offset="0.745112" stop-color="#F1F4F6" stop-opacity="0"/>
</linearGradient>
<linearGradient id="paint2_linear_523_1200" x1="643.519" y1="159.964" x2="157.426" y2="-119.761" gradientUnits="userSpaceOnUse">
<stop stop-color="#E3ECF2" stop-opacity="0"/>
<stop offset="0.53125" stop-color="#F1F4F6"/>
<stop offset="1" stop-color="#F1F4F6" stop-opacity="0"/>
</linearGradient>
<linearGradient id="paint3_linear_523_1200" x1="590.967" y1="-20.4039" x2="168.491" y2="221.853" gradientUnits="userSpaceOnUse">
<stop stop-color="#E3ECF2" stop-opacity="0"/>
<stop offset="0.541667" stop-color="#E3ECF2"/>
<stop offset="1" stop-color="#F1F4F6" stop-opacity="0"/>
</linearGradient>
<linearGradient id="paint4_linear_523_1200" x1="400.147" y1="-48.3039" x2="95.7913" y2="124.37" gradientUnits="userSpaceOnUse">
<stop offset="0.215433" stop-color="#F1F4F6" stop-opacity="0"/>
<stop offset="0.526907" stop-color="#E3ECF2"/>
<stop offset="1" stop-color="#F1F4F6" stop-opacity="0"/>
</linearGradient>
<linearGradient id="paint5_linear_523_1200" x1="3.52793e-06" y1="7.48522" x2="39.5797" y2="46.5805" gradientUnits="userSpaceOnUse">
<stop stop-color="white"/>
<stop offset="1" stop-color="#CBDFF1"/>
</linearGradient>
<linearGradient id="paint6_linear_523_1200" x1="3.52793e-06" y1="7.48522" x2="39.5797" y2="46.5805" gradientUnits="userSpaceOnUse">
<stop stop-color="white"/>
<stop offset="1" stop-color="#CBDFF1"/>
</linearGradient>
<linearGradient id="paint7_linear_523_1200" x1="77.3338" y1="6.75623" x2="38.6502" y2="46.5927" gradientUnits="userSpaceOnUse">
<stop stop-color="#D0E2F3"/>
<stop offset="0.90625" stop-color="#F8FBFD"/>
</linearGradient>
<linearGradient id="paint8_linear_523_1200" x1="77.3338" y1="6.75623" x2="38.6502" y2="46.5927" gradientUnits="userSpaceOnUse">
<stop stop-color="#D0E2F3"/>
<stop offset="0.90625" stop-color="#F8FBFD"/>
</linearGradient>
<linearGradient id="paint9_linear_523_1200" x1="316.742" y1="42.6717" x2="292.859" y2="84.0374" gradientUnits="userSpaceOnUse">
<stop stop-color="white" stop-opacity="0"/>
<stop offset="1" stop-color="#9C50FF"/>
</linearGradient>
<linearGradient id="paint10_linear_523_1200" x1="364.994" y1="42.672" x2="388.876" y2="84.0377" gradientUnits="userSpaceOnUse">
<stop stop-color="white" stop-opacity="0"/>
<stop offset="1" stop-color="#9C50FF"/>
</linearGradient>
<linearGradient id="paint11_linear_523_1200" x1="340.718" y1="33.4661" x2="340.718" y2="58.6794" gradientUnits="userSpaceOnUse">
<stop stop-color="#DBBFFF" stop-opacity="0"/>
<stop offset="1" stop-color="#A157FF"/>
</linearGradient>
<linearGradient id="paint12_linear_523_1200" x1="340.717" y1="49.7483" x2="340.717" y2="82.8408" gradientUnits="userSpaceOnUse">
<stop stop-color="#DBBFFF" stop-opacity="0"/>
<stop offset="1" stop-color="#A157FF"/>
</linearGradient>
<linearGradient id="paint13_linear_523_1200" x1="340.497" y1="39.6357" x2="340.497" y2="68.6377" gradientUnits="userSpaceOnUse">
<stop stop-color="#DBBFFF" stop-opacity="0"/>
<stop offset="1" stop-color="#A157FF"/>
</linearGradient>
<linearGradient id="paint14_linear_523_1200" x1="9.07453e-07" y1="1.92535" x2="10.1807" y2="11.9814" gradientUnits="userSpaceOnUse">
<stop stop-color="white"/>
<stop offset="1" stop-color="#CBDFF1"/>
</linearGradient>
<linearGradient id="paint15_linear_523_1200" x1="9.07453e-07" y1="1.92535" x2="10.1807" y2="11.9814" gradientUnits="userSpaceOnUse">
<stop stop-color="white"/>
<stop offset="1" stop-color="#CBDFF1"/>
</linearGradient>
<linearGradient id="paint16_linear_523_1200" x1="19.8918" y1="1.73784" x2="9.94161" y2="11.9846" gradientUnits="userSpaceOnUse">
<stop stop-color="#D0E2F3"/>
<stop offset="0.90625" stop-color="#F8FBFD"/>
</linearGradient>
<linearGradient id="paint17_linear_523_1200" x1="19.8918" y1="1.73784" x2="9.94161" y2="11.9846" gradientUnits="userSpaceOnUse">
<stop stop-color="#D0E2F3"/>
<stop offset="0.90625" stop-color="#F8FBFD"/>
</linearGradient>
<linearGradient id="paint18_linear_523_1200" x1="456.088" y1="32.887" x2="449.945" y2="43.5271" gradientUnits="userSpaceOnUse">
<stop stop-color="white" stop-opacity="0"/>
<stop offset="1" stop-color="#46F4FF"/>
</linearGradient>
<linearGradient id="paint19_linear_523_1200" x1="468.5" y1="32.8869" x2="474.644" y2="43.527" gradientUnits="userSpaceOnUse">
<stop stop-color="white" stop-opacity="0"/>
<stop offset="1" stop-color="#46F4FF"/>
</linearGradient>
<linearGradient id="paint20_linear_523_1200" x1="462.256" y1="29.6404" x2="462.256" y2="36.1258" gradientUnits="userSpaceOnUse">
<stop stop-color="#5DE4C4" stop-opacity="0"/>
<stop offset="1" stop-color="#5DE4C4"/>
</linearGradient>
<linearGradient id="paint21_linear_523_1200" x1="462.256" y1="34.7073" x2="462.256" y2="43.2193" gradientUnits="userSpaceOnUse">
<stop stop-color="#5DE4C4" stop-opacity="0"/>
<stop offset="1" stop-color="#5DE4C4"/>
</linearGradient>
<linearGradient id="paint22_linear_523_1200" x1="462.2" y1="31.8545" x2="462.2" y2="39.146" gradientUnits="userSpaceOnUse">
<stop stop-color="#5DE4C4" stop-opacity="0"/>
<stop offset="1" stop-color="#5DE4C4"/>
</linearGradient>
<linearGradient id="paint23_linear_523_1200" x1="636" y1="90" x2="317.654" y2="271.765" gradientUnits="userSpaceOnUse">
<stop stop-color="#E4EDF3" stop-opacity="0"/>
<stop offset="0.510417" stop-color="#E4EDF3"/>
<stop offset="1" stop-color="#F1F4F6" stop-opacity="0"/>
</linearGradient>
<linearGradient id="paint24_linear_523_1200" x1="3.41589" y1="0" x2="3.41589" y2="6.83179" gradientUnits="userSpaceOnUse">
<stop stop-color="#96DEFF"/>
<stop offset="1" stop-color="#F5F8FB"/>
</linearGradient>
<linearGradient id="paint25_linear_523_1200" x1="3.41589" y1="0" x2="3.41589" y2="6.83179" gradientUnits="userSpaceOnUse">
<stop stop-color="#B9E9FF"/>
<stop offset="1" stop-color="white"/>
</linearGradient>
<linearGradient id="paint26_linear_523_1200" x1="3.41589" y1="0" x2="3.41589" y2="6.83179" gradientUnits="userSpaceOnUse">
<stop stop-color="#96DEFF"/>
<stop offset="1" stop-color="#F5F8FB"/>
</linearGradient>
<linearGradient id="paint27_linear_523_1200" x1="3.41589" y1="0" x2="3.41589" y2="6.83179" gradientUnits="userSpaceOnUse">
<stop stop-color="#89AAFF"/>
<stop offset="1" stop-color="#F5F8FB"/>
</linearGradient>
<linearGradient id="paint28_linear_523_1200" x1="3.41589" y1="0" x2="3.41589" y2="6.83179" gradientUnits="userSpaceOnUse">
<stop stop-color="#89AAFF"/>
<stop offset="1" stop-color="white"/>
</linearGradient>
<linearGradient id="paint29_linear_523_1200" x1="3.41589" y1="0" x2="3.41589" y2="6.83179" gradientUnits="userSpaceOnUse">
<stop stop-color="#89AAFF"/>
<stop offset="1" stop-color="#F5F8FB"/>
</linearGradient>
<linearGradient id="paint30_linear_523_1200" x1="9.1507e-07" y1="1.94151" x2="10.2661" y2="12.082" gradientUnits="userSpaceOnUse">
<stop stop-color="white"/>
<stop offset="1" stop-color="#CBDFF1"/>
</linearGradient>
<linearGradient id="paint31_linear_523_1200" x1="9.1507e-07" y1="1.94151" x2="10.2661" y2="12.082" gradientUnits="userSpaceOnUse">
<stop stop-color="white"/>
<stop offset="1" stop-color="#CBDFF1"/>
</linearGradient>
<linearGradient id="paint32_linear_523_1200" x1="20.0588" y1="1.75242" x2="10.0251" y2="12.0852" gradientUnits="userSpaceOnUse">
<stop stop-color="#D0E2F3"/>
<stop offset="0.90625" stop-color="#F8FBFD"/>
</linearGradient>
<linearGradient id="paint33_linear_523_1200" x1="20.0588" y1="1.75242" x2="10.0251" y2="12.0852" gradientUnits="userSpaceOnUse">
<stop stop-color="#D0E2F3"/>
<stop offset="0.90625" stop-color="#F8FBFD"/>
</linearGradient>
<linearGradient id="paint34_linear_523_1200" x1="7.15293" y1="0" x2="7.15293" y2="14.3059" gradientUnits="userSpaceOnUse">
<stop stop-color="white" stop-opacity="0"/>
<stop offset="1" stop-color="#FFB800"/>
</linearGradient>
<linearGradient id="paint35_linear_523_1200" x1="7.15293" y1="0" x2="7.15293" y2="14.3059" gradientUnits="userSpaceOnUse">
<stop stop-color="white" stop-opacity="0"/>
<stop offset="1" stop-color="#FFB800"/>
</linearGradient>
<linearGradient id="paint36_linear_523_1200" x1="219.19" y1="169.762" x2="219.19" y2="176.302" gradientUnits="userSpaceOnUse">
<stop stop-color="white" stop-opacity="0"/>
<stop offset="1" stop-color="#FDE82B"/>
</linearGradient>
<linearGradient id="paint37_linear_523_1200" x1="219.193" y1="174.871" x2="219.193" y2="183.455" gradientUnits="userSpaceOnUse">
<stop stop-color="white" stop-opacity="0"/>
<stop offset="1" stop-color="#FDE82B"/>
</linearGradient>
</defs>
</svg>
