<svg width="70" height="72" viewBox="0 0 70 72" fill="none" xmlns="http://www.w3.org/2000/svg">
<path d="M21.2813 12.4683L22.8536 15.1915" stroke="#00131A" stroke-width="0.403515"/>
<path d="M46.832 56.7234L48.4043 59.4467" stroke="#00131A" stroke-width="0.403515"/>
<path d="M55.4824 48.0731L58.2056 49.6454" stroke="#00131A" stroke-width="0.403515"/>
<path d="M58.6481 36.257L61.7926 36.257" stroke="#00131A" stroke-width="0.403515"/>
<path d="M21.2807 60.0453L22.853 57.322" stroke="#00131A" stroke-width="0.403515"/>
<path d="M35.0148 8.78845V11.933" stroke="#00131A" stroke-width="0.403515"/>
<path d="M35.0148 59.8899V63.0345" stroke="#00131A" stroke-width="0.403515"/>
<path fill-rule="evenodd" clip-rule="evenodd" d="M10.5469 31.3522C11.0428 30.4083 11.2908 29.2744 11.2908 27.9506C11.2908 26.6267 11.0428 25.4948 10.5469 24.5549C10.0549 23.611 9.38298 22.8891 8.53106 22.3891C7.68315 21.8892 6.72125 21.6392 5.64536 21.6392C4.56947 21.6392 3.60557 21.8892 2.75366 22.3891C1.90574 22.8891 1.23381 23.611 0.737863 24.5549C0.245914 25.4948 -6.10352e-05 26.6267 -6.10352e-05 27.9506C-6.10352e-05 29.2704 0.245914 30.4023 0.737863 31.3462C1.23381 32.2861 1.90574 33.008 2.75366 33.512C3.60557 34.0119 4.56947 34.2619 5.64536 34.2619C6.72125 34.2619 7.68315 34.0119 8.53106 33.512C9.38298 33.012 10.0549 32.2921 10.5469 31.3522ZM8.61506 25.5928C8.90703 26.2327 9.05301 27.0187 9.05301 27.9506C9.05301 28.8825 8.90703 29.6704 8.61506 30.3143C8.32709 30.9543 7.92713 31.4402 7.41518 31.7722C6.90323 32.1001 6.31329 32.2641 5.64536 32.2641C4.97743 32.2641 4.38749 32.1001 3.87554 31.7722C3.36359 31.4402 2.96164 30.9543 2.66967 30.3143C2.3817 29.6704 2.23771 28.8825 2.23771 27.9506C2.23771 27.0187 2.3817 26.2327 2.66967 25.5928C2.96164 24.9489 3.36359 24.4629 3.87554 24.135C4.38749 23.803 4.97743 23.637 5.64536 23.637C6.31329 23.637 6.90323 23.803 7.41518 24.135C7.92713 24.4629 8.32709 24.9489 8.61506 25.5928ZM17.9666 26.5587V24.8789H16.0588V24.153C16.0588 23.793 16.1408 23.517 16.3048 23.325C16.4728 23.1291 16.7587 23.0311 17.1627 23.0311C17.3347 23.0311 17.4906 23.0471 17.6306 23.0791C17.7706 23.1071 17.8866 23.1351 17.9786 23.1631L18.4106 21.4832C18.2706 21.4352 18.0546 21.3812 17.7626 21.3212C17.4706 21.2613 17.1367 21.2313 16.7607 21.2313C16.2288 21.2313 15.7448 21.3332 15.3089 21.5372C14.8729 21.7412 14.525 22.0492 14.265 22.4611C14.009 22.8731 13.881 23.389 13.881 24.009V24.8789H12.5192V26.5587H13.881V34.0939H16.0588V26.5587H17.9666ZM24.3349 26.5587V24.8789H22.4271V24.153C22.4271 23.793 22.5091 23.517 22.6731 23.325C22.8411 23.1291 23.1271 23.0311 23.531 23.0311C23.703 23.0311 23.859 23.0471 23.999 23.0791C24.139 23.1071 24.255 23.1351 24.3469 23.1631L24.7789 21.4832C24.6389 21.4352 24.4229 21.3812 24.131 21.3212C23.839 21.2613 23.505 21.2313 23.1291 21.2313C22.5971 21.2313 22.1132 21.3332 21.6772 21.5372C21.2413 21.7412 20.8933 22.0492 20.6333 22.4611C20.3774 22.8731 20.2494 23.389 20.2494 24.009V24.8789H18.8875V26.5587H20.2494V34.0939H22.4271V26.5587H24.3349ZM26.0358 24.8789V34.0939H28.2076V24.8789H26.0358ZM26.2398 23.2291C26.4877 23.457 26.7837 23.571 27.1277 23.571C27.4756 23.571 27.7716 23.457 28.0156 23.2291C28.2635 22.9971 28.3875 22.7191 28.3875 22.3951C28.3875 22.0672 28.2635 21.7892 28.0156 21.5612C27.7716 21.3292 27.4756 21.2133 27.1277 21.2133C26.7837 21.2133 26.4877 21.3292 26.2398 21.5612C25.9918 21.7892 25.8678 22.0672 25.8678 22.3951C25.8678 22.7191 25.9918 22.9971 26.2398 23.2291ZM32.0907 33.668C32.7506 34.0719 33.5405 34.2739 34.4604 34.2739C35.2323 34.2739 35.9043 34.1339 36.4762 33.854C37.0481 33.57 37.5001 33.178 37.8321 32.6781C38.164 32.1741 38.356 31.5962 38.408 30.9443H36.3322C36.2682 31.2762 36.1502 31.5582 35.9783 31.7902C35.8063 32.0222 35.5923 32.2001 35.3363 32.3241C35.0843 32.4441 34.7984 32.5041 34.4784 32.5041C34.0265 32.5041 33.6325 32.3841 33.2965 32.1441C32.9646 31.9002 32.7066 31.5542 32.5226 31.1062C32.3386 30.6543 32.2466 30.1143 32.2466 29.4864C32.2466 28.8665 32.3386 28.3345 32.5226 27.8906C32.7106 27.4466 32.9726 27.1067 33.3085 26.8707C33.6445 26.6307 34.0345 26.5107 34.4784 26.5107C35.0024 26.5107 35.4203 26.6607 35.7323 26.9607C36.0482 27.2566 36.2482 27.6266 36.3322 28.0706H38.408C38.36 27.4066 38.164 26.8267 37.8201 26.3307C37.4761 25.8308 37.0141 25.4448 36.4342 25.1729C35.8583 24.8969 35.1963 24.7589 34.4484 24.7589C33.5485 24.7589 32.7686 24.9609 32.1087 25.3648C31.4527 25.7648 30.9448 26.3247 30.5848 27.0447C30.2248 27.7606 30.0449 28.5865 30.0449 29.5224C30.0449 30.4543 30.2208 31.2782 30.5728 31.9942C30.9288 32.7061 31.4347 33.264 32.0907 33.668ZM41.8772 33.698C42.5491 34.0819 43.347 34.2739 44.2709 34.2739C44.9868 34.2739 45.6228 34.1659 46.1787 33.95C46.7347 33.73 47.1906 33.422 47.5466 33.026C47.9065 32.6261 48.1505 32.1581 48.2785 31.6222L46.2507 31.3942C46.1547 31.6542 46.0127 31.8722 45.8247 32.0481C45.6368 32.2241 45.4148 32.3581 45.1588 32.4501C44.9028 32.5381 44.6169 32.5821 44.3009 32.5821C43.829 32.5821 43.417 32.4821 43.065 32.2821C42.7131 32.0781 42.4391 31.7862 42.2431 31.4062C42.0537 31.0352 41.9559 30.5933 41.9495 30.0803H48.3685V29.4144C48.3685 28.6065 48.2565 27.9106 48.0325 27.3266C47.8085 26.7387 47.5006 26.2547 47.1086 25.8748C46.7207 25.4948 46.2727 25.2148 45.7648 25.0349C45.2608 24.8509 44.7249 24.7589 44.1569 24.7589C43.277 24.7589 42.5111 24.9609 41.8592 25.3648C41.2072 25.7648 40.6993 26.3247 40.3353 27.0447C39.9753 27.7606 39.7954 28.5925 39.7954 29.5404C39.7954 30.5043 39.9753 31.3422 40.3353 32.0541C40.6953 32.7621 41.2092 33.31 41.8772 33.698ZM41.9536 28.6165C41.9744 28.2555 42.067 27.9215 42.2311 27.6146C42.4191 27.2666 42.6811 26.9867 43.017 26.7747C43.353 26.5587 43.743 26.4507 44.1869 26.4507C44.6029 26.4507 44.9668 26.5447 45.2788 26.7327C45.5948 26.9207 45.8407 27.1786 46.0167 27.5066C46.1927 27.8306 46.2827 28.2005 46.2867 28.6165H41.9536ZM0.754213 39.274V51.5608H2.97999V46.3413H8.6734V51.5608H10.9052V39.274H8.6734V44.4755H2.97999V39.274H0.754213ZM14.9098 51.1468C15.5697 51.5428 16.3496 51.7408 17.2495 51.7408C18.1494 51.7408 18.9294 51.5428 19.5893 51.1468C20.2492 50.7509 20.7592 50.1969 21.1191 49.485C21.4831 48.7731 21.6651 47.9411 21.6651 46.9892C21.6651 46.0373 21.4831 45.2034 21.1191 44.4875C20.7592 43.7716 20.2492 43.2156 19.5893 42.8197C18.9294 42.4237 18.1494 42.2257 17.2495 42.2257C16.3496 42.2257 15.5697 42.4237 14.9098 42.8197C14.2498 43.2156 13.7379 43.7716 13.3739 44.4875C13.014 45.2034 12.834 46.0373 12.834 46.9892C12.834 47.9411 13.014 48.7731 13.3739 49.485C13.7379 50.1969 14.2498 50.7509 14.9098 51.1468ZM18.4854 49.599C18.1574 49.8669 17.7495 50.0009 17.2615 50.0009C16.7616 50.0009 16.3456 49.8669 16.0137 49.599C15.6857 49.327 15.4397 48.963 15.2757 48.5071C15.1157 48.0511 15.0358 47.5432 15.0358 46.9832C15.0358 46.4193 15.1157 45.9093 15.2757 45.4534C15.4397 44.9934 15.6857 44.6275 16.0137 44.3555C16.3456 44.0835 16.7616 43.9475 17.2615 43.9475C17.7495 43.9475 18.1574 44.0835 18.4854 44.3555C18.8134 44.6275 19.0573 44.9934 19.2173 45.4534C19.3813 45.9093 19.4633 46.4193 19.4633 46.9832C19.4633 47.5432 19.3813 48.0511 19.2173 48.5071C19.0573 48.963 18.8134 49.327 18.4854 49.599ZM29.3818 42.3457V47.6852C29.3818 48.1531 29.2838 48.5431 29.0878 48.855C28.8958 49.163 28.6499 49.395 28.3499 49.551C28.0499 49.707 27.74 49.785 27.42 49.785C26.9 49.785 26.4801 49.613 26.1601 49.269C25.8401 48.925 25.6802 48.4611 25.6802 47.8771V42.3457H23.5084V48.2131C23.5084 48.949 23.6384 49.577 23.8983 50.0969C24.1583 50.6129 24.5183 51.0068 24.9782 51.2788C25.4422 51.5468 25.9761 51.6808 26.5801 51.6808C27.272 51.6808 27.8539 51.5168 28.3259 51.1888C28.8018 50.8608 29.1438 50.4389 29.3518 49.9229H29.4478V51.5608H31.5536V42.3457H29.3818ZM33.7868 42.3457V51.5608H35.9586V46.1433C35.9586 45.7514 36.0486 45.4054 36.2286 45.1054C36.4086 44.8055 36.6545 44.5715 36.9665 44.4035C37.2825 44.2315 37.6384 44.1455 38.0344 44.1455C38.2184 44.1455 38.4084 44.1595 38.6043 44.1875C38.8043 44.2115 38.9503 44.2395 39.0423 44.2715V42.2737C38.9423 42.2537 38.8163 42.2397 38.6643 42.2317C38.5163 42.2197 38.3824 42.2137 38.2624 42.2137C37.7344 42.2137 37.2645 42.3597 36.8525 42.6517C36.4446 42.9397 36.1566 43.3496 35.9886 43.8816H35.8926V42.3457H33.7868ZM45.7886 44.9974L47.7684 44.7815C47.6204 43.9975 47.2345 43.3756 46.6105 42.9157C45.9906 42.4557 45.1407 42.2257 44.0608 42.2257C43.3249 42.2257 42.6749 42.3417 42.111 42.5737C41.551 42.8017 41.1131 43.1256 40.7971 43.5456C40.4851 43.9615 40.3312 44.4535 40.3352 45.0214C40.3312 45.6934 40.5411 46.2493 40.9651 46.6893C41.389 47.1252 42.043 47.4352 42.9269 47.6192L44.4987 47.9491C44.9227 48.0411 45.2347 48.1731 45.4346 48.3451C45.6386 48.5171 45.7406 48.7351 45.7406 48.999C45.7406 49.311 45.5826 49.573 45.2667 49.785C44.9547 49.9969 44.5407 50.1029 44.0248 50.1029C43.5248 50.1029 43.1189 49.9969 42.8069 49.785C42.4949 49.573 42.291 49.259 42.195 48.843L40.0772 49.047C40.2092 49.8949 40.6191 50.5569 41.3071 51.0328C41.995 51.5048 42.9029 51.7408 44.0308 51.7408C44.7987 51.7408 45.4786 51.6168 46.0706 51.3688C46.6625 51.1208 47.1245 50.7768 47.4564 50.3369C47.7924 49.8929 47.9624 49.381 47.9664 48.8011C47.9624 48.1411 47.7464 47.6072 47.3184 47.1992C46.8945 46.7913 46.2466 46.4933 45.3746 46.3053L43.8028 45.9693C43.3349 45.8614 42.9989 45.7234 42.7949 45.5554C42.5949 45.3874 42.4969 45.1694 42.5009 44.9015C42.4969 44.5895 42.6469 44.3355 42.9509 44.1395C43.2589 43.9436 43.6388 43.8456 44.0908 43.8456C44.4267 43.8456 44.7107 43.8996 44.9427 44.0075C45.1747 44.1155 45.3586 44.2575 45.4946 44.4335C45.6346 44.6095 45.7326 44.7975 45.7886 44.9974Z" fill="#00131A"/>
<path fill-rule="evenodd" clip-rule="evenodd" d="M63.7393 36.0845C63.7393 31.5221 62.6999 27.2024 60.845 23.3494L62.0506 22.1438C64.1635 26.3348 65.3534 31.0707 65.3534 36.0845C65.3534 53.2105 51.47 67.0939 34.344 67.0939C25.1827 67.0939 16.9493 63.121 11.2726 56.8042C11.254 56.7779 11.2354 56.7515 11.2169 56.7252H13.4144C18.7467 62.1317 26.1534 65.4798 34.344 65.4798C50.5786 65.4798 63.7393 52.3191 63.7393 36.0845ZM34.344 6.68926C26.2962 6.68926 19.0051 9.92165 13.6952 15.1631H11.4555C17.1254 8.96354 25.2807 5.0752 34.344 5.0752C40.4101 5.0752 46.0694 6.81701 50.849 9.82777L49.6768 11C45.2128 8.26553 39.9625 6.68926 34.344 6.68926Z" fill="#00131A"/>
<path d="M61.1749 10.9171C58.5985 8.33134 54.4207 8.33134 51.8443 10.9171L47.6332 15.1433C47.3843 15.3934 47.3843 15.7961 47.6332 16.0462L51.8443 20.2725C54.4207 22.8582 58.5985 22.8582 61.1749 20.2767C63.7555 17.6952 63.7555 13.5029 61.1749 10.9171ZM60.1792 19.0347C58.2874 20.9337 55.2173 20.9337 53.3254 19.0347L50.2262 15.9275C50.0437 15.7453 50.0437 15.4485 50.2262 15.262L53.3212 12.1591C55.2131 10.2601 58.2832 10.2601 60.1751 12.1591C62.0711 14.0582 62.0711 17.1356 60.1792 19.0347Z" fill="#00131A"/>
<path d="M66.693 15.1475L64.8384 13.2527C64.7264 13.1382 64.5397 13.2442 64.5771 13.4011C64.8965 14.8465 64.8965 16.3556 64.5771 17.8011C64.5439 17.9579 64.7306 18.0597 64.8384 17.9494L66.693 16.0546C66.9377 15.8003 66.9377 15.3976 66.693 15.1475Z" fill="#00131A"/>
<path d="M56.7732 18.9202C58.5673 18.9202 60.0217 17.4342 60.0217 15.6011C60.0217 13.768 58.5673 12.282 56.7732 12.282C54.9791 12.282 53.5247 13.768 53.5247 15.6011C53.5247 17.4342 54.9791 18.9202 56.7732 18.9202Z" fill="#00131A"/>
</svg>
