<svg width="42" height="40" viewBox="0 0 42 40" fill="none" xmlns="http://www.w3.org/2000/svg">
<path fill-rule="evenodd" clip-rule="evenodd" d="M20.5059 0C9.17638 0 0 9.17638 0 20.5059C0 29.5797 5.86981 37.2438 14.0209 39.9608C15.0462 40.1403 15.4307 39.5251 15.4307 38.9868C15.4307 38.4998 15.405 36.8849 15.405 35.1676C10.2529 36.116 8.92006 33.9116 8.50994 32.7581C8.27925 32.1686 7.27959 30.3487 6.40809 29.8617C5.69038 29.4772 4.66509 28.5288 6.38245 28.5032C7.99729 28.4775 9.15075 29.9898 9.53523 30.605C11.3808 33.7065 14.3285 32.835 15.5076 32.2968C15.687 30.9639 16.2253 30.0667 16.8148 29.5541C12.2523 29.0414 7.48465 27.2728 7.48465 19.4293C7.48465 17.1993 8.27925 15.3538 9.5865 13.9184C9.38144 13.4057 8.66373 11.3039 9.79156 8.48431C9.79156 8.48431 11.5089 7.94603 15.4307 10.5862C17.0711 10.1248 18.8141 9.89408 20.5571 9.89408C22.3001 9.89408 24.0431 10.1248 25.6836 10.5862C29.6054 7.9204 31.3227 8.48431 31.3227 8.48431C32.4506 11.3039 31.7328 13.4057 31.5278 13.9184C32.835 15.3538 33.6296 17.1737 33.6296 19.4293C33.6296 27.2984 28.8364 29.0414 24.2738 29.5541C25.0172 30.1949 25.658 31.4253 25.658 33.3477C25.658 36.0903 25.6323 38.2947 25.6323 38.9868C25.6323 39.5251 26.0168 40.1659 27.0421 39.9608C35.1419 37.2438 41.0118 29.5541 41.0118 20.5059C41.0118 9.17638 31.8354 0 20.5059 0Z" fill="black"/>
</svg>
