<?xml version="1.0" encoding="UTF-8"?>
<svg width="1440px" height="480px" viewBox="0 0 1440 480" version="1.1" xmlns="http://www.w3.org/2000/svg" xmlns:xlink="http://www.w3.org/1999/xlink">
    <!-- Generator: Sketch 62 (91390) - https://sketch.com -->
    <title>hero</title>
    <desc>Created with Sketch.</desc>
    <defs>
        <linearGradient x1="50%" y1="50%" x2="37.5%" y2="100%" id="linearGradient-1">
            <stop stop-color="#FFFFFF" offset="0%"></stop>
            <stop stop-color="#FFFFFF" stop-opacity="0" offset="100%"></stop>
        </linearGradient>
        <linearGradient x1="50%" y1="50%" x2="0%" y2="52.4333218%" id="linearGradient-2">
            <stop stop-color="#FFFFFF" offset="0%"></stop>
            <stop stop-color="#FFFFFF" stop-opacity="0" offset="100%"></stop>
        </linearGradient>
        <linearGradient x1="50%" y1="50%" x2="49.9991319%" y2="100%" id="linearGradient-3">
            <stop stop-color="#FFFFFF" offset="0%"></stop>
            <stop stop-color="#FFFFFF" stop-opacity="0" offset="100%"></stop>
        </linearGradient>
    </defs>
    <g id="hero" stroke="none" stroke-width="1" fill="none" fill-rule="evenodd">
        <line x1="188" y1="470" x2="427.578947" y2="-10" id="Line-3" stroke="url(#linearGradient-1)" stroke-width="2" stroke-linecap="square"></line>
        <line x1="545.362637" y1="388.636364" x2="610.637363" y2="253.363636" id="Line-3" stroke="#FFFFFF" stroke-width="2" opacity="0.403018043" stroke-linecap="square" stroke-dasharray="2,8"></line>
        <line x1="570.366071" y1="284.637168" x2="610.633929" y2="203.362832" id="Line-3" stroke="#FFFFFF" stroke-width="2" opacity="0.403018043" stroke-linecap="square" stroke-dasharray="2,8"></line>
        <line x1="313.361111" y1="338.636986" x2="338.638889" y2="286.363014" id="Line-3" stroke="#FFFFFF" stroke-width="2" opacity="0.403018043" stroke-linecap="square" stroke-dasharray="2,8"></line>
        <line x1="0" y1="273" x2="892.578947" y2="470" id="Line-2" stroke="url(#linearGradient-2)" stroke-width="2" stroke-linecap="square"></line>
        <line x1="329" y1="190" x2="610" y2="253" id="Line-2" stroke="#FFFFFF" stroke-width="2" opacity="0.403018043" stroke-linecap="square" stroke-dasharray="2,8"></line>
        <line x1="286" y1="273" x2="570" y2="336" id="Line-2" stroke="#FFFFFF" stroke-width="2" opacity="0.403018043" stroke-linecap="square" stroke-dasharray="2,8"></line>
        <line x1="339" y1="239" x2="570" y2="284" id="Line-2" stroke="#FFFFFF" stroke-width="2" opacity="0.403018043" stroke-linecap="square" stroke-dasharray="2,8"></line>
        <line x1="258" y1="-10" x2="257.578947" y2="470" id="Line" stroke="url(#linearGradient-3)" stroke-width="2" stroke-linecap="square"></line>
        <line x1="339.5" y1="284" x2="340" y2="240" id="Path-2" stroke="#FFFFFF" stroke-width="2" opacity="0.403018043" stroke-linecap="square" stroke-dasharray="2,8" transform="translate(340.000000, 262.000000) rotate(-1.000000) translate(-340.000000, -262.000000) "></line>
        <line x1="570.5" y1="338" x2="570.5" y2="286" id="Path-2" stroke="#FFFFFF" stroke-width="2" opacity="0.403018043" stroke-linecap="square" stroke-dasharray="2,8"></line>
        <line x1="339" y1="240" x2="610" y2="203" id="Path-4" stroke="#FFFFFF" stroke-width="2" opacity="0.403018043" stroke-linecap="square" stroke-dasharray="2,8"></line>
        <line x1="339" y1="284" x2="611" y2="253" id="Path-4" stroke="#FFFFFF" stroke-width="2" opacity="0.8" stroke-linecap="square" stroke-dasharray="2,8"></line>
        <line x1="610.5" y1="53.3621908" x2="610" y2="253" id="Line-4" stroke="#FFFFFF" stroke-width="2" opacity="0.8" stroke-linecap="square" stroke-dasharray="2,8"></line>
        <line x1="257" y1="251" x2="337" y2="238" id="Path-4" stroke="#FFFFFF" stroke-width="2" opacity="0.403018043" stroke-linecap="square" stroke-dasharray="2,8"></line>
        <line x1="258" y1="108" x2="611" y2="48" id="Path-4" stroke="#FFFFFF" stroke-width="2" opacity="0.403018043" stroke-linecap="square" stroke-dasharray="2,8"></line>
        <text id="q'''" font-family="AGaramondPro-Italic, Adobe Garamond Pro" font-size="20" font-style="italic" font-weight="normal" fill="#FFFFFF">
            <tspan x="228.11" y="108">q'''</tspan>
        </text>
        <text id="p'''" font-family="AGaramondPro-Italic, Adobe Garamond Pro" font-size="20" font-style="italic" font-weight="normal" fill="#FFFFFF">
            <tspan x="228.28" y="255">p'''</tspan>
        </text>
        <text id="q" font-family="AGaramondPro-Italic, Adobe Garamond Pro" font-size="20" font-style="italic" font-weight="normal" fill="#FFFFFF">
            <tspan x="624.35" y="48">q</tspan>
        </text>
        <text id="p" font-family="AGaramondPro-Italic, Adobe Garamond Pro" font-size="20" font-style="italic" font-weight="normal" fill="#FFFFFF">
            <tspan x="322.02" y="230">p</tspan>
        </text>
        <text id="p'" font-family="AGaramondPro-Italic, Adobe Garamond Pro" font-size="20" font-style="italic" font-weight="normal" fill="#FFFFFF">
            <tspan x="296.94" y="360">p'</tspan>
        </text>
        <text id="p''" font-family="AGaramondPro-Italic, Adobe Garamond Pro" font-size="20" font-style="italic" font-weight="normal" fill="#FFFFFF">
            <tspan x="264.36" y="273">p''</tspan>
        </text>
        <text id="q''" font-family="AGaramondPro-Italic, Adobe Garamond Pro" font-size="20" font-style="italic" font-weight="normal" fill="#FFFFFF">
            <tspan x="305.19" y="194">q''</tspan>
        </text>
        <text id="q'" font-family="AGaramondPro-Italic, Adobe Garamond Pro" font-size="20" font-style="italic" font-weight="normal" fill="#FFFFFF">
            <tspan x="529.27" y="412">q'</tspan>
        </text>
        <path id="Path-3" d="M607.407591,44.3217648 C609.439024,42.8900167 612.246487,43.3761575 613.678235,45.4075907 C615.109983,47.4390239 614.623842,50.2464871 612.592409,51.6782352 C610.6992,53.0125637 608.131973,52.6811195 606.632453,50.9854996 L342.944189,236.832753 C344.0366,238.815041 343.485494,241.343994 341.592409,242.678235 C339.560976,244.109983 336.753513,243.623842 335.321765,241.592409 C333.890017,239.560976 334.376158,236.753513 336.407591,235.321765 C338.3008,233.987436 340.868027,234.318881 342.367547,236.0145 L606.055811,50.1672466 C604.9634,48.1849595 605.514506,45.6560056 607.407591,44.3217648 Z" fill="#FFFFFF" fill-rule="nonzero"></path>
        <g id="euclidean" transform="translate(437.400000, 148.000000) rotate(-36.000000) translate(-437.400000, -148.000000) translate(367.000000, 128.000000)" fill="#96DBFB">
            <g id="Group">
                <g transform="translate(70.400000, 20.000000) scale(-1, 1) rotate(-180.000000) translate(-70.400000, -20.000000) translate(0.000000, 0.000000)" fill-rule="nonzero">
                    <g id="E152-MJMATHI-64-link" transform="translate(0.000000, 17.649921)">
                        <path d="M4.44092709,9.19653799 C4.44981784,9.19653799 4.76988465,9.21865569 5.40112754,9.26289108 C6.03237043,9.30712647 6.35688262,9.33366771 6.37466411,9.34251479 C6.48135305,9.34251479 6.53469752,9.30712647 6.53469752,9.23634984 C6.53469752,9.1744203 6.21018533,7.83851146 5.56116095,5.22862333 C4.91213657,2.6187352 4.57873364,1.28724991 4.56095215,1.23416744 C4.54317066,1.18108497 4.53872528,1.11473188 4.54761603,1.03510817 C4.54761603,0.66353088 4.67208646,0.477742233 4.92102732,0.477742233 C5.00104402,0.486589312 5.08995147,0.526401165 5.18774966,0.597177792 C5.37445531,0.77411936 5.55671558,1.19877912 5.73453048,1.87115708 C5.78787495,2.04809865 5.83232867,2.14099297 5.86789165,2.14984005 C5.88567314,2.15868713 5.93012687,2.16311067 6.00125282,2.16311067 L6.05459729,2.16311067 L6.10794176,2.16311067 C6.24130294,2.16311067 6.30798352,2.12772235 6.30798352,2.05694573 C6.30798352,2.01271033 6.29464741,1.94193371 6.26797517,1.84461585 C6.15239549,1.40226193 6.01903431,1.04395525 5.86789165,0.76969582 C5.71674899,0.49543639 5.59227856,0.318494822 5.49448036,0.238871117 C5.39668217,0.159247411 5.27221174,0.088470784 5.12106908,0.0265412352 C5.04994312,0.0088470784 4.94325418,0 4.80100226,0 C4.49871693,0 4.2453307,0.066353088 4.04084357,0.199059264 C3.83635644,0.33176544 3.70299526,0.468895155 3.64076005,0.610448409 L3.56074334,0.809507673 C3.5518526,0.818354752 3.53407111,0.813931212 3.50739887,0.796237056 C3.48961738,0.778542899 3.47183589,0.760848742 3.4540544,0.743154585 C2.92950045,0.247718195 2.39605576,0 1.85372032,0 C1.36472935,0 0.933528217,0.176941568 0.56011693,0.530824704 C0.186705643,0.88470784 0,1.44649732 0,2.21619314 C0,2.6408529 0.0889074493,3.07435974 0.266722348,3.51671366 C0.444537246,3.95906758 0.657915125,4.33949195 0.906855982,4.65798678 C1.32472099,5.16227024 1.74258601,5.51172984 2.16045102,5.70636556 C2.57831603,5.90100129 2.95617269,5.99831915 3.294021,5.99831915 C3.79190271,5.99831915 4.165314,5.81253051 4.41425486,5.44095321 C4.45870858,5.38787074 4.48093544,5.37017659 4.48093544,5.38787074 C4.48982619,5.42325906 4.60985124,5.90542483 4.84101061,6.83436806 C5.07216998,7.76331129 5.19664041,8.25432414 5.2144219,8.30740661 C5.2144219,8.42241863 5.18330429,8.49319526 5.12106908,8.51973649 C5.05883386,8.54627773 4.88546434,8.56839543 4.6009605,8.58608958 L4.32090203,8.58608958 C4.26755756,8.63917205 4.24088533,8.67456037 4.24088533,8.69225452 C4.24088533,8.70994868 4.24977607,8.79399592 4.26755756,8.94439626 C4.31201129,9.11249075 4.36980113,9.19653799 4.44092709,9.19653799 Z M4.25422145,4.45892751 C4.04973431,5.1578467 3.71633138,5.5073063 3.25401264,5.5073063 C2.94283657,5.5073063 2.64499662,5.37017659 2.36049278,5.09591716 C2.07598894,4.82165773 1.85372032,4.46335105 1.69368691,4.02099713 C1.43585531,3.32207794 1.25359503,2.59661751 1.1469061,1.84461585 C1.1469061,1.81807461 1.1469061,1.76941568 1.1469061,1.69863905 C1.1469061,1.62786242 1.14246072,1.57477995 1.13356998,1.53939164 C1.13356998,1.14127311 1.21358668,0.867013683 1.37362009,0.71661335 C1.5336535,0.566213017 1.72480452,0.486589312 1.94707314,0.477742233 C2.42717336,0.477742233 2.92060971,0.796237056 3.42738217,1.4332267 L3.53407111,1.57920349 L4.25422145,4.45892751 Z" id="E152-MJMATHI-64"></path>
                    </g>
                    <g id="E152-MJMAIN-28-link" transform="translate(7.788293, 14.464973)">
                        <path d="M0,6.6353088 C0,7.24575721 0.0444537246,7.82524084 0.133361174,8.3737597 C0.222268623,8.92227856 0.32451219,9.39559726 0.440091874,9.79371578 C0.555671558,10.1918343 0.720150339,10.5811058 0.933528217,10.9615301 C1.1469061,11.3419545 1.31583025,11.6383316 1.44030068,11.8506615 C1.56477111,12.0629914 1.75147675,12.2930154 2.00041761,12.5407336 C2.24935847,12.7884518 2.39605576,12.9388522 2.44050948,12.9919346 C2.48496321,13.0450171 2.59609752,13.1379114 2.77391242,13.2706176 L2.94728194,13.2706176 L3.00062641,13.2706176 C3.12509684,13.2706176 3.18733206,13.2308057 3.18733206,13.151182 C3.18733206,13.1246408 3.11176072,13.0317465 2.96061806,12.8724991 C2.8094754,12.7132517 2.62721513,12.4788041 2.41383725,12.1691563 C2.20045937,11.8595086 1.98263612,11.4790842 1.7603675,11.0278832 C1.53809887,10.5766822 1.35139323,9.96623381 1.20025056,9.19653799 C1.0491079,8.42684217 0.973536569,7.57309911 0.973536569,6.6353088 C0.973536569,5.69751849 1.0491079,4.84819896 1.20025056,4.08735022 C1.35139323,3.32650148 1.5336535,2.71162953 1.74703138,2.24273437 C1.96040926,1.77383922 2.17823251,1.39341485 2.40050113,1.10146126 C2.62276975,0.809507673 2.8094754,0.575060096 2.96061806,0.398118528 C3.11176072,0.22117696 3.18733206,0.128282637 3.18733206,0.119435558 C3.18733206,0.0398118528 3.12065147,0 2.9872903,0 L2.94728194,0 L2.77391242,0 L2.40050113,0.318494822 C1.56477111,1.07049649 0.95575508,2.0082868 0.573453048,3.13186575 C0.191151016,4.25544471 0,5.42325906 0,6.6353088 Z" id="E152-MJMAIN-28"></path>
                    </g>
                    <g id="E152-MJMATHI-71-link" transform="translate(12.162539, 15.208128)">
                        <path d="M0,4.65798678 C0,5.55154169 0.337848307,6.40086122 1.01354492,7.20594535 C1.68924154,8.01102949 2.44940023,8.41799509 3.294021,8.42684217 C3.82746569,8.42684217 4.23643996,8.19681813 4.52094379,7.73677006 C4.52983454,7.74561714 4.5520614,7.77215837 4.58762438,7.81639376 C4.62318736,7.86062915 4.67208646,7.90928809 4.73432167,7.96237056 C4.79655689,8.01545303 4.86768285,8.0685355 4.94769955,8.12161797 C5.24998488,8.33394785 5.45447201,8.44011279 5.56116095,8.44011279 C5.59672393,8.44011279 5.62784154,8.42684217 5.65451377,8.40030094 C5.68118601,8.3737597 5.69452213,8.35164201 5.69452213,8.33394785 C5.69452213,8.25432414 5.38779143,6.99361547 4.77433003,4.55182183 C4.14308714,2.03925157 3.82746569,0.765272281 3.82746569,0.729883968 C3.82746569,0.65910734 4.02750745,0.619295488 4.42759097,0.610448409 L4.76099391,0.610448409 C4.81433838,0.539671782 4.84101061,0.499859929 4.84101061,0.491012851 C4.84101061,0.482165773 4.82767449,0.402542067 4.80100226,0.252141734 C4.76543928,0.137129715 4.72098556,0.0530824704 4.66764109,0 L4.49427156,0 C4.21865847,0.0176941568 3.73855824,0.0265412352 3.05397088,0.0265412352 C2.80503002,0.0265412352 2.57831603,0.0265412352 2.3738289,0.0265412352 C2.16934176,0.0265412352 2.00486298,0.0265412352 1.88039255,0.0265412352 C1.75592212,0.0265412352 1.68035079,0.022117696 1.65367856,0.0132706176 C1.52920813,0.0132706176 1.46697291,0.0486589312 1.46697291,0.119435558 C1.46697291,0.145976794 1.47586366,0.212329881 1.49364515,0.318494822 C1.52920813,0.460048077 1.56032573,0.544095321 1.58699797,0.570636556 C1.6136702,0.597177792 1.70257765,0.610448409 1.85372032,0.610448409 C2.28047607,0.610448409 2.53830768,0.641413184 2.62721513,0.703342732 C2.69834108,0.747578124 2.82281151,1.13684957 3.00062641,1.87115708 C3.17844131,2.60546459 3.27179413,2.98146542 3.28068488,2.99915958 C3.28068488,3.00800665 3.24956727,2.99473604 3.18733206,2.95934772 C2.7605763,2.61431167 2.31603905,2.44179364 1.85372032,2.44179364 C1.36472935,2.44179364 0.933528217,2.6187352 0.56011693,2.97261834 C0.186705643,3.32650148 0,3.88829095 0,4.65798678 Z M4.25422145,6.90072115 C4.04973431,7.59964034 3.71633138,7.94909994 3.25401264,7.94909994 C2.94283657,7.94909994 2.64499662,7.81197022 2.36049278,7.53771079 C2.07598894,7.26345136 1.85372032,6.90514469 1.69368691,6.46279077 C1.43585531,5.76387157 1.25359503,5.03841115 1.1469061,4.28640948 C1.1469061,4.25986825 1.1469061,4.21120932 1.1469061,4.14043269 C1.1469061,4.06965606 1.14246072,4.01657359 1.13356998,3.98118528 C1.13356998,3.58306675 1.21358668,3.30880732 1.37362009,3.15840699 C1.5336535,3.00800665 1.72480452,2.92838295 1.94707314,2.91953587 C2.42717336,2.91953587 2.92060971,3.23803069 3.42738217,3.87502034 L3.53407111,4.02099713 L4.25422145,6.90072115 Z" id="E152-MJMATHI-71"></path>
                    </g>
                    <g id="E152-MJMAIN-2C-link" transform="translate(18.897278, 15.194857)">
                        <path d="M0,3.05224205 C0,3.05224205 0,3.16283053 0,3.38400749 C0,3.60518445 0.0711259594,3.79539663 0.213377878,3.95464404 C0.355629797,4.11389145 0.546780813,4.19351516 0.786830926,4.19351516 C1.03577178,4.19351516 1.25804041,4.08292668 1.4536368,3.86174972 C1.64923318,3.64057276 1.75147675,3.25130131 1.7603675,2.69393537 C1.7603675,2.38428763 1.72035914,2.08348696 1.64034244,1.79153338 C1.56032573,1.49957979 1.46697291,1.24743805 1.36028397,1.03510817 C1.25359503,0.822778291 1.13801535,0.641413184 1.01354492,0.491012851 C0.889074493,0.340612518 0.782385553,0.22117696 0.693478104,0.132706176 C0.604570655,0.044235392 0.546780813,0.0044235392 0.520108578,0.0132706176 C0.484545598,0.0132706176 0.426755756,0.0530824704 0.346739052,0.132706176 C0.266722348,0.212329881 0.226713996,0.269835891 0.226713996,0.305224205 C0.226713996,0.340612518 0.275613093,0.411389145 0.373411287,0.517554086 C0.471209481,0.623719027 0.582343793,0.756425203 0.706814222,0.915672614 C0.831284651,1.07492003 0.946864335,1.29609698 1.05355327,1.57920349 C1.16024221,1.86231 1.23136817,2.18522836 1.26693115,2.54795858 L1.26693115,2.70720599 L1.25359503,2.69393537 C1.23581354,2.68508829 1.21358668,2.67624121 1.18691445,2.66739414 C1.16024221,2.65854706 1.13356998,2.64527644 1.10689774,2.62758228 C1.08022551,2.60988813 1.04021716,2.60104105 0.986872687,2.60104105 C0.933528217,2.60104105 0.880183748,2.59661751 0.826839278,2.58777043 C0.586789165,2.58777043 0.391192777,2.6629706 0.240050113,2.81337093 L0,3.05224205 Z" id="E152-MJMAIN-2C"></path>
                    </g>
                    <g id="E152-MJMATHI-70-link" transform="translate(23.258189, 15.208128)">
                        <path d="M0.826839278,6.38316706 C0.835730023,6.4097083 0.844620768,6.44509661 0.853511513,6.489332 C0.862402258,6.53356739 0.88462912,6.63088526 0.9201921,6.78128559 C0.95575508,6.93168592 1.0002088,7.06881564 1.05355327,7.19267474 C1.10689774,7.31653383 1.17357833,7.46251063 1.25359503,7.63060512 C1.33361174,7.79869961 1.42251919,7.93140578 1.52031738,8.02872364 C1.61811558,8.12604151 1.73369526,8.22335937 1.86705643,8.32067723 C2.00041761,8.41799509 2.1471149,8.45780695 2.30714831,8.44011279 C2.97395418,8.44011279 3.40070993,8.15700628 3.58741558,7.59079326 L3.72077675,7.71022882 C4.27200294,8.19681813 4.79655689,8.44011279 5.2944386,8.44011279 C5.87233702,8.44011279 6.32576501,8.23220645 6.65472258,7.81639376 C6.98368014,7.40058108 7.14815892,6.89629761 7.14815892,6.30354336 C7.14815892,5.34805889 6.81031061,4.46777459 6.134614,3.66269046 C5.45891738,2.85760632 4.69431332,2.45064072 3.84080181,2.44179364 C3.64520542,2.44179364 3.47183589,2.46833487 3.32069323,2.52141734 C3.22289504,2.56565273 3.12065147,2.63200582 3.01396253,2.72047661 C2.90727359,2.80894739 2.82281151,2.88414756 2.7605763,2.94607711 L2.66722348,3.05224205 C2.65833273,3.04339497 2.56053454,2.65854706 2.3738289,1.89769832 C2.18712325,1.13684957 2.09377043,0.752001664 2.09377043,0.743154585 C2.09377043,0.690072115 2.12933341,0.65910734 2.20045937,0.650260262 C2.27158533,0.641413184 2.43606411,0.628142566 2.69389571,0.610448409 L3.02729865,0.610448409 C3.08064312,0.548518861 3.10731535,0.508707008 3.10731535,0.491012851 C3.10731535,0.473318694 3.09397923,0.393694989 3.067307,0.252141734 C3.04063476,0.145976794 3.01396253,0.0796237056 2.9872903,0.0530824704 C2.96061806,0.0265412352 2.90282822,0.0088470784 2.81392077,0 C2.79613928,0 2.74724018,0 2.66722348,0 C2.58720677,0 2.43606411,0.0044235392 2.21379549,0.0132706176 C1.99152686,0.022117696 1.71591377,0.0265412352 1.38695621,0.0265412352 C0.764604064,0.0265412352 0.368965914,0.0176941568 0.200041761,0 L0.0933528217,0 C0.0311176072,0.0619295488 0,0.11058848 0,0.145976794 C0.0177814899,0.38484791 0.0755713319,0.539671782 0.173369526,0.610448409 L0.440091874,0.610448409 C0.742377201,0.619295488 0.915746727,0.672377958 0.960200452,0.76969582 C0.986872687,0.822778291 1.25804041,1.88000416 1.77370361,3.94137343 C2.28936682,6.00274269 2.56053454,7.09535687 2.58720677,7.21921597 C2.59609752,7.26345136 2.60054289,7.32538091 2.60054289,7.40500462 C2.60054289,7.76773483 2.48940858,7.94909994 2.26713996,7.94909994 C2.07154357,7.94909994 1.90706479,7.82524084 1.77370361,7.57752265 C1.64034244,7.32980445 1.53809887,7.05996856 1.46697291,6.76801497 C1.39584695,6.47606139 1.34250248,6.31681397 1.3069395,6.29027274 C1.28915801,6.27257858 1.21803205,6.2637315 1.09356163,6.2637315 L0.906855982,6.2637315 C0.853511513,6.31681397 0.826839278,6.35662583 0.826839278,6.38316706 Z M2.89393747,3.92810281 C3.08953386,3.25572485 3.41849142,2.91953587 3.88081016,2.91953587 C4.14753251,2.91953587 4.40536411,3.02127727 4.65430497,3.22476008 C4.90324583,3.42824288 5.10773296,3.68480815 5.26776637,3.9944559 C5.42779978,4.29525656 5.58783319,4.77299879 5.74786659,5.4276826 C5.9079,6.0823664 5.99236208,6.56895571 6.00125282,6.88745053 L6.00125282,6.96707424 C6.00125282,7.62175804 5.7300851,7.94909994 5.18774966,7.94909994 C5.08995147,7.94909994 4.99215328,7.93582932 4.89435508,7.90928809 C4.79655689,7.88274685 4.69875869,7.842935 4.6009605,7.78985253 C4.5031623,7.73677006 4.41425486,7.67926405 4.33423815,7.6173345 C4.25422145,7.55540495 4.17865012,7.48905186 4.10752416,7.41827523 C4.0363982,7.34749861 3.96971761,7.28114552 3.90748239,7.21921597 C3.84524718,7.15728642 3.79634808,7.09535687 3.7607851,7.03342732 C3.72522212,6.97149778 3.68965914,6.92726238 3.65409616,6.90072115 L3.61408781,6.84763868 C3.61408781,6.8387916 3.60075169,6.77686205 3.57407946,6.66185003 C3.54740723,6.54683801 3.49850813,6.35220229 3.42738217,6.07794286 C3.35625621,5.80368343 3.294021,5.57365939 3.24067653,5.38787074 C3.00951716,4.45008043 2.89393747,3.96349112 2.89393747,3.92810281 Z" id="E152-MJMATHI-70"></path>
                    </g>
                    <g id="E152-MJMAIN-29-link" transform="translate(31.219851, 14.464973)">
                        <path d="M0.0666805869,13.257347 L0.120025056,13.2706176 C0.164478781,13.2706176 0.208932506,13.2706176 0.25338623,13.2706176 L0.413419639,13.2706176 L0.786830926,12.9521228 C1.62256095,12.2001211 2.23157698,11.2623308 2.61387901,10.1387518 C2.99618104,9.01517288 3.18733206,7.84735854 3.18733206,6.6353088 C3.18733206,6.03370747 3.14287833,5.45422383 3.05397088,4.89685789 C2.96506343,4.33949195 2.86281987,3.86617326 2.74724018,3.47690181 C2.6316605,3.08763036 2.46718172,2.69835891 2.25380384,2.30908746 C2.04042596,1.91981601 1.87150181,1.62343889 1.74703138,1.41995608 C1.62256095,1.21647328 1.44030068,0.99087278 1.20025056,0.743154585 C0.960200452,0.49543639 0.817948533,0.349459597 0.773494809,0.305224205 C0.729041084,0.260988813 0.626797517,0.176941568 0.466764109,0.0530824704 C0.440091874,0.0265412352 0.422310384,0.0088470784 0.413419639,0 L0.25338623,0 C0.182260271,0 0.133361174,0 0.106688939,0 C0.0800167043,0 0.057789842,0.0132706176 0.0400083522,0.0398118528 C0.0222268623,0.066353088 0.00889074493,0.106164941 0,0.159247411 C0.00889074493,0.16809449 0.057789842,0.225600499 0.146697291,0.33176544 C1.52476275,1.75614506 2.21379549,3.85732618 2.21379549,6.6353088 C2.21379549,9.41329141 1.52476275,11.5144725 0.146697291,12.9388522 C0.057789842,13.0450171 0.00889074493,13.1025231 0,13.1113702 C0,13.1821468 0.0222268623,13.2308057 0.0666805869,13.257347 Z" id="E152-MJMAIN-29"></path>
                    </g>
                    <g id="E152-MJMAIN-3D-link" transform="translate(40.128377, 19.547620)">
                        <path d="M0,2.86018867 C0,2.98398718 0.0622352145,3.07921679 0.186705643,3.14587753 L8.68181242,3.14587753 C8.81517359,3.06969383 8.88185418,2.97446421 8.88185418,2.86018867 C8.88185418,2.75543609 8.81961897,2.66496795 8.69514854,2.58878426 L4.45426321,2.57449981 L0.213377878,2.57449981 C0.0711259594,2.62211462 0,2.71734424 0,2.86018867 Z M0,0.285688857 C0,0.428533286 0.0711259594,0.523762905 0.213377878,0.571377714 L8.69514854,0.571377714 C8.81961897,0.476148095 8.88185418,0.380918476 8.88185418,0.285688857 C8.88185418,0.161890352 8.81517359,0.0666607334 8.68181242,0 L0.186705643,0 C0.0622352145,0.0666607334 0,0.161890352 0,0.285688857 Z" id="E152-MJMAIN-3D"></path>
                    </g>
                    <g transform="translate(54.944804, 0.000000)">
                        <g id="E152-MJSZ4-221A-link">
                            <path d="M11.6290944,39.665876 C11.6735481,39.7631938 11.7535648,39.8118528 11.8691445,39.8118528 C11.9313797,39.8118528 11.9847242,39.7897351 12.0291779,39.7454997 C12.0736316,39.7012643 12.1047492,39.6481818 12.1225307,39.5862523 C12.1225307,39.5243227 10.8867172,32.9376729 8.41509007,19.8263027 C5.94346298,6.7149325 4.68986795,0.145976794 4.65430497,0.119435558 C4.63652348,0.0398118528 4.54317066,0 4.3742465,0 L4.33423815,0 C4.22754921,0 4.17420474,0.0088470784 4.17420474,0.0265412352 L3.9874991,1.11473188 C3.85413793,1.84903938 3.66298691,2.93723003 3.41404605,4.37930381 C3.16510519,5.82137758 2.92060971,7.23248659 2.6805596,8.61263082 L1.20025056,17.1721792 L0.346739052,15.4868107 L0,15.8318468 L1.01354492,17.8622513 L2.04042596,19.8661145 C2.04931671,19.8572675 2.51608081,17.1854498 3.44071829,11.8506615 C4.33868352,6.53356739 4.80100226,3.85290264 4.82767449,3.80866725 L8.21504831,21.6841891 C10.455516,33.5835096 11.5935314,39.5774052 11.6290944,39.665876 Z" id="E152-MJSZ4-221A"></path>
                        </g>
                        <rect id="Rectangle" x="11.8558084" y="39.0156157" width="73.8020736" height="1"></rect>
                        <g transform="translate(12.589295, 3.238031)">
                            <g id="E152-MJSZ2-2211-link" transform="translate(0.000000, 8.572819)">
                                <path d="M0.0666805869,18.5523234 C0.0933528217,18.5700176 2.78280316,18.5788646 8.13503161,18.5788646 L16.1633743,18.5788646 L16.9368691,16.7873313 C17.461423,15.5664344 17.7414815,14.9205977 17.7770445,14.8498211 L17.2435998,14.8498211 L17.150247,15.0356097 C16.9635413,15.3983399 16.7146005,15.743376 16.4034244,16.0707179 C15.9588871,16.4953777 15.4654508,16.8359902 14.9231154,17.0925555 C14.3807799,17.3491207 13.7539824,17.5393329 13.0427228,17.663192 C12.3314632,17.7870511 11.660212,17.8622513 11.0289691,17.8887925 C10.3977262,17.9153338 9.58422303,17.9330279 8.5884596,17.941875 L6.92144492,17.941875 L6.50802529,17.941875 L2.61387901,17.941875 L2.72056795,17.7958982 C6.83698285,12.1956976 8.90408104,9.36905602 8.92186253,9.31597355 C8.93075328,9.29827939 8.93075328,9.27173816 8.92186253,9.23634984 C8.8951903,9.20980861 7.72161197,7.87389977 5.40112754,5.22862333 L1.88039255,1.24743805 C1.88039255,1.23859098 2.81836614,1.23416744 4.69431332,1.23416744 C5.15663206,1.23416744 5.78342957,1.23416744 6.57470587,1.23416744 C7.36598217,1.23416744 7.93498985,1.2297439 8.2817289,1.22089682 C9.49087021,1.22089682 10.4688522,1.24301451 11.2156747,1.28724991 C11.9624973,1.3314853 12.7048745,1.42437962 13.4428063,1.56593288 C14.1807382,1.70748613 14.8075357,1.92423955 15.3231989,2.21619314 C15.8388621,2.50814673 16.2967354,2.89299464 16.696819,3.37073687 C16.8835246,3.60076091 17.0657849,3.91925573 17.2435998,4.32622134 L17.7770445,4.32622134 C17.7770445,4.31737426 17.7459269,4.22447993 17.6836917,4.04753837 C17.6214564,3.8705968 17.5103221,3.58306675 17.3502887,3.18494822 C17.1902553,2.78682969 17.0524488,2.4152524 16.9368691,2.07021634 L16.1633743,0.0132706176 L8.14836772,0 C2.79613928,0 0.106688939,0.0088470784 0.0800167043,0.0265412352 C0.0266722348,0.044235392 0,0.0840472448 0,0.145976794 C0,0.16367095 0.00889074493,0.190212185 0.0266722348,0.225600499 L7.1348228,8.32067723 C7.1348228,8.32952431 6.98812551,8.52858357 6.69473093,8.91785502 C6.40133635,9.30712647 5.93457224,9.94411612 5.2944386,10.828824 C4.65430497,11.7135318 4.07640655,12.5009218 3.56074334,13.1909939 L0.0133361174,18.0347693 L0,18.2338286 C0,18.4196172 0.0222268623,18.5257822 0.0666805869,18.5523234 Z" id="E152-MJSZ2-2211"></path>
                            </g>
                            <g transform="translate(1.426965, 0.000000)">
                                <g id="E152-MJMATHI-69-link" transform="translate(0.011296, 0.002959)">
                                    <path d="M1.5368675,5.73260158 C1.5368675,5.8827188 1.59658219,6.01407138 1.71601157,6.12665929 C1.83544095,6.23924721 1.97372759,6.29866862 2.13087151,6.3049235 C2.24401513,6.3049235 2.33830148,6.26739419 2.41373056,6.19233558 C2.48915964,6.11727697 2.53001706,6.0234537 2.53630281,5.91086578 C2.53630281,5.76700344 2.47344525,5.63565087 2.34773011,5.51680806 C2.22201498,5.39796526 2.08372833,5.33541641 1.93287017,5.32916153 C1.83858382,5.32916153 1.75058323,5.36043595 1.66886839,5.4229848 C1.58715356,5.48553364 1.54315326,5.58873923 1.5368675,5.73260158 Z M0,2.79593334 C0,2.84597241 0.028285905,2.94292312 0.0848577149,3.08678546 C0.141429525,3.23064781 0.216858605,3.39014736 0.311144955,3.56528412 C0.405431305,3.74042089 0.543717951,3.89992044 0.726004895,4.04378278 C0.908291838,4.18764512 1.09686454,4.25644885 1.29172299,4.25019397 C1.5368675,4.25019397 1.7411546,4.1782628 1.90458427,4.03440045 C2.06801394,3.89053811 2.15287166,3.6966367 2.15915741,3.4526962 C2.15915741,3.34636317 2.11515712,3.1712264 2.02715652,2.92728591 C1.93915593,2.68334542 1.8134408,2.35496399 1.65001112,1.94214161 C1.48658145,1.52931924 1.35458056,1.17591827 1.25400845,0.881938704 C1.22257967,0.744331247 1.20686528,0.644253096 1.20686528,0.581704252 C1.20686528,0.425332141 1.26029421,0.347146086 1.36715207,0.347146086 C1.42372388,0.347146086 1.48343857,0.356528412 1.54629614,0.375293066 C1.60915371,0.394057719 1.68143991,0.43784191 1.76315474,0.506645638 C1.84486958,0.575449367 1.9297273,0.684909845 2.01772789,0.835027071 C2.10572848,0.985144297 2.18430044,1.16966339 2.25344376,1.38858434 C2.27230103,1.46364296 2.28801543,1.50742715 2.30058694,1.51993692 C2.31315845,1.53244668 2.36658738,1.53870157 2.46087373,1.53870157 C2.58658887,1.53870157 2.64944643,1.50742715 2.64944643,1.4448783 C2.64944643,1.39483923 2.62116053,1.29788852 2.56458872,1.15402618 C2.50801691,1.01016383 2.42944495,0.850664282 2.32887284,0.675527518 C2.22830074,0.500390754 2.08687121,0.344018643 1.90458427,0.206411186 C1.72229733,0.0688037287 1.52743887,0 1.3200089,0 C1.11886469,0 0.933434864,0.0656762865 0.763719435,0.197028859 C0.594004005,0.328381432 0.506003411,0.528537734 0.499717655,0.797497764 C0.499717655,0.903830799 0.515432046,1.00390895 0.54686083,1.09773222 C0.578289613,1.19155548 0.713433381,1.5480839 0.952292134,2.16731745 C1.19115089,2.79906078 1.32943753,3.17748129 1.36715207,3.30257898 C1.40486661,3.42767667 1.42686676,3.54964691 1.43315252,3.66848972 C1.43315252,3.81860694 1.37972359,3.89366555 1.27286572,3.89366555 L1.25400845,3.89366555 C1.06543575,3.89366555 0.892577446,3.79045996 0.73543353,3.58404878 C0.578289613,3.37763759 0.458860236,3.11493244 0.3771454,2.79593334 C0.370859643,2.78967845 0.364573886,2.78029613 0.35828813,2.76778636 C0.352002373,2.75527659 0.348859495,2.74589426 0.348859495,2.73963938 C0.348859495,2.73338449 0.342573738,2.72712961 0.330002225,2.72087473 C0.317430711,2.71461984 0.308002076,2.7114924 0.30171632,2.7114924 C0.295430563,2.7114924 0.28285905,2.7114924 0.26400178,2.7114924 C0.24514451,2.7114924 0.220001483,2.7114924 0.1885727,2.7114924 L0.05657181,2.7114924 C0.01885727,2.7490217 0,2.77716868 0,2.79593334 Z" id="E152-MJMATHI-69"></path>
                                </g>
                                <g id="E152-MJMAIN-3D-link" transform="translate(3.594177, 1.354014)">
                                    <path d="M0,2.10586023 C0,2.22965873 0.0440002966,2.32488835 0.13200089,2.39154908 L6.13804138,2.39154908 C6.23232773,2.31536539 6.27947091,2.22013577 6.27947091,2.10586023 C6.27947091,2.00110764 6.23547061,1.91063951 6.14747002,1.83445581 L3.14916409,1.82017137 L0.15085816,1.82017137 C0.0502860533,1.86778618 0,1.9630158 0,2.10586023 Z M0,0.285688857 C0,0.428533286 0.0502860533,0.523762905 0.15085816,0.571377714 L6.14747002,0.571377714 C6.23547061,0.476148095 6.27947091,0.380918476 6.27947091,0.285688857 C6.27947091,0.161890352 6.23232773,0.0666607334 6.13804138,0 L0.13200089,0 C0.0440002966,0.0666607334 0,0.161890352 0,0.285688857 Z" id="E152-MJMAIN-3D"></path>
                                </g>
                                <g id="E152-MJMAIN-31-link" transform="translate(11.184228, 0.106165)">
                                    <path d="M1.22572255,5.4229848 L1.10315029,5.37607316 C1.0151497,5.34479874 0.889434568,5.31352432 0.726004895,5.2822499 C0.562575221,5.25097548 0.380288278,5.22908338 0.179144065,5.21657361 L0,5.21657361 L0,5.64816064 L0.179144065,5.64816064 C0.474574628,5.66067041 0.748005043,5.70758204 0.999435309,5.78889554 C1.25086558,5.87020903 1.42686676,5.94526765 1.52743887,6.01407138 C1.62801098,6.0828751 1.71601157,6.15167883 1.79144065,6.22048256 C1.80401216,6.23924721 1.8417267,6.24862954 1.90458427,6.24862954 C1.96115608,6.24862954 2.01458501,6.22986489 2.06487106,6.19233558 L2.06487106,3.38701992 L2.0742997,0.572321925 C2.1183,0.528537734 2.15601454,0.500390754 2.18744332,0.487880985 C2.2188721,0.475371216 2.29430118,0.462861447 2.41373056,0.450351679 C2.53315994,0.43784191 2.72801839,0.431587025 2.99830593,0.431587025 L3.24345044,0.431587025 L3.24345044,0 L3.13973545,0 C3.00773456,0.0187646533 2.50801691,0.0281469799 1.64058249,0.0281469799 C0.785719583,0.0281469799 0.292287685,0.0187646533 0.160286795,0 L0.047143175,0 L0.047143175,0.431587025 L0.292287685,0.431587025 C0.430574331,0.431587025 0.550003708,0.431587025 0.650575815,0.431587025 C0.751147921,0.431587025 0.829719879,0.434714468 0.886291689,0.440969352 C0.942863499,0.447224236 0.993149553,0.456606563 1.03714985,0.469116332 C1.08115015,0.481626101 1.10629317,0.487880985 1.11257893,0.487880985 C1.11886469,0.487880985 1.13772196,0.503518196 1.16915074,0.534792618 C1.20057952,0.566067041 1.21943679,0.578576809 1.22572255,0.572321925 L1.22572255,5.4229848 Z" id="E152-MJMAIN-31"></path>
                                </g>
                            </g>
                            <g id="E152-MJMATHI-6E-link" transform="translate(6.262561, 29.697054)">
                                <path d="M0,2.79593334 C0.00628575666,2.83346264 0.0157143917,2.88350172 0.028285905,2.94605056 C0.0408574183,3.00859941 0.0785719583,3.12744221 0.141429525,3.30257898 C0.204287092,3.47771574 0.267144658,3.62470552 0.330002225,3.74354833 C0.392859791,3.86239113 0.496574776,3.97810649 0.64114718,4.09069441 C0.785719583,4.20328233 0.930291986,4.25644885 1.07486439,4.25019397 C1.30115163,4.25019397 1.48972433,4.19390001 1.64058249,4.08131209 C1.79144065,3.96872417 1.885727,3.86239113 1.92344154,3.76231298 C1.96115608,3.66223483 1.98001335,3.59655854 1.98001335,3.56528412 C1.98001335,3.55277435 1.98315623,3.54651947 1.98944198,3.54651947 L2.09315697,3.64972506 C2.47658813,4.05003767 2.91344821,4.25019397 3.40373723,4.25019397 C3.74316809,4.25019397 4.01659851,4.16575303 4.22402848,3.99687115 C4.43145845,3.82798927 4.53831631,3.58092133 4.54460207,3.25566734 C4.55088782,2.93041335 4.43145845,2.43940493 4.18631394,1.78264206 C3.94116943,1.1258792 3.82174005,0.728694036 3.82802581,0.591086578 C3.82802581,0.428459583 3.88145474,0.347146086 3.9883126,0.347146086 C4.02602714,0.347146086 4.05431305,0.350273528 4.07317032,0.356528412 C4.25545726,0.387802834 4.41888693,0.506645638 4.56345934,0.713056824 C4.70803174,0.919468011 4.81803248,1.16966339 4.89346156,1.46364296 C4.90603308,1.51368203 4.96889064,1.53870157 5.08203426,1.53870157 C5.20774939,1.53870157 5.27060696,1.51368203 5.27060696,1.46364296 C5.27060696,1.45738807 5.25803545,1.41047644 5.23289242,1.32290806 C5.18260637,1.14151641 5.11346305,0.963252202 5.02546245,0.788115438 C4.93746186,0.612978674 4.79288946,0.43784191 4.59174524,0.262705146 C4.39060103,0.087568382 4.17374242,0.00312744221 3.94116943,0.00938232664 C3.64573886,0.00938232664 3.43202314,0.0938232664 3.30002225,0.262705146 C3.16802136,0.431587025 3.10202091,0.606723789 3.10202091,0.788115438 C3.10202091,0.906958242 3.21516453,1.28225131 3.44145177,1.91399463 C3.66773901,2.54573796 3.78402551,3.02110918 3.79031127,3.34010828 C3.79031127,3.70914646 3.65202462,3.89366555 3.37545133,3.89366555 L3.32830815,3.89366555 C2.78773308,3.89366555 2.33201572,3.57779389 1.96115608,2.94605056 L1.89515563,2.83346264 L1.58401068,1.57623088 C1.37658071,0.756841015 1.25715133,0.315871663 1.22572255,0.253322819 C1.14400771,0.0844409397 1.00886394,0 0.820291244,0 C0.738576408,0 0.672575963,0.0187646533 0.62228991,0.0562939598 C0.572003856,0.0938232664 0.537432195,0.131352573 0.518574925,0.168881879 C0.499717655,0.206411186 0.493431898,0.237685608 0.499717655,0.262705146 C0.499717655,0.344018643 0.619147031,0.853791724 0.858005784,1.79202439 C1.09686454,2.73025705 1.22257967,3.24003013 1.23515118,3.32134363 C1.24143694,3.35261805 1.24457982,3.42454922 1.24457982,3.53713714 C1.24457982,3.78107764 1.16915074,3.90304788 1.01829258,3.90304788 C0.779433826,3.90304788 0.581432491,3.59030366 0.424288575,2.96481522 C0.386574035,2.83971753 0.367716765,2.77404124 0.367716765,2.76778636 C0.355145251,2.73025705 0.295430563,2.7114924 0.1885727,2.7114924 L0.05657181,2.7114924 C0.01885727,2.7490217 0,2.77716868 0,2.79593334 Z" id="E152-MJMATHI-6E"></path>
                            </g>
                            <g id="E152-MJMAIN-28-link" transform="translate(19.777462, 11.226942)">
                                <path d="M0,6.6353088 C0,7.24575721 0.0444537246,7.82524084 0.133361174,8.3737597 C0.222268623,8.92227856 0.32451219,9.39559726 0.440091874,9.79371578 C0.555671558,10.1918343 0.720150339,10.5811058 0.933528217,10.9615301 C1.1469061,11.3419545 1.31583025,11.6383316 1.44030068,11.8506615 C1.56477111,12.0629914 1.75147675,12.2930154 2.00041761,12.5407336 C2.24935847,12.7884518 2.39605576,12.9388522 2.44050948,12.9919346 C2.48496321,13.0450171 2.59609752,13.1379114 2.77391242,13.2706176 L2.94728194,13.2706176 L3.00062641,13.2706176 C3.12509684,13.2706176 3.18733206,13.2308057 3.18733206,13.151182 C3.18733206,13.1246408 3.11176072,13.0317465 2.96061806,12.8724991 C2.8094754,12.7132517 2.62721513,12.4788041 2.41383725,12.1691563 C2.20045937,11.8595086 1.98263612,11.4790842 1.7603675,11.0278832 C1.53809887,10.5766822 1.35139323,9.96623381 1.20025056,9.19653799 C1.0491079,8.42684217 0.973536569,7.57309911 0.973536569,6.6353088 C0.973536569,5.69751849 1.0491079,4.84819896 1.20025056,4.08735022 C1.35139323,3.32650148 1.5336535,2.71162953 1.74703138,2.24273437 C1.96040926,1.77383922 2.17823251,1.39341485 2.40050113,1.10146126 C2.62276975,0.809507673 2.8094754,0.575060096 2.96061806,0.398118528 C3.11176072,0.22117696 3.18733206,0.128282637 3.18733206,0.119435558 C3.18733206,0.0398118528 3.12065147,0 2.9872903,0 L2.94728194,0 L2.77391242,0 L2.40050113,0.318494822 C1.56477111,1.07049649 0.95575508,2.0082868 0.573453048,3.13186575 C0.191151016,4.25544471 0,5.42325906 0,6.6353088 Z" id="E152-MJMAIN-28"></path>
                            </g>
                            <g transform="translate(24.151709, 11.970097)">
                                <g id="E152-MJMATHI-71-link">
                                    <path d="M0,4.65798678 C0,5.55154169 0.337848307,6.40086122 1.01354492,7.20594535 C1.68924154,8.01102949 2.44940023,8.41799509 3.294021,8.42684217 C3.82746569,8.42684217 4.23643996,8.19681813 4.52094379,7.73677006 C4.52983454,7.74561714 4.5520614,7.77215837 4.58762438,7.81639376 C4.62318736,7.86062915 4.67208646,7.90928809 4.73432167,7.96237056 C4.79655689,8.01545303 4.86768285,8.0685355 4.94769955,8.12161797 C5.24998488,8.33394785 5.45447201,8.44011279 5.56116095,8.44011279 C5.59672393,8.44011279 5.62784154,8.42684217 5.65451377,8.40030094 C5.68118601,8.3737597 5.69452213,8.35164201 5.69452213,8.33394785 C5.69452213,8.25432414 5.38779143,6.99361547 4.77433003,4.55182183 C4.14308714,2.03925157 3.82746569,0.765272281 3.82746569,0.729883968 C3.82746569,0.65910734 4.02750745,0.619295488 4.42759097,0.610448409 L4.76099391,0.610448409 C4.81433838,0.539671782 4.84101061,0.499859929 4.84101061,0.491012851 C4.84101061,0.482165773 4.82767449,0.402542067 4.80100226,0.252141734 C4.76543928,0.137129715 4.72098556,0.0530824704 4.66764109,0 L4.49427156,0 C4.21865847,0.0176941568 3.73855824,0.0265412352 3.05397088,0.0265412352 C2.80503002,0.0265412352 2.57831603,0.0265412352 2.3738289,0.0265412352 C2.16934176,0.0265412352 2.00486298,0.0265412352 1.88039255,0.0265412352 C1.75592212,0.0265412352 1.68035079,0.022117696 1.65367856,0.0132706176 C1.52920813,0.0132706176 1.46697291,0.0486589312 1.46697291,0.119435558 C1.46697291,0.145976794 1.47586366,0.212329881 1.49364515,0.318494822 C1.52920813,0.460048077 1.56032573,0.544095321 1.58699797,0.570636556 C1.6136702,0.597177792 1.70257765,0.610448409 1.85372032,0.610448409 C2.28047607,0.610448409 2.53830768,0.641413184 2.62721513,0.703342732 C2.69834108,0.747578124 2.82281151,1.13684957 3.00062641,1.87115708 C3.17844131,2.60546459 3.27179413,2.98146542 3.28068488,2.99915958 C3.28068488,3.00800665 3.24956727,2.99473604 3.18733206,2.95934772 C2.7605763,2.61431167 2.31603905,2.44179364 1.85372032,2.44179364 C1.36472935,2.44179364 0.933528217,2.6187352 0.56011693,2.97261834 C0.186705643,3.32650148 0,3.88829095 0,4.65798678 Z M4.25422145,6.90072115 C4.04973431,7.59964034 3.71633138,7.94909994 3.25401264,7.94909994 C2.94283657,7.94909994 2.64499662,7.81197022 2.36049278,7.53771079 C2.07598894,7.26345136 1.85372032,6.90514469 1.69368691,6.46279077 C1.43585531,5.76387157 1.25359503,5.03841115 1.1469061,4.28640948 C1.1469061,4.25986825 1.1469061,4.21120932 1.1469061,4.14043269 C1.1469061,4.06965606 1.14246072,4.01657359 1.13356998,3.98118528 C1.13356998,3.58306675 1.21358668,3.30880732 1.37362009,3.15840699 C1.5336535,3.00800665 1.72480452,2.92838295 1.94707314,2.91953587 C2.42717336,2.91953587 2.92060971,3.23803069 3.42738217,3.87502034 L3.53407111,4.02099713 L4.25422145,6.90072115 Z" id="E152-MJMATHI-71"></path>
                                </g>
                                <g id="E152-MJMATHI-69-link" transform="translate(5.697950, 0.472859)">
                                    <path d="M1.5368675,5.73260158 C1.5368675,5.8827188 1.59658219,6.01407138 1.71601157,6.12665929 C1.83544095,6.23924721 1.97372759,6.29866862 2.13087151,6.3049235 C2.24401513,6.3049235 2.33830148,6.26739419 2.41373056,6.19233558 C2.48915964,6.11727697 2.53001706,6.0234537 2.53630281,5.91086578 C2.53630281,5.76700344 2.47344525,5.63565087 2.34773011,5.51680806 C2.22201498,5.39796526 2.08372833,5.33541641 1.93287017,5.32916153 C1.83858382,5.32916153 1.75058323,5.36043595 1.66886839,5.4229848 C1.58715356,5.48553364 1.54315326,5.58873923 1.5368675,5.73260158 Z M0,2.79593334 C0,2.84597241 0.028285905,2.94292312 0.0848577149,3.08678546 C0.141429525,3.23064781 0.216858605,3.39014736 0.311144955,3.56528412 C0.405431305,3.74042089 0.543717951,3.89992044 0.726004895,4.04378278 C0.908291838,4.18764512 1.09686454,4.25644885 1.29172299,4.25019397 C1.5368675,4.25019397 1.7411546,4.1782628 1.90458427,4.03440045 C2.06801394,3.89053811 2.15287166,3.6966367 2.15915741,3.4526962 C2.15915741,3.34636317 2.11515712,3.1712264 2.02715652,2.92728591 C1.93915593,2.68334542 1.8134408,2.35496399 1.65001112,1.94214161 C1.48658145,1.52931924 1.35458056,1.17591827 1.25400845,0.881938704 C1.22257967,0.744331247 1.20686528,0.644253096 1.20686528,0.581704252 C1.20686528,0.425332141 1.26029421,0.347146086 1.36715207,0.347146086 C1.42372388,0.347146086 1.48343857,0.356528412 1.54629614,0.375293066 C1.60915371,0.394057719 1.68143991,0.43784191 1.76315474,0.506645638 C1.84486958,0.575449367 1.9297273,0.684909845 2.01772789,0.835027071 C2.10572848,0.985144297 2.18430044,1.16966339 2.25344376,1.38858434 C2.27230103,1.46364296 2.28801543,1.50742715 2.30058694,1.51993692 C2.31315845,1.53244668 2.36658738,1.53870157 2.46087373,1.53870157 C2.58658887,1.53870157 2.64944643,1.50742715 2.64944643,1.4448783 C2.64944643,1.39483923 2.62116053,1.29788852 2.56458872,1.15402618 C2.50801691,1.01016383 2.42944495,0.850664282 2.32887284,0.675527518 C2.22830074,0.500390754 2.08687121,0.344018643 1.90458427,0.206411186 C1.72229733,0.0688037287 1.52743887,0 1.3200089,0 C1.11886469,0 0.933434864,0.0656762865 0.763719435,0.197028859 C0.594004005,0.328381432 0.506003411,0.528537734 0.499717655,0.797497764 C0.499717655,0.903830799 0.515432046,1.00390895 0.54686083,1.09773222 C0.578289613,1.19155548 0.713433381,1.5480839 0.952292134,2.16731745 C1.19115089,2.79906078 1.32943753,3.17748129 1.36715207,3.30257898 C1.40486661,3.42767667 1.42686676,3.54964691 1.43315252,3.66848972 C1.43315252,3.81860694 1.37972359,3.89366555 1.27286572,3.89366555 L1.25400845,3.89366555 C1.06543575,3.89366555 0.892577446,3.79045996 0.73543353,3.58404878 C0.578289613,3.37763759 0.458860236,3.11493244 0.3771454,2.79593334 C0.370859643,2.78967845 0.364573886,2.78029613 0.35828813,2.76778636 C0.352002373,2.75527659 0.348859495,2.74589426 0.348859495,2.73963938 C0.348859495,2.73338449 0.342573738,2.72712961 0.330002225,2.72087473 C0.317430711,2.71461984 0.308002076,2.7114924 0.30171632,2.7114924 C0.295430563,2.7114924 0.28285905,2.7114924 0.26400178,2.7114924 C0.24514451,2.7114924 0.220001483,2.7114924 0.1885727,2.7114924 L0.05657181,2.7114924 C0.01885727,2.7490217 0,2.77716868 0,2.79593334 Z" id="E152-MJMATHI-69"></path>
                                </g>
                            </g>
                            <g id="E152-MJMAIN-2212-link" transform="translate(38.328001, 17.596839)">
                                <path d="M0,0.152649457 C0,0.152649457 0,0.247146739 0,0.436141304 C0,0.62513587 0.0622352145,0.770516304 0.186705643,0.872282609 L7.93498985,0.872282609 C8.06835102,0.755978261 8.13503161,0.610597826 8.13503161,0.436141304 C8.13503161,0.261684783 8.06835102,0.116304348 7.93498985,0 L0.186705643,0 C0.0622352145,0.101766304 0,0.247146739 0,0.436141304 L0,0.152649457 Z" id="E152-MJMAIN-2212"></path>
                            </g>
                            <g transform="translate(50.023776, 11.970097)">
                                <g id="E152-MJMATHI-70-link">
                                    <path d="M0.826839278,6.38316706 C0.835730023,6.4097083 0.844620768,6.44509661 0.853511513,6.489332 C0.862402258,6.53356739 0.88462912,6.63088526 0.9201921,6.78128559 C0.95575508,6.93168592 1.0002088,7.06881564 1.05355327,7.19267474 C1.10689774,7.31653383 1.17357833,7.46251063 1.25359503,7.63060512 C1.33361174,7.79869961 1.42251919,7.93140578 1.52031738,8.02872364 C1.61811558,8.12604151 1.73369526,8.22335937 1.86705643,8.32067723 C2.00041761,8.41799509 2.1471149,8.45780695 2.30714831,8.44011279 C2.97395418,8.44011279 3.40070993,8.15700628 3.58741558,7.59079326 L3.72077675,7.71022882 C4.27200294,8.19681813 4.79655689,8.44011279 5.2944386,8.44011279 C5.87233702,8.44011279 6.32576501,8.23220645 6.65472258,7.81639376 C6.98368014,7.40058108 7.14815892,6.89629761 7.14815892,6.30354336 C7.14815892,5.34805889 6.81031061,4.46777459 6.134614,3.66269046 C5.45891738,2.85760632 4.69431332,2.45064072 3.84080181,2.44179364 C3.64520542,2.44179364 3.47183589,2.46833487 3.32069323,2.52141734 C3.22289504,2.56565273 3.12065147,2.63200582 3.01396253,2.72047661 C2.90727359,2.80894739 2.82281151,2.88414756 2.7605763,2.94607711 L2.66722348,3.05224205 C2.65833273,3.04339497 2.56053454,2.65854706 2.3738289,1.89769832 C2.18712325,1.13684957 2.09377043,0.752001664 2.09377043,0.743154585 C2.09377043,0.690072115 2.12933341,0.65910734 2.20045937,0.650260262 C2.27158533,0.641413184 2.43606411,0.628142566 2.69389571,0.610448409 L3.02729865,0.610448409 C3.08064312,0.548518861 3.10731535,0.508707008 3.10731535,0.491012851 C3.10731535,0.473318694 3.09397923,0.393694989 3.067307,0.252141734 C3.04063476,0.145976794 3.01396253,0.0796237056 2.9872903,0.0530824704 C2.96061806,0.0265412352 2.90282822,0.0088470784 2.81392077,0 C2.79613928,0 2.74724018,0 2.66722348,0 C2.58720677,0 2.43606411,0.0044235392 2.21379549,0.0132706176 C1.99152686,0.022117696 1.71591377,0.0265412352 1.38695621,0.0265412352 C0.764604064,0.0265412352 0.368965914,0.0176941568 0.200041761,0 L0.0933528217,0 C0.0311176072,0.0619295488 0,0.11058848 0,0.145976794 C0.0177814899,0.38484791 0.0755713319,0.539671782 0.173369526,0.610448409 L0.440091874,0.610448409 C0.742377201,0.619295488 0.915746727,0.672377958 0.960200452,0.76969582 C0.986872687,0.822778291 1.25804041,1.88000416 1.77370361,3.94137343 C2.28936682,6.00274269 2.56053454,7.09535687 2.58720677,7.21921597 C2.59609752,7.26345136 2.60054289,7.32538091 2.60054289,7.40500462 C2.60054289,7.76773483 2.48940858,7.94909994 2.26713996,7.94909994 C2.07154357,7.94909994 1.90706479,7.82524084 1.77370361,7.57752265 C1.64034244,7.32980445 1.53809887,7.05996856 1.46697291,6.76801497 C1.39584695,6.47606139 1.34250248,6.31681397 1.3069395,6.29027274 C1.28915801,6.27257858 1.21803205,6.2637315 1.09356163,6.2637315 L0.906855982,6.2637315 C0.853511513,6.31681397 0.826839278,6.35662583 0.826839278,6.38316706 Z M2.89393747,3.92810281 C3.08953386,3.25572485 3.41849142,2.91953587 3.88081016,2.91953587 C4.14753251,2.91953587 4.40536411,3.02127727 4.65430497,3.22476008 C4.90324583,3.42824288 5.10773296,3.68480815 5.26776637,3.9944559 C5.42779978,4.29525656 5.58783319,4.77299879 5.74786659,5.4276826 C5.9079,6.0823664 5.99236208,6.56895571 6.00125282,6.88745053 L6.00125282,6.96707424 C6.00125282,7.62175804 5.7300851,7.94909994 5.18774966,7.94909994 C5.08995147,7.94909994 4.99215328,7.93582932 4.89435508,7.90928809 C4.79655689,7.88274685 4.69875869,7.842935 4.6009605,7.78985253 C4.5031623,7.73677006 4.41425486,7.67926405 4.33423815,7.6173345 C4.25422145,7.55540495 4.17865012,7.48905186 4.10752416,7.41827523 C4.0363982,7.34749861 3.96971761,7.28114552 3.90748239,7.21921597 C3.84524718,7.15728642 3.79634808,7.09535687 3.7607851,7.03342732 C3.72522212,6.97149778 3.68965914,6.92726238 3.65409616,6.90072115 L3.61408781,6.84763868 C3.61408781,6.8387916 3.60075169,6.77686205 3.57407946,6.66185003 C3.54740723,6.54683801 3.49850813,6.35220229 3.42738217,6.07794286 C3.35625621,5.80368343 3.294021,5.57365939 3.24067653,5.38787074 C3.00951716,4.45008043 2.89393747,3.96349112 2.89393747,3.92810281 Z" id="E152-MJMATHI-70"></path>
                                </g>
                                <g id="E152-MJMATHI-69-link" transform="translate(7.421869, 0.472859)">
                                    <path d="M1.5368675,5.73260158 C1.5368675,5.8827188 1.59658219,6.01407138 1.71601157,6.12665929 C1.83544095,6.23924721 1.97372759,6.29866862 2.13087151,6.3049235 C2.24401513,6.3049235 2.33830148,6.26739419 2.41373056,6.19233558 C2.48915964,6.11727697 2.53001706,6.0234537 2.53630281,5.91086578 C2.53630281,5.76700344 2.47344525,5.63565087 2.34773011,5.51680806 C2.22201498,5.39796526 2.08372833,5.33541641 1.93287017,5.32916153 C1.83858382,5.32916153 1.75058323,5.36043595 1.66886839,5.4229848 C1.58715356,5.48553364 1.54315326,5.58873923 1.5368675,5.73260158 Z M0,2.79593334 C0,2.84597241 0.028285905,2.94292312 0.0848577149,3.08678546 C0.141429525,3.23064781 0.216858605,3.39014736 0.311144955,3.56528412 C0.405431305,3.74042089 0.543717951,3.89992044 0.726004895,4.04378278 C0.908291838,4.18764512 1.09686454,4.25644885 1.29172299,4.25019397 C1.5368675,4.25019397 1.7411546,4.1782628 1.90458427,4.03440045 C2.06801394,3.89053811 2.15287166,3.6966367 2.15915741,3.4526962 C2.15915741,3.34636317 2.11515712,3.1712264 2.02715652,2.92728591 C1.93915593,2.68334542 1.8134408,2.35496399 1.65001112,1.94214161 C1.48658145,1.52931924 1.35458056,1.17591827 1.25400845,0.881938704 C1.22257967,0.744331247 1.20686528,0.644253096 1.20686528,0.581704252 C1.20686528,0.425332141 1.26029421,0.347146086 1.36715207,0.347146086 C1.42372388,0.347146086 1.48343857,0.356528412 1.54629614,0.375293066 C1.60915371,0.394057719 1.68143991,0.43784191 1.76315474,0.506645638 C1.84486958,0.575449367 1.9297273,0.684909845 2.01772789,0.835027071 C2.10572848,0.985144297 2.18430044,1.16966339 2.25344376,1.38858434 C2.27230103,1.46364296 2.28801543,1.50742715 2.30058694,1.51993692 C2.31315845,1.53244668 2.36658738,1.53870157 2.46087373,1.53870157 C2.58658887,1.53870157 2.64944643,1.50742715 2.64944643,1.4448783 C2.64944643,1.39483923 2.62116053,1.29788852 2.56458872,1.15402618 C2.50801691,1.01016383 2.42944495,0.850664282 2.32887284,0.675527518 C2.22830074,0.500390754 2.08687121,0.344018643 1.90458427,0.206411186 C1.72229733,0.0688037287 1.52743887,0 1.3200089,0 C1.11886469,0 0.933434864,0.0656762865 0.763719435,0.197028859 C0.594004005,0.328381432 0.506003411,0.528537734 0.499717655,0.797497764 C0.499717655,0.903830799 0.515432046,1.00390895 0.54686083,1.09773222 C0.578289613,1.19155548 0.713433381,1.5480839 0.952292134,2.16731745 C1.19115089,2.79906078 1.32943753,3.17748129 1.36715207,3.30257898 C1.40486661,3.42767667 1.42686676,3.54964691 1.43315252,3.66848972 C1.43315252,3.81860694 1.37972359,3.89366555 1.27286572,3.89366555 L1.25400845,3.89366555 C1.06543575,3.89366555 0.892577446,3.79045996 0.73543353,3.58404878 C0.578289613,3.37763759 0.458860236,3.11493244 0.3771454,2.79593334 C0.370859643,2.78967845 0.364573886,2.78029613 0.35828813,2.76778636 C0.352002373,2.75527659 0.348859495,2.74589426 0.348859495,2.73963938 C0.348859495,2.73338449 0.342573738,2.72712961 0.330002225,2.72087473 C0.317430711,2.71461984 0.308002076,2.7114924 0.30171632,2.7114924 C0.295430563,2.7114924 0.28285905,2.7114924 0.26400178,2.7114924 C0.24514451,2.7114924 0.220001483,2.7114924 0.1885727,2.7114924 L0.05657181,2.7114924 C0.01885727,2.7490217 0,2.77716868 0,2.79593334 Z" id="E152-MJMATHI-69"></path>
                                </g>
                            </g>
                            <g transform="translate(62.573063, 11.226942)">
                                <g id="E152-MJMAIN-29-link">
                                    <path d="M0.0666805869,13.257347 L0.120025056,13.2706176 C0.164478781,13.2706176 0.208932506,13.2706176 0.25338623,13.2706176 L0.413419639,13.2706176 L0.786830926,12.9521228 C1.62256095,12.2001211 2.23157698,11.2623308 2.61387901,10.1387518 C2.99618104,9.01517288 3.18733206,7.84735854 3.18733206,6.6353088 C3.18733206,6.03370747 3.14287833,5.45422383 3.05397088,4.89685789 C2.96506343,4.33949195 2.86281987,3.86617326 2.74724018,3.47690181 C2.6316605,3.08763036 2.46718172,2.69835891 2.25380384,2.30908746 C2.04042596,1.91981601 1.87150181,1.62343889 1.74703138,1.41995608 C1.62256095,1.21647328 1.44030068,0.99087278 1.20025056,0.743154585 C0.960200452,0.49543639 0.817948533,0.349459597 0.773494809,0.305224205 C0.729041084,0.260988813 0.626797517,0.176941568 0.466764109,0.0530824704 C0.440091874,0.0265412352 0.422310384,0.0088470784 0.413419639,0 L0.25338623,0 C0.182260271,0 0.133361174,0 0.106688939,0 C0.0800167043,0 0.057789842,0.0132706176 0.0400083522,0.0398118528 C0.0222268623,0.066353088 0.00889074493,0.106164941 0,0.159247411 C0.00889074493,0.16809449 0.057789842,0.225600499 0.146697291,0.33176544 C1.52476275,1.75614506 2.21379549,3.85732618 2.21379549,6.6353088 C2.21379549,9.41329141 1.52476275,11.5144725 0.146697291,12.9388522 C0.057789842,13.0450171 0.00889074493,13.1025231 0,13.1113702 C0,13.1821468 0.0222268623,13.2308057 0.0666805869,13.257347 Z" id="E152-MJMAIN-29"></path>
                                </g>
                                <g id="E152-MJMAIN-32-link" transform="translate(4.923695, 8.787551)">
                                    <path d="M0.556289465,4.02501813 C0.386574035,4.02501813 0.251430267,4.08131209 0.15085816,4.19390001 C0.0502860533,4.30648793 0,4.44409538 0,4.60672238 C0,5.05081917 0.166572552,5.43549457 0.499717655,5.76074856 C0.832862758,6.08600255 1.2477227,6.24862954 1.74429747,6.24862954 C2.31630133,6.24862954 2.79401884,6.07349278 3.17744999,5.72321925 C3.56088115,5.37294572 3.75573961,4.9194666 3.76202536,4.36278189 C3.76202536,4.09382186 3.6991678,3.8373716 3.57345266,3.5934311 C3.44773753,3.34949061 3.29687937,3.13682454 3.12087818,2.95543289 C2.944877,2.77404124 2.69344673,2.54261052 2.36658738,2.26114072 C2.14030014,2.0672393 1.82601231,1.77951462 1.42372388,1.39796667 L0.867434419,0.872556377 L1.58401068,0.863174051 C2.57087447,0.863174051 3.09573516,0.878811262 3.15859272,0.910085684 C3.20259302,0.922595453 3.2780221,1.20093781 3.38487996,1.74511275 L3.38487996,1.77325973 L3.76202536,1.77325973 L3.76202536,1.74511275 C3.75573961,1.7263481 3.71488219,1.44175086 3.63945311,0.891321031 C3.56402403,0.340891201 3.51688085,0.0531665176 3.49802358,0.0281469799 L3.49802358,0 L0,0 L0,0.178264206 L0,0.290852126 C0,0.334636317 0.01885727,0.38154795 0.05657181,0.431587025 C0.0942863499,0.481626101 0.1885727,0.591086578 0.33943086,0.759968458 C0.521717803,0.960124759 0.67886172,1.13526152 0.810862609,1.28537875 C0.867434419,1.34792759 0.974292283,1.46364296 1.1314362,1.63252484 C1.28858012,1.80140671 1.39543798,1.91712208 1.45200979,1.97967092 C1.5085816,2.04221976 1.59972507,2.14542536 1.7254402,2.2892877 C1.85115534,2.43315004 1.93915593,2.53948308 1.98944198,2.60828681 C2.03972804,2.67709053 2.11201424,2.7709138 2.20630059,2.8897566 C2.30058694,3.00859941 2.36658738,3.10867756 2.40430192,3.18999106 C2.44201646,3.27130455 2.48915964,3.36200038 2.54573145,3.46207853 C2.60230326,3.56215668 2.64316068,3.66223483 2.6683037,3.76231298 C2.69344673,3.86239113 2.71544688,3.9562144 2.73430415,4.04378278 C2.75316142,4.13135116 2.76259005,4.23455676 2.76259005,4.35339956 C2.76259005,4.74745728 2.65573219,5.08834848 2.44201646,5.37607316 C2.22830074,5.66379785 1.92344154,5.80766019 1.52743887,5.80766019 C1.3200089,5.80766019 1.13772196,5.75449367 0.980578039,5.64816064 C0.823434123,5.5418276 0.713433381,5.43862201 0.650575815,5.33854386 C0.587718248,5.23846571 0.556289465,5.1790443 0.556289465,5.16027965 C0.556289465,5.15402477 0.572003856,5.15089732 0.60343264,5.15089732 C0.71657626,5.15089732 0.832862758,5.10711313 0.952292134,5.01954475 C1.07172151,4.93197637 1.1314362,4.78811403 1.1314362,4.58795773 C1.1314362,4.43158562 1.08115015,4.30023304 0.980578039,4.19390001 C0.880005933,4.08756697 0.738576408,4.03127301 0.556289465,4.02501813 Z" id="E152-MJMAIN-32"></path>
                                </g>
                            </g>
                        </g>
                    </g>
                </g>
            </g>
        </g>
    </g>
</svg>