<svg fill="none" height="33" viewBox="0 0 27 33" width="27" xmlns="http://www.w3.org/2000/svg" xmlns:xlink="http://www.w3.org/1999/xlink"><clipPath id="a"><path d="m6.52319 4.63867h4.46974v4.46974h-4.46974z"/></clipPath><path d="m12.3919 33.0003c-6.84395 0-12.39206338-1.4286-12.39206338-3.1908 0-1.7623 5.54811338-3.1908 12.39206338-3.1908 6.8439 0 12.392 1.4285 12.392 3.1908 0 1.7622-5.5481 3.1908-12.392 3.1908z" fill="#f0f4f9"/><g fill="#000"><path d="m9.79597 21.2183c-.09758.2898-.17934.5848-.2449.8836-.06857.2945-.12441.5891-.17339.8836-.096.5891-.16523 1.1759-.20768 1.7603-.08374 1.1726-.07981 2.3498.01176 3.5217l.32327-.5429c-.23609.1512-.46727.3122-.69748.4723l-.34189.2493-.33698.2573c-.22237.1777-.44278.3564-.65732.5478-.21861.1917-.42722.3945-.62499.6077.28659-.048.57043-.1112.8503-.1895.27723-.0726.5476-.159.81797-.2474l.39969-.1404.39184-.1492c.26057-.1041.52213-.2081.77683-.323l.2939-.1306.0323-.4114c.0916-1.1719.0955-2.3491.0118-3.5217-.0431-.589-.1107-1.1781-.2077-1.7603-.049-.2945-.1048-.5891-.1724-.8836-.06606-.2987-.14781-.5936-.24493-.8836z"/><path d="m14.3023 22.2002c-.0978.2899-.1799.5848-.2459.8836-.0686.2945-.1244.5891-.1734.8836-.096.5891-.1649 1.1805-.2067 1.7741-.0418.5937-.0614 1.1847-.0588 1.7731 0 .5891.0235 1.1831.0715 1.7741l.3223-.5409c-.2361.1512-.4663.3122-.6965.4722l-.3419.2494-.3379.2572c-.2214.1767-.4428.3554-.6564.5479-.2189.1909-.4278.3931-.6259.6057.2862-.0483.5697-.1116.8493-.1895.2782-.0736.5486-.16.818-.2484l.3997-.1404.3918-.1482c.2606-.1051.5221-.2091.7778-.324l.2939-.1286.0333-.4124c.048-.589.0695-1.1781.0725-1.7741.0029-.5959-.0177-1.1781-.0598-1.7731-.0421-.5949-.1107-1.1781-.2067-1.7741-.049-.2945-.1048-.5891-.1734-.8836-.0663-.2988-.1487-.5937-.2468-.8836z"/><path d="m7.73975 1.34483-5.18214 5.1937-1.21178-5.590341c-.02739-.129605-.02163-.264046.01676-.390818.03838-.126772.10813-.241755.20277-.334249.09463-.092494.21107-.1594954.33849-.1947692.12741-.0352738.26166-.0376743.39024-.0069782z"/></g><path d="m13.8321 24.7529h5.529c.2434 0 .4769-.0969.649-.2694s.2688-.4065.2688-.6505v-13.374c0-2.56183-1.0151-5.01877-2.8222-6.8306-1.807-1.81183-4.2581-2.830236-6.8142-2.831277h-.0205c-2.21829 0-4.34568.883157-5.91421 2.455197-1.56854 1.57204-2.44973 3.70417-2.44973 5.92737v3.97041c0 3.0778 1.21992 6.0295 3.3914 8.2058s5.11664 3.399 8.18754 3.399z" fill="#fff"/><path clip-rule="evenodd" d="m13.6279 24.2877c-2.8716-.054-5.61437-1.2208-7.6494-3.2603-2.08434-2.089-3.2555-4.9225-3.2555-7.8773v-3.97034c0-2.10013.83243-4.11404 2.31383-5.59875 1.48136-1.48467 3.4903-2.31855 5.58477-2.31855h.0204c2.4324.00104 4.7651.97014 6.485 2.69457 1.72 1.7245 2.6864 4.06324 2.6864 6.50197v13.374c0 .121-.048.2367-.133.3219-.0849.0852-.1999.1328-.3197.1328zm2.6145.9306h3.1183c.3672 0 .7191-.1462.9784-.4061s.4048-.6121.4048-.9792v-13.374c0-2.68479-1.0639-5.25992-2.9581-7.15908-1.8941-1.8992-4.4636-2.966893-7.1434-2.967984h-.0208c-2.34193 0-4.58778.932434-6.24348 2.591834-1.65568 1.65937-2.58564 3.90974-2.58564 6.25599v3.97034c0 3.2009 1.26869 6.2708 3.52731 8.5345 2.25865 2.2637 5.32231 3.5356 8.51691 3.5356h2.4106z" fill="#000" fill-rule="evenodd"/><path d="m12.343 12.0878c-1.082 0-1.9592-.8791-1.9592-1.9636 0-1.08443.8772-1.96356 1.9592-1.96356 1.0821 0 1.9592.87913 1.9592 1.96356 0 1.0845-.8771 1.9636-1.9592 1.9636z" fill="#ffaeae"/><path d="m9.11025 10.615c-2.05589 0-3.72251-1.67039-3.72251-3.73086 0-2.06048 1.66662-3.73082 3.72251-3.73082 2.05585 0 3.72255 1.67034 3.72255 3.73082 0 2.06047-1.6667 3.73086-3.72255 3.73086z" fill="#fff"/><path clip-rule="evenodd" d="m9.11032 3.61851c1.79798 0 3.25728 1.46106 3.25728 3.26556 0 1.80449-1.4593 3.26553-3.25728 3.26553-1.79795 0-3.25725-1.46104-3.25725-3.26553 0-1.8045 1.4593-3.26556 3.25725-3.26556zm4.18778 3.26556c0-2.31646-1.874-4.19608-4.18778-4.19608-2.31382 0-4.18777 1.87962-4.18777 4.19608 0 2.31645 1.87395 4.19603 4.18777 4.19603 2.31378 0 4.18778-1.87958 4.18778-4.19603z" fill="#000" fill-rule="evenodd"/><path d="m20.0603 24.8172 5.6553-3.2586-2.1561 3.1692 2.5333 2.7343z" fill="#000"/><g clip-path="url(#a)"><circle cx="7.6179" cy="5.74534" fill="#191919" r="1.07005"/></g></svg>