<?xml version="1.0" encoding="utf-8"?>
<!-- Generator: Adobe Illustrator 23.1.0, SVG Export Plug-In . SVG Version: 6.00 Build 0)  -->
<svg version="1.1" id="Layer_1" xmlns="http://www.w3.org/2000/svg" xmlns:xlink="http://www.w3.org/1999/xlink" x="0px" y="0px"
	 viewBox="0 0 368.4 272.4" style="enable-background:new 0 0 368.4 272.4;" xml:space="preserve">
<style type="text/css">
	.st0{fill:none;stroke:#003E69;stroke-width:2.1029;stroke-miterlimit:10;}
	.st1{fill:#009ADE;}
	.st2{fill:#003764;}
	.st3{enable-background:new    ;}
	.st4{opacity:0.94;enable-background:new    ;}
</style>
<line class="st0" x1="12" y1="118.8" x2="357.3" y2="118.8"/>
<g>
	<g>
		<polygon class="st1" points="28.3,76.4 28.3,44 12,44 12,92.7 60.7,92.7 60.7,76.4 		"/>
		<polygon class="st2" points="93.2,11.5 12,11.5 12,35.8 28.2,35.8 28.2,27.8 77,27.8 77,76.4 68.9,76.4 68.9,92.7 93.2,92.7 		"/>
	</g>
	<g>
		<path class="st2" d="M114.7,11.5h25v60.4h35.9v20.8h-60.9C114.7,92.7,114.7,11.5,114.7,11.5z"/>
		<path class="st2" d="M186.3,11.5h62.8v20.8h-37.8v10.1h32.4v19.3h-32.4v30.9h-25L186.3,11.5L186.3,11.5z"/>
	</g>
	<path class="st1" d="M297.4,11.8h8.6l31.7,80.9h-8.3l-9.9-25.2h-36.8L273,92.7h-8.3L297.4,11.8z M285.2,61H317l-15.6-41.5L285.2,61
		z"/>
	<path class="st1" d="M348.4,11.8h7.7v80.9h-7.7V11.8z"/>
</g>
<g class="st3">
	<path class="st2" d="M16.7,143.5h5.5v41h-5.5V143.5z"/>
	<path class="st2" d="M31.3,143.5h5.8l21.7,33.2h0.1v-33.2H64v41h-6l-21.5-32.9h-0.1v32.9h-5.2L31.3,143.5L31.3,143.5z"/>
	<path class="st2" d="M101.8,155.9c-1.2-5.8-5.8-8.7-11.5-8.7c-9.8,0-13.9,8-13.9,16.6c0,9.3,4.1,17.1,14,17.1
		c7.1,0,11.4-5,11.9-11.8h5.5c-1.1,10.3-7.4,16.4-17.8,16.4c-12.7,0-19-9.4-19-21.3c0-11.9,6.8-21.6,19.5-21.6
		c8.6,0,15.7,4.6,16.9,13.3H101.8z"/>
	<path class="st2" d="M147.3,169.7c0,10.4-5.9,15.8-16.2,15.8c-10.6,0-16.9-4.9-16.9-15.8v-26.2h5.5v26.2c0,7.3,4.1,11.2,11.4,11.2
		c7,0,10.7-3.9,10.7-11.2v-26.2h5.5V169.7z"/>
	<path class="st2" d="M156.1,143.5H171c3.6,0,8.5,0,10.9,1.5c2.7,1.6,4.8,4.5,4.8,8.5c0,4.4-2.2,7.6-6.1,9.2v0.1
		c5.1,1.1,7.8,4.8,7.8,9.9c0,6-4.4,11.8-12.5,11.8H156v-41H156.1z M161.5,161.1h10.9c6.2,0,8.8-2.2,8.8-6.5c0-5.7-4-6.5-8.8-6.5
		h-10.9V161.1z M161.5,179.9h13.7c4.8,0,7.7-2.8,7.7-7.3c0-5.3-4.3-6.8-8.9-6.8h-12.5V179.9z"/>
	<path class="st2" d="M206.7,143.5h6l16.1,41h-6l-4.5-12.3h-17.4l-4.6,12.3h-5.6L206.7,143.5z M202.6,167.6h13.9l-6.9-19.1h-0.1
		L202.6,167.6z"/>
	<path class="st2" d="M242.2,148.1h-13.7v-4.6h32.9v4.6h-13.7v36.4h-5.5V148.1z"/>
	<path class="st2" d="M266.1,143.5h5.5v41h-5.5V143.5z"/>
	<path class="st2" d="M298.2,142.6c13.1,0,19.7,10.3,19.7,21.4c0,11.2-6.6,21.5-19.7,21.5s-19.7-10.3-19.7-21.5
		S285.1,142.6,298.2,142.6z M298.2,180.9c10,0,14.2-8.6,14.2-16.9c0-8.3-4.2-16.9-14.2-16.9S284,155.7,284,164
		C284,172.3,288.2,180.9,298.2,180.9z"/>
	<path class="st2" d="M324.5,143.5h5.8l21.7,33.2h0.1v-33.2h5.2v41h-6l-21.5-32.9h-0.1v32.9h-5.2V143.5z"/>
</g>
<text transform="matrix(1.004 0 0 1 381.7217 191.1387)" class="st2" style="font-family:'HelveticaNeueLTPro-Roman'; font-size:65px;"> </text>
<g class="st4">
	<path class="st2" d="M17,212.4h20c9.2,0,14,5,14,13.4c0,8.5-4.9,13.5-14,13.4h-14v18.6H17V212.4z M23.1,234.2H35
		c6.9,0.1,10-2.9,10-8.3c0-5.4-3.1-8.3-10-8.3H23.1V234.2z"/>
	<path class="st2" d="M67.5,212.4H89c8.6,0,13.9,4.6,13.9,11.9c0,5.5-2.4,10-7.9,11.5v0.1c5.3,1,6.3,5,6.8,9.4
		c0.3,4.4,0.1,9.5,2.7,12.6h-6.8c-1.7-1.8-0.8-6.8-1.7-11.2c-0.7-4.4-1.7-8.2-7.6-8.2H73.6v19.4h-6.1V212.4z M86.2,233.3
		c5.6,0,10.6-1.5,10.6-8.1c0-4.5-2.4-7.8-8.1-7.8H73.6v15.9H86.2z"/>
	<path class="st2" d="M139.7,211.3c14.5,0,21.9,11.4,21.9,23.8s-7.4,23.8-21.9,23.8s-21.9-11.4-21.9-23.8S125.1,211.3,139.7,211.3z
		 M139.7,253.9c11.1,0,15.8-9.6,15.8-18.7s-4.7-18.7-15.8-18.7s-15.8,9.6-15.8,18.7S128.5,253.9,139.7,253.9z"/>
	<path class="st2" d="M201.2,246.5c0,6.1-3.3,12.4-13.5,12.4c-8.5,0-13.3-4.7-13.3-13.3v-2.8h6.1v1.9c0,5.3,1.4,9,7.4,9
		c5.6,0,7.3-3.2,7.3-8.2v-33.3h6.1V246.5z"/>
	<path class="st2" d="M220.2,212.4h31.5v5.1h-25.5v14.5h23.7v5.1h-23.7v15.7H252v5.1h-31.7V212.4z"/>
	<path class="st2" d="M300.5,226.1c-1.3-6.4-6.4-9.7-12.8-9.7c-10.9,0-15.5,8.9-15.5,18.4c0,10.4,4.6,19.1,15.6,19.1
		c7.9,0,12.7-5.6,13.2-13.1h6.1c-1.2,11.4-8.2,18.2-19.8,18.2c-14.1,0-21.1-10.5-21.1-23.7c0-13.3,7.6-24,21.6-24
		c9.5,0,17.5,5.1,18.8,14.8H300.5z"/>
	<path class="st2" d="M333.9,217.5h-15.2v-5.1h36.5v5.1H340v40.4h-6.1V217.5z"/>
</g>
</svg>