<svg width="37" height="25" viewBox="0 0 37 25" fill="none" xmlns="http://www.w3.org/2000/svg">
<g clip-path="url(#clip0)">
<path d="M26.1502 3.5145C21.2426 -1.1655 13.2894 -1.1775 8.38178 3.5145L0.354567 11.1705C-0.113995 11.6145 -0.113995 12.3345 0.329906 12.7905C0.342236 12.8025 0.342237 12.8025 0.354567 12.8145L8.38178 20.4825C13.2894 25.1745 21.2426 25.1745 26.1502 20.4825C30.9714 15.9105 31.0701 8.4105 26.3721 3.7305C26.2981 3.6585 26.2242 3.5745 26.1502 3.5145ZM24.2389 18.2385C20.6014 21.6825 14.8184 21.6825 11.1808 18.2385L5.29914 12.5985C4.95388 12.2745 4.95388 11.7465 5.28681 11.4105L5.29914 11.3985L11.1932 5.7705C14.8307 2.3265 20.6137 2.3265 24.2513 5.7705C27.7901 9.1305 27.8641 14.6385 24.4116 18.0825C24.3499 18.1305 24.3006 18.1785 24.2389 18.2385Z" fill="#4FC4F9"/>
<path d="M33.1155 7.73787C33.0045 7.62987 32.8072 7.61787 32.6962 7.73787C32.6222 7.80987 32.5976 7.90587 32.6099 8.00187C33.2264 10.6299 33.2264 13.3539 32.6099 15.9819C32.5729 16.1379 32.6716 16.2939 32.8319 16.3299C32.9305 16.3539 33.0415 16.3179 33.1031 16.2459L36.6297 12.8139C37.0982 12.3579 37.0982 11.6259 36.6297 11.1699L33.1155 7.73787Z" fill="#4FC4F9"/>
<path d="M17.7516 18.0099C21.1634 18.0099 23.9292 15.3182 23.9292 11.9979C23.9292 8.67757 21.1634 5.9859 17.7516 5.9859C14.3398 5.9859 11.574 8.67757 11.574 11.9979C11.574 15.3182 14.3398 18.0099 17.7516 18.0099Z" fill="#4FC4F9"/>
</g>
<defs>
<clipPath id="clip0">
<rect width="36.9811" height="24.0015" fill="white"/>
</clipPath>
</defs>
</svg>
