<svg fill="none" height="32" viewBox="0 0 32 32" width="32" xmlns="http://www.w3.org/2000/svg"><path d="m24.6168 11.875c-.3759.3734-.8842.583-1.4141.583-.5298 0-1.0382-.2096-1.4141-.583l-1.6606-1.6606c-.3738-.37586-.5836-.88436-.5836-1.41442s.2098-1.03856.5836-1.41438l3.7588-3.76062c.0074-.00715.013-.01604.0161-.02586.0032-.00982.0039-.02027.002-.03042-.0018-.01016-.0062-.01969-.0126-.02775-.0065-.00807-.0148-.01441-.0243-.01847-2.4262-1.04-5.5719-.51-7.5694 1.47312-1.9112 1.89688-2.02 4.75001-1.32 7.24.0995.3539.0993.7285-.0007 1.0823-.0999.3538-.2956.6731-.5655.9227l-10.41251 9.5094c-.30721.2724-.55546.6047-.72948.9766-.17403.3718-.27016.7754-.28248 1.1857-.01232.4104.05943.819.21084 1.2006.15141.3817.37928.7283.66959 1.0186.29032.2903.63695.5182 1.01859.6696.38163.1514.7902.2232 1.20058.2108.41039-.0123.81392-.1084 1.18578-.2824.37187-.1741.7042-.4223.97658-.7295l9.61621-10.4375c.2465-.2654.5605-.4587.9084-.5592s.7166-.1045 1.0666-.0114c2.4713.6618 5.2838.5375 7.17-1.3244 2.0307-2 2.4688-5.535 1.4844-7.55815-.0044-.00884-.0109-.0165-.0189-.02235-.0079-.00586-.0172-.00974-.0269-.01133-.0098-.00158-.0198-.00083-.0292.0022s-.018.00825-.025.01523z" stroke="#000" stroke-linecap="round" stroke-miterlimit="10" stroke-width="2"/><path d="m6 27c.55228 0 1-.4477 1-1s-.44772-1-1-1-1 .4477-1 1 .44772 1 1 1z" fill="#000"/></svg>