<svg fill="none" height="30" viewBox="0 0 30 30" width="30" xmlns="http://www.w3.org/2000/svg"><path d="m20 16.25h-3.75c-.6875 0-1.25.5625-1.25 1.25v3.75c0 .6875.5625 1.25 1.25 1.25h3.75c.6875 0 1.25-.5625 1.25-1.25v-3.75c0-.6875-.5625-1.25-1.25-1.25zm0-12.5v1.25h-10v-1.25c0-.6875-.5625-1.25-1.25-1.25s-1.25.5625-1.25 1.25v1.25h-1.25c-1.3875 0-2.4875 1.125-2.4875 2.5l-.0125 17.5c0 .663.26339 1.2989.73223 1.7678.46884.4688 1.10473.7322 1.76777.7322h17.5c1.375 0 2.5-1.125 2.5-2.5v-17.5c0-1.375-1.125-2.5-2.5-2.5h-1.25v-1.25c0-.6875-.5625-1.25-1.25-1.25s-1.25.5625-1.25 1.25zm2.5 21.25h-15c-.6875 0-1.25-.5625-1.25-1.25v-12.5h17.5v12.5c0 .6875-.5625 1.25-1.25 1.25z" fill="#000"/></svg>