<svg fill="none" height="30" viewBox="0 0 30 30" width="30" xmlns="http://www.w3.org/2000/svg"><path d="m24.375 12.1875c.9942-.0012 1.9473-.3967 2.6503-1.0997s1.0985-1.65612 1.0997-2.6503v-2.8125h-2.8125c-.9599.00142-1.8822.37279-2.5753 1.03688-.4857-.88123-1.1987-1.61616-2.0648-2.12828s-1.8537-.78271-2.8599-.7836h-2.8125v2.8125c.0017 1.49131.5949 2.92104 1.6494 3.9756 1.0546 1.0545 2.4843 1.6477 3.9756 1.6494h.9375v12.1875h-11.25v-4.6875h.9375c.9942-.0012 1.9473-.3967 2.6503-1.0997s1.0985-1.6561 1.0997-2.6503v-2.8125h-2.8125c-.9599.0014-1.8822.3728-2.57531 1.0369-.48567-.8813-1.19868-1.6162-2.0648-2.1283-.86613-.5121-1.85369-.7827-2.85989-.7836h-2.8125v2.8125c.00174 1.4913.59493 2.921 1.64944 3.9756 1.05452 1.0545 2.48425 1.6477 3.97556 1.6494h.9375v4.6875h-6.5625v1.875h26.25v-1.875h-4.6875v-12.1875zm-.9375-2.8125c.0005-.49713.1982-.97375.5497-1.32528.3515-.35152.8282-.54922 1.3253-.54972h.9375v.9375c-.0005.49713-.1982.97375-.5497 1.32528-.3515.35152-.8282.54922-1.3253.54972h-.9375zm-13.125 7.5c.0005-.4971.1982-.9738.5497-1.3253s.8282-.5492 1.3253-.5497h.9375v.9375c-.0005.4971-.1982.9738-.5497 1.3253s-.8282.5492-1.3253.5497h-.9375zm-1.875.9375h-.9375c-.99418-.0012-1.94729-.3967-2.65028-1.0997s-1.09848-1.6561-1.09972-2.6503v-.9375h.9375c.99418.0012 1.94729.3967 2.65028 1.0997s1.09848 1.6561 1.09972 2.6503zm13.125-7.5h-.9375c-.9942-.0012-1.9473-.39673-2.6503-1.09972s-1.0985-1.6561-1.0997-2.65028v-.9375h.9375c.9942.00124 1.9473.39673 2.6503 1.09972s1.0985 1.6561 1.0997 2.65028z" fill="#000"/></svg>