<svg width="467" height="220" viewBox="0 0 467 220" fill="none" xmlns="http://www.w3.org/2000/svg">
<path fill-rule="evenodd" clip-rule="evenodd" d="M236.625 -102.5H236.878H281.845H282.098L282.277 -102.321L319.244 -65.3536H444.115C444.453 -65.3536 444.727 -65.0799 444.727 -64.7424C444.727 -64.4049 444.453 -64.1312 444.115 -64.1312H318.991H318.738L318.559 -64.3102L281.591 -101.278H237.131L220.692 -84.8386C220.453 -84.5999 220.066 -84.5999 219.827 -84.8386C219.589 -85.0772 219.589 -85.4642 219.827 -85.7029L236.446 -102.321L236.625 -102.5ZM103.934 -84.9045H103.681L103.502 -84.7255L70.4446 -51.6686H-37.8086C-38.1461 -51.6686 -38.4198 -51.3949 -38.4198 -51.0574C-38.4198 -50.7198 -38.1461 -50.4462 -37.8086 -50.4462H70.6978H70.9509L71.1299 -50.6252L104.187 -83.6821H184.092C184.43 -83.6821 184.703 -83.9558 184.703 -84.2933C184.703 -84.6308 184.43 -84.9045 184.092 -84.9045H103.934ZM145.969 -65.3535C145.631 -65.3535 145.357 -65.0798 145.357 -64.7423C145.357 -64.4047 145.631 -64.1311 145.969 -64.1311H272.07C272.092 -64.1311 272.112 -64.1322 272.133 -64.1343C272.551 -61.6385 274.721 -59.7366 277.335 -59.7366C280.248 -59.7366 282.61 -62.0982 282.61 -65.0113C282.61 -67.9245 280.248 -70.2861 277.335 -70.2861C274.537 -70.2861 272.248 -68.1072 272.071 -65.3535H272.07H145.969ZM340.498 -30.1622C340.16 -30.1622 339.887 -29.8885 339.887 -29.551C339.887 -29.2134 340.16 -28.9398 340.498 -28.9398H465.622C465.96 -28.9398 466.233 -29.2134 466.233 -29.551C466.233 -29.8885 465.96 -30.1622 465.622 -30.1622H340.498ZM298.133 -46.7573C298.133 -47.0948 298.406 -47.3684 298.744 -47.3684H465.623C465.96 -47.3684 466.234 -47.0948 466.234 -46.7573C466.234 -46.4197 465.96 -46.1461 465.623 -46.1461H298.744C298.406 -46.1461 298.133 -46.4197 298.133 -46.7573ZM128.753 -6.89529C128.99 -7.13558 128.988 -7.52254 128.747 -7.75959C128.507 -7.99664 128.12 -7.99401 127.883 -7.75372L117.844 2.42287H34.0311C33.6936 2.42287 33.4199 2.6965 33.4199 3.03404C33.4199 3.37158 33.6936 3.64521 34.0311 3.64521H118.099H118.355L118.534 3.46326L128.753 -6.89529ZM129.073 -31.8909H129.326H223.126C223.464 -31.8909 223.737 -31.6173 223.737 -31.2798C223.737 -30.9422 223.464 -30.6686 223.126 -30.6686H129.58L111.674 -12.7631L111.495 -12.5841H111.242H27.1737C26.8361 -12.5841 26.5625 -12.8577 26.5625 -13.1953C26.5625 -13.5328 26.8361 -13.8064 27.1737 -13.8064H110.989L128.894 -31.7119L129.073 -31.8909ZM116.642 -45.8035H116.389L116.21 -45.6245L95.861 -25.2754H77.5409C77.2033 -25.2754 76.9297 -25.0018 76.9297 -24.6643C76.9297 -24.3267 77.2033 -24.0531 77.5409 -24.0531H96.1142H96.3673L96.5463 -24.2321L116.895 -44.5812H248.356L281.903 -11.035L282.082 -10.856H282.335H323.88C324.217 -10.856 324.491 -11.1297 324.491 -11.4672C324.491 -11.8047 324.217 -12.0784 323.88 -12.0784H282.588L249.042 -45.6245L248.863 -45.8035H248.61H116.642ZM179.502 -1.70433C181.419 -1.70433 182.989 -3.19707 183.111 -5.0841H244.579L276.216 26.5529L276.395 26.7319H276.648H371.608C371.945 26.7319 372.219 26.4582 372.219 26.1207C372.219 25.7832 371.945 25.5095 371.608 25.5095H276.902L245.265 -6.12743L245.086 -6.30643H244.832H182.983C182.554 -7.82525 181.158 -8.93827 179.502 -8.93827C177.504 -8.93827 175.885 -7.3189 175.885 -5.3213C175.885 -3.32371 177.504 -1.70433 179.502 -1.70433ZM251.164 -20.0679C250.926 -20.3066 250.539 -20.3066 250.3 -20.0679C250.061 -19.8293 250.061 -19.4423 250.3 -19.2036L282.116 12.6123L282.295 12.7913H282.548H377.507C377.845 12.7913 378.119 12.5177 378.119 12.1802C378.119 11.8426 377.845 11.569 377.507 11.569H282.801L251.164 -20.0679ZM344.564 50.5938C344.564 50.2562 344.838 49.9826 345.176 49.9826H426.919C427.256 49.9826 427.53 50.2562 427.53 50.5938C427.53 50.9313 427.256 51.205 426.919 51.205H345.176C344.838 51.205 344.564 50.9313 344.564 50.5938ZM354.23 90.8542H353.977L353.798 91.0333L333.974 110.857C333.735 111.096 333.735 111.483 333.974 111.722C334.213 111.96 334.6 111.96 334.838 111.722L354.483 92.0766H429.365C429.703 92.0766 429.976 91.803 429.976 91.4654C429.976 91.1279 429.703 90.8542 429.365 90.8542H354.23ZM5.32812 218.365C5.32812 218.027 5.60175 217.754 5.93929 217.754H114.028H114.281L114.46 217.933L133.598 237.07C133.836 237.309 133.836 237.696 133.598 237.934C133.359 238.173 132.972 238.173 132.733 237.934L113.775 218.976H5.93929C5.60175 218.976 5.32812 218.702 5.32812 218.365ZM320.624 211.384H320.371L320.192 211.563L263.111 268.644H106.622L91.309 253.331L91.13 253.152H90.8768H56.4442C55.9918 250.698 53.8415 248.839 51.257 248.839C48.6726 248.839 46.5222 250.698 46.0699 253.152H40.451C40.1135 253.152 39.8398 253.425 39.8398 253.763C39.8398 254.1 40.1135 254.374 40.451 254.374H45.9886C46.124 257.166 48.431 259.389 51.257 259.389C54.0831 259.389 56.39 257.166 56.5255 254.374H90.6237L105.937 269.687L106.116 269.866H106.369H263.364H263.617L263.796 269.687L320.877 212.606H349.408C349.745 212.606 350.019 212.332 350.019 211.995C350.019 211.657 349.745 211.384 349.408 211.384H320.624ZM51.257 250.062C53.1635 250.062 54.7625 251.378 55.1945 253.152H47.3196C47.7516 251.378 49.3506 250.062 51.257 250.062ZM51.257 258.167C49.1062 258.167 47.3468 256.491 47.2128 254.374H55.3012C55.1673 256.491 53.4078 258.167 51.257 258.167ZM323.101 189.086H323.349H353.584C353.922 189.086 354.196 189.36 354.196 189.698C354.196 190.035 353.922 190.309 353.584 190.309H323.597L255.777 256.053L255.599 256.225H255.352H123.676H123.423L123.244 256.046L107.93 240.733H57.7577C57.4202 240.733 57.1466 240.459 57.1466 240.121C57.1466 239.784 57.4202 239.51 57.7577 239.51H108.184H108.437L108.616 239.689L123.929 255.003H255.104L322.924 189.259L323.101 189.086ZM310.036 171.305H309.789L309.611 171.476L251.385 227.628H199.418C198.96 226.156 197.587 225.088 195.964 225.088C193.967 225.088 192.348 226.707 192.348 228.705C192.348 230.702 193.967 232.322 195.964 232.322C197.913 232.322 199.502 230.78 199.579 228.85H251.631H251.878L252.055 228.679L310.282 172.527H340.271C340.608 172.527 340.882 172.253 340.882 171.916C340.882 171.578 340.608 171.305 340.271 171.305H310.036ZM-61.9004 282.925C-61.9004 282.588 -61.6268 282.314 -61.2892 282.314H91.2032H91.4563L91.6353 282.493L109.379 300.236H173.828C174.166 300.236 174.44 300.51 174.44 300.848C174.44 301.185 174.166 301.459 173.828 301.459H109.126H108.873L108.694 301.28L90.95 283.536H-61.2892C-61.6268 283.536 -61.9004 283.263 -61.9004 282.925ZM230.264 286.246C230.025 286.008 229.638 286.008 229.4 286.246C229.161 286.485 229.161 286.872 229.4 287.111L244.48 302.191L244.659 302.37H244.912H404.695C405.032 302.37 405.306 302.096 405.306 301.758C405.306 301.421 405.032 301.147 404.695 301.147H245.165L230.264 286.246ZM322.64 278.516C322.652 278.515 322.664 278.515 322.676 278.515H411.376C411.714 278.515 411.987 278.788 411.987 279.126C411.987 279.463 411.714 279.737 411.376 279.737H322.676C322.661 279.737 322.646 279.736 322.631 279.735C322.311 282.342 320.089 284.36 317.396 284.36C314.483 284.36 312.121 281.999 312.121 279.086C312.121 276.173 314.483 273.811 317.396 273.811C320.116 273.811 322.356 275.871 322.64 278.516ZM324.015 232.799H323.762L323.583 232.978L299.585 256.976C299.347 257.215 299.347 257.602 299.585 257.84C299.824 258.079 300.211 258.079 300.45 257.84L324.268 234.022H394.186C394.524 234.022 394.797 233.748 394.797 233.41C394.797 233.073 394.524 232.799 394.186 232.799H324.015ZM-18.7656 181.466C-18.7656 181.129 -18.492 180.855 -18.1545 180.855H88.165C88.5026 180.855 88.7762 181.129 88.7762 181.466C88.7762 181.804 88.5026 182.078 88.165 182.078H-18.1545C-18.492 182.078 -18.7656 181.804 -18.7656 181.466ZM147.582 186.099C147.821 185.861 147.821 185.474 147.582 185.235C147.344 184.996 146.957 184.996 146.718 185.235L126.796 205.157H74.668C74.1943 203.712 72.8341 202.667 71.2301 202.667C69.2325 202.667 67.6131 204.287 67.6131 206.284C67.6131 208.282 69.2325 209.901 71.2301 209.901C73.1959 209.901 74.7954 208.333 74.8458 206.38H127.049H127.302L127.481 206.201L147.582 186.099ZM405.645 126.689L308.599 126.689C308.262 126.689 307.988 126.415 307.988 126.078C307.988 125.74 308.262 125.467 308.599 125.467L405.645 125.467C405.983 125.467 406.256 125.74 406.256 126.078C406.256 126.415 405.983 126.689 405.645 126.689ZM82.0859 56.0574C80.2795 55.8556 78.875 54.3233 78.875 52.463C78.875 50.4653 80.4944 48.846 82.492 48.846C84.4896 48.846 86.109 50.4653 86.109 52.463C86.109 54.1798 84.9128 55.6173 83.3083 55.9874V92.155H105.857C106.194 92.155 106.468 92.4286 106.468 92.7661C106.468 93.1037 106.194 93.3773 105.857 93.3773H82.6971H82.0859V92.7661V56.0574ZM98.4902 15.0011C98.4902 14.6635 98.7639 14.3899 99.1014 14.3899H132.516H132.774L132.954 14.5744L148.173 30.1812C148.409 30.4228 148.404 30.8098 148.162 31.0454C147.921 31.2811 147.534 31.2762 147.298 31.0346L132.258 15.6122H99.1014C98.7639 15.6122 98.4902 15.3386 98.4902 15.0011ZM325.582 74.4883C323.85 74.219 322.525 72.7215 322.525 70.9146C322.525 68.9169 324.145 67.2976 326.142 67.2976C328.14 67.2976 329.759 68.9169 329.759 70.9146C329.759 72.6861 328.486 74.1602 326.804 74.4711V97.781V98.3922H326.193H312.092C311.754 98.3922 311.48 98.1185 311.48 97.781C311.48 97.4434 311.754 97.1698 312.092 97.1698H325.582V74.4883ZM2.32812 -77.1794C2.32812 -77.517 2.60175 -77.7906 2.93929 -77.7906H33.0126C33.3794 -80.3456 35.5772 -82.3092 38.2336 -82.3092C41.1468 -82.3092 43.5084 -79.9476 43.5084 -77.0345C43.5084 -74.1213 41.1468 -71.7597 38.2336 -71.7597C35.4775 -71.7597 33.2152 -73.8734 32.9791 -76.5682H2.93929C2.60175 -76.5682 2.32812 -76.8419 2.32812 -77.1794ZM331.447 -92.0428C331.11 -92.0428 330.836 -91.7692 330.836 -91.4316C330.836 -91.0941 331.11 -90.8204 331.447 -90.8204H408.217C408.554 -90.8204 408.828 -91.0941 408.828 -91.4316C408.828 -91.7692 408.554 -92.0428 408.217 -92.0428H331.447ZM2.94141 128.467C2.94141 128.129 3.21503 127.856 3.55257 127.856H105.278C105.616 127.856 105.89 128.129 105.89 128.467C105.89 128.804 105.616 129.078 105.278 129.078H3.55257C3.21503 129.078 2.94141 128.804 2.94141 128.467ZM42.286 -77.0345C42.286 -74.7964 40.4717 -72.9821 38.2336 -72.9821C35.9955 -72.9821 34.1812 -74.7964 34.1812 -77.0345C34.1812 -79.2726 35.9955 -81.0869 38.2336 -81.0869C40.4717 -81.0869 42.286 -79.2726 42.286 -77.0345ZM277.335 -60.9589C279.573 -60.9589 281.388 -62.7733 281.388 -65.0113C281.388 -67.2494 279.573 -69.0638 277.335 -69.0638C275.097 -69.0638 273.283 -67.2494 273.283 -65.0113C273.283 -62.7733 275.097 -60.9589 277.335 -60.9589ZM321.448 279.086C321.448 281.324 319.634 283.138 317.396 283.138C315.158 283.138 313.343 281.324 313.343 279.086C313.343 276.848 315.158 275.033 317.396 275.033C319.634 275.033 321.448 276.848 321.448 279.086Z" fill="url(#paint0_radial_8794_50034)"/>
<path d="M162.98 39.0733L167.743 47.3227" stroke="#5D48FC" stroke-width="1.22234"/>
<path d="M240.379 173.132L245.142 181.382" stroke="#0BC1D4" stroke-width="1.22234"/>
<path d="M162.979 183.195L167.741 174.946" stroke="#11A9E0" stroke-width="1.22234"/>
<path d="M240.377 49.1355L245.14 40.8861" stroke="#3C63F8" stroke-width="1.22234"/>
<path d="M204.582 27.9263V37.4519" stroke="#5251FB" stroke-width="1.22234"/>
<path d="M204.582 182.725V192.25" stroke="#0DB9D8" stroke-width="1.22234"/>
<path fill-rule="evenodd" clip-rule="evenodd" d="M104.592 73.7117V106.439H124.934V101.469H110.52V73.7117H104.592ZM145.469 81.8935V96.1158C145.469 97.3622 145.208 98.4009 144.686 99.2319C144.175 100.052 143.519 100.67 142.72 101.086C141.921 101.501 141.096 101.709 140.243 101.709C138.858 101.709 137.74 101.251 136.888 100.335C136.035 99.4183 135.609 98.1826 135.609 96.6272V81.8935H129.824V97.522C129.824 99.4823 130.171 101.155 130.863 102.54C131.556 103.914 132.514 104.963 133.74 105.688C134.975 106.402 136.398 106.759 138.006 106.759C139.849 106.759 141.399 106.322 142.656 105.448C143.924 104.575 144.835 103.451 145.389 102.076H145.645V106.439H151.254V81.8935H145.469ZM162.987 106.439V92.0568C162.987 90.8743 163.206 89.8676 163.642 89.0366C164.09 88.2056 164.702 87.5718 165.48 87.135C166.268 86.6875 167.169 86.4638 168.181 86.4638C169.672 86.4638 170.839 86.9272 171.68 87.8541C172.533 88.7809 172.959 90.0647 172.959 91.7053V106.439H178.744V90.8104C178.754 88.8502 178.408 87.1829 177.705 85.8086C177.012 84.4343 176.032 83.385 174.764 82.6605C173.507 81.9361 172.032 81.5739 170.338 81.5739C168.506 81.5739 166.966 81.9787 165.72 82.7884C164.484 83.598 163.584 84.69 163.019 86.0643H162.731V81.8935H157.202V106.439H162.987ZM189.019 105.304C190.777 106.38 192.881 106.918 195.331 106.918C197.387 106.918 199.177 106.545 200.7 105.8C202.224 105.043 203.427 103.999 204.312 102.668C205.196 101.325 205.707 99.7859 205.846 98.0494H200.317C200.146 98.9336 199.832 99.6847 199.374 100.303C198.916 100.92 198.346 101.395 197.664 101.725C196.993 102.044 196.231 102.204 195.379 102.204C194.175 102.204 193.126 101.885 192.231 101.245C191.347 100.596 190.659 99.674 190.169 98.4808C189.679 97.277 189.434 95.8388 189.434 94.1662C189.434 92.5149 189.679 91.098 190.169 89.9155C190.67 88.733 191.368 87.8274 192.263 87.1989C193.158 86.5597 194.196 86.2401 195.379 86.2401C196.774 86.2401 197.888 86.6396 198.719 87.4386C199.56 88.2269 200.093 89.2124 200.317 90.3949H205.846C205.718 88.6264 205.196 87.0817 204.28 85.7607C203.364 84.429 202.133 83.4009 200.588 82.6765C199.054 81.9414 197.291 81.5739 195.299 81.5739C192.902 81.5739 190.824 82.1119 189.067 83.1879C187.32 84.2532 185.967 85.7447 185.008 87.6623C184.049 89.5693 183.57 91.7692 183.57 94.2621C183.57 96.7443 184.038 98.9389 184.976 100.846C185.924 102.742 187.272 104.228 189.019 105.304ZM216.381 106.439V92.0568C216.381 90.8743 216.604 89.8676 217.052 89.0366C217.51 88.2056 218.138 87.5718 218.938 87.135C219.747 86.6875 220.663 86.4638 221.686 86.4638C223.21 86.4638 224.392 86.9272 225.234 87.8541C226.086 88.7703 226.512 90.054 226.512 91.7053V106.439H232.297V90.8104C232.297 88.8289 231.945 87.1509 231.242 85.7767C230.55 84.4024 229.57 83.3583 228.302 82.6446C227.034 81.9308 225.548 81.5739 223.843 81.5739C221.968 81.5739 220.424 81.9787 219.209 82.7884C218.005 83.5874 217.116 84.6794 216.54 86.0643H216.253V73.7117H210.596V106.439H216.381ZM104.798 147.291C106.045 147.845 107.445 148.122 109.001 148.122C110.279 148.122 111.393 147.946 112.341 147.595C113.3 147.232 114.093 146.758 114.722 146.172C115.361 145.576 115.856 144.937 116.208 144.255H116.4V147.627H121.961V131.199C121.961 129.569 121.662 128.211 121.066 127.124C120.48 126.037 119.702 125.18 118.733 124.551C117.763 123.912 116.693 123.454 115.521 123.177C114.349 122.9 113.172 122.762 111.989 122.762C110.274 122.762 108.708 123.017 107.291 123.529C105.874 124.029 104.676 124.786 103.695 125.798C102.715 126.799 102.012 128.046 101.586 129.537L106.987 130.304C107.275 129.463 107.829 128.733 108.649 128.115C109.48 127.497 110.604 127.188 112.021 127.188C113.363 127.188 114.392 127.518 115.105 128.179C115.819 128.839 116.176 129.772 116.176 130.975V131.071C116.176 131.625 115.968 132.035 115.553 132.302C115.148 132.557 114.498 132.749 113.603 132.877C112.708 132.994 111.542 133.127 110.104 133.276C108.91 133.404 107.754 133.612 106.636 133.9C105.528 134.177 104.532 134.587 103.648 135.13C102.763 135.674 102.066 136.398 101.554 137.303C101.043 138.209 100.787 139.354 100.787 140.739C100.787 142.348 101.144 143.701 101.858 144.798C102.582 145.895 103.562 146.726 104.798 147.291ZM113.523 143.184C112.671 143.642 111.664 143.871 110.503 143.871C109.299 143.871 108.308 143.6 107.531 143.056C106.753 142.513 106.364 141.709 106.364 140.643C106.364 139.898 106.561 139.29 106.955 138.822C107.35 138.342 107.888 137.969 108.569 137.703C109.251 137.437 110.024 137.245 110.887 137.128C111.27 137.074 111.723 137.011 112.245 136.936C112.767 136.861 113.294 136.776 113.827 136.68C114.36 136.584 114.839 136.473 115.265 136.345C115.702 136.217 116.011 136.078 116.192 135.929V138.822C116.192 139.727 115.958 140.563 115.489 141.33C115.031 142.098 114.376 142.715 113.523 143.184ZM133.562 147.627V133.245C133.562 132.062 133.781 131.055 134.218 130.224C134.665 129.393 135.278 128.759 136.055 128.323C136.844 127.875 137.744 127.651 138.756 127.651C140.247 127.651 141.414 128.115 142.256 129.042C143.108 129.969 143.534 131.252 143.534 132.893V147.627H149.319V131.998C149.329 130.038 148.983 128.371 148.28 126.996C147.588 125.622 146.607 124.573 145.34 123.848C144.083 123.124 142.607 122.762 140.913 122.762C139.081 122.762 137.541 123.166 136.295 123.976C135.059 124.786 134.159 125.878 133.594 127.252H133.307V123.081H127.778V147.627H133.562ZM159.131 146.572C160.654 147.563 162.38 148.058 164.308 148.058C165.714 148.058 166.881 147.824 167.808 147.355C168.735 146.886 169.48 146.322 170.045 145.661C170.61 144.99 171.041 144.356 171.339 143.759H171.691V147.627H177.38V114.899H171.579V127.14H171.339C171.041 126.544 170.62 125.91 170.077 125.238C169.534 124.557 168.798 123.976 167.872 123.497C166.945 123.007 165.762 122.762 164.324 122.762C162.438 122.762 160.729 123.246 159.194 124.216C157.66 125.175 156.441 126.597 155.535 128.482C154.64 130.357 154.193 132.659 154.193 135.386C154.193 138.081 154.635 140.372 155.519 142.257C156.403 144.143 157.607 145.581 159.131 146.572ZM169.054 142.321C168.191 142.982 167.147 143.312 165.922 143.312C164.654 143.312 163.584 142.971 162.71 142.289C161.847 141.597 161.192 140.654 160.744 139.461C160.308 138.257 160.089 136.888 160.089 135.354C160.089 133.83 160.308 132.477 160.744 131.295C161.181 130.112 161.831 129.186 162.694 128.514C163.557 127.843 164.633 127.508 165.922 127.508C167.169 127.508 168.218 127.833 169.07 128.482C169.933 129.132 170.583 130.043 171.02 131.215C171.467 132.387 171.691 133.767 171.691 135.354C171.691 136.941 171.467 138.332 171.02 139.525C170.572 140.718 169.917 141.65 169.054 142.321ZM191.241 114.899V147.627H211.584V142.657H197.17V114.899H191.241ZM220.964 146.572C222.754 147.595 224.879 148.106 227.34 148.106C229.247 148.106 230.941 147.818 232.422 147.243C233.903 146.657 235.117 145.837 236.065 144.782C237.024 143.717 237.674 142.47 238.015 141.043L232.614 140.436C232.358 141.128 231.98 141.709 231.479 142.177C230.978 142.646 230.387 143.003 229.705 143.248C229.024 143.482 228.262 143.6 227.42 143.6C226.163 143.6 225.066 143.333 224.128 142.801C223.191 142.257 222.461 141.48 221.939 140.468C221.435 139.479 221.174 138.302 221.157 136.936H238.255V135.162C238.255 133.01 237.956 131.156 237.36 129.601C236.763 128.035 235.943 126.746 234.899 125.734C233.866 124.722 232.672 123.976 231.319 123.497C229.977 123.007 228.549 122.762 227.037 122.762C224.693 122.762 222.653 123.3 220.916 124.376C219.18 125.441 217.827 126.932 216.857 128.85C215.899 130.757 215.419 132.973 215.419 135.498C215.419 138.065 215.899 140.297 216.857 142.193C217.816 144.079 219.185 145.539 220.964 146.572ZM221.168 133.037C221.223 132.075 221.47 131.186 221.907 130.368C222.408 129.441 223.106 128.696 224 128.131C224.895 127.556 225.934 127.268 227.117 127.268C228.225 127.268 229.194 127.518 230.025 128.019C230.867 128.52 231.522 129.207 231.991 130.08C232.459 130.943 232.699 131.929 232.71 133.037H221.168ZM246.009 147.291C247.256 147.845 248.656 148.122 250.212 148.122C251.49 148.122 252.604 147.946 253.552 147.595C254.51 147.232 255.304 146.758 255.933 146.172C256.572 145.576 257.067 144.937 257.419 144.255H257.611V147.627H263.172V131.199C263.172 129.569 262.873 128.211 262.277 127.124C261.691 126.037 260.913 125.18 259.944 124.551C258.974 123.912 257.904 123.454 256.732 123.177C255.56 122.9 254.383 122.762 253.2 122.762C251.485 122.762 249.919 123.017 248.502 123.529C247.085 124.029 245.887 124.786 244.906 125.798C243.926 126.799 243.223 128.046 242.797 129.537L248.198 130.304C248.486 129.463 249.04 128.733 249.86 128.115C250.691 127.497 251.815 127.188 253.232 127.188C254.574 127.188 255.602 127.518 256.316 128.179C257.03 128.839 257.387 129.772 257.387 130.975V131.071C257.387 131.625 257.179 132.035 256.764 132.302C256.359 132.557 255.709 132.749 254.814 132.877C253.919 132.994 252.753 133.127 251.314 133.276C250.121 133.404 248.965 133.612 247.847 133.9C246.739 134.177 245.743 134.587 244.858 135.13C243.974 135.674 243.276 136.398 242.765 137.303C242.254 138.209 241.998 139.354 241.998 140.739C241.998 142.348 242.355 143.701 243.069 144.798C243.793 145.895 244.773 146.726 246.009 147.291ZM254.734 143.184C253.882 143.642 252.875 143.871 251.714 143.871C250.51 143.871 249.519 143.6 248.742 143.056C247.964 142.513 247.575 141.709 247.575 140.643C247.575 139.898 247.772 139.29 248.166 138.822C248.561 138.342 249.099 137.969 249.78 137.703C250.462 137.437 251.235 137.245 252.097 137.128C252.481 137.074 252.934 137.011 253.456 136.936C253.978 136.861 254.505 136.776 255.038 136.68C255.57 136.584 256.05 136.473 256.476 136.345C256.913 136.217 257.222 136.078 257.403 135.929V138.822C257.403 139.727 257.169 140.563 256.7 141.33C256.242 142.098 255.586 142.715 254.734 143.184ZM274.597 123.081H268.988V147.627H274.773V133.197C274.773 132.153 275.013 131.231 275.492 130.432C275.972 129.633 276.627 129.01 277.458 128.562C278.3 128.104 279.248 127.875 280.302 127.875C280.792 127.875 281.298 127.912 281.82 127.987C282.353 128.051 282.742 128.126 282.987 128.211V122.889C282.721 122.836 282.385 122.799 281.98 122.778C281.586 122.746 281.229 122.73 280.91 122.73C279.503 122.73 278.252 123.118 277.154 123.896C276.068 124.663 275.301 125.755 274.853 127.172H274.597V123.081ZM286.83 147.627H292.615V133.245C292.615 132.062 292.833 131.055 293.27 130.224C293.718 129.393 294.33 128.759 295.108 128.323C295.896 127.875 296.797 127.651 297.809 127.651C299.3 127.651 300.467 128.115 301.308 129.042C302.161 129.969 302.587 131.252 302.587 132.893V147.627H308.371V131.998C308.382 130.038 308.036 128.371 307.333 126.996C306.64 125.622 305.66 124.573 304.392 123.848C303.135 123.124 301.66 122.762 299.966 122.762C298.134 122.762 296.594 123.166 295.348 123.976C294.112 124.786 293.212 125.878 292.647 127.252H292.359V123.081H286.83V147.627Z" fill="white"/>
<path fill-rule="evenodd" clip-rule="evenodd" d="M104.592 73.7117V106.439H124.934V101.469H110.52V73.7117H104.592ZM145.469 81.8935V96.1158C145.469 97.3622 145.208 98.4009 144.686 99.2319C144.175 100.052 143.519 100.67 142.72 101.086C141.921 101.501 141.096 101.709 140.243 101.709C138.858 101.709 137.74 101.251 136.888 100.335C136.035 99.4183 135.609 98.1826 135.609 96.6272V81.8935H129.824V97.522C129.824 99.4823 130.171 101.155 130.863 102.54C131.556 103.914 132.514 104.963 133.74 105.688C134.975 106.402 136.398 106.759 138.006 106.759C139.849 106.759 141.399 106.322 142.656 105.448C143.924 104.575 144.835 103.451 145.389 102.076H145.645V106.439H151.254V81.8935H145.469ZM162.987 106.439V92.0568C162.987 90.8743 163.206 89.8676 163.642 89.0366C164.09 88.2056 164.702 87.5718 165.48 87.135C166.268 86.6875 167.169 86.4638 168.181 86.4638C169.672 86.4638 170.839 86.9272 171.68 87.8541C172.533 88.7809 172.959 90.0647 172.959 91.7053V106.439H178.744V90.8104C178.754 88.8502 178.408 87.1829 177.705 85.8086C177.012 84.4343 176.032 83.385 174.764 82.6605C173.507 81.9361 172.032 81.5739 170.338 81.5739C168.506 81.5739 166.966 81.9787 165.72 82.7884C164.484 83.598 163.584 84.69 163.019 86.0643H162.731V81.8935H157.202V106.439H162.987ZM189.019 105.304C190.777 106.38 192.881 106.918 195.331 106.918C197.387 106.918 199.177 106.545 200.7 105.8C202.224 105.043 203.427 103.999 204.312 102.668C205.196 101.325 205.707 99.7859 205.846 98.0494H200.317C200.146 98.9336 199.832 99.6847 199.374 100.303C198.916 100.92 198.346 101.395 197.664 101.725C196.993 102.044 196.231 102.204 195.379 102.204C194.175 102.204 193.126 101.885 192.231 101.245C191.347 100.596 190.659 99.674 190.169 98.4808C189.679 97.277 189.434 95.8388 189.434 94.1662C189.434 92.5149 189.679 91.098 190.169 89.9155C190.67 88.733 191.368 87.8274 192.263 87.1989C193.158 86.5597 194.196 86.2401 195.379 86.2401C196.774 86.2401 197.888 86.6396 198.719 87.4386C199.56 88.2269 200.093 89.2124 200.317 90.3949H205.846C205.718 88.6264 205.196 87.0817 204.28 85.7607C203.364 84.429 202.133 83.4009 200.588 82.6765C199.054 81.9414 197.291 81.5739 195.299 81.5739C192.902 81.5739 190.824 82.1119 189.067 83.1879C187.32 84.2532 185.967 85.7447 185.008 87.6623C184.049 89.5693 183.57 91.7692 183.57 94.2621C183.57 96.7443 184.038 98.9389 184.976 100.846C185.924 102.742 187.272 104.228 189.019 105.304ZM216.381 106.439V92.0568C216.381 90.8743 216.604 89.8676 217.052 89.0366C217.51 88.2056 218.138 87.5718 218.938 87.135C219.747 86.6875 220.663 86.4638 221.686 86.4638C223.21 86.4638 224.392 86.9272 225.234 87.8541C226.086 88.7703 226.512 90.054 226.512 91.7053V106.439H232.297V90.8104C232.297 88.8289 231.945 87.1509 231.242 85.7767C230.55 84.4024 229.57 83.3583 228.302 82.6446C227.034 81.9308 225.548 81.5739 223.843 81.5739C221.968 81.5739 220.424 81.9787 219.209 82.7884C218.005 83.5874 217.116 84.6794 216.54 86.0643H216.253V73.7117H210.596V106.439H216.381ZM104.798 147.291C106.045 147.845 107.445 148.122 109.001 148.122C110.279 148.122 111.393 147.946 112.341 147.595C113.3 147.232 114.093 146.758 114.722 146.172C115.361 145.576 115.856 144.937 116.208 144.255H116.4V147.627H121.961V131.199C121.961 129.569 121.662 128.211 121.066 127.124C120.48 126.037 119.702 125.18 118.733 124.551C117.763 123.912 116.693 123.454 115.521 123.177C114.349 122.9 113.172 122.762 111.989 122.762C110.274 122.762 108.708 123.017 107.291 123.529C105.874 124.029 104.676 124.786 103.695 125.798C102.715 126.799 102.012 128.046 101.586 129.537L106.987 130.304C107.275 129.463 107.829 128.733 108.649 128.115C109.48 127.497 110.604 127.188 112.021 127.188C113.363 127.188 114.392 127.518 115.105 128.179C115.819 128.839 116.176 129.772 116.176 130.975V131.071C116.176 131.625 115.968 132.035 115.553 132.302C115.148 132.557 114.498 132.749 113.603 132.877C112.708 132.994 111.542 133.127 110.104 133.276C108.91 133.404 107.754 133.612 106.636 133.9C105.528 134.177 104.532 134.587 103.648 135.13C102.763 135.674 102.066 136.398 101.554 137.303C101.043 138.209 100.787 139.354 100.787 140.739C100.787 142.348 101.144 143.701 101.858 144.798C102.582 145.895 103.562 146.726 104.798 147.291ZM113.523 143.184C112.671 143.642 111.664 143.871 110.503 143.871C109.299 143.871 108.308 143.6 107.531 143.056C106.753 142.513 106.364 141.709 106.364 140.643C106.364 139.898 106.561 139.29 106.955 138.822C107.35 138.342 107.888 137.969 108.569 137.703C109.251 137.437 110.024 137.245 110.887 137.128C111.27 137.074 111.723 137.011 112.245 136.936C112.767 136.861 113.294 136.776 113.827 136.68C114.36 136.584 114.839 136.473 115.265 136.345C115.702 136.217 116.011 136.078 116.192 135.929V138.822C116.192 139.727 115.958 140.563 115.489 141.33C115.031 142.098 114.376 142.715 113.523 143.184ZM133.562 147.627V133.245C133.562 132.062 133.781 131.055 134.218 130.224C134.665 129.393 135.278 128.759 136.055 128.323C136.844 127.875 137.744 127.651 138.756 127.651C140.247 127.651 141.414 128.115 142.256 129.042C143.108 129.969 143.534 131.252 143.534 132.893V147.627H149.319V131.998C149.329 130.038 148.983 128.371 148.28 126.996C147.588 125.622 146.607 124.573 145.34 123.848C144.083 123.124 142.607 122.762 140.913 122.762C139.081 122.762 137.541 123.166 136.295 123.976C135.059 124.786 134.159 125.878 133.594 127.252H133.307V123.081H127.778V147.627H133.562ZM159.131 146.572C160.654 147.563 162.38 148.058 164.308 148.058C165.714 148.058 166.881 147.824 167.808 147.355C168.735 146.886 169.48 146.322 170.045 145.661C170.61 144.99 171.041 144.356 171.339 143.759H171.691V147.627H177.38V114.899H171.579V127.14H171.339C171.041 126.544 170.62 125.91 170.077 125.238C169.534 124.557 168.798 123.976 167.872 123.497C166.945 123.007 165.762 122.762 164.324 122.762C162.438 122.762 160.729 123.246 159.194 124.216C157.66 125.175 156.441 126.597 155.535 128.482C154.64 130.357 154.193 132.659 154.193 135.386C154.193 138.081 154.635 140.372 155.519 142.257C156.403 144.143 157.607 145.581 159.131 146.572ZM169.054 142.321C168.191 142.982 167.147 143.312 165.922 143.312C164.654 143.312 163.584 142.971 162.71 142.289C161.847 141.597 161.192 140.654 160.744 139.461C160.308 138.257 160.089 136.888 160.089 135.354C160.089 133.83 160.308 132.477 160.744 131.295C161.181 130.112 161.831 129.186 162.694 128.514C163.557 127.843 164.633 127.508 165.922 127.508C167.169 127.508 168.218 127.833 169.07 128.482C169.933 129.132 170.583 130.043 171.02 131.215C171.467 132.387 171.691 133.767 171.691 135.354C171.691 136.941 171.467 138.332 171.02 139.525C170.572 140.718 169.917 141.65 169.054 142.321ZM191.241 114.899V147.627H211.584V142.657H197.17V114.899H191.241ZM220.964 146.572C222.754 147.595 224.879 148.106 227.34 148.106C229.247 148.106 230.941 147.818 232.422 147.243C233.903 146.657 235.117 145.837 236.065 144.782C237.024 143.717 237.674 142.47 238.015 141.043L232.614 140.436C232.358 141.128 231.98 141.709 231.479 142.177C230.978 142.646 230.387 143.003 229.705 143.248C229.024 143.482 228.262 143.6 227.42 143.6C226.163 143.6 225.066 143.333 224.128 142.801C223.191 142.257 222.461 141.48 221.939 140.468C221.435 139.479 221.174 138.302 221.157 136.936H238.255V135.162C238.255 133.01 237.956 131.156 237.36 129.601C236.763 128.035 235.943 126.746 234.899 125.734C233.866 124.722 232.672 123.976 231.319 123.497C229.977 123.007 228.549 122.762 227.037 122.762C224.693 122.762 222.653 123.3 220.916 124.376C219.18 125.441 217.827 126.932 216.857 128.85C215.899 130.757 215.419 132.973 215.419 135.498C215.419 138.065 215.899 140.297 216.857 142.193C217.816 144.079 219.185 145.539 220.964 146.572ZM221.168 133.037C221.223 132.075 221.47 131.186 221.907 130.368C222.408 129.441 223.106 128.696 224 128.131C224.895 127.556 225.934 127.268 227.117 127.268C228.225 127.268 229.194 127.518 230.025 128.019C230.867 128.52 231.522 129.207 231.991 130.08C232.459 130.943 232.699 131.929 232.71 133.037H221.168ZM246.009 147.291C247.256 147.845 248.656 148.122 250.212 148.122C251.49 148.122 252.604 147.946 253.552 147.595C254.51 147.232 255.304 146.758 255.933 146.172C256.572 145.576 257.067 144.937 257.419 144.255H257.611V147.627H263.172V131.199C263.172 129.569 262.873 128.211 262.277 127.124C261.691 126.037 260.913 125.18 259.944 124.551C258.974 123.912 257.904 123.454 256.732 123.177C255.56 122.9 254.383 122.762 253.2 122.762C251.485 122.762 249.919 123.017 248.502 123.529C247.085 124.029 245.887 124.786 244.906 125.798C243.926 126.799 243.223 128.046 242.797 129.537L248.198 130.304C248.486 129.463 249.04 128.733 249.86 128.115C250.691 127.497 251.815 127.188 253.232 127.188C254.574 127.188 255.602 127.518 256.316 128.179C257.03 128.839 257.387 129.772 257.387 130.975V131.071C257.387 131.625 257.179 132.035 256.764 132.302C256.359 132.557 255.709 132.749 254.814 132.877C253.919 132.994 252.753 133.127 251.314 133.276C250.121 133.404 248.965 133.612 247.847 133.9C246.739 134.177 245.743 134.587 244.858 135.13C243.974 135.674 243.276 136.398 242.765 137.303C242.254 138.209 241.998 139.354 241.998 140.739C241.998 142.348 242.355 143.701 243.069 144.798C243.793 145.895 244.773 146.726 246.009 147.291ZM254.734 143.184C253.882 143.642 252.875 143.871 251.714 143.871C250.51 143.871 249.519 143.6 248.742 143.056C247.964 142.513 247.575 141.709 247.575 140.643C247.575 139.898 247.772 139.29 248.166 138.822C248.561 138.342 249.099 137.969 249.78 137.703C250.462 137.437 251.235 137.245 252.097 137.128C252.481 137.074 252.934 137.011 253.456 136.936C253.978 136.861 254.505 136.776 255.038 136.68C255.57 136.584 256.05 136.473 256.476 136.345C256.913 136.217 257.222 136.078 257.403 135.929V138.822C257.403 139.727 257.169 140.563 256.7 141.33C256.242 142.098 255.586 142.715 254.734 143.184ZM274.597 123.081H268.988V147.627H274.773V133.197C274.773 132.153 275.013 131.231 275.492 130.432C275.972 129.633 276.627 129.01 277.458 128.562C278.3 128.104 279.248 127.875 280.302 127.875C280.792 127.875 281.298 127.912 281.82 127.987C282.353 128.051 282.742 128.126 282.987 128.211V122.889C282.721 122.836 282.385 122.799 281.98 122.778C281.586 122.746 281.229 122.73 280.91 122.73C279.503 122.73 278.252 123.118 277.154 123.896C276.068 124.663 275.301 125.755 274.853 127.172H274.597V123.081ZM286.83 147.627H292.615V133.245C292.615 132.062 292.833 131.055 293.27 130.224C293.718 129.393 294.33 128.759 295.108 128.323C295.896 127.875 296.797 127.651 297.809 127.651C299.3 127.651 300.467 128.115 301.308 129.042C302.161 129.969 302.587 131.252 302.587 132.893V147.627H308.371V131.998C308.382 130.038 308.036 128.371 307.333 126.996C306.64 125.622 305.66 124.573 304.392 123.848C303.135 123.124 301.66 122.762 299.966 122.762C298.134 122.762 296.594 123.166 295.348 123.976C294.112 124.786 293.212 125.878 292.647 127.252H292.359V123.081H286.83V147.627Z" fill="url(#paint1_linear_8794_50034)"/>
<path fill-rule="evenodd" clip-rule="evenodd" d="M295.082 103.304H299.994C299.579 98.6953 298.832 94.1821 297.776 89.7891L293.678 93.8875C294.308 96.9715 294.78 100.113 295.082 103.304ZM287.127 159.949H281.372C265.529 184.565 237.888 200.868 206.44 200.868C175.643 200.868 148.498 185.234 132.509 161.47H126.682C143.27 188.063 172.788 205.758 206.44 205.758C240.729 205.758 270.726 187.386 287.127 159.949ZM132.509 62.1759C148.498 38.4118 175.643 22.778 206.44 22.778C228.806 22.778 249.246 31.0241 264.886 44.6419L268.351 41.1762C251.82 26.6773 230.156 17.888 206.44 17.888C172.788 17.888 143.27 35.583 126.682 62.1759H132.509Z" fill="url(#paint2_linear_8794_50034)"/>
<path d="M292.067 56.6601C284.262 48.8272 271.607 48.8272 263.802 56.6601L251.046 69.4623C250.292 70.2199 250.292 71.4398 251.046 72.1974L263.802 84.9997C271.607 92.8325 284.262 92.8325 292.067 85.0125C299.884 77.1925 299.884 64.493 292.067 56.6601ZM289.051 81.2502C283.32 87.0028 274.02 87.0028 268.289 81.2502L258.901 71.8379C258.348 71.2857 258.348 70.3869 258.901 69.8219L268.276 60.4224C274.007 54.6698 283.307 54.6698 289.038 60.4224C294.782 66.1751 294.782 75.4975 289.051 81.2502Z" fill="#00B3FF"/>
<path d="M308.782 69.4751L303.164 63.7353C302.825 63.3886 302.259 63.7096 302.372 64.1847C303.34 68.5634 303.34 73.1347 302.372 77.5134C302.272 77.9885 302.837 78.2967 303.164 77.9629L308.782 72.223C309.523 71.4526 309.523 70.2327 308.782 69.4751Z" fill="#00B3FF"/>
<path d="M278.733 80.9035C284.168 80.9035 288.574 76.4021 288.574 70.8492C288.574 65.2964 284.168 60.7949 278.733 60.7949C273.298 60.7949 268.893 65.2964 268.893 70.8492C268.893 76.4021 273.298 80.9035 278.733 80.9035Z" fill="#00B3FF"/>
<defs>
<radialGradient id="paint0_radial_8794_50034" cx="0" cy="0" r="1" gradientUnits="userSpaceOnUse" gradientTransform="translate(207.424 99.9348) rotate(90) scale(216.963 234.048)">
<stop offset="0.201593" stop-color="#57C2FF"/>
<stop offset="0.346532" stop-color="#30FFDA" stop-opacity="0.69"/>
<stop offset="0.769166" stop-color="#7D2EFF" stop-opacity="0.46"/>
<stop offset="0.924424" stop-color="#062F44" stop-opacity="0.13"/>
</radialGradient>
<linearGradient id="paint1_linear_8794_50034" x1="308.371" y1="148.122" x2="56.4586" y2="55.4482" gradientUnits="userSpaceOnUse">
<stop stop-color="#4AFFDF"/>
<stop offset="0.594375" stop-color="#00B3FF"/>
<stop offset="0.855491" stop-color="#7D2EFF"/>
</linearGradient>
<linearGradient id="paint2_linear_8794_50034" x1="119.209" y1="6.4195" x2="242.741" y2="211.602" gradientUnits="userSpaceOnUse">
<stop stop-color="#7D2EFF"/>
<stop offset="0.5625" stop-color="#1B7EF5"/>
<stop offset="1" stop-color="#09CAD0"/>
</linearGradient>
</defs>
</svg>
