<svg fill="none" height="30" viewBox="0 0 31 30" width="31" xmlns="http://www.w3.org/2000/svg"><path d="m15.875 15.275c.667-.5773 1.2019-1.2914 1.5686-2.0937.3666-.8023.5564-1.6742.5564-2.5563 0-1.6576-.6585-3.24731-1.8306-4.41942-1.1721-1.1721-2.7618-1.83058-4.4194-1.83058s-3.24731.65848-4.41942 1.83058c-1.1721 1.17211-1.83058 2.76182-1.83058 4.41942-.00001.8821.18975 1.754.55641 2.5563.36665.8023.90162 1.5164 1.56859 2.0937-1.74983.7924-3.23442 2.0719-4.27627 3.6857-1.04186 1.6137-1.59689 3.4934-1.59873 5.4143 0 .3315.1317.6495.36612.8839s.55236.3661.88388.3661.64946-.1317.88388-.3661.36612-.5524.36612-.8839c0-1.9891.79018-3.8968 2.1967-5.3033s3.31418-2.1967 5.3033-2.1967c1.9891 0 3.8968.7902 5.3033 2.1967s2.1967 3.3142 2.1967 5.3033c0 .3315.1317.6495.3661.8839s.5524.3661.8839.3661.6495-.1317.8839-.3661.3661-.5524.3661-.8839c-.0018-1.9209-.5569-3.8006-1.5987-5.4143-1.0419-1.6138-2.5265-2.8933-4.2763-3.6857zm-4.125-.9c-.7417 0-1.4667-.2199-2.08339-.632-.61668-.412-1.09733-.9977-1.38116-1.6829-.28383-.6853-.35809-1.4393-.21339-2.16669.14469-.72743.50184-1.39561 1.02629-1.92006s1.19265-.8816 1.92005-1.02629c.7274-.1447 1.4814-.07044 2.1667.21339.6852.28383 1.2709.76448 1.6829 1.38116.4121.61669.632 1.34171.632 2.08339 0 .9946-.3951 1.9484-1.0983 2.6517-.7033.7032-1.6571 1.0983-2.6517 1.0983zm12.175.4c.8-.9008 1.3225-2.0137 1.5048-3.2046.1822-1.1909.0164-2.40906-.4776-3.5079-.4939-1.09884-1.295-2.03151-2.3066-2.68572-1.0117-.65422-2.1908-1.0021-3.3956-1.00178-.3315 0-.6495.1317-.8839.36612s-.3661.55236-.3661.88388.1317.64946.3661.88388.5524.36612.8839.36612c.9946 0 1.9484.39509 2.6517 1.09835.7032.70326 1.0983 1.65709 1.0983 2.65165-.0018.6565-.1759 1.3011-.5049 1.8693-.3291.5681-.8015 1.0399-1.3701 1.3682-.1853.1069-.3401.2596-.4495.4434-.1095.1839-.1699.3927-.1755.6066-.0052.2122.0437.4222.1421.6103s.2431.348.4204.4647l.4875.325.1625.0875c1.5067.7146 2.7779 1.845 3.6637 3.2579.8859 1.4129 1.3495 3.0495 1.3363 4.7171 0 .3315.1317.6495.3661.8839s.5524.3661.8839.3661.6495-.1317.8839-.3661.3661-.5524.3661-.8839c.0102-1.9182-.4702-3.8072-1.3957-5.4874-.9254-1.6803-2.2651-3.096-3.8918-4.1126z" fill="#000"/></svg>