<svg width="467" height="220" viewBox="0 0 467 220" fill="none" xmlns="http://www.w3.org/2000/svg">
<g opacity="0.6" filter="url(#filter0_f_5496_5766)">
<path d="M334.414 159.317C334.414 171.889 268.137 182.936 240.717 182.081C213.297 181.225 147.021 171.889 147.021 159.317C147.021 146.745 169.767 112.219 240.717 125.52C311.667 138.821 334.414 146.745 334.414 159.317Z" fill="#7D2EFF"/>
<path d="M333.802 159.317C333.802 160.608 332.947 161.999 331.129 163.464C329.327 164.915 326.691 166.349 323.393 167.734C316.803 170.503 307.705 173.026 297.722 175.136C277.754 179.356 254.381 181.895 240.736 181.47C227.062 181.043 203.672 178.5 183.706 174.493C173.721 172.49 164.622 170.126 158.032 167.49C154.733 166.17 152.098 164.797 150.299 163.388C148.483 161.967 147.632 160.604 147.632 159.317C147.632 147.319 169.814 112.85 240.604 126.121C276.084 132.772 299.462 138.071 313.966 143.267C321.22 145.866 326.2 148.422 329.358 151.071C332.495 153.702 333.802 156.395 333.802 159.317Z" stroke="white" stroke-width="1.22234" style="mix-blend-mode:overlay"/>
</g>
<path fill-rule="evenodd" clip-rule="evenodd" d="M236.779 -103H236.525L236.346 -102.821L219.728 -86.2029C219.49 -85.9642 219.49 -85.5772 219.728 -85.3386C219.967 -85.0999 220.354 -85.0999 220.593 -85.3386L237.032 -101.778H281.492L318.46 -64.8102L318.639 -64.6312H318.892H444.016C444.354 -64.6312 444.627 -64.9049 444.627 -65.2424C444.627 -65.5799 444.354 -65.8536 444.016 -65.8536H319.145L282.178 -102.821L281.999 -103H281.745H236.779ZM103.581 -85.4045H103.835H183.992C184.33 -85.4045 184.604 -85.1308 184.604 -84.7933C184.604 -84.4558 184.33 -84.1821 183.992 -84.1821H104.088L71.0303 -51.1252L70.8513 -50.9462H70.5982H-37.9082C-38.2457 -50.9462 -38.5194 -51.2198 -38.5194 -51.5574C-38.5194 -51.8949 -38.2457 -52.1686 -37.9082 -52.1686H70.345L103.402 -85.2255L103.581 -85.4045ZM145.257 -65.2423C145.257 -65.5798 145.531 -65.8535 145.868 -65.8535H271.97L271.972 -65.8535C272.148 -68.6072 274.437 -70.7861 277.236 -70.7861C280.149 -70.7861 282.51 -68.4245 282.51 -65.5114C282.51 -62.5982 280.149 -60.2366 277.236 -60.2366C274.621 -60.2366 272.451 -62.1386 272.033 -64.6343C272.013 -64.6322 271.991 -64.6311 271.97 -64.6311H145.868C145.531 -64.6311 145.257 -64.9048 145.257 -65.2423ZM339.787 -30.051C339.787 -30.3885 340.061 -30.6622 340.398 -30.6622H465.523C465.86 -30.6622 466.134 -30.3885 466.134 -30.051C466.134 -29.7134 465.86 -29.4398 465.523 -29.4398H340.398C340.061 -29.4398 339.787 -29.7134 339.787 -30.051ZM298.644 -47.8684C298.307 -47.8684 298.033 -47.5948 298.033 -47.2573C298.033 -46.9197 298.307 -46.6461 298.644 -46.6461H465.523C465.861 -46.6461 466.134 -46.9197 466.134 -47.2573C466.134 -47.5948 465.861 -47.8684 465.523 -47.8684H298.644ZM128.648 -8.25958C128.889 -8.02253 128.891 -7.63557 128.654 -7.39527L118.435 2.96326L118.256 3.14522H118H33.9321C33.5945 3.14522 33.3209 2.87159 33.3209 2.53405C33.3209 2.19651 33.5945 1.92288 33.9321 1.92288H117.745L127.784 -8.25371C128.021 -8.494 128.408 -8.49663 128.648 -8.25958ZM129.226 -32.3909H128.973L128.794 -32.2119L110.888 -14.3064H27.0733C26.7358 -14.3064 26.4621 -14.0328 26.4621 -13.6953C26.4621 -13.3577 26.7358 -13.0841 27.0733 -13.0841H111.142H111.395L111.574 -13.2631L129.479 -31.1686H223.026C223.363 -31.1686 223.637 -31.4422 223.637 -31.7797C223.637 -32.1173 223.363 -32.3909 223.026 -32.3909H129.226ZM116.289 -46.3035H116.542H248.509H248.763L248.942 -46.1245L282.488 -12.5784H323.78C324.117 -12.5784 324.391 -12.3047 324.391 -11.9672C324.391 -11.6297 324.117 -11.356 323.78 -11.356H282.235H281.981L281.802 -11.535L248.256 -45.0812H116.795L96.4462 -24.7321L96.2672 -24.5531H96.014H77.4407C77.1032 -24.5531 76.8295 -24.8267 76.8295 -25.1643C76.8295 -25.5018 77.1032 -25.7754 77.4407 -25.7754H95.7608L116.11 -46.1245L116.289 -46.3035ZM183.011 -5.58409C182.889 -3.69708 181.32 -2.20437 179.402 -2.20437C177.405 -2.20437 175.785 -3.82374 175.785 -5.82133C175.785 -7.81893 177.405 -9.43831 179.402 -9.43831C181.058 -9.43831 182.454 -8.32527 182.883 -6.80643H244.733H244.986L245.165 -6.62743L276.802 25.0095H371.508C371.846 25.0095 372.119 25.2831 372.119 25.6207C372.119 25.9582 371.846 26.2319 371.508 26.2319H276.549H276.296L276.117 26.0529L244.48 -5.58409H183.011ZM250.201 -20.5679C250.44 -20.8066 250.827 -20.8066 251.066 -20.5679L282.702 11.069H377.408C377.746 11.069 378.02 11.3427 378.02 11.6802C378.02 12.0177 377.746 12.2914 377.408 12.2914H282.449H282.196L282.017 12.1124L250.201 -19.7036C249.962 -19.9423 249.962 -20.3292 250.201 -20.5679ZM345.076 49.4826C344.738 49.4826 344.464 49.7562 344.464 50.0938C344.464 50.4313 344.738 50.7049 345.076 50.7049H426.819C427.156 50.7049 427.43 50.4313 427.43 50.0938C427.43 49.7562 427.156 49.4826 426.819 49.4826H345.076ZM353.878 90.3542H354.131H429.266C429.604 90.3542 429.877 90.6279 429.877 90.9654C429.877 91.303 429.604 91.5766 429.266 91.5766H354.384L334.739 111.222C334.501 111.46 334.114 111.46 333.875 111.222C333.636 110.983 333.636 110.596 333.875 110.357L353.699 90.5332L353.878 90.3542ZM5.84031 217.254C5.50277 217.254 5.22914 217.527 5.22914 217.865C5.22914 218.202 5.50277 218.476 5.84031 218.476H113.676L132.634 237.434C132.873 237.673 133.26 237.673 133.499 237.434C133.737 237.196 133.737 236.809 133.499 236.57L114.361 217.433L114.182 217.254H113.929H5.84031ZM320.271 210.884H320.524H349.307C349.645 210.884 349.919 211.157 349.919 211.495C349.919 211.832 349.645 212.106 349.307 212.106H320.777L263.696 269.187L263.517 269.366H263.264H106.269H106.016L105.837 269.187L90.5235 253.874H56.426C56.2905 256.667 53.9836 258.889 51.1576 258.889C48.3316 258.889 46.0246 256.667 45.8891 253.874H40.3508C40.0133 253.874 39.7396 253.6 39.7396 253.263C39.7396 252.925 40.0133 252.652 40.3508 252.652H45.9704C46.4228 250.198 48.5731 248.339 51.1576 248.339C53.7421 248.339 55.8924 250.198 56.3447 252.652H90.7766H91.0298L91.2088 252.831L106.522 268.144H263.01L320.092 211.063L320.271 210.884ZM55.095 252.652C54.663 250.878 53.064 249.562 51.1576 249.562C49.2511 249.562 47.6521 250.878 47.2201 252.652H55.095ZM47.1133 253.874C47.2474 255.991 49.0068 257.667 51.1576 257.667C53.3083 257.667 55.0678 255.991 55.2018 253.874H47.1133ZM323.249 188.586H323.001L322.823 188.759L255.004 254.503H123.829L108.516 239.189L108.337 239.01H108.083H57.6575C57.32 239.01 57.0464 239.284 57.0464 239.621C57.0464 239.959 57.32 240.233 57.6575 240.233H107.83L123.144 255.546L123.323 255.725H123.576H255.252H255.499L255.677 255.553L323.496 189.809H353.484C353.822 189.809 354.095 189.535 354.095 189.198C354.095 188.86 353.822 188.586 353.484 188.586H323.249ZM309.688 170.805H309.935H340.17C340.508 170.805 340.782 171.078 340.782 171.416C340.782 171.753 340.508 172.027 340.17 172.027H310.182L251.955 228.179L251.777 228.35H251.531H199.479C199.403 230.28 197.814 231.822 195.865 231.822C193.867 231.822 192.248 230.202 192.248 228.205C192.248 226.207 193.867 224.588 195.865 224.588C197.487 224.588 198.861 225.656 199.319 227.128H251.284L309.511 170.976L309.688 170.805ZM-61.3888 281.814C-61.7264 281.814 -62 282.088 -62 282.425C-62 282.763 -61.7264 283.036 -61.3888 283.036H90.8504L108.594 300.78L108.773 300.959H109.026H173.729C174.066 300.959 174.34 300.685 174.34 300.348C174.34 300.01 174.066 299.737 173.729 299.737H109.279L91.5357 281.993L91.3567 281.814H91.1036H-61.3888ZM229.299 285.746C229.538 285.508 229.925 285.508 230.163 285.746L245.065 300.647H404.594C404.932 300.647 405.205 300.921 405.205 301.258C405.205 301.596 404.932 301.87 404.594 301.87H244.811H244.558L244.379 301.691L229.299 286.611C229.06 286.372 229.06 285.985 229.299 285.746ZM322.553 278.015C322.549 278.015 322.545 278.015 322.542 278.016C322.257 275.371 320.018 273.311 317.297 273.311C314.384 273.311 312.023 275.673 312.023 278.586C312.023 281.499 314.384 283.86 317.297 283.86C319.99 283.86 322.212 281.842 322.532 279.236C322.547 279.237 322.561 279.237 322.575 279.237H411.276C411.613 279.237 411.887 278.963 411.887 278.626C411.887 278.288 411.613 278.015 411.276 278.015H322.575C322.568 278.015 322.56 278.015 322.553 278.015ZM323.663 232.299H323.916H394.087C394.425 232.299 394.699 232.573 394.699 232.91C394.699 233.248 394.425 233.522 394.087 233.522H324.169L300.351 257.341C300.112 257.579 299.725 257.579 299.487 257.341C299.248 257.102 299.248 256.715 299.487 256.476L323.484 232.478L323.663 232.299ZM-18.2533 180.355C-18.5908 180.355 -18.8645 180.629 -18.8645 180.966C-18.8645 181.304 -18.5908 181.578 -18.2533 181.578H88.0662C88.4037 181.578 88.6774 181.304 88.6774 180.966C88.6774 180.629 88.4037 180.355 88.0662 180.355H-18.2533ZM147.482 184.735C147.721 184.974 147.721 185.361 147.482 185.599L127.381 205.701L127.202 205.88H126.949H74.748C74.6975 207.833 73.098 209.401 71.1323 209.401C69.1347 209.401 67.5153 207.782 67.5153 205.784C67.5153 203.787 69.1347 202.167 71.1323 202.167C72.7363 202.167 74.0965 203.212 74.5702 204.657H126.695L146.618 184.735C146.856 184.496 147.243 184.496 147.482 184.735ZM294.313 124.967C293.975 124.967 293.702 125.24 293.702 125.578C293.702 125.915 293.975 126.189 294.313 126.189H405.546C405.883 126.189 406.157 125.915 406.157 125.578C406.157 125.24 405.883 124.967 405.546 124.967L294.313 124.967ZM78.7763 51.9629C78.7763 53.8232 80.1806 55.3554 81.987 55.5573V92.2661V92.8773H82.5982H105.758C106.096 92.8773 106.369 92.6037 106.369 92.2661C106.369 91.9286 106.096 91.6549 105.758 91.6549H83.2093V55.4874C84.8139 55.1174 86.0103 53.6799 86.0103 51.9629C86.0103 49.9653 84.3909 48.3459 82.3933 48.3459C80.3957 48.3459 78.7763 49.9653 78.7763 51.9629ZM99.0011 13.8899C98.6636 13.8899 98.39 14.1635 98.39 14.5011C98.39 14.8386 98.6636 15.1122 99.0011 15.1122H132.158L147.198 30.5346C147.433 30.7762 147.82 30.7811 148.062 30.5454C148.304 30.3098 148.309 29.9228 148.073 29.6812L132.853 14.0744L132.673 13.8899H132.416H99.0011ZM322.427 70.4145C322.427 72.2211 323.752 73.7183 325.483 73.9881V91.9636H294.313C293.975 91.9636 293.702 92.2373 293.702 92.5748C293.702 92.9124 293.975 93.186 294.313 93.186H326.094H326.705V92.5748V73.9713C328.387 73.6608 329.661 72.1864 329.661 70.4145C329.661 68.4169 328.042 66.7975 326.044 66.7975C324.047 66.7975 322.427 68.4169 322.427 70.4145ZM2.84047 -78.2906C2.50293 -78.2906 2.2293 -78.0169 2.2293 -77.6794C2.2293 -77.3419 2.50293 -77.0682 2.84047 -77.0682H32.8804C33.1165 -74.3735 35.3788 -72.2597 38.1349 -72.2597C41.048 -72.2597 43.4096 -74.6213 43.4096 -77.5345C43.4096 -80.4477 41.048 -82.8093 38.1349 -82.8093C35.4784 -82.8093 33.2806 -80.8456 32.9139 -78.2906H2.84047ZM330.737 -91.9316C330.737 -92.2692 331.01 -92.5428 331.348 -92.5428H408.118C408.455 -92.5428 408.729 -92.2692 408.729 -91.9316C408.729 -91.5941 408.455 -91.3204 408.118 -91.3204H331.348C331.01 -91.3204 330.737 -91.5941 330.737 -91.9316ZM3.45371 127.356C3.11617 127.356 2.84254 127.629 2.84254 127.967C2.84254 128.304 3.11617 128.578 3.45371 128.578H105.18C105.517 128.578 105.791 128.304 105.791 127.967C105.791 127.629 105.517 127.356 105.18 127.356H3.45371ZM38.1349 -73.4821C40.373 -73.4821 42.1873 -75.2964 42.1873 -77.5345C42.1873 -79.7726 40.373 -81.5869 38.1349 -81.5869C35.8968 -81.5869 34.0825 -79.7726 34.0825 -77.5345C34.0825 -75.2964 35.8968 -73.4821 38.1349 -73.4821ZM281.288 -65.5114C281.288 -63.2733 279.474 -61.4589 277.236 -61.4589C274.997 -61.4589 273.183 -63.2733 273.183 -65.5114C273.183 -67.7495 274.997 -69.5638 277.236 -69.5638C279.474 -69.5638 281.288 -67.7495 281.288 -65.5114ZM317.297 282.638C319.535 282.638 321.35 280.824 321.35 278.586C321.35 276.348 319.535 274.533 317.297 274.533C315.059 274.533 313.245 276.348 313.245 278.586C313.245 280.824 315.059 282.638 317.297 282.638ZM285.757 155.525C285.419 155.525 285.145 155.799 285.145 156.137C285.145 156.474 285.419 156.748 285.757 156.748H353.597V178.139C353.597 178.476 353.87 178.75 354.208 178.75C354.545 178.75 354.819 178.476 354.819 178.139V156.137V155.525H354.208H285.757Z" fill="url(#paint0_radial_5496_5766)"/>
<path d="M162.881 38.5733L167.644 46.8227" stroke="#5D48FC" stroke-width="1.22234"/>
<path d="M240.281 172.632L245.044 180.882" stroke="#0BC1D4" stroke-width="1.22234"/>
<path d="M266.484 146.429L274.734 151.191" stroke="#0DBAD8" stroke-width="1.22234"/>
<path d="M276.074 110.635L285.6 110.635" stroke="#13A2E4" stroke-width="1.22234"/>
<path d="M162.88 182.695L167.643 174.446" stroke="#11A9E0" stroke-width="1.22234"/>
<path d="M204.483 27.4264V36.952" stroke="#5251FB" stroke-width="1.22234"/>
<path d="M204.483 182.225V191.75" stroke="#0DB9D8" stroke-width="1.22234"/>
<path fill-rule="evenodd" clip-rule="evenodd" d="M130.365 95.2802C131.867 92.4209 132.618 88.9861 132.618 84.9758C132.618 80.9655 131.867 77.5368 130.365 74.6896C128.874 71.8303 126.839 69.6434 124.258 68.1289C121.69 66.6145 118.776 65.8572 115.517 65.8572C112.258 65.8572 109.338 66.6145 106.757 68.1289C104.189 69.6434 102.153 71.8303 100.651 74.6896C99.1606 77.5368 98.4155 80.9655 98.4155 84.9758C98.4155 88.974 99.1606 92.4027 100.651 95.262C102.153 98.1092 104.189 100.296 106.757 101.823C109.338 103.337 112.258 104.094 115.517 104.094C118.776 104.094 121.69 103.337 124.258 101.823C126.839 100.308 128.874 98.1274 130.365 95.2802ZM124.513 77.8336C125.397 79.7721 125.839 82.1528 125.839 84.9758C125.839 87.7987 125.397 90.1855 124.513 92.1362C123.64 94.0747 122.429 95.5467 120.878 96.5523C119.327 97.5458 117.54 98.0426 115.517 98.0426C113.494 98.0426 111.706 97.5458 110.156 96.5523C108.605 95.5467 107.387 94.0747 106.503 92.1362C105.63 90.1855 105.194 87.7987 105.194 84.9758C105.194 82.1528 105.63 79.7721 106.503 77.8336C107.387 75.883 108.605 74.4109 110.156 73.4174C111.706 72.4118 113.494 71.909 115.517 71.909C117.54 71.909 119.327 72.4118 120.878 73.4174C122.429 74.4109 123.64 75.883 124.513 77.8336ZM152.841 80.7595V75.6709H147.062V73.4719C147.062 72.3815 147.31 71.5455 147.807 70.964C148.316 70.3703 149.182 70.0735 150.405 70.0735C150.926 70.0735 151.399 70.1219 151.823 70.2189C152.247 70.3037 152.598 70.3885 152.877 70.4733L154.186 65.3847C153.762 65.2393 153.107 65.0758 152.223 64.894C151.338 64.7123 150.327 64.6214 149.188 64.6214C147.576 64.6214 146.11 64.9304 144.79 65.5483C143.469 66.1662 142.415 67.0991 141.628 68.347C140.852 69.5949 140.465 71.1578 140.465 73.0358V75.6709H136.339V80.7595H140.465V103.585H147.062V80.7595H152.841ZM172.132 80.7595V75.6709H166.353V73.4719C166.353 72.3815 166.601 71.5455 167.098 70.964C167.607 70.3703 168.473 70.0735 169.697 70.0735C170.218 70.0735 170.69 70.1219 171.114 70.2189C171.538 70.3037 171.89 70.3885 172.168 70.4733L173.477 65.3847C173.053 65.2393 172.398 65.0758 171.514 64.894C170.63 64.7123 169.618 64.6214 168.479 64.6214C166.868 64.6214 165.402 64.9304 164.081 65.5483C162.76 66.1662 161.706 67.0991 160.919 68.347C160.143 69.5949 159.756 71.1578 159.756 73.0358V75.6709H155.63V80.7595H159.756V103.585H166.353V80.7595H172.132ZM177.284 75.6709V103.585H183.863V75.6709H177.284ZM177.902 70.6732C178.653 71.3638 179.55 71.7091 180.592 71.7091C181.646 71.7091 182.542 71.3638 183.281 70.6732C184.033 69.9705 184.408 69.1285 184.408 68.1471C184.408 67.1536 184.033 66.3116 183.281 65.621C182.542 64.9183 181.646 64.5669 180.592 64.5669C179.55 64.5669 178.653 64.9183 177.902 65.621C177.151 66.3116 176.775 67.1536 176.775 68.1471C176.775 69.1285 177.151 69.9705 177.902 70.6732ZM195.626 102.295C197.625 103.519 200.018 104.131 202.804 104.131C205.143 104.131 207.178 103.707 208.911 102.859C210.643 101.998 212.012 100.811 213.018 99.2965C214.023 97.77 214.605 96.0192 214.763 94.0444H208.474C208.281 95.05 207.923 95.9041 207.402 96.6069C206.881 97.3096 206.233 97.8487 205.458 98.2243C204.694 98.5878 203.828 98.7695 202.859 98.7695C201.49 98.7695 200.296 98.406 199.279 97.6791C198.273 96.94 197.492 95.892 196.934 94.5351C196.377 93.166 196.098 91.5304 196.098 89.6282C196.098 87.7503 196.377 86.1389 196.934 84.7941C197.504 83.4492 198.297 82.4194 199.315 81.7045C200.333 80.9776 201.514 80.6141 202.859 80.6141C204.446 80.6141 205.712 81.0685 206.657 81.9772C207.614 82.8737 208.22 83.9944 208.474 85.3393H214.763C214.617 83.3281 214.023 81.5713 212.982 80.0689C211.94 78.5545 210.54 77.3853 208.783 76.5614C207.039 75.7255 205.034 75.3075 202.768 75.3075C200.042 75.3075 197.679 75.9193 195.68 77.143C193.693 78.3546 192.155 80.0508 191.064 82.2316C189.974 84.4003 189.429 86.9022 189.429 89.7373C189.429 92.5602 189.962 95.056 191.028 97.2248C192.106 99.3813 193.639 101.071 195.626 102.295ZM225.271 102.386C227.307 103.549 229.724 104.131 232.523 104.131C234.691 104.131 236.618 103.804 238.302 103.149C239.986 102.483 241.367 101.55 242.445 100.351C243.536 99.139 244.275 97.7215 244.663 96.098L238.52 95.4074C238.229 96.1949 237.799 96.8552 237.23 97.3883C236.66 97.9214 235.988 98.3273 235.212 98.6059C234.437 98.8725 233.571 99.0058 232.613 99.0058C231.184 99.0058 229.936 98.7029 228.87 98.0971C227.804 97.4792 226.974 96.5947 226.38 95.4437C225.806 94.3199 225.51 92.9811 225.49 91.4274H244.935V89.4101C244.935 86.9628 244.596 84.8546 243.917 83.0857C243.239 81.3047 242.306 79.8387 241.119 78.6877C239.943 77.5368 238.587 76.6887 237.048 76.1434C235.521 75.5861 233.898 75.3075 232.177 75.3075C229.512 75.3075 227.192 75.9193 225.217 77.143C223.242 78.3546 221.703 80.0508 220.601 82.2316C219.51 84.4003 218.965 86.9204 218.965 89.7918C218.965 92.7117 219.51 95.2499 220.601 97.4065C221.691 99.551 223.248 101.211 225.271 102.386ZM225.503 86.993C225.566 85.8994 225.846 84.8877 226.344 83.9581C226.913 82.904 227.707 82.0559 228.724 81.4138C229.742 80.7595 230.923 80.4324 232.268 80.4324C233.528 80.4324 234.631 80.7171 235.576 81.2866C236.533 81.856 237.278 82.6375 237.811 83.6309C238.344 84.6123 238.617 85.733 238.629 86.993H225.503ZM100.7 119.277V156.497H107.443V140.686H124.69V156.497H131.45V119.277H124.69V135.034H107.443V119.277H100.7ZM143.581 155.243C145.58 156.442 147.943 157.042 150.669 157.042C153.395 157.042 155.757 156.442 157.756 155.243C159.755 154.043 161.3 152.365 162.391 150.209C163.493 148.052 164.044 145.532 164.044 142.648C164.044 139.765 163.493 137.239 162.391 135.07C161.3 132.901 159.755 131.217 157.756 130.018C155.757 128.818 153.395 128.219 150.669 128.219C147.943 128.219 145.58 128.818 143.581 130.018C141.582 131.217 140.031 132.901 138.928 135.07C137.838 137.239 137.293 139.765 137.293 142.648C137.293 145.532 137.838 148.052 138.928 150.209C140.031 152.365 141.582 154.043 143.581 155.243ZM154.412 150.554C153.419 151.366 152.183 151.772 150.705 151.772C149.19 151.772 147.93 151.366 146.925 150.554C145.931 149.73 145.186 148.628 144.689 147.246C144.205 145.865 143.963 144.326 143.963 142.63C143.963 140.922 144.205 139.377 144.689 137.996C145.186 136.603 145.931 135.494 146.925 134.67C147.93 133.846 149.19 133.434 150.705 133.434C152.183 133.434 153.419 133.846 154.412 134.67C155.406 135.494 156.145 136.603 156.629 137.996C157.126 139.377 157.375 140.922 157.375 142.63C157.375 144.326 157.126 145.865 156.629 147.246C156.145 148.628 155.406 149.73 154.412 150.554ZM187.42 128.582V144.757C187.42 146.174 187.123 147.355 186.53 148.3C185.948 149.233 185.203 149.936 184.294 150.409C183.385 150.881 182.447 151.117 181.477 151.117C179.902 151.117 178.63 150.596 177.661 149.554C176.692 148.512 176.207 147.107 176.207 145.338V128.582H169.628V146.356C169.628 148.585 170.022 150.487 170.809 152.062C171.597 153.625 172.687 154.819 174.081 155.643C175.486 156.454 177.103 156.86 178.933 156.86C181.029 156.86 182.792 156.363 184.221 155.37C185.663 154.376 186.699 153.098 187.329 151.535H187.62V156.497H193.999V128.582H187.42ZM200.764 128.582V156.497H207.343V140.086C207.343 138.899 207.615 137.851 208.161 136.942C208.706 136.033 209.451 135.325 210.396 134.816C211.353 134.295 212.431 134.034 213.631 134.034C214.188 134.034 214.764 134.077 215.357 134.161C215.963 134.234 216.405 134.319 216.684 134.416V128.364C216.381 128.303 215.999 128.261 215.539 128.237C215.091 128.2 214.685 128.182 214.321 128.182C212.722 128.182 211.299 128.625 210.051 129.509C208.815 130.381 207.942 131.623 207.434 133.235H207.143V128.582H200.764ZM237.12 136.615L243.117 135.961C242.669 133.586 241.5 131.702 239.61 130.309C237.732 128.915 235.157 128.219 231.886 128.219C229.657 128.219 227.688 128.57 225.98 129.273C224.284 129.963 222.957 130.945 222 132.217C221.055 133.477 220.588 134.967 220.6 136.688C220.588 138.723 221.224 140.407 222.509 141.74C223.793 143.06 225.774 143.999 228.451 144.557L233.213 145.556C234.497 145.835 235.442 146.235 236.048 146.756C236.666 147.277 236.975 147.937 236.975 148.737C236.975 149.682 236.496 150.475 235.539 151.117C234.594 151.759 233.34 152.081 231.777 152.081C230.263 152.081 229.033 151.759 228.088 151.117C227.143 150.475 226.525 149.524 226.234 148.264L219.819 148.882C220.219 151.45 221.461 153.456 223.544 154.897C225.628 156.327 228.379 157.042 231.795 157.042C234.121 157.042 236.181 156.666 237.974 155.915C239.767 155.164 241.167 154.122 242.172 152.789C243.19 151.444 243.705 149.894 243.717 148.137C243.705 146.138 243.051 144.52 241.754 143.285C240.47 142.049 238.507 141.146 235.866 140.577L231.105 139.559C229.687 139.232 228.669 138.814 228.051 138.305C227.446 137.796 227.149 137.136 227.161 136.324C227.149 135.379 227.603 134.61 228.524 134.016C229.457 133.422 230.608 133.126 231.977 133.126C232.995 133.126 233.855 133.289 234.558 133.616C235.26 133.943 235.818 134.373 236.23 134.907C236.654 135.44 236.95 136.009 237.12 136.615Z" fill="white"/>
<path fill-rule="evenodd" clip-rule="evenodd" d="M130.365 95.2802C131.867 92.4209 132.618 88.9861 132.618 84.9758C132.618 80.9655 131.867 77.5368 130.365 74.6896C128.874 71.8303 126.839 69.6434 124.258 68.1289C121.69 66.6145 118.776 65.8572 115.517 65.8572C112.258 65.8572 109.338 66.6145 106.757 68.1289C104.189 69.6434 102.153 71.8303 100.651 74.6896C99.1606 77.5368 98.4155 80.9655 98.4155 84.9758C98.4155 88.974 99.1606 92.4027 100.651 95.262C102.153 98.1092 104.189 100.296 106.757 101.823C109.338 103.337 112.258 104.094 115.517 104.094C118.776 104.094 121.69 103.337 124.258 101.823C126.839 100.308 128.874 98.1274 130.365 95.2802ZM124.513 77.8336C125.397 79.7721 125.839 82.1528 125.839 84.9758C125.839 87.7987 125.397 90.1855 124.513 92.1362C123.64 94.0747 122.429 95.5467 120.878 96.5523C119.327 97.5458 117.54 98.0426 115.517 98.0426C113.494 98.0426 111.706 97.5458 110.156 96.5523C108.605 95.5467 107.387 94.0747 106.503 92.1362C105.63 90.1855 105.194 87.7987 105.194 84.9758C105.194 82.1528 105.63 79.7721 106.503 77.8336C107.387 75.883 108.605 74.4109 110.156 73.4174C111.706 72.4118 113.494 71.909 115.517 71.909C117.54 71.909 119.327 72.4118 120.878 73.4174C122.429 74.4109 123.64 75.883 124.513 77.8336ZM152.841 80.7595V75.6709H147.062V73.4719C147.062 72.3815 147.31 71.5455 147.807 70.964C148.316 70.3703 149.182 70.0735 150.405 70.0735C150.926 70.0735 151.399 70.1219 151.823 70.2189C152.247 70.3037 152.598 70.3885 152.877 70.4733L154.186 65.3847C153.762 65.2393 153.107 65.0758 152.223 64.894C151.338 64.7123 150.327 64.6214 149.188 64.6214C147.576 64.6214 146.11 64.9304 144.79 65.5483C143.469 66.1662 142.415 67.0991 141.628 68.347C140.852 69.5949 140.465 71.1578 140.465 73.0358V75.6709H136.339V80.7595H140.465V103.585H147.062V80.7595H152.841ZM172.132 80.7595V75.6709H166.353V73.4719C166.353 72.3815 166.601 71.5455 167.098 70.964C167.607 70.3703 168.473 70.0735 169.697 70.0735C170.218 70.0735 170.69 70.1219 171.114 70.2189C171.538 70.3037 171.89 70.3885 172.168 70.4733L173.477 65.3847C173.053 65.2393 172.398 65.0758 171.514 64.894C170.63 64.7123 169.618 64.6214 168.479 64.6214C166.868 64.6214 165.402 64.9304 164.081 65.5483C162.76 66.1662 161.706 67.0991 160.919 68.347C160.143 69.5949 159.756 71.1578 159.756 73.0358V75.6709H155.63V80.7595H159.756V103.585H166.353V80.7595H172.132ZM177.284 75.6709V103.585H183.863V75.6709H177.284ZM177.902 70.6732C178.653 71.3638 179.55 71.7091 180.592 71.7091C181.646 71.7091 182.542 71.3638 183.281 70.6732C184.033 69.9705 184.408 69.1285 184.408 68.1471C184.408 67.1536 184.033 66.3116 183.281 65.621C182.542 64.9183 181.646 64.5669 180.592 64.5669C179.55 64.5669 178.653 64.9183 177.902 65.621C177.151 66.3116 176.775 67.1536 176.775 68.1471C176.775 69.1285 177.151 69.9705 177.902 70.6732ZM195.626 102.295C197.625 103.519 200.018 104.131 202.804 104.131C205.143 104.131 207.178 103.707 208.911 102.859C210.643 101.998 212.012 100.811 213.018 99.2965C214.023 97.77 214.605 96.0192 214.763 94.0444H208.474C208.281 95.05 207.923 95.9041 207.402 96.6069C206.881 97.3096 206.233 97.8487 205.458 98.2243C204.694 98.5878 203.828 98.7695 202.859 98.7695C201.49 98.7695 200.296 98.406 199.279 97.6791C198.273 96.94 197.492 95.892 196.934 94.5351C196.377 93.166 196.098 91.5304 196.098 89.6282C196.098 87.7503 196.377 86.1389 196.934 84.7941C197.504 83.4492 198.297 82.4194 199.315 81.7045C200.333 80.9776 201.514 80.6141 202.859 80.6141C204.446 80.6141 205.712 81.0685 206.657 81.9772C207.614 82.8737 208.22 83.9944 208.474 85.3393H214.763C214.617 83.3281 214.023 81.5713 212.982 80.0689C211.94 78.5545 210.54 77.3853 208.783 76.5614C207.039 75.7255 205.034 75.3075 202.768 75.3075C200.042 75.3075 197.679 75.9193 195.68 77.143C193.693 78.3546 192.155 80.0508 191.064 82.2316C189.974 84.4003 189.429 86.9022 189.429 89.7373C189.429 92.5602 189.962 95.056 191.028 97.2248C192.106 99.3813 193.639 101.071 195.626 102.295ZM225.271 102.386C227.307 103.549 229.724 104.131 232.523 104.131C234.691 104.131 236.618 103.804 238.302 103.149C239.986 102.483 241.367 101.55 242.445 100.351C243.536 99.139 244.275 97.7215 244.663 96.098L238.52 95.4074C238.229 96.1949 237.799 96.8552 237.23 97.3883C236.66 97.9214 235.988 98.3273 235.212 98.6059C234.437 98.8725 233.571 99.0058 232.613 99.0058C231.184 99.0058 229.936 98.7029 228.87 98.0971C227.804 97.4792 226.974 96.5947 226.38 95.4437C225.806 94.3199 225.51 92.9811 225.49 91.4274H244.935V89.4101C244.935 86.9628 244.596 84.8546 243.917 83.0857C243.239 81.3047 242.306 79.8387 241.119 78.6877C239.943 77.5368 238.587 76.6887 237.048 76.1434C235.521 75.5861 233.898 75.3075 232.177 75.3075C229.512 75.3075 227.192 75.9193 225.217 77.143C223.242 78.3546 221.703 80.0508 220.601 82.2316C219.51 84.4003 218.965 86.9204 218.965 89.7918C218.965 92.7117 219.51 95.2499 220.601 97.4065C221.691 99.551 223.248 101.211 225.271 102.386ZM225.503 86.993C225.566 85.8994 225.846 84.8877 226.344 83.9581C226.913 82.904 227.707 82.0559 228.724 81.4138C229.742 80.7595 230.923 80.4324 232.268 80.4324C233.528 80.4324 234.631 80.7171 235.576 81.2866C236.533 81.856 237.278 82.6375 237.811 83.6309C238.344 84.6123 238.617 85.733 238.629 86.993H225.503ZM100.7 119.277V156.497H107.443V140.686H124.69V156.497H131.45V119.277H124.69V135.034H107.443V119.277H100.7ZM143.581 155.243C145.58 156.442 147.943 157.042 150.669 157.042C153.395 157.042 155.757 156.442 157.756 155.243C159.755 154.043 161.3 152.365 162.391 150.209C163.493 148.052 164.044 145.532 164.044 142.648C164.044 139.765 163.493 137.239 162.391 135.07C161.3 132.901 159.755 131.217 157.756 130.018C155.757 128.818 153.395 128.219 150.669 128.219C147.943 128.219 145.58 128.818 143.581 130.018C141.582 131.217 140.031 132.901 138.928 135.07C137.838 137.239 137.293 139.765 137.293 142.648C137.293 145.532 137.838 148.052 138.928 150.209C140.031 152.365 141.582 154.043 143.581 155.243ZM154.412 150.554C153.419 151.366 152.183 151.772 150.705 151.772C149.19 151.772 147.93 151.366 146.925 150.554C145.931 149.73 145.186 148.628 144.689 147.246C144.205 145.865 143.963 144.326 143.963 142.63C143.963 140.922 144.205 139.377 144.689 137.996C145.186 136.603 145.931 135.494 146.925 134.67C147.93 133.846 149.19 133.434 150.705 133.434C152.183 133.434 153.419 133.846 154.412 134.67C155.406 135.494 156.145 136.603 156.629 137.996C157.126 139.377 157.375 140.922 157.375 142.63C157.375 144.326 157.126 145.865 156.629 147.246C156.145 148.628 155.406 149.73 154.412 150.554ZM187.42 128.582V144.757C187.42 146.174 187.123 147.355 186.53 148.3C185.948 149.233 185.203 149.936 184.294 150.409C183.385 150.881 182.447 151.117 181.477 151.117C179.902 151.117 178.63 150.596 177.661 149.554C176.692 148.512 176.207 147.107 176.207 145.338V128.582H169.628V146.356C169.628 148.585 170.022 150.487 170.809 152.062C171.597 153.625 172.687 154.819 174.081 155.643C175.486 156.454 177.103 156.86 178.933 156.86C181.029 156.86 182.792 156.363 184.221 155.37C185.663 154.376 186.699 153.098 187.329 151.535H187.62V156.497H193.999V128.582H187.42ZM200.764 128.582V156.497H207.343V140.086C207.343 138.899 207.615 137.851 208.161 136.942C208.706 136.033 209.451 135.325 210.396 134.816C211.353 134.295 212.431 134.034 213.631 134.034C214.188 134.034 214.764 134.077 215.357 134.161C215.963 134.234 216.405 134.319 216.684 134.416V128.364C216.381 128.303 215.999 128.261 215.539 128.237C215.091 128.2 214.685 128.182 214.321 128.182C212.722 128.182 211.299 128.625 210.051 129.509C208.815 130.381 207.942 131.623 207.434 133.235H207.143V128.582H200.764ZM237.12 136.615L243.117 135.961C242.669 133.586 241.5 131.702 239.61 130.309C237.732 128.915 235.157 128.219 231.886 128.219C229.657 128.219 227.688 128.57 225.98 129.273C224.284 129.963 222.957 130.945 222 132.217C221.055 133.477 220.588 134.967 220.6 136.688C220.588 138.723 221.224 140.407 222.509 141.74C223.793 143.06 225.774 143.999 228.451 144.557L233.213 145.556C234.497 145.835 235.442 146.235 236.048 146.756C236.666 147.277 236.975 147.937 236.975 148.737C236.975 149.682 236.496 150.475 235.539 151.117C234.594 151.759 233.34 152.081 231.777 152.081C230.263 152.081 229.033 151.759 228.088 151.117C227.143 150.475 226.525 149.524 226.234 148.264L219.819 148.882C220.219 151.45 221.461 153.456 223.544 154.897C225.628 156.327 228.379 157.042 231.795 157.042C234.121 157.042 236.181 156.666 237.974 155.915C239.767 155.164 241.167 154.122 242.172 152.789C243.19 151.444 243.705 149.894 243.717 148.137C243.705 146.138 243.051 144.52 241.754 143.285C240.47 142.049 238.507 141.146 235.866 140.577L231.105 139.559C229.687 139.232 228.669 138.814 228.051 138.305C227.446 137.796 227.149 137.136 227.161 136.324C227.149 135.379 227.603 134.61 228.524 134.016C229.457 133.422 230.608 133.126 231.977 133.126C232.995 133.126 233.855 133.289 234.558 133.616C235.26 133.943 235.818 134.373 236.23 134.907C236.654 135.44 236.95 136.009 237.12 136.615Z" fill="url(#paint1_linear_5496_5766)"/>
<path fill-rule="evenodd" clip-rule="evenodd" d="M291.497 110.113C291.497 96.2921 288.348 83.2069 282.729 71.5352L286.381 67.8831C292.781 80.5785 296.386 94.9247 296.386 110.113C296.386 161.991 254.33 204.047 202.451 204.047C174.7 204.047 149.759 192.013 132.563 172.878C132.506 172.798 132.45 172.718 132.394 172.638H139.051C155.203 189.016 177.64 199.158 202.451 199.158C251.63 199.158 291.497 159.291 291.497 110.113ZM202.451 21.0676C178.073 21.0676 155.986 30.8593 139.901 46.7368H133.117C150.292 27.957 174.996 16.1782 202.451 16.1782C220.827 16.1782 237.97 21.4546 252.449 30.5749L248.898 34.1258C235.375 25.8425 219.471 21.0676 202.451 21.0676Z" fill="url(#paint2_linear_5496_5766)"/>
<path d="M283.729 33.8746C275.924 26.0418 263.268 26.0418 255.464 33.8746L242.708 46.6769C241.954 47.4345 241.954 48.6544 242.708 49.412L255.464 62.2142C263.268 70.0471 275.924 70.0471 283.729 62.227C291.546 54.407 291.546 41.7075 283.729 33.8746ZM280.712 58.4647C274.982 64.2174 265.681 64.2174 259.951 58.4647L250.562 49.0524C250.009 48.5003 250.009 47.6014 250.562 47.0364L259.938 37.637C265.669 31.8843 274.969 31.8843 280.7 37.637C286.443 43.3896 286.443 52.712 280.712 58.4647Z" fill="#00B3FF"/>
<path d="M300.444 46.6897L294.826 40.9499C294.487 40.6032 293.922 40.9242 294.035 41.3993C295.002 45.778 295.002 50.3493 294.035 54.728C293.934 55.2031 294.5 55.5113 294.826 55.1774L300.444 49.4376C301.186 48.6672 301.186 47.4473 300.444 46.6897Z" fill="#00B3FF"/>
<path d="M270.395 58.1181C275.829 58.1181 280.235 53.6166 280.235 48.0638C280.235 42.5109 275.829 38.0095 270.395 38.0095C264.96 38.0095 260.554 42.5109 260.554 48.0638C260.554 53.6166 264.96 58.1181 270.395 58.1181Z" fill="#00B3FF"/>
<defs>
<filter id="filter0_f_5496_5766" x="24.7863" y="0.287796" width="431.862" height="304.074" filterUnits="userSpaceOnUse" color-interpolation-filters="sRGB">
<feFlood flood-opacity="0" result="BackgroundImageFix"/>
<feBlend mode="normal" in="SourceGraphic" in2="BackgroundImageFix" result="shape"/>
<feGaussianBlur stdDeviation="61.1171" result="effect1_foregroundBlur_5496_5766"/>
</filter>
<radialGradient id="paint0_radial_5496_5766" cx="0" cy="0" r="1" gradientUnits="userSpaceOnUse" gradientTransform="translate(207.324 99.4348) rotate(90) scale(216.963 234.048)">
<stop offset="0.201593" stop-color="#57C2FF"/>
<stop offset="0.346532" stop-color="#30FFDA" stop-opacity="0.69"/>
<stop offset="0.769166" stop-color="#7D2EFF" stop-opacity="0.46"/>
<stop offset="0.924424" stop-color="#062F44" stop-opacity="0.13"/>
</radialGradient>
<linearGradient id="paint1_linear_5496_5766" x1="265.894" y1="163.438" x2="73.2873" y2="41.0158" gradientUnits="userSpaceOnUse">
<stop offset="0.171367" stop-color="#A3FFEF"/>
<stop offset="0.550467" stop-color="#00B3FF"/>
<stop offset="0.865103" stop-color="#7D2EFF"/>
</linearGradient>
<linearGradient id="paint2_linear_5496_5766" x1="114.665" y1="4.86056" x2="235.741" y2="208.89" gradientUnits="userSpaceOnUse">
<stop stop-color="#7D2EFF"/>
<stop offset="0.5625" stop-color="#1B7EF5"/>
<stop offset="1" stop-color="#09CAD0"/>
</linearGradient>
</defs>
</svg>
