<svg fill="none" height="30" viewBox="0 0 30 30" width="30" xmlns="http://www.w3.org/2000/svg"><path d="m21.5626 18.7502c-.7018.0035-1.3938.1646-2.0249.4712-.6312.3067-1.1855.7512-1.622 1.3007l-6.8531-4.2844c.2497-.8061.2497-1.6689 0-2.475l6.8531-4.28438c.6956.86128 1.6736 1.44858 2.7607 1.65788s2.2132.027 3.1789-.5145c.9656-.5415 1.7084-1.4073 2.0968-2.44403s.3973-2.17746.0251-3.22013c-.3721-1.04268-1.1013-1.91998-2.0583-2.47651-.9571-.55653-2.0802-.75635-3.1705-.56409-1.0903.19227-2.0773.76423-2.7862 1.61455-.709.85032-1.0941 1.92413-1.0871 3.0312.0044.41923.0675.83578.1875 1.2375l-6.8531 4.28441c-.60506-.7617-1.43204-1.3162-2.36634-1.5869-.9343-.2706-1.92965-.2438-2.84807.0766s-1.71443.9185-2.27768 1.7116c-.56325.793-.86585 1.7416-.86585 2.7143s.3026 1.9213.86585 2.7143c.56325.7931 1.35926 1.3912 2.27768 1.7116s1.91377.3471 2.84807.0765 1.76128-.8251 2.36634-1.5868l6.8531 4.2844c-.12.4017-.1831.8183-.1875 1.2375 0 .9271.2749 1.8334.79 2.6042.515.7709 1.2471 1.3717 2.1037 1.7265.8565.3548 1.799.4476 2.7083.2667.9093-.1808 1.7445-.6273 2.4-1.2828.6556-.6556 1.102-1.4908 1.2829-2.4001s.0881-1.8518-.2667-2.7083c-.3548-.8566-.9556-1.5887-1.7265-2.1037-.7708-.5151-1.6771-.79-2.6042-.79zm0-15.00001c.5562 0 1.1.16495 1.5625.47399s.823.7483 1.0359 1.26221c.2129.51392.2686 1.07942.16 1.62499-.1085.54557-.3763 1.04671-.7697 1.44005-.3933.39333-.8945.6612-1.44.76972-.5456.10852-1.1111.05282-1.625-.16005s-.9532-.57335-1.2622-1.03587c-.3091-.46251-.474-1.00628-.474-1.56254 0-.74592.2963-1.46129.8237-1.98874.5275-.52744 1.2429-.82376 1.9888-.82376zm-15.00002 14.06251c-.55626 0-1.10003-.165-1.56254-.474s-.823-.7483-1.03587-1.2622-.26857-1.0794-.16005-1.625.37639-1.0467.76972-1.44c.39334-.3934.89448-.6612 1.44005-.7698.54557-.1085 1.11107-.0528 1.62499.1601s.95317.5733 1.26221 1.0358c.30904.4626.47399 1.0063.47399 1.5626 0 .7459-.29631 1.4613-.82376 1.9887-.52745.5275-1.24282.8238-1.98874.8238zm15.00002 8.4375c-.5563 0-1.1-.165-1.5626-.474-.4625-.309-.823-.7483-1.0358-1.2622-.2129-.5139-.2686-1.0794-.1601-1.625s.3764-1.0467.7697-1.44c.3934-.3934.8945-.6612 1.4401-.7698.5456-.1085 1.1111-.0528 1.625.1601s.9531.5733 1.2622 1.0359c.309.4625.474 1.0062.474 1.5625 0 .7459-.2963 1.4613-.8238 1.9887-.5274.5275-1.2428.8238-1.9887.8238z" fill="#000"/></svg>