<svg fill="none" height="30" viewBox="0 0 30 30" width="30" xmlns="http://www.w3.org/2000/svg"><path d="m16.3125 12.2375-3.8125-2.8625v11.25l3.8125-2.8625 3.6875-2.7625zm0 0-3.8125-2.8625v11.25l3.8125-2.8625 3.6875-2.7625zm0 0-3.8125-2.8625v11.25l3.8125-2.8625 3.6875-2.7625zm-2.5625-7.15v-2.525c-2.5125.25-4.8 1.25-6.65 2.7625l1.775 1.7875c1.4124-1.10264 3.097-1.80239 4.875-2.025zm-6.6375 3.7875-1.7875-1.775c-1.55648 1.89573-2.51762 4.2094-2.7625 6.65h2.525c.225-1.825.95-3.4875 2.025-4.875zm-2.025 7.375h-2.525c.25 2.5125 1.25 4.8 2.7625 6.65l1.7875-1.7875c-1.10455-1.4066-1.80466-3.0877-2.025-4.8625zm2.0125 8.425c1.89697 1.5544 4.21 2.5153 6.65 2.7625v-2.525c-1.778-.2226-3.4626-.9224-4.875-2.025zm20.4-9.675c0 6.45-4.9 11.775-11.1875 12.4375v-2.525c4.9-.65 8.6875-4.85 8.6875-9.9125s-3.7875-9.2625-8.6875-9.9125v-2.525c6.2875.6625 11.1875 5.9875 11.1875 12.4375z" fill="#000"/></svg>