<svg fill="none" height="24" viewBox="0 0 24 24" width="24" xmlns="http://www.w3.org/2000/svg"><path d="m21.5088 3.4876-.9938-.99375c-.0375-.0375-.0843-.05391-.1336-.05391-.0492 0-.096.01875-.1335.05391l-1.7836 1.78359c-.7899-.53672-1.7086-.8039-2.6274-.8039-1.2 0-2.4.45703-3.3164 1.37343l-2.3883 2.38828c-.0726.07266-.0726.19219 0 .26485l6.368 6.368c.0375.0375.0844.0539.1336.0539.0469 0 .0961-.0188.1336-.0539l2.3883-2.3883c1.6148-1.6172 1.8047-4.11798.5695-5.94142l1.7836-1.78359c.0726-.075.0726-.19454 0-.26719zm-3.4828 6.8648-1.3922 1.3922-4.3781-4.3781 1.3922-1.39218c.5835-.5836 1.3617-.90704 2.189-.90704.8274 0 1.6031.3211 2.1891.90704.5836.58359.907 1.36171.907 2.18906 0 .82734-.3234 1.60312-.907 2.18902zm-4.4578 2.461c-.0727-.0727-.1922-.0727-.2649 0l-1.5609 1.5609-2.11642-2.1164 1.56332-1.5633c.0726-.0726.0726-.1922 0-.2648l-.8532-.85314c-.0726-.07266-.1922-.07266-.2648 0l-1.56329 1.56324-1.00781-1.0078c-.0375-.0375-.08438-.0539-.1336-.0539-.04687 0-.09609.0188-.13359.0539l-2.38594 2.3883c-1.61484 1.6172-1.80469 4.118-.56953 5.9414l-1.78359 1.7836c-.07266.0727-.07266.1922 0 .2649l.99375.9937c.0375.0375.08437.0539.13359.0539s.09609-.0187.13359-.0539l1.7836-1.7836c.78984.5367 1.70859.8039 2.62734.8039 1.2 0 2.39998-.457 3.31638-1.3734l2.3883-2.3883c.0727-.0727.0727-.1922 0-.2648l-1.0078-1.0079 1.5633-1.5632c.0726-.0727.0726-.1922 0-.2649zm-3.2157 5.2125c-.58355.5836-1.36168.907-2.18902.907-.82735 0-1.60313-.3211-2.18907-.907-.58359-.5836-.90703-1.3617-.90703-2.1891 0-.8273.3211-1.6031.90703-2.189l1.39219-1.3922 4.3781 4.3781z" fill="#545454"/></svg>