<svg fill="none" height="24" viewBox="0 0 24 24" width="24" xmlns="http://www.w3.org/2000/svg"><g fill="#545454"><path d="m11.9997 22.4966c-2.42237-.0015-4.76975-.8402-6.64452-2.3742-1.87476-1.534-3.16164-3.6689-3.64262-6.043-.48099-2.3741-.12652-4.84153 1.00337-6.98423 1.12989-2.14271 2.96572-3.82897 5.1965-4.77313 2.56337-1.07062 5.44657-1.08204 8.01837-.03175s4.6227 3.07673 5.7039 5.63573c1.0811 2.55898 1.1043 5.44208.0646 8.01818-1.0398 2.5761-3.0578 4.6353-5.6123 5.7269-1.293.5474-2.6832.8281-4.0873.8255zm0-19.50003c-4.96266 0-9.00001 4.03735-9.00001 9.00003 0 4.9626 4.03735 9 9.00001 9 4.9626 0 9-4.0374 9-9 0-4.96268-4.0374-9.00003-9-9.00003z"/><path d="m12 16.7729c-.2008.0001-.3998-.0387-.5859-.1142-.0488-.0199-.0947-.0463-.1364-.0785l-.6291-.4849c-.0284-.006-.0573-.0091-.0863-.0091h-3.74527c-.77344 0-1.40297-.5625-1.40297-1.2525v-6.3605c0-.6907.6293-1.2525 1.40297-1.2525h3.46877c.1554 0 .3044.06174.4143.17162.1099.10989.1716.25892.1716.41432s-.0617.30444-.1716.41432c-.1099.10989-.2589.17162-.4143.17162h-3.46877c-.13195 0-.21422.05929-.23109.08789v6.34593c.01687.0286.09914.0879.23109.0879h3.74457c.2009 0 .3998.0387.586.1139.0487.0199.0946.0462.1364.0783l.6288.4849c.057.0122.116.0122.173 0l.6288-.4849c.0418-.0321.0876-.0584.1364-.0783.1862-.0752.3851-.1139.586-.1139h3.746c.1319 0 .2142-.0593.2311-.0879v-6.34593c-.0169-.0286-.0992-.08789-.2311-.08789h-4.366c-.1319 0-.2142.05929-.2311.08789v4.92183c0 .1554-.0617.3045-.1716.4144-.1099.1098-.2589.1716-.4143.1716s-.3044-.0618-.4143-.1716c-.1099-.1099-.1716-.259-.1716-.4144v-4.9291c0-.6907.6293-1.2525 1.4029-1.2525h4.366c.7734 0 1.4029.5625 1.4029 1.2525v6.3605c0 .6907-.6293 1.2525-1.4029 1.2525h-3.7446c-.029 0-.0579.0031-.0863.0091l-.6291.4849c-.0417.0322-.0876.0586-.1364.0785-.1863.0756-.3855.1144-.5866.1142z"/><path d="m7.80469 9.91943h2.10937c.39064 0 .58594.19527.58594.58597 0 .3906-.1953.5859-.58594.5859h-2.10937c-.39063 0-.58594-.1953-.58594-.5859 0-.3907.19531-.58597.58594-.58597z"/><path d="m7.80469 12.0054h2.10937c.39064 0 .58594.1953.58594.5859s-.1953.5859-.58594.5859h-2.10937c-.39063 0-.58594-.1953-.58594-.5859s.19531-.5859.58594-.5859z"/></g></svg>