<svg fill="none" height="24" viewBox="0 0 24 24" width="24" xmlns="http://www.w3.org/2000/svg"><g fill="#545454"><path d="m12.0938 15.7731c0 .1032.0796.1875.1757.1875h4.336c.0961 0 .1757-.0843.1757-.1875v-1.125c0-.1031-.0796-.1875-.1757-.1875h-4.336c-.0961 0-.1757.0844-.1757.1875zm-4.56802.143 4.50002-3.7734c.089-.075.089-.2133 0-.2883l-4.50002-3.77111c-.12187-.10312-.30703-.0164-.30703.14297v1.46953c0 .05625.02344.10782.06797.14297l2.57344 2.16094-2.57344 2.1609c-.04219.0352-.06797.0891-.06797.143v1.4695c0 .1594.18516.2461.30703.143z"/><path d="m20.625 2.625h-17.25c-.41484 0-.75.33516-.75.75v17.25c0 .4148.33516.75.75.75h17.25c.4148 0 .75-.3352.75-.75v-17.25c0-.41484-.3352-.75-.75-.75zm-.9375 17.0625h-15.375v-15.375h15.375z"/></g></svg>