<svg fill="none" height="24" viewBox="0 0 24 24" width="24" xmlns="http://www.w3.org/2000/svg"><g fill="#545454"><path d="m5.25 19.4985v-14.99625l-.0045-.00225h8.2545v3.7485c0 .828.6735 1.5015 1.5015 1.5015h3.7433c.0007.012.0052.02775.0052.039l.006 9.711zm12.5078-11.2485-2.7578-.0015v-2.9955zm1.7827-.27825-3.8407-4.17375c-.4253-.462-1.1858-.798-1.809-.798h-8.6453c-.39737.00139-.77797.16032-1.05833.44194-.28035.28162-.43757.66293-.43717 1.06031v14.99625c-.0004.397.15664.7781.43669 1.0595.28005.2815.66027.4404 1.05731.442h13.512c.3973-.0016.7778-.1607 1.0578-.4425.2801-.2818.437-.6632.4362-1.0605v-9.708c0-.606-.2985-1.37025-.7095-1.81725z"/><path d="m15 12h-6c-.19891 0-.38968.079-.53033.2197-.14065.1406-.21967.3314-.21967.5303s.07902.3897.21967.5303c.14065.1407.33142.2197.53033.2197h6c.1989 0 .3897-.079.5303-.2197.1407-.1406.2197-.3314.2197-.5303s-.079-.3897-.2197-.5303c-.1406-.1407-.3314-.2197-.5303-.2197zm0 3.75h-6c-.19891 0-.38968.079-.53033.2197-.14065.1406-.21967.3314-.21967.5303s.07902.3897.21967.5303c.14065.1407.33142.2197.53033.2197h6c.1989 0 .3897-.079.5303-.2197.1407-.1406.2197-.3314.2197-.5303s-.079-.3897-.2197-.5303c-.1406-.1407-.3314-.2197-.5303-.2197z"/></g></svg>