<svg fill="none" height="24" viewBox="0 0 24 24" width="24" xmlns="http://www.w3.org/2000/svg"><path d="m10.3059 10.9729h-6.6706c-.08343 0-.16604-.0165-.24312-.0485-.07708-.0321-.14711-.0791-.20611-.1383-.05899-.0592-.10578-.1295-.13771-.2069s-.04836-.1603-.04836-.2441v-6.69727c0-.08376.01643-.1667.04836-.24408.03193-.07739.07872-.1477.13771-.20693.059-.05923.12903-.10621.20611-.13827.07708-.03205.15969-.04855.24312-.04855h6.6706c.0834 0 .166.0165.2431.04855.0771.03206.1471.07904.2061.13827s.1058.12954.1377.20693c.032.07738.0484.16032.0484.24408v6.69727c0 .0838-.0164.1667-.0484.2441-.0319.0774-.0787.1477-.1377.2069s-.129.1062-.2061.1383c-.0771.032-.1597.0485-.2431.0485zm-6.03531-1.27564h5.40002v-5.42159h-5.40002zm16.09411 1.27564h-6.6706c-.0834 0-.166-.0165-.2431-.0485-.0771-.0321-.1471-.0791-.2061-.1383s-.1058-.1295-.1377-.2069c-.032-.0774-.0484-.1603-.0484-.2441v-6.69727c0-.08376.0164-.1667.0484-.24408.0319-.07739.0787-.1477.1377-.20693s.129-.10621.2061-.13827c.0771-.03205.1597-.04855.2431-.04855h6.6706c.1685 0 .3301.0672.4492.18682.1192.11961.1861.28185.1861.45101v6.69727c0 .1692-.0669.3314-.1861.451-.1191.1196-.2807.1868-.4492.1868zm-6.0353-1.27564h5.4v-5.42159h-5.4zm-4.0235 11.30274h-6.6706c-.08343 0-.16604-.0165-.24312-.0486-.07708-.032-.14711-.079-.20611-.1382-.05899-.0592-.10578-.1296-.13771-.2069-.03193-.0774-.04836-.1604-.04836-.2441v-6.6973c0-.0838.01643-.1667.04836-.2441s.07872-.1477.13771-.2069c.059-.0592.12903-.1062.20611-.1383.07708-.032.15969-.0485.24312-.0485h6.6706c.0834 0 .166.0165.2431.0485.0771.0321.1471.0791.2061.1383s.1058.1295.1377.2069c.032.0774.0484.1603.0484.2441v6.6973c0 .0837-.0164.1667-.0484.2441-.0319.0773-.0787.1477-.1377.2069s-.129.1062-.2061.1382c-.0771.0321-.1597.0486-.2431.0486zm-6.03531-1.2757h5.40002v-5.4216h-5.40002zm16.09411 1.2757h-6.6706c-.0834 0-.166-.0165-.2431-.0486-.0771-.032-.1471-.079-.2061-.1382s-.1058-.1296-.1377-.2069c-.032-.0774-.0484-.1604-.0484-.2441v-6.6973c0-.0838.0164-.1667.0484-.2441.0319-.0774.0787-.1477.1377-.2069s.129-.1062.2061-.1383c.0771-.032.1597-.0485.2431-.0485h6.6706c.0834 0 .166.0165.2431.0485.0771.0321.1471.0791.2061.1383s.1058.1295.1377.2069c.032.0774.0484.1603.0484.2441v6.6973c0 .0837-.0164.1667-.0484.2441-.0319.0773-.0787.1477-.1377.2069s-.129.1062-.2061.1382c-.0771.0321-.1597.0486-.2431.0486zm-6.0353-1.2757h5.4v-5.4216h-5.4z" fill="#545454"/></svg>