<svg fill="none" height="23" viewBox="0 0 103 23" width="103" xmlns="http://www.w3.org/2000/svg" xmlns:xlink="http://www.w3.org/1999/xlink"><clipPath id="a"><path d="m0 0h102.615v23h-102.615z"/></clipPath><g clip-path="url(#a)"><path d="m33.2891 18.3497 1.1489-2.6913c1.2591.9286 2.8959 1.4165 4.5327 1.4165 1.1961 0 1.9673-.4722 1.9673-1.1804-.0315-1.9673-7.2397-.4407-7.3027-5.3984-.0315-2.51812 2.2191-4.46971 5.3826-4.46971 1.8886 0 3.7773.47216 5.115 1.52664l-1.0702 2.73847c-1.2276-.78688-2.7542-1.33773-4.2022-1.33773-.9915 0-1.6368.47215-1.6368 1.07023.0315 1.9516 7.3027.8814 7.3814 5.6187 0 2.5811-2.1877 4.3753-5.3039 4.3753-2.2978.0315-4.4068-.5194-6.0121-1.6683zm45.7205-3.6514c-.5981 1.0545-1.6998 1.6998-2.8959 1.6998-1.8414 0-3.3366-1.4952-3.3366-3.3366s1.4952-3.33654 3.3366-3.33654c1.1961 0 2.3135.64524 2.8959 1.69974l3.1949-1.77843c-1.1961-2.14045-3.4782-3.5884-6.0908-3.5884-3.856 0-6.9879 3.13197-6.9879 7.00363 0 3.8717 3.1319 7.0037 6.9879 7.0037 2.6126 0 4.8947-1.448 6.0908-3.5884zm-32.327 5.0679h3.9976v-19.547338h-3.9976zm37.5364-19.547338v19.547338h3.9976v-5.8548l4.7373 5.8548h5.0993l-6.0121-6.9565 5.5714-6.50001h-4.8789l-4.517 5.39831v-11.504875h-3.9976zm-21.247 6.106568v1.58959c-.661-1.1017-2.2664-1.85715-3.9661-1.85715-3.494 0-6.264 3.1005-6.264 6.98793 0 3.8874 2.7543 7.0194 6.264 7.0194 1.6997 0 3.3051-.7712 3.9661-1.8572v1.5896h3.9976v-13.45643h-3.9976zm0 8.38867c-.5666.96-1.7785 1.6683-3.1163 1.6683-1.8414 0-3.3365-1.4952-3.3365-3.3366s1.4951-3.33658 3.3365-3.33658c1.3378 0 2.5497.73968 3.1163 1.73128z" fill="#000"/><path d="m12.1991-.206055c-1.2906 0-2.34505 1.054483-2.34505 2.345045 0 1.29056 1.05445 2.34504 2.34505 2.34504h2.345v-2.34504c0-1.290562-1.0387-2.345045-2.345-2.345045zm0 6.248215h-6.23247c-1.29056 0-2.34505 1.05448-2.34505 2.34504s1.05449 2.345 2.34505 2.345h6.24817c1.2906 0 2.3451-1.05444 2.3451-2.345-.0158-1.29056-1.0545-2.34504-2.3608-2.34504z" fill="#36c5f0"/><path d="m27.0408 8.38732c0-1.29056-1.0544-2.34505-2.345-2.34505s-2.3451 1.05449-2.3451 2.34505v2.34508h2.3451c1.2906.0157 2.345-1.03878 2.345-2.34508zm-6.2482 0v-6.26395c0-1.290567-1.0545-2.34505-2.345-2.34505-1.2906 0-2.3451 1.054483-2.3451 2.34505v6.26395c0 1.29056 1.0545 2.34508 2.3451 2.34508 1.3063.0157 2.345-1.03878 2.345-2.34508z" fill="#2eb67d"/><path d="m18.4476 23.2607c1.2905 0 2.345-1.0545 2.345-2.3451 0-1.2905-1.0545-2.345-2.345-2.345h-2.3451v2.345c0 1.2906 1.0545 2.3451 2.3451 2.3451zm0-6.264h6.2482c1.2906 0 2.345-1.0545 2.345-2.345 0-1.2906-1.0544-2.3451-2.345-2.3451h-6.2482c-1.2906 0-2.3451 1.0545-2.3451 2.3451 0 1.2905 1.0545 2.345 2.3451 2.345z" fill="#ecb22e"/><path d="m3.62158 14.6517c0 1.2905 1.05449 2.345 2.34505 2.345s2.34504-1.0545 2.34504-2.345v-2.3451h-2.34504c-1.3063 0-2.34505 1.0545-2.34505 2.3451zm6.24821 0v6.2639c0 1.2906 1.05451 2.3451 2.34501 2.3451 1.2906 0 2.3451-1.0545 2.3451-2.3451v-6.2639c0-1.2906-1.0545-2.3451-2.3451-2.3451-1.3063 0-2.34501 1.0545-2.34501 2.3451z" fill="#e01e5a"/></g></svg>