<svg width="36" height="36" viewBox="0 0 36 36" fill="none" xmlns="http://www.w3.org/2000/svg">
<path d="M26.6777 9.67506C25.0212 8.89256 23.2499 8.32388 21.3982 8.00006C21.1708 8.41518 20.9051 8.97352 20.7219 9.41768C18.7534 9.1188 16.803 9.1188 14.8708 9.41768C14.6876 8.97352 14.4159 8.41518 14.1864 8.00006C12.3327 8.32388 10.5594 8.89465 8.90288 9.6792C5.56167 14.7768 4.65592 19.7477 5.10879 24.6481C7.32486 26.3189 9.47249 27.3338 11.5839 27.998C12.1052 27.2736 12.5701 26.5036 12.9707 25.6921C12.2078 25.3994 11.4772 25.0383 10.7868 24.619C10.97 24.482 11.1491 24.3388 11.3222 24.1914C15.5329 26.1798 20.108 26.1798 24.2684 24.1914C24.4435 24.3388 24.6226 24.482 24.8038 24.619C24.1114 25.0403 23.3788 25.4015 22.6159 25.6942C23.0165 26.5036 23.4794 27.2757 24.0027 28.0001C26.1161 27.3359 28.2658 26.321 30.4818 24.6481C31.0132 18.9673 29.5741 14.042 26.6777 9.67506ZM13.5443 21.6344C12.2803 21.6344 11.2437 20.443 11.2437 18.9922C11.2437 17.5414 12.2582 16.3479 13.5443 16.3479C14.8305 16.3479 15.8671 17.5393 15.8449 18.9922C15.8469 20.443 14.8305 21.6344 13.5443 21.6344ZM22.0463 21.6344C20.7823 21.6344 19.7457 20.443 19.7457 18.9922C19.7457 17.5414 20.7601 16.3479 22.0463 16.3479C23.3325 16.3479 24.369 17.5393 24.3469 18.9922C24.3469 20.443 23.3325 21.6344 22.0463 21.6344Z" fill="#00131A"/>
</svg>
