<svg width="36" height="36" viewBox="0 0 36 36" fill="none" xmlns="http://www.w3.org/2000/svg">
<path fill-rule="evenodd" clip-rule="evenodd" d="M18.3035 6C11.5058 6 6 11.5058 6 18.3035C6 23.7478 9.52188 28.3463 14.4125 29.9765C15.0277 30.0842 15.2584 29.715 15.2584 29.3921C15.2584 29.0999 15.243 28.131 15.243 27.1005C12.1518 27.6696 11.352 26.347 11.106 25.6549C10.9675 25.3012 10.3678 24.2092 9.84485 23.917C9.41423 23.6863 8.79905 23.1173 9.82947 23.1019C10.7984 23.0865 11.4904 23.9939 11.7211 24.363C12.8285 26.2239 14.5971 25.701 15.3045 25.3781C15.4122 24.5783 15.7352 24.04 16.0889 23.7325C13.3514 23.4249 10.4908 22.3637 10.4908 17.6576C10.4908 16.3196 10.9675 15.2123 11.7519 14.351C11.6289 14.0434 11.1982 12.7823 11.8749 11.0906C11.8749 11.0906 12.9054 10.7676 15.2584 12.3517C16.2427 12.0749 17.2885 11.9365 18.3343 11.9365C19.3801 11.9365 20.4259 12.0749 21.4102 12.3517C23.7632 10.7522 24.7936 11.0906 24.7936 11.0906C25.4703 12.7823 25.0397 14.0434 24.9167 14.351C25.701 15.2123 26.1778 16.3042 26.1778 17.6576C26.1778 22.3791 23.3018 23.4249 20.5643 23.7325C21.0103 24.1169 21.3948 24.8552 21.3948 26.0086C21.3948 27.6542 21.3794 28.9768 21.3794 29.3921C21.3794 29.715 21.6101 30.0995 22.2253 29.9765C27.0852 28.3463 30.607 23.7325 30.607 18.3035C30.607 11.5058 25.1012 6 18.3035 6Z" fill="#00131A"/>
</svg>
