<svg width="36" height="36" viewBox="0 0 36 36" fill="none" xmlns="http://www.w3.org/2000/svg">
<path fill-rule="evenodd" clip-rule="evenodd" d="M11.8124 7.40621C11.8124 8.73512 10.7351 9.81242 9.40621 9.81242C8.0773 9.81242 7 8.73512 7 7.40621C7 6.0773 8.0773 5 9.40621 5C10.7351 5 11.8124 6.0773 11.8124 7.40621ZM25.3204 12.0524C25.303 12.0469 25.2859 12.0412 25.2688 12.0356C25.2346 12.0243 25.2003 12.013 25.1637 12.0029C25.0977 11.9877 25.0317 11.9754 24.9643 11.9644C24.7031 11.9121 24.4171 11.875 24.0816 11.875C21.2134 11.875 19.3943 13.9608 18.7948 14.7666V11.875H13.8751V26.9997H18.7948V18.7499C18.7948 18.7499 22.5127 13.5717 24.0816 17.3749V26.9997H28.9999V16.7933C28.9999 14.5081 27.4338 12.6037 25.3204 12.0524ZM7.00011 11.8753H11.9198V27.0001H7.00011V11.8753Z" fill="#00131A"/>
</svg>
