<svg width="36" height="36" viewBox="0 0 36 36" fill="none" xmlns="http://www.w3.org/2000/svg">
<path fill-rule="evenodd" clip-rule="evenodd" d="M26.866 9.1495C28.4244 9.23725 29.1898 9.468 29.895 10.7225C30.6295 11.9754 31 14.1334 31 17.9342V17.9391V17.9473C31 21.7303 30.6295 23.9045 29.8966 25.1444C29.1914 26.3989 28.426 26.6264 26.8676 26.732C25.3092 26.8214 21.3946 26.875 18.0033 26.875C14.6054 26.875 10.6891 26.8214 9.13238 26.7304C7.57725 26.6248 6.81187 26.3973 6.10012 25.1427C5.37375 23.9029 5 21.7286 5 17.9456V17.9424V17.9375V17.9326C5 14.1334 5.37375 11.9754 6.10012 10.7225C6.81187 9.46638 7.57888 9.23725 9.134 9.14788C10.6891 9.04388 14.6054 9 18.0033 9C21.3946 9 25.3092 9.04388 26.866 9.1495ZM22.875 17.9375L14.75 13.0625V22.8125L22.875 17.9375Z" fill="black"/>
</svg>
