<svg width="24" height="24" viewBox="0 0 24 24" fill="none" xmlns="http://www.w3.org/2000/svg">
<path d="M20.6724 21.0415C19.3674 21.797 17.7194 21.3165 16.9639 20.0115C16.2084 18.7065 16.6889 17.0585 17.9939 16.303C19.2989 15.5475 20.9474 16.028 21.7024 17.333C22.4579 18.638 21.9774 20.286 20.6724 21.0415V21.0415ZM20.6724 17.8825C20.2604 17.127 19.2989 16.8525 18.5434 17.2645C17.7884 17.6765 17.5134 18.638 17.9254 19.3935C18.3374 20.1485 19.2989 20.4235 20.0544 20.0115C20.8094 19.5995 21.0844 18.638 20.6724 17.8825ZM11.4699 4.76501C10.5084 5.31401 9.27239 4.97101 8.72288 4.00951C8.17339 3.04801 8.51689 1.81151 9.47789 1.262C10.4399 0.712997 11.6759 1.05601 12.2254 2.01751C12.7754 3.04751 12.4314 4.28401 11.4704 4.76501H11.4699ZM11.1949 2.636C10.9894 2.2235 10.4399 2.08601 10.0964 2.2925C9.68438 2.49851 9.54689 3.04751 9.75288 3.39101C9.9589 3.80351 10.5084 3.941 10.8519 3.73451C11.3329 3.5285 11.4699 3.04801 11.1954 2.636H11.1949ZM4.32739 13.1435C3.22789 13.7615 1.85489 13.35 1.30489 12.32C0.686885 11.221 1.03039 9.84753 2.12939 9.22953C3.22789 8.61153 4.60189 9.02351 5.21939 10.0535C5.76938 11.1525 5.42588 12.526 4.32689 13.144L4.32739 13.1435ZM4.12137 10.671C3.84638 10.1905 3.15989 9.98454 2.67938 10.259C2.19839 10.534 1.99238 11.2205 2.26688 11.7015C2.54189 12.182 3.22838 12.388 3.70939 12.1135C4.25888 11.8385 4.46438 11.152 4.12139 10.671H4.12137ZM9.54692 22.5525C8.58542 23.102 7.34942 22.7585 6.7999 21.7975C6.25041 20.8355 6.59391 19.5995 7.55541 19.05C8.51691 18.5005 9.75291 18.844 10.3024 19.805C10.8524 20.767 10.5084 22.003 9.54741 22.5525H9.54692ZM16.7584 12.7315L18.1319 15.204C17.9259 15.2725 17.7199 15.3415 17.5139 15.479C17.3764 15.5475 17.2389 15.6845 17.1019 15.7535L15.9339 13.6245L14.1489 15.5475L16.3464 16.509C16.1404 16.852 15.9339 17.1955 15.8654 17.539L13.3244 16.44L11.1269 18.844C10.8519 18.5005 10.5769 18.226 10.2339 18.0885L12.1569 15.9595L9.75288 14.8605L9.40988 17.6765C8.99738 17.539 8.65439 17.539 8.24239 17.539L8.65439 14.311L5.70089 13.006C5.90689 12.663 6.11288 12.3195 6.18188 11.9075L8.79188 13.075L9.06638 10.465L6.25039 11.015C6.25039 10.6025 6.18188 10.259 6.04437 9.84701L9.20389 9.16001L9.54689 5.93251C9.95888 6.0695 10.3024 6.0695 10.7144 6.0695L10.3714 8.88551L12.9814 8.336L11.5389 5.86351C11.6759 5.795 11.8139 5.72651 12.0194 5.65749C12.2254 5.5205 12.4314 5.3825 12.5689 5.24551L14.2174 8.1305L17.5139 7.4435C17.5139 7.8555 17.5824 8.19851 17.7889 8.61101L14.8354 9.22899L16.1404 11.4955L18.2004 9.29747C18.4754 9.64097 18.7504 9.91547 19.0934 10.1215L16.7584 12.7315H16.7584ZM13.6679 9.64102L10.3029 10.328L9.95888 13.693L13.0499 15.0665L15.3849 12.594L13.6679 9.641V9.64102ZM21.8404 9.43501C20.7414 10.053 19.3679 9.64102 18.8184 8.61101C18.2004 7.51201 18.6124 6.1385 19.6429 5.58901C20.7414 4.97101 22.1154 5.38299 22.6644 6.413C23.3514 7.44301 22.9394 8.81701 21.8404 9.43501Z" fill="#1493CC"/>
</svg>
