<svg width="24" height="24" viewBox="0 0 24 24" fill="none" xmlns="http://www.w3.org/2000/svg">
<path d="M9.54564 11.0922L6.95194 9.40058C7.07041 9.15133 7.14 8.8776 7.14 8.58327C7.14 7.49288 6.22798 6.60236 5.12 6.60236C4.01202 6.60236 3.1 7.49288 3.1 8.58327C3.1 9.67364 4.01202 10.5642 5.12 10.5642C5.50641 10.5642 5.86877 10.4538 6.17638 10.2671L9.14989 12.2161C9.11687 12.411 9.1 12.6124 9.1 12.8153C9.1 13.2169 9.17426 13.5976 9.29829 13.9561L6.40724 15.1181C5.95058 14.5156 5.21967 14.126 4.4 14.126C3.02693 14.126 1.9 15.227 1.9 16.5771C1.9 17.9272 3.02693 19.0283 4.4 19.0283C5.77308 19.0283 6.9 17.9272 6.9 16.5771C6.9 16.4365 6.88533 16.3008 6.8615 16.1688L9.83333 14.9721C10.509 15.8598 11.5868 16.4346 12.8 16.4346C13.6103 16.4346 14.3618 16.1806 14.973 15.7453L16.4952 17.2365C16.2184 17.6567 16.06 18.1594 16.06 18.6931C16.06 20.1734 17.2948 21.3721 18.8 21.3721C20.3052 21.3721 21.54 20.1734 21.54 18.6931C21.54 17.2132 20.3056 16.0069 18.8 16.0069C18.2566 16.0069 17.7476 16.1643 17.3201 16.4348L15.7906 14.9364C16.2336 14.3403 16.5 13.6083 16.5 12.8153C16.5 12.0271 16.2378 11.2996 15.7996 10.7043L18.4958 8.23826C18.842 8.51272 19.2824 8.6833 19.76 8.6833C20.868 8.6833 21.78 7.79277 21.78 6.70239C21.78 5.61199 20.868 4.7215 19.76 4.7215C18.652 4.7215 17.74 5.61199 17.74 6.70239C17.74 6.90834 17.7765 7.10508 17.8367 7.28988L14.9833 9.89412C14.3703 9.45216 13.6162 9.18863 12.8 9.18863C12.6681 9.18863 12.5378 9.19608 12.4098 9.20958L11.4228 6.46192C12.1597 6.0354 12.66 5.24929 12.66 4.35126C12.66 3.0341 11.5874 1.95399 10.26 1.9021V1.9H10.16C8.78693 1.9 7.66 3.00103 7.66 4.35112C7.66 5.70119 8.78693 6.80224 10.16 6.80224C10.2129 6.80224 10.2665 6.79854 10.3171 6.7942L11.2938 9.50526C10.5475 9.83244 9.93361 10.3905 9.54564 11.0922ZM8.82 4.35126C8.82 3.62375 9.41231 3.04058 10.16 3.04058C10.9077 3.04058 11.5 3.62375 11.5 4.35126C11.5 5.07875 10.9077 5.66193 10.16 5.66193C9.41231 5.66193 8.82 5.07875 8.82 4.35126ZM18.9 6.70239C18.9 6.23459 19.2774 5.86193 19.76 5.86193C20.2426 5.86193 20.62 6.23459 20.62 6.70239C20.62 7.1702 20.2426 7.54284 19.76 7.54284C19.2774 7.54284 18.9 7.1702 18.9 6.70239ZM4.26 8.5833C4.26 8.11549 4.6374 7.74284 5.12 7.74284C5.6026 7.74284 5.98 8.11549 5.98 8.5833C5.98 9.05109 5.6026 9.42374 5.12 9.42374C4.6374 9.42374 4.26 9.05107 4.26 8.5833ZM10.26 12.8153C10.26 11.4382 11.3899 10.3217 12.8 10.3217C14.2101 10.3217 15.34 11.4382 15.34 12.8153C15.34 14.1921 14.2104 15.3016 12.8 15.3016C11.3896 15.3016 10.26 14.1921 10.26 12.8153ZM3.06 16.5771C3.06 15.8496 3.65231 15.2664 4.4 15.2664C5.14769 15.2664 5.74 15.8496 5.74 16.5771C5.74 17.3046 5.14769 17.8878 4.4 17.8878C3.65231 17.8878 3.06 17.3046 3.06 16.5771ZM17.22 18.6931C17.22 17.8352 17.9203 17.14 18.8 17.14C19.6797 17.14 20.38 17.8352 20.38 18.6931C20.38 19.5505 19.6802 20.2389 18.8 20.2389C17.9198 20.2389 17.22 19.5505 17.22 18.6931Z" fill="#1493CC" stroke="#1493CC" stroke-width="0.2"/>
</svg>
