<svg width="30" height="30" viewBox="0 0 30 30" fill="none" xmlns="http://www.w3.org/2000/svg">
<path d="M23.0781 11.1328C22.7257 11.4829 22.2492 11.6794 21.7524 11.6794C21.2557 11.6794 20.7791 11.4829 20.4267 11.1328L18.8699 9.576C18.5195 9.22363 18.3228 8.74691 18.3228 8.24998C18.3228 7.75305 18.5195 7.27633 18.8699 6.924L22.3938 3.39842C22.4007 3.39172 22.406 3.38338 22.4089 3.37417C22.4119 3.36497 22.4125 3.35517 22.4107 3.34566C22.409 3.33613 22.4049 3.3272 22.3989 3.31964C22.3928 3.31207 22.385 3.30613 22.3761 3.30232C20.1016 2.32732 17.1525 2.8242 15.2798 4.68338C13.4881 6.4617 13.3861 9.13651 14.0423 11.4709C14.1356 11.8027 14.1354 12.1538 14.0417 12.4855C13.948 12.8172 13.7645 13.1166 13.5115 13.3506L3.74979 22.2656C3.46178 22.521 3.22904 22.8325 3.0659 23.1812C2.90275 23.5298 2.81263 23.9081 2.80108 24.2928C2.78953 24.6775 2.85679 25.0606 2.99874 25.4183C3.14069 25.7762 3.35431 26.1011 3.62648 26.3733C3.89865 26.6454 4.22362 26.8591 4.58141 27.001C4.93919 27.143 5.32222 27.2103 5.70695 27.1987C6.09169 27.1871 6.47 27.097 6.81862 26.9339C7.16725 26.7707 7.47881 26.538 7.73416 26.25L16.7494 16.4648C16.9805 16.216 17.2748 16.0348 17.601 15.9406C17.9271 15.8464 18.2728 15.8426 18.6009 15.9299C20.9178 16.5503 23.5545 16.4338 25.3228 14.6883C27.2266 12.8133 27.6373 9.49922 26.7144 7.60252C26.7103 7.59423 26.7042 7.58705 26.6967 7.58156C26.6893 7.57607 26.6806 7.57243 26.6715 7.57094C26.6623 7.56946 26.6529 7.57016 26.6441 7.573C26.6353 7.57584 26.6272 7.58074 26.6207 7.58728L23.0781 11.1328Z" stroke="black" stroke-width="2" stroke-miterlimit="10" stroke-linecap="round"/>
<path d="M5.625 25.3125C6.14276 25.3125 6.5625 24.8928 6.5625 24.375C6.5625 23.8572 6.14276 23.4375 5.625 23.4375C5.10724 23.4375 4.6875 23.8572 4.6875 24.375C4.6875 24.8928 5.10724 25.3125 5.625 25.3125Z" fill="black"/>
</svg>
