<svg fill="none" height="20" viewBox="0 0 20 20" width="20" xmlns="http://www.w3.org/2000/svg"><path clip-rule="evenodd" d="m10 0c-5.52486 0-10 4.58772-10 10.2516 0 4.531 2.86679 8.3699 6.83855 9.7292.49724.0944.6814-.2203.6814-.4972 0-.2454-.00614-.8873-.01228-1.7432-2.78084.6168-3.37016-1.3719-3.37016-1.3719-.45427-1.1831-1.11111-1.504-1.11111-1.504-.90854-.6357.06752-.6231.06752-.6231 1.00062.0755 1.53469 1.0573 1.53469 1.0573.89011 1.567 2.33885 1.1139 2.90976.8496.09208-.6608.3499-1.1139.63229-1.372-2.21609-.2517-4.54881-1.1327-4.54881-5.05966 0-1.12018.38674-2.03269 1.03131-2.75011-.10436-.26431-.44813-1.30268.09208-2.71235 0 0 .84101-.2769 2.75016 1.05096.79803-.22656 1.65132-.33983 2.5046-.34613.8471.0063 1.7066.11957 2.5046.34613 1.9091-1.32786 2.7502-1.05096 2.7502-1.05096.5463 1.40967.2025 2.45433.0982 2.71235.6384.71742 1.0251 1.62993 1.0251 2.75011 0 3.93956-2.3388 4.80166-4.5672 5.05966.3561.3147.6814.944.6814 1.9006 0 1.3719-.0123 2.4732-.0123 2.813 0 .2769.1781.5916.6876.4909 3.9717-1.3593 6.8324-5.1982 6.8324-9.7229 0-5.67018-4.4751-10.2579-10-10.2579z" fill="#fff" fill-rule="evenodd"/></svg>