<svg fill="none" height="80" viewBox="0 0 80 80" width="80" xmlns="http://www.w3.org/2000/svg" xmlns:xlink="http://www.w3.org/1999/xlink"><clipPath id="a"><rect height="80" rx="40" width="80"/></clipPath><g clip-path="url(#a)"><rect fill="#4fc4f9" height="80" rx="40" width="80"/><g fill="#000"><path d="m69.2905 82.6433 14.9617-8.6209-5.7043 8.3846 6.7021 7.2339z"/><path d="m45.0062 74.5016c-.2582.7669-.4745 1.5473-.648 2.3378-.1814.7792-.3291 1.5584-.4587 2.3377-.254 1.5584-.4371 3.1108-.5494 4.6572-.2216 3.1021-.2112 6.2165.0311 9.3171l.8552-1.4364c-.6246.4-1.2362.826-1.8452 1.2493l-.9045.6598-.8916.6805c-.5883.4702-1.1714.9429-1.739 1.4494-.5784.5071-1.1303 1.0438-1.6535 1.6078.7582-.1269 1.5092-.2943 2.2496-.5013.7334-.1922 1.4487-.4208 2.164-.6545l1.0575-.3715 1.0366-.3948c.6894-.2753 1.3814-.5506 2.0552-.8545l.7775-.3455.0855-1.0883c.2423-3.1006.2527-6.215.0311-9.3171-.114-1.5585-.2928-3.1169-.5494-4.6572-.1296-.7793-.2773-1.5585-.4561-2.3377-.1747-.7902-.391-1.5705-.6479-2.3378z"/><path d="m56.9296 77.0989c-.2588.7669-.4759 1.5473-.6505 2.3377-.1814.7793-.3292 1.5585-.4588 2.3377-.2539 1.5585-.4362 3.123-.5468 4.6936s-.1624 3.1343-.1555 4.691c0 1.5585.0622 3.1299.1892 4.6936l.8527-1.4312c-.6246.4-1.2337.826-1.8427 1.2494l-.9045.6597-.8941.6806c-.5858.4675-1.1715.9402-1.7365 1.4493-.5791.5053-1.1319 1.0403-1.656 1.6027.7571-.128 1.5071-.2953 2.2469-.5014.7361-.1948 1.4514-.4233 2.1641-.6571l1.0574-.3714 1.0367-.3923c.6893-.2779 1.3813-.5532 2.0577-.8571l.7775-.3403.0882-1.0909c.1269-1.5585.184-3.1169.1917-4.6936.0078-1.5766-.0466-3.1169-.1581-4.691-.1114-1.574-.2928-3.1169-.5468-4.6936-.1296-.7792-.2773-1.5584-.4587-2.3377-.1755-.7904-.3935-1.5708-.6531-2.3377z"/><path d="m18 22.0803 25.2937 2.132 4.2326 11.2336-21.4459 8.0803z"/></g><path d="m55.6851 83.8516h14.6274c.644 0 1.2617-.2564 1.7171-.7128.4554-.4565.7112-1.0755.7112-1.721v-35.3825c0-6.7776-2.6856-13.2777-7.4664-18.0711s-11.2654-7.4877-18.0278-7.4905h-.0545c-5.8686 0-11.4968 2.3365-15.6466 6.4955-4.1497 4.1591-6.481 9.7999-6.481 15.6816v10.5041c0 8.1427 3.2274 15.9518 8.9723 21.7095 5.7449 5.7578 13.5367 8.9924 21.6612 8.9924z" fill="#fff"/><path d="m49.1022 54.3788c-3.3149 0-6.0022-2.6873-6.0022-6.0023 0-3.3149 2.6873-6.0022 6.0022-6.0022 3.315 0 6.0023 2.6873 6.0023 6.0022 0 3.315-2.6873 6.0023-6.0023 6.0023z" fill="#ffaeae"/><circle cx="45.2823" cy="40.1917" fill="#000" r="8.73054"/><circle cx="43.1011" cy="36.9178" fill="#fff" r="3.27395"/></g></svg>