<svg fill="none" height="16" viewBox="0 0 67 16" width="67" xmlns="http://www.w3.org/2000/svg"><g fill="#fff"><path d="m0 8.43817c0-.68164.115025-1.26926.345076-1.76287.23005-.4936.552121-.91668.966214-1.26925.41409-.35258.8972-.61113 1.44932-.77567.55212-.16453 1.17326-.25855 1.8174-.25855.80518 0 1.51833.14103 2.16247.42308.62114.28206 1.15026.65815 1.54134 1.15175.39109-.4936.8972-.86969 1.51834-1.15175.62114-.28205 1.33434-.42308 2.13944-.42308.6442 0 1.2423.09402 1.7944.25855.5521.16454 1.0353.42309 1.4493.77567.4141.35257.7362.77565.9663 1.26925.23.49361.345 1.08123.345 1.76287v6.72243h-3.2437v-5.78223c0-.70515-.138-1.19875-.4141-1.50431-.276-.30557-.6671-.4466-1.1962-.4466-.5292 0-.9432.18805-1.2883.54062-.3221.35257-.48313.91669-.48313 1.71586v5.50016h-3.24371v-5.50016c0-.77567-.16104-1.33978-.48311-1.71586-.32207-.35257-.73616-.54062-1.26528-.54062-.50611 0-.9202.14103-1.19626.4466-.29907.30556-.4371.79916-.4371 1.50431v5.78223h-3.24371z"/><path d="m19.1865 1.85689c0-.51711.1611-.963696.5061-1.31627.3451-.352573.7592-.54062 1.2883-.54062.5061 0 .9432.188047 1.2883.54062.3451.352574.5291.79916.5291 1.31627s-.184.9637-.5291 1.31628c-.3451.35257-.7822.51711-1.2883.51711s-.9432-.16454-1.2883-.51711c-.322-.37608-.5061-.79917-.5061-1.31628zm.1841 4.27789c0-.54061.161-.91669.4601-1.12824.299-.21154.7131-.32906 1.2192-.32906.3681 0 .6902.04701.9893.14103.299.09402.4831.14103.5751.16453v10.20116h-3.2437z"/><path d="m25.6045 1.45731c0-.540613.161-.91669.4601-1.128234s.7132-.329076 1.2193-.329076c.368 0 .6901.047013.9892.141033.299.094019.4831.141028.5751.164533v14.855134h-3.2437z"/><path d="m34.7833 15.1607c-.4141-.7522-.8282-1.5278-1.2193-2.327s-.7592-1.5513-1.0812-2.233c-.3221-.68162-.5982-1.29275-.8052-1.76284-.2071-.49361-.3451-.79917-.4141-.9402-.115-.28206-.2301-.58762-.3451-.91669-.138-.35258-.184-.65814-.184-.91669 0-.37608.138-.70515.4141-.98721.276-.25855.6671-.39958 1.2192-.39958.4371 0 .7822.04701 1.0583.14103.276.09402.4141.14103.4601.16454.23.68164.4601 1.36328.7361 2.04492.2531.68164.5061 1.31628.7362 1.9039.23.58762.4371 1.10472.6441 1.55132.1841.4466.3221.7522.4141.9402.092-.188.2071-.4936.3911-.9167.1841-.4231.3681-.91669.5751-1.4338.2071-.51711.4141-1.05771.6212-1.57482.207-.51711.3911-.98721.5291-1.33978.092-.21154.161-.39958.2761-.58762.092-.18804.23-.32907.368-.4701.1381-.14103.3221-.23505.5061-.30557.2071-.07051.4601-.09402.7362-.09402s.5061.02351.7362.09402c.207.04701.4141.11753.5751.18805.161.07051.2991.14102.3911.18803.092.07052.161.09402.184.11752-.046.25856-.184.61114-.3911 1.12825-.207.4936-.4371 1.08122-.7131 1.71585-.2761.63463-.5751 1.31628-.8972 2.02139-.3221.7052-.6442 1.3868-.9432 2.045-.2991.6581-.5982 1.2457-.8742 1.7863-.2761.5171-.4831.9402-.6212 1.2223h-3.0826z"/><path d="m47.2291 10.2717c0 1.4338.6211 2.1389 1.8864 2.1389s1.8864-.7051 1.8864-2.1389v-4.13691c0-.54061.161-.91669.4601-1.12823.2991-.21155.7132-.32907 1.2193-.32907.368 0 .6901.04701.9892.14103s.4831.14103.5751.16454v5.89974c0 .7756-.138 1.4338-.3911 1.9979-.253.5641-.6211 1.0342-1.0812 1.4103s-.9892.6581-1.6334.8462c-.6211.188-1.3113.282-2.0244.282-.7362 0-1.4033-.094-2.0245-.282-.6211-.1881-1.1732-.4701-1.6333-.8462s-.8052-.8462-1.0813-1.4103c-.253-.5641-.391-1.2458-.391-1.9979v-4.74801c0-.54061.161-.91669.4601-1.12823.299-.21155.7131-.32907 1.2192-.32907.3681 0 .6902.04701.9892.14103.2991.09402.4831.14103.5752.16454z"/><path d="m57.5356 11.9639c.115.094.276.188.5291.3056.253.1175.5521.235.8972.329.3451.0941.7361.1881 1.1732.2586s.8972.1175 1.3803.1175c.5522 0 .9662-.047 1.2423-.1645.2761-.094.4141-.2821.4141-.5406 0-.2821-.115-.4701-.3451-.5641-.23-.0941-.5981-.1881-1.1042-.2586l-1.0583-.1175c-.5291-.0705-1.0352-.1646-1.5183-.3056s-.9202-.3291-1.2883-.5876c-.368-.2586-.6671-.58764-.8742-.98722-.207-.39958-.322-.89318-.322-1.50431 0-.51711.092-.9872.276-1.41029.1841-.42309.4601-.79916.8512-1.12823s.8972-.58762 1.4953-.75216c.5982-.18804 1.3343-.28206 2.1625-.28206.8512 0 1.5644.04701 2.1855.16453s1.1273.28206 1.5874.51711c.253.14103.4601.30556.6211.4936s.23.4466.23.72866c0 .21154-.046.42308-.138.58762-.092.16453-.184.32906-.2991.44659-.115.11752-.23.21155-.322.28206-.092.07052-.1611.11753-.1841.11753-.046-.04701-.161-.11753-.322-.23506-.1841-.11752-.4141-.21154-.7362-.32907-.2991-.09402-.6671-.18803-1.0812-.28205s-.8972-.11752-1.4494-.11752c-.5981 0-1.0352.07051-1.2652.21154-.2301.14103-.3451.32906-.3451.56411s.115.39958.3221.4936c.207.09402.5291.18804.9662.25856l1.8404.25855c.4601.07052.8972.16454 1.3113.30557s.8051.32906 1.1272.56411c.3221.25855.5981.56412.7822.94023.184.376.299.8461.299 1.4103 0 1.1517-.437 2.0449-1.2882 2.703-.8512.6347-2.0475.9637-3.5658.9637-.7822 0-1.4953-.047-2.1165-.1645-.6211-.1175-1.1272-.2351-1.5873-.3761-.4371-.141-.8052-.3055-1.0813-.4466-.276-.1645-.4601-.282-.5751-.3526z"/></g></svg>