<svg width="1140" height="332" viewBox="0 0 1140 332" fill="none" xmlns="http://www.w3.org/2000/svg">
<g clip-path="url(#clip0_4452_23593)">
<rect width="1140" height="332" fill="url(#paint0_linear_4452_23593)"/>
<rect x="832" y="212" width="239" height="239" rx="10" fill="url(#paint1_linear_4452_23593)"/>
<rect x="1046" y="137" width="63" height="63" rx="10" fill="url(#paint2_linear_4452_23593)"/>
<path opacity="0.8" d="M1052.53 36.1707C1549.6 279.822 1559.4 -480.457 1505 -591.361L500.493 -1070.9C-149.981 -1219.58 -113.601 -653.498 -156.75 -157.295C-195.03 282.916 264.869 312.486 444.086 218.336C709.463 78.9223 605.221 -183.092 1052.53 36.1707Z" fill="url(#paint3_linear_4452_23593)"/>
</g>
<defs>
<linearGradient id="paint0_linear_4452_23593" x1="612.064" y1="118.528" x2="678.193" y2="385.794" gradientUnits="userSpaceOnUse">
<stop stop-color="#0A1C82"/>
<stop offset="1" stop-color="#030A2A"/>
</linearGradient>
<linearGradient id="paint1_linear_4452_23593" x1="951.5" y1="212" x2="951.5" y2="451" gradientUnits="userSpaceOnUse">
<stop stop-color="#791C52"/>
<stop offset="1" stop-color="#791C52" stop-opacity="0"/>
</linearGradient>
<linearGradient id="paint2_linear_4452_23593" x1="1077.5" y1="137" x2="1077.5" y2="200" gradientUnits="userSpaceOnUse">
<stop stop-color="#791C52"/>
<stop offset="1" stop-color="#791C52" stop-opacity="0"/>
</linearGradient>
<linearGradient id="paint3_linear_4452_23593" x1="655.5" y1="-541" x2="-10.8249" y2="221.82" gradientUnits="userSpaceOnUse">
<stop stop-color="#001A98"/>
<stop offset="0.505208" stop-color="#7C0068"/>
<stop offset="1" stop-color="#C56A00"/>
</linearGradient>
<clipPath id="clip0_4452_23593">
<rect width="1140" height="332" fill="white"/>
</clipPath>
</defs>
</svg>
