<svg width="2079" height="1202" viewBox="0 0 2079 1202" fill="none" xmlns="http://www.w3.org/2000/svg">
<mask id="mask0_506_1271" style="mask-type:alpha" maskUnits="userSpaceOnUse" x="0" y="0" width="2079" height="1202">
<rect width="2079" height="1202" fill="black"/>
</mask>
<g mask="url(#mask0_506_1271)">
<g opacity="0.15">
<rect width="4000" height="4000" transform="matrix(0.866025 0.5 -0.866025 0.5 1043.1 -598)" fill="url(#paint0_radial_506_1271)"/>
<path fill-rule="evenodd" clip-rule="evenodd" d="M4158.2 1603.5L694.096 -396.5L695.828 -397.5L4159.93 1602.5L4158.2 1603.5ZM3811.79 1803.5L347.686 -196.5L349.418 -197.5L3813.52 1802.5L3811.79 1803.5ZM1.27578 3.49978L3465.38 2003.5L3467.11 2002.5L3.00783 2.49978L1.27578 3.49978ZM3118.97 2203.5L-345.134 203.5L-343.402 202.5L3120.7 2202.5L3118.97 2203.5ZM-691.544 403.5L2772.56 2403.5L2774.29 2402.5L-689.811 402.5L-691.544 403.5ZM2426.15 2603.5L-1037.95 603.5L-1036.22 602.5L2427.88 2602.5L2426.15 2603.5ZM-1384.36 803.5L2079.74 2803.5L2081.47 2802.5L-1382.63 802.5L-1384.36 803.5ZM1733.33 3003.5L-1730.77 1003.5L-1729.04 1002.5L1735.06 3002.5L1733.33 3003.5ZM-2077.18 1203.5L1386.92 3203.5L1388.65 3202.5L-2075.45 1202.5L-2077.18 1203.5Z" fill="white"/>
<path fill-rule="evenodd" clip-rule="evenodd" d="M1388.64 -398.5L-2075.46 1601.5L-2077.19 1600.5L1386.91 -399.5L1388.64 -398.5ZM1735.05 -198.5L-1729.05 1801.5L-1730.78 1800.5L1733.32 -199.5L1735.05 -198.5ZM-1382.64 2001.5L2081.46 1.49986L2079.73 0.49986L-1384.37 2000.5L-1382.64 2001.5ZM2427.87 201.5L-1036.23 2201.5L-1037.96 2200.5L2426.14 200.5L2427.87 201.5ZM-689.817 2401.5L2774.28 401.499L2772.55 400.499L-691.549 2400.5L-689.817 2401.5ZM3120.69 601.499L-343.407 2601.5L-345.139 2600.5L3118.96 600.499L3120.69 601.499ZM3.00321 2801.5L3467.1 801.499L3465.37 800.499L1.27116 2800.5L3.00321 2801.5ZM3813.51 1001.5L349.413 3001.5L347.681 3000.5L3811.78 1000.5L3813.51 1001.5ZM695.824 3201.5L4159.92 1201.5L4158.19 1200.5L694.091 3200.5L695.824 3201.5Z" fill="white"/>
</g>
</g>
<rect width="20" height="20" transform="matrix(0.866025 0.5 -0.866025 0.5 1040.32 991)" fill="black"/>
<rect width="10" height="10" transform="matrix(0.866025 0.5 -0.866025 0.5 1040.32 996)" fill="#E5FF59"/>
<rect width="20" height="20" transform="matrix(0.866025 0.5 -0.866025 0.5 1733.32 992)" fill="black"/>
<rect width="10" height="10" transform="matrix(0.866025 0.5 -0.866025 0.5 1732.66 997)" fill="#42FFD3"/>
<rect width="20" height="20" transform="matrix(0.866025 0.5 -0.866025 0.5 1386.32 392)" fill="black"/>
<rect width="10" height="10" transform="matrix(0.866025 0.5 -0.866025 0.5 1386.32 397)" fill="#94B9E7"/>
<g opacity="0.5">
<path d="M384.747 997.548C384.903 998.192 385.009 998.846 385.063 999.507L384.564 999.547C384.59 999.863 384.603 1000.18 384.603 1000.5C384.603 1000.82 384.59 1001.14 384.564 1001.45L385.063 1001.49C385.009 1002.15 384.903 1002.81 384.747 1003.45L384.261 1003.33C384.112 1003.95 383.915 1004.55 383.672 1005.15L384.135 1005.34C383.889 1005.94 383.597 1006.54 383.263 1007.12L382.829 1006.87C382.516 1007.42 382.163 1007.96 381.772 1008.49L382.174 1008.79C381.789 1009.31 381.368 1009.82 380.914 1010.32L380.544 1009.98C380.117 1010.45 379.659 1010.91 379.171 1011.36L379.51 1011.73C379.033 1012.17 378.529 1012.59 378 1013.01L377.69 1012.62C377.188 1013.01 376.662 1013.4 376.113 1013.78L376.395 1014.19C375.859 1014.56 375.302 1014.91 374.724 1015.26L374.468 1014.83C373.917 1015.16 373.347 1015.48 372.758 1015.79L372.991 1016.23C372.414 1016.53 371.819 1016.83 371.208 1017.11L370.998 1016.66C370.413 1016.93 369.814 1017.19 369.201 1017.44L369.391 1017.91C368.786 1018.15 368.168 1018.39 367.538 1018.62L367.368 1018.15C366.758 1018.37 366.137 1018.58 365.504 1018.78L365.655 1019.26C365.031 1019.46 364.395 1019.65 363.749 1019.82L363.616 1019.34C362.989 1019.52 362.353 1019.68 361.708 1019.83L361.824 1020.32C361.186 1020.47 360.54 1020.61 359.885 1020.75L359.786 1020.26C359.148 1020.39 358.502 1020.51 357.849 1020.62L357.932 1021.11C357.285 1021.22 356.63 1021.32 355.968 1021.41L355.901 1020.91C355.255 1021 354.603 1021.08 353.944 1021.15L353.996 1021.64C353.342 1021.71 352.682 1021.77 352.017 1021.82L351.98 1021.32C351.329 1021.37 350.673 1021.41 350.012 1021.44L350.034 1021.93C349.376 1021.96 348.714 1021.98 348.048 1021.99L348.04 1021.49C347.712 1021.5 347.382 1021.5 347.051 1021.5C346.721 1021.5 346.391 1021.5 346.062 1021.49L346.055 1021.99C345.389 1021.98 344.726 1021.96 344.069 1021.93L344.091 1021.44C343.43 1021.41 342.773 1021.37 342.122 1021.32L342.086 1021.82C341.42 1021.77 340.761 1021.71 340.107 1021.64L340.159 1021.15C339.5 1021.08 338.847 1021 338.201 1020.91L338.134 1021.41C337.473 1021.32 336.818 1021.22 336.17 1021.11L336.253 1020.62C335.6 1020.51 334.955 1020.39 334.317 1020.26L334.218 1020.75C333.563 1020.61 332.917 1020.47 332.279 1020.32L332.395 1019.83C331.749 1019.68 331.113 1019.52 330.487 1019.34L330.354 1019.82C329.708 1019.65 329.072 1019.46 328.447 1019.26L328.598 1018.78C327.966 1018.58 327.344 1018.37 326.735 1018.15L326.565 1018.62C325.934 1018.39 325.316 1018.15 324.712 1017.91L324.902 1017.44C324.288 1017.19 323.689 1016.93 323.105 1016.66L322.894 1017.11C322.284 1016.83 321.689 1016.53 321.111 1016.23L321.344 1015.79C320.756 1015.48 320.186 1015.16 319.635 1014.83L319.378 1015.26C318.801 1014.91 318.244 1014.56 317.708 1014.19L317.99 1013.78C317.441 1013.4 316.914 1013.01 316.412 1012.62L316.103 1013.01C315.573 1012.59 315.069 1012.17 314.592 1011.73L314.931 1011.36C314.443 1010.91 313.986 1010.45 313.559 1009.98L313.189 1010.32C312.735 1009.82 312.314 1009.31 311.928 1008.79L312.33 1008.49C311.939 1007.96 311.587 1007.42 311.274 1006.87L310.84 1007.12C310.505 1006.54 310.214 1005.94 309.968 1005.34L310.431 1005.15C310.188 1004.55 309.991 1003.95 309.842 1003.33L309.356 1003.45C309.199 1002.81 309.093 1002.15 309.04 1001.49L309.538 1001.45C309.513 1001.14 309.5 1000.82 309.5 1000.5C309.5 1000.18 309.513 999.863 309.538 999.547L309.04 999.507C309.093 998.846 309.199 998.192 309.356 997.548L309.842 997.666C309.991 997.052 310.188 996.446 310.431 995.849L309.968 995.661C310.214 995.056 310.505 994.461 310.84 993.877L311.274 994.125C311.587 993.578 311.939 993.04 312.33 992.512L311.928 992.215C312.314 991.693 312.735 991.183 313.189 990.683L313.559 991.02C313.986 990.551 314.443 990.091 314.931 989.642L314.592 989.274C315.069 988.835 315.573 988.406 316.103 987.989L316.412 988.381C316.914 987.985 317.441 987.599 317.99 987.224L317.708 986.811C318.244 986.445 318.801 986.089 319.378 985.743L319.635 986.172C320.186 985.842 320.756 985.522 321.344 985.213L321.111 984.77C321.689 984.466 322.284 984.171 322.894 983.888L323.105 984.341C323.689 984.07 324.288 983.808 324.902 983.556L324.712 983.093C325.316 982.845 325.934 982.607 326.565 982.379L326.735 982.849C327.344 982.629 327.966 982.418 328.598 982.217L328.447 981.741C329.072 981.542 329.708 981.354 330.354 981.175L330.487 981.657C331.113 981.484 331.749 981.32 332.395 981.167L332.279 980.68C332.917 980.528 333.563 980.386 334.218 980.253L334.317 980.744C334.955 980.615 335.6 980.495 336.253 980.385L336.17 979.892C336.818 979.783 337.473 979.683 338.134 979.594L338.201 980.089C338.847 980.001 339.5 979.923 340.159 979.855L340.107 979.357C340.761 979.289 341.42 979.23 342.086 979.181L342.122 979.68C342.773 979.632 343.43 979.594 344.091 979.565L344.069 979.065C344.726 979.036 345.389 979.017 346.055 979.007L346.062 979.507C346.391 979.502 346.721 979.5 347.051 979.5C347.382 979.5 347.712 979.502 348.04 979.507L348.048 979.007C348.714 979.017 349.376 979.036 350.034 979.065L350.012 979.565C350.673 979.594 351.329 979.632 351.98 979.68L352.017 979.181C352.682 979.23 353.342 979.289 353.996 979.357L353.944 979.855C354.603 979.923 355.255 980.001 355.901 980.089L355.968 979.594C356.63 979.683 357.285 979.783 357.932 979.892L357.849 980.385C358.502 980.495 359.148 980.615 359.786 980.744L359.885 980.253C360.54 980.386 361.186 980.528 361.824 980.68L361.708 981.167C362.353 981.32 362.989 981.484 363.616 981.657L363.749 981.175C364.395 981.354 365.031 981.542 365.655 981.741L365.504 982.217C366.137 982.418 366.758 982.629 367.368 982.849L367.538 982.379C368.168 982.607 368.786 982.845 369.391 983.093L369.201 983.556C369.814 983.808 370.413 984.07 370.998 984.341L371.208 983.888C371.819 984.171 372.414 984.466 372.991 984.77L372.758 985.213C373.347 985.522 373.917 985.842 374.468 986.172L374.724 985.743C375.302 986.089 375.859 986.445 376.395 986.811L376.113 987.224C376.662 987.599 377.188 987.985 377.69 988.381L378 987.989C378.529 988.406 379.033 988.835 379.51 989.274L379.171 989.642C379.659 990.091 380.117 990.551 380.544 991.02L380.914 990.683C381.368 991.183 381.789 991.693 382.174 992.215L381.772 992.512C382.163 993.04 382.516 993.578 382.829 994.125L383.263 993.877C383.597 994.461 383.889 995.056 384.135 995.661L383.672 995.849C383.915 996.446 384.112 997.052 384.261 997.666L384.747 997.548Z" stroke="#D2D4F8" stroke-dasharray="2 2"/>
<ellipse cx="347" cy="964.5" rx="38" ry="21.5" fill="url(#paint1_linear_506_1271)"/>
</g>
<g opacity="0.5">
<path d="M1769.75 598.548C1769.9 599.192 1770.01 599.846 1770.06 600.507L1769.56 600.547C1769.59 600.863 1769.6 601.181 1769.6 601.5C1769.6 601.819 1769.59 602.137 1769.56 602.453L1770.06 602.493C1770.01 603.154 1769.9 603.808 1769.75 604.452L1769.26 604.334C1769.11 604.948 1768.91 605.554 1768.67 606.151L1769.13 606.339C1768.89 606.944 1768.6 607.539 1768.26 608.123L1767.83 607.875C1767.52 608.422 1767.16 608.96 1766.77 609.488L1767.17 609.785C1766.79 610.307 1766.37 610.817 1765.91 611.317L1765.54 610.98C1765.12 611.449 1764.66 611.909 1764.17 612.358L1764.51 612.726C1764.03 613.165 1763.53 613.594 1763 614.011L1762.69 613.619C1762.19 614.015 1761.66 614.401 1761.11 614.776L1761.39 615.189C1760.86 615.555 1760.3 615.911 1759.72 616.257L1759.47 615.828C1758.92 616.158 1758.35 616.478 1757.76 616.787L1757.99 617.23C1757.41 617.534 1756.82 617.829 1756.21 618.112L1756 617.659C1755.41 617.93 1754.81 618.192 1754.2 618.444L1754.39 618.907C1753.79 619.155 1753.17 619.393 1752.54 619.621L1752.37 619.151C1751.76 619.371 1751.14 619.582 1750.5 619.783L1750.66 620.259C1750.03 620.458 1749.39 620.646 1748.75 620.825L1748.62 620.343C1747.99 620.516 1747.35 620.68 1746.71 620.833L1746.82 621.32C1746.19 621.472 1745.54 621.614 1744.88 621.747L1744.79 621.256C1744.15 621.385 1743.5 621.505 1742.85 621.615L1742.93 622.108C1742.28 622.217 1741.63 622.317 1740.97 622.406L1740.9 621.911C1740.26 621.999 1739.6 622.077 1738.94 622.145L1739 622.643C1738.34 622.711 1737.68 622.77 1737.02 622.819L1736.98 622.32C1736.33 622.368 1735.67 622.406 1735.01 622.435L1735.03 622.935C1734.38 622.964 1733.71 622.983 1733.05 622.993L1733.04 622.493C1732.71 622.498 1732.38 622.5 1732.05 622.5C1731.72 622.5 1731.39 622.498 1731.06 622.493L1731.05 622.993C1730.39 622.983 1729.73 622.964 1729.07 622.935L1729.09 622.435C1728.43 622.406 1727.77 622.368 1727.12 622.32L1727.09 622.819C1726.42 622.77 1725.76 622.711 1725.11 622.643L1725.16 622.145C1724.5 622.077 1723.85 621.999 1723.2 621.911L1723.13 622.406C1722.47 622.317 1721.82 622.217 1721.17 622.108L1721.25 621.615C1720.6 621.505 1719.95 621.385 1719.32 621.256L1719.22 621.747C1718.56 621.614 1717.92 621.472 1717.28 621.32L1717.39 620.833C1716.75 620.68 1716.11 620.516 1715.49 620.343L1715.35 620.825C1714.71 620.646 1714.07 620.458 1713.45 620.259L1713.6 619.783C1712.97 619.582 1712.34 619.371 1711.74 619.151L1711.56 619.621C1710.93 619.393 1710.32 619.155 1709.71 618.907L1709.9 618.444C1709.29 618.192 1708.69 617.93 1708.1 617.659L1707.89 618.112C1707.28 617.829 1706.69 617.534 1706.11 617.23L1706.34 616.787C1705.76 616.478 1705.19 616.158 1704.63 615.828L1704.38 616.257C1703.8 615.911 1703.24 615.555 1702.71 615.189L1702.99 614.776C1702.44 614.401 1701.91 614.015 1701.41 613.619L1701.1 614.011C1700.57 613.594 1700.07 613.165 1699.59 612.726L1699.93 612.358C1699.44 611.909 1698.99 611.449 1698.56 610.98L1698.19 611.317C1697.73 610.817 1697.31 610.307 1696.93 609.785L1697.33 609.488C1696.94 608.96 1696.59 608.422 1696.27 607.875L1695.84 608.123C1695.51 607.539 1695.21 606.944 1694.97 606.339L1695.43 606.151C1695.19 605.554 1694.99 604.948 1694.84 604.334L1694.36 604.452C1694.2 603.808 1694.09 603.154 1694.04 602.493L1694.54 602.453C1694.51 602.137 1694.5 601.819 1694.5 601.5C1694.5 601.181 1694.51 600.863 1694.54 600.547L1694.04 600.507C1694.09 599.846 1694.2 599.192 1694.36 598.548L1694.84 598.666C1694.99 598.052 1695.19 597.446 1695.43 596.849L1694.97 596.661C1695.21 596.056 1695.51 595.461 1695.84 594.877L1696.27 595.125C1696.59 594.578 1696.94 594.04 1697.33 593.512L1696.93 593.215C1697.31 592.693 1697.73 592.183 1698.19 591.683L1698.56 592.02C1698.99 591.551 1699.44 591.091 1699.93 590.642L1699.59 590.274C1700.07 589.835 1700.57 589.406 1701.1 588.989L1701.41 589.381C1701.91 588.985 1702.44 588.599 1702.99 588.224L1702.71 587.811C1703.24 587.445 1703.8 587.089 1704.38 586.743L1704.63 587.172C1705.19 586.842 1705.76 586.522 1706.34 586.213L1706.11 585.77C1706.69 585.466 1707.28 585.171 1707.89 584.888L1708.1 585.341C1708.69 585.07 1709.29 584.808 1709.9 584.556L1709.71 584.093C1710.32 583.845 1710.93 583.607 1711.56 583.379L1711.74 583.849C1712.34 583.629 1712.97 583.418 1713.6 583.217L1713.45 582.741C1714.07 582.542 1714.71 582.354 1715.35 582.175L1715.49 582.657C1716.11 582.484 1716.75 582.32 1717.39 582.167L1717.28 581.68C1717.92 581.528 1718.56 581.386 1719.22 581.253L1719.32 581.744C1719.95 581.615 1720.6 581.495 1721.25 581.385L1721.17 580.892C1721.82 580.783 1722.47 580.683 1723.13 580.594L1723.2 581.089C1723.85 581.001 1724.5 580.923 1725.16 580.855L1725.11 580.357C1725.76 580.289 1726.42 580.23 1727.09 580.181L1727.12 580.68C1727.77 580.632 1728.43 580.594 1729.09 580.565L1729.07 580.065C1729.73 580.036 1730.39 580.017 1731.05 580.007L1731.06 580.507C1731.39 580.502 1731.72 580.5 1732.05 580.5C1732.38 580.5 1732.71 580.502 1733.04 580.507L1733.05 580.007C1733.71 580.017 1734.38 580.036 1735.03 580.065L1735.01 580.565C1735.67 580.594 1736.33 580.632 1736.98 580.68L1737.02 580.181C1737.68 580.23 1738.34 580.289 1739 580.357L1738.94 580.855C1739.6 580.923 1740.26 581.001 1740.9 581.089L1740.97 580.594C1741.63 580.683 1742.28 580.783 1742.93 580.892L1742.85 581.385C1743.5 581.495 1744.15 581.615 1744.79 581.744L1744.88 581.253C1745.54 581.386 1746.19 581.528 1746.82 581.68L1746.71 582.167C1747.35 582.32 1747.99 582.484 1748.62 582.657L1748.75 582.175C1749.39 582.354 1750.03 582.542 1750.66 582.741L1750.5 583.217C1751.14 583.418 1751.76 583.629 1752.37 583.849L1752.54 583.379C1753.17 583.607 1753.79 583.845 1754.39 584.093L1754.2 584.556C1754.81 584.808 1755.41 585.07 1756 585.341L1756.21 584.888C1756.82 585.171 1757.41 585.466 1757.99 585.77L1757.76 586.213C1758.35 586.522 1758.92 586.842 1759.47 587.172L1759.72 586.743C1760.3 587.089 1760.86 587.445 1761.39 587.811L1761.11 588.224C1761.66 588.599 1762.19 588.985 1762.69 589.381L1763 588.989C1763.53 589.406 1764.03 589.835 1764.51 590.274L1764.17 590.642C1764.66 591.091 1765.12 591.551 1765.54 592.02L1765.91 591.683C1766.37 592.183 1766.79 592.693 1767.17 593.215L1766.77 593.512C1767.16 594.04 1767.52 594.578 1767.83 595.125L1768.26 594.877C1768.6 595.461 1768.89 596.056 1769.13 596.661L1768.67 596.849C1768.91 597.446 1769.11 598.052 1769.26 598.666L1769.75 598.548Z" stroke="#D2D4F8" stroke-dasharray="2 2"/>
<ellipse cx="1732" cy="565.5" rx="38" ry="21.5" fill="url(#paint2_linear_506_1271)"/>
</g>
<defs>
<radialGradient id="paint0_radial_506_1271" cx="0" cy="0" r="1" gradientUnits="userSpaceOnUse" gradientTransform="translate(2000 2000) rotate(90) scale(2000)">
<stop offset="0.677083" stop-color="#00499D" stop-opacity="0"/>
<stop offset="1" stop-color="#00499D"/>
</radialGradient>
<linearGradient id="paint1_linear_506_1271" x1="347" y1="943" x2="347" y2="986" gradientUnits="userSpaceOnUse">
<stop stop-color="#E6B1FF"/>
<stop offset="1" stop-color="#9EC0E9"/>
</linearGradient>
<linearGradient id="paint2_linear_506_1271" x1="1732" y1="544" x2="1732" y2="587" gradientUnits="userSpaceOnUse">
<stop stop-color="#E6B1FF"/>
<stop offset="1" stop-color="#9EC0E9"/>
</linearGradient>
</defs>
</svg>
