<svg fill="none" height="1202" viewBox="0 0 2079 1202" width="2079" xmlns="http://www.w3.org/2000/svg" xmlns:xlink="http://www.w3.org/1999/xlink"><radialGradient id="a" cx="0" cy="0" gradientTransform="matrix(0 2000 -2000 0 2000 2000)" gradientUnits="userSpaceOnUse" r="1"><stop offset=".677083" stop-color="#00499d" stop-opacity="0"/><stop offset="1" stop-color="#00499d"/></radialGradient><linearGradient id="b"><stop offset="0" stop-color="#e6b1ff"/><stop offset="1" stop-color="#9ec0e9"/></linearGradient><linearGradient id="c" gradientUnits="userSpaceOnUse" x1="347" x2="347" xlink:href="#b" y1="943" y2="986"/><linearGradient id="d" gradientUnits="userSpaceOnUse" x1="1732" x2="1732" xlink:href="#b" y1="544" y2="587"/><mask id="e" height="1202" maskUnits="userSpaceOnUse" width="2079" x="0" y="0"><path d="m0 0h2079v1202h-2079z" fill="#000"/></mask><g mask="url(#e)"><g opacity=".15"><path d="m0 0h4000v4000h-4000z" fill="url(#a)" transform="matrix(.866025 .5 -.866025 .5 1043.1 -598)"/><g clip-rule="evenodd" fill="#fff" fill-rule="evenodd"><path d="m4158.2 1603.5-3464.104-2000 1.732-1 3464.102 2000zm-346.41 200-3464.104-2000 1.732-1 3464.102 2000zm-3810.51422-1800.00022 3464.10422 2000.00022 1.73-1-3464.10217-2000.00022zm3117.69422 2200.00022-3464.104-2000 1.732-1 3464.102 2000zm-3810.514-1800 3464.104 2000 1.73-1-3464.101-2000zm3117.694 2200-3464.1-2000 1.73-1 3464.1 2000zm-3810.51-1800 3464.1 2000 1.73-1-3464.1-2000zm3117.69 2200-3464.1-2000 1.73-1 3464.1 2000zm-3810.51-1800 3464.1 2000 1.73-1-3464.1-2000z"/><path d="m1388.64-398.5-3464.1 2000-1.73-1 3464.1-2000zm346.41 200-3464.1 2000-1.73-1 3464.1-2000zm-3117.69 2200 3464.1-2000.00014-1.73-1-3464.1 2000.00014zm3810.51-1800-3464.1 2000-1.73-1 3464.1-2000zm-3117.687 2200 3464.097-2000.001-1.73-1-3464.099 2000.001zm3810.507-1800.001-3464.097 2000.001-1.732-1 3464.099-2000.001zm-3117.68679 2200.001 3464.09679-2000.001-1.73-1-3464.09884 2000.001zm3810.50679-1800-3464.097 2000-1.732-1 3464.099-2000zm-3117.686 2200 3464.096-2000-1.73-1-3464.099 2000z"/></g></g></g><path d="m0 0h20v20h-20z" fill="#000" transform="matrix(.866025 .5 -.866025 .5 1040.32 991)"/><path d="m0 0h10v10h-10z" fill="#e5ff59" transform="matrix(.866025 .5 -.866025 .5 1040.32 996)"/><path d="m0 0h20v20h-20z" fill="#000" transform="matrix(.866025 .5 -.866025 .5 1733.32 992)"/><path d="m0 0h10v10h-10z" fill="#42ffd3" transform="matrix(.866025 .5 -.866025 .5 1732.66 997)"/><path d="m0 0h20v20h-20z" fill="#000" transform="matrix(.866025 .5 -.866025 .5 1386.32 392)"/><path d="m0 0h10v10h-10z" fill="#94b9e7" transform="matrix(.866025 .5 -.866025 .5 1386.32 397)"/><g opacity=".5"><path d="m384.747 997.548c.156.644.262 1.298.316 1.959l-.499.04c.026.316.039.633.039.953s-.013.64-.039.95l.499.04c-.054.66-.16 1.32-.316 1.96l-.486-.12c-.149.62-.346 1.22-.589 1.82l.463.19c-.246.6-.538 1.2-.872 1.78l-.434-.25c-.313.55-.666 1.09-1.057 1.62l.402.3c-.385.52-.806 1.03-1.26 1.53l-.37-.34c-.427.47-.885.93-1.373 1.38l.339.37c-.477.44-.981.86-1.51 1.28l-.31-.39c-.502.39-1.028.78-1.577 1.16l.282.41c-.536.37-1.093.72-1.671 1.07l-.256-.43c-.551.33-1.121.65-1.71.96l.233.44c-.577.3-1.172.6-1.783.88l-.21-.45c-.585.27-1.184.53-1.797.78l.19.47c-.605.24-1.223.48-1.853.71l-.17-.47c-.61.22-1.231.43-1.864.63l.151.48c-.624.2-1.26.39-1.906.56l-.133-.48c-.627.18-1.263.34-1.908.49l.116.49c-.638.15-1.284.29-1.939.43l-.099-.49c-.638.13-1.284.25-1.937.36l.083.49c-.647.11-1.302.21-1.964.3l-.067-.5c-.646.09-1.298.17-1.957.24l.052.49c-.654.07-1.314.13-1.979.18l-.037-.5c-.651.05-1.307.09-1.968.12l.022.49c-.658.03-1.32.05-1.986.06l-.008-.5c-.328.01-.658.01-.989.01-.33 0-.66 0-.989-.01l-.007.5c-.666-.01-1.329-.03-1.986-.06l.022-.49c-.661-.03-1.318-.07-1.969-.12l-.036.5c-.666-.05-1.325-.11-1.979-.18l.052-.49c-.659-.07-1.312-.15-1.958-.24l-.067.5c-.661-.09-1.316-.19-1.964-.3l.083-.49c-.653-.11-1.298-.23-1.936-.36l-.099.49c-.655-.14-1.301-.28-1.939-.43l.116-.49c-.646-.15-1.282-.31-1.908-.49l-.133.48c-.646-.17-1.282-.36-1.907-.56l.151-.48c-.632-.2-1.254-.41-1.863-.63l-.17.47c-.631-.23-1.249-.47-1.853-.71l.19-.47c-.614-.25-1.213-.51-1.797-.78l-.211.45c-.61-.28-1.205-.58-1.783-.88l.233-.44c-.588-.31-1.158-.63-1.709-.96l-.257.43c-.577-.35-1.134-.7-1.67-1.07l.282-.41c-.549-.38-1.076-.77-1.578-1.16l-.309.39c-.53-.42-1.034-.84-1.511-1.28l.339-.37c-.488-.45-.945-.91-1.372-1.38l-.37.34c-.454-.5-.875-1.01-1.261-1.53l.402-.3c-.391-.53-.743-1.07-1.056-1.62l-.434.25c-.335-.58-.626-1.18-.872-1.78l.463-.19c-.243-.6-.44-1.2-.589-1.82l-.486.12c-.157-.64-.263-1.3-.316-1.96l.498-.04c-.025-.31-.038-.63-.038-.95s.013-.637.038-.953l-.498-.04c.053-.661.159-1.315.316-1.959l.486.118c.149-.614.346-1.22.589-1.817l-.463-.188c.246-.605.537-1.2.872-1.784l.434.248c.313-.547.665-1.085 1.056-1.613l-.402-.297c.386-.522.807-1.032 1.261-1.532l.37.337c.427-.469.884-.929 1.372-1.378l-.339-.368c.477-.439.981-.868 1.511-1.285l.309.392c.502-.396 1.029-.782 1.578-1.157l-.282-.413c.536-.366 1.093-.722 1.67-1.068l.257.429c.551-.33 1.121-.65 1.709-.959l-.233-.443c.578-.304 1.173-.599 1.783-.882l.211.453c.584-.271 1.183-.533 1.797-.785l-.19-.463c.604-.248 1.222-.486 1.853-.714l.17.47c.609-.22 1.231-.431 1.863-.632l-.151-.476c.625-.199 1.261-.387 1.907-.566l.133.482c.626-.173 1.262-.337 1.908-.49l-.116-.487c.638-.152 1.284-.294 1.939-.427l.099.491c.638-.129 1.283-.249 1.936-.359l-.083-.493c.648-.109 1.303-.209 1.964-.298l.067.495c.646-.088 1.299-.166 1.958-.234l-.052-.498c.654-.068 1.313-.127 1.979-.176l.036.499c.651-.048 1.308-.086 1.969-.115l-.022-.5c.657-.029 1.32-.048 1.986-.058l.007.5c.329-.005.659-.007.989-.007.331 0 .661.002.989.007l.008-.5c.666.01 1.328.029 1.986.058l-.022.5c.661.029 1.317.067 1.968.115l.037-.499c.665.049 1.325.108 1.979.176l-.052.498c.659.068 1.311.146 1.957.234l.067-.495c.662.089 1.317.189 1.964.298l-.083.493c.653.11 1.299.23 1.937.359l.099-.491c.655.133 1.301.275 1.939.427l-.116.487c.645.153 1.281.317 1.908.49l.133-.482c.646.179 1.282.367 1.906.566l-.151.476c.633.201 1.254.412 1.864.632l.17-.47c.63.228 1.248.466 1.853.714l-.19.463c.613.252 1.212.514 1.797.785l.21-.453c.611.283 1.206.578 1.783.882l-.233.443c.589.309 1.159.629 1.71.959l.256-.429c.578.346 1.135.702 1.671 1.068l-.282.413c.549.375 1.075.761 1.577 1.157l.31-.392c.529.417 1.033.846 1.51 1.285l-.339.368c.488.449.946.909 1.373 1.378l.37-.337c.454.5.875 1.01 1.26 1.532l-.402.297c.391.528.744 1.066 1.057 1.613l.434-.248c.334.584.626 1.179.872 1.784l-.463.188c.243.597.44 1.203.589 1.817z" stroke="#d2d4f8" stroke-dasharray="2 2"/><ellipse cx="347" cy="964.5" fill="url(#c)" rx="38" ry="21.5"/></g><g opacity=".5"><path d="m1769.75 598.548c.15.644.26 1.298.31 1.959l-.5.04c.03.316.04.634.04.953s-.01.637-.04.953l.5.04c-.05.661-.16 1.315-.31 1.959l-.49-.118c-.15.614-.35 1.22-.59 1.817l.46.188c-.24.605-.53 1.2-.87 1.784l-.43-.248c-.31.547-.67 1.085-1.06 1.613l.4.297c-.38.522-.8 1.032-1.26 1.532l-.37-.337c-.42.469-.88.929-1.37 1.378l.34.368c-.48.439-.98.868-1.51 1.285l-.31-.392c-.5.396-1.03.782-1.58 1.157l.28.413c-.53.366-1.09.722-1.67 1.068l-.25-.429c-.55.33-1.12.65-1.71.959l.23.443c-.58.304-1.17.599-1.78.882l-.21-.453c-.59.271-1.19.533-1.8.785l.19.463c-.6.248-1.22.486-1.85.714l-.17-.47c-.61.22-1.23.431-1.87.632l.16.476c-.63.199-1.27.387-1.91.566l-.13-.482c-.63.173-1.27.337-1.91.49l.11.487c-.63.152-1.28.294-1.94.427l-.09-.491c-.64.129-1.29.249-1.94.359l.08.493c-.65.109-1.3.209-1.96.298l-.07-.495c-.64.088-1.3.166-1.96.234l.06.498c-.66.068-1.32.127-1.98.176l-.04-.499c-.65.048-1.31.086-1.97.115l.02.5c-.65.029-1.32.048-1.98.058l-.01-.5c-.33.005-.66.007-.99.007s-.66-.002-.99-.007l-.01.5c-.66-.01-1.32-.029-1.98-.058l.02-.5c-.66-.029-1.32-.067-1.97-.115l-.03.499c-.67-.049-1.33-.108-1.98-.176l.05-.498c-.66-.068-1.31-.146-1.96-.234l-.07.495c-.66-.089-1.31-.189-1.96-.298l.08-.493c-.65-.11-1.3-.23-1.93-.359l-.1.491c-.66-.133-1.3-.275-1.94-.427l.11-.487c-.64-.153-1.28-.317-1.9-.49l-.14.482c-.64-.179-1.28-.367-1.9-.566l.15-.476c-.63-.201-1.26-.412-1.86-.632l-.18.47c-.63-.228-1.24-.466-1.85-.714l.19-.463c-.61-.252-1.21-.514-1.8-.785l-.21.453c-.61-.283-1.2-.578-1.78-.882l.23-.443c-.58-.309-1.15-.629-1.71-.959l-.25.429c-.58-.346-1.14-.702-1.67-1.068l.28-.413c-.55-.375-1.08-.761-1.58-1.157l-.31.392c-.53-.417-1.03-.846-1.51-1.285l.34-.368c-.49-.449-.94-.909-1.37-1.378l-.37.337c-.46-.5-.88-1.01-1.26-1.532l.4-.297c-.39-.528-.74-1.066-1.06-1.613l-.43.248c-.33-.584-.63-1.179-.87-1.784l.46-.188c-.24-.597-.44-1.203-.59-1.817l-.48.118c-.16-.644-.27-1.298-.32-1.959l.5-.04c-.03-.316-.04-.634-.04-.953s.01-.637.04-.953l-.5-.04c.05-.661.16-1.315.32-1.959l.48.118c.15-.614.35-1.22.59-1.817l-.46-.188c.24-.605.54-1.2.87-1.784l.43.248c.32-.547.67-1.085 1.06-1.613l-.4-.297c.38-.522.8-1.032 1.26-1.532l.37.337c.43-.469.88-.929 1.37-1.378l-.34-.368c.48-.439.98-.868 1.51-1.285l.31.392c.5-.396 1.03-.782 1.58-1.157l-.28-.413c.53-.366 1.09-.722 1.67-1.068l.25.429c.56-.33 1.13-.65 1.71-.959l-.23-.443c.58-.304 1.17-.599 1.78-.882l.21.453c.59-.271 1.19-.533 1.8-.785l-.19-.463c.61-.248 1.22-.486 1.85-.714l.18.47c.6-.22 1.23-.431 1.86-.632l-.15-.476c.62-.199 1.26-.387 1.9-.566l.14.482c.62-.173 1.26-.337 1.9-.49l-.11-.487c.64-.152 1.28-.294 1.94-.427l.1.491c.63-.129 1.28-.249 1.93-.359l-.08-.493c.65-.109 1.3-.209 1.96-.298l.07.495c.65-.088 1.3-.166 1.96-.234l-.05-.498c.65-.068 1.31-.127 1.98-.176l.03.499c.65-.048 1.31-.086 1.97-.115l-.02-.5c.66-.029 1.32-.048 1.98-.058l.01.5c.33-.005.66-.007.99-.007s.66.002.99.007l.01-.5c.66.01 1.33.029 1.98.058l-.02.5c.66.029 1.32.067 1.97.115l.04-.499c.66.049 1.32.108 1.98.176l-.06.498c.66.068 1.32.146 1.96.234l.07-.495c.66.089 1.31.189 1.96.298l-.08.493c.65.11 1.3.23 1.94.359l.09-.491c.66.133 1.31.275 1.94.427l-.11.487c.64.153 1.28.317 1.91.49l.13-.482c.64.179 1.28.367 1.91.566l-.16.476c.64.201 1.26.412 1.87.632l.17-.47c.63.228 1.25.466 1.85.714l-.19.463c.61.252 1.21.514 1.8.785l.21-.453c.61.283 1.2.578 1.78.882l-.23.443c.59.309 1.16.629 1.71.959l.25-.429c.58.346 1.14.702 1.67 1.068l-.28.413c.55.375 1.08.761 1.58 1.157l.31-.392c.53.417 1.03.846 1.51 1.285l-.34.368c.49.449.95.909 1.37 1.378l.37-.337c.46.5.88 1.01 1.26 1.532l-.4.297c.39.528.75 1.066 1.06 1.613l.43-.248c.34.584.63 1.179.87 1.784l-.46.188c.24.597.44 1.203.59 1.817z" stroke="#d2d4f8" stroke-dasharray="2 2"/><ellipse cx="1732" cy="565.5" fill="url(#d)" rx="38" ry="21.5"/></g></svg>