<svg fill="none" height="473" viewBox="0 0 491 473" width="491" xmlns="http://www.w3.org/2000/svg" xmlns:xlink="http://www.w3.org/1999/xlink"><linearGradient id="a" gradientUnits="userSpaceOnUse" x1="490" x2="-.000004" y1="347.5" y2="358"><stop offset="0" stop-color="#579bff"/><stop offset="1" stop-color="#d3beff"/></linearGradient><linearGradient id="b" gradientUnits="userSpaceOnUse" x1="-.000001" x2="500" y1="278" y2="272.5"><stop offset="0" stop-color="#659cdd"/><stop offset="1" stop-color="#f3f4fa"/></linearGradient><linearGradient id="c" gradientUnits="userSpaceOnUse" x1="47.9256" x2="523.238" y1="66.6867" y2="141.06"><stop offset="0" stop-color="#c4c7ff"/><stop offset="1" stop-color="#4fc4f9"/></linearGradient><linearGradient id="d" gradientUnits="userSpaceOnUse" x1="245" x2="245" y1="10" y2="273"><stop offset="0" stop-color="#242e51"/><stop offset="1" stop-color="#050b19"/></linearGradient><linearGradient id="e"><stop offset="0" stop-color="#d5a7ff"/><stop offset="1" stop-color="#4dbdf3" stop-opacity="0"/></linearGradient><linearGradient id="f" gradientUnits="userSpaceOnUse" x1="245" x2="245" xlink:href="#e" y1="38" y2="268"/><linearGradient id="g" gradientUnits="userSpaceOnUse" x1="245" x2="245" xlink:href="#e" y1="82.8779" y2="268"/><linearGradient id="h" gradientUnits="userSpaceOnUse" x1="245" x2="245" xlink:href="#e" y1="141.781" y2="268"/><linearGradient id="i" gradientUnits="userSpaceOnUse" x1="245" x2="245" xlink:href="#e" y1="200.683" y2="268"/><path d="m489.788 325.556c.094 1.314.157 2.633.188 3.956l-.999.024c.015.653.023 1.308.023 1.964s-.008 1.31-.023 1.964l.999.024c-.031 1.323-.094 2.642-.188 3.956l-.998-.071c-.093 1.303-.217 2.602-.372 3.895l.993.119c-.157 1.312-.344 2.619-.563 3.921l-.986-.165c-.215 1.286-.461 2.567-.737 3.842l.978.211c-.279 1.291-.588 2.577-.927 3.856l-.967-.255c-.332 1.257-.694 2.51-1.085 3.756l.955.299c-.395 1.259-.818 2.512-1.269 3.759l-.94-.341c-.443 1.222-.913 2.439-1.411 3.65l.925.38c-.5 1.218-1.028 2.43-1.583 3.636l-.909-.418c-.543 1.181-1.112 2.356-1.708 3.525l.891.454c-.597 1.172-1.219 2.338-1.867 3.497l-.873-.488c-.634 1.136-1.293 2.265-1.976 3.389l.854.519c-.683 1.123-1.389 2.239-2.119 3.348l-.835-.55c-.716 1.088-1.455 2.169-2.216 3.244l.816.578c-.759 1.071-1.539 2.136-2.342 3.194l-.797-.605c-.787 1.038-1.595 2.07-2.425 3.095l.777.629c-.825 1.02-1.672 2.034-2.538 3.041l-.758-.653c-.85.988-1.719 1.969-2.608 2.944l.739.674c-.885.97-1.789 1.934-2.712 2.891l-.72-.694c-.904.938-1.826 1.869-2.766 2.793l.701.713c-.938.922-1.894 1.838-2.867 2.747l-.682-.731c-.951.889-1.919 1.77-2.903 2.645l.665.748c-.986.876-1.987 1.746-3.005 2.609l-.647-.763c-.991.84-1.997 1.674-3.019 2.501l.629.777c-1.027.832-2.07 1.657-3.127 2.475l-.612-.791c-1.027.794-2.067 1.582-3.122 2.363l.595.804c-1.059.784-2.132 1.562-3.219 2.333l-.579-.815c-1.063.754-2.14 1.502-3.23 2.243l.563.827c-1.087.739-2.186 1.472-3.298 2.198l-.547-.838c-1.097.717-2.207 1.427-3.33 2.13l.531.847c-1.109.696-2.231 1.385-3.364 2.067l-.516-.857c-1.128.68-2.268 1.352-3.419 2.019l.501.865c-1.131.654-2.272 1.302-3.425 1.944l-.486-.874c-1.146.638-2.303 1.269-3.471 1.894l.472.882c-1.159.621-2.329 1.235-3.509 1.842l-.457-.889c-1.162.598-2.334 1.19-3.515 1.776l.444.896c-1.186.587-2.382 1.169-3.588 1.744l-.43-.903c-1.175.56-2.359 1.114-3.552 1.662l.417.909c-1.197.549-2.404 1.092-3.619 1.629l-.404-.915c-1.2.53-2.409 1.054-3.627 1.572l.391.92c-1.207.513-2.422 1.02-3.646 1.52l-.378-.926c-1.22.499-2.448.991-3.683 1.477l.365.931c-1.219.479-2.447.953-3.682 1.42l-.354-.935c-1.226.463-2.461.921-3.702 1.372l.341.94c-1.242.452-2.492.897-3.75 1.336l-.329-.944c-1.232.43-2.472.854-3.718 1.272l.318.948c-1.25.419-2.507.832-3.771 1.239l-.307-.952c-1.25.402-2.508.799-3.772 1.189l.295.955c-1.254.387-2.514.768-3.781 1.142l-.283-.959c-1.263.374-2.533.741-3.808 1.102l.272.962c-1.265.358-2.536.71-3.814 1.056l-.261-.965c-1.265.342-2.536.679-3.812 1.009l.25.968c-1.28.331-2.566.656-3.858.975l-.24-.971c-1.271.314-2.547.621-3.829.923l.229.973c-1.281.301-2.567.596-3.858.885l-.219-.975c-1.288.288-2.581.57-3.88.846l.208.978c-1.282.273-2.57.539-3.863.8l-.198-.981c-1.287.26-2.579.513-3.876.76l.187.983c-1.301.247-2.606.489-3.916.725l-.177-.984c-1.287.231-2.578.456-3.874.676l.167.986c-1.299.22-2.602.433-3.91.641l-.157-.987c-1.304.207-2.613.408-3.925.603l.146.989c-1.296.193-2.597.379-3.903.56l-.137-.991c-1.302.18-2.607.355-3.917.523l.127.992c-1.313.168-2.63.33-3.951.487l-.118-.993c-1.299.153-2.602.301-3.909.443l.108.994c-1.31.142-2.624.278-3.941.408l-.098-.995c-1.314.129-2.631.253-3.952.371l.089.996c-1.308.116-2.619.226-3.934.331l-.079-.997c-1.31.104-2.623.202-3.939.293l.069.998c-1.319.092-2.642.178-3.968.258l-.06-.998c-1.309.079-2.621.152-3.936.219l.051.999c-1.315.067-2.633.128-3.954.182l-.042-.999c-1.318.055-2.638.104-3.962.146l.032 1c-1.315.042-2.634.079-3.955.109l-.023-1c-1.312.031-2.628.055-3.946.073l.014 1c-1.321.018-2.645.03-3.971.036l-.004-1c-.662.003-1.324.005-1.987.005s-1.325-.002-1.986-.005l-.005 1c-1.326-.006-2.65-.018-3.971-.036l.014-1c-1.318-.018-2.634-.042-3.946-.073l-.023 1c-1.321-.03-2.64-.067-3.955-.109l.032-1c-1.323-.042-2.644-.091-3.962-.146l-.042.999c-1.32-.054-2.639-.115-3.954-.182l.051-.999c-1.315-.067-2.627-.14-3.935-.219l-.061.998c-1.326-.08-2.649-.166-3.968-.258l.069-.998c-1.316-.091-2.629-.189-3.939-.293l-.079.997c-1.315-.105-2.626-.215-3.933-.331l.088-.996c-1.321-.118-2.638-.242-3.952-.371l-.098.995c-1.317-.13-2.631-.266-3.941-.408l.108-.994c-1.307-.142-2.61-.29-3.909-.443l-.118.993c-1.321-.157-2.638-.319-3.951-.487l.127-.992c-1.309-.168-2.615-.343-3.917-.523l-.137.991c-1.305-.181-2.606-.367-3.903-.56l.147-.989c-1.313-.195-2.622-.396-3.926-.603l-.157.987c-1.308-.207-2.611-.421-3.91-.641l.167-.986c-1.296-.22-2.587-.445-3.874-.676l-.177.984c-1.31-.236-2.615-.478-3.916-.725l.187-.983c-1.297-.247-2.589-.5-3.876-.76l-.198.981c-1.293-.261-2.58-.527-3.863-.8l.208-.978c-1.299-.276-2.592-.558-3.88-.846l-.219.975c-1.291-.289-2.577-.584-3.858-.885l.229-.973c-1.282-.302-2.558-.609-3.829-.923l-.24.971c-1.292-.319-2.578-.644-3.858-.975l.25-.968c-1.276-.33-2.547-.667-3.812-1.009l-.261.965c-1.278-.346-2.549-.698-3.814-1.056l.272-.962c-1.275-.361-2.545-.728-3.808-1.102l-.283.959c-1.267-.374-2.527-.755-3.781-1.142l.295-.955c-1.264-.39-2.522-.787-3.772-1.189l-.307.952c-1.264-.407-2.521-.82-3.771-1.239l.318-.948c-1.246-.418-2.486-.842-3.718-1.272l-.329.944c-1.258-.439-2.508-.884-3.75-1.336l.341-.94c-1.242-.451-2.476-.909-3.702-1.372l-.354.935c-1.235-.467-2.463-.941-3.682-1.42l.365-.931c-1.235-.486-2.463-.978-3.683-1.477l-.378.926c-1.224-.5-2.439-1.007-3.6461-1.52l.3911-.92c-1.2176-.518-2.4266-1.042-3.6268-1.572l-.404.915c-1.2154-.537-2.4219-1.08-3.6193-1.629l.4171-.909c-1.1932-.548-2.3773-1.102-3.5521-1.662l-.4304.903c-1.2056-.575-2.4014-1.157-3.5875-1.744l.444-.896c-1.1814-.586-2.353-1.178-3.5146-1.776l-.4578.889c-1.1798-.607-2.3494-1.222-3.5085-1.842l.4719-.882c-1.1677-.625-2.3248-1.256-3.471-1.894l-.4864.874c-1.1523-.642-2.2939-1.29-3.4244-1.944l.5009-.865c-1.1515-.667-2.2913-1.339-3.4195-2.019l-.5158.857c-1.1332-.682-2.2546-1.371-3.3642-2.067l.5311-.847c-1.1224-.703-2.2324-1.413-3.3299-2.13l-.5466.838c-1.112-.726-2.2114-1.459-3.2978-2.198l.5625-.827c-1.0898-.741-2.1665-1.489-3.2298-2.243l-.5786.815c-1.0871-.771-2.1603-1.549-3.2196-2.333l.5952-.804c-1.0548-.781-2.0956-1.569-3.122-2.363l-.6119.791c-1.0576-.818-2.1002-1.643-3.1276-2.475l.6292-.777c-1.0216-.827-2.028-1.661-3.0189-2.501l-.6466.763c-1.0179-.863-2.0198-1.733-3.0053-2.609l.6646-.748c-.984-.875-1.9515-1.756-2.9022-2.645l-.6827.731c-.9729-.909-1.9285-1.825-2.8666-2.747l.7012-.713c-.9401-.924-1.8622-1.855-2.7662-2.793l-.7199.694c-.9227-.957-1.8268-1.921-2.712-2.891l.7389-.674c-.8889-.975-1.7583-1.956-2.6081-2.943l-.758.652c-.8664-1.007-1.7126-2.021-2.5383-3.041l.7773-.629c-.8295-1.025-1.6381-2.057-2.4254-3.095l-.7967.605c-.8025-1.058-1.5832-2.123-2.3418-3.194l.8161-.578c-.7613-1.075-1.4999-2.156-2.2157-3.244l-.8353.55c-.7299-1.109-1.4364-2.225-2.1191-3.347l.8544-.52c-.6833-1.123-1.3424-2.253-1.9769-3.389l-.873.488c-.6476-1.159-1.27-2.325-1.86683-3.497l.89113-.454c-.5954-1.169-1.16494-2.344-1.70835-3.525l-.90846.418c-.55478-1.206-1.08268-2.418-1.58331-3.636l.92494-.38c-.49753-1.211-.96775-2.427-1.4103-3.65l-.94026.341c-.45147-1.247-.87453-2.5-1.26876-3.759l.95428-.299c-.39048-1.246-.7523-2.499-1.08508-3.756l-.96673.256c-.33863-1.28-.64757-2.566-.92641-3.856l.97745-.212c-.2756-1.275-.52142-2.556-.73706-3.842l-.98623.165c-.218297-1.302-.40605-2.609-.562838-3.921l.992938-.119c-.15462-1.293-.27876-2.592-.372-3.895l-.997453.071c-.094032-1.314-.1570286-2.633-.1885787-3.956l.9997117-.024c-.01558-.653-.0234-1.308-.0234-1.964s.00782-1.31.0234-1.964l-.9997148-.024c.0315481-1.323.0945428-2.642.1885728-3.956l.997452.071c.09324-1.303.21738-2.602.37199-3.895l-.992933-.119c.156787-1.312.34454-2.619.562843-3.921l.98623.165c.21563-1.286.46145-2.567.73705-3.842l-.97745-.211c.27883-1.291.58777-2.577.9264-3.856l.96673.255c.33278-1.257.6946-2.51 1.08508-3.756l-.95429-.299c.39423-1.259.81729-2.512 1.26876-3.759l.94027.341c.44254-1.222.91276-2.439 1.41029-3.65l-.92494-.38c.50063-1.218 1.02853-2.43 1.58331-3.636l.90846.418c.5434-1.181 1.11299-2.356 1.70829-3.525l-.89108-.454c.59688-1.172 1.21928-2.338 1.86678-3.497l.873.488c.6346-1.136 1.2937-2.265 1.9769-3.389l-.8543-.519c.6826-1.123 1.3891-2.239 2.119-3.348l.8354.55c.7157-1.088 1.4544-2.169 2.2156-3.244l-.8161-.578c.7586-1.071 1.5394-2.136 2.3418-3.194l.7967.605c.7874-1.038 1.5959-2.07 2.4255-3.095l-.7774-.629c.8258-1.02 1.672-2.034 2.5383-3.041l.758.653c.8498-.988 1.7193-1.969 2.6082-2.944l-.7389-.674c.8851-.97 1.7892-1.934 2.712-2.891l.7199.694c.904-.938 1.8261-1.869 2.7661-2.793l-.7011-.713c.938-.922 1.8936-1.838 2.8666-2.747l.6826.731c.9508-.889 1.9183-1.77 2.9023-2.645l-.6646-.748c.9855-.876 1.9873-1.746 3.0053-2.609l.6466.763c.9909-.84 1.9973-1.674 3.0189-2.501l-.6292-.777c1.0274-.832 2.07-1.657 3.1276-2.475l.6119.791c1.0264-.794 2.0672-1.582 3.122-2.363l-.5952-.804c1.0593-.784 2.1325-1.562 3.2196-2.333l.5786.815c1.0633-.754 2.14-1.502 3.2298-2.243l-.5625-.827c1.0864-.739 2.1858-1.472 3.2978-2.198l.5466.838c1.0975-.717 2.2075-1.427 3.3299-2.13l-.531-.847c1.1095-.696 2.2309-1.385 3.3641-2.067l.5159.857c1.1281-.68 2.268-1.352 3.4194-2.019l-.5008-.865c1.1305-.654 2.272-1.302 3.4244-1.944l.4863.874c1.1462-.638 2.3033-1.269 3.471-1.894l-.4719-.882c1.1591-.621 2.3287-1.235 3.5085-1.842l.4578.889c1.1616-.598 2.3332-1.19 3.5147-1.776l-.4441-.896c1.1861-.587 2.382-1.169 3.5875-1.744l.4304.903c1.1748-.56 2.3589-1.114 3.5521-1.662l-.4171-.909c1.1974-.549 2.4039-1.092 3.6194-1.629l.404.915c1.2001-.53 2.4091-1.054 3.6267-1.572l-.3911-.92c1.2071-.513 2.4221-1.02 3.6461-1.52l.378.926c1.22-.499 2.448-.991 3.683-1.477l-.365-.931c1.219-.479 2.447-.953 3.682-1.42l.354.935c1.226-.463 2.461-.921 3.702-1.372l-.341-.94c1.242-.452 2.492-.897 3.75-1.336l.329.944c1.232-.43 2.472-.854 3.718-1.272l-.318-.948c1.25-.419 2.507-.832 3.771-1.239l.307.952c1.25-.402 2.508-.799 3.772-1.189l-.295-.955c1.254-.387 2.514-.768 3.781-1.142l.283.959c1.263-.374 2.533-.741 3.808-1.102l-.272-.962c1.265-.358 2.536-.71 3.814-1.056l.261.965c1.265-.342 2.536-.679 3.812-1.009l-.25-.968c1.28-.331 2.566-.656 3.858-.975l.24.971c1.271-.314 2.547-.621 3.829-.923l-.229-.973c1.281-.301 2.567-.596 3.858-.885l.219.975c1.288-.288 2.581-.57 3.88-.846l-.208-.978c1.282-.273 2.57-.539 3.863-.8l.198.981c1.287-.26 2.579-.513 3.876-.76l-.187-.983c1.301-.247 2.606-.489 3.916-.725l.177.984c1.287-.231 2.578-.456 3.874-.676l-.167-.986c1.299-.22 2.602-.434 3.91-.641l.157.987c1.304-.207 2.613-.408 3.925-.603l-.146-.989c1.296-.193 2.597-.379 3.903-.56l.137.991c1.302-.18 2.607-.355 3.917-.523l-.127-.992c1.313-.168 2.63-.33 3.951-.487l.118.993c1.299-.153 2.602-.301 3.909-.443l-.108-.994c1.31-.142 2.624-.278 3.941-.408l.098.995c1.314-.129 2.631-.253 3.952-.371l-.089-.996c1.308-.116 2.619-.226 3.934-.331l.079.997c1.31-.104 2.623-.202 3.939-.293l-.069-.998c1.319-.092 2.642-.178 3.968-.258l.06.998c1.309-.079 2.621-.152 3.936-.219l-.051-.999c1.315-.067 2.633-.128 3.954-.182l.042.999c1.318-.055 2.638-.104 3.962-.147l-.032-.999c1.315-.042 2.634-.079 3.955-.109l.023 1c1.312-.031 2.628-.055 3.946-.073l-.014-1c1.321-.018 2.645-.03 3.971-.036l.004 1c.662-.003 1.324-.005 1.987-.005s1.325.002 1.986.005l.005-1c1.326.006 2.65.018 3.971.036l-.014 1c1.318.018 2.634.042 3.946.073l.023-1c1.321.03 2.64.067 3.955.109l-.032.999c1.323.043 2.644.092 3.962.147l.042-.999c1.32.054 2.639.115 3.954.182l-.051.999c1.315.067 2.627.14 3.935.219l.061-.998c1.326.08 2.649.166 3.968.258l-.069.998c1.316.091 2.629.189 3.939.293l.079-.997c1.315.105 2.626.215 3.933.331l-.088.996c1.321.118 2.638.242 3.952.371l.098-.995c1.317.13 2.631.266 3.941.408l-.108.994c1.307.142 2.61.29 3.909.443l.118-.993c1.321.157 2.638.319 3.951.487l-.127.992c1.309.168 2.615.343 3.917.523l.137-.991c1.305.181 2.606.367 3.903.56l-.147.989c1.313.195 2.622.396 3.926.603l.157-.987c1.308.207 2.611.421 3.91.641l-.167.986c1.296.22 2.587.445 3.874.676l.177-.984c1.31.236 2.615.478 3.916.725l-.187.983c1.297.247 2.589.5 3.876.76l.198-.981c1.293.261 2.58.527 3.863.8l-.208.978c1.299.276 2.592.558 3.88.846l.219-.975c1.291.289 2.577.584 3.858.885l-.229.973c1.282.302 2.558.609 3.829.923l.24-.971c1.292.319 2.578.644 3.858.975l-.25.968c1.276.33 2.547.667 3.812 1.009l.261-.965c1.278.346 2.549.698 3.814 1.056l-.272.962c1.275.361 2.545.728 3.808 1.102l.283-.959c1.267.374 2.527.755 3.781 1.142l-.295.955c1.264.39 2.522.787 3.772 1.189l.307-.952c1.264.407 2.521.82 3.771 1.239l-.318.948c1.246.418 2.486.842 3.718 1.272l.329-.944c1.258.439 2.508.884 3.75 1.336l-.341.94c1.242.451 2.476.909 3.702 1.372l.354-.935c1.235.467 2.463.941 3.682 1.42l-.365.931c1.235.486 2.463.978 3.683 1.477l.378-.926c1.224.5 2.439 1.007 3.646 1.52l-.391.92c1.218.518 2.427 1.042 3.627 1.572l.404-.915c1.215.537 2.422 1.08 3.619 1.629l-.417.909c1.193.548 2.377 1.102 3.552 1.662l.43-.903c1.206.575 2.402 1.157 3.588 1.744l-.444.896c1.181.586 2.353 1.178 3.515 1.776l.457-.889c1.18.607 2.35 1.221 3.509 1.842l-.472.882c1.168.625 2.325 1.256 3.471 1.894l.486-.874c1.153.642 2.294 1.29 3.425 1.944l-.501.865c1.151.667 2.291 1.339 3.419 2.019l.516-.857c1.133.682 2.255 1.371 3.364 2.067l-.531.847c1.123.703 2.233 1.413 3.33 2.13l.547-.838c1.112.726 2.211 1.459 3.298 2.198l-.563.827c1.09.741 2.167 1.489 3.23 2.243l.579-.815c1.087.771 2.16 1.549 3.219 2.333l-.595.804c1.055.781 2.095 1.569 3.122 2.363l.612-.791c1.057.818 2.1 1.643 3.127 2.475l-.629.777c1.022.827 2.028 1.661 3.019 2.501l.647-.763c1.018.863 2.019 1.733 3.005 2.609l-.665.748c.984.875 1.952 1.756 2.903 2.645l.682-.731c.973.909 1.929 1.824 2.867 2.747l-.701.713c.94.924 1.862 1.855 2.766 2.793l.72-.694c.923.957 1.827 1.921 2.712 2.891l-.739.674c.889.975 1.758 1.956 2.608 2.943l.758-.652c.866 1.007 1.713 2.021 2.538 3.041l-.777.629c.83 1.025 1.638 2.057 2.425 3.095l.797-.605c.803 1.058 1.583 2.123 2.342 3.194l-.816.578c.761 1.075 1.5 2.156 2.215 3.244l.836-.55c.73 1.109 1.436 2.225 2.119 3.347l-.855.52c.684 1.123 1.343 2.253 1.977 3.389l.873-.488c.648 1.159 1.27 2.325 1.867 3.497l-.891.454c.595 1.169 1.165 2.344 1.708 3.525l.909-.418c.555 1.206 1.083 2.418 1.583 3.636l-.925.38c.498 1.211.968 2.427 1.411 3.65l.94-.341c.451 1.247.874 2.5 1.269 3.759l-.955.299c.391 1.246.753 2.499 1.085 3.756l.967-.256c.339 1.28.648 2.566.927 3.856l-.978.212c.276 1.275.522 2.556.737 3.842l.986-.165c.219 1.302.406 2.609.563 3.921l-.993.119c.155 1.293.279 2.592.372 3.895z" stroke="url(#a)" stroke-dasharray="4 4" stroke-width="2"/><path clip-rule="evenodd" d="m72.1472 378c95.6588 55.228 250.7518 55.228 346.4098 0 50.93-29.404 74.744-68.535 71.443-107.036v-129.964h-183.723c-39.926-5.895-81.924-5.895-121.849 0h-183.428228v127.106c-4.758662 39.415 18.957128 79.762 71.147428 109.894z" fill="url(#b)" fill-rule="evenodd"/><ellipse cx="245" cy="141.5" fill="url(#c)" rx="245" ry="141.5"/><ellipse cx="245" cy="141.5" fill="url(#d)" rx="235" ry="131.5"/><path d="m449.5 153c0 31.495-22.762 60.111-59.788 80.881-37.01 20.762-88.172 33.619-144.712 33.619s-107.702-12.857-144.712-33.619c-37.0262-20.77-59.788-49.386-59.788-80.881s22.7618-60.1106 59.788-80.8812c37.01-20.7617 88.172-33.6188 144.712-33.6188s107.702 12.8571 144.712 33.6188c37.026 20.7706 59.788 49.3862 59.788 80.8812z" stroke="url(#f)"/><path d="m409.5 175.439c0 25.298-18.285 48.304-48.072 65.014-29.771 16.701-70.934 27.047-116.428 27.047s-86.657-10.346-116.428-27.047c-29.7873-16.71-48.072-39.716-48.072-65.014 0-25.299 18.2847-48.305 48.072-65.015 29.771-16.7005 70.934-27.0461 116.428-27.0461s86.657 10.3456 116.428 27.0461c29.787 16.71 48.072 39.716 48.072 65.015z" stroke="url(#g)"/><path d="m357.5 204.89c0 17.165-12.463 32.808-32.841 44.189-20.361 11.372-48.524 18.421-79.659 18.421s-59.298-7.049-79.659-18.421c-20.378-11.381-32.841-27.024-32.841-44.189 0-17.164 12.463-32.808 32.841-44.189 20.361-11.371 48.524-18.42 79.659-18.42s59.298 7.049 79.659 18.42c20.378 11.381 32.841 27.025 32.841 44.189z" stroke="url(#h)"/><path d="m304.5 234.341c0 9.033-6.532 17.314-17.318 23.365-10.77 6.041-25.683 9.794-42.182 9.794s-31.412-3.753-42.182-9.794c-10.786-6.051-17.318-14.332-17.318-23.365s6.532-17.313 17.318-23.364c10.77-6.041 25.683-9.794 42.182-9.794s31.412 3.753 42.182 9.794c10.786 6.051 17.318 14.331 17.318 23.364z" stroke="url(#i)"/></svg>