<svg width="491" height="473" viewBox="0 0 491 473" fill="none" xmlns="http://www.w3.org/2000/svg">
<path d="M489.788 325.556C489.882 326.87 489.945 328.189 489.976 329.512L488.977 329.536C488.992 330.189 489 330.844 489 331.5C489 332.156 488.992 332.81 488.977 333.464L489.976 333.488C489.945 334.811 489.882 336.13 489.788 337.444L488.79 337.373C488.697 338.676 488.573 339.975 488.418 341.268L489.411 341.387C489.254 342.699 489.067 344.006 488.848 345.308L487.862 345.143C487.647 346.429 487.401 347.71 487.125 348.985L488.103 349.196C487.824 350.487 487.515 351.773 487.176 353.052L486.209 352.797C485.877 354.054 485.515 355.307 485.124 356.553L486.079 356.852C485.684 358.111 485.261 359.364 484.81 360.611L483.87 360.27C483.427 361.492 482.957 362.709 482.459 363.92L483.384 364.3C482.884 365.518 482.356 366.73 481.801 367.936L480.892 367.518C480.349 368.699 479.78 369.874 479.184 371.043L480.075 371.497C479.478 372.669 478.856 373.835 478.208 374.994L477.335 374.506C476.701 375.642 476.042 376.771 475.359 377.895L476.213 378.414C475.53 379.537 474.824 380.653 474.094 381.762L473.259 381.212C472.543 382.3 471.804 383.381 471.043 384.456L471.859 385.034C471.1 386.105 470.32 387.17 469.517 388.228L468.72 387.623C467.933 388.661 467.125 389.693 466.295 390.718L467.072 391.347C466.247 392.367 465.4 393.381 464.534 394.388L463.776 393.735C462.926 394.723 462.057 395.704 461.168 396.679L461.907 397.353C461.022 398.323 460.118 399.287 459.195 400.244L458.475 399.55C457.571 400.488 456.649 401.419 455.709 402.343L456.41 403.056C455.472 403.978 454.516 404.894 453.543 405.803L452.861 405.072C451.91 405.961 450.942 406.842 449.958 407.717L450.623 408.465C449.637 409.341 448.636 410.211 447.618 411.074L446.971 410.311C445.98 411.151 444.974 411.985 443.952 412.812L444.581 413.589C443.554 414.421 442.511 415.246 441.454 416.064L440.842 415.273C439.815 416.067 438.775 416.855 437.72 417.636L438.315 418.44C437.256 419.224 436.183 420.002 435.096 420.773L434.517 419.958C433.454 420.712 432.377 421.46 431.287 422.201L431.85 423.028C430.763 423.767 429.664 424.5 428.552 425.226L428.005 424.388C426.908 425.105 425.798 425.815 424.675 426.518L425.206 427.365C424.097 428.061 422.975 428.75 421.842 429.432L421.326 428.575C420.198 429.255 419.058 429.927 417.907 430.594L418.408 431.459C417.277 432.113 416.136 432.761 414.983 433.403L414.497 432.529C413.351 433.167 412.194 433.798 411.026 434.423L411.498 435.305C410.339 435.926 409.169 436.54 407.989 437.147L407.532 436.258C406.37 436.856 405.198 437.448 404.017 438.034L404.461 438.93C403.275 439.517 402.079 440.099 400.873 440.674L400.443 439.771C399.268 440.331 398.084 440.885 396.891 441.433L397.308 442.342C396.111 442.891 394.904 443.434 393.689 443.971L393.285 443.056C392.085 443.586 390.876 444.11 389.658 444.628L390.049 445.548C388.842 446.061 387.627 446.568 386.403 447.068L386.025 446.142C384.805 446.641 383.577 447.133 382.342 447.619L382.707 448.55C381.488 449.029 380.26 449.503 379.025 449.97L378.671 449.035C377.445 449.498 376.21 449.956 374.969 450.407L375.31 451.347C374.068 451.799 372.818 452.244 371.56 452.683L371.231 451.739C369.999 452.169 368.759 452.593 367.513 453.011L367.831 453.959C366.581 454.378 365.324 454.791 364.06 455.198L363.753 454.246C362.503 454.648 361.245 455.045 359.981 455.435L360.276 456.39C359.022 456.777 357.762 457.158 356.495 457.532L356.212 456.573C354.949 456.947 353.679 457.314 352.404 457.675L352.676 458.637C351.411 458.995 350.14 459.347 348.862 459.693L348.601 458.728C347.336 459.07 346.065 459.407 344.789 459.737L345.039 460.705C343.759 461.036 342.473 461.361 341.181 461.68L340.941 460.709C339.67 461.023 338.394 461.33 337.112 461.632L337.341 462.605C336.06 462.906 334.774 463.201 333.483 463.49L333.264 462.515C331.976 462.803 330.683 463.085 329.384 463.361L329.592 464.339C328.31 464.612 327.022 464.878 325.729 465.139L325.531 464.158C324.244 464.418 322.952 464.671 321.655 464.918L321.842 465.901C320.541 466.148 319.236 466.39 317.926 466.626L317.749 465.642C316.462 465.873 315.171 466.098 313.875 466.318L314.042 467.304C312.743 467.524 311.44 467.737 310.132 467.945L309.975 466.958C308.671 467.165 307.362 467.366 306.05 467.561L306.196 468.55C304.9 468.743 303.599 468.929 302.293 469.11L302.156 468.119C300.854 468.299 299.549 468.474 298.239 468.642L298.366 469.634C297.053 469.802 295.736 469.964 294.415 470.121L294.297 469.128C292.998 469.281 291.695 469.429 290.388 469.571L290.496 470.565C289.186 470.707 287.872 470.843 286.555 470.973L286.457 469.978C285.143 470.107 283.826 470.231 282.505 470.349L282.594 471.345C281.286 471.461 279.975 471.571 278.66 471.676L278.581 470.679C277.271 470.783 275.958 470.881 274.642 470.972L274.711 471.97C273.392 472.062 272.069 472.148 270.743 472.228L270.683 471.23C269.374 471.309 268.062 471.382 266.747 471.449L266.798 472.448C265.483 472.515 264.165 472.576 262.844 472.63L262.802 471.631C261.484 471.686 260.164 471.735 258.84 471.777L258.872 472.777C257.557 472.819 256.238 472.856 254.917 472.886L254.894 471.886C253.582 471.917 252.266 471.941 250.948 471.959L250.962 472.959C249.641 472.977 248.317 472.989 246.991 472.995L246.987 471.995C246.325 471.998 245.663 472 245 472C244.337 472 243.675 471.998 243.014 471.995L243.009 472.995C241.683 472.989 240.359 472.977 239.038 472.959L239.052 471.959C237.734 471.941 236.418 471.917 235.106 471.886L235.083 472.886C233.762 472.856 232.443 472.819 231.128 472.777L231.16 471.777C229.837 471.735 228.516 471.686 227.198 471.631L227.156 472.63C225.836 472.576 224.517 472.515 223.202 472.448L223.253 471.449C221.938 471.382 220.626 471.309 219.318 471.23L219.257 472.228C217.931 472.148 216.608 472.062 215.289 471.97L215.358 470.972C214.042 470.881 212.729 470.783 211.419 470.679L211.34 471.676C210.025 471.571 208.714 471.461 207.407 471.345L207.495 470.349C206.174 470.231 204.857 470.107 203.543 469.978L203.445 470.973C202.128 470.843 200.814 470.707 199.504 470.565L199.612 469.571C198.305 469.429 197.002 469.281 195.703 469.128L195.585 470.121C194.264 469.964 192.947 469.802 191.634 469.634L191.761 468.642C190.452 468.474 189.146 468.299 187.844 468.119L187.707 469.11C186.402 468.929 185.101 468.743 183.804 468.55L183.951 467.561C182.638 467.366 181.329 467.165 180.025 466.958L179.868 467.945C178.56 467.738 177.257 467.524 175.958 467.304L176.125 466.318C174.829 466.098 173.538 465.873 172.251 465.642L172.074 466.626C170.764 466.39 169.459 466.148 168.158 465.901L168.345 464.918C167.048 464.671 165.756 464.418 164.469 464.158L164.271 465.139C162.978 464.878 161.691 464.612 160.408 464.339L160.616 463.361C159.317 463.085 158.024 462.803 156.736 462.515L156.517 463.49C155.226 463.201 153.94 462.906 152.659 462.605L152.888 461.632C151.606 461.33 150.33 461.023 149.059 460.709L148.819 461.68C147.527 461.361 146.241 461.036 144.961 460.705L145.211 459.737C143.935 459.407 142.664 459.07 141.399 458.728L141.138 459.693C139.86 459.347 138.589 458.995 137.324 458.637L137.596 457.675C136.321 457.314 135.051 456.947 133.788 456.573L133.505 457.532C132.238 457.158 130.978 456.777 129.724 456.39L130.019 455.435C128.755 455.045 127.497 454.648 126.247 454.246L125.94 455.198C124.676 454.791 123.419 454.378 122.169 453.959L122.487 453.011C121.241 452.593 120.001 452.169 118.769 451.739L118.44 452.683C117.182 452.244 115.932 451.799 114.69 451.347L115.031 450.407C113.789 449.956 112.555 449.498 111.329 449.035L110.975 449.97C109.74 449.503 108.512 449.029 107.293 448.55L107.658 447.619C106.423 447.133 105.195 446.641 103.975 446.142L103.597 447.068C102.373 446.568 101.158 446.061 99.9509 445.548L100.342 444.628C99.1244 444.11 97.9154 443.586 96.7152 443.056L96.3112 443.971C95.0958 443.434 93.8893 442.891 92.6919 442.342L93.109 441.433C91.9158 440.885 90.7317 440.331 89.5569 439.771L89.1265 440.674C87.9209 440.099 86.7251 439.517 85.539 438.93L85.983 438.034C84.8016 437.448 83.63 436.856 82.4684 436.258L82.0106 437.147C80.8308 436.54 79.6612 435.925 78.5021 435.305L78.974 434.423C77.8063 433.798 76.6492 433.167 75.503 432.529L75.0166 433.403C73.8643 432.761 72.7227 432.113 71.5922 431.459L72.0931 430.594C70.9416 429.927 69.8018 429.255 68.6736 428.575L68.1578 429.432C67.0246 428.75 65.9032 428.061 64.7936 427.365L65.3247 426.518C64.2023 425.815 63.0923 425.105 61.9948 424.388L61.4482 425.226C60.3362 424.5 59.2368 423.767 58.1504 423.028L58.7129 422.201C57.6231 421.46 56.5464 420.712 55.4831 419.958L54.9045 420.773C53.8174 420.002 52.7442 419.224 51.6849 418.44L52.2801 417.636C51.2253 416.855 50.1845 416.067 49.1581 415.273L48.5462 416.064C47.4886 415.246 46.446 414.421 45.4186 413.589L46.0478 412.812C45.0262 411.985 44.0198 411.151 43.0289 410.311L42.3823 411.074C41.3644 410.211 40.3625 409.341 39.377 408.465L40.0416 407.717C39.0576 406.842 38.0901 405.961 37.1394 405.072L36.4567 405.803C35.4838 404.894 34.5282 403.978 33.5901 403.056L34.2913 402.343C33.3512 401.419 32.4291 400.488 31.5251 399.55L30.8052 400.244C29.8825 399.287 28.9784 398.323 28.0932 397.353L28.8321 396.679C27.9432 395.704 27.0738 394.723 26.224 393.736L25.466 394.388C24.5996 393.381 23.7534 392.367 22.9277 391.347L23.705 390.718C22.8755 389.693 22.0669 388.661 21.2796 387.623L20.4829 388.228C19.6804 387.17 18.8997 386.105 18.1411 385.034L18.9572 384.456C18.1959 383.381 17.4573 382.3 16.7415 381.212L15.9062 381.762C15.1763 380.653 14.4698 379.537 13.7871 378.415L14.6415 377.895C13.9582 376.772 13.2991 375.642 12.6646 374.506L11.7916 374.994C11.144 373.835 10.5216 372.669 9.92477 371.497L10.8159 371.043C10.2205 369.874 9.65096 368.699 9.10755 367.518L8.19909 367.936C7.64431 366.73 7.11641 365.518 6.61578 364.3L7.54072 363.92C7.04319 362.709 6.57297 361.493 6.13042 360.27L5.19016 360.611C4.73869 359.364 4.31563 358.111 3.9214 356.852L4.87568 356.553C4.4852 355.307 4.12338 354.054 3.7906 352.797L2.82387 353.053C2.48524 351.773 2.1763 350.487 1.89746 349.197L2.87491 348.985C2.59931 347.71 2.35349 346.429 2.13785 345.143L1.15162 345.308C0.933323 344.006 0.74557 342.699 0.588782 341.387L1.58172 341.268C1.4271 339.975 1.30296 338.676 1.20972 337.373L0.212267 337.444C0.118235 336.13 0.0552384 334.811 0.0236883 333.488L1.0234 333.464C1.00782 332.811 1 332.156 1 331.5C1 330.844 1.00782 330.19 1.0234 329.536L0.0236852 329.512C0.0552333 328.189 0.118228 326.87 0.212258 325.556L1.20971 325.627C1.30295 324.324 1.42709 323.025 1.5817 321.732L0.588767 321.613C0.745554 320.301 0.933307 318.994 1.15161 317.692L2.13784 317.857C2.35347 316.571 2.59929 315.29 2.87489 314.015L1.89744 313.804C2.17627 312.513 2.48521 311.227 2.82384 309.948L3.79057 310.203C4.12335 308.946 4.48517 307.693 4.87565 306.447L3.92136 306.148C4.31559 304.889 4.73865 303.636 5.19012 302.389L6.13039 302.73C6.57293 301.508 7.04315 300.291 7.54068 299.08L6.61574 298.7C7.11637 297.482 7.64427 296.27 8.19905 295.064L9.10751 295.482C9.65091 294.301 10.2205 293.126 10.8158 291.957L9.92472 291.503C10.5216 290.331 11.144 289.165 11.7915 288.006L12.6645 288.494C13.2991 287.358 13.9582 286.229 14.6414 285.105L13.7871 284.586C14.4697 283.463 15.1762 282.347 15.9061 281.238L16.7415 281.788C17.4572 280.7 18.1959 279.619 18.9571 278.544L18.141 277.966C18.8996 276.895 19.6804 275.83 20.4828 274.772L21.2795 275.377C22.0669 274.339 22.8754 273.307 23.705 272.282L22.9276 271.653C23.7534 270.633 24.5996 269.619 25.4659 268.612L26.2239 269.265C27.0737 268.277 27.9432 267.296 28.8321 266.321L28.0932 265.647C28.9783 264.677 29.8824 263.713 30.8052 262.756L31.5251 263.45C32.4291 262.512 33.3512 261.581 34.2912 260.657L33.5901 259.944C34.5281 259.022 35.4837 258.106 36.4567 257.197L37.1393 257.928C38.0901 257.039 39.0576 256.158 40.0416 255.283L39.377 254.535C40.3625 253.659 41.3643 252.789 42.3823 251.926L43.0289 252.689C44.0198 251.849 45.0262 251.015 46.0478 250.188L45.4186 249.411C46.446 248.579 47.4886 247.754 48.5462 246.936L49.1581 247.727C50.1845 246.933 51.2253 246.145 52.2801 245.364L51.6849 244.56C52.7442 243.776 53.8174 242.998 54.9045 242.227L55.4831 243.042C56.5464 242.288 57.6231 241.54 58.7129 240.799L58.1504 239.972C59.2368 239.233 60.3362 238.5 61.4482 237.774L61.9948 238.612C63.0923 237.895 64.2023 237.185 65.3247 236.482L64.7937 235.635C65.9032 234.939 67.0246 234.25 68.1578 233.568L68.6737 234.425C69.8018 233.745 70.9417 233.073 72.0931 232.406L71.5923 231.541C72.7228 230.887 73.8643 230.239 75.0167 229.597L75.503 230.471C76.6492 229.833 77.8063 229.202 78.974 228.577L78.5021 227.695C79.6612 227.074 80.8308 226.46 82.0106 225.853L82.4684 226.742C83.63 226.144 84.8016 225.552 85.9831 224.966L85.539 224.07C86.7251 223.483 87.921 222.901 89.1265 222.326L89.5569 223.229C90.7317 222.669 91.9158 222.115 93.109 221.567L92.6919 220.658C93.8893 220.109 95.0958 219.566 96.3113 219.029L96.7153 219.944C97.9154 219.414 99.1244 218.89 100.342 218.372L99.9509 217.452C101.158 216.939 102.373 216.432 103.597 215.932L103.975 216.858C105.195 216.359 106.423 215.867 107.658 215.381L107.293 214.45C108.512 213.971 109.74 213.497 110.975 213.03L111.329 213.965C112.555 213.502 113.79 213.044 115.031 212.593L114.69 211.653C115.932 211.201 117.182 210.756 118.44 210.317L118.769 211.261C120.001 210.831 121.241 210.407 122.487 209.989L122.169 209.041C123.419 208.622 124.676 208.209 125.94 207.802L126.247 208.754C127.497 208.352 128.755 207.955 130.019 207.565L129.724 206.61C130.978 206.223 132.238 205.842 133.505 205.468L133.788 206.427C135.051 206.053 136.321 205.686 137.596 205.325L137.324 204.363C138.589 204.005 139.86 203.653 141.138 203.307L141.399 204.272C142.664 203.93 143.935 203.593 145.211 203.263L144.961 202.295C146.241 201.964 147.527 201.639 148.819 201.32L149.059 202.291C150.33 201.977 151.606 201.67 152.888 201.368L152.659 200.395C153.94 200.094 155.226 199.799 156.517 199.51L156.736 200.485C158.024 200.197 159.317 199.915 160.616 199.639L160.408 198.661C161.69 198.388 162.978 198.122 164.271 197.861L164.469 198.842C165.756 198.582 167.048 198.329 168.345 198.082L168.158 197.099C169.459 196.852 170.764 196.61 172.074 196.374L172.251 197.358C173.538 197.127 174.829 196.902 176.125 196.682L175.958 195.696C177.257 195.476 178.56 195.262 179.868 195.055L180.025 196.042C181.329 195.835 182.638 195.634 183.95 195.439L183.804 194.45C185.1 194.257 186.401 194.071 187.707 193.89L187.844 194.881C189.146 194.701 190.451 194.526 191.761 194.358L191.634 193.366C192.947 193.198 194.264 193.036 195.585 192.879L195.703 193.872C197.002 193.719 198.305 193.571 199.612 193.429L199.504 192.435C200.814 192.293 202.128 192.157 203.445 192.027L203.543 193.022C204.857 192.893 206.174 192.769 207.495 192.651L207.406 191.655C208.714 191.539 210.025 191.429 211.34 191.324L211.419 192.321C212.729 192.217 214.042 192.119 215.358 192.028L215.289 191.03C216.608 190.938 217.931 190.852 219.257 190.772L219.317 191.77C220.626 191.691 221.938 191.618 223.253 191.551L223.202 190.552C224.517 190.485 225.835 190.424 227.156 190.37L227.198 191.369C228.516 191.314 229.836 191.265 231.16 191.222L231.128 190.223C232.443 190.181 233.762 190.144 235.083 190.114L235.106 191.114C236.418 191.083 237.734 191.059 239.052 191.041L239.038 190.041C240.359 190.023 241.683 190.011 243.009 190.005L243.013 191.005C243.675 191.002 244.337 191 245 191C245.663 191 246.325 191.002 246.986 191.005L246.991 190.005C248.317 190.011 249.641 190.023 250.962 190.041L250.948 191.041C252.266 191.059 253.582 191.083 254.894 191.114L254.917 190.114C256.238 190.144 257.557 190.181 258.872 190.223L258.84 191.222C260.163 191.265 261.484 191.314 262.802 191.369L262.844 190.37C264.164 190.424 265.483 190.485 266.798 190.552L266.747 191.551C268.062 191.618 269.374 191.691 270.682 191.77L270.743 190.772C272.069 190.852 273.392 190.938 274.711 191.03L274.642 192.028C275.958 192.119 277.271 192.217 278.581 192.321L278.66 191.324C279.975 191.429 281.286 191.539 282.593 191.655L282.505 192.651C283.826 192.769 285.143 192.893 286.457 193.022L286.555 192.027C287.872 192.157 289.186 192.293 290.496 192.435L290.388 193.429C291.695 193.571 292.998 193.719 294.297 193.872L294.415 192.879C295.736 193.036 297.053 193.198 298.366 193.366L298.239 194.358C299.548 194.526 300.854 194.701 302.156 194.881L302.293 193.89C303.598 194.071 304.899 194.257 306.196 194.45L306.049 195.439C307.362 195.634 308.671 195.835 309.975 196.042L310.132 195.055C311.44 195.262 312.743 195.476 314.042 195.696L313.875 196.682C315.171 196.902 316.462 197.127 317.749 197.358L317.926 196.374C319.236 196.61 320.541 196.852 321.842 197.099L321.655 198.082C322.952 198.329 324.244 198.582 325.531 198.842L325.729 197.861C327.022 198.122 328.309 198.388 329.592 198.661L329.384 199.639C330.683 199.915 331.976 200.197 333.264 200.485L333.483 199.51C334.774 199.799 336.06 200.094 337.341 200.395L337.112 201.368C338.394 201.67 339.67 201.977 340.941 202.291L341.181 201.32C342.473 201.639 343.759 201.964 345.039 202.295L344.789 203.263C346.065 203.593 347.336 203.93 348.601 204.272L348.862 203.307C350.14 203.653 351.411 204.005 352.676 204.363L352.404 205.325C353.679 205.686 354.949 206.053 356.212 206.427L356.495 205.468C357.762 205.842 359.022 206.223 360.276 206.61L359.981 207.565C361.245 207.955 362.503 208.352 363.753 208.754L364.06 207.802C365.324 208.209 366.581 208.622 367.831 209.041L367.513 209.989C368.759 210.407 369.999 210.831 371.231 211.261L371.56 210.317C372.818 210.756 374.068 211.201 375.31 211.653L374.969 212.593C376.211 213.044 377.445 213.502 378.671 213.965L379.025 213.03C380.26 213.497 381.488 213.971 382.707 214.45L382.342 215.381C383.577 215.867 384.805 216.359 386.025 216.858L386.403 215.932C387.627 216.432 388.842 216.939 390.049 217.452L389.658 218.372C390.876 218.89 392.085 219.414 393.285 219.944L393.689 219.029C394.904 219.566 396.111 220.109 397.308 220.658L396.891 221.567C398.084 222.115 399.268 222.669 400.443 223.229L400.873 222.326C402.079 222.901 403.275 223.483 404.461 224.07L404.017 224.966C405.198 225.552 406.37 226.144 407.532 226.742L407.989 225.853C409.169 226.46 410.339 227.074 411.498 227.695L411.026 228.577C412.194 229.202 413.351 229.833 414.497 230.471L414.983 229.597C416.136 230.239 417.277 230.887 418.408 231.541L417.907 232.406C419.058 233.073 420.198 233.745 421.326 234.425L421.842 233.568C422.975 234.25 424.097 234.939 425.206 235.635L424.675 236.482C425.798 237.185 426.908 237.895 428.005 238.612L428.552 237.774C429.664 238.5 430.763 239.233 431.85 239.972L431.287 240.799C432.377 241.54 433.454 242.288 434.517 243.042L435.096 242.227C436.183 242.998 437.256 243.776 438.315 244.56L437.72 245.364C438.775 246.145 439.815 246.933 440.842 247.727L441.454 246.936C442.511 247.754 443.554 248.579 444.581 249.411L443.952 250.188C444.974 251.015 445.98 251.849 446.971 252.689L447.618 251.926C448.636 252.789 449.637 253.659 450.623 254.535L449.958 255.283C450.942 256.158 451.91 257.039 452.861 257.928L453.543 257.197C454.516 258.106 455.472 259.021 456.41 259.944L455.709 260.657C456.649 261.581 457.571 262.512 458.475 263.45L459.195 262.756C460.118 263.713 461.022 264.677 461.907 265.647L461.168 266.321C462.057 267.296 462.926 268.277 463.776 269.264L464.534 268.612C465.4 269.619 466.247 270.633 467.072 271.653L466.295 272.282C467.125 273.307 467.933 274.339 468.72 275.377L469.517 274.772C470.32 275.83 471.1 276.895 471.859 277.966L471.043 278.544C471.804 279.619 472.543 280.7 473.258 281.788L474.094 281.238C474.824 282.347 475.53 283.463 476.213 284.585L475.358 285.105C476.042 286.228 476.701 287.358 477.335 288.494L478.208 288.006C478.856 289.165 479.478 290.331 480.075 291.503L479.184 291.957C479.779 293.126 480.349 294.301 480.892 295.482L481.801 295.064C482.356 296.27 482.884 297.482 483.384 298.7L482.459 299.08C482.957 300.291 483.427 301.507 483.87 302.73L484.81 302.389C485.261 303.636 485.684 304.889 486.079 306.148L485.124 306.447C485.515 307.693 485.877 308.946 486.209 310.203L487.176 309.947C487.515 311.227 487.824 312.513 488.103 313.803L487.125 314.015C487.401 315.29 487.647 316.571 487.862 317.857L488.848 317.692C489.067 318.994 489.254 320.301 489.411 321.613L488.418 321.732C488.573 323.025 488.697 324.324 488.79 325.627L489.788 325.556Z" stroke="url(#paint0_linear_506_1005)" stroke-width="2" stroke-dasharray="4 4"/>
<path fill-rule="evenodd" clip-rule="evenodd" d="M72.1472 378C167.806 433.228 322.899 433.228 418.557 378C469.487 348.596 493.301 309.465 490 270.964V141H306.277C266.351 135.105 224.353 135.105 184.428 141H0.999772V268.106C-3.75889 307.521 19.9569 347.868 72.1472 378Z" fill="url(#paint1_linear_506_1005)"/>
<ellipse cx="245" cy="141.5" rx="245" ry="141.5" fill="url(#paint2_linear_506_1005)"/>
<ellipse cx="245" cy="141.5" rx="235" ry="131.5" fill="url(#paint3_linear_506_1005)"/>
<path d="M449.5 153C449.5 184.495 426.738 213.111 389.712 233.881C352.702 254.643 301.54 267.5 245 267.5C188.46 267.5 137.298 254.643 100.288 233.881C63.2618 213.111 40.5 184.495 40.5 153C40.5 121.505 63.2618 92.8894 100.288 72.1188C137.298 51.3571 188.46 38.5 245 38.5C301.54 38.5 352.702 51.3571 389.712 72.1188C426.738 92.8894 449.5 121.505 449.5 153Z" stroke="url(#paint4_linear_506_1005)"/>
<path d="M409.5 175.439C409.5 200.737 391.215 223.743 361.428 240.453C331.657 257.154 290.494 267.5 245 267.5C199.506 267.5 158.343 257.154 128.572 240.453C98.7847 223.743 80.5 200.737 80.5 175.439C80.5 150.14 98.7847 127.134 128.572 110.424C158.343 93.7235 199.506 83.3779 245 83.3779C290.494 83.3779 331.657 93.7235 361.428 110.424C391.215 127.134 409.5 150.14 409.5 175.439Z" stroke="url(#paint5_linear_506_1005)"/>
<path d="M357.5 204.89C357.5 222.055 345.037 237.698 324.659 249.079C304.298 260.451 276.135 267.5 245 267.5C213.865 267.5 185.702 260.451 165.341 249.079C144.963 237.698 132.5 222.055 132.5 204.89C132.5 187.726 144.963 172.082 165.341 160.701C185.702 149.33 213.865 142.281 245 142.281C276.135 142.281 304.298 149.33 324.659 160.701C345.037 172.082 357.5 187.726 357.5 204.89Z" stroke="url(#paint6_linear_506_1005)"/>
<path d="M304.5 234.341C304.5 243.374 297.968 251.655 287.182 257.706C276.412 263.747 261.499 267.5 245 267.5C228.501 267.5 213.588 263.747 202.818 257.706C192.032 251.655 185.5 243.374 185.5 234.341C185.5 225.308 192.032 217.028 202.818 210.977C213.588 204.936 228.501 201.183 245 201.183C261.499 201.183 276.412 204.936 287.182 210.977C297.968 217.028 304.5 225.308 304.5 234.341Z" stroke="url(#paint7_linear_506_1005)"/>
<defs>
<linearGradient id="paint0_linear_506_1005" x1="490" y1="347.5" x2="-4.44637e-06" y2="358" gradientUnits="userSpaceOnUse">
<stop stop-color="#579BFF"/>
<stop offset="1" stop-color="#D3BEFF"/>
</linearGradient>
<linearGradient id="paint1_linear_506_1005" x1="-1.26216e-06" y1="278" x2="500" y2="272.5" gradientUnits="userSpaceOnUse">
<stop stop-color="#659CDD"/>
<stop offset="1" stop-color="#F3F4FA"/>
</linearGradient>
<linearGradient id="paint2_linear_506_1005" x1="47.9256" y1="66.6867" x2="523.238" y2="141.06" gradientUnits="userSpaceOnUse">
<stop stop-color="#C4C7FF"/>
<stop offset="1" stop-color="#4FC4F9"/>
</linearGradient>
<linearGradient id="paint3_linear_506_1005" x1="245" y1="10" x2="245" y2="273" gradientUnits="userSpaceOnUse">
<stop stop-color="#242E51"/>
<stop offset="1" stop-color="#050B19"/>
</linearGradient>
<linearGradient id="paint4_linear_506_1005" x1="245" y1="38" x2="245" y2="268" gradientUnits="userSpaceOnUse">
<stop stop-color="#D5A7FF"/>
<stop offset="1" stop-color="#4DBDF3" stop-opacity="0"/>
</linearGradient>
<linearGradient id="paint5_linear_506_1005" x1="245" y1="82.8779" x2="245" y2="268" gradientUnits="userSpaceOnUse">
<stop stop-color="#D5A7FF"/>
<stop offset="1" stop-color="#4DBDF3" stop-opacity="0"/>
</linearGradient>
<linearGradient id="paint6_linear_506_1005" x1="245" y1="141.781" x2="245" y2="268" gradientUnits="userSpaceOnUse">
<stop stop-color="#D5A7FF"/>
<stop offset="1" stop-color="#4DBDF3" stop-opacity="0"/>
</linearGradient>
<linearGradient id="paint7_linear_506_1005" x1="245" y1="200.683" x2="245" y2="268" gradientUnits="userSpaceOnUse">
<stop stop-color="#D5A7FF"/>
<stop offset="1" stop-color="#4DBDF3" stop-opacity="0"/>
</linearGradient>
</defs>
</svg>
