<svg width="54" height="22" viewBox="0 0 54 22" fill="none" xmlns="http://www.w3.org/2000/svg">
<g clip-path="url(#clip0_14_21)">
<mask id="mask0_14_21" style="mask-type:luminance" maskUnits="userSpaceOnUse" x="0" y="0" width="54" height="22">
<path d="M53.35 0H0V22H53.35V0Z" fill="white"/>
</mask>
<g mask="url(#mask0_14_21)">
<path fill-rule="evenodd" clip-rule="evenodd" d="M10.2598 14.8801V21.8872H11.6277V13.4966L15.265 19.7966C15.6767 19.5953 16.0722 19.3661 16.4491 19.1116L12.4671 12.2146L16.8526 13.8108C17.0504 13.4038 17.2074 12.9732 17.3183 12.5245L14.8539 11.6276H21.8872V10.2596H13.496L19.7965 6.622C19.5952 6.21038 19.366 5.81488 19.1114 5.43796L12.2558 9.39609L13.8383 5.04823C13.4322 4.84845 13.0023 4.6894 12.5542 4.57641L11.6277 7.12206V0H10.2598V8.39135L6.622 2.09056C6.21038 2.29186 5.81488 2.52103 5.43794 2.7756L9.40324 9.6437L5.0444 8.05723C4.84519 8.46362 4.68673 8.89361 4.57436 9.34186L7.09583 10.2596H5.97944e-08L0 11.6276H8.39075L2.09045 15.265C2.29175 15.6767 2.52091 16.0722 2.77548 16.4491L9.6849 12.46L8.08473 16.8563C8.492 17.0536 8.92271 17.2101 9.37156 17.3203L10.2598 14.8801Z" fill="#889096"/>
<path d="M31.5722 6.83974H25.3344V8.20769H31.5722V6.83974Z" fill="#889096"/>
<path d="M53.1858 6.83974H46.948V8.20769H53.1858V6.83974Z" fill="#889096"/>
<path d="M38.3571 3.6661H36.8798V15.0474H38.3571V3.6661Z" fill="#889096"/>
<path d="M35.0742 6.83974H33.5968V15.0474H35.0742V6.83974Z" fill="#889096"/>
<path d="M35.0742 5.14349H33.5968V3.6661H35.0742V5.14349Z" fill="#889096"/>
<path d="M31.7365 13.6795H25.1703V15.0474H31.7365V13.6795Z" fill="#889096"/>
<path d="M25.1703 13.6795L29.8219 8.2077H31.5723L26.9207 13.6795H25.1703Z" fill="#889096"/>
<path d="M46.7838 13.6795L51.4354 8.2077H53.1858L48.5342 13.6795H46.7838Z" fill="#889096"/>
<path d="M41.6402 3.6661H40.1628V15.0474H41.6402V3.6661Z" fill="#889096"/>
<path d="M53.35 13.6795H46.7838V15.0474H53.35V13.6795Z" fill="#889096"/>
<path d="M44.9234 6.83974H43.446V15.0474H44.9234V6.83974Z" fill="#889096"/>
<path d="M44.9234 5.14349H43.446V3.6661H44.9234V5.14349Z" fill="#889096"/>
</g>
</g>
<defs>
<clipPath id="clip0_14_21">
<rect width="53.35" height="22" fill="white"/>
</clipPath>
</defs>
</svg>
