<svg width="50" height="50" viewBox="0 0 50 50" fill="none" xmlns="http://www.w3.org/2000/svg">
<rect width="50" height="50" fill="white"/>
<path fill-rule="evenodd" clip-rule="evenodd" d="M9.44444 45H40.5556C43.0102 45 45 43.0102 45 40.5556V9.44444C45 6.98985 43.0102 5 40.5556 5H9.44444C6.98985 5 5 6.98985 5 9.44444V40.5556C5 43.0102 6.98985 45 9.44444 45Z" fill="#0A66C2"/>
<path fill-rule="evenodd" clip-rule="evenodd" d="M39.4444 39.4445H33.5087V29.3346C33.5087 26.5627 32.4554 25.0137 30.2615 25.0137C27.8748 25.0137 26.6278 26.6257 26.6278 29.3346V39.4445H20.9074V20.1852H26.6278V22.7795C26.6278 22.7795 28.3478 19.5968 32.4347 19.5968C36.5198 19.5968 39.4444 22.0914 39.4444 27.2507V39.4445ZM14.083 17.6634C12.1345 17.6634 10.5555 16.0721 10.5555 14.1095C10.5555 12.1469 12.1345 10.5556 14.083 10.5556C16.0315 10.5556 17.6094 12.1469 17.6094 14.1095C17.6094 16.0721 16.0315 17.6634 14.083 17.6634ZM11.1292 39.4445H17.0941V20.1852H11.1292V39.4445Z" fill="white"/>
</svg>
