<svg width="50" height="50" viewBox="0 0 50 50" fill="none" xmlns="http://www.w3.org/2000/svg">
<g clip-path="url(#clip0_336_525)">
<rect width="50" height="50" fill="white"/>
<path d="M40.9714 31.8579C40.9714 31.3275 41.1821 30.8188 41.5572 30.4437L46.5857 25.4152C47.3668 24.6342 47.3668 23.3678 46.5857 22.5868L41.5572 17.5583C41.1821 17.1833 40.9714 16.6745 40.9714 16.1441V9.02944C40.9714 7.92487 40.076 7.02945 38.9714 7.02945H31.8576C31.3271 7.02945 30.8184 6.8187 30.4433 6.44357L25.4148 1.41448C24.6337 0.63331 23.3673 0.633309 22.5862 1.41447L17.5577 6.44358C17.1826 6.8187 16.6739 7.02945 16.1434 7.02945H9.02861C7.92404 7.02945 7.0286 7.92488 7.0286 9.02945V16.1423C7.0286 16.6726 6.81796 17.1813 6.443 17.5563L1.41386 22.5868C0.632978 23.3679 0.633068 24.6341 1.41406 25.415L6.4428 30.4437C6.81789 30.8188 7.0286 31.3275 7.0286 31.8579V38.9706C7.0286 40.0751 7.92404 40.9706 9.02861 40.9706H16.1415C16.6719 40.9706 17.1806 41.1813 17.5557 41.5563L22.5853 46.5858C23.3663 47.3669 24.6326 47.3669 25.4137 46.5858L30.4433 41.5563C30.8184 41.1813 31.3271 40.9706 31.8575 40.9706H38.9714C40.076 40.9706 40.9714 40.0751 40.9714 38.9706V31.8579Z" fill="#00B3FF"/>
<path d="M25.5879 24.3506C29.5386 24.3507 32.9788 28.2262 32.998 32.5303C33.0038 33.2379 32.2019 33.7651 31.5303 33.8008H15.9902C15.3073 33.8007 15 33.256 15 32.5303C15 28.2117 17.9717 24.3506 21.9336 24.3506H25.5879ZM32.999 32.5664C32.999 32.5544 32.9981 32.5423 32.998 32.5303C32.9979 32.5183 32.9996 32.5062 32.999 32.4941V32.5664ZM23.7754 14C26.3848 14.0002 28.5 16.1161 28.5 18.7256C28.4999 21.3349 26.3847 23.45 23.7754 23.4502C21.1659 23.4502 19.0499 21.335 19.0498 18.7256C19.0498 16.116 21.1658 14 23.7754 14Z" fill="url(#paint0_linear_336_525)"/>
<path d="M25.5879 24.3506L25.5879 23.8506H25.5879V24.3506ZM31.5303 33.8008V34.3008H31.5435L31.5568 34.3001L31.5303 33.8008ZM15.9902 33.8008L15.9901 34.3008H15.9902V33.8008ZM15 32.5303L14.5 32.5303V32.5303H15ZM32.999 32.5664L32.499 32.5664L33.499 32.5664H32.999ZM32.999 32.4941L33.4985 32.4707L32.499 32.4941H32.999ZM23.7754 14L23.7754 13.5H23.7754V14ZM28.5 18.7256L29 18.7256V18.7256H28.5ZM23.7754 23.4502V23.9502H23.7754L23.7754 23.4502ZM19.0498 18.7256H18.5498V18.7256L19.0498 18.7256ZM25.5879 24.3506L25.5879 24.8506C29.2132 24.8507 32.4798 28.4508 32.4981 32.5325L32.998 32.5303L33.498 32.528C33.4778 28.0017 29.8639 23.8507 25.5879 23.8506L25.5879 24.3506ZM32.998 32.5303L32.4981 32.5344C32.4993 32.6859 32.4142 32.8621 32.2078 33.0256C32.0013 33.1891 31.7311 33.2894 31.5037 33.3015L31.5303 33.8008L31.5568 34.3001C32.0011 34.2765 32.4677 34.0954 32.8287 33.8095C33.1897 33.5235 33.5026 33.0823 33.498 32.5262L32.998 32.5303ZM31.5303 33.8008V33.3008H15.9902V33.8008V34.3008H31.5303V33.8008ZM15.9902 33.8008L15.9903 33.3008C15.8015 33.3007 15.7091 33.2355 15.6458 33.1469C15.5657 33.0348 15.5 32.8331 15.5 32.5303H15H14.5C14.5 32.9532 14.588 33.3867 14.8323 33.7284C15.0933 34.0936 15.4961 34.3007 15.9901 34.3008L15.9902 33.8008ZM15 32.5303L15.5 32.5303C15.5 28.3921 18.3348 24.8506 21.9336 24.8506V24.3506V23.8506C17.6087 23.8506 14.5 28.0313 14.5 32.5303L15 32.5303ZM21.9336 24.3506V24.8506H25.5879V24.3506V23.8506H21.9336V24.3506ZM32.999 32.5664L33.499 32.5664C33.499 32.5491 33.4984 32.5336 33.4982 32.5286C33.498 32.525 33.498 32.5242 33.498 32.5237C33.498 32.5235 33.498 32.5252 33.498 32.528L32.998 32.5303L32.4981 32.5325C32.4981 32.5414 32.4983 32.5491 32.4985 32.5549C32.4986 32.5604 32.4988 32.5656 32.4989 32.568C32.499 32.5695 32.499 32.5704 32.4991 32.5711C32.4991 32.5718 32.4991 32.572 32.4991 32.5719C32.4991 32.5717 32.499 32.5697 32.499 32.5664L32.999 32.5664ZM32.998 32.5303L33.498 32.5262C33.4981 32.5349 33.4978 32.5413 33.4978 32.5431C33.4977 32.5436 33.4976 32.5457 33.498 32.5394C33.4982 32.5353 33.4987 32.5261 33.499 32.5152C33.4992 32.504 33.4993 32.4887 33.4985 32.4707L32.999 32.4941L32.4996 32.5176C32.499 32.5057 32.4991 32.4964 32.4992 32.4912C32.4994 32.4863 32.4996 32.4832 32.4994 32.4851C32.4994 32.4855 32.4994 32.486 32.4994 32.4868C32.4993 32.4875 32.4993 32.4886 32.4992 32.4897C32.4991 32.492 32.4989 32.4955 32.4987 32.4994C32.4984 32.5073 32.4979 32.5196 32.4981 32.5344L32.998 32.5303ZM32.999 32.4941H32.499V32.5664H32.999H33.499V32.4941H32.999ZM23.7754 14L23.7754 14.5C26.1086 14.5001 28 16.3922 28 18.7256H28.5H29C29 15.8401 26.6611 13.5002 23.7754 13.5L23.7754 14ZM28.5 18.7256L28 18.7256C27.9999 21.0588 26.1086 22.9501 23.7754 22.9502L23.7754 23.4502L23.7754 23.9502C26.6609 23.95 28.9999 21.6111 29 18.7256L28.5 18.7256ZM23.7754 23.4502V22.9502C21.4419 22.9502 19.5499 21.0588 19.5498 18.7256L19.0498 18.7256L18.5498 18.7256C18.55 21.6113 20.8899 23.9502 23.7754 23.9502V23.4502ZM19.0498 18.7256H19.5498C19.5498 16.3922 21.442 14.5 23.7754 14.5V14V13.5C20.8897 13.5 18.5498 15.8399 18.5498 18.7256H19.0498Z" fill="#00B3FF" fill-opacity="0.5"/>
<path d="M37.9678 0.782227C38.8098 0.789943 39.4515 1.26227 39.7764 1.9209L39.8379 2.05469V2.05566L40.2568 3.07129C40.3955 3.40313 40.5356 3.72906 40.6816 4.05273H40.6807C41.0089 4.77987 41.5368 5.3819 42.2461 5.91211L42.4248 6.03711C42.8481 6.31462 43.3332 6.51004 43.9932 6.80664L45.0293 7.27148L45.1543 7.33203C45.4414 7.48414 45.7058 7.70621 45.9023 8.00977C46.1272 8.35701 46.2178 8.74117 46.2178 9.1084C46.2177 9.47251 46.1292 9.85624 45.9053 10.2041C45.6813 10.5519 45.3674 10.7911 45.0322 10.9434L45.0332 10.9443C44.4151 11.2253 43.8649 11.4557 43.3271 11.708L42.791 11.9707C41.81 12.4742 41.0872 13.233 40.5898 14.2471L40.4941 14.4531C40.3034 14.881 40.0205 15.5428 39.8145 16.002L39.8135 16.001C39.6123 16.4493 39.2612 16.8493 38.7627 17.0635C38.2554 17.2814 37.7046 17.259 37.2197 17.0508V17.0518C36.6617 16.8122 36.3712 16.3632 36.2256 16.0732L36.124 15.8506V15.8496C35.7643 15.0273 35.5508 14.4144 35.2207 13.8486L35.0713 13.6084C34.8013 13.2018 34.4905 12.8463 34.1299 12.541L33.9717 12.4141C33.4657 12.0215 32.8811 11.7846 32.0742 11.4297V11.4287C31.7114 11.2694 31.3536 11.1131 30.9941 10.9561L30.9951 10.9551C30.6549 10.807 30.3377 10.5703 30.1094 10.2256C29.9097 9.92394 29.8135 9.59408 29.7891 9.27344L29.7832 9.13672C29.7779 8.76537 29.8635 8.37356 30.0898 8.01855C30.3167 7.66312 30.6374 7.41757 30.9814 7.26465L32.0254 6.80762C32.3628 6.66006 32.6937 6.51395 33.0293 6.35645L33.3623 6.18555C34.1165 5.7652 34.7014 5.18993 35.1094 4.44629L35.3184 4.03516C35.5139 3.62138 35.6821 3.18675 35.9219 2.64551L36.0498 2.33594C36.096 2.22075 36.1521 2.08009 36.2168 1.9375L36.2832 1.80469C36.6299 1.16268 37.2446 0.825744 37.8789 0.785156L37.9229 0.782227H37.9678Z" fill="#00B3FF" stroke="white" stroke-width="2.43478"/>
</g>
<defs>
<linearGradient id="paint0_linear_336_525" x1="23.9996" y1="14" x2="23.9996" y2="33.8008" gradientUnits="userSpaceOnUse">
<stop stop-color="white"/>
<stop offset="1" stop-color="#ADE6FF"/>
</linearGradient>
<clipPath id="clip0_336_525">
<rect width="50" height="50" fill="white"/>
</clipPath>
</defs>
</svg>
