<svg width="50" height="50" viewBox="0 0 50 50" fill="none" xmlns="http://www.w3.org/2000/svg">
<rect width="50" height="50" fill="white"/>
<path d="M47.0381 14.0286C46.5081 12.0482 44.9516 10.4919 42.9713 9.9618C39.3855 9 24.9999 9 24.9999 9C24.9999 9 10.6146 9 7.02863 9.9618C5.04824 10.4919 3.49193 12.0482 2.9618 14.0286C2 17.6146 2 25.1007 2 25.1007C2 25.1007 2 32.587 2.9618 36.1729C3.49193 38.1533 5.04824 39.7096 7.02863 40.2396C10.6146 41.2015 24.9999 41.2015 24.9999 41.2015C24.9999 41.2015 39.3855 41.2015 42.9713 40.2396C44.9516 39.7096 46.5081 38.1533 47.0381 36.1729C48 32.587 48 25.1007 48 25.1007C48 25.1007 47.9961 17.6146 47.0381 14.0286Z" fill="#FF0000"/>
<path d="M20.3956 32.0006L32.3462 25.1014L20.3956 18.2021V32.0006Z" fill="white"/>
</svg>
