<svg height="516" viewBox="0 0 1440 516" width="1440" xmlns="http://www.w3.org/2000/svg" xmlns:xlink="http://www.w3.org/1999/xlink"><defs><path id="a" d="m0 0h1440v420l-724 96-716-96z"/><mask id="b" fill="#fff"><use fill="#fff" fill-rule="evenodd" xlink:href="#a"/></mask></defs><g fill="none" fill-rule="evenodd"><use fill="#49aee8" xlink:href="#a"/><g mask="url(#b)" opacity=".3" stroke="#fff"><g fill-rule="evenodd" transform="translate(436.180688 -209.312961)"><path d="m745 533.907584 327.3576 189v377.999996l-327.3576 189-327.357603-189v-377.999996z" transform="matrix(.8660254 -.5 .5 .8660254 -356.142718 494.67245)"/><path d="m727.5 503.596695 327.3576 189v377.999995l-327.3576 189-327.357603-189v-377.999995z" transform="matrix(.8660254 -.5 .5 .8660254 -343.331829 481.861561)"/><path d="m710 473.285806 327.3576 189v378.000004l-327.3576 189-327.357603-189v-378.000004z" transform="matrix(.8660254 -.5 .5 .8660254 -330.52094 469.050672)"/><path d="m692.5 442.974917 327.3576 189v378.000003l-327.3576 189-327.357603-189v-378.000003z" transform="matrix(.8660254 -.5 .5 .8660254 -317.710051 456.239783)"/><path d="m675 412.664028 327.3576 189v378l-327.3576 189.000002-327.357603-189.000002v-378z" transform="matrix(.8660254 -.5 .5 .8660254 -304.899162 443.428894)"/><path d="m657.25 382.420126 327.357603 188.75v377.5l-327.357603 188.750004-327.357603-188.750004v-377.5z" transform="matrix(.8660254 -.5 .5 .8660254 -291.90526 430.434992)"/><path d="m639.75 352.109237 327.357603 188.75v377.5l-327.357603 188.750003-327.357603-188.750003v-377.5z" transform="matrix(.8660254 -.5 .5 .8660254 -279.094371 417.624103)"/><path d="m622.25 321.798347 327.357603 188.75v377.5l-327.357603 188.750003-327.357603-188.750003v-377.5z" transform="matrix(.8660254 -.5 .5 .8660254 -266.283481 404.813214)"/><path d="m604.75 291.487458 327.357603 188.75v377.5l-327.357603 188.750002-327.357603-188.750002v-377.5z" transform="matrix(.8660254 -.5 .5 .8660254 -253.472592 392.002325)"/><path d="m587 260.243557 327.357603 189v378l-327.357603 189.000003-327.357603-189.000003v-378z" transform="matrix(.8660254 -.5 .5 .8660254 -240.478691 379.008423)"/><path d="m569.5 229.932667 327.357603 189v378l-327.357603 189-327.357603-189v-378z" transform="matrix(.8660254 -.5 .5 .8660254 -227.667801 366.197534)"/><path d="m552 199.621778 327.357603 189v378l-327.357603 189-327.357603-189v-378z" transform="matrix(.8660254 -.5 .5 .8660254 -214.856912 353.386644)"/><path d="m534.5 169.310889 327.357603 189v378l-327.357603 189-327.357603-189v-378z" transform="matrix(.8660254 -.5 .5 .8660254 -202.046023 340.575755)"/><path d="m517 139 327.357603 189v378l-327.357603 189-327.357603-189v-378z" transform="matrix(.8660254 -.5 .5 .8660254 -189.235134 327.764866)"/></g><path d="m406-14.0924159 327.357603 188.9999999v378l-327.357603 189-327.3576026-189v-378z" transform="matrix(.8660254 -.5 .5 .8660254 55.439894 248.754372)"/><path d="m388.5-44.403305 327.357603 189v378l-327.357603 189-327.3576026-189v-378z" transform="matrix(.8660254 -.5 .5 .8660254 68.250783 235.943483)"/><path d="m371-74.7141941 327.357603 189.0000001v378l-327.357603 189-327.3576026-189v-378z" transform="matrix(.8660254 -.5 .5 .8660254 81.061672 223.132593)"/><path d="m353.5-105.025083 327.357603 188.9999997v378.0000003l-327.357603 189-327.3576026-189v-378.0000003z" transform="matrix(.8660254 -.5 .5 .8660254 93.872561 210.321704)"/></g></g></svg>