<?xml version="1.0" encoding="UTF-8"?>
<svg width="1440px" height="576px" viewBox="0 0 1440 576" version="1.1" xmlns="http://www.w3.org/2000/svg" xmlns:xlink="http://www.w3.org/1999/xlink">
    <!-- Generator: Sketch 62 (91390) - https://sketch.com -->
    <title>hero/home</title>
    <desc>Created with Sketch.</desc>
    <defs>
        <polygon id="path-1" points="3.99680289e-14 0 1440 0 1440 480 716 576 3.99680289e-14 480"></polygon>
        <linearGradient x1="50%" y1="50%" x2="37.5%" y2="100%" id="linearGradient-3">
            <stop stop-color="#FFFFFF" offset="0%"></stop>
            <stop stop-color="#FFFFFF" stop-opacity="0" offset="100%"></stop>
        </linearGradient>
        <linearGradient x1="50%" y1="50%" x2="0%" y2="52.4333218%" id="linearGradient-4">
            <stop stop-color="#FFFFFF" offset="0%"></stop>
            <stop stop-color="#FFFFFF" stop-opacity="0" offset="100%"></stop>
        </linearGradient>
        <linearGradient x1="50%" y1="50%" x2="49.9991319%" y2="100%" id="linearGradient-5">
            <stop stop-color="#FFFFFF" offset="0%"></stop>
            <stop stop-color="#FFFFFF" stop-opacity="0" offset="100%"></stop>
        </linearGradient>
    </defs>
    <g id="light" stroke="none" stroke-width="1" fill="none" fill-rule="evenodd">
        <g id="Home" transform="translate(0.000000, -60.000000)">
            <g id="hero/home" transform="translate(0.000000, 60.000000)">
                <mask id="mask-2" fill="white">
                    <use xlink:href="#path-1"></use>
                </mask>
                <use id="Mask" fill="#49AEE8" xlink:href="#path-1"></use>
                <g mask="url(#mask-2)">
                    <g transform="translate(-234.000000, -30.000000)">
                        <line x1="249.1" y1="622.75" x2="566.542105" y2="-13.25" id="Line-3" stroke="url(#linearGradient-3)" stroke-width="2" fill="none" stroke-linecap="square"></line>
                        <line x1="722.605495" y1="514.943182" x2="809.094505" y2="335.706818" id="Line-3" stroke="#FFFFFF" stroke-width="2" fill="none" opacity="0.403018043" stroke-linecap="square" stroke-dasharray="2,8"></line>
                        <line x1="755.735045" y1="377.144248" x2="809.089955" y2="269.455752" id="Line-3" stroke="#FFFFFF" stroke-width="2" fill="none" opacity="0.403018043" stroke-linecap="square" stroke-dasharray="2,8"></line>
                        <line x1="415.203472" y1="448.694007" x2="448.696528" y2="379.430993" id="Line-3" stroke="#FFFFFF" stroke-width="2" fill="none" opacity="0.403018043" stroke-linecap="square" stroke-dasharray="2,8"></line>
                        <line x1="0" y1="361.725" x2="1182.66711" y2="622.75" id="Line-2" stroke="url(#linearGradient-4)" stroke-width="2" fill="none" stroke-linecap="square"></line>
                        <line x1="435.925" y1="251.75" x2="808.25" y2="335.225" id="Line-2" stroke="#FFFFFF" stroke-width="2" fill="none" opacity="0.403018043" stroke-linecap="square" stroke-dasharray="2,8"></line>
                        <line x1="378.95" y1="361.725" x2="755.25" y2="445.2" id="Line-2" stroke="#FFFFFF" stroke-width="2" fill="none" opacity="0.403018043" stroke-linecap="square" stroke-dasharray="2,8"></line>
                        <line x1="449.175" y1="316.675" x2="755.25" y2="376.3" id="Line-2" stroke="#FFFFFF" stroke-width="2" fill="none" opacity="0.403018043" stroke-linecap="square" stroke-dasharray="2,8"></line>
                        <line x1="341.85" y1="-13.25" x2="341.292105" y2="622.75" id="Line" stroke="url(#linearGradient-5)" stroke-width="2" fill="none" stroke-linecap="square"></line>
                        <line x1="449.83755" y1="376.305781" x2="450.50005" y2="318.005781" id="Path-2" stroke="#FFFFFF" stroke-width="2" fill="none" opacity="0.403018043" stroke-linecap="square" stroke-dasharray="2,8" transform="translate(450.168800, 347.155781) rotate(-1.000000) translate(-450.168800, -347.155781) "></line>
                        <line x1="755.9125" y1="447.85" x2="755.9125" y2="378.95" id="Path-2" stroke="#FFFFFF" stroke-width="2" fill="none" opacity="0.403018043" stroke-linecap="square" stroke-dasharray="2,8"></line>
                        <line x1="449.175" y1="318" x2="808.25" y2="268.975" id="Path-4" stroke="#FFFFFF" stroke-width="2" fill="none" opacity="0.403018043" stroke-linecap="square" stroke-dasharray="2,8"></line>
                        <line x1="449.175" y1="376.3" x2="809.575" y2="335.225" id="Path-4" stroke="#FFFFFF" stroke-width="2" fill="none" opacity="0.8" stroke-linecap="square" stroke-dasharray="2,8"></line>
                        <line x1="808.9125" y1="70.7049028" x2="808.25" y2="335.225" id="Line-4" stroke="#FFFFFF" stroke-width="2" fill="none" opacity="0.8" stroke-linecap="square" stroke-dasharray="2,8"></line>
                        <line x1="340.525" y1="332.575" x2="446.525" y2="315.35" id="Path-4" stroke="#FFFFFF" stroke-width="2" fill="none" opacity="0.403018043" stroke-linecap="square" stroke-dasharray="2,8"></line>
                        <line x1="341.85" y1="143.1" x2="809.575" y2="63.6" id="Path-4" stroke="#FFFFFF" stroke-width="2" fill="none" opacity="0.403018043" stroke-linecap="square" stroke-dasharray="2,8"></line>
                        <text id="q'''" stroke="none" fill="none" font-family="AGaramondPro-Italic, Adobe Garamond Pro" font-size="20" font-style="italic" font-weight="normal">
                            <tspan x="305.785" y="141.6375" fill="#FFFFFF">q'''</tspan>
                        </text>
                        <text id="p'''" stroke="none" fill="none" font-family="AGaramondPro-Italic, Adobe Garamond Pro" font-size="20" font-style="italic" font-weight="normal">
                            <tspan x="305.955" y="336.4125" fill="#FFFFFF">p'''</tspan>
                        </text>
                        <text id="q" stroke="none" fill="none" font-family="AGaramondPro-Italic, Adobe Garamond Pro" font-size="20" font-style="italic" font-weight="normal">
                            <tspan x="828.775" y="62.1375" fill="#FFFFFF">q</tspan>
                        </text>
                        <text id="p" stroke="none" fill="none" font-family="AGaramondPro-Italic, Adobe Garamond Pro" font-size="20" font-style="italic" font-weight="normal">
                            <tspan x="428.1325" y="303.2875" fill="#FFFFFF">p</tspan>
                        </text>
                        <text id="p'" stroke="none" fill="none" font-family="AGaramondPro-Italic, Adobe Garamond Pro" font-size="20" font-style="italic" font-weight="normal">
                            <tspan x="395.5775" y="475.5375" fill="#FFFFFF">p'</tspan>
                        </text>
                        <text id="p''" stroke="none" fill="none" font-family="AGaramondPro-Italic, Adobe Garamond Pro" font-size="20" font-style="italic" font-weight="normal">
                            <tspan x="353.085" y="360.2625" fill="#FFFFFF">p''</tspan>
                        </text>
                        <text id="q''" stroke="none" fill="none" font-family="AGaramondPro-Italic, Adobe Garamond Pro" font-size="20" font-style="italic" font-weight="normal">
                            <tspan x="407.24" y="255.5875" fill="#FFFFFF">q''</tspan>
                        </text>
                        <text id="q'" stroke="none" fill="none" font-family="AGaramondPro-Italic, Adobe Garamond Pro" font-size="20" font-style="italic" font-weight="normal">
                            <tspan x="703.47" y="544.4375" fill="#FFFFFF">q'</tspan>
                        </text>
                        <path id="Path-3" d="M805.657591,59.9217648 C807.689024,58.4900167 810.496487,58.9761575 811.928235,61.0075907 C813.359983,63.0390239 812.873842,65.8464871 810.842409,67.2782352 C808.9492,68.6125637 806.381973,68.2811195 804.882453,66.5854996 L453.119189,314.507753 C454.2116,316.490041 453.660494,319.018994 451.767409,320.353235 C449.735976,321.784983 446.928513,321.298842 445.496765,319.267409 C444.065017,317.235976 444.551158,314.428513 446.582591,312.996765 C448.4758,311.662436 451.043027,311.993881 452.542547,313.6895 L804.305811,65.7672466 C803.2134,63.7849595 803.764506,61.2560056 805.657591,59.9217648 Z" stroke="none" fill="#FFFFFF" fill-rule="nonzero"></path>
                        <g id="euclidean" stroke="none" fill="none" transform="translate(579.555000, 196.100000) rotate(-36.000000) translate(-579.555000, -196.100000) translate(486.275000, 169.600000)" fill-rule="evenodd" stroke-width="1">
                            <g id="Group" fill="#96DBFB">
                                <g transform="translate(93.280000, 26.500000) scale(-1, 1) rotate(-180.000000) translate(-93.280000, -26.500000) translate(0.000000, 0.000000)" fill-rule="nonzero">
                                    <g id="E152-MJMATHI-64-link" transform="translate(0.000000, 23.386146)">
                                        <path d="M5.88422839,12.1854128 C5.89600863,12.1854128 6.32009716,12.2147188 7.15649399,12.2733307 C7.99289082,12.3319426 8.42286947,12.3671097 8.44642995,12.3788321 C8.58779279,12.3788321 8.65847421,12.3319426 8.65847421,12.2381635 C8.65847421,12.1561069 8.22849556,10.3860277 7.36853826,6.92792591 C6.50858096,3.46982415 6.06682207,1.70560613 6.04326159,1.63527185 C6.01970112,1.56493758 6.013811,1.47701974 6.02559124,1.37151833 C6.02559124,0.879178416 6.19051456,0.633008459 6.52036119,0.633008459 C6.62638333,0.644730838 6.7441857,0.697481543 6.87376831,0.791260574 C7.12115328,1.02570815 7.36264814,1.58838234 7.59825288,2.47928313 C7.6689343,2.71373071 7.72783549,2.83681569 7.77495644,2.84853807 C7.79851691,2.86026045 7.8574181,2.86612163 7.95165999,2.86612163 L8.02234142,2.86612163 L8.09302284,2.86612163 C8.26972639,2.86612163 8.35807817,2.81923212 8.35807817,2.72545309 C8.35807817,2.66684119 8.34040781,2.57306216 8.3050671,2.444116 C8.15192402,1.85799705 7.97522047,1.38324071 7.77495644,1.01984696 C7.57469241,0.656453217 7.40976909,0.422005639 7.28018648,0.31650423 C7.15060388,0.21100282 6.98568056,0.117223789 6.78541653,0.0351671366 C6.69117463,0.0117223789 6.54981179,0 6.36132799,0 C5.96079994,0 5.62506318,0.0879178416 5.35411773,0.263753525 C5.08317228,0.439589208 4.90646872,0.62128608 4.82400706,0.808844142 L4.71798493,1.07259767 C4.70620469,1.08432005 4.68264422,1.07845886 4.64730351,1.0550141 C4.62374303,1.03156934 4.60018256,1.00812458 4.57662208,0.984679825 C3.8815881,0.328226608 3.17477388,0 2.45617942,0 C1.80826638,0 1.23692489,0.234447577 0.742154933,0.703342732 C0.247384978,1.17223789 0,1.91660895 0,2.93645591 C0,3.49913009 0.11780237,4.07352666 0.353407111,4.6596456 C0.589011851,5.24576455 0.87173754,5.74982684 1.20158418,6.17183248 C1.75525532,6.84000807 2.30892646,7.30304204 2.8625976,7.56093437 C3.41626874,7.81882671 3.91692881,7.94777288 4.36457782,7.94777288 C5.02427109,7.94777288 5.51904105,7.70160292 5.84888768,7.20926301 C5.90778887,7.13892873 5.93723946,7.11548398 5.93723946,7.13892873 C5.9490197,7.18581825 6.1080529,7.8246879 6.41433906,9.05553768 C6.72062522,10.2863875 6.88554854,10.9369795 6.90910902,11.0073138 C6.90910902,11.1597047 6.86787819,11.2534837 6.78541653,11.2886509 C6.70295487,11.323818 6.47324025,11.3531239 6.09627266,11.3765687 L5.72519519,11.3765687 C5.65451377,11.446903 5.61917306,11.4937925 5.61917306,11.5172372 C5.61917306,11.540682 5.6309533,11.6520446 5.65451377,11.851325 C5.71341496,12.0740502 5.7899865,12.1854128 5.88422839,12.1854128 Z M5.63684342,5.90807895 C5.36589797,6.83414688 4.92413908,7.29718085 4.31156675,7.29718085 C3.89925846,7.29718085 3.50462052,7.11548398 3.12765293,6.75209023 C2.75068535,6.38869649 2.45617942,5.91394014 2.24413515,5.3278212 C1.90250828,4.40175327 1.66101342,3.4405182 1.51965058,2.444116 C1.51965058,2.40894886 1.51965058,2.34447577 1.51965058,2.25069674 C1.51965058,2.15691771 1.51376046,2.08658344 1.50198022,2.03969392 C1.50198022,1.51218687 1.60800235,1.14879313 1.82004662,0.949512689 C2.03209089,0.750232248 2.28536598,0.644730838 2.57987191,0.633008459 C3.21600471,0.633008459 3.86980786,1.0550141 4.54128137,1.89902538 L4.68264422,2.09244463 L5.63684342,5.90807895 Z" id="E152-MJMATHI-64"></path>
                                    </g>
                                    <g id="E152-MJMAIN-28-link" transform="translate(10.319488, 19.166089)">
                                        <path d="M0,8.79178416 C0,9.6006283 0.0589011851,10.3684441 0.176703555,11.0952316 C0.294505926,11.8220191 0.429978651,12.4491664 0.583121733,12.9766734 C0.736264814,13.5041805 0.954199199,14.0199651 1.23692489,14.5240274 C1.51965058,15.0280897 1.74347508,15.4207894 1.9083984,15.7021265 C2.07332172,15.9834636 2.32070669,16.2882454 2.65055333,16.6164721 C2.98039997,16.9446987 3.17477388,17.1439791 3.23367506,17.2143134 C3.29257625,17.2846476 3.43982921,17.4077326 3.67543395,17.5835683 L3.90514857,17.5835683 L3.97583,17.5835683 C4.14075331,17.5835683 4.22321497,17.5308176 4.22321497,17.4253162 C4.22321497,17.3901491 4.12308296,17.2670641 3.92281893,17.0560613 C3.7225549,16.8450584 3.48106004,16.5344154 3.19833435,16.1241321 C2.91560866,15.7138489 2.62699286,15.2097866 2.33248693,14.6119453 C2.03798101,14.0141039 1.79059603,13.2052598 1.590332,12.1854128 C1.39006797,11.1655659 1.28993595,10.0343563 1.28993595,8.79178416 C1.28993595,7.54921199 1.39006797,6.42386362 1.590332,5.41573904 C1.79059603,4.40761446 2.03209089,3.59290912 2.31481658,2.97162304 C2.59754226,2.35033696 2.88615807,1.84627467 3.180664,1.45943617 C3.47516992,1.07259767 3.7225549,0.761954627 3.92281893,0.527507049 C4.12308296,0.293059472 4.22321497,0.169974494 4.22321497,0.158252115 C4.22321497,0.0527507049 4.1348632,0 3.95815964,0 L3.90514857,0 L3.67543395,0 L3.180664,0.422005639 C2.07332172,1.41840784 1.26637548,2.66098 0.759825288,4.14972212 C0.253275096,5.63846424 0,7.18581825 0,8.79178416 Z" id="E152-MJMAIN-28"></path>
                                    </g>
                                    <g id="E152-MJMATHI-71-link" transform="translate(16.115364, 20.150769)">
                                        <path d="M0,6.17183248 C0,7.35579274 0.447649007,8.48114112 1.34294702,9.54787759 C2.23824504,10.6146141 3.2454553,11.1538435 4.36457782,11.1655659 C5.07139204,11.1655659 5.61328294,10.860784 5.99025053,10.2512203 C6.00203077,10.2629427 6.03148136,10.2981098 6.07860231,10.3567217 C6.12572325,10.4153336 6.19051456,10.4798067 6.27297622,10.550141 C6.35543788,10.6204753 6.44967977,10.6908095 6.55570191,10.7611438 C6.95622996,11.0424809 7.22717542,11.1831494 7.36853826,11.1831494 C7.41565921,11.1831494 7.45689004,11.1655659 7.49223075,11.1303987 C7.52757146,11.0952316 7.54524182,11.0659257 7.54524182,11.0424809 C7.54524182,10.9369795 7.13882364,9.2665405 6.32598728,6.03116393 C5.48959045,2.70200833 5.07139204,1.01398577 5.07139204,0.967096257 C5.07139204,0.873317226 5.33644737,0.820566521 5.86655804,0.808844142 L6.30831693,0.808844142 C6.37899835,0.715065111 6.41433906,0.662314406 6.41433906,0.650592027 C6.41433906,0.638869649 6.39666871,0.533368239 6.36132799,0.334087798 C6.31420705,0.181696873 6.25530586,0.0703342732 6.18462444,0 L5.95490982,0 C5.58972247,0.0234447577 4.95358967,0.0351671366 4.04651142,0.0351671366 C3.71666478,0.0351671366 3.41626874,0.0351671366 3.14532329,0.0351671366 C2.87437783,0.0351671366 2.65644345,0.0351671366 2.49152013,0.0351671366 C2.32659681,0.0351671366 2.2264648,0.0293059472 2.19112409,0.0175835683 C2.02620077,0.0175835683 1.94373911,0.0644730838 1.94373911,0.158252115 C1.94373911,0.193419251 1.95551935,0.281337093 1.97907982,0.422005639 C2.02620077,0.609563701 2.0674316,0.720926301 2.10277231,0.756093437 C2.13811302,0.791260574 2.25591539,0.808844142 2.45617942,0.808844142 C3.0216308,0.808844142 3.36325767,0.849872468 3.48106004,0.93192912 C3.57530194,0.990541015 3.74022526,1.50632569 3.97583,2.47928313 C4.21143474,3.45224058 4.33512723,3.95044168 4.34690746,3.97388644 C4.34690746,3.98560882 4.30567663,3.96802525 4.22321497,3.92113573 C3.6577636,3.46396296 3.06875175,3.23537657 2.45617942,3.23537657 C1.80826638,3.23537657 1.23692489,3.46982415 0.742154933,3.9387193 C0.247384978,4.40761446 0,5.15198551 0,6.17183248 Z M5.63684342,9.14345552 C5.36589797,10.0695235 4.92413908,10.5325574 4.31156675,10.5325574 C3.89925846,10.5325574 3.50462052,10.3508605 3.12765293,9.9874668 C2.75068535,9.62407306 2.45617942,9.14931671 2.24413515,8.56319777 C1.90250828,7.63712984 1.66101342,6.67589477 1.51965058,5.67949256 C1.51965058,5.64432543 1.51965058,5.57985234 1.51965058,5.48607331 C1.51965058,5.39229428 1.51376046,5.32196001 1.50198022,5.27507049 C1.50198022,4.74756344 1.60800235,4.3841697 1.82004662,4.18488926 C2.03209089,3.98560882 2.28536598,3.88010741 2.57987191,3.86838503 C3.21600471,3.86838503 3.86980786,4.29039067 4.54128137,5.13440195 L4.68264422,5.3278212 L5.63684342,9.14345552 Z" id="E152-MJMATHI-71"></path>
                                    </g>
                                    <g id="E152-MJMAIN-2C-link" transform="translate(25.038894, 20.133186)">
                                        <path d="M0,4.04422071 C0,4.04422071 0,4.19075045 0,4.48380992 C0,4.77686939 0.0942418962,5.02890054 0.282725689,5.23990336 C0.471209481,5.45090618 0.724484577,5.55640759 1.04255098,5.55640759 C1.37239761,5.55640759 1.66690354,5.40987785 1.92606875,5.11681838 C2.18523397,4.82375891 2.32070669,4.30797424 2.33248693,3.56946437 C2.33248693,3.15918111 2.27947586,2.76062022 2.17345373,2.37378172 C2.0674316,1.98694322 1.94373911,1.65285542 1.80237627,1.37151833 C1.66101342,1.09018124 1.50787034,0.849872468 1.34294702,0.650592027 C1.1780237,0.451311587 1.03666086,0.293059472 0.918858488,0.175835683 C0.801056118,0.0586118944 0.724484577,0.00586118944 0.689143866,0.0175835683 C0.642022918,0.0175835683 0.565451377,0.0703342732 0.459429244,0.175835683 C0.353407111,0.281337093 0.300396044,0.357532556 0.300396044,0.404422071 C0.300396044,0.451311587 0.365187348,0.545090618 0.494769955,0.685759164 C0.624352562,0.826427711 0.771605525,1.00226339 0.936528844,1.21326621 C1.10145216,1.42426903 1.25459524,1.7173285 1.39595809,2.09244463 C1.53732093,2.46756075 1.63156283,2.89542758 1.67868378,3.37604512 L1.67868378,3.58704794 L1.66101342,3.56946437 C1.63745295,3.55774199 1.60800235,3.54601961 1.57266164,3.53429723 C1.53732093,3.52257485 1.50198022,3.50499128 1.46663951,3.48154653 C1.4312988,3.45810177 1.37828773,3.44637939 1.30760631,3.44637939 C1.23692489,3.44637939 1.16624347,3.4405182 1.09556204,3.42879582 C0.777495644,3.42879582 0.518330429,3.52843604 0.3180664,3.72771648 L0,4.04422071 Z" id="E152-MJMAIN-2C"></path>
                                    </g>
                                    <g id="E152-MJMATHI-70-link" transform="translate(30.817100, 20.150769)">
                                        <path d="M1.09556204,8.45769636 C1.10734228,8.49286349 1.11912252,8.53975301 1.13090275,8.5983649 C1.14268299,8.6569768 1.17213358,8.78592297 1.21925453,8.98520341 C1.26637548,9.18448385 1.32527667,9.36618072 1.39595809,9.53029402 C1.46663951,9.69440733 1.55499129,9.88782658 1.66101342,10.1105518 C1.76703555,10.333277 1.88483792,10.5091127 2.01442053,10.6380588 C2.14400314,10.767005 2.29714622,10.8959512 2.47384978,11.0248973 C2.65055333,11.1538435 2.84492724,11.2065942 3.05697151,11.1831494 C3.94048929,11.1831494 4.50594066,10.8080333 4.75332564,10.0578011 L4.9300292,10.2160532 C5.66040389,10.860784 6.35543788,11.1831494 7.01513115,11.1831494 C7.78084656,11.1831494 8.38163864,10.9076735 8.81750741,10.3567217 C9.25337618,9.80576993 9.47131057,9.13759433 9.47131057,8.35219495 C9.47131057,7.08617803 9.02366156,5.91980133 8.12836355,4.85306485 C7.23306553,3.78632838 6.21996515,3.24709895 5.0890624,3.23537657 C4.82989718,3.23537657 4.60018256,3.27054371 4.39991853,3.34087798 C4.27033592,3.39948987 4.1348632,3.48740771 3.99350035,3.6046315 C3.85213751,3.72185529 3.74022526,3.82149551 3.6577636,3.90355216 L3.53407111,4.04422071 C3.52229087,4.03249833 3.39270826,3.52257485 3.14532329,2.51445027 C2.89793831,1.50632569 2.77424582,0.996402204 2.77424582,0.984679825 C2.77424582,0.914345552 2.82136677,0.873317226 2.91560866,0.861594847 C3.00985056,0.849872468 3.22778495,0.8322889 3.56941182,0.808844142 L4.01117071,0.808844142 C4.08185213,0.72678749 4.11719284,0.674036785 4.11719284,0.650592027 C4.11719284,0.62714727 4.09952249,0.52164586 4.06418177,0.334087798 C4.02884106,0.193419251 3.99350035,0.10550141 3.95815964,0.0703342732 C3.92281893,0.0351671366 3.84624739,0.0117223789 3.72844502,0 C3.70488454,0 3.64009324,0 3.53407111,0 C3.42804897,0 3.22778495,0.00586118944 2.93327902,0.0175835683 C2.63877309,0.0293059472 2.27358575,0.0351671366 1.83771698,0.0351671366 C1.01310038,0.0351671366 0.488879837,0.0234447577 0.265055333,0 L0.123692489,0 C0.0412308296,0.0820566521 0,0.146529736 0,0.193419251 C0.0235604741,0.509923481 0.100132015,0.715065111 0.229714622,0.808844142 L0.583121733,0.808844142 C0.983649792,0.820566521 1.21336441,0.890900794 1.2722656,1.01984696 C1.30760631,1.09018124 1.66690354,2.49100551 2.35015729,5.22231979 C3.03341103,7.95363407 3.39270826,9.40134786 3.42804897,9.56546116 C3.43982921,9.62407306 3.44571933,9.70612971 3.44571933,9.81163112 C3.44571933,10.2922487 3.29846637,10.5325574 3.00396044,10.5325574 C2.74479523,10.5325574 2.52686084,10.3684441 2.35015729,10.0402175 C2.17345373,9.7119909 2.03798101,9.35445834 1.94373911,8.96761984 C1.84949721,8.58078134 1.77881579,8.36977852 1.73169484,8.33461138 C1.70813437,8.31116662 1.61389247,8.29944424 1.44896915,8.29944424 L1.20158418,8.29944424 C1.13090275,8.36977852 1.09556204,8.42252922 1.09556204,8.45769636 Z M3.83446715,5.20473622 C4.09363237,4.31383543 4.52950114,3.86838503 5.14207346,3.86838503 C5.49548057,3.86838503 5.83710745,4.00319239 6.16695408,4.2728071 C6.49680072,4.54242181 6.76774617,4.8823708 6.97979044,5.29265406 C7.1918347,5.69121494 7.40387897,6.3242234 7.61592324,7.19167944 C7.8279675,8.05913548 7.93987976,8.70386631 7.95165999,9.12587195 L7.95165999,9.23137336 C7.95165999,10.0988294 7.59236276,10.5325574 6.87376831,10.5325574 C6.7441857,10.5325574 6.61460309,10.5149738 6.48502048,10.4798067 C6.35543788,10.4446396 6.22585527,10.3918889 6.09627266,10.3215546 C5.96669005,10.2512203 5.84888768,10.1750249 5.74286555,10.0929682 C5.63684342,10.0109116 5.5367114,9.92299372 5.44246951,9.82921469 C5.34822761,9.73543565 5.25987583,9.64751781 5.17741417,9.56546116 C5.09495251,9.48340451 5.03016121,9.40134786 4.98304026,9.3192912 C4.93591931,9.23723455 4.88879837,9.17862266 4.84167742,9.14345552 L4.78866635,9.07312125 C4.78866635,9.06139887 4.770996,8.97934222 4.73565528,8.82695129 C4.70031457,8.67456037 4.63552327,8.41666803 4.54128137,8.05327429 C4.44703948,7.68988054 4.36457782,7.38509869 4.2938964,7.13892873 C3.98761023,5.89635657 3.83446715,5.25162574 3.83446715,5.20473622 Z" id="E152-MJMATHI-70"></path>
                                    </g>
                                    <g id="E152-MJMAIN-29-link" transform="translate(41.366302, 19.166089)">
                                        <path d="M0.0883517777,17.5659847 L0.1590332,17.5835683 C0.217934385,17.5835683 0.27683557,17.5835683 0.335736755,17.5835683 L0.547781022,17.5835683 L1.04255098,17.1615627 C2.14989326,16.1651605 2.95683949,14.9225883 3.46338969,13.4338462 C3.96993988,11.9451041 4.22321497,10.3977501 4.22321497,8.79178416 C4.22321497,7.99466239 4.16431379,7.22684658 4.04651142,6.48833671 C3.92870905,5.74982684 3.79323632,5.12267957 3.64009324,4.6068949 C3.48695016,4.09111023 3.26901577,3.57532556 2.98629009,3.05954089 C2.7035644,2.54375622 2.47973989,2.15105652 2.31481658,1.88144181 C2.14989326,1.6118271 1.9083984,1.31290643 1.590332,0.984679825 C1.2722656,0.656453217 1.08378181,0.463033966 1.02488062,0.404422071 C0.965979436,0.345810177 0.83050671,0.234447577 0.618462444,0.0703342732 C0.583121733,0.0351671366 0.559561259,0.0117223789 0.547781022,0 L0.335736755,0 C0.241494859,0 0.176703555,0 0.141362844,0 C0.106022133,0 0.0765715407,0.0175835683 0.0530110666,0.0527507049 C0.0294505926,0.0879178416 0.011780237,0.140668546 0,0.21100282 C0.011780237,0.222725199 0.0765715407,0.298920661 0.194373911,0.439589208 C2.02031065,2.32689221 2.93327902,5.11095719 2.93327902,8.79178416 C2.93327902,12.4726111 2.02031065,15.2566761 0.194373911,17.1439791 C0.0765715407,17.2846476 0.011780237,17.3608431 0,17.3725655 C0,17.4663445 0.0294505926,17.5308176 0.0883517777,17.5659847 Z" id="E152-MJMAIN-29"></path>
                                    </g>
                                    <g id="E152-MJMAIN-3D-link" transform="translate(53.170100, 25.900596)">
                                        <path d="M0,3.78974999 C0,3.95378301 0.0824616592,4.07996225 0.247384978,4.16828772 L11.5034015,4.16828772 C11.680105,4.06734433 11.7684568,3.94116508 11.7684568,3.78974999 C11.7684568,3.65095282 11.6859951,3.53108254 11.5210718,3.43013914 L5.90189875,3.41121225 L0.282725689,3.41121225 C0.0942418962,3.47430187 0,3.60048112 0,3.78974999 Z M0,0.378537736 C0,0.567806604 0.0942418962,0.693985849 0.282725689,0.757075472 L11.5210718,0.757075472 C11.6859951,0.630896226 11.7684568,0.504716981 11.7684568,0.378537736 C11.7684568,0.214504717 11.680105,0.0883254717 11.5034015,0 L0.247384978,0 C0.0824616592,0.0883254717 0,0.214504717 0,0.378537736 Z" id="E152-MJMAIN-3D"></path>
                                    </g>
                                    <g transform="translate(72.801865, 0.000000)">
                                        <g id="E152-MJSZ4-221A-link">
                                            <path d="M15.40855,52.5572857 C15.4674512,52.6862318 15.5734733,52.7507049 15.7266164,52.7507049 C15.8090781,52.7507049 15.8797595,52.721399 15.9386607,52.6627871 C15.9975619,52.6041752 16.0387927,52.5338409 16.0623532,52.4517843 C16.0623532,52.3697276 14.4249002,43.6424165 11.1499943,26.2698511 C7.87508845,8.89728557 6.21407503,0.193419251 6.16695408,0.158252115 C6.14339361,0.0527507049 6.01970112,0 5.79587662,0 L5.74286555,0 C5.60150271,0 5.53082128,0.0117223789 5.53082128,0.0351671366 L5.28343631,1.47701974 C5.10673275,2.44997718 4.85345766,3.89182979 4.52361102,5.80257754 C4.19376438,7.7133253 3.86980786,9.58304473 3.55174146,11.4117358 L1.590332,22.7531374 L0.459429244,20.5200242 L0,20.977197 L1.34294702,23.6674829 L2.7035644,26.3226018 C2.71534463,26.3108794 3.33380708,22.770721 4.55895173,15.7021265 C5.74875567,8.6569768 6.36132799,5.105096 6.39666871,5.04648411 L10.884939,28.7315506 C13.8535587,44.4981502 15.3614291,52.4400619 15.40855,52.5572857 Z" id="E152-MJSZ4-221A"></path>
                                        </g>
                                        <rect id="Rectangle" x="15.7089461" y="51.6956908" width="97.7877476" height="1.0550141"></rect>
                                        <g transform="translate(16.680816, 4.290391)">
                                            <g id="E152-MJSZ2-2211-link" transform="translate(0.000000, 11.358985)">
                                                <path d="M0.0883517777,24.5818285 C0.123692489,24.6052733 3.68721419,24.6169956 10.7789169,24.6169956 L21.4164709,24.6169956 L22.4413515,22.2432139 C23.1363855,20.6255256 23.507463,19.769792 23.5545839,19.6760129 L22.8477697,19.6760129 L22.7240772,19.9221829 C22.4766922,20.4028004 22.1468456,20.8599732 21.7345373,21.2937012 C21.1455255,21.8563754 20.4917223,22.307687 19.7731278,22.647636 C19.0545334,22.987585 18.2240267,23.2396161 17.2816077,23.4037294 C16.3391888,23.5678427 15.4497809,23.6674829 14.613384,23.7026501 C13.7769872,23.7378172 12.6990955,23.761262 11.379709,23.7729844 L9.17091453,23.7729844 L8.6231335,23.7729844 L3.46338969,23.7729844 L3.60475253,23.5795651 C9.05900227,16.1592993 11.7979074,12.4139992 11.8214679,12.343665 C11.8332481,12.3202202 11.8332481,12.2850531 11.8214679,12.2381635 C11.7861271,12.2029964 10.2311359,10.4329172 7.15649399,6.92792591 L2.49152013,1.65285542 C2.49152013,1.64113304 3.73433514,1.63527185 6.21996515,1.63527185 C6.83253748,1.63527185 7.66304419,1.63527185 8.71148528,1.63527185 C9.75992638,1.63527185 10.5138615,1.62941066 10.9732908,1.61768828 C12.575403,1.61768828 13.8712291,1.64699423 14.860769,1.70560613 C15.8503089,1.76421802 16.8339587,1.887303 17.8117184,2.07486106 C18.7894781,2.26241912 19.6199848,2.54961741 20.3032385,2.93645591 C20.9864923,3.32329441 21.5931745,3.83321789 22.1232851,4.46622635 C22.3706701,4.7710082 22.612165,5.19301384 22.8477697,5.73224327 L23.5545839,5.73224327 C23.5545839,5.72052089 23.5133531,5.59743591 23.4308914,5.36298833 C23.3484298,5.12854076 23.2011768,4.74756344 22.9891326,4.22005639 C22.7770883,3.69254935 22.5944946,3.20020943 22.4413515,2.74303666 L21.4164709,0.0175835683 L10.7965872,0 C3.70488454,0 0.141362844,0.0117223789 0.106022133,0.0351671366 C0.0353407111,0.0586118944 0,0.111362599 0,0.193419251 C0,0.216864009 0.011780237,0.252031146 0.0353407111,0.298920661 L9.45364021,11.0248973 C9.45364021,11.0366197 9.2592663,11.3003732 8.87051848,11.8161579 C8.48177066,12.3319426 7.86330822,13.1759539 7.01513115,14.3481917 C6.16695408,15.5204296 5.40123868,16.5637213 4.71798493,17.4780669 L0.0176703555,23.8960693 L0,24.1598229 C0,24.4059928 0.0294505926,24.5466614 0.0883517777,24.5818285 Z" id="E152-MJSZ2-2211"></path>
                                            </g>
                                            <g transform="translate(1.890728, 0.000000)">
                                                <g id="E152-MJMATHI-69-link" transform="translate(0.014967, 0.003921)">
                                                    <path d="M2.03634944,7.59569709 C2.03634944,7.79460241 2.1154714,7.96864457 2.27371533,8.11782357 C2.43195925,8.26700256 2.61518906,8.34573592 2.82340475,8.35402364 C2.97332005,8.35402364 3.09824946,8.30429731 3.19819299,8.20484465 C3.29813652,8.10539198 3.3522726,7.98107615 3.36060123,7.83189716 C3.36060123,7.64127956 3.27731495,7.4672374 3.1107424,7.30977068 C2.94416985,7.15230397 2.76094004,7.06942675 2.56105298,7.06113903 C2.43612357,7.06113903 2.31952278,7.10257764 2.21125062,7.18545486 C2.10297846,7.26833207 2.04467807,7.40507949 2.03634944,7.59569709 Z M0,3.70461167 C0,3.77091345 0.0374788241,3.89937314 0.112436472,4.08999074 C0.187394121,4.28060834 0.287337651,4.49194525 0.412267065,4.72400146 C0.537196479,4.95605767 0.720426285,5.16739458 0.961956485,5.35801218 C1.20348669,5.54862979 1.45334551,5.63979473 1.71153297,5.63150701 C2.03634944,5.63150701 2.30702984,5.5361982 2.52357416,5.3455806 C2.74011847,5.154963 2.85255495,4.89804362 2.86088357,4.57482247 C2.86088357,4.4339312 2.80258318,4.20187498 2.68598239,3.87865383 C2.56938161,3.55543268 2.40280906,3.12032728 2.18626474,2.57333764 C1.96972042,2.026348 1.79481924,1.55809171 1.6615612,1.16856878 C1.61991806,0.986238902 1.59909649,0.853635352 1.59909649,0.770758133 C1.59909649,0.563565087 1.66988983,0.459968563 1.8114765,0.459968563 C1.88643415,0.459968563 1.96555611,0.472400146 2.04884238,0.497263312 C2.13212866,0.522126477 2.22790788,0.58014053 2.33618004,0.671305471 C2.44445219,0.762470411 2.55688867,0.907505544 2.67348945,1.10641087 C2.79009024,1.30531619 2.89419808,1.54980399 2.98581299,1.83987425 C3.01079887,1.93932692 3.03162044,1.99734097 3.04827769,2.01391641 C3.06493495,2.03049186 3.13572828,2.03877958 3.2606577,2.03877958 C3.42723025,2.03877958 3.51051652,1.99734097 3.51051652,1.91446375 C3.51051652,1.84816198 3.4730377,1.71970229 3.39808005,1.52908468 C3.3231224,1.33846708 3.21901456,1.12713017 3.08575652,0.895073961 C2.95249848,0.663017749 2.76510436,0.455824703 2.52357416,0.273494822 C2.28204396,0.0911649405 2.0238565,0 1.74901179,0 C1.48249571,0 1.2368012,0.0870210796 1.01192825,0.261063239 C0.787055306,0.435105398 0.67045452,0.700312497 0.662125892,1.05668454 C0.662125892,1.19757581 0.682947461,1.33017936 0.724590599,1.45449519 C0.766233737,1.57881102 0.94529923,2.05121116 1.26178708,2.87169563 C1.57827493,3.70875553 1.76150473,4.21016271 1.8114765,4.37591714 C1.86144826,4.54167158 1.89059846,4.70328216 1.89892709,4.86074887 C1.89892709,5.0596542 1.82813375,5.15910686 1.68654708,5.15910686 L1.6615612,5.15910686 C1.41170237,5.15910686 1.18266512,5.02235945 0.974449427,4.74886463 C0.766233737,4.47536981 0.607989813,4.12728549 0.499717655,3.70461167 C0.491389027,3.69632395 0.4830604,3.68389237 0.474731772,3.66731692 C0.466403144,3.65074148 0.462238831,3.6383099 0.462238831,3.63002218 C0.462238831,3.62173445 0.453910203,3.61344673 0.437252948,3.60515901 C0.420595693,3.59687129 0.408102751,3.59272743 0.399774124,3.59272743 C0.391445496,3.59272743 0.374788241,3.59272743 0.349802358,3.59272743 C0.324816476,3.59272743 0.291501965,3.59272743 0.249858827,3.59272743 L0.0749576482,3.59272743 C0.0249858827,3.64245376 0,3.67974851 0,3.70461167 Z" id="E152-MJMATHI-69"></path>
                                                </g>
                                                <g id="E152-MJMAIN-3D-link" transform="translate(4.762285, 1.794069)">
                                                    <path d="M0,2.7902648 C0,2.95429782 0.058300393,3.08047706 0.174901179,3.16880253 L8.13290483,3.16880253 C8.25783424,3.06785914 8.32029895,2.94167989 8.32029895,2.7902648 C8.32029895,2.65146763 8.26199856,2.53159735 8.14539777,2.43065395 L4.17264242,2.41172706 L0.199887062,2.41172706 C0.0666290206,2.47481668 0,2.60099593 0,2.7902648 Z M0,0.378537736 C0,0.567806604 0.0666290206,0.693985849 0.199887062,0.757075472 L8.14539777,0.757075472 C8.26199856,0.630896226 8.32029895,0.504716981 8.32029895,0.378537736 C8.32029895,0.214504717 8.25783424,0.0883254717 8.13290483,0 L0.174901179,0 C0.058300393,0.0883254717 0,0.214504717 0,0.378537736 Z" id="E152-MJMAIN-3D"></path>
                                                </g>
                                                <g id="E152-MJMAIN-31-link" transform="translate(14.819102, 0.140669)">
                                                    <path d="M1.62408238,7.18545486 L1.46167414,7.12329694 C1.34507335,7.08185833 1.1785008,7.04041972 0.961956485,6.99898111 C0.745412168,6.9575425 0.503881968,6.92853548 0.237365886,6.91196003 L0,6.91196003 L0,7.48381284 L0.237365886,7.48381284 C0.628811382,7.50038829 0.991106682,7.5625462 1.32425178,7.67028658 C1.65739689,7.77802697 1.89059846,7.87747963 2.0238565,7.96864457 C2.15711454,8.05980951 2.27371533,8.15097445 2.37365886,8.24213939 C2.39031611,8.26700256 2.44028788,8.27943414 2.52357416,8.27943414 C2.5985318,8.27943414 2.66932514,8.25457098 2.73595416,8.20484465 L2.73595416,4.48780139 L2.7484471,0.758326551 C2.80674749,0.700312497 2.85671926,0.663017749 2.8983624,0.646442305 C2.94000554,0.629866862 3.03994907,0.613291418 3.19819299,0.596715974 C3.35643691,0.58014053 3.61462437,0.571852809 3.97275535,0.571852809 L4.29757183,0.571852809 L4.29757183,0 L4.16014948,0 C3.9852483,0.0248631656 3.3231224,0.0372947484 2.1737718,0.0372947484 C1.04107845,0.0372947484 0.387281182,0.0248631656 0.212380003,0 L0.0624647068,0 L0.0624647068,0.571852809 L0.387281182,0.571852809 C0.570510989,0.571852809 0.728754913,0.571852809 0.862012954,0.571852809 C0.995270996,0.571852809 1.09937884,0.57599667 1.17433649,0.584284391 C1.24929414,0.592572113 1.31592316,0.605003696 1.37422355,0.62157914 C1.43252394,0.638154584 1.46583845,0.646442305 1.47416708,0.646442305 C1.48249571,0.646442305 1.50748159,0.66716161 1.54912473,0.708600219 C1.59076787,0.750038829 1.61575375,0.766614272 1.62408238,0.758326551 L1.62408238,7.18545486 Z" id="E152-MJMAIN-31"></path>
                                                </g>
                                            </g>
                                            <g id="E152-MJMATHI-6E-link" transform="translate(8.297893, 39.348597)">
                                                <path d="M0,3.70461167 C0.00832862758,3.754338 0.0208215689,3.82063978 0.0374788241,3.903517 C0.0541360793,3.98639422 0.104107845,4.14386093 0.187394121,4.37591714 C0.270680396,4.60797336 0.353966672,4.80273482 0.437252948,4.96020154 C0.520539224,5.11766825 0.657961579,5.27099111 0.849520013,5.4201701 C1.04107845,5.56934909 1.23263688,5.63979473 1.42419532,5.63150701 C1.72402591,5.63150701 1.97388474,5.55691751 2.1737718,5.40773852 C2.37365886,5.25855952 2.49858827,5.11766825 2.54856004,4.9850647 C2.5985318,4.85246115 2.62351769,4.76544007 2.62351769,4.72400146 C2.62351769,4.70742602 2.627682,4.6991383 2.63601063,4.6991383 L2.77343298,4.83588571 C3.28147927,5.36629991 3.86031888,5.63150701 4.50995183,5.63150701 C4.95969772,5.63150701 5.32199302,5.51962276 5.59683773,5.29585427 C5.87168244,5.07208578 6.01326911,4.74472077 6.02159774,4.31375923 C6.02992637,3.88279769 5.87168244,3.23221153 5.54686597,2.36200073 C5.22204949,1.49178994 5.06380557,0.965519597 5.07213419,0.783189716 C5.07213419,0.567708948 5.14292753,0.459968563 5.2845142,0.459968563 C5.33448596,0.459968563 5.37196479,0.464112424 5.39695067,0.472400146 C5.63848087,0.513838756 5.85502519,0.671305471 6.04658362,0.944800292 C6.23814206,1.21829511 6.38389304,1.54980399 6.48383657,1.93932692 C6.50049382,2.00562869 6.5837801,2.03877958 6.7336954,2.03877958 C6.90026795,2.03877958 6.98355422,2.00562869 6.98355422,1.93932692 C6.98355422,1.93103919 6.96689697,1.86888128 6.93358246,1.75285317 C6.86695344,1.51250924 6.77533853,1.27630917 6.65873775,1.04425295 C6.54213696,0.812196743 6.35057853,0.58014053 6.08406245,0.348084318 C5.81754636,0.116028106 5.53020871,0.00414386093 5.22204949,0.0124315828 C4.830604,0.0124315828 4.54743066,0.124315828 4.37252948,0.348084318 C4.1976283,0.571852809 4.11017771,0.803909021 4.11017771,1.04425295 C4.11017771,1.20171967 4.26009301,1.69898298 4.5599236,2.53604289 C4.85975419,3.3731028 5.0138338,4.00296966 5.02216243,4.42564348 C5.02216243,4.91461907 4.83893262,5.15910686 4.47247301,5.15910686 L4.4100083,5.15910686 C3.69374633,5.15910686 3.08992083,4.74057691 2.5985318,3.903517 L2.51108121,3.754338 L2.09881415,2.08850591 C1.82396944,1.00281435 1.66572552,0.418529954 1.62408238,0.335652735 C1.51581022,0.111884245 1.33674473,0 1.0868859,0 C0.97861374,0 0.891163151,0.0248631656 0.82453413,0.0745894968 C0.75790511,0.124315828 0.712097658,0.174042159 0.687111775,0.22376849 C0.662125892,0.273494822 0.653797265,0.314933431 0.662125892,0.348084318 C0.662125892,0.455824703 0.820369816,1.13127403 1.13685766,2.37443231 C1.45334551,3.61759059 1.61991806,4.29303993 1.63657532,4.40078031 C1.64490395,4.44221892 1.64906826,4.53752772 1.64906826,4.68670671 C1.64906826,5.00992787 1.54912473,5.17153844 1.34923767,5.17153844 C1.03274982,5.17153844 0.770398051,4.75715235 0.562182362,3.92838016 C0.512210596,3.76262573 0.487224713,3.67560465 0.487224713,3.66731692 C0.470567458,3.61759059 0.391445496,3.59272743 0.249858827,3.59272743 L0.0749576482,3.59272743 C0.0249858827,3.64245376 0,3.67974851 0,3.70461167 Z" id="E152-MJMATHI-6E"></path>
                                            </g>
                                            <g id="E152-MJMAIN-28-link" transform="translate(26.205137, 14.875699)">
                                                <path d="M0,8.79178416 C0,9.6006283 0.0589011851,10.3684441 0.176703555,11.0952316 C0.294505926,11.8220191 0.429978651,12.4491664 0.583121733,12.9766734 C0.736264814,13.5041805 0.954199199,14.0199651 1.23692489,14.5240274 C1.51965058,15.0280897 1.74347508,15.4207894 1.9083984,15.7021265 C2.07332172,15.9834636 2.32070669,16.2882454 2.65055333,16.6164721 C2.98039997,16.9446987 3.17477388,17.1439791 3.23367506,17.2143134 C3.29257625,17.2846476 3.43982921,17.4077326 3.67543395,17.5835683 L3.90514857,17.5835683 L3.97583,17.5835683 C4.14075331,17.5835683 4.22321497,17.5308176 4.22321497,17.4253162 C4.22321497,17.3901491 4.12308296,17.2670641 3.92281893,17.0560613 C3.7225549,16.8450584 3.48106004,16.5344154 3.19833435,16.1241321 C2.91560866,15.7138489 2.62699286,15.2097866 2.33248693,14.6119453 C2.03798101,14.0141039 1.79059603,13.2052598 1.590332,12.1854128 C1.39006797,11.1655659 1.28993595,10.0343563 1.28993595,8.79178416 C1.28993595,7.54921199 1.39006797,6.42386362 1.590332,5.41573904 C1.79059603,4.40761446 2.03209089,3.59290912 2.31481658,2.97162304 C2.59754226,2.35033696 2.88615807,1.84627467 3.180664,1.45943617 C3.47516992,1.07259767 3.7225549,0.761954627 3.92281893,0.527507049 C4.12308296,0.293059472 4.22321497,0.169974494 4.22321497,0.158252115 C4.22321497,0.0527507049 4.1348632,0 3.95815964,0 L3.90514857,0 L3.67543395,0 L3.180664,0.422005639 C2.07332172,1.41840784 1.26637548,2.66098 0.759825288,4.14972212 C0.253275096,5.63846424 0,7.18581825 0,8.79178416 Z" id="E152-MJMAIN-28"></path>
                                            </g>
                                            <g transform="translate(32.001014, 15.860379)">
                                                <g id="E152-MJMATHI-71-link">
                                                    <path d="M0,6.17183248 C0,7.35579274 0.447649007,8.48114112 1.34294702,9.54787759 C2.23824504,10.6146141 3.2454553,11.1538435 4.36457782,11.1655659 C5.07139204,11.1655659 5.61328294,10.860784 5.99025053,10.2512203 C6.00203077,10.2629427 6.03148136,10.2981098 6.07860231,10.3567217 C6.12572325,10.4153336 6.19051456,10.4798067 6.27297622,10.550141 C6.35543788,10.6204753 6.44967977,10.6908095 6.55570191,10.7611438 C6.95622996,11.0424809 7.22717542,11.1831494 7.36853826,11.1831494 C7.41565921,11.1831494 7.45689004,11.1655659 7.49223075,11.1303987 C7.52757146,11.0952316 7.54524182,11.0659257 7.54524182,11.0424809 C7.54524182,10.9369795 7.13882364,9.2665405 6.32598728,6.03116393 C5.48959045,2.70200833 5.07139204,1.01398577 5.07139204,0.967096257 C5.07139204,0.873317226 5.33644737,0.820566521 5.86655804,0.808844142 L6.30831693,0.808844142 C6.37899835,0.715065111 6.41433906,0.662314406 6.41433906,0.650592027 C6.41433906,0.638869649 6.39666871,0.533368239 6.36132799,0.334087798 C6.31420705,0.181696873 6.25530586,0.0703342732 6.18462444,0 L5.95490982,0 C5.58972247,0.0234447577 4.95358967,0.0351671366 4.04651142,0.0351671366 C3.71666478,0.0351671366 3.41626874,0.0351671366 3.14532329,0.0351671366 C2.87437783,0.0351671366 2.65644345,0.0351671366 2.49152013,0.0351671366 C2.32659681,0.0351671366 2.2264648,0.0293059472 2.19112409,0.0175835683 C2.02620077,0.0175835683 1.94373911,0.0644730838 1.94373911,0.158252115 C1.94373911,0.193419251 1.95551935,0.281337093 1.97907982,0.422005639 C2.02620077,0.609563701 2.0674316,0.720926301 2.10277231,0.756093437 C2.13811302,0.791260574 2.25591539,0.808844142 2.45617942,0.808844142 C3.0216308,0.808844142 3.36325767,0.849872468 3.48106004,0.93192912 C3.57530194,0.990541015 3.74022526,1.50632569 3.97583,2.47928313 C4.21143474,3.45224058 4.33512723,3.95044168 4.34690746,3.97388644 C4.34690746,3.98560882 4.30567663,3.96802525 4.22321497,3.92113573 C3.6577636,3.46396296 3.06875175,3.23537657 2.45617942,3.23537657 C1.80826638,3.23537657 1.23692489,3.46982415 0.742154933,3.9387193 C0.247384978,4.40761446 0,5.15198551 0,6.17183248 Z M5.63684342,9.14345552 C5.36589797,10.0695235 4.92413908,10.5325574 4.31156675,10.5325574 C3.89925846,10.5325574 3.50462052,10.3508605 3.12765293,9.9874668 C2.75068535,9.62407306 2.45617942,9.14931671 2.24413515,8.56319777 C1.90250828,7.63712984 1.66101342,6.67589477 1.51965058,5.67949256 C1.51965058,5.64432543 1.51965058,5.57985234 1.51965058,5.48607331 C1.51965058,5.39229428 1.51376046,5.32196001 1.50198022,5.27507049 C1.50198022,4.74756344 1.60800235,4.3841697 1.82004662,4.18488926 C2.03209089,3.98560882 2.28536598,3.88010741 2.57987191,3.86838503 C3.21600471,3.86838503 3.86980786,4.29039067 4.54128137,5.13440195 L4.68264422,5.3278212 L5.63684342,9.14345552 Z" id="E152-MJMATHI-71"></path>
                                                </g>
                                                <g id="E152-MJMATHI-69-link" transform="translate(7.549783, 0.626538)">
                                                    <path d="M2.03634944,7.59569709 C2.03634944,7.79460241 2.1154714,7.96864457 2.27371533,8.11782357 C2.43195925,8.26700256 2.61518906,8.34573592 2.82340475,8.35402364 C2.97332005,8.35402364 3.09824946,8.30429731 3.19819299,8.20484465 C3.29813652,8.10539198 3.3522726,7.98107615 3.36060123,7.83189716 C3.36060123,7.64127956 3.27731495,7.4672374 3.1107424,7.30977068 C2.94416985,7.15230397 2.76094004,7.06942675 2.56105298,7.06113903 C2.43612357,7.06113903 2.31952278,7.10257764 2.21125062,7.18545486 C2.10297846,7.26833207 2.04467807,7.40507949 2.03634944,7.59569709 Z M0,3.70461167 C0,3.77091345 0.0374788241,3.89937314 0.112436472,4.08999074 C0.187394121,4.28060834 0.287337651,4.49194525 0.412267065,4.72400146 C0.537196479,4.95605767 0.720426285,5.16739458 0.961956485,5.35801218 C1.20348669,5.54862979 1.45334551,5.63979473 1.71153297,5.63150701 C2.03634944,5.63150701 2.30702984,5.5361982 2.52357416,5.3455806 C2.74011847,5.154963 2.85255495,4.89804362 2.86088357,4.57482247 C2.86088357,4.4339312 2.80258318,4.20187498 2.68598239,3.87865383 C2.56938161,3.55543268 2.40280906,3.12032728 2.18626474,2.57333764 C1.96972042,2.026348 1.79481924,1.55809171 1.6615612,1.16856878 C1.61991806,0.986238902 1.59909649,0.853635352 1.59909649,0.770758133 C1.59909649,0.563565087 1.66988983,0.459968563 1.8114765,0.459968563 C1.88643415,0.459968563 1.96555611,0.472400146 2.04884238,0.497263312 C2.13212866,0.522126477 2.22790788,0.58014053 2.33618004,0.671305471 C2.44445219,0.762470411 2.55688867,0.907505544 2.67348945,1.10641087 C2.79009024,1.30531619 2.89419808,1.54980399 2.98581299,1.83987425 C3.01079887,1.93932692 3.03162044,1.99734097 3.04827769,2.01391641 C3.06493495,2.03049186 3.13572828,2.03877958 3.2606577,2.03877958 C3.42723025,2.03877958 3.51051652,1.99734097 3.51051652,1.91446375 C3.51051652,1.84816198 3.4730377,1.71970229 3.39808005,1.52908468 C3.3231224,1.33846708 3.21901456,1.12713017 3.08575652,0.895073961 C2.95249848,0.663017749 2.76510436,0.455824703 2.52357416,0.273494822 C2.28204396,0.0911649405 2.0238565,0 1.74901179,0 C1.48249571,0 1.2368012,0.0870210796 1.01192825,0.261063239 C0.787055306,0.435105398 0.67045452,0.700312497 0.662125892,1.05668454 C0.662125892,1.19757581 0.682947461,1.33017936 0.724590599,1.45449519 C0.766233737,1.57881102 0.94529923,2.05121116 1.26178708,2.87169563 C1.57827493,3.70875553 1.76150473,4.21016271 1.8114765,4.37591714 C1.86144826,4.54167158 1.89059846,4.70328216 1.89892709,4.86074887 C1.89892709,5.0596542 1.82813375,5.15910686 1.68654708,5.15910686 L1.6615612,5.15910686 C1.41170237,5.15910686 1.18266512,5.02235945 0.974449427,4.74886463 C0.766233737,4.47536981 0.607989813,4.12728549 0.499717655,3.70461167 C0.491389027,3.69632395 0.4830604,3.68389237 0.474731772,3.66731692 C0.466403144,3.65074148 0.462238831,3.6383099 0.462238831,3.63002218 C0.462238831,3.62173445 0.453910203,3.61344673 0.437252948,3.60515901 C0.420595693,3.59687129 0.408102751,3.59272743 0.399774124,3.59272743 C0.391445496,3.59272743 0.374788241,3.59272743 0.349802358,3.59272743 C0.324816476,3.59272743 0.291501965,3.59272743 0.249858827,3.59272743 L0.0749576482,3.59272743 C0.0249858827,3.64245376 0,3.67974851 0,3.70461167 Z" id="E152-MJMATHI-69"></path>
                                                </g>
                                            </g>
                                            <g id="E152-MJMAIN-2212-link" transform="translate(50.784602, 23.315812)">
                                                <path d="M0,0.152649457 C0,0.152649457 0,0.247146739 0,0.436141304 C0,0.62513587 0.0824616592,0.770516304 0.247384978,0.872282609 L10.5138615,0.872282609 C10.6905651,0.755978261 10.7789169,0.610597826 10.7789169,0.436141304 C10.7789169,0.261684783 10.6905651,0.116304348 10.5138615,0 L0.247384978,0 C0.0824616592,0.101766304 0,0.247146739 0,0.436141304 L0,0.152649457 Z" id="E152-MJMAIN-2212"></path>
                                            </g>
                                            <g transform="translate(66.281504, 15.860379)">
                                                <g id="E152-MJMATHI-70-link">
                                                    <path d="M1.09556204,8.45769636 C1.10734228,8.49286349 1.11912252,8.53975301 1.13090275,8.5983649 C1.14268299,8.6569768 1.17213358,8.78592297 1.21925453,8.98520341 C1.26637548,9.18448385 1.32527667,9.36618072 1.39595809,9.53029402 C1.46663951,9.69440733 1.55499129,9.88782658 1.66101342,10.1105518 C1.76703555,10.333277 1.88483792,10.5091127 2.01442053,10.6380588 C2.14400314,10.767005 2.29714622,10.8959512 2.47384978,11.0248973 C2.65055333,11.1538435 2.84492724,11.2065942 3.05697151,11.1831494 C3.94048929,11.1831494 4.50594066,10.8080333 4.75332564,10.0578011 L4.9300292,10.2160532 C5.66040389,10.860784 6.35543788,11.1831494 7.01513115,11.1831494 C7.78084656,11.1831494 8.38163864,10.9076735 8.81750741,10.3567217 C9.25337618,9.80576993 9.47131057,9.13759433 9.47131057,8.35219495 C9.47131057,7.08617803 9.02366156,5.91980133 8.12836355,4.85306485 C7.23306553,3.78632838 6.21996515,3.24709895 5.0890624,3.23537657 C4.82989718,3.23537657 4.60018256,3.27054371 4.39991853,3.34087798 C4.27033592,3.39948987 4.1348632,3.48740771 3.99350035,3.6046315 C3.85213751,3.72185529 3.74022526,3.82149551 3.6577636,3.90355216 L3.53407111,4.04422071 C3.52229087,4.03249833 3.39270826,3.52257485 3.14532329,2.51445027 C2.89793831,1.50632569 2.77424582,0.996402204 2.77424582,0.984679825 C2.77424582,0.914345552 2.82136677,0.873317226 2.91560866,0.861594847 C3.00985056,0.849872468 3.22778495,0.8322889 3.56941182,0.808844142 L4.01117071,0.808844142 C4.08185213,0.72678749 4.11719284,0.674036785 4.11719284,0.650592027 C4.11719284,0.62714727 4.09952249,0.52164586 4.06418177,0.334087798 C4.02884106,0.193419251 3.99350035,0.10550141 3.95815964,0.0703342732 C3.92281893,0.0351671366 3.84624739,0.0117223789 3.72844502,0 C3.70488454,0 3.64009324,0 3.53407111,0 C3.42804897,0 3.22778495,0.00586118944 2.93327902,0.0175835683 C2.63877309,0.0293059472 2.27358575,0.0351671366 1.83771698,0.0351671366 C1.01310038,0.0351671366 0.488879837,0.0234447577 0.265055333,0 L0.123692489,0 C0.0412308296,0.0820566521 0,0.146529736 0,0.193419251 C0.0235604741,0.509923481 0.100132015,0.715065111 0.229714622,0.808844142 L0.583121733,0.808844142 C0.983649792,0.820566521 1.21336441,0.890900794 1.2722656,1.01984696 C1.30760631,1.09018124 1.66690354,2.49100551 2.35015729,5.22231979 C3.03341103,7.95363407 3.39270826,9.40134786 3.42804897,9.56546116 C3.43982921,9.62407306 3.44571933,9.70612971 3.44571933,9.81163112 C3.44571933,10.2922487 3.29846637,10.5325574 3.00396044,10.5325574 C2.74479523,10.5325574 2.52686084,10.3684441 2.35015729,10.0402175 C2.17345373,9.7119909 2.03798101,9.35445834 1.94373911,8.96761984 C1.84949721,8.58078134 1.77881579,8.36977852 1.73169484,8.33461138 C1.70813437,8.31116662 1.61389247,8.29944424 1.44896915,8.29944424 L1.20158418,8.29944424 C1.13090275,8.36977852 1.09556204,8.42252922 1.09556204,8.45769636 Z M3.83446715,5.20473622 C4.09363237,4.31383543 4.52950114,3.86838503 5.14207346,3.86838503 C5.49548057,3.86838503 5.83710745,4.00319239 6.16695408,4.2728071 C6.49680072,4.54242181 6.76774617,4.8823708 6.97979044,5.29265406 C7.1918347,5.69121494 7.40387897,6.3242234 7.61592324,7.19167944 C7.8279675,8.05913548 7.93987976,8.70386631 7.95165999,9.12587195 L7.95165999,9.23137336 C7.95165999,10.0988294 7.59236276,10.5325574 6.87376831,10.5325574 C6.7441857,10.5325574 6.61460309,10.5149738 6.48502048,10.4798067 C6.35543788,10.4446396 6.22585527,10.3918889 6.09627266,10.3215546 C5.96669005,10.2512203 5.84888768,10.1750249 5.74286555,10.0929682 C5.63684342,10.0109116 5.5367114,9.92299372 5.44246951,9.82921469 C5.34822761,9.73543565 5.25987583,9.64751781 5.17741417,9.56546116 C5.09495251,9.48340451 5.03016121,9.40134786 4.98304026,9.3192912 C4.93591931,9.23723455 4.88879837,9.17862266 4.84167742,9.14345552 L4.78866635,9.07312125 C4.78866635,9.06139887 4.770996,8.97934222 4.73565528,8.82695129 C4.70031457,8.67456037 4.63552327,8.41666803 4.54128137,8.05327429 C4.44703948,7.68988054 4.36457782,7.38509869 4.2938964,7.13892873 C3.98761023,5.89635657 3.83446715,5.25162574 3.83446715,5.20473622 Z" id="E152-MJMATHI-70"></path>
                                                </g>
                                                <g id="E152-MJMATHI-69-link" transform="translate(9.833977, 0.626538)">
                                                    <path d="M2.03634944,7.59569709 C2.03634944,7.79460241 2.1154714,7.96864457 2.27371533,8.11782357 C2.43195925,8.26700256 2.61518906,8.34573592 2.82340475,8.35402364 C2.97332005,8.35402364 3.09824946,8.30429731 3.19819299,8.20484465 C3.29813652,8.10539198 3.3522726,7.98107615 3.36060123,7.83189716 C3.36060123,7.64127956 3.27731495,7.4672374 3.1107424,7.30977068 C2.94416985,7.15230397 2.76094004,7.06942675 2.56105298,7.06113903 C2.43612357,7.06113903 2.31952278,7.10257764 2.21125062,7.18545486 C2.10297846,7.26833207 2.04467807,7.40507949 2.03634944,7.59569709 Z M0,3.70461167 C0,3.77091345 0.0374788241,3.89937314 0.112436472,4.08999074 C0.187394121,4.28060834 0.287337651,4.49194525 0.412267065,4.72400146 C0.537196479,4.95605767 0.720426285,5.16739458 0.961956485,5.35801218 C1.20348669,5.54862979 1.45334551,5.63979473 1.71153297,5.63150701 C2.03634944,5.63150701 2.30702984,5.5361982 2.52357416,5.3455806 C2.74011847,5.154963 2.85255495,4.89804362 2.86088357,4.57482247 C2.86088357,4.4339312 2.80258318,4.20187498 2.68598239,3.87865383 C2.56938161,3.55543268 2.40280906,3.12032728 2.18626474,2.57333764 C1.96972042,2.026348 1.79481924,1.55809171 1.6615612,1.16856878 C1.61991806,0.986238902 1.59909649,0.853635352 1.59909649,0.770758133 C1.59909649,0.563565087 1.66988983,0.459968563 1.8114765,0.459968563 C1.88643415,0.459968563 1.96555611,0.472400146 2.04884238,0.497263312 C2.13212866,0.522126477 2.22790788,0.58014053 2.33618004,0.671305471 C2.44445219,0.762470411 2.55688867,0.907505544 2.67348945,1.10641087 C2.79009024,1.30531619 2.89419808,1.54980399 2.98581299,1.83987425 C3.01079887,1.93932692 3.03162044,1.99734097 3.04827769,2.01391641 C3.06493495,2.03049186 3.13572828,2.03877958 3.2606577,2.03877958 C3.42723025,2.03877958 3.51051652,1.99734097 3.51051652,1.91446375 C3.51051652,1.84816198 3.4730377,1.71970229 3.39808005,1.52908468 C3.3231224,1.33846708 3.21901456,1.12713017 3.08575652,0.895073961 C2.95249848,0.663017749 2.76510436,0.455824703 2.52357416,0.273494822 C2.28204396,0.0911649405 2.0238565,0 1.74901179,0 C1.48249571,0 1.2368012,0.0870210796 1.01192825,0.261063239 C0.787055306,0.435105398 0.67045452,0.700312497 0.662125892,1.05668454 C0.662125892,1.19757581 0.682947461,1.33017936 0.724590599,1.45449519 C0.766233737,1.57881102 0.94529923,2.05121116 1.26178708,2.87169563 C1.57827493,3.70875553 1.76150473,4.21016271 1.8114765,4.37591714 C1.86144826,4.54167158 1.89059846,4.70328216 1.89892709,4.86074887 C1.89892709,5.0596542 1.82813375,5.15910686 1.68654708,5.15910686 L1.6615612,5.15910686 C1.41170237,5.15910686 1.18266512,5.02235945 0.974449427,4.74886463 C0.766233737,4.47536981 0.607989813,4.12728549 0.499717655,3.70461167 C0.491389027,3.69632395 0.4830604,3.68389237 0.474731772,3.66731692 C0.466403144,3.65074148 0.462238831,3.6383099 0.462238831,3.63002218 C0.462238831,3.62173445 0.453910203,3.61344673 0.437252948,3.60515901 C0.420595693,3.59687129 0.408102751,3.59272743 0.399774124,3.59272743 C0.391445496,3.59272743 0.374788241,3.59272743 0.349802358,3.59272743 C0.324816476,3.59272743 0.291501965,3.59272743 0.249858827,3.59272743 L0.0749576482,3.59272743 C0.0249858827,3.64245376 0,3.67974851 0,3.70461167 Z" id="E152-MJMATHI-69"></path>
                                                </g>
                                            </g>
                                            <g transform="translate(82.909308, 14.875699)">
                                                <g id="E152-MJMAIN-29-link">
                                                    <path d="M0.0883517777,17.5659847 L0.1590332,17.5835683 C0.217934385,17.5835683 0.27683557,17.5835683 0.335736755,17.5835683 L0.547781022,17.5835683 L1.04255098,17.1615627 C2.14989326,16.1651605 2.95683949,14.9225883 3.46338969,13.4338462 C3.96993988,11.9451041 4.22321497,10.3977501 4.22321497,8.79178416 C4.22321497,7.99466239 4.16431379,7.22684658 4.04651142,6.48833671 C3.92870905,5.74982684 3.79323632,5.12267957 3.64009324,4.6068949 C3.48695016,4.09111023 3.26901577,3.57532556 2.98629009,3.05954089 C2.7035644,2.54375622 2.47973989,2.15105652 2.31481658,1.88144181 C2.14989326,1.6118271 1.9083984,1.31290643 1.590332,0.984679825 C1.2722656,0.656453217 1.08378181,0.463033966 1.02488062,0.404422071 C0.965979436,0.345810177 0.83050671,0.234447577 0.618462444,0.0703342732 C0.583121733,0.0351671366 0.559561259,0.0117223789 0.547781022,0 L0.335736755,0 C0.241494859,0 0.176703555,0 0.141362844,0 C0.106022133,0 0.0765715407,0.0175835683 0.0530110666,0.0527507049 C0.0294505926,0.0879178416 0.011780237,0.140668546 0,0.21100282 C0.011780237,0.222725199 0.0765715407,0.298920661 0.194373911,0.439589208 C2.02031065,2.32689221 2.93327902,5.11095719 2.93327902,8.79178416 C2.93327902,12.4726111 2.02031065,15.2566761 0.194373911,17.1439791 C0.0765715407,17.2846476 0.011780237,17.3608431 0,17.3725655 C0,17.4663445 0.0294505926,17.5308176 0.0883517777,17.5659847 Z" id="E152-MJMAIN-29"></path>
                                                </g>
                                                <g id="E152-MJMAIN-32-link" transform="translate(6.523895, 11.643505)">
                                                    <path d="M0.737083541,5.33314902 C0.512210596,5.33314902 0.333145103,5.40773852 0.199887062,5.55691751 C0.0666290206,5.7060965 0,5.88842638 0,6.10390715 C0,6.6923354 0.220708631,7.2020303 0.662125892,7.63299184 C1.10354315,8.06395337 1.65323257,8.27943414 2.31119415,8.27943414 C3.06909926,8.27943414 3.70207496,8.04737793 4.21012124,7.58326551 C4.71816752,7.11915308 4.97635498,6.51829325 4.98468361,5.780686 C4.98468361,5.42431396 4.90139733,5.08451736 4.73482478,4.76129621 C4.56825223,4.43807506 4.36836516,4.15629251 4.13516359,3.91594858 C3.90196202,3.67560465 3.56881692,3.36895894 3.13572828,2.99601145 C2.83589769,2.73909208 2.41946631,2.35785687 1.88643415,1.85230584 L1.14935061,1.1561372 L2.09881415,1.14370562 C3.40640868,1.14370562 4.10184908,1.16442492 4.18513536,1.20586353 C4.24343575,1.22243897 4.34337928,1.5912426 4.48496595,2.3122744 L4.48496595,2.34956915 L4.98468361,2.34956915 L4.98468361,2.3122744 C4.97635498,2.28741123 4.9222189,1.91031989 4.82227537,1.18100037 C4.72233184,0.451680842 4.65986713,0.0704456358 4.63488125,0.0372947484 L4.63488125,0 L0,0 L0,0.236200073 L0,0.385379067 C0,0.44339312 0.0249858827,0.505551034 0.0749576482,0.571852809 C0.124929414,0.638154584 0.249858827,0.783189716 0.449745889,1.00695821 C0.691276089,1.27216531 0.899491778,1.50422152 1.07439296,1.70312684 C1.14935061,1.78600406 1.29093727,1.93932692 1.49915296,2.16309541 C1.70736865,2.3868639 1.84895532,2.54018675 1.92391297,2.62306397 C1.99887062,2.70594119 2.11963572,2.8426886 2.28620827,3.0333062 C2.45278082,3.2239238 2.56938161,3.36481508 2.63601063,3.45598002 C2.70263965,3.54714496 2.79841887,3.67146079 2.92334828,3.8289275 C3.04827769,3.98639422 3.13572828,4.11899777 3.18570005,4.22673815 C3.23567181,4.33447853 3.29813652,4.4546505 3.37309417,4.58725405 C3.44805182,4.7198576 3.5021879,4.85246115 3.53550241,4.9850647 C3.56881692,5.11766825 3.59796711,5.24198408 3.622953,5.35801218 C3.64793888,5.47404029 3.66043182,5.6107877 3.66043182,5.76825442 C3.66043182,6.29038089 3.51884515,6.74206174 3.23567181,7.12329694 C2.95249848,7.50453215 2.54856004,7.69514975 2.0238565,7.69514975 C1.74901179,7.69514975 1.50748159,7.62470411 1.2992659,7.48381284 C1.09105021,7.34292157 0.94529923,7.20617416 0.862012954,7.07357061 C0.778726679,6.94096706 0.737083541,6.8622337 0.737083541,6.83737054 C0.737083541,6.82908282 0.75790511,6.82493895 0.799548247,6.82493895 C0.949463544,6.82493895 1.10354315,6.7669249 1.26178708,6.6508968 C1.420031,6.53486869 1.49915296,6.34425109 1.49915296,6.07904399 C1.49915296,5.87185094 1.43252394,5.69780878 1.2992659,5.55691751 C1.16600786,5.41602624 0.97861374,5.34143674 0.737083541,5.33314902 Z" id="E152-MJMAIN-32"></path>
                                                </g>
                                            </g>
                                        </g>
                                    </g>
                                </g>
                            </g>
                        </g>
                    </g>
                </g>
            </g>
        </g>
    </g>
</svg>