<svg height="576" viewBox="0 0 1440 576" width="1440" xmlns="http://www.w3.org/2000/svg" xmlns:xlink="http://www.w3.org/1999/xlink"><defs><path id="a" d="m0 0h1440v480l-724 96-716-96z"/><linearGradient id="b"><stop offset="0" stop-color="#fff"/><stop offset="1" stop-color="#fff" stop-opacity="0"/></linearGradient><linearGradient id="c" x1="50%" x2="37.5%" xlink:href="#b" y1="50%" y2="100%"/><linearGradient id="d" x1="50%" x2="0%" xlink:href="#b" y1="50%" y2="52.433322%"/><linearGradient id="e" x1="50%" x2="49.999132%" xlink:href="#b" y1="50%" y2="100%"/><mask id="f" fill="#fff"><use fill="#fff" fill-rule="evenodd" xlink:href="#a"/></mask></defs><g fill="none" fill-rule="evenodd"><use fill="#49aee8" xlink:href="#a"/><g mask="url(#f)"><g transform="translate(-234 -30)"><g fill="none"><path d="m249.1 622.75 317.442105-636" stroke="url(#c)" stroke-linecap="square" stroke-width="2"/><path d="m722.605495 514.943182 86.48901-179.236364" opacity=".403018" stroke="#fff" stroke-dasharray="2 8" stroke-linecap="square" stroke-width="2"/><path d="m755.735045 377.144248 53.35491-107.688496" opacity=".403018" stroke="#fff" stroke-dasharray="2 8" stroke-linecap="square" stroke-width="2"/><path d="m415.203472 448.694007 33.493056-69.263014" opacity=".403018" stroke="#fff" stroke-dasharray="2 8" stroke-linecap="square" stroke-width="2"/><path d="m0 361.725 1182.66711 261.025" stroke="url(#d)" stroke-linecap="square" stroke-width="2"/><path d="m435.925 251.75 372.325 83.475" opacity=".403018" stroke="#fff" stroke-dasharray="2 8" stroke-linecap="square" stroke-width="2"/><path d="m378.95 361.725 376.3 83.475" opacity=".403018" stroke="#fff" stroke-dasharray="2 8" stroke-linecap="square" stroke-width="2"/><path d="m449.175 316.675 306.075 59.625" opacity=".403018" stroke="#fff" stroke-dasharray="2 8" stroke-linecap="square" stroke-width="2"/><path d="m341.85-13.25-.557895 636" stroke="url(#e)" stroke-linecap="square" stroke-width="2"/><path d="m449.83755 376.305781.6625-58.3" opacity=".403018" stroke="#fff" stroke-dasharray="2 8" stroke-linecap="square" stroke-width="2" transform="matrix(.9998477 -.01745241 .01745241 .9998477 -5.990141 7.909402)"/><path d="m755.9125 447.85v-68.9" opacity=".403018" stroke="#fff" stroke-dasharray="2 8" stroke-linecap="square" stroke-width="2"/><path d="m449.175 318 359.075-49.025" opacity=".403018" stroke="#fff" stroke-dasharray="2 8" stroke-linecap="square" stroke-width="2"/><path d="m449.175 376.3 360.4-41.075" opacity=".8" stroke="#fff" stroke-dasharray="2 8" stroke-linecap="square" stroke-width="2"/><path d="m808.9125 70.704903-.6625 264.520097" opacity=".8" stroke="#fff" stroke-dasharray="2 8" stroke-linecap="square" stroke-width="2"/><path d="m340.525 332.575 106-17.225" opacity=".403018" stroke="#fff" stroke-dasharray="2 8" stroke-linecap="square" stroke-width="2"/><path d="m341.85 143.1 467.725-79.5" opacity=".403018" stroke="#fff" stroke-dasharray="2 8" stroke-linecap="square" stroke-width="2"/><text font-family="AGaramondPro-Italic, Adobe Garamond Pro" font-size="20" font-style="italic"><tspan fill="#fff" x="305.785" y="141.6375">q'''</tspan></text><text font-family="AGaramondPro-Italic, Adobe Garamond Pro" font-size="20" font-style="italic"><tspan fill="#fff" x="305.955" y="336.4125">p'''</tspan></text><text font-family="AGaramondPro-Italic, Adobe Garamond Pro" font-size="20" font-style="italic"><tspan fill="#fff" x="828.775" y="62.1375">q</tspan></text><text font-family="AGaramondPro-Italic, Adobe Garamond Pro" font-size="20" font-style="italic"><tspan fill="#fff" x="428.1325" y="303.2875">p</tspan></text><text font-family="AGaramondPro-Italic, Adobe Garamond Pro" font-size="20" font-style="italic"><tspan fill="#fff" x="395.5775" y="475.5375">p'</tspan></text><text font-family="AGaramondPro-Italic, Adobe Garamond Pro" font-size="20" font-style="italic"><tspan fill="#fff" x="353.085" y="360.2625">p''</tspan></text><text font-family="AGaramondPro-Italic, Adobe Garamond Pro" font-size="20" font-style="italic"><tspan fill="#fff" x="407.24" y="255.5875">q''</tspan></text><text font-family="AGaramondPro-Italic, Adobe Garamond Pro" font-size="20" font-style="italic"><tspan fill="#fff" x="703.47" y="544.4375">q'</tspan></text></g><path d="m805.657591 59.9217648c2.031433-1.4317481 4.838896-.9456073 6.270644 1.0858259s.945607 4.8388964-1.085826 6.2706445c-1.893209 1.3343285-4.460436 1.0028843-5.959956-.6927356l-351.763264 247.9222534c1.092411 1.982288.541305 4.511241-1.35178 5.845482-2.031433 1.431748-4.838896.945607-6.270644-1.085826s-.945607-4.838896 1.085826-6.270644c1.893209-1.334329 4.460436-1.002884 5.959956.692735l351.763264-247.9222534c-1.092411-1.9822871-.541305-4.511241 1.35178-5.8454818z" fill="#fff" fill-rule="nonzero"/><g fill="#96dbfb" fill-rule="nonzero" transform="matrix(.80901699 -.58778525 -.58778525 -.80901699 519.66620425 272.36755847)"><path d="m5.88422839 12.1854128c.01178024 0 .43586877.029306 1.2722656.0879179s1.26637548.093779 1.28993596.1055014c.14136284 0 .21204426-.0468895.21204426-.1406686 0-.0820566-.42997865-1.8521358-1.28993595-5.31023759-.8599573-3.45810176-1.30171619-5.22231978-1.32527667-5.29265406-.02356047-.07033427-.02945059-.15825211-.01767035-.26375352 0-.49233991.16492332-.73850987.49476995-.73850987.10602214.01172238.22382451.06447308.35340712.15825211.24738497.23444758.48887983.79712177.72448457 1.68802256.07068142.23444758.12958261.35753256.17670356.36925494.02356047.01172238.08246166.01758356.17670355.01758356h.07068143.07068142c.17670355 0 .26505533-.04688951.26505533-.14066854 0-.0586119-.01767036-.15239093-.05301107-.28133709-.15314308-.58611895-.32984663-1.06087529-.53011066-1.42426904-.20026403-.36339374-.36518735-.59784132-.49476996-.70334273-.1295826-.10550141-.29450592-.19928044-.49476995-.28133709-.0942419-.02344476-.23560474-.03516714-.42408854-.03516714-.40052805 0-.73626481.08791784-1.00721026.26375353-.27094545.17583568-.44764901.35753255-.53011067.54509061l-.10602213.26375353c-.01178024.01172238-.03534071.00586119-.07068142-.01758357-.02356048-.02344476-.04712095-.04688952-.07068143-.07033427-.69503398-.65645322-1.4018482-.98467983-2.12044266-.98467983-.64791304 0-1.21925453.23444758-1.71402449.70334273-.49476995.46889516-.74215493 1.21326622-.74215493 2.23311318 0 .56267418.11780237 1.13707075.35340711 1.72318969.23560474.58611895.51833043 1.09018124.84817707 1.51218688.55367114.66817559 1.10734228 1.13120956 1.66101342 1.38910189.55367114.25789234 1.05433121.38683851 1.50198022.38683851.65969327 0 1.15446323-.24616996 1.48430986-.73850987.05890119-.07033428.08835178-.09377903.08835178-.07033428.01178024.04688952.17081344.68575917.4770996 1.91660895.30628616 1.23084982.47120948 1.88144182.49476996 1.95177612 0 .1523909-.04123083.2461699-.12369249.2813371-.08246166.0351671-.31217628.064473-.68914387.0879178h-.37107747c-.07068142.0703343-.10602213.1172238-.10602213.1406685 0 .0234448.01178024.1348074.03534071.3340878.05890119.2227252.13547273.3340878.22971462.3340878zm-.24738497-6.27733385c-.27094545.92606793-.71270434 1.3891019-1.32527667 1.3891019-.41230829 0-.80694623-.18169687-1.18391382-.54509062-.37696758-.36339374-.67147351-.83815009-.88351778-1.42426903-.34162687-.92606793-.58312173-1.887303-.72448457-2.8837052 0-.03516714 0-.09964023 0-.19341926s-.00589012-.1641133-.01767036-.21100282c0-.52750705.10602213-.89090079.3180664-1.09018123s.46531936-.30478185.75982529-.31650423c.6361328 0 1.28993595.42200564 1.96140946 1.26601692l.14136285.19341925z" transform="translate(0 23.386146)"/><path d="m0 8.79178416c0 .80884414.05890119 1.57665994.17670356 2.30344744s.25327509 1.3539348.40641817 1.8814418c.15314308.5275071.37107747 1.0432917.65380316 1.547354s.50655019.896762.67147351 1.1780991.41230829.5861189.74215493.9143456c.32984664.3282266.52422055.527507.58312173.5978413.05890119.0703342.20615415.1934192.44175889.3692549h.22971462.07068143c.16492331 0 .24738497-.0527507.24738497-.1582521 0-.0351671-.10013201-.1582521-.30039604-.3692549-.20026403-.2110029-.44175889-.5216459-.72448458-.9319292-.28272569-.4102832-.57134149-.9143455-.86584742-1.5121868-.29450592-.5978414-.5418909-1.4066855-.74215493-2.4265325-.20026403-1.0198469-.30039605-2.1510565-.30039605-3.39362864 0-1.24257217.10013202-2.36792054.30039605-3.37604512s.44175889-1.82282992.72448458-2.444116c.28272568-.62128608.57134149-1.12534837.86584742-1.51218687.29450592-.3868385.5418909-.69748154.74215493-.93192912s.30039604-.35753256.30039604-.36925493c0-.10550142-.08835177-.15825212-.26505533-.15825212h-.05301107-.22971462l-.49476995.42200564c-1.10734228.9964022-1.91428852 2.23897436-2.42083871 3.72771648s-.75982529 3.03609613-.75982529 4.64206204z" transform="translate(10.319488 19.166089)"/><path d="m0 6.17183248c0 1.18396026.44764901 2.30930864 1.34294702 3.37604511.89529802 1.06673651 1.90250828 1.60596591 3.0216308 1.61768831.70681422 0 1.24870512-.3047819 1.62567271-.9143456.01178024.0117224.04123083.0468895.08835178.1055014.04712094.0586119.11191225.123085.19437391.1934193s.17670355.1406685.28272569.2110028c.40052805.2813371.67147351.4220056.81283635.4220056.04712095 0 .08835178-.0175835.12369249-.0527507.03534071-.0351671.05301107-.064473.05301107-.0879178 0-.1055014-.40641818-1.7759404-1.21925454-5.01131697-.83639683-3.3291556-1.25459524-5.01717816-1.25459524-5.06406767 0-.09377903.26505533-.14652974.795166-.15825212h.44175889c.07068142-.09377903.10602213-.14652973.10602213-.15825211s-.01767035-.11722379-.05301107-.31650423c-.04712094-.15239093-.10602213-.26375353-.17670355-.3340878h-.22971462c-.36518735.02344476-1.00132015.03516714-1.9083984.03516714-.32984664 0-.63024268 0-.90118813 0-.27094546 0-.48887984 0-.65380316 0s-.26505533-.00586119-.30039604-.01758357c-.16492332 0-.24738498.04688951-.24738498.14066855 0 .03516713.01178024.12308497.03534071.26375352.04712095.18755806.08835178.29892066.12369249.3340878.03534071.03516713.15314308.0527507.35340711.0527507.56545138 0 .90707825.04102833 1.02488062.12308498.0942419.0586119.25916522.57439657.49476996 1.54735401.23560474.97295745.35929723 1.47115855.37107746 1.49460331 0 .01172238-.04123083-.00586119-.12369249-.05275071-.56545137-.45717277-1.15446322-.68575916-1.76703555-.68575916-.64791304 0-1.21925453.23444758-1.71402449.70334273-.49476995.46889516-.74215493 1.21326621-.74215493 2.23311318zm5.63684342 2.97162304c-.27094545.92606798-.71270434 1.38910188-1.32527667 1.38910188-.41230829 0-.80694623-.1816969-1.18391382-.5450906-.37696758-.36339374-.67147351-.83815009-.88351778-1.42426903-.34162687-.92606793-.58312173-1.887303-.72448457-2.88370521 0-.03516713 0-.09964022 0-.19341925s-.00589012-.1641133-.01767036-.21100282c0-.52750705.10602213-.89090079.3180664-1.09018123s.46531936-.30478185.75982529-.31650423c.6361328 0 1.28993595.42200564 1.96140946 1.26601692l.14136285.19341925z" transform="translate(16.115364 20.150769)"/><path d="m0 4.04422071v.43958921c0 .29305947.0942419.54509062.28272569.75609344s.44175889.31650423.75982529.31650423c.32984663 0 .62435256-.14652974.88351777-.43958921.25916522-.29305947.39463794-.80884414.40641818-1.54735401 0-.41028326-.05301107-.80884415-.1590332-1.19568265s-.22971462-.7209263-.37107746-1.00226339c-.14136285-.28133709-.29450593-.52164586-.45942925-.7209263s-.30628616-.35753256-.42408853-.47475635-.19437391-.16997449-.22971462-.15825211c-.04712095 0-.12369249.0527507-.22971463.15825211-.10602213.10550141-.1590332.18169688-.1590332.22858639 0 .04688952.06479131.14066855.19437392.28133709.1295826.14066855.27683557.31650423.44175888.52750705.16492332.21100282.3180664.50406229.45942925.87917842.14136284.37511612.23560474.80298295.28272569 1.28360049v.21100282l-.01767036-.01758357c-.02356047-.01172238-.05301107-.02344476-.08835178-.03516714s-.07068142-.02930595-.10602213-.0527507c-.03534071-.02344476-.08835178-.03516714-.1590332-.03516714s-.14136284-.00586119-.21204427-.01758357c-.3180664 0-.57723161.09964022-.77749564.29892066z" transform="translate(25.038894 20.133186)"/><path d="m1.09556204 8.45769636c.01178024.03516713.02356048.08205665.03534071.14066854.01178024.0586119.04123083.18755807.08835178.38683851s.10602214.38097731.17670356.54509061c.07068142.16411331.1590332.35753256.26505533.58025778.10602213.2227252.2238245.3985609.35340711.527507.12958261.1289462.28272569.2578924.45942925.3868385.17670355.1289462.37107746.1816969.58312173.1582521.88351778 0 1.44896915-.3751161 1.69635413-1.1253483l.17670356.1582521c.73037469.6447308 1.42540868.9670962 2.08510195.9670962.76571541 0 1.36650749-.2754759 1.80237626-.8264277.43586877-.55095177.65380316-1.21912737.65380316-2.00452675 0-1.26601692-.44764901-2.43239362-1.34294702-3.4991301-.89529802-1.06673647-1.9083984-1.6059659-3.03930115-1.61768828-.25916522 0-.48887984.03516714-.68914387.10550141-.12958261.05861189-.26505533.14652973-.40641818.26375352-.14136284.11722379-.25327509.21686401-.33573675.29892066l-.12369249.14066855c-.01178024-.01172238-.14136285-.52164586-.38874782-1.52977044-.24738498-1.00812458-.37107747-1.51804807-.37107747-1.52977044 0-.07033428.04712095-.1113626.14136284-.12308498.0942419-.01172238.31217629-.02930595.65380316-.05275071h.44175889c.07068142-.08205665.10602213-.13480735.10602213-.15825211s-.01767035-.12894617-.05301107-.31650423c-.03534071-.14066855-.07068142-.22858639-.10602213-.26375353-.03534071-.03516713-.11191225-.05861189-.22971462-.07033427-.02356048 0-.08835178 0-.19437391 0-.10602214 0-.30628616.00586119-.60079209.01758357s-.65969327.01758357-1.09556204.01758357c-.8246166 0-1.34883714-.01172238-1.57266165-.03516714h-.14136284c-.08246166.08205665-.12369249.14652974-.12369249.19341925.02356047.31650423.10013202.52164586.22971462.61542489h.35340711c.40052806.01172238.63024268.08205665.68914387.21100282.03534071.07033428.39463794 1.47115855 1.07789169 4.20247283.68325374 2.73131428 1.04255097 4.17902807 1.07789168 4.34314137.01178024.0586119.01767036.14066855.01767036.24616996 0 .48061758-.14725296.72092628-.44175889.72092628-.25916521 0-.4770996-.1641133-.65380315-.4923399-.17670356-.3282266-.31217628-.68575916-.40641818-1.07259766s-.16492332-.59784132-.21204427-.63300846c-.02356047-.02344476-.11780237-.03516714-.28272569-.03516714h-.24738497c-.07068143.07033428-.10602214.12308498-.10602214.15825212zm2.73890511-3.25296014c.25916522-.89090079.69503399-1.33635119 1.30760631-1.33635119.35340711 0 .69503399.13480736 1.02488062.40442207.32984664.26961471.60079209.6095637.81283636 1.01984696.21204426.39856088.42408853 1.03156934.6361328 1.89902538.21204426.86745604.32395652 1.51218687.33573675 1.93419251v.10550141c0 .86745604-.35929723 1.30118404-1.07789168 1.30118404-.12958261 0-.25916522-.0175836-.38874783-.0527507-.1295826-.0351671-.25916521-.0879178-.38874782-.1582521s-.24738498-.1465297-.35340711-.2285864c-.10602213-.0820566-.20615415-.16997448-.30039604-.26375351-.0942419-.09377904-.18259368-.18169688-.26505534-.26375353s-.14725296-.1641133-.19437391-.24616996c-.04712095-.08205665-.09424189-.14066854-.14136284-.17583568l-.05301107-.07033427c0-.01172238-.01767035-.09377903-.05301107-.24616996-.03534071-.15239092-.10013201-.41028326-.19437391-.773677-.09424189-.36339375-.17670355-.6681756-.24738497-.91434556-.30628617-1.24257216-.45942925-1.88730299-.45942925-1.93419251z" transform="translate(30.8171 20.150769)"/><path d="m.08835178 17.5659847.07068142.0175836h.17670356.21204426l.49476996-.4220056c1.10734228-.9964022 1.91428851-2.2389744 2.42083871-3.7277165.50655019-1.4887421.75982528-3.0360961.75982528-4.64206204 0-.79712177-.05890118-1.56493758-.17670355-2.30344745s-.2532751-1.36565714-.40641818-1.88144181-.37107747-1.03156934-.65380315-1.54735401c-.28272569-.51578467-.5065502-.90848437-.67147351-1.17809908-.16492332-.26961471-.40641818-.56853538-.72448458-.89676198-.3180664-.32822661-.50655019-.52164586-.56545138-.58025776-.05890118-.05861189-.19437391-.16997449-.40641818-.3340878-.03534071-.03516713-.05890118-.05861189-.07068142-.07033427h-.21204426c-.0942419 0-.1590332 0-.19437392 0-.03534071 0-.0647913.01758357-.08835177.0527507-.02356048.03516714-.04123083.08791785-.05301107.15825212.01178024.01172238.07657154.08791784.19437391.22858639 1.82593674 1.887303 2.73890511 4.67136798 2.73890511 8.35219495 0 3.68082694-.91296837 6.46489194-2.73890511 8.35219494-.11780237.1406685-.18259367.216864-.19437391.2285864 0 .093779.02945059.1582521.08835178.1934192z" transform="translate(41.366302 19.166089)"/><path d="m0 3.78974999c0 .16403302.08246166.29021226.24738498.37853773h11.25601652c.1767035-.10094339.2650553-.22712264.2650553-.37853773 0-.13879717-.0824617-.25866745-.247385-.35961085l-5.61917305-.01892689h-5.61917306c-.18848379.06308962-.28272569.18926887-.28272569.37853774zm0-3.41121225c0 .18926886.0942419.31544811.28272569.37853773h11.23834611c.1649233-.12617924.247385-.25235849.247385-.37853773 0-.16403302-.0883518-.29021227-.2650553-.37853774h-11.25601652c-.16492332.08832547-.24738498.21450472-.24738498.37853774z" transform="translate(53.1701 25.900596)"/><g transform="translate(72.801865)"><path d="m15.40855 52.5572857c.0589012.1289461.1649233.1934192.3180664.1934192.0824617 0 .1531431-.0293059.2120443-.0879178s.100132-.1289462.1236925-.2110028c0-.0820567-1.637453-8.8093678-4.9123589-26.1819332-3.27490585-17.37256553-4.93591927-26.07643185-4.98304022-26.11159898-.02356047-.10550142-.14725296-.15825212-.37107746-.15825212h-.05301107c-.14136284 0-.21204427.01172238-.21204427.03516714l-.24738497 1.4418526c-.17670356.97295744-.42997865 2.41481005-.75982529 4.3255578-.32984664 1.91074776-.65380316 3.78046719-.97186956 5.60915826l-1.96140946 11.3414016-1.13090276-2.2331132-.45942924.4571728 1.34294702 2.6902859 1.36061738 2.6551189c.01178023-.0117224.63024268-3.5518808 1.85538733-10.6204753 1.18980394-7.0451497 1.80237626-10.5970305 1.83771698-10.65564239l4.48827029 23.68506649c2.9686197 15.7665996 4.4764901 23.7085113 4.523611 23.8257351z"/><path d="m15.708946 51.695691h97.787748v1.055014h-97.787748z"/><path d="m.08835178 24.5818285c.03534071.0234448 3.59886241.0351671 10.69056512.0351671h10.637554l1.0248806-2.3737817c.695034-1.6176883 1.0661115-2.4734219 1.1132324-2.567201h-.7068142l-.1236925.24617c-.247385.4806175-.5772316.9377903-.9895399 1.3715183-.5890118.5626742-1.242815 1.0139858-1.9614095 1.3539348-.7185944.339949-1.5491011.5919801-2.4915201.7560934-.9424189.1641133-1.8318268.2637535-2.6682237.2989207-.8363968.0351671-1.9142885.0586119-3.233675.0703343h-2.20879447-.54778103-5.15974381l.14136284-.1934193c5.45424974-7.4202658 8.19315487-11.1655659 8.21671537-11.2359001.0117802-.0234448.0117802-.0586119 0-.1055015-.0353408-.0351671-1.590332-1.8052463-4.66497391-5.31023759l-4.66497386-5.27507049c0-.01172238 1.24281501-.01758357 3.72844502-.01758357h2.49152013c1.0484411 0 1.80237622-.00586119 2.26180552-.01758357 1.6021122 0 2.8979383.02930595 3.8874782.08791785.9895399.05861189 1.9731897.18169687 2.9509494.36925493s1.8082664.47475635 2.4915201.86159485c.6832538.3868385 1.289936.89676198 1.8200466 1.52977044.247385.30478185.4888799.72678749.7244846 1.26601692h.7068142c0-.01172238-.0412308-.13480736-.1236925-.36925494-.0824616-.23444757-.2297146-.61542489-.4417588-1.14293194-.2120443-.52750704-.394638-1.01984696-.5477811-1.47701973l-1.0248806-2.72545309-10.6198837-.01758357c-7.09170266 0-10.65522436.01172238-10.69056507.03516714-.07068142.02344475-.10602213.07619546-.10602213.15825211 0 .02344476.01178024.0586119.03534071.10550141l9.4182995 10.72597664c0 .0117224-.19437391.2754759-.58312173.7912606s-1.00721026 1.359796-1.85538733 2.5320338c-.84817707 1.1722379-1.61389247 2.2155296-2.29714622 3.1298752l-4.70031457 6.4180024-.01767036.2637536c0 .2461699.02945059.3868385.08835178.4220056z" transform="translate(16.680816 15.649376)"/><path d="m2.03634944 7.59569709c0 .19890532.07912196.37294748.23736589.52212648.15824392.14917899.34147373.22791235.54968942.23620007.1499153 0 .27484471-.04972633.37478824-.14917899.09994353-.09945267.15407961-.2237685.16240824-.37294749 0-.1906176-.08328628-.36465976-.24985883-.52212648-.16657255-.15746671-.34980236-.24034393-.54968942-.24863165-.12492941 0-.2415302.04143861-.34980236.12431583-.10827216.08287721-.16657255.21962463-.17490118.41024223zm-2.03634944-3.89108542c0 .06630178.03747882.19476147.11243647.38537907s.17490118.40195451.2998306.63401072c.12492941.23205621.30815922.44339312.54968942.63401072.2415302.19061761.49138902.28178255.74957648.27349483.32481647 0 .59549687-.09530881.81204119-.28592641.21654431-.1906176.32898079-.44753698.33730941-.77075813 0-.14089127-.05830039-.37294749-.17490118-.69616864-.11660078-.32322115-.28317333-.75832655-.49971765-1.30531619s-.3914455-1.01524593-.52470354-1.40476886c-.04164314-.18232988-.06246471-.31493343-.06246471-.39781065 0-.20719304.07079334-.31078957.21238001-.31078957.07495765 0 .15407961.01243159.23736588.03729475.08328628.02486317.1790655.08287722.28733766.17404216.10827215.09116494.22070863.23620007.33730941.4351054.11660079.19890532.22070863.44339312.31232354.73346338.02498588.09945267.04580745.15746672.0624647.17404216.01665726.01657545.08745059.02486317.21238001.02486317.16657255 0 .24985882-.04143861.24985882-.12431583 0-.06630177-.03747882-.19476146-.11243647-.38537907-.07495765-.1906176-.17906549-.40195451-.31232353-.63401072s-.32065216-.43924926-.56218236-.62157914-.49971766-.27349482-.77456237-.27349482c-.26651608 0-.51221059.08702108-.73708354.26106324-.22487294.17404216-.34147373.43924926-.34980236.7956213 0 .14089127.02082157.27349482.06246471.39781065s.22070863.59671597.53719648 1.41720044c.31648785.8370599.49971765 1.33846708.54968942 1.50422151.04997176.16575444.07912196.32736502.08745059.48483173 0 .19890533-.07079334.29835799-.21238001.29835799h-.02498588c-.24985883 0-.47889608-.13674741-.68711177-.41024223s-.36645962-.62157914-.47473177-1.04425296c-.00832863-.00828772-.01665726-.0207193-.02498589-.03729475-.00832863-.01657544-.01249294-.02900702-.01249294-.03729474 0-.00828773-.00832863-.01657545-.02498588-.02486317-.01665726-.00828772-.0291502-.01243158-.03747883-.01243158-.00832862 0-.02498588 0-.04997176 0s-.0583004 0-.09994353 0h-.17490118c-.04997177.04972633-.07495765.08702108-.07495765.11188424z" transform="translate(18.586511 4.294312)"/><path d="m0 2.7902648c0 .16403302.05830039.29021226.17490118.37853773h7.95800365c.12492941-.10094339.18739412-.22712264.18739412-.37853773 0-.13879717-.05830039-.25866745-.17490118-.35961085l-3.97275535-.01892689h-3.97275536c-.13325804.06308962-.19988706.18926887-.19988706.37853774zm0-2.41172706c0 .18926886.06662902.31544811.19988706.37853773h7.94551071c.11660079-.12617924.17490118-.25235849.17490118-.37853773 0-.16403302-.06246471-.29021227-.18739412-.37853774h-7.95800365c-.11660079.08832547-.17490118.21450472-.17490118.37853774z" transform="translate(23.333829 6.08446)"/><path d="m1.62408238 7.18545486-.16240824-.06215792c-.11660079-.04143861-.28317334-.08287722-.49971765-.12431583-.21654432-.04143861-.45807452-.07044563-.7245906-.08702108h-.23736589v.57185281h.23736589c.39144549.01657545.75374079.07873336 1.08688589.18647374.33314511.10774039.56634668.20719305.69960472.29835799s.24985883.18232988.34980236.27349482c.01665725.02486317.06662902.03729475.1499153.03729475.07495764 0 .14575098-.02486316.21238-.07458949v-3.71704326l.01249294-3.72947484c.05830039-.05801405.10827216-.0953088.1499153-.11188424.04164314-.01657545.14158667-.03315089.29983059-.04972634.15824392-.01657544.41643138-.02486316.77456236-.02486316h.32481648v-.57185281h-.13742235c-.17490118.02486317-.83702708.03729475-1.98637768.03729475-1.13269335 0-1.78649062-.01243158-1.9613918-.03729475h-.14991529v.57185281h.32481647.47473177c.13325805 0 .23736589.00414386.31232354.01243158s.14158667.02071931.19988706.03729475.0916149.02486317.09994353.02486317.03331451.0207193.07495765.06215791.06662902.05801405.07495765.04972633z" transform="translate(33.390646 4.43106)"/><path d="m0 3.70461167c.00832863.04972633.02082157.11602811.03747882.19890533.01665726.08287722.06662903.24034393.1499153.47240014.08328628.23205622.16657255.42681768.24985883.5842844.08328627.15746671.22070863.31078957.41226706.45996856.19155844.14917899.38311687.21962463.57467531.21133691.29983059 0 .54968942-.0745895.74957648-.22376849.19988706-.149179.32481647-.29007027.37478824-.42267382.04997176-.13260355.07495765-.21962463.07495765-.26106324 0-.01657544.00416431-.02486316.01249294-.02486316l.13742235.13674741c.50804629.5304142 1.0868859.7956213 1.73651885.7956213.44974589 0 .81204119-.11188425 1.0868859-.33565274s.41643138-.5511335.42476001-.98209504-.1499153-1.0815477-.47473177-1.9517585c-.32481648-.87021079-.4830604-1.39648113-.47473178-1.57881101 0-.21548077.07079334-.32322116.21238001-.32322116.04997176 0 .08745059.00414386.11243647.01243159.2415302.04143861.45807452.19890532.64963295.47240014.19155844.27349482.33730942.6050037.43725295.99452663.01665725.06630177.09994353.09945266.24985883.09945266.16657255 0 .24985882-.03315089.24985882-.09945266 0-.00828773-.01665725-.07044564-.04997176-.18647375-.06662902-.24034393-.15824393-.476544-.27484471-.70860022-.11660079-.23205621-.30815922-.46411242-.5746753-.69616863-.26651609-.23205621-.55385374-.34394046-.86201296-.33565274-.39144549 0-.67461883.11188425-.84952001.33565274s-.26235177.4558247-.26235177.69616863c0 .15746672.1499153.65473003.44974589 1.49178994s.4539102 1.46692677.46223883 1.88960059c0 .48897559-.18322981.73346338-.54968942.73346338h-.06246471c-.71626197 0-1.32008747-.41852995-1.8114765-1.25558986l-.08745059-.149179-.41226706-1.66583209c-.27484471-1.08569156-.43308863-1.66997596-.47473177-1.75285317-.10827216-.22376849-.28733765-.33565274-.53719648-.33565274-.10827216 0-.19572275.02486317-.26235177.0745895s-.11243647.09945266-.13742235.14917899c-.02498589.04972633-.03331451.09116494-.02498589.12431583 0 .10774038.15824393.78318971.47473177 2.02634799.31648785 1.24315828.4830604 1.91860762.49971766 2.026348.00832863.04143861.01249294.13674741.01249294.2859264 0 .32322116-.09994353.48483173-.29983059.48483173-.31648785 0-.57883962-.41438609-.78705531-1.24315828-.04997176-.16575443-.07495765-.25277551-.07495765-.26106324-.01665725-.04972633-.09577921-.07458949-.23736588-.07458949h-.17490118c-.04997177.04972633-.07495765.08702108-.07495765.11188424z" transform="translate(24.978709 43.638988)"/><path d="m0 8.79178416c0 .80884414.05890119 1.57665994.17670356 2.30344744s.25327509 1.3539348.40641817 1.8814418c.15314308.5275071.37107747 1.0432917.65380316 1.547354s.50655019.896762.67147351 1.1780991.41230829.5861189.74215493.9143456c.32984664.3282266.52422055.527507.58312173.5978413.05890119.0703342.20615415.1934192.44175889.3692549h.22971462.07068143c.16492331 0 .24738497-.0527507.24738497-.1582521 0-.0351671-.10013201-.1582521-.30039604-.3692549-.20026403-.2110029-.44175889-.5216459-.72448458-.9319292-.28272569-.4102832-.57134149-.9143455-.86584742-1.5121868-.29450592-.5978414-.5418909-1.4066855-.74215493-2.4265325-.20026403-1.0198469-.30039605-2.1510565-.30039605-3.39362864 0-1.24257217.10013202-2.36792054.30039605-3.37604512s.44175889-1.82282992.72448458-2.444116c.28272568-.62128608.57134149-1.12534837.86584742-1.51218687.29450592-.3868385.5418909-.69748154.74215493-.93192912s.30039604-.35753256.30039604-.36925493c0-.10550142-.08835177-.15825212-.26505533-.15825212h-.05301107-.22971462l-.49476995.42200564c-1.10734228.9964022-1.91428852 2.23897436-2.42083871 3.72771648s-.75982529 3.03609613-.75982529 4.64206204z" transform="translate(42.885953 19.16609)"/><g transform="translate(48.68183 20.15077)"><path d="m0 6.17183248c0 1.18396026.44764901 2.30930864 1.34294702 3.37604511.89529802 1.06673651 1.90250828 1.60596591 3.0216308 1.61768831.70681422 0 1.24870512-.3047819 1.62567271-.9143456.01178024.0117224.04123083.0468895.08835178.1055014.04712094.0586119.11191225.123085.19437391.1934193s.17670355.1406685.28272569.2110028c.40052805.2813371.67147351.4220056.81283635.4220056.04712095 0 .08835178-.0175835.12369249-.0527507.03534071-.0351671.05301107-.064473.05301107-.0879178 0-.1055014-.40641818-1.7759404-1.21925454-5.01131697-.83639683-3.3291556-1.25459524-5.01717816-1.25459524-5.06406767 0-.09377903.26505533-.14652974.795166-.15825212h.44175889c.07068142-.09377903.10602213-.14652973.10602213-.15825211s-.01767035-.11722379-.05301107-.31650423c-.04712094-.15239093-.10602213-.26375353-.17670355-.3340878h-.22971462c-.36518735.02344476-1.00132015.03516714-1.9083984.03516714-.32984664 0-.63024268 0-.90118813 0-.27094546 0-.48887984 0-.65380316 0s-.26505533-.00586119-.30039604-.01758357c-.16492332 0-.24738498.04688951-.24738498.14066855 0 .03516713.01178024.12308497.03534071.26375352.04712095.18755806.08835178.29892066.12369249.3340878.03534071.03516713.15314308.0527507.35340711.0527507.56545138 0 .90707825.04102833 1.02488062.12308498.0942419.0586119.25916522.57439657.49476996 1.54735401.23560474.97295745.35929723 1.47115855.37107746 1.49460331 0 .01172238-.04123083-.00586119-.12369249-.05275071-.56545137-.45717277-1.15446322-.68575916-1.76703555-.68575916-.64791304 0-1.21925453.23444758-1.71402449.70334273-.49476995.46889516-.74215493 1.21326621-.74215493 2.23311318zm5.63684342 2.97162304c-.27094545.92606798-.71270434 1.38910188-1.32527667 1.38910188-.41230829 0-.80694623-.1816969-1.18391382-.5450906-.37696758-.36339374-.67147351-.83815009-.88351778-1.42426903-.34162687-.92606793-.58312173-1.887303-.72448457-2.88370521 0-.03516713 0-.09964022 0-.19341925s-.00589012-.1641133-.01767036-.21100282c0-.52750705.10602213-.89090079.3180664-1.09018123s.46531936-.30478185.75982529-.31650423c.6361328 0 1.28993595.42200564 1.96140946 1.26601692l.14136285.19341925z"/><path d="m2.03634944 7.59569709c0 .19890532.07912196.37294748.23736589.52212648.15824392.14917899.34147373.22791235.54968942.23620007.1499153 0 .27484471-.04972633.37478824-.14917899.09994353-.09945267.15407961-.2237685.16240824-.37294749 0-.1906176-.08328628-.36465976-.24985883-.52212648-.16657255-.15746671-.34980236-.24034393-.54968942-.24863165-.12492941 0-.2415302.04143861-.34980236.12431583-.10827216.08287721-.16657255.21962463-.17490118.41024223zm-2.03634944-3.89108542c0 .06630178.03747882.19476147.11243647.38537907s.17490118.40195451.2998306.63401072c.12492941.23205621.30815922.44339312.54968942.63401072.2415302.19061761.49138902.28178255.74957648.27349483.32481647 0 .59549687-.09530881.81204119-.28592641.21654431-.1906176.32898079-.44753698.33730941-.77075813 0-.14089127-.05830039-.37294749-.17490118-.69616864-.11660078-.32322115-.28317333-.75832655-.49971765-1.30531619s-.3914455-1.01524593-.52470354-1.40476886c-.04164314-.18232988-.06246471-.31493343-.06246471-.39781065 0-.20719304.07079334-.31078957.21238001-.31078957.07495765 0 .15407961.01243159.23736588.03729475.08328628.02486317.1790655.08287722.28733766.17404216.10827215.09116494.22070863.23620007.33730941.4351054.11660079.19890532.22070863.44339312.31232354.73346338.02498588.09945267.04580745.15746672.0624647.17404216.01665726.01657545.08745059.02486317.21238001.02486317.16657255 0 .24985882-.04143861.24985882-.12431583 0-.06630177-.03747882-.19476146-.11243647-.38537907-.07495765-.1906176-.17906549-.40195451-.31232353-.63401072s-.32065216-.43924926-.56218236-.62157914-.49971766-.27349482-.77456237-.27349482c-.26651608 0-.51221059.08702108-.73708354.26106324-.22487294.17404216-.34147373.43924926-.34980236.7956213 0 .14089127.02082157.27349482.06246471.39781065s.22070863.59671597.53719648 1.41720044c.31648785.8370599.49971765 1.33846708.54968942 1.50422151.04997176.16575444.07912196.32736502.08745059.48483173 0 .19890533-.07079334.29835799-.21238001.29835799h-.02498588c-.24985883 0-.47889608-.13674741-.68711177-.41024223s-.36645962-.62157914-.47473177-1.04425296c-.00832863-.00828772-.01665726-.0207193-.02498589-.03729475-.00832863-.01657544-.01249294-.02900702-.01249294-.03729474 0-.00828773-.00832863-.01657545-.02498588-.02486317-.01665726-.00828772-.0291502-.01243158-.03747883-.01243158-.00832862 0-.02498588 0-.04997176 0s-.0583004 0-.09994353 0h-.17490118c-.04997177.04972633-.07495765.08702108-.07495765.11188424z" transform="translate(7.549783 .626538)"/></g><path d="m0 .15264946v.28349184c0 .18899457.08246166.334375.24738498.43614131h10.26647652c.1767036-.11630435.2650554-.26168478.2650554-.43614131 0-.17445652-.0883518-.31983695-.2650554-.4361413h-10.26647652c-.16492332.1017663-.24738498.24714674-.24738498.4361413z" transform="translate(67.465418 27.606203)"/><g transform="translate(82.96232 20.15077)"><path d="m1.09556204 8.45769636c.01178024.03516713.02356048.08205665.03534071.14066854.01178024.0586119.04123083.18755807.08835178.38683851s.10602214.38097731.17670356.54509061c.07068142.16411331.1590332.35753256.26505533.58025778.10602213.2227252.2238245.3985609.35340711.527507.12958261.1289462.28272569.2578924.45942925.3868385.17670355.1289462.37107746.1816969.58312173.1582521.88351778 0 1.44896915-.3751161 1.69635413-1.1253483l.17670356.1582521c.73037469.6447308 1.42540868.9670962 2.08510195.9670962.76571541 0 1.36650749-.2754759 1.80237626-.8264277.43586877-.55095177.65380316-1.21912737.65380316-2.00452675 0-1.26601692-.44764901-2.43239362-1.34294702-3.4991301-.89529802-1.06673647-1.9083984-1.6059659-3.03930115-1.61768828-.25916522 0-.48887984.03516714-.68914387.10550141-.12958261.05861189-.26505533.14652973-.40641818.26375352-.14136284.11722379-.25327509.21686401-.33573675.29892066l-.12369249.14066855c-.01178024-.01172238-.14136285-.52164586-.38874782-1.52977044-.24738498-1.00812458-.37107747-1.51804807-.37107747-1.52977044 0-.07033428.04712095-.1113626.14136284-.12308498.0942419-.01172238.31217629-.02930595.65380316-.05275071h.44175889c.07068142-.08205665.10602213-.13480735.10602213-.15825211s-.01767035-.12894617-.05301107-.31650423c-.03534071-.14066855-.07068142-.22858639-.10602213-.26375353-.03534071-.03516713-.11191225-.05861189-.22971462-.07033427-.02356048 0-.08835178 0-.19437391 0-.10602214 0-.30628616.00586119-.60079209.01758357s-.65969327.01758357-1.09556204.01758357c-.8246166 0-1.34883714-.01172238-1.57266165-.03516714h-.14136284c-.08246166.08205665-.12369249.14652974-.12369249.19341925.02356047.31650423.10013202.52164586.22971462.61542489h.35340711c.40052806.01172238.63024268.08205665.68914387.21100282.03534071.07033428.39463794 1.47115855 1.07789169 4.20247283.68325374 2.73131428 1.04255097 4.17902807 1.07789168 4.34314137.01178024.0586119.01767036.14066855.01767036.24616996 0 .48061758-.14725296.72092628-.44175889.72092628-.25916521 0-.4770996-.1641133-.65380315-.4923399-.17670356-.3282266-.31217628-.68575916-.40641818-1.07259766s-.16492332-.59784132-.21204427-.63300846c-.02356047-.02344476-.11780237-.03516714-.28272569-.03516714h-.24738497c-.07068143.07033428-.10602214.12308498-.10602214.15825212zm2.73890511-3.25296014c.25916522-.89090079.69503399-1.33635119 1.30760631-1.33635119.35340711 0 .69503399.13480736 1.02488062.40442207.32984664.26961471.60079209.6095637.81283636 1.01984696.21204426.39856088.42408853 1.03156934.6361328 1.89902538.21204426.86745604.32395652 1.51218687.33573675 1.93419251v.10550141c0 .86745604-.35929723 1.30118404-1.07789168 1.30118404-.12958261 0-.25916522-.0175836-.38874783-.0527507-.1295826-.0351671-.25916521-.0879178-.38874782-.1582521s-.24738498-.1465297-.35340711-.2285864c-.10602213-.0820566-.20615415-.16997448-.30039604-.26375351-.0942419-.09377904-.18259368-.18169688-.26505534-.26375353s-.14725296-.1641133-.19437391-.24616996c-.04712095-.08205665-.09424189-.14066854-.14136284-.17583568l-.05301107-.07033427c0-.01172238-.01767035-.09377903-.05301107-.24616996-.03534071-.15239092-.10013201-.41028326-.19437391-.773677-.09424189-.36339375-.17670355-.6681756-.24738497-.91434556-.30628617-1.24257216-.45942925-1.88730299-.45942925-1.93419251z"/><path d="m2.03634944 7.59569709c0 .19890532.07912196.37294748.23736589.52212648.15824392.14917899.34147373.22791235.54968942.23620007.1499153 0 .27484471-.04972633.37478824-.14917899.09994353-.09945267.15407961-.2237685.16240824-.37294749 0-.1906176-.08328628-.36465976-.24985883-.52212648-.16657255-.15746671-.34980236-.24034393-.54968942-.24863165-.12492941 0-.2415302.04143861-.34980236.12431583-.10827216.08287721-.16657255.21962463-.17490118.41024223zm-2.03634944-3.89108542c0 .06630178.03747882.19476147.11243647.38537907s.17490118.40195451.2998306.63401072c.12492941.23205621.30815922.44339312.54968942.63401072.2415302.19061761.49138902.28178255.74957648.27349483.32481647 0 .59549687-.09530881.81204119-.28592641.21654431-.1906176.32898079-.44753698.33730941-.77075813 0-.14089127-.05830039-.37294749-.17490118-.69616864-.11660078-.32322115-.28317333-.75832655-.49971765-1.30531619s-.3914455-1.01524593-.52470354-1.40476886c-.04164314-.18232988-.06246471-.31493343-.06246471-.39781065 0-.20719304.07079334-.31078957.21238001-.31078957.07495765 0 .15407961.01243159.23736588.03729475.08328628.02486317.1790655.08287722.28733766.17404216.10827215.09116494.22070863.23620007.33730941.4351054.11660079.19890532.22070863.44339312.31232354.73346338.02498588.09945267.04580745.15746672.0624647.17404216.01665726.01657545.08745059.02486317.21238001.02486317.16657255 0 .24985882-.04143861.24985882-.12431583 0-.06630177-.03747882-.19476146-.11243647-.38537907-.07495765-.1906176-.17906549-.40195451-.31232353-.63401072s-.32065216-.43924926-.56218236-.62157914-.49971766-.27349482-.77456237-.27349482c-.26651608 0-.51221059.08702108-.73708354.26106324-.22487294.17404216-.34147373.43924926-.34980236.7956213 0 .14089127.02082157.27349482.06246471.39781065s.22070863.59671597.53719648 1.41720044c.31648785.8370599.49971765 1.33846708.54968942 1.50422151.04997176.16575444.07912196.32736502.08745059.48483173 0 .19890533-.07079334.29835799-.21238001.29835799h-.02498588c-.24985883 0-.47889608-.13674741-.68711177-.41024223s-.36645962-.62157914-.47473177-1.04425296c-.00832863-.00828772-.01665726-.0207193-.02498589-.03729475-.00832863-.01657544-.01249294-.02900702-.01249294-.03729474 0-.00828773-.00832863-.01657545-.02498588-.02486317-.01665726-.00828772-.0291502-.01243158-.03747883-.01243158-.00832862 0-.02498588 0-.04997176 0s-.0583004 0-.09994353 0h-.17490118c-.04997177.04972633-.07495765.08702108-.07495765.11188424z" transform="translate(9.833977 .626538)"/></g><g transform="translate(99.590124 19.16609)"><path d="m.08835178 17.5659847.07068142.0175836h.17670356.21204426l.49476996-.4220056c1.10734228-.9964022 1.91428851-2.2389744 2.42083871-3.7277165.50655019-1.4887421.75982528-3.0360961.75982528-4.64206204 0-.79712177-.05890118-1.56493758-.17670355-2.30344745s-.2532751-1.36565714-.40641818-1.88144181-.37107747-1.03156934-.65380315-1.54735401c-.28272569-.51578467-.5065502-.90848437-.67147351-1.17809908-.16492332-.26961471-.40641818-.56853538-.72448458-.89676198-.3180664-.32822661-.50655019-.52164586-.56545138-.58025776-.05890118-.05861189-.19437391-.16997449-.40641818-.3340878-.03534071-.03516713-.05890118-.05861189-.07068142-.07033427h-.21204426c-.0942419 0-.1590332 0-.19437392 0-.03534071 0-.0647913.01758357-.08835177.0527507-.02356048.03516714-.04123083.08791785-.05301107.15825212.01178024.01172238.07657154.08791784.19437391.22858639 1.82593674 1.887303 2.73890511 4.67136798 2.73890511 8.35219495 0 3.68082694-.91296837 6.46489194-2.73890511 8.35219494-.11780237.1406685-.18259367.216864-.19437391.2285864 0 .093779.02945059.1582521.08835178.1934192z"/><path d="m.73708354 5.33314902c-.22487294 0-.40393844.0745895-.53719648.22376849s-.19988706.33150887-.19988706.54698964c0 .58842825.22070863 1.09812315.66212589 1.52908469.44141726.43096153.99110668.6464423 1.64906826.6464423.75790511 0 1.39088081-.23205621 1.89892709-.69616863.50804628-.46411243.76623374-1.06497226.77456237-1.80257951 0-.35637204-.08328628-.69616864-.24985883-1.01938979s-.36645962-.6050037-.59966119-.84534763-.56634667-.54698964-.99943531-.91993713c-.29983059-.25691937-.71626197-.63815458-1.24929413-1.14370561l-.73708354-.69616864.94946354-.01243158c1.30759453 0 2.00303493.0207193 2.08632121.06215791.05830039.01657544.15824392.38537907.29983059 1.10641087v.03729475h.49971766v-.03729475c-.00832863-.02486317-.06246471-.40195451-.16240824-1.13127403-.09994353-.72931953-.16240824-1.11055473-.18739412-1.14370562v-.03729475h-4.63488125v.23620007.149179c0 .05801405.02498588.12017196.07495765.18647374.04997176.06630177.17490118.21133691.37478824.4351054.2415302.2652071.44974589.49726331.62464707.69616863.07495765.08287722.21654431.23620008.42476.45996857s.34980236.37709134.42476001.45996856.19572275.21962463.3622953.41024223.28317334.33150888.34980236.42267382.16240824.21548077.28733765.37294748c.12492941.15746672.21238.29007027.26235177.39781065.04997176.10774038.11243647.22791235.18739412.3605159s.12909373.2652071.16240824.39781065.0624647.25691938.08745059.37294748c.02498588.11602811.03747882.25277552.03747882.41024224 0 .52212647-.14158667.97380732-.42476001 1.35504252-.28317333.38123521-.68711177.57185281-1.21181531.57185281-.27484471 0-.51637491-.07044564-.7245906-.21133691s-.35396667-.27763868-.43725295-.41024223c-.08328627-.13260355-.12492941-.21133691-.12492941-.23620007 0-.00828772.02082157-.01243159.06246471-.01243159.14991529 0 .3039949-.05801405.46223883-.17404215.15824392-.11602811.23736588-.30664571.23736588-.57185281 0-.20719305-.06662902-.38123521-.19988706-.52212648s-.32065216-.21548077-.56218236-.22376849z" transform="translate(6.523895 11.643505)"/></g></g></g></g></g></g></svg>