<svg height="516" viewBox="0 0 1440 516" width="1440" xmlns="http://www.w3.org/2000/svg" xmlns:xlink="http://www.w3.org/1999/xlink"><defs><path id="a" d="m0 0h1440v420l-724 96-716-96z"/><mask id="b" fill="#fff"><use fill="#fff" fill-rule="evenodd" xlink:href="#a"/></mask></defs><g fill="none" fill-rule="evenodd"><use fill="#49aee8" xlink:href="#a"/><g mask="url(#b)" opacity=".3" stroke="#fff" stroke-width="2"><g transform="translate(0 -120)"><path d="m24.5-.5 1420 720"/><path d="m24.47924 29.479196 1361.04152 690.041608" transform="matrix(.99899728 -.04477095 .04477095 .99899728 -16.059801 31.939036)"/><path d="m24.45848 59.458391 1302.08304 660.083218" transform="matrix(.99599112 -.08945212 .08945212 .99599112 -32.133606 61.986368)"/><path d="m24.437368 89.437587 1242.125262 630.124826" transform="matrix(.99098757 -.13395389 .13395389 .99098757 -48.366823 90.112768)"/><path d="m24.416608 119.416782 1183.166782 600.166436" transform="matrix(.98399663 -.17818704 .17818704 .98399663 -64.891392 116.476631)"/><path d="m24.395848 150.395978 1124.208302 570.208044" transform="matrix(.97503236 -.22206283 .22206283 .97503236 -82.064841 141.113259)"/><path d="m24.375088 180.375173 1065.249822 540.249654" transform="matrix(.9641127 -.2654933 .2654933 .9641127 -99.615509 164.046997)"/><path d="m24.354328 210.354369 1006.291342 510.291262" transform="matrix(.95125958 -.30839133 .30839133 .95125958 -117.845591 185.365089)"/><path d="m24.333568 240.333564 947.332864 480.332872" transform="matrix(.93649875 -.3506709 .3506709 .93649875 -136.873749 205.146458)"/><path d="m24.312456 270.31276 887.375088 450.37448" transform="matrix(.91985984 -.39224721 .39224721 .91985984 -156.852899 223.281145)"/><path d="m25.291696 300.291956 828.416608 420.416088" transform="matrix(.90137619 -.43303691 .43303691 .90137619 -177.720178 240.667177)"/><path d="m25.270936 330.271151 769.458128 390.457698" transform="matrix(.88108489 -.47295816 .47295816 .88108489 -199.784317 256.402736)"/><path d="m25.250176 360.250347 710.499648 360.499306" transform="matrix(.85902661 -.51193093 .51193093 .85902661 -223.058295 270.985836)"/><path d="m25.229416 390.229542 651.541168 330.540916" transform="matrix(.83524562 -.54987704 .54987704 .83524562 -247.627908 284.527903)"/><path d="m25.208656 421.208738 592.582688 300.582524" transform="matrix(.80978957 -.58672042 .58672042 .80978957 -274.158067 297.335875)"/><path d="m25.187544 451.187933 532.624912 270.624134" transform="matrix(.78270955 -.62238715 .62238715 .78270955 -301.689896 308.866703)"/><path d="m25.166784 481.167129 473.666432 240.665742" transform="matrix(.75405984 -.65680573 .65680573 .75405984 -330.632322 320.016109)"/><path d="m25.146024 511.146325 414.707952 210.70735" transform="matrix(.72389791 -.68990711 .68990711 .72389791 -361.133995 330.620341)"/><path d="m25.125264 541.12552 355.749472 180.74896" transform="matrix(.69228424 -.72162493 .72162493 .69228424 -393.239842 340.812366)"/><path d="m25.104504 571.104022 296.790992 149.791956" transform="matrix(.65928224 -.75189556 .75189556 .65928224 -426.61 350.557555)"/><path d="m25.083744 601.083218 237.832512 119.833564" transform="matrix(.62495807 -.78065832 .78065832 .62495807 -462.009111 360.317513)"/><path d="m25 631 178 90" transform="matrix(.5893806 -.8078555 .8078555 .5893806 -499.299706 369.674241)"/></g></g></g></svg>