<svg width="100" height="100" viewBox="0 0 100 100" fill="none" xmlns="http://www.w3.org/2000/svg">
<rect width="100" height="100" fill="white"/>
<path d="M65 50V66C65 67.1046 65.8954 68 67 68H83" stroke="black" stroke-dasharray="2 2"/>
<path d="M54 50L54 71" stroke="#4FC4F9" stroke-dasharray="2 2"/>
<path d="M41 50V84" stroke="black" stroke-dasharray="2 2"/>
<path d="M32 50V74C32 75.1046 31.1046 76 30 76H19" stroke="#4FC4F9" stroke-dasharray="2 2"/>
<mask id="path-5-inside-1_4154_3922" fill="white">
<path fill-rule="evenodd" clip-rule="evenodd" d="M71 51H24.5H23V50.9109C16.8037 50.1699 12 44.8959 12 38.5C12 31.5964 17.5964 26 24.5 26C24.7649 26 25.0279 26.0082 25.2887 26.0245C27.0402 18.0045 34.1831 12 42.7284 12C48.3895 12 53.4351 14.6352 56.7054 18.7459C57.9228 18.34 59.2253 18.1202 60.5791 18.1202C66.2022 18.1202 70.9397 21.9118 72.3744 27.0779C78.3546 27.7597 83 32.8374 83 39C83 45.2907 78.1595 50.4508 72 50.9589V51H71Z"/>
</mask>
<path d="M23 51H22V52H23V51ZM23 50.9109H24V50.0234L23.1187 49.918L23 50.9109ZM25.2887 26.0245L25.2266 27.0226L26.0827 27.0759L26.2657 26.2378L25.2887 26.0245ZM56.7054 18.7459L55.9228 19.3685L56.3582 19.9157L57.0216 19.6946L56.7054 18.7459ZM72.3744 27.0779L71.4109 27.3454L71.5913 27.995L72.2611 28.0714L72.3744 27.0779ZM72 50.9589L71.9178 49.9623L71 50.038V50.9589H72ZM72 51V52H73V51H72ZM71 50H24.5V52H71V50ZM24.5 50H23V52H24.5V50ZM24 51V50.9109H22V51H24ZM23.1187 49.918C17.4192 49.2364 13 44.3835 13 38.5H11C11 45.4083 16.1882 51.1034 22.8813 51.9039L23.1187 49.918ZM13 38.5C13 32.1487 18.1487 27 24.5 27V25C17.0442 25 11 31.0442 11 38.5H13ZM24.5 27C24.7442 27 24.9864 27.0076 25.2266 27.0226L25.3509 25.0264C25.0694 25.0089 24.7857 25 24.5 25V27ZM26.2657 26.2378C27.919 18.6674 34.6631 13 42.7284 13V11C33.7032 11 26.1614 17.3416 24.3118 25.8111L26.2657 26.2378ZM42.7284 13C48.0719 13 52.8341 15.486 55.9228 19.3685L57.4879 18.1233C54.0361 13.7844 48.7071 11 42.7284 11V13ZM57.0216 19.6946C58.1384 19.3223 59.3342 19.1202 60.5791 19.1202V17.1202C59.1165 17.1202 57.7072 17.3578 56.3891 17.7972L57.0216 19.6946ZM60.5791 19.1202C65.7414 19.1202 70.0932 22.601 71.4109 27.3454L73.3379 26.8103C71.7861 21.2227 66.663 17.1202 60.5791 17.1202V19.1202ZM72.2611 28.0714C77.7419 28.6964 82 33.3516 82 39H84C84 32.3231 78.9672 26.8231 72.4877 26.0843L72.2611 28.0714ZM82 39C82 44.7659 77.563 49.4966 71.9178 49.9623L72.0822 51.9555C78.7561 51.405 84 45.8154 84 39H82ZM71 50.9589V51H73V50.9589H71ZM72 50H71V52H72V50Z" fill="black" mask="url(#path-5-inside-1_4154_3922)"/>
<circle cx="19" cy="76" r="3" fill="#4FC4F9"/>
<circle cx="41" cy="86" r="2.5" stroke="black" stroke-dasharray="2 2"/>
<circle cx="54" cy="71" r="3" fill="#4FC4F9"/>
<circle cx="86" cy="68" r="2.5" stroke="black" stroke-dasharray="2 2"/>
</svg>
