<svg fill="none" height="100" viewBox="0 0 100 100" width="100" xmlns="http://www.w3.org/2000/svg" xmlns:xlink="http://www.w3.org/1999/xlink"><mask id="a" fill="#fff"><path d="m10 14c0-1.1046.8954-2 2-2h76c1.1046 0 2 .8954 2 2v10h-80z" fill="#fff"/></mask><mask id="b" fill="#fff"><path clip-rule="evenodd" d="m65 50c-.5523 0-1 .4477-1 1v2.5041c-1.468.3778-2.8545.9587-4.1276 1.711l-1.7716-1.7715c-.3905-.3906-1.0237-.3906-1.4142 0l-4.2427 4.2426c-.3905.3905-.3905 1.0237 0 1.4142l1.7715 1.7715c-.7524 1.2733-1.3334 2.6599-1.7113 4.1281h-2.5041c-.5523 0-1 .4477-1 1v6c0 .5523.4477 1 1 1h2.5041c.3778 1.4681.9588 2.8547 1.7112 4.128l-1.7715 1.7715c-.3905.3905-.3905 1.0237 0 1.4142l4.2426 4.2426c.3906.3905 1.0237.3905 1.4143 0l1.7715-1.7715c1.2732.7523 2.6597 1.3333 4.1278 1.7111v2.5041c0 .5523.4477 1 1 1h6c.5523 0 1-.4477 1-1v-2.5041c1.4682-.3779 2.8548-.9589 4.1281-1.7113l1.7717 1.7717c.3905.3905 1.0237.3905 1.4142 0l4.2426-4.2427c.3905-.3905.3905-1.0237 0-1.4142l-1.7717-1.7718c.7523-1.2731 1.3332-2.6596 1.711-4.1276h2.5041c.5523 0 1-.4477 1-1v-6c0-.5523-.4477-1-1-1h-2.5041c-.3778-1.4681-.9588-2.8546-1.7111-4.1278l1.7717-1.7717c.3905-.3905.3905-1.0237 0-1.4142l-4.2426-4.2427c-.3906-.3905-1.0237-.3905-1.4142 0l-1.7717 1.7717c-1.2733-.7524-2.6599-1.3334-4.128-1.7112v-2.5041c0-.5523-.4477-1-1-1zm3 27c4.4183 0 8-3.5817 8-8s-3.5817-8-8-8-8 3.5817-8 8 3.5817 8 8 8z" fill="#fff" fill-rule="evenodd"/></mask><path d="m0 0h100v100h-100z" fill="#fff"/><path clip-rule="evenodd" d="m10 28.5v.4773.0227h1v-.0227-.9773h-.5-.5zm.5 41.5227h-.5v.9773c0 .2712.054.5298.1518.7656l.4618-.1916.4619-.1915c-.0483-.1165-.0755-.2451-.0755-.3825v-.9773zm76.5 2.4773v.5h1c.2712 0 .5298-.054.7656-.1518l-.1915-.4618-.1916-.4619c-.1165.0483-.2451.0755-.3825.0755h-1zm3-43.5227v.0227h-1v-.0227-.4773-.5h.5.5v.5zm-77-.4773v-.5h2v.5.5h-2zm4 0v-.5h2v.5.5h-2zm4 0v-.5h2v.5.5h-2zm4 0v-.5h2v.5.5h-2zm4 0v-.5h2v.5.5h-2zm4 0v-.5h2v.5.5h-2zm4 0v-.5h2v.5.5h-2zm4 0v-.5h2v.5.5h-2zm4 0v-.5h2v.5.5h-2zm4 0v-.5h2v.5.5h-2zm4 0v-.5h2v.5.5h-2zm4 0v-.5h2v.5.5h-2zm4 0v-.5h2v.5.5h-2zm4 0v-.5h2v.5.5h-2zm4 0v-.5h2v.5.5h-2zm4 0v-.5h2v.5.5h-2zm4 0v-.5h2v.5.5h-2zm4 0v-.5h2v.5.5h-2zm4 0v-.5h2v.5.5h-2zm4.5 2.4318h.5v1.9546h-.5-.5v-1.9546zm0 3.9091h.5v1.9546h-.5-.5v-1.9546zm0 3.9091h.5v1.9545h-.5-.5v-1.9545zm0 3.9091h.5v1.9545h-.5-.5v-1.9545zm0 3.9091h.5v1.9545h-.5-.5v-1.9545zm0 3.9091h.5v1.9545h-.5-.5v-1.9545zm0 3.9091h.5v1.9545h-.5-.5v-1.9545zm0 3.9091h.5v1.9545h-.5-.5v-1.9545zm0 3.909h.5v1.9546h-.5-.5v-1.9546zm0 3.9091h.5v1.9546h-.5-.5v-1.9546zm0 3.9091h.5v.9773c0 .2712-.054.5298-.1518.7656l-.4618-.1916-.4619-.1915c.0483-.1165.0755-.2451.0755-.3825v-.9773zm-4.5 2.4773v.5h-2v-.5-.5h2zm-34-.5h2v.5.5h-2v-.5zm-2 .5v.5h-2v-.5-.5h2zm-4 0v.5h-2v-.5-.5h2zm-4 0v.5h-2v-.5-.5h2zm-4 0v.5h-2v-.5-.5h2zm-4 0v.5h-2v-.5-.5h2zm-4 0v.5h-2v-.5-.5h2zm-4 0v.5h-2v-.5-.5h2zm-4 0v.5h-2v-.5-.5h2zm-4 0v.5h-2v-.5-.5h2zm-4 0v.5h-1c-.2712 0-.5298-.054-.7656-.1518l.1916-.4618.1915-.4619c.1165.0483.2451.0755.3825.0755h1zm-2.5-4.4318h-.5v-1.9546h.5.5v1.9546zm0-3.9091h-.5v-1.9546h.5.5v1.9546zm0-3.9091h-.5v-1.9545h.5.5v1.9545zm0-3.9091h-.5v-1.9545h.5.5v1.9545zm0-3.9091h-.5v-1.9545h.5.5v1.9545zm0-3.9091h-.5v-1.9545h.5.5v1.9545zm0-3.9091h-.5v-1.9545h.5.5v1.9545zm0-3.9091h-.5v-1.9545h.5.5v1.9545zm0-3.909h-.5v-1.9546h.5.5v1.9546zm0-3.9091h-.5v-1.9546h.5.5v1.9546z" fill="#000" fill-rule="evenodd"/><path d="m90 24v.8h.8v-.8zm-80 0h-.8v.8h.8zm2-11.2h76v-1.6h-76zm77.2 1.2v10h1.6v-10zm.8 9.2h-80v1.6h80zm-79.2.8v-10h-1.6v10zm77.2-11.2c.6627 0 1.2.5373 1.2 1.2h1.6c0-1.5464-1.2536-2.8-2.8-2.8zm-76-1.6c-1.5464 0-2.8 1.2536-2.8 2.8h1.6c0-.6627.5373-1.2 1.2-1.2z" fill="#000" mask="url(#a)"/><path clip-rule="evenodd" d="m18 18c0 1.1046-.8954 2-2 2s-2-.8954-2-2 .8954-2 2-2 2 .8954 2 2zm7 0c0 1.1046-.8954 2-2 2s-2-.8954-2-2 .8954-2 2-2 2 .8954 2 2zm5 2c1.1046 0 2-.8954 2-2s-.8954-2-2-2-2 .8954-2 2 .8954 2 2 2z" fill="#4fc4f9" fill-rule="evenodd"/><g stroke="#4fc4f9" stroke-width="2"><path d="m23.8 35.96-4.8 5.28 4.8 5.28"/><path d="m38.2 35.96 4.8 5.28-4.8 5.28"/><path d="m33.3996 35-3.84 12.48"/></g><path d="m64 53.5041.4985 1.9368 1.5015-.3864v-1.5504zm-4.1276 1.711-1.4143 1.4143 1.0966 1.0965 1.3351-.7889zm-1.7716-1.7715 1.4142-1.4143zm-5.6569 4.2426 1.4142 1.4142zm0 1.4142-1.4142 1.4142zm1.7715 1.7715 1.7219 1.0175.7889-1.3351-1.0966-1.0966zm-1.7113 4.1281v2h1.5504l.3864-1.5015zm0 8 1.9368-.4985-.3864-1.5015h-1.5504zm1.7112 4.128 1.4142 1.4142 1.0966-1.0966-.7889-1.3351zm-1.7715 1.7715 1.4142 1.4142zm0 1.4142 1.4142-1.4142zm4.2426 4.2426 1.4143-1.4142zm1.4143 0-1.4143-1.4142zm1.7715-1.7715 1.0175-1.7219-1.3351-.7889-1.0966 1.0966zm4.1278 1.7111h2v-1.5504l-1.5015-.3864zm8 0-.4985-1.9368-1.5015.3864v1.5504zm4.1281-1.7113 1.4142-1.4142-1.0966-1.0966-1.3351.7889zm1.7717 1.7717 1.4142-1.4143zm1.4142 0-1.4142-1.4143zm4.2426-4.2427 1.4142 1.4142zm0-1.4142 1.4142-1.4142zm-1.7717-1.7718-1.7219-1.0174-.7889 1.3351 1.0965 1.0966zm1.711-4.1276v-2h-1.5504l-.3864 1.5015zm0-8-1.9368.4985.3864 1.5015h1.5504zm-1.7111-4.1278-1.4142-1.4142-1.0966 1.0966.7889 1.3351zm1.7717-1.7717-1.4142-1.4142zm0-1.4142-1.4142 1.4142zm-4.2426-4.2427-1.4142 1.4142zm-1.4142 0 1.4142 1.4142zm-1.7717 1.7717-1.0175 1.7219 1.3351.7889 1.0966-1.0966zm-4.128-1.7112h-2v1.5504l1.5015.3864zm-6-2.5041c0 .5523-.4477 1-1 1v-4c-1.6569 0-3 1.3431-3 3zm0 2.5041v-2.5041h-4v2.5041zm-5.1102 3.4329c1.1138-.6581 2.3259-1.1659 3.6087-1.4961l-.997-3.8737c-1.6532.4255-3.214 1.0796-4.6466 1.9261zm-4.2032-2.0792 1.7715 1.7716 2.8285-2.8285-1.7716-1.7716zm1.4142 0c-.3905.3905-1.0237.3905-1.4142 0l2.8284-2.8285c-1.1716-1.1715-3.0711-1.1715-4.2426 0zm-4.2427 4.2426 4.2427-4.2426-2.8284-2.8285-4.2427 4.2427zm0-1.4142c.3906.3905.3906 1.0237 0 1.4142l-2.8284-2.8284c-1.1716 1.1716-1.1716 3.0711 0 4.2426zm1.7715 1.7715-1.7715-1.7715-2.8284 2.8284 1.7715 1.7715zm-1.1887 6.0408c.3303-1.283.8381-2.4952 1.4964-3.6091l-3.4437-2.035c-.8466 1.4327-1.5009 2.9937-1.9264 4.6471zm-4.4409 1.5015h2.5041v-4h-2.5041zm1-1c0 .5523-.4477 1-1 1v-4c-1.6569 0-3 1.3431-3 3zm0 6v-6h-4v6zm-1-1c.5523 0 1 .4477 1 1h-4c0 1.6569 1.3431 3 3 3zm2.5041 0h-2.5041v4h2.5041zm3.4331 5.1105c-.6582-1.1139-1.1661-2.3261-1.4963-3.609l-3.8737.997c.4255 1.6533 1.0797 3.2143 1.9263 4.6469zm-2.0792 4.2032 1.7715-1.7715-2.8284-2.8285-1.7715 1.7716zm0-1.4142c.3905.3905.3905 1.0237 0 1.4142l-2.8284-2.8284c-1.1716 1.1715-1.1716 3.071 0 4.2426zm4.2427 4.2426-4.2427-4.2426-2.8284 2.8284 4.2426 4.2426zm-1.4143 0c.3906-.3905 1.0237-.3905 1.4143 0l-2.8285 2.8284c1.1716 1.1716 3.0711 1.1716 4.2427 0zm1.7716-1.7715-1.7716 1.7715 2.8285 2.8284 1.7715-1.7715zm6.0405 1.1885c-1.2829-.3302-2.495-.838-3.6088-1.4962l-2.0349 3.4437c1.4326.8465 2.9935 1.5007 4.6467 1.9262zm1.5015 4.4409v-2.5041h-4v2.5041zm-1-1c.5523 0 1 .4477 1 1h-4c0 1.6569 1.3431 3 3 3zm6 0h-6v4h6zm-1 1c0-.5523.4477-1 1-1v4c1.6569 0 3-1.3431 3-3zm0-2.5041v2.5041h4v-2.5041zm5.1106-3.4332c-1.1139.6583-2.3261 1.1661-3.6091 1.4964l.997 3.8737c1.6534-.4255 3.2144-1.0798 4.6471-1.9264zm4.2034 2.0793-1.7717-1.7716-2.8284 2.8284 1.7717 1.7717zm-1.4142 0c.3905-.3905 1.0237-.3905 1.4142 0l-2.8285 2.8285c1.1716 1.1715 3.0711 1.1715 4.2427 0zm4.2426-4.2426-4.2426 4.2426 2.8284 2.8285 4.2426-4.2427zm0 1.4142c-.3905-.3905-.3905-1.0237 0-1.4142l2.8284 2.8284c1.1716-1.1715 1.1716-3.071 0-4.2426zm-1.7718-1.7717 1.7718 1.7717 2.8284-2.8284-1.7717-1.7718zm1.1885-6.0404c-.3302 1.2828-.838 2.4949-1.4961 3.6087l3.4437 2.0349c.8465-1.4326 1.5006-2.9934 1.9261-4.6466zm4.4409-1.5015h-2.5041v4h2.5041zm-1 1c0-.5523.4477-1 1-1v4c1.6569 0 3-1.3431 3-3zm0-6v6h4v-6zm1 1c-.5523 0-1-.4477-1-1h4c0-1.6569-1.3431-3-3-3zm-2.5041 0h2.5041v-4h-2.5041zm-3.433-5.1103c.6582 1.1138 1.166 2.3259 1.4962 3.6088l3.8737-.997c-.4255-1.6532-1.0797-3.2142-1.9262-4.6467zm2.0794-4.2034-1.7717 1.7717 2.8284 2.8284 1.7717-1.7717zm0 1.4142c-.3905-.3905-.3905-1.0237 0-1.4142l2.8284 2.8284c1.1716-1.1716 1.1716-3.0711 0-4.2427zm-4.2426-4.2427 4.2426 4.2427 2.8284-2.8284-4.2426-4.2427zm1.4142 0c-.3906.3906-1.0237.3906-1.4142 0l2.8284-2.8284c-1.1716-1.1716-3.0711-1.1716-4.2427 0zm-1.7717 1.7717 1.7717-1.7717-2.8285-2.8284-1.7717 1.7717zm-6.0407-1.1886c1.2829.3302 2.4951.8381 3.609 1.4963l2.0349-3.4437c-1.4326-.8466-2.9936-1.5008-4.6469-1.9263zm-1.5015-4.4409v2.5041h4v-2.5041zm1 1c-.5523 0-1-.4477-1-1h4c0-1.6569-1.3431-3-3-3zm-6 0h6v-4h-6zm9 17c0 3.3137-2.6863 6-6 6v4c5.5228 0 10-4.4772 10-10zm-6-6c3.3137 0 6 2.6863 6 6h4c0-5.5228-4.4772-10-10-10zm-6 6c0-3.3137 2.6863-6 6-6v-4c-5.5228 0-10 4.4772-10 10zm6 6c-3.3137 0-6-2.6863-6-6h-4c0 5.5228 4.4772 10 10 10z" fill="#4fc4f9" mask="url(#b)"/></svg>