<svg width="100" height="100" viewBox="0 0 100 100" fill="none" xmlns="http://www.w3.org/2000/svg">
  <g clip-path="url(#clip0_3998_3947)">
    <rect width="100" height="100" fill="white" />
    <path fill-rule="evenodd" clip-rule="evenodd"
      d="M35.4464 26.2232C35.4464 28.5556 33.5556 30.4464 31.2232 30.4464C28.8908 30.4464 27 28.5556 27 26.2232C27 23.8908 28.8908 22 31.2232 22C33.5556 22 35.4464 23.8908 35.4464 26.2232ZM35.4464 43.1157C35.4464 45.4481 33.5556 47.3389 31.2232 47.3389C28.8908 47.3389 27 45.4481 27 43.1157C27 40.7833 28.8908 38.8925 31.2232 38.8925C33.5556 38.8925 35.4464 40.7833 35.4464 43.1157ZM31.2232 64.2318C33.5556 64.2318 35.4464 62.3411 35.4464 60.0087C35.4464 57.6763 33.5556 55.7855 31.2232 55.7855C28.8908 55.7855 27 57.6763 27 60.0087C27 62.3411 28.8908 64.2318 31.2232 64.2318ZM35.4464 76.9012C35.4464 79.2336 33.5556 81.1243 31.2232 81.1243C28.8908 81.1243 27 79.2336 27 76.9012C27 74.5688 28.8908 72.678 31.2232 72.678C33.5556 72.678 35.4464 74.5688 35.4464 76.9012ZM48.1162 30.4464C50.4485 30.4464 52.3393 28.5556 52.3393 26.2232C52.3393 23.8908 50.4485 22 48.1162 22C45.7838 22 43.893 23.8908 43.893 26.2232C43.893 28.5556 45.7838 30.4464 48.1162 30.4464ZM52.3393 43.1157C52.3393 45.4481 50.4485 47.3389 48.1162 47.3389C45.7838 47.3389 43.893 45.4481 43.893 43.1157C43.893 40.7833 45.7838 38.8925 48.1162 38.8925C50.4485 38.8925 52.3393 40.7833 52.3393 43.1157ZM48.1162 64.2318C50.4485 64.2318 52.3393 62.3411 52.3393 60.0087C52.3393 57.6763 50.4485 55.7855 48.1162 55.7855C45.7838 55.7855 43.893 57.6763 43.893 60.0087C43.893 62.3411 45.7838 64.2318 48.1162 64.2318ZM52.3393 76.9012C52.3393 79.2336 50.4485 81.1243 48.1162 81.1243C45.7838 81.1243 43.893 79.2336 43.893 76.9012C43.893 74.5688 45.7838 72.678 48.1162 72.678C50.4485 72.678 52.3393 74.5688 52.3393 76.9012ZM65.0082 30.4464C67.3406 30.4464 69.2314 28.5556 69.2314 26.2232C69.2314 23.8908 67.3406 22 65.0082 22C62.6758 22 60.785 23.8908 60.785 26.2232C60.785 28.5556 62.6758 30.4464 65.0082 30.4464ZM69.2314 43.1157C69.2314 45.4481 67.3406 47.3389 65.0082 47.3389C62.6758 47.3389 60.785 45.4481 60.785 43.1157C60.785 40.7833 62.6758 38.8925 65.0082 38.8925C67.3406 38.8925 69.2314 40.7833 69.2314 43.1157ZM65.0082 64.2318C67.3406 64.2318 69.2314 62.3411 69.2314 60.0087C69.2314 57.6763 67.3406 55.7855 65.0082 55.7855C62.6758 55.7855 60.785 57.6763 60.785 60.0087C60.785 62.3411 62.6758 64.2318 65.0082 64.2318ZM63.415 80.9806L66.5842 73.149C66.0972 72.953 65.5653 72.8451 65.0082 72.8451C62.6758 72.8451 60.785 74.7359 60.785 77.0683C60.785 78.837 61.8723 80.3518 63.415 80.9806ZM81.9012 30.4464C84.2336 30.4464 86.1243 28.5556 86.1243 26.2232C86.1243 23.8908 84.2336 22 81.9012 22C79.5688 22 77.678 23.8908 77.678 26.2232C77.678 28.5556 79.5688 30.4464 81.9012 30.4464ZM86.1243 43.1157C86.1243 45.4481 84.2336 47.3389 81.9012 47.3389C79.5688 47.3389 77.678 45.4481 77.678 43.1157C77.678 40.7833 79.5688 38.8925 81.9012 38.8925C84.2336 38.8925 86.1243 40.7833 86.1243 43.1157ZM82.2478 55.7995C82.1335 55.7902 82.0179 55.7855 81.9012 55.7855C81.8663 55.7855 81.8316 55.7859 81.797 55.7867L82.2478 55.7995Z"
      fill="#4FC4F9" />
    <path fill-rule="evenodd" clip-rule="evenodd"
      d="M85.4867 71.0039L89.9748 61.7868L90.3579 61H89.4828H75.3702L69.488 77.0007L69.1987 77.7875H70.037H75.9115H76.71L76.5739 78.5743L74.3282 91.5581L74.0477 93.1796L75.0693 91.8896L90.3759 72.5609L91.0007 71.772L89.9943 71.7754L85.9795 71.789L85.1029 71.792L85.4867 71.0039ZM89.3696 72.5643L85.1056 72.5787L83.8426 72.583L84.3955 71.4475L89.0997 61.7868H75.9192L70.3262 77.0007H76.71H77.6446L77.4853 77.9216L75.3498 90.2681L89.3696 72.5643Z"
      fill="black" />
    <circle cx="31.251" cy="26.5305" r="17.4907" transform="rotate(45 31.251 26.5305)" stroke="black"
      stroke-dasharray="2 2" />
    <path d="M19.166 38.6143L5.80863 51.9716" stroke="black" />
  </g>
  <defs>
    <clipPath id="clip0_3998_3947">
      <rect width="100" height="100" fill="white" />
    </clipPath>
  </defs>
</svg>