<svg width="511" height="316" viewBox="0 0 511 316" fill="none" xmlns="http://www.w3.org/2000/svg">
<mask id="path-1-outside-1_1339_1018" maskUnits="userSpaceOnUse" x="48.3154" y="0" width="463" height="316" fill="black">
<rect fill="white" x="48.3154" width="463" height="316"/>
<path fill-rule="evenodd" clip-rule="evenodd" d="M374.67 46.9607C313.611 -14.3202 214.598 -14.3202 153.539 46.9607L53.74 147.12C47.8406 153.047 47.8406 162.591 53.74 168.518L153.539 268.677C214.598 329.958 313.611 329.958 374.67 268.777C435.828 207.597 435.828 108.242 374.67 46.9607ZM351.072 239.342C306.237 284.349 233.477 284.349 188.641 239.342L115.193 165.705C110.866 161.385 110.866 154.353 115.193 149.933L188.543 76.3956C233.378 31.3893 306.138 31.3893 350.974 76.3956C395.908 121.402 395.908 194.336 351.072 239.342ZM505.435 147.219L461.484 102.313C458.83 99.6011 454.405 102.113 455.29 105.83C462.861 140.087 462.861 175.851 455.29 210.108C454.503 213.825 458.928 216.236 461.484 213.624L505.435 168.718C511.236 162.69 511.236 153.146 505.435 147.219ZM347.334 157.97C347.334 201.413 312.865 236.63 270.346 236.63C227.827 236.63 193.358 201.413 193.358 157.97C193.358 114.527 227.827 79.3093 270.346 79.3093C312.865 79.3093 347.334 114.527 347.334 157.97Z"/>
</mask>
<path fill-rule="evenodd" clip-rule="evenodd" d="M374.67 46.9607C313.611 -14.3202 214.598 -14.3202 153.539 46.9607L53.74 147.12C47.8406 153.047 47.8406 162.591 53.74 168.518L153.539 268.677C214.598 329.958 313.611 329.958 374.67 268.777C435.828 207.597 435.828 108.242 374.67 46.9607ZM351.072 239.342C306.237 284.349 233.477 284.349 188.641 239.342L115.193 165.705C110.866 161.385 110.866 154.353 115.193 149.933L188.543 76.3956C233.378 31.3893 306.138 31.3893 350.974 76.3956C395.908 121.402 395.908 194.336 351.072 239.342ZM505.435 147.219L461.484 102.313C458.83 99.6011 454.405 102.113 455.29 105.83C462.861 140.087 462.861 175.851 455.29 210.108C454.503 213.825 458.928 216.236 461.484 213.624L505.435 168.718C511.236 162.69 511.236 153.146 505.435 147.219ZM347.334 157.97C347.334 201.413 312.865 236.63 270.346 236.63C227.827 236.63 193.358 201.413 193.358 157.97C193.358 114.527 227.827 79.3093 270.346 79.3093C312.865 79.3093 347.334 114.527 347.334 157.97Z" fill="url(#paint0_linear_1339_1018)"/>
<path d="M153.539 46.9607L154.247 47.6665L154.247 47.6665L153.539 46.9607ZM374.67 46.9607L373.962 47.6665L373.962 47.667L374.67 46.9607ZM53.74 147.12L53.0316 146.414L53.0313 146.414L53.74 147.12ZM53.74 168.518L53.0313 169.223L53.0316 169.224L53.74 168.518ZM153.539 268.677L154.247 267.971L154.247 267.971L153.539 268.677ZM374.67 268.777L373.963 268.07L373.962 268.071L374.67 268.777ZM188.641 239.342L189.349 238.637L189.349 238.636L188.641 239.342ZM351.072 239.342L351.781 240.048L351.072 239.342ZM115.193 165.705L115.901 164.999L115.899 164.997L115.193 165.705ZM115.193 149.933L114.485 149.226L114.478 149.233L115.193 149.933ZM188.543 76.3956L189.251 77.1018L189.251 77.1013L188.543 76.3956ZM350.974 76.3956L350.266 77.1013L350.266 77.1021L350.974 76.3956ZM461.484 102.313L462.199 101.614L461.484 102.313ZM505.435 147.219L504.721 147.919L505.435 147.219ZM455.29 105.83L456.266 105.614L456.265 105.606L456.263 105.598L455.29 105.83ZM455.29 210.108L454.313 209.892L454.312 209.9L455.29 210.108ZM461.484 213.624L462.199 214.323V214.323L461.484 213.624ZM505.435 168.718L506.15 169.417L506.156 169.411L505.435 168.718ZM154.247 47.6665C214.916 -13.2222 313.293 -13.2222 373.962 47.6665L375.379 46.2548C313.928 -15.4183 214.281 -15.4183 152.831 46.2548L154.247 47.6665ZM54.4484 147.826L154.247 47.6665L152.831 46.2548L53.0316 146.414L54.4484 147.826ZM54.4488 167.812C48.9376 162.275 48.9376 153.362 54.4488 147.825L53.0313 146.414C46.7435 152.732 46.7435 162.906 53.0313 169.223L54.4488 167.812ZM154.247 267.971L54.4484 167.812L53.0316 169.224L152.831 269.383L154.247 267.971ZM373.962 268.071C313.294 328.86 214.916 328.86 154.247 267.971L152.831 269.383C214.281 331.056 313.928 331.056 375.378 269.484L373.962 268.071ZM373.962 47.667C434.731 108.558 434.73 207.281 373.963 268.07L375.378 269.484C436.926 207.913 436.925 107.925 375.378 46.2543L373.962 47.667ZM187.932 240.048C233.159 285.447 306.554 285.447 351.781 240.048L350.364 238.637C305.919 283.251 233.794 283.251 189.349 238.637L187.932 240.048ZM114.485 166.411L187.933 240.049L189.349 238.636L115.901 164.999L114.485 166.411ZM114.478 149.233C109.776 154.038 109.764 161.698 114.486 166.413L115.899 164.997C111.969 161.073 111.957 154.668 115.907 150.632L114.478 149.233ZM187.835 75.6894L114.485 149.226L115.901 150.639L189.251 77.1018L187.835 75.6894ZM351.683 75.6898C306.456 30.2912 233.061 30.2912 187.834 75.6898L189.251 77.1013C233.696 32.4874 305.821 32.4874 350.266 77.1013L351.683 75.6898ZM351.781 240.048C397.006 194.652 397.006 121.086 351.682 75.689L350.266 77.1021C394.811 121.718 394.811 194.021 350.364 238.637L351.781 240.048ZM460.77 103.013L504.721 147.919L506.15 146.52L462.199 101.614L460.77 103.013ZM456.263 105.598C455.599 102.809 458.866 101.068 460.77 103.013L462.199 101.614C458.793 98.1339 453.211 101.417 454.317 106.061L456.263 105.598ZM456.266 210.323C463.869 175.924 463.869 140.013 456.266 105.614L454.313 106.045C461.853 140.16 461.853 175.777 454.313 209.892L456.266 210.323ZM460.77 212.924C458.971 214.761 455.672 213.134 456.268 210.315L454.312 209.9C453.335 214.515 458.884 217.71 462.199 214.323L460.77 212.924ZM504.721 168.018L460.77 212.924L462.199 214.323L506.15 169.417L504.721 168.018ZM504.721 147.919C510.138 153.454 510.146 162.381 504.715 168.024L506.156 169.411C512.326 163 512.335 152.839 506.15 146.52L504.721 147.919ZM270.346 237.63C313.438 237.63 348.334 201.945 348.334 157.97H346.334C346.334 200.881 312.293 235.63 270.346 235.63V237.63ZM192.358 157.97C192.358 201.945 227.255 237.63 270.346 237.63V235.63C228.399 235.63 194.358 200.881 194.358 157.97H192.358ZM270.346 78.3093C227.255 78.3093 192.358 113.995 192.358 157.97H194.358C194.358 115.059 228.399 80.3093 270.346 80.3093V78.3093ZM348.334 157.97C348.334 113.995 313.438 78.3093 270.346 78.3093V80.3093C312.293 80.3093 346.334 115.059 346.334 157.97H348.334Z" fill="url(#paint1_linear_1339_1018)" mask="url(#path-1-outside-1_1339_1018)"/>
<path d="M21.6926 116.026C20.6949 116.009 20.2933 114.734 21.1014 114.149L25.8451 110.715C26.8878 109.96 27.7401 108.972 28.3346 107.83C28.9292 106.688 29.2495 105.423 29.2703 104.136L29.3665 98.2829C29.3831 97.2853 30.6581 96.8837 31.2434 97.6917L34.6774 102.435C35.4328 103.478 36.4207 104.33 37.5627 104.925C38.7047 105.519 39.9695 105.84 41.2569 105.861L47.1096 105.957C47.3277 105.959 47.5395 106.031 47.7146 106.161C47.8897 106.291 48.0193 106.473 48.0849 106.681C48.1504 106.889 48.1486 107.113 48.0796 107.32C48.0106 107.527 47.878 107.707 47.7008 107.834L42.9571 111.268C41.9146 112.023 41.0623 113.01 40.4677 114.152C39.873 115.293 39.5524 116.558 39.5311 117.844L39.4357 123.7C39.4331 123.918 39.3616 124.13 39.2316 124.305C39.1015 124.48 38.9194 124.61 38.7113 124.675C38.5033 124.741 38.2798 124.739 38.0728 124.67C37.8659 124.601 37.686 124.468 37.5588 124.291L34.1248 119.547C33.3698 118.505 32.3824 117.653 31.2409 117.058C30.0993 116.463 28.835 116.143 27.5481 116.121L21.6926 116.026ZM11.071 130.989C10.9402 130.987 10.8133 130.944 10.7083 130.866C10.6034 130.788 10.5257 130.679 10.4864 130.554C10.4471 130.429 10.4481 130.295 10.4893 130.171C10.5305 130.047 10.6098 129.939 10.716 129.862L13.5616 127.802C14.8298 126.882 15.5907 125.421 15.6176 123.855L15.675 120.342C15.6769 120.212 15.72 120.085 15.7982 119.98C15.8764 119.875 15.9856 119.797 16.1104 119.758C16.2352 119.719 16.3692 119.72 16.4934 119.761C16.6176 119.802 16.7257 119.881 16.8022 119.987L18.8625 122.833C19.3155 123.459 19.9081 123.97 20.5931 124.327C21.2782 124.684 22.0369 124.876 22.8092 124.889L26.322 124.946C26.4528 124.948 26.5797 124.991 26.6847 125.07C26.7896 125.148 26.8672 125.257 26.9066 125.382C26.9459 125.507 26.9449 125.641 26.9036 125.765C26.8624 125.889 26.7831 125.997 26.677 126.074L23.8313 128.134C23.2057 128.587 22.6942 129.179 22.3373 129.865C21.9805 130.55 21.7881 131.308 21.7754 132.081L21.718 135.593C21.716 135.724 21.6729 135.851 21.5948 135.956C21.5166 136.061 21.4074 136.139 21.2826 136.178C21.1578 136.217 21.0237 136.216 20.8995 136.175C20.7753 136.134 20.6673 136.055 20.5907 135.948L18.5305 133.103C18.0775 132.477 17.4849 131.966 16.7999 131.609C16.1148 131.252 15.3561 131.06 14.5837 131.047L11.071 130.989ZM2.10892 112.553C2.02251 112.55 1.93902 112.521 1.87005 112.469C1.80108 112.417 1.75006 112.344 1.72409 112.262C1.69812 112.18 1.69848 112.091 1.72513 112.009C1.75178 111.927 1.80339 111.855 1.87279 111.803L3.76809 110.43C4.61563 109.817 5.12353 108.842 5.13998 107.797L5.17883 105.457C5.1813 105.37 5.21063 105.287 5.26275 105.218C5.31487 105.149 5.38718 105.098 5.46963 105.072C5.55208 105.046 5.64058 105.046 5.72281 105.073C5.80505 105.1 5.87694 105.151 5.92849 105.221L7.3014 107.116C7.60354 107.533 7.99888 107.875 8.45604 108.113C8.91319 108.351 9.41957 108.48 9.93497 108.488L12.275 108.527C12.3614 108.529 12.4449 108.558 12.5138 108.611C12.5828 108.663 12.6338 108.735 12.6598 108.817C12.6858 108.9 12.6854 108.988 12.6587 109.071C12.6321 109.153 12.5805 109.225 12.5111 109.276L10.6158 110.649C10.1982 110.951 9.85672 111.347 9.61858 111.804C9.38043 112.261 9.25214 112.767 9.2439 113.283L9.20419 115.62C9.20172 115.706 9.17239 115.79 9.12027 115.859C9.06815 115.928 8.99584 115.979 8.91339 116.005C8.83094 116.031 8.74244 116.03 8.6602 116.004C8.57797 115.977 8.50608 115.926 8.45453 115.856L7.08162 113.961C6.4688 113.113 5.4938 112.605 4.44805 112.589L2.11166 112.552L2.10892 112.553Z" fill="url(#paint2_linear_1339_1018)"/>
<path d="M488.511 227.556C487.93 227.173 488.171 226.272 488.866 226.231L492.942 225.987C493.838 225.933 494.709 225.671 495.486 225.222C496.264 224.773 496.926 224.149 497.42 223.4L499.668 219.994C500.052 219.413 500.952 219.655 500.993 220.349L501.237 224.425C501.291 225.321 501.553 226.192 502.002 226.969C502.451 227.747 503.075 228.409 503.824 228.903L507.23 231.151C507.357 231.234 507.455 231.356 507.51 231.498C507.564 231.64 507.572 231.796 507.533 231.942C507.493 232.089 507.408 232.22 507.29 232.316C507.172 232.412 507.027 232.468 506.875 232.477L502.799 232.72C501.903 232.774 501.032 233.035 500.255 233.484C499.478 233.933 498.816 234.556 498.321 235.305L496.073 238.713C495.99 238.841 495.868 238.938 495.726 238.993C495.584 239.047 495.428 239.055 495.282 239.016C495.135 238.976 495.004 238.891 494.908 238.773C494.812 238.655 494.756 238.51 494.748 238.358L494.504 234.282C494.45 233.386 494.189 232.515 493.74 231.738C493.291 230.961 492.668 230.299 491.919 229.805L488.511 227.556ZM476.661 232.379C476.584 232.329 476.526 232.256 476.493 232.171C476.461 232.086 476.456 231.992 476.48 231.904C476.503 231.816 476.554 231.738 476.625 231.68C476.696 231.622 476.783 231.589 476.874 231.583L479.319 231.437C480.409 231.371 481.404 230.797 482.006 229.886L483.355 227.841C483.405 227.765 483.478 227.706 483.564 227.674C483.649 227.642 483.742 227.637 483.83 227.66C483.918 227.684 483.997 227.735 484.054 227.806C484.112 227.876 484.146 227.963 484.151 228.054L484.297 230.5C484.329 231.037 484.486 231.56 484.756 232.026C485.025 232.493 485.399 232.89 485.849 233.187L487.893 234.536C487.969 234.586 488.028 234.659 488.06 234.744C488.093 234.829 488.098 234.923 488.074 235.011C488.05 235.099 488 235.177 487.929 235.235C487.858 235.293 487.771 235.326 487.68 235.332L485.235 235.478C484.697 235.51 484.174 235.667 483.708 235.936C483.242 236.206 482.844 236.58 482.548 237.029L481.199 239.074C481.148 239.15 481.076 239.209 480.99 239.241C480.905 239.273 480.812 239.278 480.724 239.255C480.635 239.231 480.557 239.18 480.499 239.109C480.442 239.039 480.408 238.952 480.403 238.861L480.256 236.415C480.224 235.878 480.067 235.355 479.798 234.889C479.529 234.422 479.155 234.025 478.705 233.728L476.661 232.379ZM478.293 218.18C478.243 218.146 478.205 218.098 478.184 218.041C478.163 217.985 478.16 217.923 478.176 217.865C478.191 217.806 478.225 217.755 478.271 217.716C478.318 217.678 478.375 217.655 478.435 217.651L480.064 217.553C480.792 217.51 481.456 217.126 481.857 216.518L482.756 215.156C482.79 215.106 482.838 215.068 482.895 215.047C482.951 215.026 483.013 215.023 483.071 215.038C483.129 215.054 483.181 215.087 483.22 215.134C483.258 215.18 483.281 215.238 483.285 215.298L483.383 216.926C483.404 217.285 483.509 217.634 483.689 217.945C483.869 218.257 484.118 218.522 484.418 218.719L485.78 219.619C485.83 219.652 485.868 219.701 485.889 219.757C485.91 219.814 485.913 219.875 485.897 219.934C485.882 219.992 485.849 220.044 485.802 220.082C485.756 220.121 485.698 220.144 485.638 220.148L484.009 220.246C483.651 220.267 483.302 220.372 482.991 220.551C482.679 220.731 482.414 220.981 482.216 221.281L481.318 222.641C481.284 222.691 481.235 222.729 481.179 222.75C481.123 222.771 481.061 222.774 481.003 222.758C480.944 222.742 480.893 222.709 480.854 222.663C480.816 222.616 480.793 222.559 480.788 222.499L480.691 220.87C480.648 220.142 480.264 219.478 479.656 219.077L478.295 218.18L478.293 218.18Z" fill="url(#paint3_linear_1339_1018)"/>
<defs>
<linearGradient id="paint0_linear_1339_1018" x1="279.551" y1="1" x2="279.551" y2="236" gradientUnits="userSpaceOnUse">
<stop stop-color="#B1E8FF"/>
<stop offset="1" stop-color="white" stop-opacity="0"/>
</linearGradient>
<linearGradient id="paint1_linear_1339_1018" x1="279.551" y1="1" x2="279.551" y2="205.5" gradientUnits="userSpaceOnUse">
<stop stop-color="#008DC8"/>
<stop offset="1" stop-color="#FAFAFA"/>
</linearGradient>
<linearGradient id="paint2_linear_1339_1018" x1="21.8878" y1="99.8943" x2="32.2305" y2="132.73" gradientUnits="userSpaceOnUse">
<stop stop-color="#94DFFF"/>
<stop offset="1" stop-color="#00B3FF"/>
</linearGradient>
<linearGradient id="paint3_linear_1339_1018" x1="494.666" y1="218.141" x2="488.454" y2="241.326" gradientUnits="userSpaceOnUse">
<stop stop-color="#94DFFF"/>
<stop offset="1" stop-color="#00B3FF"/>
</linearGradient>
</defs>
</svg>
