<svg width="463" height="316" viewBox="0 0 463 316" fill="none" xmlns="http://www.w3.org/2000/svg">
<mask id="path-1-outside-1_1209_5146" maskUnits="userSpaceOnUse" x="0.316406" y="0" width="463" height="316" fill="black">
<rect fill="white" x="0.316406" width="463" height="316"/>
<path fill-rule="evenodd" clip-rule="evenodd" d="M326.671 46.9607C265.612 -14.3202 166.599 -14.3202 105.54 46.9607L5.741 147.12C-0.158457 153.047 -0.158457 162.591 5.741 168.518L105.54 268.677C166.599 329.958 265.612 329.958 326.671 268.777C387.829 207.597 387.829 108.242 326.671 46.9607ZM303.073 239.342C258.238 284.349 185.478 284.349 140.642 239.342L67.1936 165.705C62.8674 161.385 62.8674 154.353 67.1936 149.933L140.543 76.3956C185.379 31.3893 258.139 31.3893 302.975 76.3956C347.909 121.402 347.909 194.336 303.073 239.342ZM457.436 147.219L413.485 102.313C410.831 99.6011 406.406 102.113 407.291 105.83C414.862 140.087 414.862 175.851 407.291 210.108C406.504 213.825 410.929 216.236 413.485 213.624L457.436 168.718C463.237 162.69 463.237 153.146 457.436 147.219ZM299.335 157.97C299.335 201.413 264.866 236.63 222.347 236.63C179.828 236.63 145.359 201.413 145.359 157.97C145.359 114.527 179.828 79.3093 222.347 79.3093C264.866 79.3093 299.335 114.527 299.335 157.97Z"/>
</mask>
<path fill-rule="evenodd" clip-rule="evenodd" d="M326.671 46.9607C265.612 -14.3202 166.599 -14.3202 105.54 46.9607L5.741 147.12C-0.158457 153.047 -0.158457 162.591 5.741 168.518L105.54 268.677C166.599 329.958 265.612 329.958 326.671 268.777C387.829 207.597 387.829 108.242 326.671 46.9607ZM303.073 239.342C258.238 284.349 185.478 284.349 140.642 239.342L67.1936 165.705C62.8674 161.385 62.8674 154.353 67.1936 149.933L140.543 76.3956C185.379 31.3893 258.139 31.3893 302.975 76.3956C347.909 121.402 347.909 194.336 303.073 239.342ZM457.436 147.219L413.485 102.313C410.831 99.6011 406.406 102.113 407.291 105.83C414.862 140.087 414.862 175.851 407.291 210.108C406.504 213.825 410.929 216.236 413.485 213.624L457.436 168.718C463.237 162.69 463.237 153.146 457.436 147.219ZM299.335 157.97C299.335 201.413 264.866 236.63 222.347 236.63C179.828 236.63 145.359 201.413 145.359 157.97C145.359 114.527 179.828 79.3093 222.347 79.3093C264.866 79.3093 299.335 114.527 299.335 157.97Z" fill="url(#paint0_linear_1209_5146)"/>
<path d="M105.54 46.9607L106.248 47.6665L106.248 47.6665L105.54 46.9607ZM326.671 46.9607L325.963 47.6665L325.963 47.667L326.671 46.9607ZM5.741 147.12L5.03262 146.414L5.03223 146.414L5.741 147.12ZM5.741 168.518L5.03223 169.223L5.03262 169.224L5.741 168.518ZM105.54 268.677L106.248 267.971L106.248 267.971L105.54 268.677ZM326.671 268.777L325.964 268.07L325.963 268.071L326.671 268.777ZM140.642 239.342L141.35 238.637L141.35 238.636L140.642 239.342ZM303.073 239.342L303.782 240.048L303.073 239.342ZM67.1936 165.705L67.9016 164.999L67.9002 164.997L67.1936 165.705ZM67.1936 149.933L66.4856 149.226L66.479 149.233L67.1936 149.933ZM140.543 76.3956L141.251 77.1018L141.252 77.1013L140.543 76.3956ZM302.975 76.3956L302.267 77.1013L302.267 77.1021L302.975 76.3956ZM413.485 102.313L414.2 101.614L413.485 102.313ZM457.436 147.219L456.722 147.919L457.436 147.219ZM407.291 105.83L408.267 105.614L408.266 105.606L408.264 105.598L407.291 105.83ZM407.291 210.108L406.314 209.892L406.313 209.9L407.291 210.108ZM413.485 213.624L414.2 214.323V214.323L413.485 213.624ZM457.436 168.718L458.151 169.417L458.157 169.411L457.436 168.718ZM106.248 47.6665C166.917 -13.2222 265.294 -13.2222 325.963 47.6665L327.38 46.2548C265.929 -15.4183 166.282 -15.4183 104.832 46.2548L106.248 47.6665ZM6.44937 147.826L106.248 47.6665L104.832 46.2548L5.03262 146.414L6.44937 147.826ZM6.44976 167.812C0.938623 162.275 0.938622 153.362 6.44976 147.825L5.03223 146.414C-1.25554 152.732 -1.25554 162.906 5.03223 169.223L6.44976 167.812ZM106.248 267.971L6.44937 167.812L5.03262 169.224L104.832 269.383L106.248 267.971ZM325.963 268.071C265.295 328.86 166.917 328.86 106.248 267.971L104.832 269.383C166.282 331.056 265.929 331.056 327.379 269.484L325.963 268.071ZM325.963 47.667C386.732 108.558 386.731 207.281 325.964 268.07L327.378 269.484C388.927 207.913 388.926 107.925 327.379 46.2543L325.963 47.667ZM139.933 240.048C185.16 285.447 258.555 285.447 303.782 240.048L302.365 238.637C257.92 283.251 185.795 283.251 141.35 238.637L139.933 240.048ZM66.4856 166.411L139.934 240.049L141.35 238.636L67.9016 164.999L66.4856 166.411ZM66.479 149.233C61.7767 154.038 61.7651 161.698 66.487 166.413L67.9002 164.997C63.9696 161.073 63.958 154.668 67.9083 150.632L66.479 149.233ZM139.835 75.6894L66.4856 149.226L67.9016 150.639L141.251 77.1018L139.835 75.6894ZM303.684 75.6898C258.457 30.2912 185.062 30.2912 139.835 75.6898L141.252 77.1013C185.697 32.4874 257.822 32.4874 302.267 77.1013L303.684 75.6898ZM303.782 240.048C349.007 194.652 349.007 121.086 303.683 75.689L302.267 77.1021C346.812 121.718 346.812 194.021 302.365 238.637L303.782 240.048ZM412.771 103.013L456.722 147.919L458.151 146.52L414.2 101.614L412.771 103.013ZM408.264 105.598C407.6 102.809 410.867 101.068 412.771 103.013L414.2 101.614C410.794 98.1339 405.212 101.417 406.318 106.061L408.264 105.598ZM408.267 210.323C415.87 175.924 415.87 140.013 408.267 105.614L406.314 106.045C413.854 140.16 413.854 175.777 406.314 209.892L408.267 210.323ZM412.771 212.924C410.972 214.761 407.672 213.134 408.269 210.315L406.313 209.9C405.336 214.515 410.885 217.71 414.2 214.323L412.771 212.924ZM456.722 168.018L412.771 212.924L414.2 214.323L458.151 169.417L456.722 168.018ZM456.722 147.919C462.139 153.454 462.147 162.381 456.716 168.024L458.157 169.411C464.327 163 464.336 152.839 458.151 146.52L456.722 147.919ZM222.347 237.63C265.439 237.63 300.335 201.945 300.335 157.97H298.335C298.335 200.881 264.294 235.63 222.347 235.63V237.63ZM144.359 157.97C144.359 201.945 179.256 237.63 222.347 237.63V235.63C180.4 235.63 146.359 200.881 146.359 157.97H144.359ZM222.347 78.3093C179.256 78.3093 144.359 113.995 144.359 157.97H146.359C146.359 115.059 180.4 80.3093 222.347 80.3093V78.3093ZM300.335 157.97C300.335 113.995 265.439 78.3093 222.347 78.3093V80.3093C264.294 80.3093 298.335 115.059 298.335 157.97H300.335Z" fill="url(#paint1_linear_1209_5146)" mask="url(#path-1-outside-1_1209_5146)"/>
<defs>
<linearGradient id="paint0_linear_1209_5146" x1="231.552" y1="1" x2="231.552" y2="236" gradientUnits="userSpaceOnUse">
<stop stop-color="#B1E8FF"/>
<stop offset="1" stop-color="white" stop-opacity="0"/>
</linearGradient>
<linearGradient id="paint1_linear_1209_5146" x1="231.552" y1="1" x2="231.552" y2="205.5" gradientUnits="userSpaceOnUse">
<stop stop-color="#008DC8"/>
<stop offset="1" stop-color="#FAFAFA"/>
</linearGradient>
</defs>
</svg>
