<svg width="100" height="100" viewBox="0 0 100 100" fill="none" xmlns="http://www.w3.org/2000/svg">
<rect width="100" height="100" fill="white"/>
<mask id="path-1-inside-1_3998_3894" fill="white">
<path fill-rule="evenodd" clip-rule="evenodd" d="M28.5 36C27.9477 36 27.5 36.4477 27.5 37V41.2559C25.2977 41.8227 23.2178 42.6942 21.3078 43.8229L18.2972 40.8122C17.9066 40.4217 17.2735 40.4217 16.883 40.8122L9.81188 47.8833C9.42136 48.2738 9.42136 48.907 9.81188 49.2975L12.8226 52.3082C11.6941 54.2181 10.8226 56.2979 10.2559 58.5H6C5.44771 58.5 5 58.9478 5 59.5V69.5C5 70.0523 5.44771 70.5 6 70.5H10.256C10.8228 72.7022 11.6943 74.7819 12.8228 76.6918L9.81178 79.7028C9.42126 80.0934 9.42126 80.7265 9.81178 81.1171L16.8828 88.1881C17.2734 88.5786 17.9065 88.5786 18.2971 88.1881L21.3082 85.177C23.218 86.3055 25.2978 87.177 27.5 87.7437V92C27.5 92.5523 27.9477 93 28.5 93H38.5C39.0522 93 39.5 92.5523 39.5 92V87.7437C41.7019 87.1769 43.7816 86.3055 45.6914 85.177L48.7028 88.1884C49.0933 88.5789 49.7264 88.5789 50.117 88.1884L57.188 81.1173C57.5786 80.7268 57.5786 80.0936 57.188 79.7031L54.1768 76.6918C55.3053 74.782 56.1768 72.7022 56.7436 70.5H61C61.5523 70.5 62 70.0523 62 69.5V59.5C62 58.9478 61.5523 58.5 61 58.5H56.7438C56.177 56.2979 55.3055 54.2181 54.177 52.3082L57.1879 49.2972C57.5785 48.9067 57.5785 48.2736 57.1879 47.883L50.1169 40.812C49.7263 40.4214 49.0932 40.4214 48.7027 40.812L45.6918 43.8228C43.7819 42.6943 41.7021 41.8228 39.5 41.256V37C39.5 36.4477 39.0522 36 38.5 36H28.5ZM33.4999 76.4999C40.1273 76.4999 45.4999 71.1273 45.4999 64.4999C45.4999 57.8725 40.1273 52.4999 33.4999 52.4999C26.8725 52.4999 21.4999 57.8725 21.4999 64.4999C21.4999 71.1273 26.8725 76.4999 33.4999 76.4999Z"/>
</mask>
<path fill-rule="evenodd" clip-rule="evenodd" d="M28.5 36C27.9477 36 27.5 36.4477 27.5 37V41.2559C25.2977 41.8227 23.2178 42.6942 21.3078 43.8229L18.2972 40.8122C17.9066 40.4217 17.2735 40.4217 16.883 40.8122L9.81188 47.8833C9.42136 48.2738 9.42136 48.907 9.81188 49.2975L12.8226 52.3082C11.6941 54.2181 10.8226 56.2979 10.2559 58.5H6C5.44771 58.5 5 58.9478 5 59.5V69.5C5 70.0523 5.44771 70.5 6 70.5H10.256C10.8228 72.7022 11.6943 74.7819 12.8228 76.6918L9.81178 79.7028C9.42126 80.0934 9.42126 80.7265 9.81178 81.1171L16.8828 88.1881C17.2734 88.5786 17.9065 88.5786 18.2971 88.1881L21.3082 85.177C23.218 86.3055 25.2978 87.177 27.5 87.7437V92C27.5 92.5523 27.9477 93 28.5 93H38.5C39.0522 93 39.5 92.5523 39.5 92V87.7437C41.7019 87.1769 43.7816 86.3055 45.6914 85.177L48.7028 88.1884C49.0933 88.5789 49.7264 88.5789 50.117 88.1884L57.188 81.1173C57.5786 80.7268 57.5786 80.0936 57.188 79.7031L54.1768 76.6918C55.3053 74.782 56.1768 72.7022 56.7436 70.5H61C61.5523 70.5 62 70.0523 62 69.5V59.5C62 58.9478 61.5523 58.5 61 58.5H56.7438C56.177 56.2979 55.3055 54.2181 54.177 52.3082L57.1879 49.2972C57.5785 48.9067 57.5785 48.2736 57.1879 47.883L50.1169 40.812C49.7263 40.4214 49.0932 40.4214 48.7027 40.812L45.6918 43.8228C43.7819 42.6943 41.7021 41.8228 39.5 41.256V37C39.5 36.4477 39.0522 36 38.5 36H28.5ZM33.4999 76.4999C40.1273 76.4999 45.4999 71.1273 45.4999 64.4999C45.4999 57.8725 40.1273 52.4999 33.4999 52.4999C26.8725 52.4999 21.4999 57.8725 21.4999 64.4999C21.4999 71.1273 26.8725 76.4999 33.4999 76.4999Z" fill="white"/>
<path d="M27.5 41.2559L27.7492 42.2243L28.5 42.0311V41.2559H27.5ZM21.3078 43.8229L20.6007 44.53L21.149 45.0782L21.8165 44.6838L21.3078 43.8229ZM18.2972 40.8122L17.5901 41.5193L17.5901 41.5193L18.2972 40.8122ZM16.883 40.8122L17.5901 41.5193L17.5901 41.5193L16.883 40.8122ZM9.81188 47.8833L9.10478 47.1762L9.81188 47.8833ZM9.81188 49.2975L9.10478 50.0046H9.10478L9.81188 49.2975ZM12.8226 52.3082L13.6835 52.8169L14.078 52.1494L13.5297 51.6011L12.8226 52.3082ZM10.2559 58.5V59.5H11.0311L11.2243 58.7493L10.2559 58.5ZM10.256 70.5L11.2244 70.2508L11.0312 69.5H10.256V70.5ZM12.8228 76.6918L13.5299 77.3989L14.0782 76.8506L13.6838 76.1831L12.8228 76.6918ZM9.81178 79.7028L10.5189 80.4099H10.5189L9.81178 79.7028ZM9.81178 81.1171L10.5189 80.4099H10.5189L9.81178 81.1171ZM16.8828 88.1881L17.59 87.481L17.59 87.481L16.8828 88.1881ZM18.2971 88.1881L17.59 87.481H17.59L18.2971 88.1881ZM21.3082 85.177L21.8169 84.3161L21.1494 83.9216L20.6011 84.4699L21.3082 85.177ZM27.5 87.7437H28.5V86.9685L27.7492 86.7753L27.5 87.7437ZM39.5 87.7437L39.2507 86.7752L38.5 86.9685V87.7437H39.5ZM45.6914 85.177L46.3985 84.4699L45.8502 83.9216L45.1827 84.3161L45.6914 85.177ZM54.1768 76.6918L53.3158 76.1831L52.9214 76.8507L53.4697 77.3989L54.1768 76.6918ZM56.7436 70.5V69.5H55.9684L55.7752 70.2508L56.7436 70.5ZM56.7438 58.5L55.7753 58.7493L55.9685 59.5H56.7438V58.5ZM54.177 52.3082L53.4699 51.6011L52.9216 52.1493L53.3161 52.8169L54.177 52.3082ZM57.1879 49.2972L57.895 50.0044V50.0044L57.1879 49.2972ZM57.1879 47.883L57.895 47.1759V47.1759L57.1879 47.883ZM50.1169 40.812L50.824 40.1049L50.824 40.1049L50.1169 40.812ZM48.7027 40.812L47.9955 40.1049L47.9955 40.1049L48.7027 40.812ZM45.6918 43.8228L45.1831 44.6838L45.8506 45.0782L46.3989 44.5299L45.6918 43.8228ZM39.5 41.256H38.5V42.0312L39.2507 42.2244L39.5 41.256ZM28.5 37V37V35C27.3954 35 26.5 35.8954 26.5 37H28.5ZM28.5 41.2559V37H26.5V41.2559H28.5ZM21.8165 44.6838C23.6468 43.6022 25.6395 42.7673 27.7492 42.2243L27.2507 40.2874C24.9558 40.8781 22.7887 41.7862 20.7991 42.9619L21.8165 44.6838ZM17.5901 41.5193L20.6007 44.53L22.0149 43.1157L19.0043 40.1051L17.5901 41.5193ZM17.5901 41.5193H17.5901L19.0043 40.1051C18.2232 39.3241 16.9569 39.3241 16.1758 40.1051L17.5901 41.5193ZM10.519 48.5904L17.5901 41.5193L16.1758 40.1051L9.10478 47.1762L10.519 48.5904ZM10.519 48.5904H10.519L9.10478 47.1762C8.32373 47.9572 8.32373 49.2236 9.10478 50.0046L10.519 48.5904ZM13.5297 51.6011L10.519 48.5904L9.10478 50.0046L12.1155 53.0153L13.5297 51.6011ZM11.2243 58.7493C11.7672 56.6398 12.6021 54.6471 13.6835 52.8169L11.9617 51.7995C10.7861 53.7891 9.87801 55.9561 9.28742 58.2508L11.2243 58.7493ZM6 59.5H10.2559V57.5H6V59.5ZM6 59.5H6V57.5C4.89543 57.5 4 58.3955 4 59.5H6ZM6 69.5V59.5H4V69.5H6ZM6 69.5H6H4C4 70.6046 4.89543 71.5 6 71.5V69.5ZM10.256 69.5H6V71.5H10.256V69.5ZM13.6838 76.1831C12.6023 74.3529 11.7674 72.3603 11.2244 70.2508L9.28754 70.7493C9.87818 73.044 10.7863 75.211 11.9619 77.2005L13.6838 76.1831ZM10.5189 80.4099L13.5299 77.3989L12.1157 75.9847L9.10467 78.9957L10.5189 80.4099ZM10.5189 80.4099V80.4099L9.10468 78.9957C8.32362 79.7768 8.32362 81.0431 9.10468 81.8242L10.5189 80.4099ZM17.59 87.481L10.5189 80.4099L9.10467 81.8242L16.1757 88.8952L17.59 87.481ZM17.59 87.481L17.59 87.481L16.1757 88.8952C16.9568 89.6763 18.2231 89.6763 19.0042 88.8952L17.59 87.481ZM20.6011 84.4699L17.59 87.481L19.0042 88.8952L22.0153 85.8841L20.6011 84.4699ZM27.7492 86.7753C25.6397 86.2324 23.6471 85.3975 21.8169 84.3161L20.7995 86.0379C22.789 87.2135 24.956 88.1216 27.2507 88.7122L27.7492 86.7753ZM28.5 92V87.7437H26.5V92H28.5ZM28.5 92H26.5C26.5 93.1046 27.3954 94 28.5 94V92ZM38.5 92H28.5V94H38.5V92ZM38.5 92H38.5V94C39.6045 94 40.5 93.1046 40.5 92H38.5ZM38.5 87.7437V92H40.5V87.7437H38.5ZM45.1827 84.3161C43.3526 85.3975 41.3601 86.2323 39.2507 86.7752L39.7492 88.7121C42.0438 88.1215 44.2107 87.2135 46.2001 86.038L45.1827 84.3161ZM49.4099 87.4813L46.3985 84.4699L44.9843 85.8841L47.9956 88.8955L49.4099 87.4813ZM49.4099 87.4813L47.9956 88.8955C48.7767 89.6765 50.043 89.6765 50.8241 88.8955L49.4099 87.4813ZM56.4809 80.4102L49.4099 87.4813L50.8241 88.8955L57.8951 81.8244L56.4809 80.4102ZM56.4809 80.4102V80.4102L57.8951 81.8244C58.6762 81.0434 58.6762 79.777 57.8951 78.996L56.4809 80.4102ZM53.4697 77.3989L56.4809 80.4102L57.8951 78.996L54.8839 75.9847L53.4697 77.3989ZM55.7752 70.2508C55.2322 72.3603 54.3973 74.3529 53.3158 76.1831L55.0377 77.2006C56.2133 75.211 57.1214 73.044 57.7121 70.7493L55.7752 70.2508ZM61 69.5H56.7436V71.5H61V69.5ZM61 69.5V71.5C62.1046 71.5 63 70.6046 63 69.5H61ZM61 59.5V69.5H63V59.5H61ZM61 59.5H63C63 58.3955 62.1046 57.5 61 57.5V59.5ZM56.7438 59.5H61V57.5H56.7438V59.5ZM53.3161 52.8169C54.3975 54.6471 55.2324 56.6397 55.7753 58.7493L57.7122 58.2508C57.1216 55.9561 56.2135 53.789 55.0379 51.7995L53.3161 52.8169ZM56.4808 48.5901L53.4699 51.6011L54.8841 53.0153L57.895 50.0044L56.4808 48.5901ZM56.4808 48.5901V48.5901L57.895 50.0044C58.6761 49.2233 58.6761 47.957 57.895 47.1759L56.4808 48.5901ZM49.4098 41.5191L56.4808 48.5901L57.895 47.1759L50.824 40.1049L49.4098 41.5191ZM49.4098 41.5191L49.4098 41.5191L50.824 40.1049C50.0429 39.3238 48.7766 39.3238 47.9955 40.1049L49.4098 41.5191ZM46.3989 44.5299L49.4098 41.5191L47.9955 40.1049L44.9847 43.1157L46.3989 44.5299ZM39.2507 42.2244C41.3602 42.7674 43.3529 43.6023 45.1831 44.6838L46.2005 42.9619C44.211 41.7862 42.0439 40.8782 39.7492 40.2875L39.2507 42.2244ZM38.5 37V41.256H40.5V37H38.5ZM38.5 37H40.5C40.5 35.8954 39.6045 35 38.5 35V37ZM28.5 37H38.5V35H28.5V37ZM44.4999 64.4999C44.4999 70.575 39.575 75.4999 33.4999 75.4999V77.4999C40.6796 77.4999 46.4999 71.6796 46.4999 64.4999H44.4999ZM33.4999 53.4999C39.575 53.4999 44.4999 58.4248 44.4999 64.4999H46.4999C46.4999 57.3202 40.6796 51.4999 33.4999 51.4999V53.4999ZM22.4999 64.4999C22.4999 58.4248 27.4248 53.4999 33.4999 53.4999V51.4999C26.3202 51.4999 20.4999 57.3202 20.4999 64.4999H22.4999ZM33.4999 75.4999C27.4248 75.4999 22.4999 70.575 22.4999 64.4999H20.4999C20.4999 71.6796 26.3202 77.4999 33.4999 77.4999V75.4999Z" fill="black" mask="url(#path-1-inside-1_3998_3894)"/>
<path d="M86 44V73C86 74.1046 85.1046 75 84 75H66" stroke="black" stroke-dasharray="2 2"/>
<path d="M59 15L28 15C26.8954 15 26 15.8954 26 17L26 32" stroke="black" stroke-dasharray="2 2"/>
<path d="M64 11.5L67.6897 15L74 9" stroke="#4FC4F9" stroke-width="2"/>
<rect x="79" y="11" width="15" height="2" fill="#4FC4F9"/>
<path d="M64 22.5L67.6897 26L74 20" stroke="#4FC4F9" stroke-width="2"/>
<rect x="79" y="22" width="15" height="2" fill="#4FC4F9"/>
<path d="M64 34.5L67.6897 38L74 32" stroke="#4FC4F9" stroke-width="2"/>
<rect x="79" y="34" width="15" height="2" fill="#4FC4F9"/>
</svg>
