<svg width="100" height="100" viewBox="0 0 100 100" fill="none" xmlns="http://www.w3.org/2000/svg">
<rect width="100" height="100" fill="white"/>
<path d="M65.1388 42.8132L50.4999 50M50.4999 50L35.8611 42.8132M50.4999 50L50.5 64.4581M66 56.1768V43.8232C66 43.3018 66 43.041 65.9131 42.8085C65.8361 42.6028 65.7104 42.4139 65.5442 42.2546C65.3564 42.0745 65.0985 41.9479 64.5827 41.6946L51.8382 35.4379C51.3498 35.1981 51.1056 35.0782 50.8469 35.0312C50.618 34.9896 50.382 34.9896 50.1531 35.0312C49.8944 35.0782 49.6502 35.1981 49.1618 35.4379L36.4173 41.6946C35.9015 41.9479 35.6436 42.0745 35.4558 42.2546C35.2896 42.4139 35.1639 42.6028 35.0869 42.8085C35 43.041 35 43.3018 35 43.8233V56.1768C35 56.6982 35 56.959 35.0869 57.1915C35.1639 57.3972 35.2896 57.5861 35.4558 57.7454C35.6436 57.9255 35.9015 58.0521 36.4173 58.3054L49.1618 64.5621C49.6502 64.8019 49.8944 64.9218 50.1531 64.9688C50.382 65.0104 50.618 65.0104 50.8469 64.9688C51.1056 64.9218 51.3498 64.8019 51.8382 64.5621L64.5827 58.3054C65.0985 58.0521 65.3564 57.9255 65.5442 57.7454C65.7104 57.5861 65.8361 57.3972 65.9131 57.1915C66 56.959 66 56.6982 66 56.1768Z" stroke="black" stroke-linecap="round" stroke-linejoin="round"/>
<path fill-rule="evenodd" clip-rule="evenodd" d="M50.7536 10.5739C50.6295 10.5494 50.5043 10.531 50.3787 10.5187L50.476 9.52344C50.634 9.53888 50.7913 9.56204 50.9475 9.59292C51.1909 9.64104 51.4251 9.71296 51.6718 9.80992L51.306 10.7406C51.1045 10.6615 50.9283 10.6085 50.7536 10.5739ZM49.6213 10.5187C49.4957 10.531 49.3705 10.5494 49.2464 10.5739C49.0717 10.6085 48.8955 10.6615 48.694 10.7406L48.3282 9.80992C48.575 9.71296 48.8091 9.64104 49.0525 9.59292C49.2087 9.56204 49.3661 9.53888 49.524 9.52344L49.6213 10.5187ZM53.0453 11.609C52.8304 11.4942 52.6363 11.3906 52.4579 11.2966L52.9243 10.412C53.1047 10.5071 53.3004 10.6116 53.5136 10.7254L53.5143 10.7258L53.5158 10.7266L53.5163 10.7269L54.3842 11.1903L53.9132 12.0724L53.0453 11.609ZM47.5421 11.2966C47.3637 11.3906 47.1696 11.4942 46.9547 11.609L46.0868 12.0725L45.6158 11.1903L46.4837 10.7269L46.4842 10.7266C46.6983 10.6123 46.8947 10.5074 47.0757 10.412L47.5421 11.2966ZM57.3848 13.9263L55.649 12.9994L56.12 12.1173L57.8558 13.0442L57.3848 13.9263ZM44.351 12.9994L42.6152 13.9263L42.1442 13.0442L43.88 12.1173L44.351 12.9994ZM60.8564 15.7801L59.1206 14.8532L59.5916 13.9711L61.3274 14.898L60.8564 15.7801ZM40.8794 14.8532L39.1436 15.7801L38.6726 14.898L40.4084 13.9711L40.8794 14.8532ZM64.328 17.634L62.5922 16.7071L63.0632 15.825L64.799 16.7519L64.328 17.634ZM37.4078 16.7071L35.672 17.634L35.201 16.7519L36.9368 15.825L37.4078 16.7071ZM67.7996 19.4878L66.0638 18.5609L66.5348 17.6788L68.2706 18.6057L67.7996 19.4878ZM33.9362 18.5609L32.2004 19.4878L31.7294 18.6057L33.4652 17.6788L33.9362 18.5609ZM71.2712 21.3417L69.5354 20.4148L70.0064 19.5327L71.7422 20.4596L71.2712 21.3417ZM30.4646 20.4148L28.7288 21.3417L28.2578 20.4596L29.9936 19.5327L30.4646 20.4148ZM74.7428 23.1955L73.007 22.2686L73.478 21.3865L75.2138 22.3134L74.7428 23.1955ZM26.993 22.2686L25.2572 23.1955L24.7862 22.3134L26.522 21.3865L26.993 22.2686ZM78.2144 25.0494L76.4786 24.1225L76.9497 23.2404L78.6855 24.1673L78.2144 25.0494ZM23.5214 24.1225L21.7856 25.0494L21.3146 24.1673L23.0504 23.2404L23.5214 24.1225ZM81.686 26.9032L79.9502 25.9763L80.4213 25.0942L82.1571 26.0211L81.686 26.9032ZM20.0498 25.9763L18.314 26.9032L17.8429 26.0211L19.5787 25.0942L20.0498 25.9763ZM84.2897 28.2936L83.4218 27.8302L83.8929 26.9481L84.7608 27.4115L84.761 27.4116L84.7626 27.4125L84.7657 27.4142C84.9885 27.5331 85.1931 27.6424 85.3807 27.7439L84.9049 28.6234C84.7187 28.5227 84.515 28.4139 84.2897 28.2936ZM16.5782 27.8302L15.7103 28.2936L15.7102 28.2937C15.4849 28.414 15.2812 28.5227 15.0951 28.6234L14.6193 27.7439C14.8083 27.6417 15.0145 27.5315 15.2392 27.4115L16.1071 26.9481L16.5782 27.8302ZM86.5217 29.6919C86.3951 29.5598 86.2487 29.4363 86.0612 29.305L86.6349 28.4859C86.8647 28.6469 87.0634 28.8118 87.2436 28.9998C87.3569 29.118 87.4636 29.2418 87.563 29.3705L86.7717 29.982C86.694 29.8814 86.6106 29.7845 86.5217 29.6919ZM13.9388 29.305C13.7513 29.4363 13.6049 29.5598 13.4783 29.6919C13.3894 29.7845 13.306 29.8814 13.2283 29.982L12.437 29.3705C12.5364 29.2418 12.643 29.1181 12.7564 28.9998C12.9366 28.8118 13.1353 28.6469 13.3651 28.4859L13.9388 29.305ZM87.314 30.9854C87.2727 30.8652 87.2247 30.7473 87.1704 30.6323L88.0747 30.2054C88.1446 30.3534 88.2064 30.5052 88.2597 30.6604C88.3432 30.9033 88.397 31.1508 88.4321 31.4224L87.4404 31.5505C87.4123 31.3331 87.3717 31.1533 87.314 30.9854ZM12.8296 30.6323C12.7753 30.7473 12.7273 30.8652 12.686 30.9854C12.6283 31.1533 12.5877 31.3331 12.5596 31.5505L11.5679 31.4224C11.6029 31.1508 11.6568 30.9033 11.7403 30.6604C11.7936 30.5052 11.8554 30.3534 11.9253 30.2054L12.8296 30.6323ZM87.5 33.5289C87.5 33.2802 87.5 33.0557 87.4988 32.85L88.4988 32.8441C88.5 33.0533 88.5 33.281 88.5 33.5289V34.5583H87.5V33.5289ZM12.5012 32.85C12.5 33.0557 12.5 33.2803 12.5 33.5289V34.5584H11.5V33.5289V33.5279C11.5 33.2804 11.5 33.053 11.5012 32.8441L12.5012 32.85ZM87.5 38.6762V36.6173H88.5V38.6762H87.5ZM12.5 36.6173V38.6762H11.5V36.6173H12.5ZM87.5 42.794V40.7351H88.5V42.794H87.5ZM12.5 40.7351V42.794H11.5V40.7351H12.5ZM87.5 46.9118V44.8529H88.5V46.9118H87.5ZM12.5 44.8529V46.9119H11.5V44.8529H12.5ZM87.5 51.0297V48.9708H88.5V51.0297H87.5ZM12.5 48.9708V51.0297H11.5V48.9708H12.5ZM12.5 53.0886V55.1475H11.5V53.0886H12.5ZM87.5 55.1475V53.0886H88.5V55.1475H87.5ZM12.5 57.2064V59.2654H11.5V57.2064H12.5ZM87.5 59.2654V57.2064H88.5V59.2654H87.5ZM34.0862 58.9689L33.6465 59.207L32.6853 59.7275L32.2091 58.8482L33.1704 58.3277L33.61 58.0896L34.0862 58.9689ZM30.7629 60.7686L28.8404 61.8096L28.3642 60.9302L30.2867 59.8892L30.7629 60.7686ZM12.5 61.3243V63.3832H11.5V61.3243H12.5ZM87.5 63.3832V61.3243H88.5V63.3832H87.5ZM26.9179 62.8506L24.9955 63.8916L24.5193 63.0123L26.4418 61.9713L26.9179 62.8506ZM23.073 64.9326L21.1506 65.9737L20.6744 65.0943L22.5969 64.0533L23.073 64.9326ZM12.5 65.4421V66.4716C12.5 66.7202 12.5 66.9448 12.5012 67.1505L11.5012 67.1564C11.5 66.9474 11.5 66.7201 11.5 66.4726V66.4716V65.4421H12.5ZM87.5 66.4716V65.4421H88.5V66.4716C88.5 66.7195 88.5 66.9471 88.4988 67.1564L87.4988 67.1505C87.5 66.9448 87.5 66.7202 87.5 66.4716ZM19.2281 67.0147L17.3057 68.0557L16.8295 67.1764L18.752 66.1353L19.2281 67.0147ZM15.3832 69.0967L14.422 69.6173L13.9823 69.8553L13.5061 68.976L13.9458 68.7379L14.907 68.2174L15.3832 69.0967ZM12.5596 68.45C12.5877 68.6674 12.6283 68.8472 12.686 69.015C12.7273 69.1353 12.7753 69.2531 12.8296 69.3681L11.9253 69.7951C11.8554 69.6471 11.7936 69.4952 11.7403 69.3401C11.6568 69.0971 11.6029 68.8496 11.5679 68.5781L12.5596 68.45ZM87.314 69.015C87.3717 68.8472 87.4123 68.6674 87.4404 68.45L88.4321 68.5781C88.397 68.8496 88.3432 69.0971 88.2597 69.3401C88.2064 69.4952 88.1446 69.6471 88.0747 69.7951L87.1704 69.3681C87.2247 69.2531 87.2727 69.1353 87.314 69.015ZM13.2283 70.0185C13.306 70.1191 13.3894 70.2159 13.4783 70.3086C13.6049 70.4407 13.7513 70.5642 13.9388 70.6955L13.3651 71.5145C13.1353 71.3536 12.9366 71.1886 12.7564 71.0007C12.6431 70.8824 12.5364 70.7586 12.437 70.6299L13.2283 70.0185ZM86.5217 70.3086C86.6106 70.2159 86.694 70.1191 86.7717 70.0185L87.563 70.6299C87.4635 70.7586 87.3569 70.8824 87.2436 71.0007C87.0634 71.1886 86.8647 71.3536 86.6349 71.5145L86.0612 70.6955C86.2487 70.5642 86.3951 70.4407 86.5217 70.3086ZM15.7094 71.7063L15.7103 71.7068L16.5782 72.1703L16.1071 73.0524L15.2392 72.5889L15.2384 72.5885L15.2362 72.5873L15.2333 72.5858C15.0109 72.467 14.8066 72.3579 14.6193 72.2566L15.0951 71.377C15.2808 71.4775 15.484 71.586 15.7086 71.7059L15.7094 71.7063ZM84.2897 71.7068C84.515 71.5865 84.7187 71.4777 84.9049 71.377L85.3807 72.2566C85.1921 72.3586 84.9863 72.4685 84.7621 72.5882L84.7608 72.5889L83.8929 73.0524L83.4218 72.1703L84.2897 71.7068ZM18.314 73.0972L20.0498 74.0241L19.5788 74.9063L17.8429 73.9793L18.314 73.0972ZM79.9502 74.0242L81.686 73.0972L82.1571 73.9793L80.4212 74.9063L79.9502 74.0242ZM21.7856 74.9511L23.5214 75.878L23.0504 76.7601L21.3146 75.8332L21.7856 74.9511ZM76.4786 75.878L78.2144 74.9511L78.6854 75.8332L76.9496 76.7601L76.4786 75.878ZM25.2572 76.8049L26.993 77.7318L26.522 78.614L24.7862 77.687L25.2572 76.8049ZM73.007 77.7318L74.7428 76.8049L75.2138 77.687L73.478 78.614L73.007 77.7318ZM28.7288 78.6588L30.4646 79.5857L29.9936 80.4678L28.2578 79.5409L28.7288 78.6588ZM69.5354 79.5857L71.2712 78.6588L71.7422 79.5409L70.0064 80.4678L69.5354 79.5857ZM32.2004 80.5126L33.9362 81.4395L33.4652 82.3216L31.7294 81.3947L32.2004 80.5126ZM66.0638 81.4395L67.7996 80.5126L68.2706 81.3947L66.5348 82.3216L66.0638 81.4395ZM35.672 82.3665L37.4078 83.2934L36.9368 84.1755L35.201 83.2486L35.672 82.3665ZM62.5922 83.2934L64.328 82.3665L64.799 83.2486L63.0632 84.1755L62.5922 83.2934ZM39.1436 84.2203L40.8794 85.1472L40.4084 86.0293L38.6726 85.1024L39.1436 84.2203ZM59.1206 85.1472L60.8564 84.2203L61.3274 85.1024L59.5916 86.0294L59.1206 85.1472ZM42.6152 86.0742L44.351 87.0011L43.88 87.8832L42.1442 86.9563L42.6152 86.0742ZM55.649 87.0011L57.3848 86.0742L57.8558 86.9563L56.12 87.8832L55.649 87.0011ZM46.0868 87.928L46.9547 88.3915L46.9559 88.3921L46.9631 88.3959L46.9633 88.396C47.1748 88.509 47.3661 88.6111 47.5421 88.7039L47.0757 89.5885C46.8951 89.4933 46.6992 89.3887 46.4857 89.2747L46.4837 89.2736L45.6158 88.8101L46.0868 87.928ZM53.0453 88.3915L53.9132 87.928L54.3842 88.8101L53.5163 89.2736L53.5143 89.2747L53.5113 89.2762L53.5057 89.2792C53.2955 89.3915 53.1025 89.4946 52.9243 89.5885L52.4579 88.7039C52.6363 88.6099 52.8304 88.5062 53.0453 88.3915ZM48.694 89.2598C48.8955 89.339 49.0717 89.392 49.2464 89.4265C49.3705 89.4511 49.4957 89.4695 49.6213 89.4818L49.524 90.477C49.3661 90.4616 49.2087 90.4384 49.0525 90.4075C48.8091 90.3594 48.575 90.2875 48.3282 90.1905L48.694 89.2598ZM50.7536 89.4265C50.9283 89.392 51.1045 89.339 51.306 89.2598L51.6718 90.1905C51.4251 90.2875 51.1909 90.3594 50.9475 90.4075C50.7913 90.4384 50.634 90.4616 50.476 90.477L50.3787 89.4818C50.5043 89.4695 50.6295 89.4511 50.7536 89.4265ZM49.5038 14.8245V11.5752H50.5038V14.8245H49.5038ZM49.5038 25.6553V19.1568H50.5038V25.6553H49.5038ZM49.5038 33.2369V29.9877H50.5038V33.2369H49.5038ZM66.5583 59.1316L69.4826 60.675L69.9493 59.7906L67.025 58.2472L66.5583 59.1316ZM73.3817 62.7328L79.2303 65.8196L79.6971 64.9352L73.8484 61.8484L73.3817 62.7328ZM83.1294 67.8775L86.0538 69.4209L86.5205 68.5365L83.5962 66.9931L83.1294 67.8775Z" fill="black"/>
<path fill-rule="evenodd" clip-rule="evenodd" d="M24.4504 67.8082L18.9267 66.1379L20.5969 60.6143L21.6153 62.5154L26.4961 59.9009L28.3126 63.2922L23.4318 65.9066L24.4504 67.8082Z" fill="#4FC4F9"/>
<path fill-rule="evenodd" clip-rule="evenodd" d="M45.843 22.0805L49.9234 18L54.0039 22.0805L51.8453 22.0805L51.8453 27.6178L47.9982 27.6178L47.9982 22.0805L45.843 22.0805Z" fill="#4FC4F9"/>
<path fill-rule="evenodd" clip-rule="evenodd" d="M79.8851 60.7792L81.3658 66.3567L75.7883 67.8373L76.8715 65.9712L72.0829 63.1917L74.0142 59.8645L78.8028 62.644L79.8851 60.7792Z" fill="#4FC4F9"/>
</svg>
