<svg width="77" height="137" viewBox="0 0 77 137" fill="none" xmlns="http://www.w3.org/2000/svg">
<path d="M40.4312 137C60.6277 137 77.0001 132.766 77.0001 127.543C77.0001 122.32 60.6277 118.086 40.4312 118.086C20.2348 118.086 3.8623 122.32 3.8623 127.543C3.8623 132.766 20.2348 137 40.4312 137Z" fill="#F0F4F9"/>
<path d="M48.0917 102.082C48.3797 102.941 48.6209 103.816 48.8144 104.701C49.0168 105.574 49.1815 106.447 49.3261 107.32C49.6094 109.066 49.8137 110.805 49.9389 112.537C50.186 116.012 50.1745 119.501 49.9042 122.975L48.9503 121.366C49.647 121.814 50.3292 122.291 51.0085 122.765L52.0174 123.504L53.0119 124.267C53.6681 124.793 54.3185 125.323 54.9516 125.89C55.5967 126.458 56.2124 127.06 56.796 127.692C55.9502 127.549 55.1126 127.362 54.2867 127.13C53.4686 126.915 52.6708 126.659 51.8729 126.397L50.6934 125.981L49.5371 125.538C48.7681 125.23 47.9963 124.921 47.2447 124.581L46.3774 124.194L46.282 122.975C46.0118 119.501 46.0002 116.012 46.2474 112.537C46.3745 110.791 46.574 109.045 46.8602 107.32C47.0047 106.447 47.1695 105.574 47.369 104.701C47.5639 103.816 47.8051 102.942 48.0917 102.082V102.082Z" fill="black"/>
<path d="M34.7939 104.992C35.0825 105.851 35.3247 106.725 35.5195 107.611C35.7218 108.484 35.8866 109.357 36.0311 110.23C36.3145 111.975 36.5178 113.728 36.6411 115.488C36.7645 117.247 36.8223 118.999 36.8146 120.743C36.8146 122.489 36.7452 124.249 36.6035 126.001L35.6525 124.397C36.3491 124.846 37.0285 125.323 37.7078 125.797L38.7167 126.536L39.7141 127.299C40.3674 127.822 41.0207 128.352 41.6509 128.922C42.2969 129.488 42.9135 130.088 43.4981 130.718C42.6536 130.574 41.817 130.387 40.9918 130.156C40.1708 129.938 39.3729 129.682 38.578 129.42L37.3985 129.004L36.2422 128.564C35.4732 128.253 34.7014 127.945 33.9469 127.604L33.0796 127.223L32.9813 126.001C32.8397 124.255 32.7761 122.509 32.7674 120.743C32.7587 118.976 32.8195 117.251 32.9438 115.488C33.0681 113.724 33.2704 111.996 33.5537 110.23C33.6983 109.357 33.863 108.484 34.0654 107.611C34.2611 106.725 34.5043 105.851 34.7939 104.992Z" fill="black"/>
<path d="M54.1594 43.1818L69.4519 58.5747L73.0278 42.0063C73.1087 41.6221 73.0917 41.2237 72.9784 40.848C72.8651 40.4722 72.6593 40.1315 72.38 39.8573C72.1008 39.5832 71.7571 39.3846 71.3811 39.2801C71.0051 39.1755 70.609 39.1684 70.2295 39.2594L54.1594 43.1818Z" fill="black"/>
<path d="M36.1813 112.557H19.8655C19.1471 112.557 18.4582 112.27 17.9502 111.759C17.4422 111.248 17.1568 110.554 17.1568 109.831L17.1568 70.1934C17.1568 62.6008 20.1525 55.319 25.4851 49.9492C30.8178 44.5793 38.0508 41.561 45.5939 41.5579H45.6546C52.2006 41.5579 58.4785 44.1754 63.1073 48.8345C67.736 53.4937 70.3364 59.8129 70.3364 66.4019V78.1692C70.3364 87.2911 66.7364 96.0393 60.3284 102.489C53.9204 108.94 45.2292 112.563 36.1669 112.563L36.1813 112.557Z" fill="white" stroke="black" stroke-width="2" stroke-miterlimit="10"/>
<path d="M40.5756 75.0208C43.7687 75.0208 46.3572 72.4153 46.3572 69.2012C46.3572 65.9871 43.7687 63.3816 40.5756 63.3816C37.3825 63.3816 34.7939 65.9871 34.7939 69.2012C34.7939 72.4153 37.3825 75.0208 40.5756 75.0208Z" fill="#FFAEAE"/>
<path d="M50.1153 70.6561C56.1822 70.6561 61.1004 65.7056 61.1004 59.5988C61.1004 53.492 56.1822 48.5415 50.1153 48.5415C44.0483 48.5415 39.1301 53.492 39.1301 59.5988C39.1301 65.7056 44.0483 70.6561 50.1153 70.6561Z" fill="white" stroke="black" stroke-width="2" stroke-miterlimit="10"/>
<path d="M17.8017 112.75L1.11297 103.092L7.47567 112.485L0 120.589L17.8017 112.75Z" fill="black"/>
<path d="M26.0173 7.95532L24.4707 42.5036C24.4322 43.37 24.6001 44.2331 24.9604 45.021C25.3207 45.8088 25.863 46.4984 26.542 47.0324C27.221 47.5663 28.017 47.9291 28.8636 48.0904C29.7102 48.2516 30.5828 48.2068 31.4087 47.9595L43.1888 44.4386C44.0145 44.1915 44.7695 43.7493 45.3909 43.1488C46.0123 42.5483 46.4821 41.807 46.761 40.9866C47.0399 40.1663 47.1199 39.2907 46.9944 38.4329C46.8688 37.5751 46.5413 36.7599 46.0392 36.0554L26.0173 7.95532Z" fill="#FF5050"/>
<path d="M50.2597 67.7462C51.6168 67.7462 52.7169 64.2939 52.7169 60.0352C52.7169 55.7765 51.6168 52.3242 50.2597 52.3242C48.9026 52.3242 47.8025 55.7765 47.8025 60.0352C47.8025 64.2939 48.9026 67.7462 50.2597 67.7462Z" fill="#06AEF1"/>
<path d="M50.2598 62.5086C54.4907 62.5086 57.9205 61.4013 57.9205 60.0353C57.9205 58.6694 54.4907 57.562 50.2598 57.562C46.0289 57.562 42.5991 58.6694 42.5991 60.0353C42.5991 61.4013 46.0289 62.5086 50.2598 62.5086Z" fill="#06AEF1"/>
<path d="M26.2662 0L23.9709 6.68675L17.1948 8.57522L22.803 12.8381L22.4937 19.9089L28.2551 15.8556L34.8404 18.3376L32.7908 11.5694L37.1704 6.03204L30.1428 5.9011L26.2662 0Z" fill="white"/>
<path d="M26.6418 2.02222L24.7975 7.39374L19.3569 8.90975L23.8608 12.3346L23.6122 18.0117L28.2404 14.7556L33.5277 16.7488L31.8829 11.3133L35.3981 6.86706L29.7552 6.76231L26.6418 2.02222Z" fill="#06F2AE"/>
</svg>
