<svg width="32" height="32" viewBox="0 0 32 32" fill="none" xmlns="http://www.w3.org/2000/svg">
<rect width="32" height="32" fill="white"/>
<path fill-rule="evenodd" clip-rule="evenodd" d="M16 3.33325C8.26519 3.33325 2 9.14436 2 16.3186C2 22.0579 6.01351 26.9204 11.574 28.6423C12.2701 28.7618 12.5279 28.3633 12.5279 28.0125C12.5279 27.7016 12.5193 26.8886 12.5107 25.8045C8.61756 26.5857 7.79251 24.0667 7.79251 24.0667C7.15654 22.5681 6.23695 22.1616 6.23695 22.1616C4.96501 21.3565 6.33149 21.3724 6.33149 21.3724C7.73235 21.4681 8.48005 22.7116 8.48005 22.7116C9.72621 24.6964 11.7544 24.1225 12.5537 23.7877C12.6826 22.9507 13.0436 22.3768 13.4389 22.05C10.3364 21.7311 7.0706 20.6151 7.0706 15.641C7.0706 14.2221 7.61203 13.0663 8.51443 12.1575C8.36832 11.8227 7.88705 10.5075 8.64334 8.72188C8.64334 8.72188 9.82075 8.37114 12.4936 10.0531C13.6108 9.76612 14.8054 9.62264 16 9.61467C17.186 9.62264 18.3892 9.76612 19.5064 10.0531C22.1793 8.37114 23.3567 8.72188 23.3567 8.72188C24.1215 10.5075 23.6403 11.8307 23.4942 12.1575C24.388 13.0663 24.9294 14.2221 24.9294 15.641C24.9294 20.6311 21.655 21.7231 18.5353 22.05C19.0338 22.4485 19.4893 23.2457 19.4893 24.4573C19.4893 26.1951 19.4721 27.59 19.4721 28.0205C19.4721 28.3712 19.7213 28.7698 20.4346 28.6423C25.9951 26.9204 30 22.0579 30 16.3265C30 9.14436 23.7348 3.33325 16 3.33325Z" fill="#373737"/>
</svg>
