<svg width="32" height="32" viewBox="0 0 32 32" fill="none" xmlns="http://www.w3.org/2000/svg">
<g clip-path="url(#clip0)">
<path fill-rule="evenodd" clip-rule="evenodd" d="M8.79064 19.2397C8.79091 19.5822 8.72363 19.9214 8.59264 20.2379C8.46165 20.5544 8.26953 20.842 8.02728 21.0842C7.78502 21.3263 7.49738 21.5183 7.18083 21.6492C6.86428 21.7801 6.52503 21.8472 6.18249 21.8468C5.84013 21.8469 5.5011 21.7796 5.18479 21.6486C4.86848 21.5176 4.58108 21.3256 4.33905 21.0834C4.09701 20.8413 3.90508 20.5538 3.77422 20.2375C3.64336 19.9211 3.57614 19.582 3.57642 19.2397C3.57614 18.8972 3.64339 18.5581 3.77432 18.2417C3.90524 17.9252 4.09727 17.6377 4.33941 17.3956C4.58156 17.1534 4.86907 16.9614 5.18551 16.8305C5.50194 16.6995 5.84108 16.6323 6.18353 16.6326H8.79168V19.2397H8.79064ZM10.0942 19.2397C10.0939 18.8972 10.1612 18.5581 10.2921 18.2417C10.423 17.9252 10.615 17.6377 10.8572 17.3956C11.0993 17.1534 11.3869 16.9614 11.7033 16.8305C12.0197 16.6995 12.3589 16.6323 12.7013 16.6326C13.0438 16.6323 13.3829 16.6995 13.6993 16.8305C14.0158 16.9614 14.3033 17.1534 14.5454 17.3956C14.7876 17.6377 14.9796 17.9252 15.1105 18.2417C15.2414 18.5581 15.3087 18.8972 15.3084 19.2397V25.7585C15.3087 26.1009 15.2414 26.4401 15.1105 26.7565C14.9796 27.0729 14.7876 27.3605 14.5454 27.6026C14.3033 27.8448 14.0158 28.0368 13.6993 28.1677C13.3829 28.2986 13.0438 28.3659 12.7013 28.3656C12.3589 28.3659 12.0197 28.2986 11.7033 28.1677C11.3869 28.0368 11.0993 27.8448 10.8572 27.6026C10.615 27.3605 10.423 27.0729 10.2921 26.7565C10.1612 26.4401 10.0939 26.1009 10.0942 25.7585V19.2397Z" fill="#E01E5A"/>
<path fill-rule="evenodd" clip-rule="evenodd" d="M12.7013 8.77092C12.3588 8.7712 12.0195 8.70391 11.703 8.57293C11.3865 8.44194 11.099 8.24982 10.8568 8.00756C10.6147 7.7653 10.4226 7.47767 10.2918 7.16112C10.1609 6.84456 10.0938 6.50531 10.0942 6.16278C10.0939 5.82033 10.1612 5.48119 10.2921 5.16476C10.423 4.84832 10.615 4.56081 10.8572 4.31866C11.0993 4.07651 11.3868 3.88449 11.7033 3.75356C12.0197 3.62264 12.3588 3.55539 12.7013 3.55566C13.0437 3.55539 13.3829 3.62264 13.6993 3.75356C14.0157 3.88449 14.3033 4.07651 14.5454 4.31866C14.7876 4.56081 14.9796 4.84832 15.1105 5.16476C15.2414 5.48119 15.3087 5.82033 15.3084 6.16278V8.77196H12.7023L12.7013 8.77092ZM12.7013 10.0942C13.0437 10.0939 13.3829 10.1612 13.6993 10.2921C14.0157 10.423 14.3033 10.615 14.5454 10.8572C14.7876 11.0993 14.9796 11.3868 15.1105 11.7033C15.2414 12.0197 15.3087 12.3588 15.3084 12.7013C15.3087 13.0437 15.2414 13.3829 15.1105 13.6993C14.9796 14.0157 14.7876 14.3033 14.5454 14.5454C14.3033 14.7876 14.0157 14.9796 13.6993 15.1105C13.3829 15.2414 13.0437 15.3087 12.7013 15.3084H6.16278C5.82042 15.3087 5.48136 15.2415 5.16499 15.1106C4.84863 14.9797 4.56116 14.7878 4.31903 14.5458C4.0769 14.3037 3.88485 14.0163 3.75386 13.7C3.62288 13.3837 3.55553 13.0447 3.55566 12.7023C3.55539 12.3599 3.62264 12.0207 3.75356 11.7043C3.88449 11.3879 4.07651 11.1004 4.31866 10.8582C4.56081 10.6161 4.84832 10.424 5.16476 10.2931C5.48119 10.1622 5.82033 10.0949 6.16278 10.0952H12.7023L12.7013 10.0942Z" fill="#36C5F0"/>
<path fill-rule="evenodd" clip-rule="evenodd" d="M23.1504 12.7013C23.1501 12.3588 23.2174 12.0195 23.3484 11.703C23.4794 11.3865 23.6715 11.099 23.9138 10.8568C24.156 10.6147 24.4437 10.4226 24.7602 10.2918C25.0768 10.1609 25.416 10.0938 25.7586 10.0942C26.101 10.0939 26.4401 10.1612 26.7566 10.2921C27.073 10.423 27.3605 10.615 27.6027 10.8572C27.8448 11.0993 28.0368 11.3868 28.1678 11.7033C28.2987 12.0197 28.3659 12.3588 28.3657 12.7013C28.3659 13.0437 28.2987 13.3829 28.1678 13.6993C28.0368 14.0157 27.8448 14.3033 27.6027 14.5454C27.3605 14.7876 27.073 14.9796 26.7566 15.1105C26.4401 15.2414 26.101 15.3087 25.7586 15.3084H23.1504V12.7023V12.7013ZM21.8469 12.7013C21.8471 13.0437 21.7799 13.3829 21.649 13.6993C21.518 14.0157 21.326 14.3033 21.0839 14.5454C20.8417 14.7876 20.5542 14.9796 20.2378 15.1105C19.9213 15.2414 19.5822 15.3087 19.2397 15.3084C18.8972 15.3088 18.558 15.2417 18.2414 15.1108C17.9248 14.9799 17.6372 14.7879 17.395 14.5458C17.1527 14.3036 16.9606 14.0161 16.8296 13.6996C16.6986 13.3831 16.6313 13.0438 16.6316 12.7013V6.16278C16.6313 5.82024 16.6986 5.48102 16.8296 5.16452C16.9606 4.84802 17.1527 4.56046 17.395 4.3183C17.6372 4.07613 17.9248 3.88413 18.2414 3.75327C18.558 3.6224 18.8972 3.55526 19.2397 3.55567C19.5822 3.55539 19.9213 3.62264 20.2378 3.75356C20.5542 3.88449 20.8417 4.07652 21.0839 4.31866C21.326 4.56081 21.518 4.84832 21.649 5.16476C21.7799 5.48119 21.8471 5.82033 21.8469 6.16278V12.7023V12.7013Z" fill="#2EB67D"/>
<path fill-rule="evenodd" clip-rule="evenodd" d="M19.2397 23.1503C19.5821 23.1501 19.9213 23.2173 20.2377 23.3482C20.5541 23.4792 20.8416 23.6712 21.0838 23.9133C21.3259 24.1555 21.518 24.443 21.6489 24.7594C21.7798 25.0759 21.8471 25.415 21.8468 25.7575C21.8472 26.1 21.7801 26.4392 21.6492 26.7558C21.5183 27.0724 21.3263 27.36 21.0842 27.6022C20.842 27.8445 20.5544 28.0366 20.2379 28.1676C19.9214 28.2986 19.5822 28.3659 19.2397 28.3656C18.8971 28.3659 18.5579 28.2986 18.2414 28.1676C17.9249 28.0366 17.6374 27.8445 17.3952 27.6022C17.153 27.36 16.961 27.0724 16.8302 26.7558C16.6993 26.4392 16.6322 26.1 16.6326 25.7575V23.1503H19.2397V23.1503ZM19.2397 21.8468C18.8972 21.8471 18.5581 21.7798 18.2417 21.6489C17.9252 21.518 17.6377 21.3259 17.3956 21.0838C17.1534 20.8416 16.9614 20.5541 16.8305 20.2377C16.6995 19.9213 16.6323 19.5821 16.6326 19.2397C16.6323 18.8972 16.6995 18.5581 16.8305 18.2417C16.9614 17.9252 17.1534 17.6377 17.3956 17.3956C17.6377 17.1534 17.9252 16.9614 18.2417 16.8305C18.5581 16.6995 18.8972 16.6323 19.2397 16.6326H25.7782C26.1206 16.6323 26.4598 16.6995 26.7762 16.8305C27.0927 16.9614 27.3802 17.1534 27.6223 17.3956C27.8645 17.6377 28.0565 17.9252 28.1874 18.2417C28.3183 18.5581 28.3856 18.8972 28.3853 19.2397C28.3856 19.5821 28.3183 19.9213 28.1874 20.2377C28.0565 20.5541 27.8645 20.8416 27.6223 21.0838C27.3802 21.3259 27.0927 21.518 26.7762 21.6489C26.4598 21.7798 26.1206 21.8471 25.7782 21.8468H19.2397V21.8468Z" fill="#ECB22E"/>
</g>
<defs>
<clipPath id="clip0">
<rect width="24.8889" height="24.8889" fill="white" transform="translate(3.55566 3.55566)"/>
</clipPath>
</defs>
</svg>
