<svg width="18" height="18" viewBox="0 0 18 18" fill="none" xmlns="http://www.w3.org/2000/svg">
<path fill-rule="evenodd" clip-rule="evenodd" d="M9 18C13.9706 18 18 13.9706 18 9C18 4.02944 13.9706 0 9 0C4.02944 0 0 4.02944 0 9C0 13.9706 4.02944 18 9 18ZM11.9733 11.6517L14.625 9L11.9733 6.34828L11.3105 7.01109L13.2994 9L11.3105 10.9889L11.9733 11.6517ZM6.68953 10.9889L4.70062 9L6.68906 7.01109L6.02672 6.34828L3.375 9L6.02672 11.6517L6.68953 10.9889ZM6.96562 13.2188H7.96313L11.0344 4.78125H10.0369L6.96562 13.2188Z" fill="#06AFF2"/>
</svg>
