<svg width="44" height="45" viewBox="0 0 44 45" fill="none" xmlns="http://www.w3.org/2000/svg">
<path d="M40.5607 40.746C40.2371 40.746 39.9135 40.8539 39.5899 41.0157L25.6737 27.2074C26.267 26.5062 26.6985 25.5893 26.8064 24.6184H35.8141C36.0299 25.4814 36.785 26.0747 37.6481 26.0747C38.6729 26.0747 39.5359 25.2117 39.5359 24.1869C39.5359 23.162 38.6729 22.3529 37.6481 22.3529C36.7311 22.3529 35.976 22.9463 35.8141 23.8093H26.8603C26.8064 22.7845 26.4288 21.8675 25.8355 21.1124L38.2953 8.65252C38.5111 8.81433 38.8887 8.86827 39.1583 8.86827C40.1832 8.86827 41.0462 8.00526 41.0462 6.98042C41.0462 5.95559 40.1832 5.09257 39.1583 5.09257C38.1335 5.09257 37.2705 5.95559 37.2705 6.98042C37.2705 7.41193 37.4323 7.7895 37.6481 8.11313L25.2422 20.573C24.487 19.9257 23.5701 19.4942 22.5452 19.3863V4.12167C23.4083 3.90592 24.0016 3.15077 24.0016 2.28776C24.0016 1.26292 23.1386 0.399902 22.1137 0.399902C21.0889 0.399902 20.2259 1.26292 20.2259 2.28776C20.2259 3.20471 20.8192 3.95985 21.6822 4.12167V19.3324C20.6574 19.4403 19.6865 19.8178 18.9313 20.4651L13.052 14.5858C13.2678 14.2621 13.4296 13.8846 13.4296 13.507C13.4296 12.4822 12.5666 11.6191 11.5417 11.6191C10.5169 11.6191 9.65389 12.4822 9.65389 13.507C9.65389 14.5318 10.5169 15.3949 11.5417 15.3949C11.8654 15.3949 12.189 15.287 12.4587 15.1791L18.392 21.1124C17.7447 21.8675 17.3671 22.8384 17.3132 23.9172H4.42184C4.20609 23.0541 3.45095 22.4608 2.58793 22.4608C1.56309 22.4608 0.700073 23.3238 0.700073 24.3487C0.700073 25.3735 1.56309 26.2365 2.58793 26.2365C3.50488 26.2365 4.26003 25.6432 4.42184 24.7802H17.3671C17.475 25.7511 17.9604 26.668 18.6077 27.3692L7.76604 38.157C7.44241 37.9412 7.11878 37.8333 6.68727 37.8333C5.66243 37.8333 4.79941 38.6964 4.79941 39.7212C4.79941 40.746 5.66243 41.609 6.68727 41.609C7.7121 41.609 8.57512 40.746 8.57512 39.7212C8.57512 39.3976 8.46724 39.0739 8.35936 38.8042L19.1471 27.9086C19.9022 28.5019 20.7653 28.8256 21.7901 28.8795V33.5182C20.9271 33.734 20.3337 34.4891 20.3337 35.3522C20.3337 36.377 21.1968 37.24 22.2216 37.24C23.2464 37.24 24.1095 36.377 24.1095 35.3522C24.1095 34.4352 23.5161 33.6801 22.6531 33.5182V28.8795C23.624 28.7716 24.487 28.3941 25.1343 27.8007L38.9965 41.663C38.7808 41.9327 38.6729 42.3102 38.6729 42.6878C38.6729 43.7127 39.5359 44.5757 40.5607 44.5757C41.5856 44.5757 42.4486 43.7127 42.4486 42.6878C42.4486 41.663 41.5856 40.746 40.5607 40.746Z" fill="#4FC4F9"/>
<path fill-rule="evenodd" clip-rule="evenodd" d="M39.6756 40.5374C39.9535 40.4239 40.2505 40.3461 40.5607 40.3461C41.8208 40.3461 42.8486 41.4568 42.8486 42.6879C42.8486 43.9337 41.8065 44.9758 40.5607 44.9758C39.315 44.9758 38.2729 43.9337 38.2729 42.6879C38.2729 42.3616 38.3405 42.0206 38.4889 41.7212L25.1099 28.3422C24.5265 28.7871 23.8228 29.088 23.0531 29.2257V33.2126C23.9376 33.5245 24.5094 34.3746 24.5094 35.3523C24.5094 36.598 23.4673 37.6401 22.2216 37.6401C20.9758 37.6401 19.9337 36.598 19.9337 35.3523C19.9337 34.4069 20.5183 33.5743 21.3901 33.2278V29.2468C20.5702 29.1497 19.8427 28.8792 19.189 28.4349L8.82323 38.9043C8.9046 39.1441 8.97509 39.4272 8.97509 39.7213C8.97509 40.967 7.93299 42.0091 6.68724 42.0091C5.44149 42.0091 4.39939 40.967 4.39939 39.7213C4.39939 38.4755 5.44149 37.4334 6.68724 37.4334C7.07506 37.4334 7.39856 37.5093 7.70067 37.6578L18.0619 27.3481C17.5664 26.7303 17.1834 25.9833 17.0245 25.1803H4.72759C4.41564 26.0648 3.56558 26.6366 2.5879 26.6366C1.34215 26.6366 0.300049 25.5945 0.300049 24.3488C0.300049 23.103 1.34215 22.0609 2.5879 22.0609C3.53323 22.0609 4.36582 22.6455 4.71234 23.5173H16.9455C17.0499 22.6356 17.3614 21.8248 17.8576 21.1438L12.3573 15.6435C12.1179 15.7247 11.8353 15.7949 11.5417 15.7949C10.296 15.7949 9.25387 14.7528 9.25387 13.5071C9.25387 12.2613 10.296 11.2192 11.5417 11.2192C12.7875 11.2192 13.8296 12.2613 13.8296 13.5071C13.8296 13.8727 13.7135 14.2205 13.5546 14.5228L18.9626 19.9308C19.6412 19.4354 20.4428 19.1217 21.2822 18.983V4.42754C20.3976 4.11559 19.8258 3.26554 19.8258 2.28785C19.8258 1.0421 20.868 0 22.1137 0C23.3594 0 24.4016 1.0421 24.4016 2.28785C24.4016 3.23319 23.817 4.06577 22.9452 4.41229V19.039C23.7871 19.1879 24.5519 19.5398 25.2122 20.0362L37.146 8.05048C36.9852 7.74247 36.8705 7.38465 36.8705 6.98052C36.8705 5.73477 37.9126 4.69266 39.1583 4.69266C40.4041 4.69266 41.4462 5.73477 41.4462 6.98052C41.4462 8.22627 40.4041 9.26837 39.1583 9.26837C38.9996 9.26837 38.8089 9.25275 38.6216 9.21204C38.5426 9.19487 38.4578 9.17188 38.373 9.14064L26.361 21.1526C26.8126 21.8117 27.1195 22.5733 27.2258 23.4094H35.5083C35.8203 22.5248 36.6704 21.953 37.648 21.953C38.8786 21.953 39.9359 22.9263 39.9359 24.187C39.9359 25.4327 38.8938 26.4748 37.648 26.4748C36.7027 26.4748 35.8701 25.8902 35.5236 25.0185H27.1509C27.0026 25.8119 26.662 26.5554 26.2084 27.1746L39.6756 40.5374ZM39.5898 41.0158L25.6737 27.2075C26.267 26.5063 26.6985 25.5894 26.8064 24.6185H35.8141C36.0299 25.4815 36.785 26.0748 37.648 26.0748C38.6729 26.0748 39.5359 25.2118 39.5359 24.187C39.5359 23.1621 38.6729 22.353 37.648 22.353C36.7311 22.353 35.9759 22.9464 35.8141 23.8094H26.8603C26.8064 22.7845 26.4288 21.8676 25.8355 21.1124L38.2953 8.65262C38.5111 8.81443 38.8886 8.86837 39.1583 8.86837C40.1832 8.86837 41.0462 8.00535 41.0462 6.98052C41.0462 5.95568 40.1832 5.09266 39.1583 5.09266C38.1335 5.09266 37.2705 5.95568 37.2705 6.98052C37.2705 7.41203 37.4323 7.7896 37.648 8.11323L25.2421 20.5731C24.487 19.9258 23.57 19.4943 22.5452 19.3864V4.12177C23.4082 3.90601 24.0016 3.15087 24.0016 2.28785C24.0016 1.26302 23.1385 0.4 22.1137 0.4C21.0889 0.4 20.2258 1.26302 20.2258 2.28785C20.2258 3.20481 20.8192 3.95995 21.6822 4.12177V19.3325C20.6574 19.4403 19.6865 19.8179 18.9313 20.4652L13.052 14.5859C13.2678 14.2622 13.4296 13.8847 13.4296 13.5071C13.4296 12.4823 12.5666 11.6192 11.5417 11.6192C10.5169 11.6192 9.65387 12.4823 9.65387 13.5071C9.65387 14.5319 10.5169 15.3949 11.5417 15.3949C11.8654 15.3949 12.189 15.2871 12.4587 15.1792L18.3919 21.1124C17.7447 21.8676 17.3671 22.8385 17.3132 23.9173H4.42182C4.20606 23.0542 3.45092 22.4609 2.5879 22.4609C1.56307 22.4609 0.700049 23.3239 0.700049 24.3488C0.700049 25.3736 1.56307 26.2366 2.5879 26.2366C3.50486 26.2366 4.26 25.6433 4.42182 24.7803H17.3671C17.475 25.7512 17.9604 26.6681 18.6077 27.3693L7.76601 38.1571C7.44238 37.9413 7.11875 37.8334 6.68724 37.8334C5.66241 37.8334 4.79939 38.6965 4.79939 39.7213C4.79939 40.7461 5.66241 41.6091 6.68724 41.6091C7.71208 41.6091 8.57509 40.7461 8.57509 39.7213C8.57509 39.3977 8.46722 39.074 8.35934 38.8043L19.1471 27.9087C19.9022 28.502 20.7652 28.8257 21.7901 28.8796V33.5183C20.927 33.7341 20.3337 34.4892 20.3337 35.3523C20.3337 36.3771 21.1967 37.2401 22.2216 37.2401C23.2464 37.2401 24.1094 36.3771 24.1094 35.3523C24.1094 34.4353 23.5161 33.6802 22.6531 33.5183V28.8796C23.624 28.7717 24.487 28.3942 25.1343 27.8008L38.9965 41.6631C38.7808 41.9328 38.6729 42.3103 38.6729 42.6879C38.6729 43.7128 39.5359 44.5758 40.5607 44.5758C41.5856 44.5758 42.4486 43.7128 42.4486 42.6879C42.4486 41.6631 41.5856 40.7461 40.5607 40.7461C40.2371 40.7461 39.9135 40.854 39.5898 41.0158Z" fill="#4FC4F9"/>
<path d="M4.70007 16.3999C5.80464 16.3999 6.70007 15.5045 6.70007 14.3999C6.70007 13.2953 5.80464 12.3999 4.70007 12.3999C3.5955 12.3999 2.70007 13.2953 2.70007 14.3999C2.70007 15.5045 3.5955 16.3999 4.70007 16.3999Z" fill="#00FFA3"/>
<path d="M17.7001 41.3999C18.8046 41.3999 19.7001 40.5045 19.7001 39.3999C19.7001 38.2953 18.8046 37.3999 17.7001 37.3999C16.5955 37.3999 15.7001 38.2953 15.7001 39.3999C15.7001 40.5045 16.5955 41.3999 17.7001 41.3999Z" fill="#00FFA3"/>
<path d="M30.7001 42.3999C31.8046 42.3999 32.7001 41.5045 32.7001 40.3999C32.7001 39.2953 31.8046 38.3999 30.7001 38.3999C29.5955 38.3999 28.7001 39.2953 28.7001 40.3999C28.7001 41.5045 29.5955 42.3999 30.7001 42.3999Z" fill="#00FFA3"/>
<path d="M40.7001 35.3999C42.3569 35.3999 43.7001 34.0568 43.7001 32.3999C43.7001 30.743 42.3569 29.3999 40.7001 29.3999C39.0432 29.3999 37.7001 30.743 37.7001 32.3999C37.7001 34.0568 39.0432 35.3999 40.7001 35.3999Z" fill="#00FFA3"/>
<path d="M36.7001 19.3999C37.8046 19.3999 38.7001 18.5045 38.7001 17.3999C38.7001 16.2953 37.8046 15.3999 36.7001 15.3999C35.5955 15.3999 34.7001 16.2953 34.7001 17.3999C34.7001 18.5045 35.5955 19.3999 36.7001 19.3999Z" fill="#00FFA3"/>
<path d="M15.7001 9.3999C17.3569 9.3999 18.7001 8.05676 18.7001 6.3999C18.7001 4.74305 17.3569 3.3999 15.7001 3.3999C14.0432 3.3999 12.7001 4.74305 12.7001 6.3999C12.7001 8.05676 14.0432 9.3999 15.7001 9.3999Z" fill="#00FFA3"/>
<path d="M9.70007 31.3999C10.8046 31.3999 11.7001 30.5045 11.7001 29.3999C11.7001 28.2953 10.8046 27.3999 9.70007 27.3999C8.5955 27.3999 7.70007 28.2953 7.70007 29.3999C7.70007 30.5045 8.5955 31.3999 9.70007 31.3999Z" fill="#00FFA3"/>
</svg>
