<svg width="24" height="24" viewBox="0 0 24 24" fill="none" xmlns="http://www.w3.org/2000/svg">
<path d="M4.48553 7.37791C4.50979 7.13809 4.4168 6.89828 4.23892 6.7357L2.41556 4.52455V4.19531H8.08372L12.4662 13.8569L16.3191 4.19531H21.7245V4.52455L20.1639 6.02845C20.0305 6.13007 19.9618 6.30078 19.9901 6.46743V17.5232C19.9618 17.6898 20.0305 17.8606 20.1639 17.9622L21.6881 19.4661V19.7953H14.0187V19.4661L15.5995 17.9256C15.7531 17.7711 15.7531 17.7224 15.7531 17.4866V8.55258L11.3585 19.7669H10.7642L5.65393 8.55258V16.0681C5.60946 16.3851 5.71458 16.7021 5.93694 16.9298L7.99074 19.4336V19.7628H2.16895V19.4376L4.22274 16.9298C4.44106 16.7021 4.54213 16.381 4.48553 16.0681V7.37791Z" fill="#4FC4F9"/>
</svg>
