<svg width="24" height="24" viewBox="0 0 24 24" fill="none" xmlns="http://www.w3.org/2000/svg">
<path d="M6.7816 14.3746C6.7816 15.4152 5.93143 16.2653 4.8908 16.2653C3.85018 16.2653 3 15.4152 3 14.3746C3 13.334 3.85018 12.4838 4.8908 12.4838H6.7816V14.3746ZM7.73464 14.3746C7.73464 13.334 8.58482 12.4838 9.62544 12.4838C10.6661 12.4838 11.5163 13.334 11.5163 14.3746V19.1092C11.5163 20.1498 10.6661 21 9.62544 21C8.58482 21 7.73464 20.1498 7.73464 19.1092V14.3746ZM9.62544 6.78164C8.58482 6.78164 7.73464 5.93145 7.73464 4.89082C7.73464 3.8502 8.58482 3 9.62544 3C10.6661 3 11.5163 3.8502 11.5163 4.89082V6.78164H9.62544ZM9.62544 7.73467C10.6661 7.73467 11.5163 8.58479 11.5163 9.62542C11.5163 10.666 10.6661 11.5162 9.62544 11.5162H4.8908C3.85018 11.5162 3 10.666 3 9.62542C3 8.58479 3.85018 7.73467 4.8908 7.73467H9.62544ZM17.2184 9.62542C17.2184 8.58479 18.0686 7.73467 19.1092 7.73467C20.1498 7.73467 21 8.58479 21 9.62542C21 10.666 20.1498 11.5162 19.1092 11.5162H17.2184V9.62542ZM16.2654 9.62542C16.2654 10.666 15.4152 11.5162 14.3746 11.5162C13.3339 11.5162 12.4837 10.666 12.4837 9.62542V4.89082C12.4837 3.8502 13.3339 3 14.3746 3C15.4152 3 16.2654 3.8502 16.2654 4.89082V9.62542ZM14.3746 17.2184C15.4152 17.2184 16.2654 18.0686 16.2654 19.1092C16.2654 20.1498 15.4152 21 14.3746 21C13.3339 21 12.4837 20.1498 12.4837 19.1092V17.2184H14.3746ZM14.3746 16.2653C13.3339 16.2653 12.4837 15.4152 12.4837 14.3746C12.4837 13.334 13.3339 12.4838 14.3746 12.4838H19.1092C20.1498 12.4838 21 13.334 21 14.3746C21 15.4152 20.1498 16.2653 19.1092 16.2653H14.3746Z" fill="#4FC4F9"/>
</svg>
