<svg width="24" height="24" viewBox="0 0 24 24" fill="none" xmlns="http://www.w3.org/2000/svg">
<path d="M20.9181 7.48594C20.9322 7.6828 20.9322 7.8797 20.9322 8.07656C20.9322 14.0812 16.3541 21 7.98683 21C5.40902 21 3.01435 20.2546 1 18.9609C1.36626 19.0031 1.71837 19.0172 2.09872 19.0172C4.22573 19.0172 6.18376 18.3 7.74735 17.0766C5.74708 17.0344 4.0708 15.7266 3.49326 13.9266C3.77501 13.9687 4.05671 13.9969 4.35255 13.9969C4.76104 13.9969 5.16959 13.9406 5.5499 13.8422C3.46513 13.4203 1.90148 11.5922 1.90148 9.38438V9.32813C2.50717 9.66563 3.21155 9.87659 3.95807 9.90469C2.73255 9.08904 1.92966 7.69689 1.92966 6.12188C1.92966 5.27814 2.15501 4.50469 2.54946 3.82969C4.78919 6.58594 8.15584 8.3859 11.9309 8.58281C11.8605 8.24531 11.8183 7.89376 11.8183 7.54219C11.8183 5.03904 13.8467 3 16.3681 3C17.6782 3 18.8614 3.54844 19.6925 4.43438C20.7208 4.23751 21.7068 3.8578 22.5802 3.3375C22.2421 4.39221 21.5237 5.27816 20.58 5.84063C21.4956 5.74224 22.383 5.48903 23.2 5.1375C22.5803 6.03746 21.8055 6.83903 20.9181 7.48594Z" fill="#4FC4F9"/>
</svg>
