<svg width="24" height="24" viewBox="0 0 24 24" fill="none" xmlns="http://www.w3.org/2000/svg">
<path d="M15.8212 8.43608C16.0778 8.43608 16.3263 8.44811 16.5749 8.48018C15.9094 5.33719 12.5379 3 8.70537 3C4.40782 3 0.900024 5.91849 0.900024 9.63074C0.900024 11.7715 2.07463 13.5394 4.02296 14.9065L3.24925 17.2557L5.9753 15.8886C6.95348 16.0811 7.73121 16.2775 8.70938 16.2775C8.95793 16.2775 9.19446 16.2655 9.44301 16.2454C9.28265 15.7283 9.19446 15.1791 9.19446 14.6098C9.19045 11.2062 12.117 8.43608 15.8212 8.43608ZM11.6319 6.31537C12.2132 6.31537 12.602 6.70423 12.602 7.29354C12.602 7.87483 12.2132 8.2637 11.6319 8.2637C11.0386 8.2637 10.4573 7.87483 10.4573 7.29354C10.4613 6.70423 11.0426 6.31537 11.6319 6.31537ZM6.16372 8.2637C5.58243 8.2637 4.98911 7.87483 4.98911 7.29354C4.98911 6.70022 5.58243 6.31537 6.16372 6.31537C6.75704 6.31537 7.1419 6.70423 7.1419 7.29354C7.1419 7.87884 6.75704 8.2637 6.16372 8.2637ZM22.949 14.5216C22.949 11.3987 19.8261 8.85702 16.3183 8.85702C12.602 8.85702 9.68755 11.3987 9.68755 14.5216C9.68755 17.6445 12.606 20.1862 16.3183 20.1862C17.092 20.1862 17.8778 19.9817 18.6675 19.7893L20.8083 20.9639L20.2149 19.0156C21.7864 17.837 22.949 16.2775 22.949 14.5216ZM14.1655 13.5394C13.7766 13.5394 13.3918 13.1506 13.3918 12.7537C13.3918 12.3648 13.7806 11.98 14.1655 11.98C14.7588 11.98 15.1437 12.3688 15.1437 12.7537C15.1437 13.1546 14.7548 13.5394 14.1655 13.5394ZM18.459 13.5394C18.0702 13.5394 17.6853 13.1506 17.6853 12.7537C17.6853 12.3648 18.0742 11.98 18.459 11.98C19.0403 11.98 19.4372 12.3688 19.4372 12.7537C19.4412 13.1546 19.0403 13.5394 18.459 13.5394Z" fill="#4FC4F9"/>
</svg>
