<svg width="24" height="24" viewBox="0 0 24 24" fill="none" xmlns="http://www.w3.org/2000/svg">
<path d="M2.61324 20.8695C2.67895 20.8432 2.73152 20.7906 2.78409 20.7446C3.90773 19.851 4.8671 18.8127 5.62277 17.5905C6.27987 16.5195 6.72013 15.3695 6.96983 14.1407C7.04868 13.7596 7.10125 13.3719 7.14068 12.9777C7.15382 12.8725 7.15382 12.8725 7.04868 12.8725C5.71477 12.8725 4.38085 12.8725 3.04693 12.8725C2.94836 12.8725 2.94836 12.8725 2.96808 12.7805C3.04036 12.452 3.13235 12.1366 3.3032 11.8409C3.36891 11.7226 3.44776 11.6109 3.5529 11.5189C3.67118 11.4138 3.80917 11.3546 3.97344 11.3546C5.03795 11.3546 6.10903 11.3546 7.17353 11.3546C7.29181 11.3546 7.29181 11.3546 7.29838 11.2298C7.31152 10.9209 7.3181 10.6055 7.33124 10.2967C7.35752 9.1139 7.39038 7.93112 7.40352 6.74833C7.40352 6.67605 7.39038 6.65634 7.3181 6.65634C6.75956 6.66291 6.19445 6.65634 5.63591 6.65634C5.57677 6.65634 5.55049 6.67605 5.53078 6.73519C5.45192 6.97175 5.3665 7.20173 5.28765 7.43829C5.1628 7.78655 4.93938 8.06254 4.67654 8.31224C4.256 8.7065 3.75003 8.90363 3.18492 8.98248C3.08635 8.99562 2.98779 9.00219 2.87608 9.01534C2.99436 8.77221 3.10607 8.54222 3.2112 8.30567C3.73031 7.17545 4.164 6.01895 4.55826 4.83616C4.65026 4.56675 4.73568 4.29734 4.83425 4.02793C5.06423 3.39054 5.52421 2.98313 6.1616 2.76629C6.37187 2.69401 6.58214 2.64801 6.79899 2.63487C6.89755 2.6283 6.89755 2.6283 6.86469 2.71372C6.63471 3.3314 6.42444 3.95564 6.24045 4.57989C6.18788 4.76388 6.13531 4.95444 6.08274 5.13843C6.06303 5.20414 6.0696 5.22385 6.14845 5.22385C7.98177 5.22385 9.82166 5.22385 11.655 5.21728C11.9375 5.21728 12.0689 5.34213 12.1544 5.5524C12.2464 5.76268 12.2661 5.98609 12.2792 6.20951C12.2858 6.32779 12.2792 6.45264 12.2792 6.57091C12.2792 6.63005 12.2595 6.64977 12.2004 6.64977C11.8784 6.64977 11.563 6.64977 11.241 6.64977C10.5182 6.64977 9.80194 6.64977 9.07913 6.64977C9.01342 6.64977 8.99371 6.66948 8.99371 6.73519C8.99371 7.47772 8.98714 8.22024 8.96085 8.96934C8.94114 9.73158 8.90828 10.5004 8.85572 11.2626C8.84915 11.3349 8.86229 11.3612 8.94771 11.3612C10.0122 11.3612 11.0767 11.3612 12.1412 11.3546C12.2924 11.3546 12.3909 11.4138 12.4566 11.5386C12.5618 11.7292 12.6012 11.9329 12.6341 12.1431C12.6669 12.3534 12.6801 12.5637 12.6932 12.7805C12.6998 12.8528 12.6801 12.866 12.6078 12.866C11.3593 12.866 10.1042 12.866 8.85572 12.8594C8.77029 12.8594 8.74401 12.8725 8.73744 12.9645C8.67173 13.7925 8.50745 14.6007 8.26432 15.3892C8.25775 15.4089 8.25775 15.4221 8.24461 15.4615C8.36946 15.3629 8.48774 15.271 8.59945 15.179C8.77686 15.041 8.95428 14.903 9.12513 14.7584C9.17113 14.719 9.19084 14.7321 9.23026 14.765C9.70338 15.2644 10.1502 15.7769 10.597 16.296C10.8927 16.6377 11.1884 16.986 11.4841 17.3277C11.6747 17.5445 11.747 17.8139 11.7864 18.0899C11.8718 18.7142 11.7733 19.3187 11.6221 19.9167C11.6221 19.9232 11.6155 19.9232 11.6024 19.9364C10.459 18.5565 9.30912 17.1831 8.15919 15.7966C8.1329 15.8426 8.12633 15.8821 8.11319 15.9281C7.78464 17.1174 7.32467 18.2476 6.63471 19.2727C6.47043 19.5224 6.28644 19.7524 6.09588 19.9824C5.73448 20.4161 5.25479 20.6658 4.72911 20.83C4.03258 21.0403 3.32948 21.06 2.62638 20.8629C2.61981 20.8629 2.61324 20.8629 2.6001 20.8629C2.61324 20.8826 2.61324 20.876 2.61324 20.8695Z" fill="#4FC4F9"/>
<path d="M13.5343 11.9526C13.5343 9.66588 13.5343 7.37916 13.5343 5.08587C13.5343 5.00702 13.554 4.9873 13.6329 4.9873C16.189 4.9873 18.7386 4.9873 21.2947 4.9873C21.3801 4.9873 21.3998 5.01359 21.3998 5.09244C21.3998 9.66588 21.3998 14.2393 21.3998 18.8127C21.3998 18.8982 21.3801 18.9179 21.2947 18.9179C20.2959 18.9179 19.2971 18.9179 18.2983 18.9179C18.2457 18.9179 18.1997 18.931 18.1537 18.9573C17.2995 19.4961 16.4453 20.0284 15.5976 20.5672C15.5385 20.6066 15.5253 20.5935 15.5056 20.5278C15.3545 20.0152 15.2033 19.5027 15.0588 18.9902C15.0456 18.931 15.0194 18.9179 14.9602 18.9179C14.5134 18.9179 14.0666 18.9179 13.6263 18.9245C13.554 18.9245 13.5343 18.9047 13.5343 18.8325C13.5343 16.5392 13.5343 14.2459 13.5343 11.9526ZM19.7965 11.9526C19.7965 10.1653 19.7965 8.37138 19.7965 6.58406C19.7965 6.5315 19.7965 6.49864 19.7242 6.49864C18.2194 6.49864 16.7147 6.49864 15.2099 6.49864C15.1508 6.49864 15.1376 6.51178 15.1376 6.57749C15.1376 10.1653 15.1376 13.7465 15.1376 17.3343C15.1376 17.4 15.1573 17.4131 15.2165 17.4131C15.4136 17.4131 15.6173 17.4131 15.8144 17.4131C15.8802 17.4131 15.9064 17.4328 15.9196 17.4985C16.0116 17.8205 16.1036 18.1359 16.1956 18.4579C16.2153 18.5236 16.2284 18.5302 16.2876 18.4908C16.8395 18.1425 17.3915 17.8008 17.9369 17.4525C17.9829 17.4263 18.0289 17.4131 18.0815 17.4131C18.6203 17.4131 19.1591 17.4131 19.6979 17.4131C19.7833 17.4131 19.7965 17.3868 19.7965 17.308C19.7965 15.5207 19.7965 13.7399 19.7965 11.9526Z" fill="#4FC4F9"/>
</svg>
