<svg width="127" height="127" viewBox="0 0 127 127" fill="none" xmlns="http://www.w3.org/2000/svg">
<path d="M27.2001 79.9999C27.2001 87.2999 21.3001 93.1999 14.0001 93.1999C6.70011 93.1999 0.80011 87.2999 0.80011 79.9999C0.80011 72.6999 6.70011 66.7999 14.0001 66.7999H27.2001V79.9999ZM33.8001 79.9999C33.8001 72.6999 39.7001 66.7999 47.0001 66.7999C54.3001 66.7999 60.2001 72.6999 60.2001 79.9999V113C60.2001 120.3 54.3001 126.2 47.0001 126.2C39.7001 126.2 33.8001 120.3 33.8001 113V79.9999Z" fill="#E01E5A"/>
<path d="M47 27C39.7 27 33.8 21.1 33.8 13.8C33.8 6.49998 39.7 0.599976 47 0.599976C54.3 0.599976 60.2 6.49998 60.2 13.8V27H47ZM47 33.7C54.3 33.7 60.2 39.6 60.2 46.9C60.2 54.2 54.3 60.1 47 60.1H13.9C6.60001 60.1 0.700012 54.2 0.700012 46.9C0.700012 39.6 6.60001 33.7 13.9 33.7H47Z" fill="#36C5F0"/>
<path d="M99.9 46.9C99.9 39.6 105.8 33.7 113.1 33.7C120.4 33.7 126.3 39.6 126.3 46.9C126.3 54.2 120.4 60.1 113.1 60.1H99.9V46.9ZM93.3 46.9C93.3 54.2 87.4 60.1 80.1 60.1C72.8 60.1 66.9 54.2 66.9 46.9V13.8C66.9 6.49998 72.8 0.599976 80.1 0.599976C87.4 0.599976 93.3 6.49998 93.3 13.8V46.9Z" fill="#2EB67D"/>
<path d="M80.1 99.7999C87.4 99.7999 93.3 105.7 93.3 113C93.3 120.3 87.4 126.2 80.1 126.2C72.8 126.2 66.9 120.3 66.9 113V99.7999H80.1ZM80.1 93.1999C72.8 93.1999 66.9 87.2999 66.9 79.9999C66.9 72.6999 72.8 66.7999 80.1 66.7999H113.2C120.5 66.7999 126.4 72.6999 126.4 79.9999C126.4 87.2999 120.5 93.1999 113.2 93.1999H80.1Z" fill="#ECB22E"/>
</svg>
