<svg width="100" height="100" viewBox="0 0 100 100" fill="none" xmlns="http://www.w3.org/2000/svg">
<rect width="100" height="100" fill="white"/>
<path fill-rule="evenodd" clip-rule="evenodd" d="M12.5 21.0917H12V20.9998V20.4998V19.9998H12.5H12.9706H13V21.0917H12.5ZM16.8529 19.9998H14.9117V20.4998V20.9998H16.8529V20.4998V19.9998ZM12.9706 37.4704H13V36.3785H12.5H12V36.4704V36.9704V37.4704H12.5H12.9706ZM77 37.4704H77.0294H77.5H78V36.9704V36.4704V36.3785H77.5H77V37.4704ZM77.0294 19.9998H77V21.0917H77.5H78V20.9998V20.4998V19.9998H77.5H77.0294ZM18.7941 19.9998V20.4998V20.9998H20.7353V20.4998V19.9998H18.7941ZM22.6765 19.9998V20.4998V20.9998H24.6176V20.4998V19.9998H22.6765ZM26.5588 19.9998V20.4998V20.9998H28.5V20.4998V19.9998H26.5588ZM30.4412 19.9998V20.4998V20.9998H32.3823V20.4998V19.9998H30.4412ZM34.3235 19.9998V20.4998V20.9998H36.2647V20.4998V19.9998H34.3235ZM38.2059 19.9998V20.4998V20.9998H40.1471V20.4998V19.9998H38.2059ZM42.0882 19.9998V20.4998V20.9998H44.0294V20.4998V19.9998H42.0882ZM45.9706 19.9998V20.4998V20.9998H47.9118V20.4998V19.9998H45.9706ZM49.8529 19.9998V20.4998V20.9998H51.7941V20.4998V19.9998H49.8529ZM53.7353 19.9998V20.4998V20.9998H55.6765V20.4998V19.9998H53.7353ZM57.6176 19.9998V20.4998V20.9998H59.5588V20.4998V19.9998H57.6176ZM61.5 19.9998V20.4998V20.9998H63.4412V20.4998V19.9998H61.5ZM65.3824 19.9998V20.4998V20.9998H67.3235V20.4998V19.9998H65.3824ZM69.2647 19.9998V20.4998V20.9998H71.2059V20.4998V19.9998H69.2647ZM73.1471 19.9998V20.4998V20.9998H75.0882V20.4998V19.9998H73.1471ZM78 23.2755H77.5H77V25.4593H77.5H78V23.2755ZM78 27.6432H77.5H77V29.827H77.5H78V27.6432ZM78 32.0108H77.5H77V34.1946H77.5H78V32.0108ZM75.0883 37.4704V36.9704V36.4704H73.1471V36.9704V37.4704H75.0883ZM71.2059 37.4704V36.9704V36.4704H69.2647V36.9704V37.4704H71.2059ZM67.3235 37.4704V36.9704V36.4704H65.3824V36.9704V37.4704H67.3235ZM63.4412 37.4704V36.9704V36.4704H61.5V36.9704V37.4704H63.4412ZM59.5588 37.4704V36.9704V36.4704H57.6177V36.9704V37.4704H59.5588ZM55.6765 37.4704V36.9704V36.4704H53.7353V36.9704V37.4704H55.6765ZM51.7941 37.4704V36.9704V36.4704H49.853V36.9704V37.4704H51.7941ZM47.9118 37.4704V36.9704V36.4704H45.9706V36.9704V37.4704H47.9118ZM44.0294 37.4704V36.9704V36.4704H42.0882V36.9704V37.4704H44.0294ZM40.1471 37.4704V36.9704V36.4704H38.2059V36.9704V37.4704H40.1471ZM36.2647 37.4704V36.9704V36.4704H34.3235V36.9704V37.4704H36.2647ZM32.3824 37.4704V36.9704V36.4704H30.4412V36.9704V37.4704H32.3824ZM28.5 37.4704V36.9704V36.4704H26.5588V36.9704V37.4704H28.5ZM24.6176 37.4704V36.9704V36.4704H22.6765V36.9704V37.4704H24.6176ZM20.7353 37.4704V36.9704V36.4704H18.7941V36.9704V37.4704H20.7353ZM16.8529 37.4704V36.9704V36.4704H14.9118V36.9704V37.4704H16.8529ZM12 34.1946H12.5H13V32.0108H12.5H12V34.1946ZM12 29.827H12.5H13V27.6432H12.5H12V29.827ZM12 25.4593H12.5H13V23.2755H12.5H12V25.4593ZM76 42.3525H14C13.4477 42.3525 13 42.8002 13 43.3525V56.8231C13 57.3754 13.4477 57.8231 14 57.8231H57.9767C57.7462 58.1478 57.5274 58.4813 57.3209 58.8231H14C12.8954 58.8231 12 57.9277 12 56.8231V43.3525C12 42.248 12.8954 41.3525 14 41.3525H76C77.1046 41.3525 78 42.248 78 43.3525V52.5053C77.6725 52.3527 77.339 52.2108 77 52.0799V43.3525C77 42.8002 76.5523 42.3525 76 42.3525ZM14 63.7064H45.8751C46.2367 63.3514 46.6192 63.0174 47.0203 62.7064H14C12.8954 62.7064 12 63.6019 12 64.7064V78.177C12 79.2816 12.8954 80.177 14 80.177H44.2104C43.992 79.8538 43.7878 79.5201 43.5988 79.177H14C13.4477 79.177 13 78.7293 13 78.177V64.7064C13 64.1541 13.4477 63.7064 14 63.7064Z" fill="black"/>
<rect x="17" y="28" width="9" height="2" fill="#4FC4F9"/>
<rect x="17" y="49" width="9" height="2" fill="#4FC4F9"/>
<rect x="17" y="71" width="9" height="2" fill="#4FC4F9"/>
<mask id="path-5-inside-1_4154_3788" fill="white">
<path fill-rule="evenodd" clip-rule="evenodd" d="M56.8786 82.0001C56.8524 82.0004 56.8261 82.0005 56.7999 82.0005C52.4921 82.0005 49 78.5084 49 74.2007C49 69.8929 52.4921 66.4008 56.7999 66.4008C57.7746 66.4008 58.7076 66.5796 59.5678 66.9062C60.569 60.722 65.933 56 72.3999 56C78.8667 56 84.2306 60.722 85.2319 66.9061C86.092 66.5796 87.0248 66.4008 87.9994 66.4008C92.3072 66.4008 95.7993 69.8929 95.7993 74.2007C95.7993 78.5084 92.3072 82.0005 87.9994 82.0005C87.9732 82.0005 87.9469 82.0004 87.9207 82.0001H56.8786Z"/>
</mask>
<path d="M56.8786 82.0001L56.8786 81.0001L56.8687 81.0002L56.8786 82.0001ZM59.5678 66.9062L59.2128 67.8411L60.359 68.2763L60.5549 67.066L59.5678 66.9062ZM85.2319 66.9061L84.2448 67.0659L84.4407 68.276L85.5868 67.841L85.2319 66.9061ZM87.9207 82.0001L87.9306 81.0001H87.9207V82.0001ZM56.8687 81.0002C56.8458 81.0004 56.8228 81.0005 56.7999 81.0005V83.0005C56.8294 83.0005 56.859 83.0004 56.8885 83.0001L56.8687 81.0002ZM56.7999 81.0005C53.0444 81.0005 50 77.9561 50 74.2007H48C48 79.0607 51.9398 83.0005 56.7999 83.0005V81.0005ZM50 74.2007C50 70.4452 53.0444 67.4008 56.7999 67.4008V65.4008C51.9398 65.4008 48 69.3407 48 74.2007H50ZM56.7999 67.4008C57.6515 67.4008 58.4643 67.5569 59.2128 67.8411L59.9227 65.9713C58.9509 65.6024 57.8978 65.4008 56.7999 65.4008V67.4008ZM60.5549 67.066C61.479 61.3584 66.4314 57 72.3999 57V55C65.4346 55 59.659 60.0857 58.5806 66.7464L60.5549 67.066ZM72.3999 57C78.3683 57 83.3206 61.3583 84.2448 67.0659L86.219 66.7462C85.1406 60.0856 79.3651 55 72.3999 55V57ZM85.5868 67.841C86.3353 67.5568 87.148 67.4008 87.9994 67.4008V65.4008C86.9017 65.4008 85.8487 65.6023 84.877 65.9712L85.5868 67.841ZM87.9994 67.4008C91.7549 67.4008 94.7993 70.4452 94.7993 74.2007H96.7993C96.7993 69.3407 92.8595 65.4008 87.9994 65.4008V67.4008ZM94.7993 74.2007C94.7993 77.9561 91.7549 81.0005 87.9994 81.0005V83.0005C92.8595 83.0005 96.7993 79.0607 96.7993 74.2007H94.7993ZM87.9994 81.0005C87.9765 81.0005 87.9535 81.0004 87.9306 81.0002L87.9108 83.0001C87.9403 83.0004 87.9699 83.0005 87.9994 83.0005V81.0005ZM87.9207 81.0001H56.8786V83.0001H87.9207V81.0001Z" fill="#4FC4F9" mask="url(#path-5-inside-1_4154_3788)"/>
</svg>
