<svg fill="none" height="100" viewBox="0 0 100 100" width="100" xmlns="http://www.w3.org/2000/svg"><path d="m0 0h100v100h-100z" fill="#fff"/><rect height="8.95312" rx="1.5" stroke="#000" width="47.3438" x="24.4062" y="49.2031"/><g fill="#4fc4f9"><path d="m28.1719 52.9688h28.4375v1.42188h-28.4375z"/><path d="m0 0h2.84375v1.42188h-2.84375z" transform="matrix(-1 0 0 1 67.9844 52.9688)"/><path d="m0 0h2.84375v1.42188h-2.84375z" transform="matrix(-1 0 0 1 62.2969 52.9688)"/></g><rect height="8.95312" rx="1.5" stroke="#000" width="47.3438" x="24.4062" y="63.4219"/><path d="m28.1719 67.1875h28.4375v1.42188h-28.4375z" fill="#4fc4f9"/><path d="m0 0h2.84375v1.42188h-2.84375z" fill="#4fc4f9" transform="matrix(-1 0 0 1 67.9844 67.1875)"/><path d="m0 0h2.84375v1.42188h-2.84375z" fill="#4fc4f9" transform="matrix(-1 0 0 1 62.2969 67.1875)"/><rect height="8.95312" rx="1.5" stroke="#000" width="47.3438" x="24.4062" y="77.6406"/><path d="m28.1719 81.4062h28.4375v1.42188h-28.4375z" fill="#4fc4f9"/><path d="m0 0h2.84375v1.42188h-2.84375z" fill="#4fc4f9" transform="matrix(-1 0 0 1 67.9844 81.4062)"/><path d="m0 0h2.84375v1.42188h-2.84375z" fill="#4fc4f9" transform="matrix(-1 0 0 1 62.2969 81.4062)"/><path clip-rule="evenodd" d="m14.7111 33.1275.1863.4641.1862.464c.3101-.1245.625-.2395.9444-.3448l.5738-.1893.0994-.596c.0512-.3074.1083-.6128.1712-.9162l-.4896-.1014-.4896-.1015c-.0655.3161-.125.6343-.1784.9547-.3394.1119-.6741.2342-1.0037.3664zm-1.6846 1.3553-.2429-.437c-.6243.3471-1.2246.7322-1.7976 1.1522l.2956.4033.2956.4033c.5396-.3955 1.1047-.7581 1.6923-1.0848zm-3.33733 2.4458-.34341-.3634c-.51757.4891-1.00454 1.0102-1.45774 1.5602l.38587.318.38588.3179c.42678-.5179.88538-1.0087 1.37283-1.4693zm-2.63121 3.1936-.42246-.2675c-.3797.5998-.72303 1.2249-1.02689 1.8722l.45261.2125.45261.2124c.28597-.6091.60913-1.1975.9666-1.7622zm-1.75739 3.7446-.47574-.1539c-.21745.6723-.39431 1.3628-.52769 2.0688l.49131.0928.4913.0928c.12552-.6643.29195-1.3141.49655-1.9467zm-.76862 4.0644-.49904-.0308c-.02183.3533-.03291.7095-.03291 1.0684 0 .335.00966.6677.0287.998l.49917-.0288.49917-.0288c-.01794-.3111-.02704-.6247-.02704-.9404 0-.3383.01044-.674.031-1.0068zm.21963 3.9298-.49243.0867c.11635.6608.27073 1.3085.46079 1.9407l.47883-.1439.47883-.144c-.17883-.5948-.3241-1.2043-.4336-1.8262zm1.11254 3.7009-.45859.1992c.26617.6127.56725 1.2067.90073 1.7796l.43211-.2516.43211-.2515c-.31392-.5393-.59729-1.0984-.84776-1.6749zm1.94445 3.3408-.39986.3002c.39983.5325.83009 1.041 1.2882 1.5226l.36231-.3445.36231-.3446c-.43144-.4536-.83662-.9324-1.2131-1.4339zm2.66443 2.8016-.3199.3843c.5105.4249 1.0462.8206 1.6046 1.1846l.273-.4189.273-.4189c-.5256-.3426-1.0301-.7152-1.5108-1.1154zm8.7458 4.3269h-.2891-.2109-.5v-.0589-.118-.059c-.3297-.0553-.6562-.12-.9792-.194l.1115-.4874.1116-.4874c.3039.0696.6112.1306.9215.1826l.8346.14v.8462.059h-.2891v.118h.2891zm57.7031-.5v.5h1.0156c.3212 0 .6404-.0088.9572-.0263l-.0276-.4993-.0276-.4992c-.2985.0165-.5992.0248-.902.0248h-1.0156zm5.741-.1628c-.6087.1751-1.2314.3172-1.8659.4243l-.0832-.493-.0832-.4931c.5972-.1007 1.1832-.2345 1.7559-.3992l.1382.4805zm1.6144-1.0937.1915.4618c.5921-.2455 1.1673-.5234 1.7235-.8314l-.2422-.4374-.2423-.4374c-.5235.29-1.0649.5515-1.622.7825zm5.0298-2.5832c-.4753.425-.9745.8237-1.4954 1.194l-.2896-.4076-.2897-.4075c.4904-.3486.9605-.7241 1.4081-1.1244l.3333.3727zm.9804-1.6865.3727.3333c.425-.4752.8238-.9744 1.194-1.4953l-.4075-.2897-.4076-.2897c-.3486.4905-.7241.9606-1.1243 1.4081zm2.1489-3.0237.4374.2423c.3081-.5562.586-1.1315.8315-1.7235l-.4619-.1916-.4618-.1915c-.2311.5571-.4926 1.0985-.7826 1.6221zm1.4203-3.4253.4805.1382c.1751-.6087.3172-1.2314.4242-1.866l-.493-.0832-.493-.0832c-.1008.5973-.2345 1.1832-.3992 1.756zm.6177-3.6576.4992.0276c.0175-.3169.0264-.636.0264-.9572 0-.3269-.0092-.6517-.0273-.974l-.4992.0281-.4993.0281c.0171.3036.0258.6096.0258.9178 0 .3027-.0084.6035-.0249.902zm-.214-3.7529.4928-.0846c-.1108-.6453-.2578-1.2782-.4389-1.8965l-.4799.1405-.4798.1405c.1704.5818.3088 1.1774.413 1.7847zm-1.0602-3.6197.4606-.1947c-.2538-.6005-.5411-1.1835-.8594-1.7466l-.4352.2461-.4353.246c.2996.5301.5699 1.0787.8088 1.6439zm-1.8562-3.2844.4045-.294c-.3822-.5258-.7937-1.0289-1.2321-1.507l-.3685.3379-.3685.338c.4128.4502.8003.924 1.1602 1.419zm-2.5502-2.7813.3279-.3775c-.4896-.4252-1.0035-.823-1.5396-1.191l-.283.4123-.2829.4122c.5047.3464.9887.721 1.4497 1.1215zm-3.1108-2.135.2342-.4418c-.5714-.3028-1.162-.5742-1.7695-.8117l-.182.4657-.1821.4657c.5717.2235 1.1275.4788 1.6652.7639zm-6.0559-4.7663.437-.243c-.347-.6243-.7322-1.2246-1.1522-1.7978l-.4033.2956-.4033.2956c.3955.5396.7581 1.1048 1.0848 1.6925zm-2.4458-3.3378.3635-.3434c-.4891-.5176-1.0102-1.0046-1.5603-1.4579l-.3179.3859-.318.3859c.5179.4268 1.0087.8854 1.4693 1.3729zm-3.1936-2.6315.2675-.4224c-.5999-.3798-1.225-.7232-1.8723-1.027l-.2125.4526-.2125.4526c.6092.286 1.1977.6092 1.7623.9667zm-3.7448-1.7576.1539-.4757c-.6723-.2175-1.3629-.3944-2.0689-.5278l-.0928.4913-.0929.4913c.6644.1256 1.3142.292 1.9468.4966zm-4.0646-.7687.0308-.499c-.3534-.0219-.7096-.033-1.0685-.033-.4618 0-.9194.0184-1.3719.0544l.0396.4984.0397.4985c.4262-.034.8573-.0513 1.2926-.0513.3383 0 .674.0105 1.0068.0311zm-8.6521-1.3945.3541-.353c-.4389-.4402-.8941-.8641-1.3648-1.2707l-.3268.3784-.3269.3784c.4519.3903.8889.7973 1.3103 1.2199zm-4.0049-3.8428c.5265.3323 1.0397.6839 1.5386 1.0536l-.2978.4017-.2977.4017c-.4789-.355-.9715-.6924-1.4769-1.0114l.2669-.4228zm-1.8476-.494.2345-.4416c-.5478-.2908-1.1077-.5617-1.6787-.8117l-.2006.458-.2005.458c.5479.24 1.0852.4999 1.6109.779zm-3.3448-1.4645.1654-.4719c-.5843-.2049-1.1786-.3886-1.7819-.5502l-.1294.483-.1293.483c.5789.155 1.1491.3313 1.7097.5279zm-3.527-.9448.0926-.4914c-.6073-.1144-1.2223-.2068-1.8443-.2763l-.0555.4969-.0555.497c.5971.0666 1.1874.1553 1.7701.2651zm-3.6297-.4058.0185-.4996c-.3096-.0114-.6206-.0172-.9329-.0172-.3253 0-.6491.0062-.9714.0186l.0192.4996.0192.4997c.3095-.0119.6205-.0179.933-.0179.3001 0 .5988.0055.896.0165zm-3.7639.1479-.0578-.4967c-.6471.0753-1.2866.1755-1.9176.2994l.0964.4907.0964.4906c.6055-.119 1.2193-.2151 1.8404-.2874zm-3.7288.7329-.1346-.4816c-.6262.1751-1.2425.374-1.8478.5958l.172.4695.172.4694c.5808-.2128 1.1721-.4036 1.773-.5716zm-3.5692 1.3077-.2083-.4546c-.59.2704-1.1675.5632-1.7316.8772l.2433.4369.2432.4368c.5413-.3014 1.0956-.5824 1.6617-.8418zm-3.3211 1.8489-.2765-.4165c-.5399.3584-1.065.7374-1.5742 1.1357l.3081.3938.3081.3938c.4888-.3824.9929-.7461 1.5111-1.0902zm-2.9944 2.3425-.3377-.3687c-.4773.4372-.9376.8927-1.3796 1.3655l.3653.3415.3652.3415c.4244-.454.8662-.8913 1.3245-1.311zm-2.5963 2.7773-.3906-.3121c-.4037.5051-.788 1.0263-1.152 1.5624l.4137.2808.4137.2809c.3494-.5147.7183-1.015 1.1058-1.4999zm-2.1352 3.1455-.4343-.2477c-.3199.5608-.6186 1.1353-.8951 1.7223l.4524.213.4523.213c.2653-.5633.552-1.1146.859-1.6528zm-2.2215 5.2424-.4802-.1397c.1816-.6241.3869-1.2382.6149-1.8411l.4677.1769.4676.1769c-.2188.5785-.4158 1.1677-.5899 1.7666zm41.9255-9.0517.3794-.3257c.2024.2358.4005.4755.5941.7188.4323-.1441.8722-.2713 1.3191-.381l.1192.4856.1191.4856c-.4204.1032-.8344.2229-1.2411.3585l-.6634.2212-.4354-.5473c-.1859-.2336-.376-.4637-.5704-.6901zm21.751 10.4196.464-.1862c.1322.3296.2545.6643.3664 1.0037.3196.0648.6359.1386.9487.2211l-.1274.4834-.1274.4835c-.2943-.0775-.592-.1469-.8927-.208l-.5691-.1154-.1818-.5515c-.1053-.3194-.2203-.6343-.3448-.9445zm-65.025 33.142-.168.4709c-.6299-.2249-1.2427-.4857-1.836-.78l.2222-.4479.2223-.4479c.5583.277 1.135.5224 1.7276.734z" fill="#000" fill-rule="evenodd"/><path clip-rule="evenodd" d="m47 32-6-6-6 6h3.1716v8.1421h5.6568v-8.1421z" fill="#4fc4f9" fill-rule="evenodd"/><path clip-rule="evenodd" d="m64 40.1421-6 6-6-6h3.1716v-8.1421h5.6568v8.1421z" fill="#4fc4f9" fill-rule="evenodd"/></svg>