<svg width="100" height="100" viewBox="0 0 100 100" fill="none" xmlns="http://www.w3.org/2000/svg">
<rect width="100" height="100" fill="white"/>
<path d="M49 89L49.3385 89.368L49 89.6794L48.6615 89.368L49 89ZM74 66V65.5H75.282L74.3385 66.368L74 66ZM24 66L23.6615 66.368L22.718 65.5H24V66ZM35 66H35.5V66.5H35V66ZM35 13H34.5V12.5H35V13ZM64 13V12.5H64.5V13H64ZM64 66V66.5H63.5V66H64ZM48.6615 88.632L73.6615 65.632L74.3385 66.368L49.3385 89.368L48.6615 88.632ZM24.3385 65.632L49.3385 88.632L48.6615 89.368L23.6615 66.368L24.3385 65.632ZM35 66.5H24V65.5H35V66.5ZM35.5 13V66H34.5V13H35.5ZM64 13.5H35V12.5H64V13.5ZM63.5 66V13H64.5V66H63.5ZM74 66.5H64V65.5H74V66.5Z" fill="black"/>
<path fill-rule="evenodd" clip-rule="evenodd" d="M88 41L82 48L76 41H79V25H85V41H88Z" fill="#4FC4F9"/>
<rect x="17" y="86" width="5" height="6" fill="white"/>
<rect x="78" y="86" width="5" height="6" fill="white"/>
<path d="M46.2647 40.888C45.0647 40.888 44.1367 40.496 43.4807 39.712C42.8247 38.912 42.4967 37.816 42.4967 36.424C42.4967 35.032 42.8247 33.944 43.4807 33.16C44.1367 32.36 45.0647 31.96 46.2647 31.96C47.4647 31.96 48.3927 32.36 49.0487 33.16C49.7047 33.944 50.0327 35.032 50.0327 36.424C50.0327 37.816 49.7047 38.912 49.0487 39.712C48.3927 40.496 47.4647 40.888 46.2647 40.888ZM46.2647 38.8C46.7287 38.8 47.0487 38.632 47.2247 38.296C47.4167 37.96 47.5127 37.512 47.5127 36.952V35.896C47.5127 35.336 47.4167 34.888 47.2247 34.552C47.0487 34.216 46.7287 34.048 46.2647 34.048C45.8007 34.048 45.4727 34.216 45.2807 34.552C45.1047 34.888 45.0167 35.336 45.0167 35.896V36.952C45.0167 37.512 45.1047 37.96 45.2807 38.296C45.4727 38.632 45.8007 38.8 46.2647 38.8ZM53.9447 32.248H56.6567L53.0327 39.448H50.3207L53.9447 32.248ZM45.9767 41.8H48.6887L45.0647 49H42.3527L45.9767 41.8ZM52.7687 49.288C51.5687 49.288 50.6407 48.896 49.9847 48.112C49.3287 47.312 49.0007 46.216 49.0007 44.824C49.0007 43.432 49.3287 42.344 49.9847 41.56C50.6407 40.76 51.5687 40.36 52.7687 40.36C53.9687 40.36 54.8967 40.76 55.5527 41.56C56.2087 42.344 56.5367 43.432 56.5367 44.824C56.5367 46.216 56.2087 47.312 55.5527 48.112C54.8967 48.896 53.9687 49.288 52.7687 49.288ZM52.7687 47.2C53.2327 47.2 53.5527 47.032 53.7287 46.696C53.9207 46.36 54.0167 45.912 54.0167 45.352V44.296C54.0167 43.736 53.9207 43.288 53.7287 42.952C53.5527 42.616 53.2327 42.448 52.7687 42.448C52.3047 42.448 51.9767 42.616 51.7847 42.952C51.6087 43.288 51.5207 43.736 51.5207 44.296V45.352C51.5207 45.912 51.6087 46.36 51.7847 46.696C51.9767 47.032 52.3047 47.2 52.7687 47.2Z" fill="#4FC4F9"/>
<path d="M15 22.7564C15 23.8468 15.7462 24.7308 16.6667 24.7308H18.2143C19.2005 24.7308 20 23.7837 20 22.6154C20 21.4471 19.2005 20.5 18.2143 20.5H16.7857C15.7995 20.5 15 19.5529 15 18.3846C15 17.2163 15.7995 16.2692 16.7857 16.2692H18.3333C19.2538 16.2692 20 17.1532 20 18.2436M17.5 15V16.2692M17.5 24.7308V26" stroke="black" stroke-linecap="round" stroke-linejoin="round"/>
<path d="M17.5 31C23.299 31 28 26.299 28 20.5C28 14.701 23.299 10 17.5 10C11.701 10 7 14.701 7 20.5C7 26.299 11.701 31 17.5 31Z" stroke="black" stroke-linejoin="round" stroke-dasharray="2 2"/>
<path d="M15 85L15.3796 85.3254L15 85.7683L14.6204 85.3254L15 85ZM21 78V77.5H22.0871L21.3796 78.3254L21 78ZM9 78L8.62037 78.3254L7.91289 77.5H9V78ZM12 78H12.5V78.5H12V78ZM12 67H11.5V66.5H12V67ZM18 67V66.5H18.5V67H18ZM18 78V78.5H17.5V78H18ZM14.6204 85.3254L13.8704 84.4504L14.6296 83.7996L15.3796 84.6746L14.6204 85.3254ZM12.3704 82.7004L10.8704 80.9504L11.6296 80.2996L13.1296 82.0496L12.3704 82.7004ZM9.37037 79.2004L8.62037 78.3254L9.37963 77.6746L10.1296 78.5496L9.37037 79.2004ZM9 77.5H9.75V78.5H9V77.5ZM11.25 77.5H12V78.5H11.25V77.5ZM11.5 78V77.0833H12.5V78H11.5ZM11.5 75.25V73.4167H12.5V75.25H11.5ZM11.5 71.5833V69.75H12.5V71.5833H11.5ZM11.5 67.9167V67H12.5V67.9167H11.5ZM12 66.5H12.75V67.5H12V66.5ZM14.25 66.5H15.75V67.5H14.25V66.5ZM17.25 66.5H18V67.5H17.25V66.5ZM18.5 67V67.9167H17.5V67H18.5ZM18.5 69.75V71.5833H17.5V69.75H18.5ZM18.5 73.4167V75.25H17.5V73.4167H18.5ZM18.5 77.0833V78H17.5V77.0833H18.5ZM18 77.5H18.75V78.5H18V77.5ZM20.25 77.5H21V78.5H20.25V77.5ZM21.3796 78.3254L20.6296 79.2004L19.8704 78.5496L20.6204 77.6746L21.3796 78.3254ZM19.1296 80.9504L17.6296 82.7004L16.8704 82.0496L18.3704 80.2996L19.1296 80.9504ZM16.1296 84.4504L15.3796 85.3254L14.6204 84.6746L15.3704 83.7996L16.1296 84.4504Z" fill="black"/>
</svg>
