<svg width="100" height="100" viewBox="0 0 100 100" fill="none" xmlns="http://www.w3.org/2000/svg">
<rect width="100" height="100" fill="white"/>
<path d="M69.4125 73.4896L64.8375 78.7385C63.4783 80.298 63.6775 82.6725 65.2775 83.9837L69.4125 87.3724V91.0833C69.4125 91.5896 69.823 92 70.3292 92H89.0833C89.5896 92 90 91.5896 90 91.0833V76.3256C90 75.6482 89.6264 75.026 89.0285 74.7075L75.8829 67.7051M69.4125 73.4896V58.7928C69.4125 57.0061 70.861 55.5576 72.6477 55.5576V55.5576C74.4344 55.5576 75.8829 57.0061 75.8829 58.7928V67.7051M69.4125 73.4896V77.5387M75.8829 71.1758V67.7051" stroke="black" stroke-width="0.916667" stroke-linecap="square"/>
<path fill-rule="evenodd" clip-rule="evenodd" d="M78.6905 60.2914C79.6845 58.9742 80.2739 57.3345 80.2739 55.5572C80.2739 51.2126 76.7519 47.6906 72.4073 47.6906C68.0627 47.6906 64.5407 51.2126 64.5407 55.5572C64.5407 57.3345 65.1301 58.9742 66.1241 60.2914V61.7134C64.5694 60.1269 63.6108 57.954 63.6108 55.5572C63.6108 50.699 67.5491 46.7607 72.4073 46.7607C77.2654 46.7607 81.2037 50.699 81.2037 55.5572C81.2037 57.954 80.2451 60.1269 78.6905 61.7134V60.2914Z" fill="black"/>
<path fill-rule="evenodd" clip-rule="evenodd" d="M59.0006 50.5304H59.9877C59.9415 50.6556 59.8969 50.7817 59.854 50.9087C58.8567 53.8542 58.784 57.0696 59.6472 60.0639C60.5125 63.0654 61.922 65.3989 64.625 67.4836C65.1502 67.8887 65.6443 68.2354 66.1238 68.5317V69.6111C65.454 69.235 64.7775 68.7755 64.0571 68.2199C61.1799 66.0008 59.6674 63.4906 58.7538 60.3215C57.8381 57.1453 57.915 53.736 58.9732 50.6105C58.9823 50.5837 58.9914 50.557 59.0006 50.5304ZM81.9471 67.1954C84.0528 65.1751 85.553 62.5285 86.2528 59.5897C86.9676 56.5874 86.8118 53.4283 85.8134 50.5303H84.8263C85.8629 53.3424 86.0474 56.4379 85.3482 59.3744C84.6645 62.2458 83.1726 64.8115 81.0869 66.7276L81.9471 67.1954Z" fill="black"/>
<path fill-rule="evenodd" clip-rule="evenodd" d="M10 27.5V27.9773V28H11V27.9773H11V27H11H10.5H10V27.5ZM10.5 69.0227H10V70C10 70.2712 10.054 70.5298 10.1518 70.7656L10.6136 70.574L11.0755 70.3825C11.0272 70.266 11 70.1374 11 70V69.0227H10.5ZM90 27.9773V28H89V27.9773V27.5V27H89.5H90V27.5V27.9773ZM13 27.5V27H15V27.5V28H13V27.5ZM17 27.5V27H19V27.5V28H17V27.5ZM21 27.5V27H23V27.5V28H21V27.5ZM25 27.5V27H27V27.5V28H25V27.5ZM29 27.5V27H31V27.5V28H29V27.5ZM33 27.5V27H35V27.5V28H33V27.5ZM37 27.5V27H39V27.5V28H37V27.5ZM41 27.5V27H43V27.5V28H41V27.5ZM45 27.5V27H47V27.5V28H45V27.5ZM49 27.5V27H51V27.5V28H49V27.5ZM53 27.5V27H55V27.5V28H53V27.5ZM57 27.5V27H59V27.5V28H57V27.5ZM61 27.5V27H63V27.5V28H61V27.5ZM65 27.5V27H67V27.5V28H65V27.5ZM69 27.5V27H71V27.5V28H69V27.5ZM73 27.5V27H75V27.5V28H73V27.5ZM77 27.5V27H79V27.5V28H77V27.5ZM81 27.5V27H83V27.5V28H81V27.5ZM85 27.5V27H87V27.5V28H85V27.5ZM89.5 29.9318H90V31.8864H89.5H89V29.9318H89.5ZM89.5 33.8409H90V35.7955H89.5H89V33.8409H89.5ZM89.5 37.75H90V39.7045H89.5H89V37.75H89.5ZM51 71H53V71.5V72H51V71.5V71ZM49 71.5V72H47V71.5V71H49V71.5ZM45 71.5V72H43V71.5V71H45V71.5ZM41 71.5V72H39V71.5V71H41V71.5ZM37 71.5V72H35V71.5V71H37V71.5ZM33 71.5V72H31V71.5V71H33V71.5ZM29 71.5V72H27V71.5V71H29V71.5ZM25 71.5V72H23V71.5V71H25V71.5ZM21 71.5V72H19V71.5V71H21V71.5ZM17 71.5V72H15V71.5V71H17V71.5ZM13 71.5V72H12C11.7288 72 11.4702 71.946 11.2344 71.8482L11.426 71.3864L11.6175 70.9245C11.734 70.9728 11.8626 71 12 71H13V71.5ZM10.5 67.0682H10V65.1136H10.5H11V67.0682H10.5ZM10.5 63.1591H10V61.2045H10.5H11V63.1591H10.5ZM10.5 59.25H10V57.2955H10.5H11V59.25H10.5ZM10.5 55.3409H10V53.3864H10.5H11V55.3409H10.5ZM10.5 51.4318H10V49.4773H10.5H11V51.4318H10.5ZM10.5 47.5227H10V45.5682H10.5H11V47.5227H10.5ZM10.5 43.6136H10V41.6591H10.5H11V43.6136H10.5ZM10.5 39.7045H10V37.75H10.5H11V39.7045H10.5ZM10.5 35.7955H10V33.8409H10.5H11V35.7955H10.5ZM10.5 31.8864H10V29.9318H10.5H11V31.8864H10.5Z" fill="black"/>
<mask id="path-5-inside-1_3998_3918" fill="white">
<path d="M10 13C10 11.8954 10.8954 11 12 11H88C89.1046 11 90 11.8954 90 13V23H10V13Z"/>
</mask>
<path d="M90 23V23.8H90.8V23H90ZM10 23H9.2V23.8H10V23ZM12 11.8H88V10.2H12V11.8ZM89.2 13V23H90.8V13H89.2ZM90 22.2H10V23.8H90V22.2ZM10.8 23V13H9.2V23H10.8ZM88 11.8C88.6627 11.8 89.2 12.3373 89.2 13H90.8C90.8 11.4536 89.5464 10.2 88 10.2V11.8ZM12 10.2C10.4536 10.2 9.2 11.4536 9.2 13H10.8C10.8 12.3373 11.3373 11.8 12 11.8V10.2Z" fill="black" mask="url(#path-5-inside-1_3998_3918)"/>
<path fill-rule="evenodd" clip-rule="evenodd" d="M18 17C18 18.1046 17.1046 19 16 19C14.8954 19 14 18.1046 14 17C14 15.8954 14.8954 15 16 15C17.1046 15 18 15.8954 18 17ZM25 17C25 18.1046 24.1046 19 23 19C21.8954 19 21 18.1046 21 17C21 15.8954 21.8954 15 23 15C24.1046 15 25 15.8954 25 17ZM30 19C31.1046 19 32 18.1046 32 17C32 15.8954 31.1046 15 30 15C28.8954 15 28 15.8954 28 17C28 18.1046 28.8954 19 30 19Z" fill="#4FC4F9"/>
<path d="M23.8 34.96L19 40.24L23.8 45.52" stroke="#4FC4F9" stroke-width="2"/>
<path d="M38.2 34.96L43 40.24L38.2 45.52" stroke="#4FC4F9" stroke-width="2"/>
<path d="M33.3996 34L29.5596 46.48" stroke="#4FC4F9" stroke-width="2"/>
</svg>
