<svg width="24" height="24" viewBox="0 0 24 24" fill="none" xmlns="http://www.w3.org/2000/svg">
<path d="M12.1581 17.1696L19.9293 20.3296V3.604C19.9298 3.5512 19.9199 3.49882 19.9001 3.44988C19.8802 3.40094 19.8509 3.35641 19.8138 3.31885C19.7767 3.28129 19.7325 3.25146 19.6838 3.23106C19.6351 3.21066 19.5829 3.2001 19.5301 3.2H4.79888C4.74615 3.20016 4.69397 3.21074 4.64534 3.23113C4.59671 3.25153 4.5526 3.28134 4.51553 3.31885C4.47847 3.35636 4.44919 3.40083 4.42937 3.4497C4.40956 3.49857 4.3996 3.55087 4.40008 3.6036V20.3288L12.1581 17.1696ZM3.20008 3.604C3.19955 3.39365 3.24051 3.18526 3.32061 2.99076C3.4007 2.79625 3.51837 2.61945 3.66687 2.47047C3.81537 2.32149 3.99178 2.20325 4.18603 2.12252C4.38027 2.04179 4.58853 2.00016 4.79888 2H19.5301C19.7404 2.0001 19.9487 2.04169 20.143 2.12237C20.3372 2.20305 20.5137 2.32124 20.6622 2.47018C20.8107 2.61913 20.9285 2.7959 21.0086 2.99039C21.0887 3.18487 21.1298 3.39325 21.1293 3.6036V20.5096C21.1293 21.3952 20.4625 21.8416 19.6481 21.5108L12.1585 18.4652L4.67928 21.5108C3.86248 21.8432 3.20008 21.3972 3.20008 20.5096V3.6036V3.604Z" fill="#1493CC"/>
<path d="M10.7372 11.2704L9.28921 9.8592L11.29 9.5684L12.1848 7.7556L13.0792 9.5684L15.08 9.8592L13.632 11.2704L13.974 13.2628L12.1848 12.322L10.3952 13.2628L10.7372 11.2704ZM13.564 8.4264L14.016 8.7544L13.876 8.4716L13.564 8.4264ZM10.3536 8.7544L10.8056 8.4264L10.4932 8.4716L10.3532 8.7548L10.3536 8.7544ZM13.7848 14.5192C14.6148 14.9552 15.386 14.396 15.2272 13.4712L14.9216 11.6892L16.2164 10.4272C16.8876 9.7728 16.594 8.8668 15.6656 8.7316L13.8764 8.4716L13.0764 6.8504C12.6612 6.0096 11.7084 6.0092 11.2932 6.8504L10.4932 8.4716L8.70401 8.7316C7.77601 8.8664 7.48121 9.7724 8.15281 10.4276L9.44761 11.6892L9.14201 13.4712C8.98361 14.3952 9.75401 14.956 10.5844 14.5192L12.1844 13.678L13.7848 14.5192Z" fill="#1493CC"/>
</svg>
