<svg width="29" height="29" viewBox="0 0 29 29" fill="none" xmlns="http://www.w3.org/2000/svg">
<path d="M12.5375 6.08988C12.3182 5.86833 12.0122 5.73151 11.672 5.73151C11.3331 5.73151 11.0295 5.86833 10.8127 6.08988H10.8065C10.5878 6.31035 10.4517 6.61815 10.4517 6.9588C10.4517 7.30074 10.5878 7.60595 10.8065 7.82512L10.8127 7.83009C11.0295 8.05056 11.3331 8.18609 11.672 8.18609C12.0122 8.18609 12.3182 8.05056 12.5375 7.83009L12.5407 7.82512C12.7605 7.60595 12.8953 7.30074 12.8953 6.9588C12.8953 6.61815 12.7605 6.31035 12.5407 6.08988H12.5375ZM11.672 22.8896C12.0122 22.8896 12.3182 22.7504 12.5375 22.5325L12.5407 22.526C12.7605 22.3086 12.8953 22.0008 12.8953 21.6625C12.8953 21.3206 12.7605 21.0141 12.5407 20.7925H12.5375C12.3182 20.5684 12.0122 20.4328 11.672 20.4328C11.3331 20.4328 11.0295 20.5684 10.8127 20.7925H10.8065C10.5878 21.0141 10.4517 21.3206 10.4517 21.6625C10.4517 22.0008 10.5878 22.3086 10.8065 22.526L10.8127 22.5325C11.0295 22.7504 11.3331 22.8896 11.672 22.8896ZM18.3244 19.1714C18.6269 19.0916 18.9009 18.8965 19.068 18.6014L19.0905 18.5584C19.2391 18.2785 19.2662 17.9556 19.1869 17.6694C19.1069 17.3629 18.9103 17.0918 18.6175 16.9222L18.6005 16.9107C18.3151 16.7536 17.99 16.7194 17.6913 16.8005C17.3877 16.8766 17.115 17.0804 16.9488 17.373C16.7804 17.6629 16.7451 17.9973 16.8258 18.3051C16.909 18.6077 17.1036 18.8813 17.3946 19.0523H17.3965C17.6881 19.2207 18.0184 19.2512 18.3244 19.1714ZM12.925 13.0529C12.6042 12.7313 12.1621 12.5298 11.672 12.5298C11.1839 12.5298 10.7428 12.7313 10.4226 13.0529C10.1039 13.3734 9.9074 13.8168 9.9074 14.3081C9.9074 14.8007 10.1039 15.2453 10.4226 15.5695C10.7428 15.8885 11.1839 16.0887 11.672 16.0887C12.1621 16.0887 12.6042 15.8885 12.925 15.5695C13.2443 15.2453 13.4409 14.8007 13.4409 14.3081C13.4409 13.8168 13.2443 13.3734 12.925 13.0529ZM12.2206 10.961C12.9306 11.0786 13.5695 11.4205 14.057 11.9144H14.0608C14.1382 11.9929 14.2139 12.0778 14.2838 12.1639L15.5029 11.4549C15.339 10.9571 15.3315 10.4366 15.4631 9.949C15.6371 9.29536 16.0585 8.71025 16.6903 8.34301L16.7112 8.33048C17.3361 7.97448 18.0465 7.90099 18.688 8.07585C19.3374 8.2505 19.9234 8.6761 20.2881 9.31071V9.31201C20.6511 9.94273 20.7248 10.667 20.5515 11.3181C20.3788 11.9713 19.9554 12.5603 19.3243 12.9249L19.1579 13.0239H19.1409C18.557 13.3036 17.9149 13.3468 17.3253 13.191C16.841 13.0617 16.3968 12.7907 16.0491 12.4044L14.832 13.1112C14.9717 13.4835 15.0494 13.8851 15.0494 14.3081C15.0494 14.7298 14.9717 15.1363 14.832 15.5111L16.0491 16.2154C16.3968 15.8241 16.841 15.558 17.3253 15.4288C17.9747 15.2503 18.6949 15.3263 19.3243 15.6949L19.3645 15.7139V15.7165C19.9726 16.0861 20.3808 16.6587 20.5515 17.3045C20.7248 17.9517 20.6511 18.6762 20.2881 19.3082L20.2662 19.3525L20.2636 19.3486C19.8989 19.958 19.3243 20.3708 18.6899 20.5455C18.039 20.7177 17.3191 20.6442 16.6903 20.2809V20.2757C16.0585 19.9085 15.6371 19.3221 15.4631 18.6699C15.3315 18.1836 15.339 17.6629 15.5029 17.1653L14.2838 16.4585C14.2139 16.5448 14.1382 16.6258 14.0608 16.7043L14.057 16.708C13.5695 17.1995 12.9306 17.5414 12.2206 17.6553V19.0713C12.7265 19.1777 13.18 19.4323 13.5355 19.7894L13.5372 19.7933C14.0135 20.2694 14.3083 20.933 14.3083 21.6625C14.3083 22.3896 14.0135 23.0491 13.5372 23.5279L13.5355 23.5354C13.056 24.0142 12.3977 24.3105 11.672 24.3105C10.9501 24.3105 10.291 24.0142 9.81279 23.5354H9.81107V23.5279C9.33411 23.0491 9.03865 22.3896 9.03865 21.6625C9.03865 20.933 9.33411 20.2694 9.81107 19.7933V19.7894H9.81279C10.1676 19.4323 10.6218 19.1777 11.1264 19.0713V17.6553C10.4157 17.5414 9.77881 17.1995 9.29197 16.708L9.28681 16.7043C8.67825 16.09 8.29785 15.2453 8.29785 14.3081C8.29785 13.3734 8.67825 12.5287 9.28681 11.9144H9.29197C9.77881 11.4205 10.4157 11.0786 11.1264 10.961V9.55128C10.6218 9.44105 10.1676 9.18664 9.81279 8.83194H9.81107V8.82805C9.33411 8.3469 9.03865 7.6883 9.03865 6.9588C9.03865 6.23297 9.33411 5.5681 9.81107 5.08933L9.81279 5.08695C10.291 4.60689 10.9501 4.31055 11.672 4.31055C12.3977 4.31055 13.056 4.60689 13.5355 5.08695V5.08933H13.5372C14.0135 5.5681 14.3083 6.23297 14.3083 6.9588C14.3083 7.6883 14.0135 8.3469 13.5372 8.82805L13.5355 8.83194C13.18 9.18664 12.7265 9.44105 12.2206 9.55128V10.961ZM19.068 10.0212L19.0579 10.0061C18.8895 9.72096 18.6211 9.53096 18.3244 9.44861C18.0184 9.36756 17.6881 9.40192 17.3946 9.5703H17.3965C17.1036 9.73739 16.9077 10.011 16.8258 10.3175C16.7451 10.6214 16.7804 10.9571 16.9488 11.2496L16.9544 11.2573C17.1232 11.5459 17.3915 11.7396 17.6913 11.818C17.9926 11.903 18.3282 11.8675 18.6175 11.6979L18.6332 11.6903C18.9179 11.5193 19.1075 11.2496 19.1869 10.9532C19.2675 10.648 19.2355 10.3136 19.068 10.0212Z" fill="#1A1919"/>
</svg>
