<svg width="29" height="29" viewBox="0 0 29 29" fill="none" xmlns="http://www.w3.org/2000/svg">
<path d="M26.9692 12.1609H21.5931C20.1399 9.32635 18.6021 7.12402 16.5097 7.12402C13.7856 7.12402 12.5071 9.54058 11.2696 11.8944L11.1618 12.1008H4.96924V13.4985H8.57643C9.84985 13.4985 10.1092 13.9348 10.1092 13.9348C9.11044 15.5127 7.9089 17.0724 5.90634 17.0724H4.96924V18.538H5.91404C9.79593 18.538 11.4904 15.3351 12.8511 12.7644C14.0989 10.3949 14.9693 8.96061 16.5122 8.96061C18.1143 8.96061 19.7985 12.5057 21.2799 15.6355C21.4955 16.0901 21.7163 16.5551 21.9397 17.0175C16.2555 17.2004 13.5469 18.5536 11.3441 19.6587C9.73175 20.466 8.45832 21.4666 6.36333 21.4666H4.96924V22.9348H6.3505C8.87424 22.9348 10.4481 22.1432 12.122 21.302C14.4404 20.1421 17.0694 18.828 23.267 18.828H26.8486V17.3597H24.8254C24.6585 17.3728 24.4917 17.3467 24.3377 17.2814C24.1836 17.2187 24.045 17.1194 23.9346 16.9914C23.5802 16.2939 23.2336 15.5598 22.8948 14.8256L22.4249 13.8486C22.4249 13.8486 22.7613 13.4828 23.6906 13.4828H26.9692V12.1609Z" fill="#188FFF"/>
</svg>
