<svg width="142" height="69" viewBox="0 0 142 69" fill="none" xmlns="http://www.w3.org/2000/svg">
<g clip-path="url(#clip0_5726_411)">
<rect width="142" height="69" fill="white"/>
<g style="mix-blend-mode:lighten">
<rect width="142" height="69" fill="#475467"/>
</g>
<g clip-path="url(#clip1_5726_411)">
<path d="M28.0872 30.9619V38.0383L21.96 41.5772V46.0001L31.9198 40.2505V28.7498L28.0872 30.9619Z" fill="#00AC69"/>
<path d="M21.9599 27.4244L28.0871 30.9618L31.9197 28.7496L21.9599 23L12 28.7496L15.8312 30.9618L21.9599 27.4244Z" fill="#1CE783"/>
<path d="M18.1287 36.713V43.7894L21.9599 46.0001V34.5008L12 28.7498V33.1741L18.1287 36.713Z" fill="#1D252C"/>
<path d="M45.591 28.7336C43.4469 28.7336 42.4312 30.0879 42.4312 30.0879H42.3184L42.0941 28.9593H39.4971V40.4702H42.3184V33.8149C42.3184 32.3478 43.3311 31.3321 44.8011 31.3321C46.2711 31.3321 47.2838 32.3449 47.2838 33.8149V40.4702H50.1051V33.5863C50.1051 30.6521 48.1866 28.7336 45.591 28.7336Z" fill="#1D252C"/>
<path d="M76.0169 36.5205H75.8549L73.9364 28.9595H71.0659L69.1475 36.5205H68.9869L67.067 28.9595H64.1328L67.067 40.4703H70.5031L72.4202 33.0221H72.5822L74.5007 40.4703H77.9354L80.8696 28.9595H77.9354L76.0169 36.5205Z" fill="#1D252C"/>
<path d="M89.5082 29.9752H89.3954L89.1697 28.9624H86.7998V40.4718H89.6211V33.8164C89.6211 32.3494 90.2982 31.6723 91.7653 31.6723H93.2121V28.9609H91.5338C91.1407 28.9618 90.7532 29.0538 90.4017 29.2298C90.0502 29.4058 89.7444 29.6609 89.5082 29.9752Z" fill="#1D252C"/>
<path d="M99.4557 28.7336C96.0716 28.7336 93.5889 31.2164 93.5889 34.7148C93.5889 38.2132 95.9313 40.6959 99.4557 40.6959C102.31 40.6959 104.029 39.0161 104.745 37.7806L102.155 36.8575C101.899 37.3263 100.866 38.2276 99.4557 38.2276C97.8107 38.2276 96.6359 37.1975 96.4102 35.6234H104.985C105.065 35.2525 105.103 34.874 105.098 34.4949C105.098 31.2164 102.616 28.7336 99.4557 28.7336ZM96.4102 33.6991C96.7487 32.232 97.7644 31.1035 99.4557 31.1035C101.037 31.1035 102.051 32.232 102.277 33.6991H96.4102Z" fill="#1D252C"/>
<path d="M57.7775 28.7336C54.3919 28.7336 51.9092 31.2164 51.9092 34.7148C51.9092 38.2132 54.2472 40.6959 57.7775 40.6959C60.632 40.6959 62.3494 39.0161 63.0656 37.7806L60.4758 36.8575C60.2197 37.3263 59.1881 38.2276 57.7775 38.2276C56.1324 38.2276 54.9562 37.1975 54.7305 35.6234H63.3072C63.3865 35.2525 63.4243 34.874 63.42 34.4949C63.42 31.2164 60.9373 28.7336 57.7775 28.7336ZM54.7305 33.6991C55.069 32.232 56.0847 31.1035 57.7775 31.1035C59.3574 31.1035 60.373 32.232 60.5987 33.6991H54.7305Z" fill="#1D252C"/>
<path d="M114.961 24.415H112.14V27.2363H114.961V24.415Z" fill="#1D252C"/>
<path d="M122.746 38.1003C121.053 38.1003 119.699 36.7461 119.699 34.7148C119.699 32.6834 121.053 31.3292 122.746 31.3292C124.439 31.3292 125.116 32.4577 125.342 33.1349L127.897 32.2263C127.278 30.6188 125.758 28.7336 122.746 28.7336C119.361 28.7336 116.878 31.2164 116.878 34.7148C116.878 38.2132 119.361 40.6959 122.746 40.6959C125.785 40.6959 127.304 38.7803 127.911 37.0962L125.342 36.1818C125.116 36.9718 124.439 38.1003 122.746 38.1003Z" fill="#1D252C"/>
<path d="M105.41 26.9224H107.012V40.4703H109.833V24.415H105.41V26.9224Z" fill="#1D252C"/>
<path d="M114.961 28.9595H112.14V40.4703H114.961V28.9595Z" fill="#1D252C"/>
<path d="M129.422 38.2624C129.206 38.2592 128.995 38.3203 128.814 38.438C128.633 38.5556 128.491 38.7244 128.406 38.9229C128.321 39.1214 128.297 39.3406 128.337 39.5527C128.378 39.7648 128.48 39.9602 128.631 40.1139C128.783 40.2677 128.977 40.3729 129.188 40.4162C129.4 40.4595 129.619 40.4389 129.819 40.357C130.019 40.2751 130.19 40.1357 130.31 39.9565C130.43 39.7772 130.494 39.5662 130.494 39.3504C130.499 39.2076 130.475 39.0653 130.423 38.9322C130.371 38.7991 130.292 38.678 130.192 38.5762C130.092 38.4744 129.972 38.3941 129.839 38.3402C129.707 38.2862 129.565 38.2598 129.422 38.2624ZM129.422 40.272C129.239 40.2752 129.06 40.2238 128.906 40.1245C128.752 40.0252 128.632 39.8823 128.56 39.7142C128.487 39.5461 128.467 39.3604 128.501 39.1805C128.534 39.0007 128.621 38.835 128.749 38.7045C128.877 38.5741 129.041 38.4847 129.221 38.4478C129.4 38.4109 129.586 38.4282 129.755 38.4975C129.925 38.5668 130.07 38.6849 130.171 38.8367C130.273 38.9886 130.328 39.1674 130.328 39.3504C130.332 39.4709 130.312 39.591 130.268 39.7034C130.224 39.8157 130.157 39.9179 130.073 40.0036C129.988 40.0894 129.886 40.1569 129.775 40.2021C129.663 40.2472 129.543 40.2691 129.422 40.2662V40.272Z" fill="#1D252C"/>
<path d="M129.889 39.1492C129.889 39.0971 129.878 39.0455 129.857 38.9977C129.836 38.9499 129.806 38.9069 129.767 38.8714C129.729 38.8359 129.684 38.8086 129.635 38.7912C129.586 38.7738 129.533 38.7666 129.481 38.7702H128.998V39.9045H129.164V39.5109H129.316L129.708 39.9045H129.915L129.523 39.5109C129.62 39.511 129.712 39.473 129.781 39.4053C129.849 39.3376 129.888 39.2456 129.889 39.1492ZM129.166 39.3446V38.9366H129.481C129.512 38.9329 129.542 38.9357 129.571 38.9446C129.6 38.9536 129.627 38.9686 129.65 38.9887C129.673 39.0087 129.692 39.0334 129.704 39.0611C129.717 39.0887 129.724 39.1188 129.724 39.1492C129.724 39.2693 129.648 39.3446 129.481 39.3446H129.166Z" fill="#1D252C"/>
</g>
</g>
<defs>
<clipPath id="clip0_5726_411">
<rect width="142" height="69" fill="white"/>
</clipPath>
<clipPath id="clip1_5726_411">
<rect width="118.494" height="23" fill="white" transform="translate(12 23)"/>
</clipPath>
</defs>
</svg>
