<svg width="142" height="69" viewBox="0 0 142 69" fill="none" xmlns="http://www.w3.org/2000/svg">
<rect width="142" height="69" fill="white"/>
<path d="M51.9083 25.5991C51.6901 25.5991 51.5047 25.7569 51.4706 25.9718L48.9444 41.9277C48.9352 41.986 48.9388 42.0455 48.955 42.1023C48.9711 42.1591 48.9994 42.2117 49.0379 42.2565C49.0764 42.3013 49.1242 42.3373 49.178 42.362C49.2318 42.3867 49.2903 42.3995 49.3496 42.3995H52.3454C52.5634 42.3995 52.7491 42.2414 52.7832 42.0268L53.5253 37.3413C53.5591 37.1267 53.7448 36.9686 53.963 36.9686H56.6868C59.8692 36.9686 62.5708 34.6559 63.0643 31.5221C63.5618 28.3618 61.0829 25.606 57.5694 25.5991H51.9083ZM54.8206 29.1611H56.9999C58.794 29.1611 59.3783 30.2155 59.1936 31.3815C59.0088 32.55 58.1014 33.4107 56.3658 33.4107H54.1477L54.8206 29.1611ZM69.1575 30.2457C68.401 30.2485 67.5305 30.4029 66.5533 30.8083C64.3117 31.7389 63.2352 33.662 62.7781 35.0641C62.7781 35.0641 61.323 39.3418 64.6104 41.6919C64.6104 41.6919 67.6592 43.9544 71.0912 41.5525L71.0321 41.9277C71.0229 41.9859 71.0265 42.0454 71.0426 42.1022C71.0587 42.1589 71.0869 42.2115 71.1254 42.2563C71.1638 42.3011 71.2115 42.3371 71.2652 42.3618C71.319 42.3866 71.3774 42.3994 71.4366 42.3995H74.2806C74.4989 42.3995 74.6842 42.2414 74.7184 42.0268L76.4483 31.1002C76.4576 31.0419 76.4541 30.9823 76.438 30.9255C76.422 30.8687 76.3937 30.8161 76.3553 30.7712C76.3168 30.7263 76.2691 30.6902 76.2153 30.6654C76.1615 30.6407 76.103 30.6278 76.0438 30.6277H73.1998C72.9815 30.6277 72.7958 30.7858 72.762 31.0004L72.669 31.5885C72.669 31.5885 71.4272 30.2373 69.1575 30.2457ZM69.2504 33.697C69.577 33.697 69.8757 33.7419 70.1438 33.8276C71.3709 34.22 72.0666 35.3941 71.8653 36.6667C71.617 38.2338 70.3266 39.3876 68.6718 39.3876C68.3456 39.3876 68.0468 39.3431 67.7785 39.2573C66.5517 38.865 65.8516 37.6909 66.0529 36.4182C66.3012 34.8511 67.5956 33.697 69.2504 33.697Z" fill="#003087"/>
<path d="M92.8634 25.5991C92.6452 25.5991 92.4598 25.7569 92.4257 25.9718L89.8995 41.9277C89.8903 41.986 89.8939 42.0455 89.9101 42.1023C89.9262 42.1591 89.9545 42.2117 89.993 42.2565C90.0315 42.3013 90.0793 42.3373 90.1331 42.362C90.1869 42.3867 90.2454 42.3995 90.3047 42.3995H93.3005C93.5185 42.3995 93.7041 42.2414 93.7383 42.0268L94.4803 37.3413C94.5142 37.1267 94.6998 36.9686 94.9181 36.9686H97.6418C100.824 36.9686 103.526 34.6559 104.019 31.5221C104.517 28.3618 102.038 25.606 98.5245 25.5991H92.8634ZM95.7757 29.1611H97.955C99.7491 29.1611 100.333 30.2155 100.149 31.3815C99.9639 32.55 99.0568 33.4107 97.3209 33.4107H95.1028L95.7757 29.1611ZM110.112 30.2457C109.356 30.2485 108.485 30.4029 107.508 30.8083C105.266 31.7389 104.19 33.662 103.733 35.0641C103.733 35.0641 102.278 39.3418 105.566 41.6919C105.566 41.6919 108.614 43.9544 112.046 41.5525L111.987 41.9277C111.978 41.986 111.982 42.0455 111.998 42.1023C112.014 42.1591 112.042 42.2117 112.081 42.2565C112.119 42.3013 112.167 42.3373 112.221 42.362C112.275 42.3867 112.333 42.3995 112.392 42.3995H115.236C115.454 42.3995 115.64 42.2414 115.674 42.0268L117.404 31.1002C117.414 31.0419 117.41 30.9822 117.394 30.9254C117.378 30.8685 117.35 30.8158 117.311 30.7709C117.273 30.726 117.225 30.69 117.171 30.6652C117.117 30.6405 117.058 30.6277 116.999 30.6277H114.155C113.937 30.6277 113.751 30.7858 113.717 31.0004L113.624 31.5885C113.624 31.5885 112.382 30.2373 110.112 30.2457ZM110.205 33.697C110.532 33.697 110.831 33.7419 111.099 33.8276C112.326 34.22 113.021 35.3941 112.82 36.6667C112.572 38.2338 111.281 39.3876 109.627 39.3876C109.3 39.3876 109.002 39.3431 108.733 39.2573C107.506 38.865 106.806 37.6909 107.008 36.4182C107.256 34.8511 108.55 33.697 110.205 33.697Z" fill="#0070E0"/>
<path d="M77.7979 30.6278C77.5724 30.6278 77.4121 30.847 77.481 31.0606L80.599 40.6971L77.7797 45.2383C77.6429 45.4588 77.8019 45.7435 78.0621 45.7435H81.3943C81.4896 45.7434 81.5832 45.7189 81.6662 45.6722C81.7492 45.6256 81.8187 45.5584 81.868 45.4772L90.576 31.1298C90.7097 30.9094 90.55 30.6274 90.2914 30.6274H86.9596C86.8633 30.6275 86.7688 30.6526 86.6852 30.7001C86.6017 30.7476 86.532 30.816 86.483 30.8984L83.0553 36.6621L81.3154 30.9412C81.2587 30.755 81.0862 30.6274 80.8911 30.6274L77.7979 30.6278Z" fill="#003087"/>
<path d="M120.636 25.5991C120.418 25.5991 120.232 25.7572 120.198 25.9718L117.671 41.9271C117.662 41.9854 117.665 42.045 117.681 42.1019C117.698 42.1587 117.726 42.2114 117.764 42.2563C117.803 42.3012 117.851 42.3373 117.904 42.362C117.958 42.3867 118.017 42.3995 118.076 42.3995H121.072C121.29 42.3995 121.476 42.2414 121.51 42.0268L124.036 26.071C124.045 26.0127 124.042 25.9532 124.026 25.8965C124.009 25.8398 123.981 25.7872 123.943 25.7424C123.904 25.6975 123.857 25.6615 123.803 25.6368C123.749 25.6121 123.691 25.5992 123.631 25.5991H120.636Z" fill="#0070E0"/>
<path d="M26.9328 25.5991C26.7399 25.5993 26.5533 25.668 26.4066 25.7929C26.2599 25.9178 26.1627 26.0907 26.1325 26.2805L24.8027 34.6806C24.8647 34.2882 25.2041 33.9992 25.603 33.9992H29.4997C33.4215 33.9992 36.7493 31.1498 37.3573 27.2884C37.4026 27.0001 37.4282 26.7091 37.434 26.4174C36.4374 25.8969 35.2667 25.5991 33.9838 25.5991H26.9328Z" fill="#001C64"/>
<path d="M37.4337 26.4177C37.4279 26.7094 37.4023 27.0004 37.357 27.2887C36.7489 31.1501 33.4209 33.9995 29.4994 33.9995H25.6027C25.2041 33.9995 24.8644 34.2882 24.8024 34.6809L23.5797 42.3998L22.8138 47.2423C22.7989 47.3358 22.8045 47.4315 22.8303 47.5227C22.8561 47.6139 22.9014 47.6984 22.9632 47.7704C23.0249 47.8425 23.1017 47.9003 23.188 47.94C23.2744 47.9796 23.3684 48.0001 23.4636 48.0001H27.6931C27.8861 47.9999 28.0727 47.9312 28.2194 47.8063C28.3661 47.6814 28.4632 47.5085 28.4934 47.3187L29.6074 40.2811C29.6376 40.0911 29.7349 39.9182 29.8817 39.7933C30.0286 39.6683 30.2153 39.5997 30.4084 39.5997H32.8986C36.8203 39.5997 40.1481 36.7503 40.7562 32.889C41.188 30.1484 39.8021 27.6545 37.4337 26.4177Z" fill="#0070E0"/>
<path d="M22.1275 20C21.7289 20 21.3892 20.2888 21.3272 20.6808L18.0082 41.6422C17.9452 42.0401 18.254 42.4 18.6585 42.4H23.5803L24.8024 34.681L26.1322 26.281C26.1624 26.0912 26.2596 25.9183 26.4063 25.7934C26.553 25.6685 26.7396 25.5998 26.9325 25.5996H33.9835C35.2667 25.5996 36.4371 25.8977 37.4337 26.4179C37.502 22.9024 34.5894 20 30.585 20H22.1275Z" fill="#003087"/>
</svg>
