<svg width="142" height="69" viewBox="0 0 142 69" fill="none" xmlns="http://www.w3.org/2000/svg">
<rect width="142" height="69" fill="white"/>
<g clip-path="url(#clip0_5726_407)">
<path fill-rule="evenodd" clip-rule="evenodd" d="M121.797 27.573L125.598 37.3578H125.637L127.634 27.573H130.457L127.498 41.3256H124.422L120.583 31.6753H120.543L118.544 41.3256H115.664L118.622 27.573H121.797ZM135.009 27C135.558 27 136.027 27.1958 136.416 27.5878C136.805 27.9798 137 28.4525 137 29.0056C137 29.5756 136.801 30.0557 136.403 30.4455C136.016 30.8228 135.551 31.0112 135.009 31.0112C134.448 31.0112 133.976 30.818 133.593 30.4321C133.209 30.0457 133.017 29.5699 133.017 29.0056C133.017 28.4195 133.224 27.9325 133.638 27.5444C134.028 27.181 134.484 27 135.009 27ZM135.009 27.3429C134.552 27.3429 134.161 27.5096 133.839 27.8439C133.522 28.1699 133.363 28.5576 133.363 29.0056C133.363 29.4701 133.524 29.8651 133.847 30.1894C133.997 30.3465 134.178 30.4709 134.378 30.5548C134.577 30.6387 134.792 30.6802 135.009 30.6769C135.461 30.6769 135.847 30.5137 136.168 30.1864C136.323 30.0324 136.446 29.8485 136.528 29.6455C136.611 29.4426 136.652 29.2249 136.649 29.0056C136.649 28.5598 136.49 28.1721 136.171 27.8439C135.848 27.5096 135.461 27.3429 135.009 27.3429ZM134.751 27.8995C135.023 27.9008 135.175 27.9016 135.206 27.9038C135.381 27.9164 135.526 27.9546 135.641 28.0176C135.837 28.1269 135.935 28.3041 135.935 28.5485C135.935 28.7356 135.884 28.8701 135.78 28.9531C135.677 29.0368 135.549 29.0863 135.398 29.1024C135.537 29.1315 135.641 29.174 135.711 29.2313C135.841 29.3368 135.906 29.5026 135.906 29.7297V29.9285C135.906 29.9502 135.907 29.9719 135.91 29.9936C135.913 30.0158 135.919 30.037 135.926 30.0587L135.946 30.1217H135.395C135.373 30.0205 135.361 29.9174 135.359 29.8139C135.352 29.6802 135.34 29.589 135.322 29.5417C135.309 29.5042 135.287 29.4701 135.259 29.4418C135.231 29.4136 135.197 29.392 135.16 29.3785C135.096 29.3568 135.03 29.3451 134.963 29.3438L134.836 29.3351H134.714V30.1217H134.136V27.8977H134.319L134.751 27.8995ZM134.854 28.2897H134.714V28.9353H134.938C135.073 28.9353 135.179 28.9079 135.255 28.8532C135.33 28.7994 135.369 28.7113 135.369 28.5893C135.369 28.4677 135.309 28.3835 135.19 28.3362C135.111 28.3054 134.999 28.2897 134.854 28.2897ZM107.729 38.7973C110.766 38.7973 112.285 35.6566 112.285 33.071C112.285 31.1557 111.416 29.5278 109.149 29.5278C105.974 29.5278 104.534 32.6499 104.534 35.2732C104.534 37.1508 105.481 38.7973 107.729 38.7973ZM109.129 27C112.934 27 115.379 29.0299 115.379 32.8605C115.379 37.3613 112.619 41.3256 107.69 41.3256C103.746 41.3256 101.439 39.1229 101.439 35.2732C101.44 30.8488 104.377 27 109.129 27ZM91.6834 33.7955H94.5538C96.1982 33.776 97.7619 33.16 97.7619 31.6189C97.7619 30.136 96.6934 29.9242 95.4662 29.9242H92.5147L91.6834 33.7955ZM89.9027 27.5739H96.6537C99.2062 27.5357 100.871 28.5176 100.871 31.1761C100.871 33.0437 99.5241 34.6043 97.6239 34.8739V34.9121C98.7912 35.2585 99.0888 36.2608 99.0888 37.3387C99.0888 37.9552 98.9887 38.8798 98.9887 39.7268C98.9887 40.3432 99.0289 40.9214 99.1876 41.3256H96.1589C96.0783 40.9978 96.0192 40.7087 96.0192 40.4014C96.0192 39.4767 96.1771 38.533 96.1771 37.6083C96.1771 36.2799 95.3665 35.9518 94.138 35.9518H91.2089L90.0399 41.3256H86.9306L89.9027 27.5739ZM77.0146 27.573H87.5L86.9806 30.1152H79.5153L78.9006 33.0619H85.8064L85.3069 35.4126H78.3998L77.6884 38.783H85.2676L84.7289 41.3256H74.1292L77.0146 27.573ZM62.2953 27.573H65.4694L69.2702 37.3574H69.309L71.3084 27.573H74.1292L71.1704 41.3256H68.0943L64.2551 31.6753H64.2162L62.2181 41.3256H59.3361L62.2953 27.573ZM49.7044 27.573H60.1898L59.6696 30.1152H52.2047L51.59 33.0619H58.4967L57.9963 35.4126H51.09L50.3778 38.783H57.957L57.4191 41.3256H46.819L49.7044 27.573ZM42.2223 39.6022H42.1843C41.2767 40.8281 39.9843 41.3256 38.7118 41.3256C34.8523 41.3256 32.5949 39.1233 32.5949 35.2737C32.5949 30.8488 35.47 27 40.1189 27C43.3413 27 45.9657 28.4933 45.9657 31.846H42.9362C42.8586 30.1976 41.8172 29.5278 40.1387 29.5278C37.0329 29.5278 35.6236 32.6491 35.6236 35.2737C35.6236 37.1503 36.5502 38.7978 38.7493 38.7978C41.0451 38.7978 42.0484 37.5909 42.5695 35.8484H39.3869L39.8687 33.6071H45.7138L44.1324 41H42.2223V39.6022ZM22.1104 27.573H32.5949L32.076 30.1152H24.6111L23.9951 33.0619H30.9018L30.4014 35.4126H23.4942L22.7829 38.783H30.363L29.8255 41.3256H19.2241L22.1104 27.573ZM9.75243 33.7955H12.6236C14.2663 33.776 15.8309 33.16 15.8309 31.6189C15.8309 30.136 14.7615 29.9242 13.5347 29.9242H10.5841L9.75243 33.7955ZM7.97086 27.5739H14.7231C17.2756 27.5357 18.9402 28.5176 18.9402 31.1761C18.9402 33.0437 17.5939 34.6043 15.6937 34.8739V34.9121C16.8606 35.2585 17.1578 36.2608 17.1578 37.3387C17.1578 37.9552 17.0586 38.8798 17.0586 39.7268C17.0586 40.3432 17.0987 40.9214 17.257 41.3256H14.2279C14.1481 40.9978 14.089 40.7087 14.089 40.4014C14.089 39.4767 14.2469 38.533 14.2469 37.6083C14.2469 36.2799 13.4359 35.9518 12.2069 35.9518H9.27792L8.10847 41.3256H5L7.97086 27.5739Z" fill="#065BAA"/>
</g>
<defs>
<clipPath id="clip0_5726_407">
<rect width="132" height="14.3256" fill="white" transform="translate(5 27)"/>
</clipPath>
</defs>
</svg>
