<svg width="142" height="69" viewBox="0 0 142 69" fill="none" xmlns="http://www.w3.org/2000/svg">
<g clip-path="url(#clip0_5726_398)">
<rect width="142" height="69" fill="white"/>
<g style="mix-blend-mode:lighten">
<rect width="142" height="69" fill="#475467"/>
</g>
<path fill-rule="evenodd" clip-rule="evenodd" d="M71.1425 55C69.5586 55 68.7445 53.9671 68.7445 53.9671C67.4428 53.9105 57.2695 53.9388 57.2695 53.9388L56.2791 45.5788C56.2791 45.5788 50.0132 41.1621 49.5038 40.6528C46.4961 27.008 57.3676 14 71.1429 14C84.9182 14 95.7897 27.008 92.782 40.6528C92.2726 41.1621 86.0066 45.5788 86.0066 45.5788L85.0162 53.9388C85.0162 53.9388 74.8429 53.9105 73.5412 53.9671C73.5412 53.9671 72.7272 55 71.1425 55Z" fill="#ED1C24"/>
<path fill-rule="evenodd" clip-rule="evenodd" d="M71.1573 42.2859L70.196 18.1538C69.0368 17.9172 66.0794 18.2012 64.4943 19.3841L69.1077 42.3805L62.8145 20.3304C61.3058 20.312 58.2615 22.8628 58.0354 23.619L67.215 43.1849L56.8998 25.2988C55.8824 25.6773 53.6585 29.7703 54.0134 30.2459L65.5116 44.3205L53.6822 32.3018C53.6822 32.3018 52.1443 34.6441 53.1472 38.6114L59.829 43.4367L60.6655 50.029H68.8577C68.8577 50.029 70.1979 51.2995 71.1489 51.2995C72.0999 51.2995 73.4401 50.029 73.4401 50.029H81.6323L82.4688 43.4367L89.1506 38.6114C90.1535 34.6441 88.6156 32.3018 88.6156 32.3018L76.7862 44.3205L88.2844 30.2459C88.6393 29.7703 86.4154 25.6773 85.398 25.2988L75.0828 43.1849L84.2624 23.619C84.0363 22.8628 80.992 20.312 79.4833 20.3304L73.1901 42.3805L77.8035 19.3841C76.2184 18.2012 73.261 17.9172 72.1018 18.1538L71.1573 42.2859Z" fill="#FFD500"/>
</g>
<defs>
<clipPath id="clip0_5726_398">
<rect width="142" height="69" fill="white"/>
</clipPath>
</defs>
</svg>
