<svg width="168" height="68" viewBox="0 0 168 68" fill="none" xmlns="http://www.w3.org/2000/svg">
<path d="M8 0.5H160C164.142 0.5 167.5 3.85786 167.5 8V60C167.5 64.1421 164.142 67.5 160 67.5H8C3.85786 67.5 0.5 64.1421 0.5 60V8C0.5 3.85786 3.85786 0.5 8 0.5Z" stroke="#ECECEE"/>
<path d="M94.333 20.7605V17L106.748 21.9884V25.0581L94.333 30.0465V26.2093L101.581 23.5233L94.333 20.7605Z" fill="#A100FF"/>
<path d="M25.7809 50.0001C23.1591 50.0001 21 48.6955 21 45.7792V45.6257C21 42.0955 24.0845 40.8676 27.8629 40.8676H29.6365V40.1769C29.6365 38.7187 29.0196 37.8745 27.4774 37.8745C26.0894 37.8745 25.3953 38.642 25.3182 39.7164H21.4627C21.7711 36.4931 24.3158 34.9582 27.7087 34.9582C31.1787 34.9582 33.7234 36.4164 33.7234 40.0234V49.6931H29.7907V48.0048C29.0196 49.0792 27.7087 50.0001 25.7809 50.0001ZM29.6365 44.935V43.5536H28.0171C26.0122 43.5536 25.0098 44.0908 25.0098 45.3955V45.5489C25.0098 46.5466 25.6267 47.2373 27.0147 47.2373C28.4027 47.1606 29.6365 46.3931 29.6365 44.935ZM42.8996 50.0001C38.8898 50.0001 35.9596 47.5443 35.9596 42.6327V42.4024C35.9596 37.4908 39.0441 34.8815 42.8996 34.8815C46.2154 34.8815 48.9143 36.5699 49.2228 40.3303H45.3672C45.1359 38.9489 44.3647 38.028 42.9767 38.028C41.2803 38.028 40.0465 39.4094 40.0465 42.2489V42.7094C40.0465 45.6257 41.1261 46.9303 42.9767 46.9303C44.3647 46.9303 45.3672 45.9327 45.5985 44.321H49.2999C49.0685 47.6978 46.8323 50.0001 42.8996 50.0001ZM58.0135 50.0001C54.0037 50.0001 51.0734 47.5443 51.0734 42.6327V42.4024C51.0734 37.4908 54.1579 34.8815 58.0135 34.8815C61.3293 34.8815 64.0282 36.5699 64.3366 40.3303H60.481C60.2497 38.9489 59.4786 38.028 58.0906 38.028C56.3941 38.028 55.1603 39.4094 55.1603 42.2489V42.7094C55.1603 45.6257 56.2399 46.9303 58.0906 46.9303C59.4786 46.9303 60.481 45.9327 60.7124 44.321H64.4137C64.1824 47.6978 61.9461 50.0001 58.0135 50.0001ZM73.2044 50.0001C69.0404 50.0001 66.1873 47.5443 66.1873 42.7094V42.4024C66.1873 37.5676 69.1946 34.8815 73.1273 34.8815C76.7515 34.8815 79.7589 36.8769 79.7589 41.7117V43.4769H70.2742C70.4284 46.0862 71.5851 47.0838 73.2815 47.0838C74.8237 47.0838 75.672 46.2396 75.9804 45.242H79.7589C79.2962 47.928 76.9829 50.0001 73.2044 50.0001ZM70.3513 40.7908H75.7491C75.672 38.642 74.6695 37.721 73.0502 37.721C71.8164 37.7978 70.6597 38.4885 70.3513 40.7908ZM82.2264 35.2652H86.3133V37.4141C87.0073 36.0327 88.4725 34.9582 90.7087 34.9582C93.3305 34.9582 95.104 36.5699 95.104 40.0234V49.6931H91.0171V40.6373C91.0171 38.9489 90.3231 38.1815 88.858 38.1815C87.47 38.1815 86.3133 39.0257 86.3133 40.8676V49.6931H82.2264V35.2652ZM102.584 30.8908V35.2652H105.36V38.2582H102.584V45.0885C102.584 46.1629 103.047 46.7001 104.049 46.7001C104.666 46.7001 105.051 46.6234 105.437 46.4699V49.6164C104.974 49.7699 104.126 49.9234 103.124 49.9234C99.9621 49.9234 98.4969 48.4652 98.4969 45.5489V38.2582H96.8005V35.2652H98.4969V32.5792L102.584 30.8908ZM120.628 49.6931H116.618V47.5443C115.924 48.9257 114.536 50.0001 112.377 50.0001C109.755 50.0001 107.827 48.3885 107.827 45.0117V35.2652H111.914V44.4745C111.914 46.1629 112.608 46.9303 113.996 46.9303C115.384 46.9303 116.541 46.0094 116.541 44.2443V35.2652H120.628V49.6931ZM123.635 35.2652H127.722V37.9513C128.57 36.0327 129.958 35.1117 132.118 35.1117V39.1024C129.342 39.1024 127.722 39.9466 127.722 42.3257V49.7699H123.635V35.2652ZM140.368 50.0001C136.204 50.0001 133.351 47.5443 133.351 42.7094V42.4024C133.351 37.5676 136.359 34.8815 140.291 34.8815C143.916 34.8815 146.923 36.8769 146.923 41.7117V43.4769H137.515C137.67 46.0862 138.826 47.0838 140.523 47.0838C142.065 47.0838 142.913 46.2396 143.222 45.242H147C146.383 47.928 144.147 50.0001 140.368 50.0001ZM137.438 40.7908H142.913C142.836 38.642 141.834 37.721 140.214 37.721C138.98 37.7978 137.824 38.4885 137.438 40.7908Z" fill="black"/>
</svg>
