<svg width="168" height="68" viewBox="0 0 168 68" fill="none" xmlns="http://www.w3.org/2000/svg">
<path d="M8 0.5H160C164.142 0.5 167.5 3.85786 167.5 8V60C167.5 64.1421 164.142 67.5 160 67.5H8C3.85786 67.5 0.5 64.1421 0.5 60V8C0.5 3.85786 3.85786 0.5 8 0.5Z" fill="white"/>
<path d="M8 0.5H160C164.142 0.5 167.5 3.85786 167.5 8V60C167.5 64.1421 164.142 67.5 160 67.5H8C3.85786 67.5 0.5 64.1421 0.5 60V8C0.5 3.85786 3.85786 0.5 8 0.5Z" stroke="#ECECEE"/>
<g clip-path="url(#clip0_1682_2350)">
<path d="M72.3539 35.5431L70.2128 29.722C70.1254 29.4839 69.7915 29.4839 69.704 29.722L67.5632 35.5434C67.548 35.5848 67.543 35.6293 67.5485 35.673C67.554 35.7168 67.57 35.7586 67.595 35.7948C67.62 35.831 67.6533 35.8606 67.6921 35.881C67.7309 35.9015 67.774 35.9121 67.8177 35.9121H72.0994C72.1431 35.9121 72.1863 35.9014 72.225 35.881C72.2638 35.8605 72.2971 35.8309 72.3221 35.7947C72.3471 35.7585 72.363 35.7167 72.3685 35.6729C72.374 35.6291 72.3689 35.5846 72.3537 35.5432M73.3429 38.815H66.5743C66.5189 38.815 66.4649 38.8321 66.4194 38.864C66.374 38.8959 66.3393 38.941 66.32 38.9934L64.9874 42.6154C64.9682 42.6678 64.9335 42.7129 64.888 42.7448C64.8426 42.7767 64.7885 42.7938 64.7331 42.7938H61.7994C61.755 42.7938 61.7114 42.7828 61.6722 42.7619C61.633 42.7409 61.5996 42.7105 61.5747 42.6735C61.5499 42.6364 61.5344 42.5938 61.5297 42.5493C61.525 42.5049 61.5311 42.4599 61.5476 42.4184L68.3019 25.4482C68.3222 25.3975 68.357 25.354 68.4019 25.3235C68.4468 25.2929 68.4997 25.2766 68.5539 25.2767H71.363C71.4737 25.2767 71.5734 25.3445 71.6148 25.4482L78.3689 42.4182C78.3855 42.4597 78.3917 42.5047 78.387 42.5493C78.3824 42.5938 78.3669 42.6365 78.3421 42.6736C78.3172 42.7107 78.2837 42.7411 78.2445 42.7621C78.2053 42.7831 78.1616 42.794 78.1172 42.794H75.184C75.1286 42.794 75.0745 42.7769 75.029 42.7449C74.9836 42.713 74.9489 42.6678 74.9296 42.6154L73.5969 38.9934C73.5776 38.941 73.5429 38.8959 73.4975 38.864C73.452 38.8321 73.398 38.815 73.3426 38.815M79.7435 31.2324H82.2527C82.3246 31.2324 82.3936 31.2612 82.4445 31.3125C82.4954 31.3638 82.524 31.4334 82.524 31.506V42.5202C82.524 42.5928 82.4954 42.6624 82.4445 42.7137C82.3936 42.765 82.3246 42.7938 82.2527 42.7938H79.7435C79.6715 42.7938 79.6025 42.765 79.5516 42.7137C79.5007 42.6624 79.4721 42.5928 79.4721 42.5202V31.5058C79.4721 31.4332 79.5007 31.3636 79.5516 31.3123C79.6025 31.261 79.6715 31.2324 79.7435 31.2324ZM91.6752 33.9116C91.6752 33.9841 91.6466 34.0537 91.5957 34.1051C91.5448 34.1564 91.4758 34.1852 91.4039 34.1852H91.3279C90.0872 34.1852 89.1772 34.4855 88.5984 35.0861C88.0192 35.6866 87.7301 36.6794 87.7301 38.0641V42.5202C87.7301 42.5928 87.7016 42.6624 87.6507 42.7137C87.5998 42.765 87.5308 42.7938 87.4588 42.7938H84.9742C84.9023 42.7938 84.8333 42.765 84.7824 42.7137C84.7315 42.6624 84.7029 42.5928 84.7029 42.5202V31.5058C84.7029 31.4332 84.7315 31.3636 84.7824 31.3123C84.8333 31.261 84.9023 31.2322 84.9742 31.2322H87.4339C87.5058 31.2322 87.5748 31.261 87.6257 31.3123C87.6766 31.3636 87.7052 31.4332 87.7052 31.5058V33.6844H87.7549C88.0527 32.7836 88.524 32.0916 89.1694 31.6074C89.8143 31.1238 90.6083 30.8817 91.5511 30.8817H91.6752V33.9116ZM98.5361 33.8098C98.4641 33.8098 98.3951 33.8386 98.3442 33.8899C98.2933 33.9412 98.2647 34.0108 98.2647 34.0834V38.6647C98.2647 39.1319 98.3552 39.4655 98.5375 39.6657C98.7193 39.8658 99.0337 39.9659 99.4803 39.9659H99.7301C99.802 39.9659 99.871 39.9948 99.9219 40.0461C99.9728 40.0974 100.001 40.167 100.001 40.2396V42.545C100.001 42.6176 99.9728 42.6872 99.9219 42.7385C99.871 42.7898 99.802 42.8186 99.7301 42.8186H98.6614C97.5531 42.8186 96.7014 42.5309 96.1059 41.9554C95.5103 41.3798 95.2125 40.5251 95.2125 39.3904V34.0834C95.2125 34.0108 95.1839 33.9412 95.1331 33.8899C95.0822 33.8386 95.0132 33.8098 94.9412 33.8098H93.3749C93.303 33.8098 93.234 33.7809 93.1831 33.7296C93.1322 33.6783 93.1036 33.6087 93.1036 33.5361V31.5058C93.1036 31.4332 93.1322 31.3636 93.1831 31.3123C93.234 31.261 93.303 31.2322 93.3749 31.2322H94.9414C95.0133 31.2322 95.0824 31.2033 95.1332 31.152C95.1841 31.1007 95.2127 31.0311 95.2127 30.9585V26.8762C95.2127 26.8037 95.2413 26.7341 95.2922 26.6827C95.3431 26.6314 95.4121 26.6026 95.484 26.6026H97.9932C98.0652 26.6026 98.1342 26.6314 98.1851 26.6827C98.236 26.7341 98.2646 26.8037 98.2646 26.8762V30.9585C98.2646 31.0311 98.2931 31.1007 98.344 31.152C98.3949 31.2033 98.4639 31.2322 98.5359 31.2322H100.35C100.422 31.2322 100.491 31.261 100.542 31.3123C100.593 31.3636 100.622 31.4332 100.622 31.5058V33.5363C100.622 33.6089 100.593 33.6785 100.542 33.7298C100.491 33.7811 100.422 33.8099 100.35 33.8099L98.5361 33.8098ZM110.026 39.3654C110.597 38.7648 110.882 37.9807 110.882 37.0129C110.882 36.0457 110.597 35.2612 110.026 34.6606C109.455 34.0601 108.707 33.7598 107.78 33.7598C106.854 33.7598 106.106 34.0601 105.535 34.6606C104.964 35.2612 104.679 36.0457 104.679 37.0129C104.679 37.9807 104.964 38.7648 105.535 39.3654C106.106 39.9659 106.854 40.2662 107.78 40.2662C108.707 40.2662 109.455 39.9659 110.026 39.3654ZM104.232 42.4434C103.389 41.9598 102.723 41.2546 102.235 40.3288C101.747 39.403 101.503 38.2978 101.503 37.0129C101.503 35.7286 101.747 34.623 102.235 33.6972C102.723 32.7714 103.389 32.0668 104.232 31.5826C105.076 31.0988 106.002 30.8569 107.011 30.8569C107.904 30.8569 108.669 31.032 109.307 31.3823C109.943 31.7326 110.451 32.225 110.832 32.8589H110.882V31.5058C110.882 31.4332 110.91 31.3636 110.961 31.3123C111.012 31.261 111.081 31.2322 111.153 31.2322H113.638C113.71 31.2322 113.779 31.261 113.829 31.3123C113.88 31.3636 113.909 31.4332 113.909 31.5058V42.52C113.909 42.5926 113.88 42.6622 113.829 42.7135C113.779 42.7648 113.71 42.7936 113.638 42.7936H111.153C111.081 42.7936 111.012 42.7648 110.961 42.7135C110.91 42.6622 110.882 42.5926 110.882 42.52V41.1671H110.832C110.451 41.8014 109.943 42.2932 109.306 42.6435C108.669 42.9938 107.904 43.1689 107.011 43.1689C106.002 43.1689 105.076 42.927 104.232 42.4434ZM124.241 39.3654C124.812 38.7648 125.097 37.9807 125.097 37.0129C125.097 36.0457 124.812 35.2612 124.241 34.6606C123.671 34.0601 122.922 33.7598 121.996 33.7598C121.069 33.7598 120.321 34.0601 119.75 34.6606C119.18 35.2612 118.894 36.0457 118.894 37.0129C118.894 37.9807 119.18 38.7648 119.75 39.3654C120.321 39.9659 121.069 40.2662 121.996 40.2662C122.922 40.2662 123.671 39.9659 124.241 39.3654ZM120.47 42.6435C119.833 42.2932 119.324 41.8014 118.944 41.1671H118.894V42.52C118.894 42.5926 118.866 42.6622 118.815 42.7135C118.764 42.7648 118.695 42.7936 118.623 42.7936H116.114C116.042 42.7936 115.973 42.7648 115.922 42.7135C115.871 42.6622 115.843 42.5926 115.843 42.52V25.5498C115.843 25.4772 115.871 25.4076 115.922 25.3563C115.973 25.305 116.042 25.2761 116.114 25.2761H118.623C118.695 25.2761 118.764 25.305 118.815 25.3563C118.866 25.4076 118.894 25.4772 118.894 25.5498V32.8587H118.944C119.324 32.2248 119.833 31.7326 120.47 31.3823C121.107 31.0319 121.872 30.8567 122.765 30.8567C123.774 30.8567 124.701 31.0986 125.544 31.5824C126.388 32.0666 127.053 32.7712 127.541 33.6968C128.029 34.6232 128.274 35.7288 128.274 37.0131C128.274 38.298 128.029 39.403 127.542 40.329C127.054 41.2548 126.388 41.9599 125.544 42.4434C124.701 42.9272 123.774 43.1693 122.765 43.1693C121.872 43.1693 121.107 42.9941 120.47 42.6437M132.501 42.7938H129.992C129.92 42.7938 129.851 42.765 129.8 42.7137C129.749 42.6624 129.721 42.5928 129.721 42.5202V25.5503C129.721 25.4777 129.749 25.4081 129.8 25.3568C129.851 25.3055 129.92 25.2767 129.992 25.2767H132.501C132.573 25.2767 132.642 25.3055 132.693 25.3568C132.744 25.4081 132.773 25.4777 132.773 25.5503V42.5202C132.773 42.5928 132.744 42.6624 132.693 42.7137C132.642 42.765 132.573 42.7938 132.501 42.7938ZM138.42 33.9101C138.004 34.2374 137.723 34.7099 137.578 35.328C137.538 35.4984 137.67 35.6618 137.843 35.6618H142.619C142.784 35.6618 142.914 35.5122 142.888 35.3473C142.792 34.7626 142.544 34.2965 142.142 33.9477C141.671 33.539 141.054 33.3347 140.293 33.3347C139.532 33.3347 138.908 33.5264 138.42 33.9101ZM144.536 32.4711C145.512 33.5474 146 35.0698 146 37.0381V37.365C146 37.4376 145.972 37.5072 145.921 37.5585C145.87 37.6098 145.801 37.6387 145.729 37.6387H137.751C137.711 37.6387 137.672 37.6476 137.636 37.6645C137.6 37.6815 137.568 37.7062 137.543 37.7368C137.517 37.7675 137.498 37.8034 137.488 37.8421C137.478 37.8808 137.476 37.9213 137.483 37.9608C137.61 38.692 137.931 39.2729 138.445 39.7032C139.032 40.1958 139.772 40.4415 140.666 40.4415C141.819 40.4415 142.886 39.9877 143.868 39.0797C143.987 38.9688 144.178 38.9923 144.271 39.1271L145.49 40.8931C145.529 40.948 145.546 41.0152 145.538 41.0818C145.53 41.1485 145.498 41.21 145.449 41.2546C144.85 41.7833 144.184 42.2293 143.469 42.5811C142.675 42.973 141.741 43.1693 140.666 43.1693C139.425 43.1693 138.341 42.9146 137.415 42.406C136.488 41.8974 135.769 41.18 135.257 40.2538C134.744 39.328 134.487 38.2562 134.487 37.0381C134.487 35.8205 134.735 34.7445 135.232 33.8099C135.728 32.8759 136.423 32.1502 137.316 31.6328C138.209 31.116 139.251 30.8571 140.442 30.8571C142.195 30.8571 143.56 31.3953 144.536 32.4711ZM82.8517 27.1605C82.8517 28.1927 82.022 29.0295 80.9984 29.0295C79.9746 29.0295 79.1449 28.1927 79.1449 27.1603C79.1449 26.1279 79.9748 25.2911 80.9984 25.2911C82.022 25.2911 82.8517 26.1281 82.8517 27.1605Z" fill="#333333"/>
<path d="M37.2901 20.3409L25.3591 25.32C24.6956 25.5969 24.7025 26.5476 25.3701 26.8145L37.3509 31.6063C38.4035 32.0273 39.5758 32.0273 40.6285 31.6063L52.6094 26.8143C53.2768 26.5476 53.2841 25.5971 52.6202 25.3202L40.6896 20.3407C39.6011 19.8864 38.3784 19.8864 37.2899 20.3407" fill="#FCB400"/>
<path d="M40.0513 34.2221V46.1927C40.0513 46.7619 40.6205 47.152 41.1452 46.9422L54.4954 41.7159C54.6443 41.6563 54.7721 41.553 54.8621 41.4194C54.952 41.2858 55.0001 41.128 55.0001 40.9664V28.9959C55.0001 28.4266 54.4309 28.0367 53.9061 28.2465L40.5559 33.4728C40.4071 33.5324 40.2794 33.6357 40.1894 33.7693C40.0994 33.9029 40.0513 34.0605 40.0513 34.2221Z" fill="#18BFFF"/>
<path d="M36.9349 34.8399L32.9729 36.7693L32.5706 36.9654L24.207 41.0072C23.677 41.2652 23.0001 40.8755 23.0001 40.2815V29.0462C23.0001 28.8313 23.1094 28.6458 23.2559 28.5062C23.316 28.4459 23.3842 28.3943 23.4585 28.353C23.6582 28.232 23.9432 28.1998 24.1856 28.2964L36.8684 33.3648C37.513 33.6227 37.5637 34.5336 36.9349 34.8399Z" fill="#F82B60"/>
<path d="M36.9359 34.8409L32.9739 36.7703L23.2569 28.507C23.317 28.4467 23.3852 28.3952 23.4595 28.354C23.6592 28.233 23.9442 28.2007 24.1866 28.2974L36.8694 33.3658C37.514 33.6237 37.5647 34.5346 36.9359 34.8409Z" fill="black" fill-opacity="0.25"/>
</g>
<defs>
<clipPath id="clip0_1682_2350">
<rect width="123" height="27" fill="white" transform="translate(23 20)"/>
</clipPath>
</defs>
</svg>
