<svg width="68" height="68" viewBox="0 0 68 68" fill="none" xmlns="http://www.w3.org/2000/svg">
<path d="M8 0.5H60C64.1421 0.5 67.5 3.85786 67.5 8V60C67.5 64.1421 64.1421 67.5 60 67.5H8C3.85786 67.5 0.5 64.1421 0.5 60V8C0.5 3.85786 3.85786 0.5 8 0.5Z" stroke="#ECECEE"/>
<path d="M23.7434 29.7896V33.4776C23.7434 34.0848 23.4172 34.4744 22.8494 34.5771C22.2694 34.6798 21.7016 34.2962 21.617 33.7434C21.6005 33.6314 21.5924 33.5183 21.5928 33.4051V23.1716C21.5928 22.5161 21.8918 22.1355 22.4839 22.0207C23.0668 21.9059 23.6498 22.2986 23.7253 22.8574C23.7404 22.9782 23.7434 23.0991 23.7434 23.2199V29.7896ZM20.7894 38.0326V40.2889C20.2529 40.0167 19.6601 39.874 19.0586 39.8721C18.0316 39.851 17.1707 40.3373 16.8113 41.1468C16.1921 42.5513 17.213 44.0102 18.8562 44.0616C19.4452 44.0797 20.007 43.971 20.5417 43.7354L20.7289 43.6599L20.7531 43.6508H20.7712L20.7984 43.6599V44.0435C20.7984 44.5811 20.7984 45.1188 20.7924 45.6595C20.7924 45.7108 20.7229 45.7924 20.6715 45.8044C19.2972 46.1276 17.941 46.1669 16.6361 45.5326C14.9325 44.708 14.2257 43.095 14.3798 41.4851C14.6154 39.0747 16.7962 37.5644 19.3183 37.791C19.5479 37.8121 19.7775 37.8363 20.004 37.8725C20.1852 37.9027 20.3665 37.942 20.5477 37.9812L20.7894 38.0326ZM42.9027 40.2889V38.0054C42.7456 37.9843 42.5946 37.9571 42.4406 37.9329C42.106 37.8751 41.7695 37.8288 41.4317 37.794C38.9216 37.5614 36.7348 39.0626 36.4961 41.4851C36.3451 43.0044 36.9432 44.5902 38.5743 45.4601C39.9214 46.176 41.3471 46.1397 42.7909 45.8044C42.8393 45.7924 42.9057 45.7199 42.9057 45.6746C42.9118 45.1248 42.9118 44.5751 42.9118 44.0102V43.6266L42.8121 43.6689L42.649 43.7384C42.126 43.9678 41.5585 44.0782 40.9877 44.0616C39.3354 44.0223 38.2994 42.5513 38.9277 41.1407C39.2841 40.3373 40.148 39.851 41.175 39.8721C41.7791 39.8812 42.353 40.008 42.9027 40.2889Z" fill="#02A5DD"/>
<path fill-rule="evenodd" clip-rule="evenodd" d="M53.9665 42.0257C53.9665 39.6697 52.0757 37.8996 49.5505 37.8966C47.0435 37.8966 45.1224 39.6848 45.1194 42.0227C45.1164 44.3545 47.0465 46.1668 49.5384 46.1608C52.0334 46.1608 53.9665 44.3575 53.9665 42.0257ZM51.7555 42.0196C51.7676 43.1886 50.7799 44.1189 49.5294 44.1189C48.3 44.1189 47.3244 43.1916 47.3244 42.0227C47.3274 40.8567 48.3061 39.9325 49.5384 39.9325C50.7738 39.9325 51.7434 40.8477 51.7555 42.0166V42.0196Z" fill="#02A5DD"/>
<path d="M33.847 39.8299V38.2139C33.0986 38.0333 32.3303 37.948 31.5605 37.9602C30.9141 37.9904 30.2949 38.1263 29.7421 38.4646C28.3527 39.3255 28.2319 41.2737 29.5247 42.195C29.9445 42.494 30.4157 42.6873 30.9262 42.8202C31.2796 42.9108 31.6421 43.0498 31.9411 43.2431C32.3096 43.4847 32.2613 43.9469 31.8837 44.1795C31.7546 44.2589 31.614 44.318 31.4669 44.3546C30.9111 44.4936 30.3493 44.4634 29.7905 44.3758C29.5255 44.3331 29.2616 44.2837 28.9991 44.2278L28.6517 44.1583V45.9525C29.28 46.1217 30.9141 46.2093 31.5363 46.1277C32.1883 46.0652 32.8159 45.8477 33.3668 45.4934C34.72 44.5661 34.7562 42.6692 33.4181 41.7328C33.1342 41.5335 32.8019 41.3945 32.4697 41.2586C32.3859 41.224 32.3023 41.1887 32.219 41.1529C32.0528 41.0804 31.8807 41.023 31.7115 40.9626C31.5464 40.9077 31.3832 40.8472 31.2222 40.7814C30.9806 40.6787 30.8295 40.4884 30.8477 40.2256C30.8658 39.9658 31.0531 39.7967 31.2947 39.7513C31.6753 39.6819 32.068 39.6184 32.4516 39.6335C32.7748 39.6487 33.0949 39.703 33.4181 39.7604L33.847 39.8299ZM44.6545 26.6724V33.5683C44.6606 34.2691 45.316 34.7312 46.0198 34.55C46.5122 34.4231 46.7991 34.0274 46.7991 33.4566V23.1052C46.7991 23.0568 46.7991 23.0085 46.7931 22.9572C46.7296 22.2987 46.1286 21.8819 45.464 22.0299C45.2299 22.0751 45.0196 22.2025 44.8712 22.3892C44.7227 22.5759 44.6459 22.8094 44.6545 23.0478V26.6724ZM23.7524 38.0327H25.8668V45.9525H23.7524V38.0327ZM52.5502 29.9255V28.5754V26.8446C52.553 26.6751 52.5222 26.5067 52.4596 26.3492C52.2663 25.9082 51.7739 25.6817 51.2574 25.7753C51.0224 25.8144 50.8086 25.9353 50.6539 26.1165C50.4992 26.2977 50.4134 26.5278 50.4117 26.7661C50.3996 28.382 50.4056 29.998 50.4117 31.614C50.4117 31.753 50.454 31.904 50.5144 32.0369C50.6222 32.2481 50.7966 32.418 51.0106 32.5201C51.2247 32.6222 51.4664 32.6509 51.6984 32.6017C51.9298 32.5671 52.1416 32.4522 52.2967 32.2772C52.4519 32.1021 52.5406 31.8781 52.5472 31.6442C52.5532 31.0703 52.5532 30.4994 52.5502 29.9255ZM41.0269 29.9195V31.5506C41.0333 31.6917 41.0103 31.8325 40.9593 31.9642C40.9083 32.0959 40.8305 32.2156 40.7308 32.3156C40.6311 32.4156 40.5117 32.4937 40.3801 32.5451C40.2485 32.5964 40.1077 32.6198 39.9667 32.6138C39.823 32.6216 39.6793 32.5991 39.5448 32.5479C39.4104 32.4968 39.2881 32.418 39.186 32.3167C39.0838 32.2154 39.004 32.0938 38.9517 31.9598C38.8994 31.8257 38.8757 31.6822 38.8823 31.5385V26.8325C38.8749 26.6887 38.8978 26.5449 38.9495 26.4105C39.0013 26.2761 39.0808 26.1541 39.1827 26.0524C39.2847 25.9508 39.4069 25.8717 39.5415 25.8203C39.676 25.7689 39.8198 25.7464 39.9636 25.7542C40.601 25.7572 41.0269 26.1891 41.0269 26.8416V29.9165V29.9195ZM29.5065 29.9135V28.669V26.8416C29.5035 26.1952 29.0686 25.7572 28.4342 25.7572C27.7999 25.7572 27.362 26.1922 27.3589 26.8386V31.5445C27.3523 31.6884 27.376 31.8321 27.4286 31.9662C27.4811 32.1003 27.5612 32.2218 27.6637 32.3229C27.7663 32.4241 27.889 32.5025 28.0238 32.5531C28.1586 32.6038 28.3026 32.6255 28.4463 32.6168C28.5873 32.6211 28.7277 32.5963 28.8587 32.5439C28.9897 32.4915 29.1085 32.4127 29.2077 32.3124C29.3069 32.2121 29.3844 32.0924 29.4353 31.9608C29.4862 31.8292 29.5094 31.6885 29.5035 31.5476V29.9165L29.5065 29.9135ZM15.8386 29.1704V28.3941V26.8416C15.8386 26.2344 16.1799 25.8116 16.7025 25.7632C17.3277 25.7059 17.7687 26.023 17.8956 26.6392C17.9469 26.8869 17.9802 27.1436 17.9802 27.3943C17.9892 28.7777 17.9892 30.1581 17.9832 31.5385C17.9872 31.7126 17.9485 31.885 17.8705 32.0407C17.7925 32.1964 17.6776 32.3306 17.5358 32.4317C17.3939 32.5327 17.2295 32.5974 17.0568 32.6202C16.8842 32.643 16.7086 32.6232 16.5454 32.5625C16.3391 32.4992 16.1587 32.3709 16.0313 32.1967C15.9039 32.0225 15.8363 31.8117 15.8386 31.5959L15.8356 29.8621V29.1674L15.8386 29.1704ZM33.1282 30.2306C33.1292 30.4501 33.1292 30.6696 33.1282 30.8891L33.1312 31.605C33.1311 31.8689 33.2345 32.1224 33.4192 32.311C33.6038 32.4996 33.855 32.6083 34.1189 32.6138C34.7321 32.641 35.2244 32.2785 35.2516 31.7016C35.2892 30.9359 35.2892 30.1687 35.2516 29.403C35.2214 28.8291 34.717 28.4545 34.1189 28.4878C33.8552 28.4956 33.6049 28.6055 33.4207 28.7942C33.2364 28.983 33.1326 29.2359 33.1312 29.4996L33.1282 30.2306ZM12.1505 30.5689V31.608C12.1384 32.1879 11.6763 32.6168 11.0752 32.6138C10.4711 32.6138 10.012 32.1849 10.0059 31.6019C9.99802 30.9002 9.99802 30.1984 10.0059 29.4966C10.012 28.9167 10.4832 28.4847 11.0813 28.4878C11.6823 28.4878 12.1384 28.9227 12.1505 29.5027V30.5689ZM56.1749 30.2336V31.5989C56.1839 32.1789 56.6279 32.6078 57.2169 32.6138C57.8271 32.6229 58.3043 32.2121 58.3164 31.6291C58.3345 30.9163 58.3315 30.2034 58.3164 29.4936C58.3074 28.9076 57.8392 28.4847 57.2351 28.4878C57.0979 28.4846 56.9615 28.5087 56.8337 28.5588C56.706 28.6089 56.5895 28.6839 56.4911 28.7795C56.3927 28.8751 56.3143 28.9894 56.2605 29.1156C56.2067 29.2419 56.1786 29.3775 56.1779 29.5147C56.1718 29.7534 56.1749 29.995 56.1749 30.2336Z" fill="#02A5DD"/>
</svg>
