<svg width="168" height="68" viewBox="0 0 168 68" fill="none" xmlns="http://www.w3.org/2000/svg">
<path d="M8 0.5H160C164.142 0.5 167.5 3.85786 167.5 8V60C167.5 64.1421 164.142 67.5 160 67.5H8C3.85786 67.5 0.5 64.1421 0.5 60V8C0.5 3.85786 3.85786 0.5 8 0.5Z" stroke="#ECECEE"/>
<g clip-path="url(#clip0_1682_2255)">
<path d="M158 40.2914C157.861 40.3537 157.722 40.467 157.578 40.4727C157.011 40.4954 156.445 40.484 155.872 40.4784C155.543 40.4727 155.468 40.399 155.468 40.0704C155.468 38.7047 155.468 37.339 155.468 35.979C155.468 35.8657 155.468 35.758 155.468 35.622C153.751 35.622 152.051 35.622 150.305 35.622C150.305 35.7297 150.305 35.8374 150.305 35.945C150.305 37.3107 150.305 38.6764 150.305 40.0364C150.305 40.4104 150.236 40.4784 149.848 40.484C149.311 40.4897 148.767 40.4897 148.23 40.484C147.86 40.484 147.784 40.4104 147.784 40.0534C147.784 36.353 147.784 32.6584 147.784 28.958C147.784 28.5954 147.854 28.5274 148.224 28.5217C148.785 28.516 149.34 28.516 149.9 28.5217C150.236 28.5274 150.305 28.601 150.305 28.9297C150.305 30.2727 150.305 31.6214 150.305 32.9644C150.305 33.072 150.305 33.1854 150.305 33.3157C152.039 33.3157 153.733 33.3157 155.468 33.3157C155.468 33.1967 155.468 33.0947 155.468 32.9984C155.468 31.661 155.468 30.3237 155.468 28.992C155.468 28.5897 155.531 28.5274 155.93 28.5274C156.468 28.5274 157.011 28.5104 157.549 28.533C157.699 28.5387 157.85 28.652 158 28.7144C158 32.5677 158 36.4324 158 40.2914Z" fill="#FF2C02"/>
<path d="M21.9325 26.068C25.488 26.068 29.0376 26.0397 32.5931 26.0737C35.3392 26.102 37.5881 27.2013 39.0797 29.468C40.8256 32.12 41.2361 34.993 39.8312 37.9C38.2876 41.0847 35.5936 42.6997 31.9919 42.796C30.454 42.8357 28.9105 42.8017 27.3669 42.8073C26.6558 42.8073 26.0603 42.5807 25.5515 42.082C24.0426 40.603 22.5222 39.1353 21.0017 37.6677C20.7473 37.4183 20.6144 37.152 20.7473 36.8063C20.8919 36.4493 21.1983 36.3473 21.5625 36.3473C25.0023 36.3473 28.4364 36.3473 31.8762 36.353C32.3965 36.353 32.8706 36.234 33.2637 35.8997C33.8939 35.3613 34.1309 34.6813 33.8823 33.8937C33.6395 33.1117 33.073 32.6583 32.2405 32.5393C32.0439 32.511 31.8358 32.5053 31.6334 32.5053C26.7136 32.5053 21.7937 32.494 16.8681 32.511C16.0414 32.511 15.3881 32.2503 14.81 31.678C13.3589 30.2387 11.8847 28.822 10.4105 27.3997C10.1503 27.1503 9.98264 26.884 10.133 26.5213C10.289 26.1587 10.6012 26.0623 10.977 26.068C14.6308 26.068 18.2787 26.068 21.9325 26.068Z" fill="#FF2C02"/>
<path d="M85.5724 40.7617C81.936 40.756 79.0627 37.9737 79.0685 34.4717C79.0743 31.0037 81.9591 28.2497 85.5782 28.2553C89.2146 28.261 92.0647 31.015 92.059 34.5227C92.0532 38.002 89.1799 40.7673 85.5724 40.7617ZM85.5782 30.556C83.3929 30.5503 81.6065 32.3183 81.6007 34.5C81.5949 36.676 83.3813 38.4723 85.5493 38.4837C87.7172 38.495 89.5152 36.7043 89.521 34.5283C89.5268 32.3353 87.7635 30.5617 85.5782 30.556Z" fill="#FF2C02"/>
<path d="M70.073 40.7617C66.4539 40.7617 63.5922 38.002 63.5864 34.5113C63.5864 31.0207 66.4713 28.244 70.0903 28.2553C73.721 28.2667 76.5711 31.015 76.5711 34.5C76.5769 37.9963 73.7036 40.7617 70.073 40.7617ZM66.1302 34.4943C66.0897 36.6137 67.8645 38.4383 70.0094 38.478C72.1427 38.5233 73.9927 36.7667 74.0331 34.6643C74.0794 32.409 72.3797 30.5957 70.1886 30.5503C67.9513 30.5163 66.1764 32.2333 66.1302 34.4943Z" fill="#FF2C02"/>
<path d="M50.4167 34.5114C50.4167 32.6867 50.4167 30.862 50.4167 29.0317C50.4167 28.5954 50.4745 28.5387 50.9081 28.5387C52.3707 28.5387 53.8392 28.499 55.296 28.55C58.0537 28.6577 60.372 30.6467 60.8923 33.2987C61.401 35.8884 60.239 38.4327 57.9612 39.7133C57.0478 40.2233 56.0649 40.484 55.0128 40.4953C53.6253 40.5124 52.2378 40.501 50.8503 40.501C50.4976 40.501 50.4109 40.416 50.4109 40.0647C50.4167 38.2174 50.4167 36.3643 50.4167 34.5114ZM52.972 38.2117C53.6484 38.2117 54.3017 38.2173 54.9549 38.206C55.1862 38.2003 55.4175 38.172 55.6371 38.121C57.2617 37.73 58.3428 36.421 58.4642 34.6927C58.5971 32.8737 57.3773 31.219 55.5678 30.896C54.8278 30.7657 54.0531 30.8394 53.2957 30.7997C53.0067 30.7827 52.9489 30.8847 52.9489 31.151C52.9604 33.4007 52.9546 35.6447 52.9546 37.8943C52.9546 37.985 52.9662 38.087 52.972 38.2117Z" fill="#FF2C02"/>
<path d="M109.05 34.568C109.05 32.732 109.05 30.896 109.05 29.06C109.05 28.6293 109.085 28.5953 109.53 28.5953C111.01 28.5953 112.496 28.55 113.976 28.6123C116.67 28.72 118.994 30.7487 119.497 33.344C120.006 35.9847 118.832 38.546 116.537 39.7927C115.612 40.297 114.612 40.552 113.554 40.5577C112.195 40.5633 110.837 40.5633 109.478 40.5577C109.108 40.5577 109.044 40.501 109.044 40.127C109.044 38.274 109.05 36.421 109.05 34.568ZM111.588 38.274C112.103 38.274 112.588 38.2853 113.074 38.2683C113.467 38.257 113.866 38.257 114.248 38.172C115.814 37.815 116.855 36.591 117.069 34.9137C117.3 33.0607 116.051 31.2813 114.178 30.9527C113.357 30.811 112.496 30.8903 111.646 30.8677C111.629 30.8677 111.617 30.8847 111.582 30.9073C111.588 33.3383 111.588 35.7807 111.588 38.274Z" fill="#FF2C02"/>
<path d="M102.731 35.9904C103.384 37.152 104.026 38.2854 104.668 39.4244C104.784 39.6284 104.905 39.8324 105.015 40.042C105.159 40.3254 105.049 40.5124 104.737 40.5124C104.101 40.518 103.465 40.5067 102.829 40.518C102.604 40.5237 102.512 40.3934 102.419 40.229C101.754 39.0107 101.078 37.798 100.419 36.574C100.315 36.3757 100.193 36.3134 99.9736 36.319C99.3376 36.336 98.7017 36.3247 98.0137 36.3247C98.0137 36.4494 98.0137 36.557 98.0137 36.6647C98.0137 37.8037 98.0137 38.9427 98.0137 40.0817C98.0137 40.433 97.9386 40.5067 97.5686 40.5067C97.0309 40.5067 96.4875 40.5067 95.9498 40.5067C95.5856 40.5067 95.5047 40.433 95.5047 40.076C95.4989 38.869 95.4989 37.6677 95.4989 36.4607C95.4931 33.9844 95.4931 31.5137 95.4873 29.0374C95.4873 28.584 95.5336 28.5387 96.0018 28.5387C97.5801 28.5387 99.1584 28.533 100.737 28.5387C102.303 28.5444 103.541 29.1507 104.338 30.4937C105.454 32.375 104.801 34.7607 102.899 35.8827C102.853 35.911 102.806 35.945 102.731 35.9904ZM98.0253 32.3977C98.0253 32.851 98.0368 33.2987 98.0195 33.752C98.0137 33.9674 98.0947 34.024 98.3028 34.024C99.0948 34.0127 99.8811 34.024 100.673 34.0184C101.633 34.0127 102.332 33.3497 102.35 32.4374C102.367 31.5364 101.667 30.8224 100.725 30.7997C99.91 30.7827 99.089 30.7997 98.2681 30.7884C98.0773 30.7884 98.0137 30.8564 98.0195 31.0377C98.0311 31.4967 98.0253 31.9444 98.0253 32.3977Z" fill="#FF2C02"/>
<path d="M127.475 28.5047C127.793 28.5047 128.111 28.5217 128.429 28.499C128.729 28.482 128.88 28.6067 128.984 28.873C129.903 31.236 130.828 33.5933 131.753 35.9507C132.268 37.2653 132.788 38.58 133.302 39.8947C133.482 40.3593 133.389 40.4953 132.88 40.4953C132.314 40.4953 131.741 40.484 131.175 40.501C130.909 40.5067 130.77 40.4047 130.684 40.1667C130.418 39.413 130.134 38.665 129.874 37.9057C129.811 37.7243 129.73 37.6563 129.527 37.6563C128.151 37.6677 126.775 37.6677 125.394 37.6563C125.191 37.6563 125.11 37.7243 125.047 37.9C124.781 38.6537 124.498 39.4073 124.237 40.161C124.151 40.4047 124.012 40.5067 123.752 40.501C123.174 40.4897 122.596 40.4953 122.017 40.4953C121.549 40.4953 121.445 40.3537 121.613 39.923C122.809 36.8687 124.006 33.82 125.203 30.7657C125.457 30.114 125.723 29.4737 125.966 28.8163C126.059 28.5727 126.203 28.482 126.463 28.4877C126.799 28.5103 127.14 28.5047 127.475 28.5047ZM128.938 35.4407C128.446 34.1147 127.972 32.8283 127.504 31.542C127.481 31.542 127.458 31.542 127.44 31.542C126.966 32.8283 126.492 34.1203 126.006 35.435C127.001 35.4407 127.937 35.4407 128.938 35.4407Z" fill="#FF2C02"/>
<path d="M139.91 40.824C138.274 40.756 136.87 40.2177 135.69 39.124C135.418 38.869 135.418 38.767 135.684 38.495C135.973 38.206 136.263 37.917 136.552 37.628C136.846 37.3333 136.904 37.3333 137.216 37.5997C138.153 38.393 139.228 38.7217 140.454 38.478C140.945 38.3817 141.373 38.1437 141.656 37.713C142.05 37.1123 141.934 36.4323 141.315 36.0697C140.882 35.8203 140.396 35.656 139.916 35.4803C139.315 35.2593 138.685 35.1007 138.089 34.8683C136.436 34.211 135.76 33.208 135.812 31.559C135.852 30.2217 136.829 28.9693 138.309 28.5217C140.234 27.9323 142.015 28.244 143.576 29.5417C143.859 29.7797 143.859 29.9043 143.599 30.1707C143.281 30.488 142.969 30.8053 142.645 31.117C142.408 31.3493 142.333 31.3493 142.061 31.1397C141.298 30.5333 140.442 30.2557 139.483 30.5277C139.159 30.6183 138.835 30.8337 138.604 31.0773C138.199 31.4967 138.24 32.12 138.696 32.4827C139.003 32.7263 139.373 32.9133 139.743 33.055C140.321 33.276 140.928 33.4347 141.523 33.6273C141.708 33.684 141.888 33.752 142.067 33.82C143.807 34.5227 144.483 35.5143 144.408 37.2597C144.345 38.75 143.316 40.025 141.737 40.484C141.153 40.6653 140.523 40.7163 139.91 40.824Z" fill="#FF2C02"/>
</g>
<defs>
<clipPath id="clip0_1682_2255">
<rect width="148" height="17" fill="white" transform="translate(10 26)"/>
</clipPath>
</defs>
</svg>
