<svg width="168" height="68" viewBox="0 0 168 68" fill="none" xmlns="http://www.w3.org/2000/svg">
<path d="M8 0.5H160C164.142 0.5 167.5 3.85786 167.5 8V60C167.5 64.1421 164.142 67.5 160 67.5H8C3.85786 67.5 0.5 64.1421 0.5 60V8C0.5 3.85786 3.85786 0.5 8 0.5Z" fill="white"/>
<path d="M8 0.5H160C164.142 0.5 167.5 3.85786 167.5 8V60C167.5 64.1421 164.142 67.5 160 67.5H8C3.85786 67.5 0.5 64.1421 0.5 60V8C0.5 3.85786 3.85786 0.5 8 0.5Z" stroke="#ECECEE"/>
<g clip-path="url(#clip0_1682_2320)">
<path d="M84.068 29.6753H82.0278C81.6764 29.6753 81.3931 29.9571 81.3931 30.3066V44.1044C81.3931 44.4538 81.6764 44.7357 82.0278 44.7357H84.068C84.4194 44.7357 84.7028 44.4538 84.7028 44.1044V30.3066C84.7028 29.9571 84.4194 29.6753 84.068 29.6753Z" fill="#231F20"/>
<path d="M106.057 29.3596C103.972 29.3596 102.305 30.2276 100.968 32.0087L100.866 32.144L100.787 31.9974C99.9364 30.2953 98.3383 29.3709 96.2867 29.3709C93.8838 29.3709 92.569 30.7574 91.6849 31.9636L91.4922 32.2229V30.3178C91.4922 29.9683 91.2088 29.6865 90.8574 29.6865H88.8172C88.4659 29.6865 88.1825 29.9683 88.1825 30.3178V44.1156C88.1825 44.4651 88.4659 44.7469 88.8172 44.7469H90.8574C91.2088 44.7469 91.4922 44.4651 91.4922 44.1156V36.236C91.4922 33.8687 92.8183 32.3469 94.8812 32.3469C96.9214 32.3469 98.1002 33.7334 98.1002 36.1571V44.1269C98.1002 44.4763 98.3836 44.7582 98.735 44.7582H100.775C101.127 44.7582 101.41 44.4763 101.41 44.1269V36.2473C101.41 33.8462 102.713 32.3582 104.799 32.3582C107.599 32.3582 108.018 34.7593 108.018 36.1909V44.1382C108.018 44.4876 108.301 44.7694 108.653 44.7694H110.693C111.044 44.7694 111.328 44.4876 111.328 44.1382V35.1313C111.328 31.4451 109.412 29.3596 106.057 29.3596Z" fill="#231F20"/>
<path d="M117.074 29.6865H115.034C114.683 29.6865 114.399 29.9683 114.399 30.3178V44.1156C114.399 44.4651 114.683 44.7469 115.034 44.7469H117.074C117.426 44.7469 117.709 44.4651 117.709 44.1156V30.3178C117.709 29.9683 117.426 29.6865 117.074 29.6865Z" fill="#231F20"/>
<path d="M128.613 29.6865H125.11V26.1243C125.11 25.7749 124.827 25.493 124.476 25.493H122.435C122.084 25.493 121.801 25.7749 121.801 26.1243V29.6865H120.497C120.146 29.6865 119.863 29.9683 119.863 30.3178V31.8621C119.863 32.2116 120.146 32.4934 120.497 32.4934H121.812V40.6323C121.812 43.5745 123.218 45.0061 126.131 45.0061C127.162 45.0061 128.023 44.8258 128.828 44.4538C129.055 44.3523 129.191 44.1269 129.191 43.8789V42.5261C129.191 42.3345 129.1 42.1429 128.942 42.0301C128.783 41.9061 128.579 41.8723 128.386 41.9287C127.978 42.0414 127.559 42.0978 127.105 42.0978C125.779 42.0978 125.11 41.4214 125.11 40.0799V32.4821H128.613C128.964 32.4821 129.248 32.2003 129.248 31.8509V30.3065C129.248 29.9683 128.964 29.6865 128.613 29.6865Z" fill="#231F20"/>
<path d="M145.309 29.9571C145.195 29.788 144.991 29.6865 144.787 29.6865H142.724C142.452 29.6865 142.214 29.8556 142.124 30.1036L138.213 41.2185L133.963 30.0923C133.872 29.8443 133.634 29.6865 133.373 29.6865H131.208C130.993 29.6865 130.8 29.788 130.687 29.9683C130.574 30.1374 130.551 30.3629 130.63 30.5545L136.615 44.8822L136.592 44.916C135.924 46.404 135.198 46.7196 134.314 46.7196C133.838 46.7196 133.339 46.6182 132.841 46.4265C132.523 46.3025 132.172 46.4491 132.036 46.7534L131.446 48.0385C131.378 48.1963 131.367 48.3654 131.435 48.5233C131.492 48.6811 131.616 48.8051 131.775 48.8727C132.705 49.2785 133.634 49.4589 134.688 49.4589C137.102 49.4589 138.451 48.3203 139.653 45.2429L145.365 30.5433C145.456 30.3516 145.422 30.1374 145.309 29.9571Z" fill="#231F20"/>
<path d="M46.6073 23.8361H44.567C44.2157 23.8361 43.9323 24.1179 43.9323 24.4673V32.2568L43.7396 32.0088C42.3795 30.2277 40.6906 29.3597 38.5937 29.3597C35.1027 29.3597 31.5776 32.0426 31.5776 37.183V37.2393C31.5776 42.3121 35.1934 45.0626 38.5937 45.0626C40.702 45.0626 42.3908 44.1382 43.7396 42.2444L43.9323 41.9739V44.1157C43.9323 44.4652 44.2157 44.747 44.567 44.747H46.6073C46.9586 44.747 47.242 44.4652 47.242 44.1157V24.4673C47.242 24.1179 46.9586 23.8361 46.6073 23.8361ZM34.91 37.2393V37.183C34.91 34.2859 36.8142 32.1892 39.4325 32.1892C42.0281 32.1892 43.989 34.331 43.989 37.183V37.2393C43.989 40.035 41.9941 42.2332 39.4325 42.2332C36.8595 42.2219 34.91 40.0801 34.91 37.2393Z" fill="#231F20"/>
<path d="M57.4658 29.3596C52.932 29.3596 49.3729 32.8203 49.3729 37.2393V37.2956C49.3729 41.6582 52.898 45.0851 57.4091 45.0851C61.9656 45.0851 65.536 41.6356 65.536 37.2393V37.1829C65.536 32.7865 61.9883 29.3596 57.4658 29.3596ZM57.4658 42.2218C54.7795 42.2218 52.6826 40.0236 52.6826 37.228V37.1716C52.6826 34.2971 54.6662 32.2116 57.4091 32.2116C60.1521 32.2116 62.2263 34.376 62.2263 37.228V37.2843C62.2263 40.1476 60.2314 42.2218 57.4658 42.2218Z" fill="#231F20"/>
<path d="M74.2183 37.0251L78.8315 30.6673C78.9675 30.4757 78.9901 30.2277 78.8768 30.0135C78.7635 29.7993 78.5481 29.6753 78.3101 29.6753H76.3832C76.1792 29.6753 75.9752 29.7767 75.8618 29.9458L72.4501 34.872L69.0384 29.9458C68.9251 29.7767 68.721 29.6753 68.517 29.6753H66.5108C66.2728 29.6753 66.0574 29.8106 65.9441 30.0135C65.8307 30.2277 65.8534 30.4757 65.9894 30.6673L70.6026 37.0589L65.7854 43.7324C65.6494 43.924 65.6267 44.172 65.7401 44.3862C65.8534 44.6004 66.0688 44.7244 66.3068 44.7244H68.2337C68.4377 44.7244 68.6417 44.6229 68.755 44.4538L72.3708 39.212L76.0205 44.4538C76.1338 44.6229 76.3379 44.7244 76.5419 44.7244H78.5594C78.7975 44.7244 79.0128 44.5891 79.1262 44.3862C79.2395 44.172 79.2168 43.924 79.0808 43.7324L74.2183 37.0251Z" fill="#231F20"/>
<path d="M27.2139 33.6432C27.1346 32.7639 27.1572 31.7043 27.5766 30.2501C27.928 29.0778 28.7668 27.7814 29.7415 26.8683C30.6936 25.9778 31.9858 25.2788 33.3913 24.9632C34.7287 24.6588 35.8509 24.6814 36.7009 24.7828C36.8256 24.7828 36.9163 24.8392 36.9616 24.8956C37.0523 24.9858 37.0636 25.1887 37.0183 25.245C36.973 25.2901 36.8596 25.3352 36.7463 25.3352C34.8988 25.4479 32.9152 26.4399 31.011 28.221C29.2655 29.8556 28.0187 31.9298 27.7807 33.7221C27.7693 33.8348 27.724 33.9363 27.6673 33.9814C27.6106 34.0265 27.3953 34.0152 27.3159 33.925C27.2706 33.8574 27.2253 33.7672 27.2139 33.6432Z" fill="#5190CC"/>
<path d="M22.5667 31.5465C22.4647 30.3854 22.4873 28.9651 23.0541 27.0261C23.5188 25.4592 24.6296 23.7458 25.9331 22.5283C27.2025 21.3447 28.914 20.4203 30.7956 19.992C32.5751 19.5862 34.0713 19.62 35.1934 19.744C35.3521 19.744 35.4767 19.8229 35.5448 19.8905C35.6581 20.0145 35.6808 20.2851 35.6128 20.3527C35.5561 20.4091 35.4087 20.4654 35.2614 20.4767C32.8018 20.6345 30.1608 21.9534 27.6332 24.3207C25.2983 26.5076 23.6435 29.2581 23.3261 31.648C23.3034 31.7945 23.2468 31.9298 23.1788 31.9974C23.1107 32.0651 22.8274 32.0425 22.7027 31.9185C22.6347 31.8509 22.578 31.7269 22.5667 31.5465Z" fill="#5190CC"/>
<path d="M83.0479 25.076C82.1411 25.076 81.3931 25.8088 81.3931 26.7219C81.3931 27.6237 82.1298 28.3677 83.0479 28.3677C83.9547 28.3677 84.7028 27.635 84.7028 26.7219C84.7028 25.82 83.966 25.076 83.0479 25.076Z" fill="#231F20"/>
<path d="M116.054 25.076C115.147 25.076 114.399 25.8088 114.399 26.7219C114.399 27.6237 115.136 28.3677 116.054 28.3677C116.961 28.3677 117.709 27.635 117.709 26.7219C117.709 25.82 116.961 25.076 116.054 25.076Z" fill="#231F20"/>
</g>
<defs>
<clipPath id="clip0_1682_2320">
<rect width="124" height="31" fill="white" transform="translate(22 19)"/>
</clipPath>
</defs>
</svg>
