<svg width="168" height="168" viewBox="0 0 168 168" fill="none" xmlns="http://www.w3.org/2000/svg">
<path d="M8 0.5H160C164.142 0.5 167.5 3.85786 167.5 8V160C167.5 164.142 164.142 167.5 160 167.5H8C3.85786 167.5 0.5 164.142 0.5 160V8C0.5 3.85786 3.85786 0.5 8 0.5Z" stroke="#ECECEE"/>
<path d="M56.0541 84.2504C56.0541 73.1669 56.1075 62.0834 56.014 50.9998C55.9873 48.677 56.7221 48 59.0332 48C75.5721 48.0796 92.1109 48.0265 108.65 48.0796C109.919 48.0796 112.27 48.5708 112.27 48.8628C112.283 50.7875 112.404 53.1369 111.388 54.5837C107.995 59.4419 104.134 63.9948 100.447 68.6538C96.8267 73.2465 93.2598 77.879 89.5459 82.3921C88.3836 83.7991 88.4104 84.7017 89.5459 86.122C96.7332 95.095 103.827 104.148 110.948 113.174C111.428 113.784 111.963 114.382 112.283 115.085C113.833 118.43 112.551 120.474 108.944 120.474C92.4048 120.474 75.866 120.421 59.3271 120.527C56.7488 120.541 55.9739 119.811 56.0007 117.235C56.1343 106.232 56.0541 95.241 56.0541 84.2504ZM84.8568 88.5511C77.95 97.5904 71.2971 106.311 64.3102 115.47C78.3107 115.47 91.4296 115.47 105.297 115.47C98.3096 106.271 91.6967 97.5772 84.8568 88.5511ZM84.8701 79.9497C91.7903 70.8174 98.363 62.1365 105.176 53.1502C91.3093 53.1502 78.1504 53.1502 64.377 53.1502C71.3639 62.2957 77.9634 70.9236 84.8701 79.9497ZM79.7669 86.6397C74.0892 86.6397 69.3733 86.7193 64.6441 86.5998C62.6269 86.5467 61.9055 87.1972 61.9456 89.2413C62.0524 95.0552 61.9723 100.869 61.999 106.683C61.999 107.28 62.2127 107.878 62.4532 109.165C68.3046 101.559 73.7552 94.4711 79.7669 86.6397ZM78.7516 81.8479C78.8852 81.5957 79.0188 81.3302 79.1524 81.078C73.7151 74.0031 68.2645 66.9283 62.8273 59.8534C62.5601 59.933 62.2929 60.0259 62.0391 60.1056C62.0391 66.915 62.0124 73.7376 62.1059 80.547C62.1059 80.9851 63.0677 81.7815 63.6021 81.7948C68.6519 81.8877 73.7018 81.8479 78.7516 81.8479Z" fill="#1F40ED"/>
</svg>
