<svg width="68" height="68" viewBox="0 0 68 68" fill="none" xmlns="http://www.w3.org/2000/svg">
<path d="M8 0.5H60C64.1421 0.5 67.5 3.85786 67.5 8V60C67.5 64.1421 64.1421 67.5 60 67.5H8C3.85786 67.5 0.5 64.1421 0.5 60V8C0.5 3.85786 3.85786 0.5 8 0.5Z" fill="white"/>
<path d="M8 0.5H60C64.1421 0.5 67.5 3.85786 67.5 8V60C67.5 64.1421 64.1421 67.5 60 67.5H8C3.85786 67.5 0.5 64.1421 0.5 60V8C0.5 3.85786 3.85786 0.5 8 0.5Z" stroke="#ECECEE"/>
<path d="M36.2141 33.6697C37.6138 33.6697 38.5646 34.7359 38.5646 36.3223V39.274C38.5646 39.313 38.525 39.352 38.4853 39.352H37.112C37.0724 39.352 37.0328 39.313 37.0328 39.274V36.3353C37.0328 35.7242 36.7291 35.061 35.8707 35.061H35.8443C35.1973 35.074 34.6426 35.6461 34.6426 36.2963V39.274C34.6426 39.313 34.603 39.352 34.5634 39.352H33.2033C33.1637 39.352 33.1241 39.313 33.1241 39.274V33.8127C33.1241 33.7737 33.1637 33.7347 33.2033 33.7347H34.5238C34.5634 33.7347 34.603 33.7737 34.603 33.8127V34.2938C35.1048 33.8647 35.6198 33.6697 36.2141 33.6697ZM57.1442 38.3638C57.1178 38.3898 57.131 38.4418 57.1574 38.4678C57.9761 39.274 58.8609 39.378 59.6268 39.378C60.7096 39.378 61.5151 38.9749 61.8584 38.2597C61.9641 38.0387 62.0169 37.8046 62.0169 37.5576C62.0169 36.1142 60.7492 35.8542 59.6532 35.7892C58.7816 35.7372 58.7816 35.4381 58.7816 35.3341C58.7816 34.97 59.3759 34.931 59.6268 34.931C60.1154 34.931 60.4851 35.048 60.7888 35.3081C60.8152 35.3341 60.8681 35.3341 60.8945 35.2951L61.6736 34.4109C61.7 34.3849 61.7 34.3328 61.6604 34.3068C61.0925 33.8387 60.4851 33.6437 59.6004 33.6437C59.0325 33.6437 58.4779 33.7867 58.0686 34.0208C57.5404 34.3328 57.263 34.801 57.263 35.3731C57.263 36.3743 58.0686 36.9854 59.5475 37.0895C60.3795 37.1415 60.4851 37.3755 60.4851 37.5836C60.4851 37.8826 60.0757 38.0387 59.6796 38.0387H59.64C58.9929 38.0257 58.3723 37.7916 57.9629 37.4145C57.9233 37.3885 57.8705 37.3885 57.8441 37.4275L57.1442 38.3638ZM43.3448 37.4405C43.5693 37.1805 43.675 36.8164 43.675 36.4263C43.675 35.7242 43.2392 34.983 42.1828 34.983C41.3112 34.983 40.7302 35.5681 40.7302 36.4393C40.7302 37.3105 41.3112 37.9086 42.1828 37.9086C42.6318 37.9086 43.0807 37.7396 43.3448 37.4405ZM43.6353 33.7997C43.6353 33.7607 43.675 33.7217 43.7146 33.7217H45.0747C45.1143 33.7217 45.1539 33.7607 45.1539 33.7997V39.274C45.1539 39.313 45.1143 39.352 45.0747 39.352H43.7146C43.675 39.352 43.6353 39.313 43.6353 39.274V38.8579C43.16 39.287 42.5921 39.3 42.1035 39.313H42.0243C41.2056 39.313 40.5189 39.0659 40.0171 38.5848C39.4889 38.0777 39.2248 37.3365 39.2248 36.4523C39.2248 34.7359 40.3341 33.6307 42.0639 33.6307H42.0903C42.6318 33.6307 43.1996 33.6827 43.6485 34.0468L43.6353 33.7997ZM26.7196 32.3694V31.0561C26.7196 31.0041 26.6799 30.9651 26.6271 30.9651H21.6752C21.6224 30.9651 21.5828 31.0041 21.5828 31.0561V39.248C21.5828 39.3 21.6224 39.339 21.6752 39.339H23.0089C23.0617 39.339 23.1014 39.3 23.1014 39.248V35.9062C23.1014 35.8542 23.141 35.8152 23.1938 35.8152H25.6896C25.7424 35.8152 25.782 35.7762 25.782 35.7242V34.3979C25.782 34.3458 25.7424 34.3068 25.6896 34.3068H23.1938C23.141 34.3068 23.1014 34.2678 23.1014 34.2158V32.5644C23.1014 32.5124 23.141 32.4734 23.1938 32.4734H26.6139C26.6799 32.4734 26.7196 32.4214 26.7196 32.3694ZM55.8369 37.5966C55.8105 37.5706 55.7577 37.5706 55.7313 37.5966C55.4671 37.8176 55.1238 37.9347 54.7937 37.9347C53.9618 37.9347 53.3807 37.3495 53.3807 36.5043C53.3807 35.6591 53.9618 35.074 54.7937 35.074C55.1238 35.074 55.4539 35.191 55.7313 35.4121C55.7577 35.4381 55.8105 35.4381 55.8369 35.4121L56.7216 34.5019C56.748 34.4759 56.748 34.4239 56.7216 34.3979C56.1538 33.8647 55.5728 33.6437 54.7805 33.6437C52.9978 33.6437 51.8489 34.7749 51.8489 36.5303C51.8489 38.2857 52.9978 39.417 54.7805 39.417C55.5728 39.417 56.1538 39.1959 56.7216 38.6628C56.748 38.6368 56.748 38.5848 56.7216 38.5588L55.8369 37.5966ZM48.7325 39.352C48.7721 39.352 48.8118 39.313 48.8118 39.274V38.0517C48.8118 38.0127 48.7721 37.9737 48.7325 37.9737H48.0591C47.6629 37.9607 47.478 37.7656 47.478 37.3495V35.2561H48.7325C48.7721 35.2561 48.8118 35.217 48.8118 35.178V33.8127C48.8118 33.7737 48.7721 33.7347 48.7325 33.7347H47.4912V32.5514C47.4912 32.5124 47.4516 32.4734 47.412 32.4734H46.0387C45.9991 32.4734 45.9594 32.5124 45.9594 32.5514V37.3495C45.9594 38.6238 46.6857 39.352 47.9666 39.352H48.2175H48.7325ZM30.483 37.4405C30.7075 37.1805 30.8132 36.8164 30.8132 36.4263C30.8132 35.7242 30.3774 34.983 29.321 34.983C28.4494 34.983 27.8684 35.5681 27.8684 36.4393C27.8684 37.3105 28.4494 37.9086 29.321 37.9086C29.7832 37.9086 30.2321 37.7396 30.483 37.4405ZM30.7867 33.7997C30.7867 33.7607 30.8264 33.7217 30.866 33.7217H32.2261C32.2657 33.7217 32.3053 33.7607 32.3053 33.7997V39.274C32.3053 39.313 32.2657 39.352 32.2261 39.352H30.866C30.8264 39.352 30.7867 39.313 30.7867 39.274V38.8579C30.3114 39.287 29.7435 39.3 29.2549 39.313H29.1757C28.357 39.313 27.6703 39.0659 27.1685 38.5848C26.6403 38.0777 26.3762 37.3365 26.3762 36.4523C26.363 34.7359 27.4723 33.6177 29.1889 33.6177H29.2153C29.7567 33.6177 30.3246 33.6697 30.7735 34.0338L30.7867 33.7997ZM49.6305 39.352H51.0038C51.0434 39.352 51.083 39.313 51.083 39.274V33.7997C51.083 33.7607 51.0434 33.7217 51.0038 33.7217H49.6305C49.5909 33.7217 49.5512 33.7607 49.5512 33.7997V39.274C49.5645 39.313 49.5909 39.352 49.6305 39.352ZM51.1887 32.0703C51.1887 30.9651 49.4984 30.9651 49.4984 32.0703C49.4852 33.1626 51.1887 33.1626 51.1887 32.0703Z" fill="#09203F"/>
<path d="M19.2587 29.3787L17.8325 31.5632C17.8061 31.6022 17.7401 31.6282 17.7005 31.6022C14.4124 29.9768 10.6093 32.9675 7.25521 32.2524C7.2288 32.2394 7.20239 32.2264 7.17598 32.2003C7.18918 32.2003 5.56495 29.7558 5.02354 28.9366C4.95751 28.8326 5.03674 28.6896 5.182 28.7026C5.47251 28.7676 6.74021 29.0406 7.71739 29.1187C12.8014 29.3917 15.5612 26.388 19.2455 29.2357C19.2851 29.2617 19.2983 29.3267 19.2587 29.3787ZM15.1123 35.6331C15.1387 35.6461 15.1651 35.6331 15.1915 35.6071L16.9082 32.9675C16.9346 32.9285 16.9082 32.8895 16.8685 32.8765C14.3728 32.0313 12.0355 33.6567 8.47008 33.7477C8.37764 33.7477 8.28521 33.8517 8.35123 33.9687L12.1939 39.8201C12.2467 39.9241 12.3788 39.8591 12.3656 39.7681L11.5337 36.0622C11.5205 36.0232 11.5469 35.9972 11.5733 35.9842C11.9034 35.8932 14.0823 35.165 15.1123 35.6331Z" fill="#E53D2E"/>
<path d="M62.9939 33.1366C62.9939 33.4096 62.8222 33.6307 62.5053 33.6307C62.1884 33.6307 62.0167 33.4096 62.0167 33.1366C62.0167 32.8635 62.1884 32.6425 62.5053 32.6425C62.8222 32.6425 62.9939 32.8635 62.9939 33.1366ZM62.5053 33.5527C62.7694 33.5527 62.9147 33.3706 62.9147 33.1366C62.9147 32.9025 62.7694 32.7205 62.5053 32.7205C62.2412 32.7205 62.096 32.9025 62.096 33.1366C62.096 33.3706 62.2412 33.5527 62.5053 33.5527ZM62.5845 33.2016C62.7826 33.1756 62.7694 32.8765 62.5449 32.8765H62.3072V33.3836H62.3865V33.2016H62.4921L62.6506 33.3836H62.743V33.3706L62.5845 33.2016ZM62.5449 32.9545C62.677 32.9545 62.677 33.1366 62.5449 33.1366H62.3865V32.9545H62.5449Z" fill="#09203F"/>
</svg>
