<svg width="168" height="168" viewBox="0 0 168 168" fill="none" xmlns="http://www.w3.org/2000/svg">
<path d="M8 0.5H160C164.142 0.5 167.5 3.85786 167.5 8V160C167.5 164.142 164.142 167.5 160 167.5H8C3.85786 167.5 0.5 164.142 0.5 160V8C0.5 3.85786 3.85786 0.5 8 0.5Z" fill="white"/>
<path d="M8 0.5H160C164.142 0.5 167.5 3.85786 167.5 8V160C167.5 164.142 164.142 167.5 160 167.5H8C3.85786 167.5 0.5 164.142 0.5 160V8C0.5 3.85786 3.85786 0.5 8 0.5Z" stroke="#ECECEE"/>
<path d="M65.5938 81.7646H55.1533V86.5371H64.7783V90.9111H55.1309V100.292H50.2168V77.2266H65.5938V81.7646ZM71.7441 100.292H67.1309V84.915H71.7441V100.292ZM77.8955 100.292H73.2822V77.2266H77.8955V100.292ZM78.0039 90.3154C78.6833 85.4202 82.8574 82.6737 88.2441 83.5332C92.5634 84.2496 95.5482 88.692 94.6504 93.3008H82.6631C82.8572 94.8529 83.4885 95.999 84.9443 96.4766C86.3777 96.9467 87.8323 96.9761 88.9883 95.915L89.4131 95.4902C89.8736 95.0657 90.3249 94.9065 90.9619 94.9482C92.0539 94.996 93.1463 94.9482 94.2383 94.9482C93.9714 98.3392 89.7487 100.727 85.0654 100.226C80.261 99.7001 77.276 95.5451 78.0039 90.3154ZM114.801 100.292H110.188V84.915H114.801V100.292ZM120.588 86.0596C122.127 83.9038 123.905 83.1445 126.029 83.4385C128.197 83.7325 129.931 85.2018 130.062 87.6514C130.278 91.8403 130.126 96.0295 130.126 100.292H125.899V90.6406C125.899 88.6074 125.184 87.676 123.645 87.627C121.975 87.578 120.761 88.7299 120.696 90.6162C120.631 93.1393 120.675 95.6869 120.675 98.21V100.268H116.339V83.8057H120.436C120.501 84.467 120.545 85.1042 120.588 86.0596ZM93.2734 84.9258C94.6982 84.9258 96.038 84.8813 97.3564 84.9717C97.6329 84.9943 97.9942 85.4693 98.1006 85.8311C98.9938 88.7701 99.8446 91.7318 100.695 94.6709C100.78 94.9422 100.865 95.2139 101.078 95.8018C101.652 93.8347 102.142 92.1838 102.631 90.5107C103.099 88.9281 103.567 87.3454 103.992 85.7627C104.162 85.1524 104.418 84.9041 105.034 84.9492C106.183 84.9718 107.31 84.9492 108.65 84.9492C107.842 87.3457 107.098 89.5842 106.354 91.7998C105.503 94.3546 104.63 96.9091 103.801 99.4639C103.609 100.052 103.354 100.301 102.737 100.278C101.716 100.233 100.674 100.188 99.6533 100.278C98.6752 100.369 98.2282 100.029 97.9092 99.0117C96.548 94.7613 95.1019 90.556 93.6982 86.3281C93.5494 85.8985 93.4436 85.491 93.2734 84.9258ZM131.848 90.3252C132.618 85.3207 136.071 82.7472 140.998 83.5098C144.957 84.1056 147.553 88.228 147.025 93.2324H136.225C136.181 94.6861 136.863 95.9251 138.028 96.3779C139.37 96.9022 140.8 96.9981 141.834 95.8066C142.538 94.9964 143.242 94.8527 144.144 94.9004C144.913 94.948 145.727 94.9248 146.629 94.9248C145.903 98.69 141.965 100.954 137.83 100.12C133.607 99.2621 131.1 95.1867 131.848 90.3252ZM89.9189 90.1719C89.6034 87.9752 88.0018 86.71 85.9395 86.9248C83.9741 87.1158 82.7607 88.3811 82.8818 90.1719H89.9189ZM139.349 86.8701C137.501 86.8939 136.312 88.1087 136.202 90.1104H142.647C142.471 88.1089 141.174 86.8465 139.349 86.8701ZM34.0479 74.1514C37.3259 77.3981 40.7186 80.7364 44.0654 84.0518C43.3777 84.7148 42.6671 85.4239 41.8418 86.2471C39.3889 83.7319 36.7985 81.102 34.208 78.4268C31.5029 81.1935 28.9347 83.7778 26.3213 86.4531C25.4732 85.5386 24.7629 84.7838 24.0752 84.0293C27.3534 80.7595 30.7467 77.4212 34.0479 74.1514ZM34.1826 68C38.4127 72.2366 42.7997 76.63 47.1416 81.0234C46.4925 81.6735 45.7755 82.3912 44.9922 83.1758C41.4785 79.567 37.8755 75.8907 34.2051 72.125C30.3779 76.0253 26.774 79.6793 23.1035 83.3779C22.2978 82.5261 21.6043 81.7858 21 81.1582C25.3867 76.7872 29.8183 72.3711 34.1826 68ZM71.7441 81.8398H67.1309V77.2266H71.7441V81.8398ZM114.801 81.8398H110.188V77.2266H114.801V81.8398Z" fill="black"/>
</svg>
