<svg width="68" height="68" viewBox="0 0 68 68" fill="none" xmlns="http://www.w3.org/2000/svg">
<path d="M8 0.5H60C64.1421 0.5 67.5 3.85786 67.5 8V60C67.5 64.1421 64.1421 67.5 60 67.5H8C3.85786 67.5 0.5 64.1421 0.5 60V8C0.5 3.85786 3.85786 0.5 8 0.5Z" fill="white"/>
<path d="M8 0.5H60C64.1421 0.5 67.5 3.85786 67.5 8V60C67.5 64.1421 64.1421 67.5 60 67.5H8C3.85786 67.5 0.5 64.1421 0.5 60V8C0.5 3.85786 3.85786 0.5 8 0.5Z" stroke="#ECECEE"/>
<path d="M18.1405 27C18.1405 27.8885 18.1405 28.7771 18.1405 29.7179C17.5395 29.7179 17.0299 29.7179 16.5072 29.7179C15.3051 29.7179 14.9131 30.1752 15.0568 31.4427C17.1213 31.4427 19.1989 31.4427 21.3288 31.4427C21.3288 34.8269 21.3288 38.1328 21.3288 41.5432C20.388 41.5432 19.4733 41.5563 18.5456 41.5432C18.1013 41.5432 18.1928 41.1773 18.1928 40.916C18.1928 38.9299 18.1928 36.9568 18.1928 34.9707C18.1928 34.7355 18.1928 34.5003 18.1928 34.2128C17.1213 34.2128 16.1152 34.2128 15.0307 34.2128C15.0307 36.6301 15.0307 39.0344 15.0307 41.4909C13.9461 41.4909 12.94 41.4909 11.8555 41.4909C11.8555 39.0867 11.8555 36.6693 11.8555 34.1867C11.2021 34.1867 10.6272 34.1867 10.0131 34.1867C10 33.272 10 32.4096 10 31.4819C10.588 31.4819 11.1629 31.4819 11.7771 31.4819C11.8032 31.0768 11.8163 30.724 11.8424 30.3843C12.0123 28.6333 13.0053 27.5227 14.7171 27.1437C14.8608 27.1176 15.0045 27.0523 15.1483 27C16.1413 27 17.1475 27 18.1405 27Z" fill="#3E3F43"/>
<path d="M48.0761 34.1866C47.462 34.1866 46.9654 34.1474 46.4689 34.1997C45.5804 34.2781 45.0054 34.9706 44.9793 36.029C44.9401 37.6362 44.9401 39.2434 44.9662 40.8637C44.9793 41.3994 44.8356 41.6085 44.2737 41.5824C43.5812 41.5432 42.8886 41.5954 42.1961 41.5562C42.0393 41.5432 41.7518 41.321 41.7518 41.1904C41.7257 37.989 41.7257 34.8008 41.7257 31.5472C42.7972 31.5472 43.8294 31.5472 44.914 31.5472C44.927 31.9522 44.9532 32.3442 44.9793 32.9714C45.4889 32.0568 46.09 31.5341 46.9785 31.508C48.3897 31.4818 49.7878 31.4949 51.2644 31.4949C51.2905 31.9261 51.3166 32.3312 51.3558 32.9845C52.1268 31.4034 53.3681 31.4165 54.7009 31.4949C54.7009 32.3704 54.7009 33.2328 54.7009 34.1605C54.2174 34.1605 53.7601 34.1605 53.3158 34.1605C52.0614 34.1605 51.395 34.7354 51.3558 36.0029C51.3036 37.584 51.2905 39.1781 51.3297 40.7722C51.3428 41.4125 51.1468 41.6216 50.5196 41.5693C49.9316 41.517 49.3436 41.5301 48.7686 41.5693C48.2068 41.6085 48.0761 41.3733 48.0761 40.8506C48.1022 38.9168 48.0892 36.9829 48.0892 35.036C48.0761 34.7877 48.0761 34.5264 48.0761 34.1866Z" fill="#3E3F43"/>
<path d="M34.1343 37.2834C34.1996 38.2112 34.6439 38.773 35.3887 38.9952C36.3687 39.2826 37.1788 39.0213 37.8975 38.1328C38.786 38.381 39.7007 38.6424 40.6807 38.9298C39.962 40.524 38.7337 41.3602 37.1265 41.5954C34.9836 41.909 33.0759 41.4125 31.8345 39.4786C30.5801 37.5186 30.6063 35.4802 31.7823 33.4941C32.8668 31.6778 35.1535 30.933 37.4663 31.5472C39.5047 32.096 40.8505 33.8338 40.9159 36.0813C40.9551 37.584 40.9943 37.2834 39.7921 37.2965C37.9236 37.2965 36.0551 37.2834 34.1343 37.2834ZM34.1343 35.3496C35.3625 35.3496 36.5516 35.3496 37.7276 35.3496C37.6492 34.3173 36.9436 33.677 35.9244 33.677C34.8921 33.664 34.2388 34.265 34.1343 35.3496Z" fill="#3E3F43"/>
<path d="M21.6425 31.4819C22.6878 31.4819 23.6286 31.4557 24.5825 31.508C24.7393 31.5211 24.9353 31.8347 25.0006 32.0437C25.4971 33.6379 25.9545 35.2451 26.4379 36.8523C26.4771 36.9699 26.5163 37.0875 26.6339 37.4141C26.7646 37.0352 26.8299 36.8392 26.8953 36.6301C27.3395 35.1275 27.7969 33.6379 28.228 32.1352C28.3456 31.7171 28.5286 31.5341 28.9859 31.5603C29.8222 31.5995 30.6715 31.5733 31.5992 31.5733C31.5078 31.8608 31.4555 32.0699 31.3902 32.2659C30.3579 35.1536 29.3126 38.0283 28.2934 40.916C28.1235 41.3864 27.9144 41.6347 27.3656 41.5955C26.6731 41.5301 25.8107 41.7915 25.3403 41.4517C24.8699 41.1251 24.7654 40.2496 24.5302 39.5963C23.6286 37.1267 22.7531 34.6701 21.8777 32.2267C21.7993 32.0045 21.7339 31.7824 21.6425 31.4819Z" fill="#3E3F43"/>
<circle cx="56.844" cy="39.4788" r="2.156" fill="#16C074"/>
</svg>
