<svg width="68" height="68" viewBox="0 0 68 68" fill="none" xmlns="http://www.w3.org/2000/svg">
<path d="M8 0.5H60C64.1421 0.5 67.5 3.85786 67.5 8V60C67.5 64.1421 64.1421 67.5 60 67.5H8C3.85786 67.5 0.5 64.1421 0.5 60V8C0.5 3.85786 3.85786 0.5 8 0.5Z" fill="white"/>
<path d="M8 0.5H60C64.1421 0.5 67.5 3.85786 67.5 8V60C67.5 64.1421 64.1421 67.5 60 67.5H8C3.85786 67.5 0.5 64.1421 0.5 60V8C0.5 3.85786 3.85786 0.5 8 0.5Z" stroke="#ECECEE"/>
<path d="M7.69739 29.8231C9.68736 28.6741 11.7273 28.3993 13.8038 29.3485C15.8927 30.3102 16.869 32.0968 16.9308 34.3573C16.9802 36.0432 16.9435 37.7417 16.9435 39.4276C16.9434 40.2144 16.4608 40.7391 15.7687 40.7391C15.0768 40.7515 14.5823 40.2268 14.5822 39.4403C14.5698 37.7543 14.5952 36.0551 14.5704 34.369C14.5332 32.7332 13.4082 31.3975 11.9747 31.2225C9.98476 30.9728 8.32854 31.9091 7.87122 33.5702C7.77236 33.9448 7.75989 34.3442 7.75989 34.7313C7.74753 36.28 7.77191 37.8291 7.74719 39.3778C7.73472 40.3267 7.07995 40.901 6.25208 40.7264C5.64643 40.6015 5.31229 40.1641 5.29993 39.4022C5.28757 37.4416 5.28723 35.481 5.28723 33.5204V30.3602C5.28726 29.4738 5.57185 28.987 6.15247 28.8495C6.80746 28.6996 7.28954 28.9991 7.69739 29.8231ZM24.755 28.9364C28.0178 28.9491 30.5886 31.5344 30.6134 34.8563C30.6258 38.0161 27.9312 40.6766 24.7052 40.6766C21.3804 40.6766 18.8592 38.0538 18.8468 34.5819C18.8344 31.5096 21.5414 28.9239 24.755 28.9364ZM55.1115 28.9364C58.6585 28.512 61.6738 31.1847 61.7111 34.7938C61.7234 36.28 61.699 37.7666 61.6866 39.2528C61.6743 40.1894 61.13 40.7267 60.339 40.6268C59.7459 40.5393 59.4616 40.1393 59.3009 39.5399C57.5087 40.7013 55.6545 40.9762 53.714 40.2518C51.1558 39.2776 49.6607 36.73 49.9943 33.9452C50.3033 31.3724 52.454 29.2611 55.1115 28.9364ZM35.5333 27.3378C36.3364 27.2381 36.8923 27.7128 36.9171 28.5243C36.9542 29.1612 36.9415 29.786 36.9415 30.4979C37.4605 30.4979 37.9058 30.4854 38.3507 30.4979C39.1047 30.5229 39.5255 30.9225 39.5255 31.5594C39.5255 32.1964 39.0923 32.6087 38.3507 32.6337C37.9059 32.6461 37.4611 32.6337 36.9669 32.6337C36.9669 34.2447 36.9172 35.7811 36.9913 37.3173C37.0285 38.0914 37.523 38.428 38.3263 38.453C39.0925 38.478 39.5625 38.878 39.5626 39.5272C39.575 40.2266 39.117 40.627 38.3136 40.6395C35.9902 40.6769 34.594 39.3153 34.5568 36.9677C34.5444 35.5564 34.5568 34.1323 34.5568 32.6337C34.0255 32.6337 33.5556 32.6586 33.0861 32.6337C32.4063 32.5962 31.9851 32.1712 31.9728 31.5468C31.9729 30.9724 32.3811 30.5358 33.0236 30.4608C34.1607 30.3109 34.5317 29.8984 34.5441 28.7245C34.5564 27.8627 34.8782 27.4127 35.5333 27.3378ZM44.9386 27.2382C45.6926 27.5254 46.0024 28.0629 45.9406 28.8622C45.9035 29.374 45.9278 29.8858 45.9279 30.4725C46.4345 30.4725 46.8794 30.4601 47.3243 30.4725C48.0783 30.4975 48.5476 30.9354 48.5353 31.5848C48.5227 32.2215 48.0781 32.5958 47.3243 32.6083C46.8794 32.6208 46.4343 32.6083 45.9523 32.6083C45.9523 34.1944 45.9279 35.6938 45.965 37.205C45.9776 37.8916 46.5334 38.5279 47.3488 38.4657C48.1274 38.4157 48.5606 38.8655 48.5607 39.5399C48.5607 40.2268 48.1649 40.5894 47.3615 40.6268C45.1367 40.7392 43.6287 39.3524 43.5792 37.1044C43.5422 35.6432 43.5665 34.1816 43.5665 32.5956C43.0971 32.5956 42.677 32.6081 42.257 32.5956C41.4659 32.5831 41.0086 32.1962 40.9962 31.5468C40.9839 30.9224 41.4041 30.523 42.1456 30.4481C43.0726 30.3482 43.5792 29.8234 43.5421 28.8368C43.5174 28.025 43.8022 27.4879 44.5685 27.2382H44.9386ZM24.7296 31.3094C22.7892 31.3096 21.2316 32.8462 21.2316 34.7694C21.2317 36.7176 22.7527 38.2659 24.6808 38.2909C26.6088 38.3032 28.2156 36.7421 28.2404 34.8563C28.2526 32.9081 26.6701 31.3094 24.7296 31.3094ZM55.8527 31.2343C53.9368 31.2218 52.3543 32.7836 52.3419 34.7069C52.342 36.68 53.8378 38.2411 55.7657 38.2538C57.7186 38.2663 59.338 36.68 59.338 34.7567C59.338 32.8334 57.7561 31.2467 55.8527 31.2343Z" fill="black"/>
</svg>
