<svg width="168" height="168" viewBox="0 0 168 168" fill="none" xmlns="http://www.w3.org/2000/svg">
<path d="M8 0.5H160C164.142 0.5 167.5 3.85786 167.5 8V160C167.5 164.142 164.142 167.5 160 167.5H8C3.85786 167.5 0.5 164.142 0.5 160V8C0.5 3.85786 3.85786 0.5 8 0.5Z" stroke="#ECECEE"/>
<path d="M71.6566 70.9249V64.9028C72.2514 64.8657 72.8462 64.8285 73.4409 64.8285C89.9459 64.3081 100.763 79.0287 100.763 79.0287C100.763 79.0287 89.0909 95.2363 76.5635 95.2363C74.8907 95.2363 73.2551 94.9761 71.6938 94.4557V76.1664C78.1248 76.947 79.4258 79.7722 83.2547 86.2032L91.8417 78.9915C91.8417 78.9915 85.5594 70.7762 75.0022 70.7762C73.887 70.739 72.7718 70.8134 71.6566 70.9249ZM71.6566 51V59.996L73.4409 59.8844C96.3769 59.1038 111.358 78.6941 111.358 78.6941C111.358 78.6941 94.1837 99.5856 76.3033 99.5856C74.742 99.5856 73.2179 99.4369 71.6938 99.1767V104.753C72.9577 104.901 74.2587 105.013 75.5226 105.013C92.1763 105.013 104.22 96.5002 115.893 86.4634C117.826 88.0247 125.744 91.7792 127.379 93.4148C116.302 102.708 90.4663 110.18 75.82 110.18C74.4074 110.18 73.0692 110.106 71.731 109.957V117.801H135V51H71.6566ZM71.6566 94.4557V99.2138C56.2668 96.463 51.9919 80.4413 51.9919 80.4413C51.9919 80.4413 59.3894 72.2632 71.6566 70.9249V76.1292H71.6194C65.1884 75.3485 60.1329 81.3706 60.1329 81.3706C60.1329 81.3706 62.9952 91.519 71.6566 94.4557ZM44.3342 79.7722C44.3342 79.7722 53.4417 66.3154 71.6938 64.9028V59.996C51.4715 61.6316 34 78.7313 34 78.7313C34 78.7313 43.8881 107.355 71.6566 109.957V104.753C51.2856 102.225 44.3342 79.7722 44.3342 79.7722Z" fill="#76B900"/>
</svg>
