<svg width="168" height="68" viewBox="0 0 168 68" fill="none" xmlns="http://www.w3.org/2000/svg">
<path d="M8 0.5H160C164.142 0.5 167.5 3.85786 167.5 8V60C167.5 64.1421 164.142 67.5 160 67.5H8C3.85786 67.5 0.5 64.1421 0.5 60V8C0.5 3.85786 3.85786 0.5 8 0.5Z" fill="white"/>
<path d="M8 0.5H160C164.142 0.5 167.5 3.85786 167.5 8V60C167.5 64.1421 164.142 67.5 160 67.5H8C3.85786 67.5 0.5 64.1421 0.5 60V8C0.5 3.85786 3.85786 0.5 8 0.5Z" stroke="#ECECEE"/>
<g clip-path="url(#clip0_1682_2361)">
<path d="M143.134 49.738C139.854 49.8953 137.09 48.7071 134.647 46.6803C134.326 46.4183 134.005 46.1387 133.792 45.8067C133.649 45.5796 133.685 45.2476 133.649 44.968C133.988 45.003 134.416 44.9156 134.665 45.0729C135.753 45.7892 136.716 46.7502 137.874 47.3268C140.977 48.8644 144.15 49.1439 147.485 47.7811C149.945 46.7852 151.853 45.3 153.208 43.0985C157.416 36.2144 153.957 27.2685 145.684 25.4339C141.226 24.438 136.858 25.8532 133.809 29.8195C133.488 30.2388 133.132 31.06 132.454 30.5184C131.795 30.0117 132.508 29.47 132.829 29.0507C136.216 24.7699 141.423 22.9877 146.736 24.4904C151.122 25.7309 154.135 28.5789 155.561 32.9645C156.364 35.3932 156.471 37.8393 155.793 40.2505C154.616 44.3915 151.995 47.3967 147.877 48.9518C146.397 49.5109 144.757 49.6681 143.205 50.0001C143.17 49.9127 143.152 49.8254 143.134 49.738Z" fill="#FA6A40"/>
<path d="M18.0962 42.9763C13.3892 43.151 10.9823 39.7264 11.0001 35.8475C11.0179 31.8114 13.7458 28.6314 17.9714 28.614C22.4823 28.5965 25.0497 31.8638 25.1032 35.8126C25.1745 39.5342 22.5179 43.2034 18.0962 42.9763ZM17.9001 29.6099C16.0637 29.4701 14.9404 30.5185 14.2985 31.5493C12.89 33.8207 12.8365 36.2319 13.7815 38.6606C14.4234 40.2855 15.3505 41.596 17.2939 41.9978C18.6133 42.2774 20.3071 41.893 21.252 40.8796C22.4644 39.5692 22.9102 37.9442 22.9637 36.2844C22.9993 35.1661 22.6071 34.0304 22.3218 32.9296C21.8226 31.0252 19.8792 29.6099 17.9001 29.6099Z" fill="black"/>
<path d="M29.703 42.6264C29.703 44.0417 29.703 45.422 29.703 46.8547C29.9882 46.8722 30.2735 46.8547 30.5053 46.9246C30.6658 46.977 30.7906 47.1518 30.9154 47.2741C30.7727 47.3964 30.6479 47.641 30.5053 47.641C29.2394 47.6759 27.9735 47.6585 26.458 47.6585C26.7433 47.2915 26.8859 47.1168 27.0107 46.9421C27.2782 46.5926 27.7417 46.2607 27.7417 45.8937C27.7952 42.0498 27.7774 38.2059 27.7774 34.3794C27.7774 34.2921 27.7061 34.2222 27.6882 34.1523C27.6348 34.1173 27.5813 34.0999 27.5278 34.0649C27.189 33.9426 26.8503 33.8028 26.4937 33.6805C26.8324 33.5408 27.1534 33.366 27.4921 33.2612C27.8487 33.1389 28.2766 33.1214 28.5975 32.9292C29.4177 32.4225 29.703 32.737 29.6851 33.5233C30.541 33.2088 31.3433 32.7545 32.2169 32.6147C34.6596 32.2128 36.9417 34.2921 36.9952 36.6159C37.0309 38.1884 37.0131 39.691 35.9968 41.0364C34.7487 42.6963 32.4487 43.5175 30.2379 42.6439C30.1309 42.5915 29.9348 42.6264 29.703 42.6264ZM34.927 38.3282C34.7487 36.1966 34.6596 34.6066 32.8588 33.8203C31.4859 33.2262 29.6851 34.2746 29.6851 35.7248C29.6851 37.4196 29.6673 39.097 29.703 40.7918C29.703 41.1063 29.9169 41.5256 30.1665 41.7178C31.4503 42.6264 33.358 42.277 34.1068 40.8966C34.5882 39.9357 34.7665 38.8524 34.927 38.3282Z" fill="black"/>
<path d="M99.1662 41.6131C99.7724 41.8751 100.503 42.0848 100.486 42.1896C100.379 42.9584 99.7189 42.5216 99.2732 42.609C98.8988 42.6789 98.4887 42.6789 98.1143 42.609C97.7934 42.5566 97.4903 42.3818 96.9375 42.1547C96.2244 42.6439 95.1903 42.9934 93.96 42.9934C91.9453 43.0108 90.3763 41.3859 90.1267 39.8658C89.8058 37.9613 89.6988 36.0044 91.1251 34.3445C92.3375 32.9293 94.5306 32.0906 96.4205 32.807C97.0445 33.0341 97.3298 32.9293 97.3298 32.2478C97.3298 31.3218 97.3298 30.3958 97.3298 29.3824C96.8662 29.3474 96.474 29.295 95.9213 29.2601C96.0104 29.0154 96.0461 28.631 96.1887 28.5961C97.1337 28.3165 98.0965 28.1069 99.1662 27.8448C99.1662 32.5449 99.1662 37.1576 99.1662 41.6131ZM97.3298 37.5245C97.3298 36.6509 97.312 35.7773 97.3476 34.9036C97.3833 34.0475 96.9197 33.698 96.1352 33.6282C95.6717 33.5932 95.1903 33.5757 94.7089 33.5932C93.7282 33.6456 92.8368 34.2746 92.6228 35.2181C92.391 36.2665 92.3375 37.3673 92.2127 38.4331C92.1058 39.3766 92.5158 40.1628 92.9972 40.9142C93.4786 41.6829 94.798 42.0848 95.7251 41.8227C96.7771 41.5082 97.3298 40.7918 97.3298 39.6736C97.3298 38.9747 97.3298 38.2583 97.3298 37.5245Z" fill="black"/>
<path d="M63.3118 29.959C62.9373 29.959 62.6521 30.0289 62.4203 29.9415C62.2063 29.8542 62.0815 29.5746 61.9211 29.3824C62.0994 29.2426 62.2776 28.9805 62.4559 28.9631C63.7397 28.9281 65.0056 28.9456 66.2893 28.9456C68.0722 28.9456 69.8373 28.9456 71.7451 28.9456C71.7451 30.0464 71.7629 31.0423 71.7273 32.0557C71.7273 32.1955 71.5133 32.3352 71.4063 32.4575C71.2815 32.3352 71.0497 32.2129 71.0497 32.0906C70.9784 31.252 70.7645 30.4307 69.9621 30.0638C68.6249 29.4698 67.1807 29.3999 65.8614 30.0813C65.5048 30.256 65.273 30.9374 65.2373 31.4092C65.1482 32.5624 65.2017 33.733 65.2017 34.9736C66.3784 34.9736 67.5195 34.9736 68.7854 34.9736C68.7854 34.6591 68.7497 34.3271 68.8032 33.9951C68.8389 33.8204 69.0528 33.6981 69.1955 33.5408C69.3381 33.6806 69.6056 33.8204 69.6234 33.9776C69.659 35.026 69.659 36.0743 69.6234 37.1227C69.6234 37.2625 69.4273 37.4022 69.3203 37.542C69.1598 37.4197 68.8924 37.2799 68.8745 37.1576C68.8389 36.1268 68.1079 36.0569 67.3234 36.0219C65.1838 35.9171 65.1838 35.9171 65.1838 37.9439C65.1838 39.132 65.1838 40.3376 65.1838 41.5257C65.1838 41.5781 65.2017 41.648 65.2373 41.8402C66.9846 41.8053 68.7854 42.1897 70.4792 41.4558C71.2637 41.1064 71.549 40.2677 71.7094 39.429C71.7451 39.2194 71.9234 39.0446 72.0482 38.835C72.173 39.0446 72.4048 39.2718 72.4226 39.4815C72.4583 40.3201 72.4583 41.1763 72.3869 42.015C72.3691 42.2246 72.0304 42.5741 71.8521 42.5741C68.6249 42.5915 65.38 42.5741 62.1528 42.5566C62.0993 42.5566 62.0459 42.5042 61.8319 42.4168C62.028 42.2072 62.1885 41.9276 62.3668 41.8927C63.0443 41.7878 63.2939 41.3335 63.2939 40.8094C63.3296 37.245 63.3118 33.6806 63.3118 29.959Z" fill="black"/>
<path d="M115.89 41.8229C116.104 41.8404 116.353 41.8229 116.567 41.8928C116.746 41.9452 116.888 42.1199 117.049 42.2422C116.888 42.3645 116.728 42.6092 116.567 42.6092C115.319 42.6441 114.071 42.6266 112.663 42.4344C112.823 42.2597 113.001 42.085 113.162 41.9103C113.394 41.6482 113.768 41.3686 113.786 41.1065C113.839 38.8701 113.839 36.6336 113.839 34.3797C113.839 34.2923 113.768 34.2224 113.732 34.1001C113.429 34.0826 113.108 34.0651 112.484 34.0127C112.77 33.6808 112.894 33.3663 113.108 33.2964C113.857 33.0692 114.642 32.9294 115.498 32.7372C115.462 32.7198 115.569 32.7547 115.587 32.8246C115.747 33.7157 116.122 33.6458 116.817 33.2439C117.958 32.58 119.153 32.3004 120.508 32.8596C121.684 33.3663 122.166 34.2573 122.201 35.3581C122.273 37.4723 122.219 39.6039 122.219 41.8054C122.54 41.8404 122.808 41.8229 123.057 41.8928C123.271 41.9627 123.449 42.1199 123.646 42.2248C123.467 42.3645 123.289 42.6092 123.093 42.6092C121.881 42.6441 120.668 42.6266 119.277 42.4344C119.438 42.2597 119.598 42.085 119.741 41.8928C119.973 41.5783 120.365 41.2463 120.383 40.9143C120.454 39.2545 120.436 37.5946 120.401 35.9347C120.365 34.8514 119.705 34.0127 118.814 33.7157C118.243 33.5235 116.585 34.1176 116.193 34.6417C116.032 34.8514 115.925 35.1659 115.925 35.428C115.872 37.5247 115.89 39.6039 115.89 41.8229Z" fill="black"/>
<path d="M52.6847 41.5784C53.2017 41.8929 53.5405 42.0851 53.8614 42.2773C53.487 42.3996 53.1126 42.5918 52.7203 42.6093C51.704 42.6617 50.6699 42.6268 49.4219 42.6268C49.7071 42.2424 49.8141 41.9628 49.9568 41.9279C50.6521 41.8231 50.7769 41.229 50.7947 40.7922C50.8661 38.5907 50.8304 36.3717 50.8304 34.0828C50.4738 34.0653 50.1529 34.0828 49.8498 34.0304C49.6893 33.9954 49.5823 33.8207 49.4397 33.6984C49.5823 33.5586 49.6893 33.3315 49.8498 33.279C50.5451 33.0694 51.2583 32.8248 51.9715 32.7723C52.2924 32.7549 52.6312 33.1917 53.0234 33.4712C53.6653 33.2266 54.4676 32.7199 55.3413 32.5976C57.8017 32.2482 59.0498 33.5935 59.2281 36.0397C59.3529 37.6646 59.2637 39.2896 59.2637 40.932C59.2637 41.2115 59.2637 41.4911 59.2637 41.8056C59.6738 41.8405 59.9947 41.858 60.6188 41.9104C60.3335 42.2424 60.173 42.5744 60.0126 42.5744C58.7467 42.6093 57.4808 42.5918 56.0188 42.5918C56.2684 42.2424 56.3575 41.9454 56.5002 41.9279C57.356 41.7532 57.3738 41.0368 57.4095 40.4602C57.4986 39.2197 57.5878 37.9442 57.3916 36.7211C57.2312 35.6728 57.249 34.4147 55.9296 33.8382C54.6102 33.2441 52.7025 34.3449 52.7025 35.7427C52.6847 37.752 52.6847 39.7613 52.6847 41.5784Z" fill="black"/>
<path d="M137.784 37.2102C137.445 39.1147 138.23 40.9843 139.727 41.6657C141.1 42.2947 142.33 41.753 143.489 41.0367C143.792 40.8445 144.149 40.7222 144.488 40.5824C144.327 40.9318 144.256 41.3686 143.988 41.6307C142.544 43.046 140.672 43.378 138.854 42.8363C136.304 42.085 135.519 40.1106 135.412 38.1537C135.288 35.7251 136.589 33.4711 139.264 32.7023C141.671 32.0209 144.185 33.3139 144.577 35.9871C144.684 36.7035 144.434 37.0005 143.685 37.0005C142.027 37.018 140.369 37.0879 138.693 37.1403C138.39 37.1578 138.087 37.1927 137.784 37.2102ZM142.562 36.0745C142.437 34.2748 141.849 33.5585 140.547 33.5235C139.05 33.4711 137.837 34.4845 137.926 36.0745C139.442 36.0745 140.975 36.0745 142.562 36.0745Z" fill="black"/>
<path d="M38.5998 37.9088C38.4928 34.9211 41.292 32.2478 44.2161 32.5623C46.4091 32.8069 47.6037 34.2222 47.9246 36.214C48.0316 36.9304 47.5145 36.9479 47.0331 36.9653C45.3393 37.0352 43.6455 37.1226 41.9695 37.1051C41.1672 37.1051 40.9354 37.3672 41.0246 38.1185C41.1494 39.4115 41.4168 40.6695 42.5757 41.4557C43.6812 42.2071 45.4998 41.9275 46.8013 40.984C47.0866 40.7743 47.4788 40.7044 47.8176 40.5821C47.6393 40.9316 47.5502 41.3684 47.2827 41.613C44.9292 43.832 40.2757 43.4476 39.1347 39.9706C38.885 39.3066 38.7602 38.6077 38.5998 37.9088ZM41.1316 36.0742C42.6649 36.0742 44.1804 36.0742 45.6959 36.0742C45.8564 34.4668 45.2502 33.6281 43.913 33.5407C42.3083 33.4359 41.2207 34.4144 41.1316 36.0742Z" fill="black"/>
<path d="M111.022 40.6172C110.861 40.9317 110.754 41.3161 110.523 41.5607C109.007 43.0983 106.101 43.4303 104.211 42.3994C102.285 41.3511 101.465 38.2585 101.964 36.5636C102.553 34.6417 103.694 33.3138 105.619 32.7197C108.08 31.9684 110.861 33.506 110.986 36.1443C111.022 36.7733 110.754 36.9655 110.184 36.983C108.437 37.0354 106.689 37.0878 104.942 37.1402C104.033 37.1752 103.89 37.3499 104.104 38.1886C104.282 38.9049 104.443 39.6388 104.728 40.3202C105.441 42.015 107.224 42.1373 108.544 41.7005C109.168 41.4908 109.72 41.0191 110.309 40.6696C110.469 40.5823 110.665 40.5124 110.844 40.4425C110.879 40.5124 110.95 40.5648 111.022 40.6172ZM108.918 36.0744C109.061 34.5718 108.258 33.5584 106.939 33.5234C105.334 33.4885 104.3 34.4844 104.371 36.0744C105.887 36.0744 107.402 36.0744 108.918 36.0744Z" fill="black"/>
<path d="M129.797 42.976C127.675 43.0633 126.195 42.0674 125.357 40.3551C124.484 38.6079 124.68 36.7558 125.732 35.0959C126.89 33.2788 128.602 32.3702 130.813 32.5974C132.061 32.7197 133.077 33.2613 133.755 34.3621C134.147 34.9911 133.951 35.5502 133.487 35.8996C133.22 36.1093 132.525 36.1617 132.275 35.9695C131.918 35.69 131.544 35.2007 132.025 34.6067C132.115 34.4844 131.865 33.8903 131.615 33.7331C130.617 33.1041 128.745 33.4535 128.032 34.432C127.122 35.6725 126.784 37.0703 127.229 38.5729C127.408 39.167 127.497 39.8309 127.818 40.3376C129.03 42.2072 131.045 42.347 132.846 40.9666C132.953 40.8793 133.042 40.757 133.166 40.7046C133.38 40.6172 133.612 40.5648 133.826 40.5124C133.773 40.757 133.791 41.0715 133.648 41.2287C132.667 42.4518 131.366 43.0808 129.797 42.976Z" fill="black"/>
<path d="M83.281 32.9292C83.2454 33.2088 83.2632 33.4185 83.1919 33.4709C81.7655 34.2921 81.5872 35.8296 80.9989 37.1051C80.25 38.765 79.6795 40.5123 78.9841 42.2071C78.895 42.4167 78.5562 42.6788 78.3423 42.6788C78.0927 42.6788 77.7004 42.4866 77.5934 42.277C76.488 39.9007 75.4004 37.5245 74.3663 35.1308C74.1167 34.5367 74.2058 33.7854 73.3322 33.5932C73.2787 33.5757 73.1896 33.3136 73.2431 33.2263C73.3144 33.104 73.4927 32.9642 73.6175 32.9467C74.7051 32.9292 75.7927 32.9292 76.9159 32.9292C76.9338 33.1214 76.9872 33.2961 76.9338 33.3311C75.5787 34.3969 76.6307 35.4627 76.9694 36.4761C77.326 37.5419 77.8609 38.5553 78.3245 39.5862C78.3779 39.726 78.5206 39.8483 78.6454 39.9007C78.7167 39.9182 78.9128 39.7959 78.9485 39.6911C79.6617 37.7691 80.3748 35.8296 81.0702 33.8902C80.9989 33.8203 80.9454 33.7854 80.9097 33.7504C80.6245 33.5932 80.3392 33.4359 80.0539 33.2787C80.357 33.1564 80.6601 32.9467 80.981 32.9292C81.7299 32.8943 82.4431 32.9292 83.281 32.9292Z" fill="black"/>
<path d="M85.259 34.1351C84.742 33.9254 83.9575 34.3273 84.1893 33.4012C85.0986 33.1741 86.0079 32.947 87.0955 32.6849C87.1668 32.9994 87.3272 33.4012 87.3272 33.7856C87.3451 36.424 87.3451 39.0623 87.3451 41.8229C87.5055 41.8404 87.7908 41.8055 88.0582 41.8928C88.2365 41.9453 88.3613 42.1375 88.5218 42.2598C88.3613 42.3821 88.2009 42.6092 88.0404 42.6092C86.7924 42.6441 85.5621 42.6267 84.1536 42.417C84.3141 42.2423 84.4924 42.0676 84.6528 41.8928C84.8668 41.6832 85.2412 41.4735 85.2412 41.2638C85.2768 38.8876 85.259 36.5113 85.259 34.1351Z" fill="black"/>
<path d="M86.1158 30.7454C85.3848 30.7803 85.2065 30.1862 85.1352 29.5572C85.0639 28.9632 85.7236 28.2818 86.2585 28.2643C86.7577 28.2643 87.453 29.0505 87.4352 29.5747C87.4174 30.2037 86.8468 30.7454 86.1158 30.7454Z" fill="black"/>
</g>
<defs>
<clipPath id="clip0_1682_2361">
<rect width="146" height="32" fill="white" transform="translate(11 18)"/>
</clipPath>
</defs>
</svg>
