<svg width="168" height="68" viewBox="0 0 168 68" fill="none" xmlns="http://www.w3.org/2000/svg">
<path d="M8 0.5H160C164.142 0.5 167.5 3.85786 167.5 8V60C167.5 64.1421 164.142 67.5 160 67.5H8C3.85786 67.5 0.5 64.1421 0.5 60V8C0.5 3.85786 3.85786 0.5 8 0.5Z" fill="white"/>
<path d="M8 0.5H160C164.142 0.5 167.5 3.85786 167.5 8V60C167.5 64.1421 164.142 67.5 160 67.5H8C3.85786 67.5 0.5 64.1421 0.5 60V8C0.5 3.85786 3.85786 0.5 8 0.5Z" stroke="#ECECEE"/>
<g clip-path="url(#clip0_1682_2340)">
<path d="M101.417 41.8972C101.417 41.2667 101.417 40.6973 101.417 40.0566C104.671 40.0566 107.915 40.0566 111.199 40.0566C111.199 36.3959 111.199 32.7962 111.199 29.1558C108.61 29.1558 106.03 29.1558 103.391 29.1558C103.391 31.7183 103.391 34.2605 103.391 36.8535C102.716 36.8535 102.101 36.8535 101.437 36.8535C101.437 33.6605 101.437 30.4777 101.437 27.2441C101.595 27.2339 101.754 27.2238 101.913 27.2238C104.542 27.2238 107.171 27.2136 109.8 27.2238C111.874 27.2238 113.253 28.6372 113.263 30.7523C113.273 33.3046 113.273 35.8671 113.263 38.4195C113.253 40.443 111.923 41.8972 109.979 41.9277C107.221 41.9683 104.463 41.9378 101.705 41.9378C101.625 41.9277 101.546 41.9073 101.417 41.8972Z" fill="black"/>
<path d="M23.0537 41.9073C22.3393 41.9073 21.7143 41.9073 21 41.9073C21 41.3785 21 40.8701 21 40.3515C21 37.128 21 33.9147 21.0099 30.6913C21.0099 28.5355 22.4088 27.1322 24.5021 27.1424C26.2483 27.1526 28.0142 27.0814 29.7504 27.2034C31.7545 27.3458 33.2625 28.8202 33.699 30.8336C34.2446 33.3656 32.816 35.8468 30.4349 36.4976C30.1373 36.5789 29.8198 36.6501 29.5123 36.6603C27.9745 36.7111 26.4368 36.7314 24.899 36.762C24.8196 36.762 24.7402 36.7416 24.5815 36.7314C24.5815 36.1112 24.5617 35.4909 24.6014 34.8706C24.6113 34.7892 24.899 34.6672 25.0577 34.6672C27.0419 34.657 29.0262 34.657 31.0104 34.657C31.179 34.657 31.3378 34.657 31.5461 34.657C31.5461 32.8673 31.5461 31.098 31.5461 29.2778C28.7484 29.2778 25.9308 29.2778 23.0636 29.2778C23.0537 33.4673 23.0537 37.667 23.0537 41.9073Z" fill="black"/>
<path d="M91.0079 39.8125C91.0079 35.5925 91.0079 31.403 91.0079 27.1729C91.6825 27.1729 92.2977 27.1729 92.9624 27.1729C92.9723 27.3457 92.9921 27.5084 92.9921 27.6711C92.9921 31.2607 92.9921 34.8502 92.9921 38.4397C92.9921 40.4328 91.6032 41.8869 89.6686 41.9073C87.8729 41.9276 86.0672 41.9276 84.2616 41.9073C82.4659 41.8869 80.9975 40.443 80.9876 38.6431C80.9678 34.901 80.9777 31.159 80.9777 27.4169C80.9777 27.3457 80.9876 27.2847 81.0075 27.1729C81.6424 27.1729 82.2774 27.1729 82.9619 27.1729C82.9619 31.3827 82.9619 35.5722 82.9619 39.7922C85.6406 39.8125 88.2796 39.8125 91.0079 39.8125Z" fill="black"/>
<path d="M143.277 41.9899C142.603 41.9899 142.007 42.0102 141.422 41.9696C141.273 41.9594 141.084 41.7865 141.015 41.6441C140.578 40.678 140.152 39.7018 139.755 38.7153C139.626 38.4102 139.487 38.2882 139.14 38.2882C136.927 38.3086 134.705 38.3086 132.492 38.2882C132.185 38.2882 132.066 38.4102 131.956 38.6747C131.559 39.6611 131.123 40.6272 130.726 41.6136C130.617 41.8882 130.478 42.0102 130.18 41.9899C129.635 41.9696 129.089 41.9797 128.484 41.9797C128.553 41.7865 128.593 41.6441 128.652 41.5119C130.468 37.373 132.284 33.2441 134.09 29.1052C134.318 28.5967 134.546 28.0882 134.744 27.5696C134.854 27.3052 134.983 27.1831 135.29 27.1831C136.858 27.1628 136.838 27.1628 137.483 28.6374C139.328 32.8882 141.194 37.1289 143.049 41.3797C143.099 41.5628 143.168 41.7357 143.277 41.9899ZM135.816 29.6136C134.824 31.9526 133.891 34.1492 132.949 36.3763C134.913 36.3763 136.798 36.3763 138.733 36.3763C137.761 34.1289 136.818 31.9323 135.816 29.6136Z" fill="black"/>
<path d="M59.7747 41.9187C60.0823 40.6881 60.37 39.5492 60.6578 38.4C61.3126 35.8678 61.9675 33.3356 62.6322 30.7932C63.3863 27.8949 65.8271 26.3797 68.5357 27.2136C70.2423 27.7424 71.1849 29.0543 71.6314 30.7526C72.5541 34.2814 73.457 37.8204 74.3599 41.3492C74.3996 41.5119 74.4293 41.6644 74.4789 41.9085C73.8439 41.9085 73.2685 41.9288 72.7029 41.8983C72.6037 41.8881 72.4549 41.7051 72.4152 41.5729C71.6413 38.6543 70.8773 35.7254 70.1133 32.7966C69.8256 31.6881 69.5378 30.5797 69.2501 29.4509C67.8412 29.4509 66.4521 29.4509 65.0234 29.4509C64.6563 30.8543 64.2793 32.2475 63.9221 33.6509C63.2474 36.2543 62.5727 38.8475 61.9079 41.4509C61.8186 41.817 61.6599 41.939 61.3027 41.9085C60.8264 41.8983 60.3502 41.9187 59.7747 41.9187Z" fill="black"/>
<path d="M43.7804 27.1525C43.7804 31.4234 43.7804 35.6027 43.7804 39.8329C47.2131 39.8329 50.6061 39.8329 54.0686 39.8329C53.89 40.565 53.7214 41.226 53.5428 41.9276C52.263 41.9276 51.0129 41.9276 49.7628 41.9276C48.2449 41.9276 46.727 41.9276 45.1991 41.9276C43.1852 41.9276 41.7466 40.565 41.7268 38.5008C41.6871 34.84 41.7069 31.1895 41.7268 27.5288C41.7268 27.3966 41.8855 27.1729 41.9847 27.1627C42.5601 27.1322 43.1356 27.1525 43.7804 27.1525Z" fill="black"/>
<path d="M146.095 27.2238C146.74 27.2238 147.345 27.2238 147.99 27.2238C147.99 32.1251 147.99 37.0264 147.99 41.9582C147.365 41.9582 146.74 41.9582 146.095 41.9582C146.095 37.0569 146.095 32.1759 146.095 27.2238Z" fill="black"/>
<path d="M120.923 39.1017C121.677 39.0915 122.272 39.7016 122.272 40.4745C122.272 41.2066 121.667 41.8371 120.953 41.8472C120.248 41.8574 119.614 41.2269 119.594 40.505C119.564 39.7627 120.189 39.1119 120.923 39.1017Z" fill="black"/>
</g>
<defs>
<clipPath id="clip0_1682_2340">
<rect width="127" height="15" fill="white" transform="translate(21 27)"/>
</clipPath>
</defs>
</svg>
