<svg width="168" height="68" viewBox="0 0 168 68" fill="none" xmlns="http://www.w3.org/2000/svg">
<path d="M8 0.5H160C164.142 0.5 167.5 3.85786 167.5 8V60C167.5 64.1421 164.142 67.5 160 67.5H8C3.85786 67.5 0.5 64.1421 0.5 60V8C0.5 3.85786 3.85786 0.5 8 0.5Z" stroke="#ECECEE"/>
<path d="M142.489 46.6302C141.35 46.6302 140.211 46.6302 138.979 46.6302C138.979 45.8189 138.979 45.0701 138.979 44.2589C138.825 44.3213 138.733 44.3213 138.702 44.3525C136.516 46.8174 133.745 47.4726 130.666 46.6302C127.464 45.7565 125.586 43.4164 124.939 40.1714C124.262 36.8641 124.693 33.7127 127.187 31.1542C130.204 28.034 135.285 27.9404 138.425 30.9358C138.548 31.0606 138.671 31.1854 138.979 31.4662C138.979 29.9373 138.979 28.5644 138.979 27.2228C138.979 25.8499 138.979 24.477 138.979 23.0417C140.149 23.0417 141.289 23.0417 142.52 23.0417C142.489 30.9046 142.489 38.7362 142.489 46.6302ZM128.264 37.8313C128.357 38.4554 128.388 39.0794 128.542 39.6722C129.065 41.9187 130.912 43.6036 132.975 43.822C135.254 44.0716 137.317 42.9484 138.302 40.8267C139.164 38.9234 139.195 36.9577 138.333 35.0544C137.532 33.2759 136.147 32.1838 134.207 31.9966C130.82 31.6534 128.326 34.1183 128.264 37.8313Z" fill="#475467"/>
<path d="M81.8328 46.6343C80.3732 46.6343 79.0689 46.6655 77.7646 46.6031C77.5783 46.6031 77.3609 46.26 77.2056 46.0416C75.715 43.4838 74.2554 40.9571 72.7958 38.3993C72.5163 37.9002 72.2058 37.713 71.6468 37.7442C70.9946 37.8066 70.3735 37.7442 69.6282 37.7442C69.6282 40.7388 69.6282 43.6397 69.6282 46.6343C68.4792 46.6343 67.4233 46.6655 66.3985 46.6031C66.2432 46.6031 66.0258 46.2912 66.0258 46.104C65.9637 45.4489 65.9948 44.7627 65.9948 44.0764C65.9948 37.8066 65.9948 31.5679 65.9948 25.2981C65.9948 24.5807 66.1811 24.3623 66.8954 24.3935C69.6593 24.4559 72.4232 24.3935 75.187 24.5183C78.1683 24.6742 80.4974 26.5458 81.2738 29.1349C82.2986 32.5973 80.4974 36.0286 77.0814 37.1827C76.8951 37.2451 76.7087 37.3075 76.3982 37.4323C78.1683 40.4892 79.9695 43.4838 81.8328 46.6343ZM69.6593 34.7497C71.4604 34.7497 73.1685 34.8744 74.8454 34.7185C76.5845 34.5625 77.6404 33.2524 77.7956 31.3808C77.9509 29.634 77.1435 28.1679 75.6529 27.6688C73.6964 27.0449 71.6778 27.4192 69.6282 27.3569C69.6282 29.6963 69.6282 31.9111 69.6282 34.1258C69.6282 34.3441 69.6282 34.5313 69.6593 34.7497Z" fill="#475467"/>
<path d="M117.9 31.3822C117.9 30.6327 117.9 29.9145 117.9 29.1025C119.118 29.1025 120.274 29.1025 121.523 29.1025C121.523 29.3523 121.585 29.6334 121.585 29.8832C121.585 35.1921 121.585 40.5009 121.617 45.8098C121.617 46.5592 121.367 46.7466 120.68 46.6842C119.805 46.6217 118.931 46.6842 117.932 46.6842C117.932 45.841 117.932 45.0603 117.932 44.1546C117.338 44.6543 116.932 45.1227 116.432 45.4662C112.903 47.9958 108.031 47.2775 105.377 43.8736C102.847 40.6258 102.753 35.5044 105.127 32.1629C108 28.1032 113.965 27.6035 117.463 31.1324C117.557 31.2261 117.65 31.3822 117.744 31.5071C117.775 31.4447 117.838 31.4134 117.9 31.3822ZM107.095 37.784C107.157 38.3461 107.188 38.9083 107.313 39.4704C108.094 43.1553 112.029 44.9666 115.183 43.1241C117.151 41.9687 118.244 39.4079 117.838 36.8472C117.463 34.5987 116.339 32.8499 114.059 32.1629C110.467 31.0075 107.157 33.7243 107.095 37.784Z" fill="#475467"/>
<path d="M101.564 39.2793C97.0922 39.2793 92.6825 39.2793 88.2419 39.2793C88.3036 41.4273 89.6604 43.1707 91.6649 43.731C93.8543 44.3848 95.9204 43.6688 97.1231 41.9566C97.2772 41.7386 97.6165 41.5519 97.894 41.5207C98.9733 41.4585 100.022 41.4896 101.194 41.4896C100.515 43.5131 99.3433 44.9763 97.5856 45.9102C92.5591 48.5563 84.8498 46.3772 84.5414 38.3765C84.4489 35.7304 85.0348 33.3021 86.8851 31.3097C89.2287 28.8193 93.5151 28.0721 96.8147 29.473C99.9601 30.8116 101.872 33.9559 101.718 37.6916C101.687 38.1897 101.594 38.6878 101.564 39.2793ZM88.3036 36.2907C91.4798 36.2907 94.6869 36.2907 97.8632 36.2907C98.0482 34.0181 96.0438 31.9946 93.5151 31.8701C90.6781 31.7144 88.3653 33.6446 88.3036 36.2907Z" fill="#475467"/>
<rect x="26" y="17" width="34.0756" height="34.0756" rx="17.0378" fill="url(#paint0_linear_1682_2300)"/>
<path d="M42.9558 43.1498C37.8447 43.0723 33.6888 39.1229 33.792 33.7537C33.8953 28.8491 37.7157 24.7964 43.0591 24.848C48.0669 24.8738 52.1454 28.7975 52.0938 34.1667C52.068 39.0454 48.0411 43.0981 42.9558 43.1498ZM42.9558 26.8098C39.058 26.7324 35.7797 30.0107 35.728 33.8311C35.6506 37.858 38.9547 41.1621 42.8009 41.1879C47.1118 41.2138 50.132 37.8322 50.1836 34.1409C50.2352 30.0365 47.086 26.8098 42.9558 26.8098Z" fill="white"/>
<path d="M37.1743 21.8794C37.1743 22.4731 37.1743 23.0152 37.1743 23.5315C37.1743 23.8928 36.8904 23.9187 36.6322 23.9187C35.7288 23.9187 34.8253 23.9187 33.9218 23.9187C33.07 23.9187 32.8893 24.0994 32.8635 24.9512C32.8635 25.8547 32.8635 26.7323 32.8635 27.6358C32.8635 28.1779 32.786 28.2295 32.2956 28.2295C31.9342 28.2295 31.5986 28.2295 31.2372 28.2295C31.0049 28.2295 30.8758 28.1521 30.8758 27.8681C30.8758 26.6807 30.85 25.4933 30.9017 24.3059C30.9275 23.3766 31.8051 22.215 32.7602 22.0601C33.5863 21.931 34.4381 21.9052 35.2641 21.8794C35.8578 21.8536 36.4774 21.8794 37.1743 21.8794Z" fill="white"/>
<path d="M48.893 46.196C48.893 45.6539 48.893 45.1376 48.893 44.6471C48.893 44.3374 49.0995 44.3632 49.306 44.3632C50.2095 44.3632 51.113 44.3632 52.0164 44.3632C52.8941 44.3632 53.3846 43.9244 53.3329 43.0725C53.2813 42.1949 53.3329 41.3172 53.3071 40.4396C53.3071 40.0523 53.4362 39.9491 53.7976 39.9491C54.159 39.9749 54.4945 39.9749 54.8559 39.9491C55.0883 39.9491 55.1915 40.0265 55.1915 40.2589C55.1915 41.4979 55.2431 42.737 55.1399 43.9502C55.0624 44.9569 54.3913 45.6281 53.4878 46.0411C53.2813 46.1443 53.0232 46.2218 52.8167 46.2218C51.6034 46.2476 50.416 46.2476 49.2028 46.2476C49.1253 46.2476 49.0479 46.2218 48.893 46.196Z" fill="white"/>
<path d="M38.1541 35.8707C38.5671 35.69 38.9801 35.5351 39.3673 35.3544C39.8061 35.1221 39.9868 35.2512 40.245 35.6642C40.8129 36.5935 41.7163 37.1356 42.8005 37.1872C43.9879 37.2388 44.9688 36.6967 45.6658 35.69C46.0272 35.1479 46.0272 35.1479 46.6209 35.3803C46.879 35.4835 47.163 35.5868 47.4211 35.7158C47.6276 35.8191 47.7567 35.9223 47.6018 36.2321C46.9823 37.5228 45.9756 38.4004 44.6849 38.8909C43.7298 39.2265 42.6973 39.2523 41.6647 38.9941C39.9868 38.5295 38.9285 37.4453 38.1541 35.8707Z" fill="white"/>
<defs>
<linearGradient id="paint0_linear_1682_2300" x1="43.0378" y1="17" x2="43.0378" y2="51.0756" gradientUnits="userSpaceOnUse">
<stop stop-color="#7B60FF"/>
<stop offset="1" stop-color="#4361EE"/>
</linearGradient>
</defs>
</svg>
