<svg width="68" height="68" viewBox="0 0 68 68" fill="none" xmlns="http://www.w3.org/2000/svg">
<path d="M8 0.5H60C64.1421 0.5 67.5 3.85786 67.5 8V60C67.5 64.1421 64.1421 67.5 60 67.5H8C3.85786 67.5 0.5 64.1421 0.5 60V8C0.5 3.85786 3.85786 0.5 8 0.5Z" stroke="#ECECEE"/>
<path d="M34.4046 55.7774C46.226 55.7774 55.8091 46.2013 55.8091 34.3887C55.8091 22.576 46.226 13 34.4046 13C22.5832 13 13 22.576 13 34.3887C13 46.2013 22.5832 55.7774 34.4046 55.7774Z" fill="#FF4500"/>
<path d="M48.6804 34.3883C48.6165 32.6657 47.1693 31.3206 45.4401 31.3791C44.674 31.4057 43.9451 31.7194 43.3917 32.2457C40.9549 30.587 38.0925 29.6778 35.1502 29.614L36.5389 22.9417L41.1199 23.904C41.2476 25.079 42.301 25.9296 43.4769 25.802C44.6527 25.6744 45.504 24.6217 45.3763 23.4468C45.2486 22.2718 44.1951 21.4211 43.0193 21.5487C42.3436 21.6178 41.737 22.0113 41.4018 22.5961L36.1558 21.5487C35.7993 21.469 35.4428 21.6923 35.363 22.0538C35.363 22.0591 35.363 22.0591 35.363 22.0644L33.7828 29.4864C30.8033 29.5343 27.9036 30.4487 25.4349 32.1181C24.1792 30.9378 22.2 30.9963 21.0188 32.2564C19.8377 33.5111 19.8962 35.4889 21.1572 36.6691C21.4019 36.8978 21.6839 37.0945 21.9978 37.2327C21.9765 37.5464 21.9765 37.8601 21.9978 38.1737C21.9978 42.964 27.5844 46.8611 34.4745 46.8611C41.3646 46.8611 46.9512 42.9693 46.9512 38.1737C46.9725 37.8601 46.9725 37.5464 46.9512 37.2327C48.0259 36.6957 48.7016 35.5899 48.6804 34.3883ZM27.2758 36.5309C27.2758 35.3506 28.2388 34.3883 29.42 34.3883C30.6011 34.3883 31.5642 35.3506 31.5642 36.5309C31.5642 37.7112 30.6011 38.6735 29.42 38.6735C28.2335 38.6629 27.2758 37.7112 27.2758 36.5309ZM39.7099 42.4111C38.1882 43.5541 36.326 44.139 34.4213 44.0592C32.5165 44.139 30.6543 43.5541 29.1327 42.4111C28.9305 42.1665 28.9677 41.7997 29.2125 41.5976C29.4253 41.4222 29.7286 41.4222 29.9467 41.5976C31.2343 42.5387 32.8038 43.0172 34.4 42.9427C35.9962 43.0278 37.5711 42.5706 38.8746 41.6402C39.1087 41.4116 39.4918 41.4169 39.7206 41.6508C39.9493 41.8847 39.944 42.2675 39.7099 42.4961V42.4111ZM39.3268 38.7479C38.1457 38.7479 37.1827 37.7856 37.1827 36.6053C37.1827 35.4251 38.1457 34.4628 39.3268 34.4628C40.508 34.4628 41.471 35.4251 41.471 36.6053C41.5189 37.7856 40.5984 38.7798 39.4173 38.8277C39.38 38.8277 39.3481 38.8277 39.3109 38.8277L39.3268 38.7479Z" fill="white"/>
</svg>
