<svg width="168" height="68" viewBox="0 0 168 68" fill="none" xmlns="http://www.w3.org/2000/svg">
<path d="M8 0.5H160C164.142 0.5 167.5 3.85786 167.5 8V60C167.5 64.1421 164.142 67.5 160 67.5H8C3.85786 67.5 0.5 64.1421 0.5 60V8C0.5 3.85786 3.85786 0.5 8 0.5Z" fill="white"/>
<path d="M8 0.5H160C164.142 0.5 167.5 3.85786 167.5 8V60C167.5 64.1421 164.142 67.5 160 67.5H8C3.85786 67.5 0.5 64.1421 0.5 60V8C0.5 3.85786 3.85786 0.5 8 0.5Z" stroke="#ECECEE"/>
<path d="M42.7606 37.0101L45.8891 42.7211H40.0843L37.4428 37.8405H34.9403V42.7211H29.6573V25.4205H39.3197C43.3166 25.4205 45.8543 27.6331 45.8543 31.6123C45.8543 34.1728 44.6725 36.007 42.7606 37.0101ZM34.9403 29.9168V33.3424H38.6941C39.8063 33.3424 40.5014 32.6849 40.5014 31.6123C40.5014 30.5397 39.8063 29.9168 38.6941 29.9168H34.9403ZM62.6765 44L46.8622 39.744L51.1026 24L59.0096 26.128L66.9167 28.256L62.6765 44ZM59.6874 32.4081L55.2732 31.1971L54.0916 35.5914L58.5057 36.8029L59.6874 32.4081ZM85.0253 37.8405C85.0253 41.1622 82.9051 42.7211 79.6032 42.7211H69.2458V25.4205H79.2557C82.5576 25.4205 84.6778 27.1159 84.6778 30.0917C84.6778 31.9601 83.9826 33.2061 82.6618 34.0712C84.1563 34.7264 85.0253 36.0416 85.0253 37.8405ZM74.3897 29.5726V32.1331H77.8288C78.7673 32.1331 79.3234 31.7179 79.3234 30.8183C79.3234 29.9879 78.7673 29.5726 77.8288 29.5726H74.3897ZM74.3897 38.569H78.2478C79.1514 38.569 79.6746 38.0846 79.6746 37.2538C79.6746 36.3545 79.1533 35.9393 78.2478 35.9393H74.3897V38.569ZM87.6321 25.4205H92.9143V37.5987H100.491V42.7211H87.6313L87.6321 25.4205ZM119.921 34.0712C119.921 35.8505 119.391 37.5898 118.398 39.0693C117.405 40.5488 115.994 41.7018 114.343 42.3827C112.692 43.0636 110.875 43.2418 109.122 42.8947C107.369 42.5475 105.758 41.6907 104.495 40.4325C103.231 39.1743 102.37 37.5714 102.021 35.8263C101.673 34.0812 101.852 32.2723 102.536 30.6284C103.22 28.9846 104.378 27.5795 105.864 26.591C107.35 25.6025 109.097 25.0748 110.884 25.0748C112.072 25.0725 113.248 25.3035 114.345 25.7547C115.442 26.2058 116.44 26.8682 117.279 27.7039C118.119 28.5396 118.784 29.532 119.238 30.6244C119.691 31.7167 119.923 32.8874 119.921 34.0694V34.0712ZM114.638 34.0712C114.638 31.9255 112.935 30.2301 110.884 30.2301C108.834 30.2301 107.131 31.9255 107.131 34.0712C107.131 36.2168 108.834 37.9119 110.884 37.9119C112.935 37.9119 114.638 36.2143 114.638 34.0694V34.0712ZM132.642 33.794L138.343 42.7211H132.05L128.923 37.6329L125.691 42.7211H119.296L125.239 34.0012L119.782 25.4205H126.073L128.958 30.0917L131.738 25.4205H137.995L132.642 33.794Z" fill="black"/>
</svg>
