<svg width="68" height="68" viewBox="0 0 68 68" fill="none" xmlns="http://www.w3.org/2000/svg">
<path d="M8 0.5H60C64.1421 0.5 67.5 3.85786 67.5 8V60C67.5 64.1421 64.1421 67.5 60 67.5H8C3.85786 67.5 0.5 64.1421 0.5 60V8C0.5 3.85786 3.85786 0.5 8 0.5Z" stroke="#ECECEE"/>
<mask id="mask0_1682_2236" style="mask-type:alpha" maskUnits="userSpaceOnUse" x="7" y="16" width="53" height="37">
<path d="M7 16H60V52.6747H7V16Z" fill="#00A2E1"/>
</mask>
<g mask="url(#mask0_1682_2236)">
<path fill-rule="evenodd" clip-rule="evenodd" d="M29.0067 20.015C30.7175 18.2508 33.0986 17.1582 35.7291 17.1582C39.2365 17.1582 42.2762 19.0885 43.913 21.9646C45.3658 21.3212 46.9395 20.989 48.531 20.9898C54.8442 20.9898 59.9688 26.1049 59.9688 32.4168C59.9688 38.7288 54.8442 43.8439 48.531 43.8439C47.7594 43.8439 47.0072 43.7671 46.2707 43.6219C44.8385 46.1506 42.1008 47.8685 38.9832 47.8685C37.7139 47.871 36.4608 47.5857 35.3199 47.0346C33.8683 50.4125 30.4876 52.7868 26.5516 52.7868C22.4402 52.7868 18.9523 50.2195 17.6078 46.61C17.0094 46.7351 16.3995 46.7979 15.7879 46.7976C10.8971 46.7976 6.94156 42.8213 6.94156 37.9377C6.94156 34.6563 8.72251 31.7996 11.3647 30.2554C10.8042 28.9762 10.5156 27.5963 10.5171 26.2018C10.5171 20.5655 15.1351 16.0101 20.8248 16.0101C24.1568 16.0101 27.1381 17.5833 29.0087 20.025" fill="#00A2E1"/>
</g>
<path fill-rule="evenodd" clip-rule="evenodd" d="M14.6654 35.0708C14.6321 35.1569 14.6773 35.1749 14.6881 35.1901C14.7876 35.2615 14.8887 35.3133 14.9901 35.3714C15.5318 35.6551 16.0423 35.7381 16.5762 35.7381C17.6635 35.7381 18.3396 35.1648 18.3396 34.2422V34.224C18.3396 33.3709 17.5758 33.0601 16.8626 32.8381L16.7693 32.8082C16.2295 32.6349 15.7638 32.4839 15.7638 32.1326V32.1147C15.7638 31.8135 16.0366 31.5916 16.4575 31.5916C16.9252 31.5916 17.4824 31.7458 17.839 31.9409C17.839 31.9409 17.9446 32.0085 17.983 31.9075C18.0039 31.8529 18.1857 31.3709 18.2051 31.3169C18.2258 31.2603 18.1896 31.2177 18.1523 31.1957C17.7431 30.9486 17.1781 30.7807 16.5935 30.7807L16.485 30.781C15.4893 30.781 14.7937 31.3775 14.7937 32.2307V32.249C14.7937 33.1485 15.5614 33.4419 16.2784 33.6446L16.3938 33.6801C16.916 33.8391 17.3681 33.9773 17.3681 34.3402V34.3584C17.3681 34.6923 17.0738 34.9413 16.6023 34.9413C16.4189 34.9413 15.8346 34.9382 15.2013 34.5417C15.1247 34.4975 15.0811 34.4657 15.022 34.43C14.9909 34.4113 14.9129 34.3775 14.879 34.4786L14.6647 35.0693M30.5842 35.0693C30.5508 35.1554 30.596 35.1733 30.6071 35.1886C30.7063 35.26 30.8078 35.3117 30.9092 35.3698C31.4509 35.6536 31.9614 35.7366 32.4953 35.7366C33.5826 35.7366 34.2587 35.1633 34.2587 34.2406V34.2225C34.2587 33.3693 33.4968 33.0585 32.7817 32.8366L32.6884 32.8066C32.1486 32.6333 31.6829 32.4824 31.6829 32.1311V32.1131C31.6829 31.812 31.9557 31.59 32.3766 31.59C32.8443 31.59 33.3996 31.7442 33.7581 31.9394C33.7581 31.9394 33.8637 32.0069 33.9023 31.906C33.923 31.8514 34.1049 31.3694 34.1225 31.3153C34.1433 31.2588 34.1069 31.2161 34.0699 31.1941C33.6607 30.947 33.0956 30.7791 32.5111 30.7791L32.4023 30.7795C31.4066 30.7795 30.711 31.3759 30.711 32.2291V32.2475C30.711 33.1469 31.4787 33.4403 32.1958 33.643L32.3109 33.6785C32.8351 33.8376 33.2852 33.9758 33.2852 34.3387V34.3568C33.2852 34.6908 32.991 34.9398 32.5194 34.9398C32.3357 34.9398 31.7498 34.9367 31.1184 34.5402C31.0419 34.496 30.997 34.4655 30.939 34.4284C30.9193 34.4161 30.8275 34.3806 30.7962 34.4771L30.5818 35.0677M41.4546 33.261C41.4546 33.7822 41.3564 34.1933 41.1643 34.4848C40.9725 34.7724 40.683 34.9133 40.2796 34.9133C39.8763 34.9133 39.5879 34.7736 39.3989 34.4867C39.2085 34.1972 39.1125 33.7841 39.1125 33.263C39.1125 32.7418 39.2091 32.3326 39.3989 32.045C39.5875 31.7593 39.8744 31.6222 40.2796 31.6222C40.6849 31.6222 40.9733 31.7606 41.1643 32.045C41.3576 32.3326 41.4546 32.7418 41.4546 33.263M42.3626 32.2959C42.2732 31.9967 42.1346 31.7342 41.9495 31.5142C41.7642 31.2941 41.5306 31.1165 41.252 30.9891C40.9753 30.8608 40.6479 30.7961 40.2777 30.7961C39.9075 30.7961 39.5821 30.8611 39.3034 30.9891C39.0267 31.1173 38.791 31.2941 38.6059 31.5142C38.4211 31.7342 38.2824 31.9967 38.1928 32.2959C38.1041 32.5932 38.0591 32.9174 38.0591 33.263C38.0591 33.6085 38.1041 33.9328 38.1928 34.23C38.2818 34.5292 38.4207 34.7917 38.6059 35.0118C38.7912 35.2318 39.0267 35.4075 39.3034 35.5329C39.5821 35.658 39.9094 35.7217 40.2777 35.7217C40.646 35.7217 40.9733 35.658 41.25 35.5329C41.5267 35.4078 41.7625 35.2318 41.9476 35.0118C42.1325 34.7917 42.271 34.5292 42.3607 34.23C42.4491 33.9328 42.4941 33.6085 42.4941 33.263C42.4941 32.9194 42.4491 32.5932 42.3607 32.2959M49.8235 34.7666C49.7937 34.6792 49.7076 34.7122 49.7076 34.7122C49.5757 34.7622 49.4348 34.8085 49.2848 34.8317C49.1336 34.8552 48.9652 34.867 48.7879 34.867C48.3495 34.867 47.9987 34.7375 47.7493 34.4809C47.498 34.2242 47.3577 33.8111 47.3596 33.2514C47.361 32.7418 47.4853 32.3596 47.7084 32.0662C47.9286 31.7767 48.2676 31.6261 48.7158 31.6261C49.0899 31.6261 49.3764 31.6691 49.6764 31.7622C49.6764 31.7622 49.7476 31.7929 49.7817 31.7C49.8613 31.4819 49.9202 31.3256 50.0057 31.0862C50.0299 31.0177 49.9707 30.9887 49.949 30.9804C49.8313 30.9349 49.5535 30.8602 49.343 30.8287C49.1462 30.799 48.9183 30.7836 48.661 30.7836C48.2791 30.7836 47.9401 30.8482 47.6498 30.9764C47.3594 31.1044 47.1139 31.2814 46.9191 31.5014C46.7242 31.7215 46.5761 31.984 46.4767 32.2832C46.3783 32.5804 46.3287 32.9066 46.3287 33.2521C46.3287 33.9972 46.5313 34.6014 46.9327 35.0434C47.3341 35.4874 47.9381 35.7113 48.7253 35.7113C49.191 35.7113 49.6684 35.6181 50.0114 35.4835C50.0114 35.4835 50.0769 35.4522 50.0484 35.3766L49.8243 34.7666M51.4124 32.7592C51.4558 32.4696 51.5359 32.2283 51.6618 32.0411C51.8502 31.7554 52.1372 31.5991 52.5406 31.5991C52.9439 31.5991 53.2109 31.7562 53.4018 32.0411C53.5285 32.2293 53.5838 32.4793 53.6045 32.7592L51.4026 32.7588L51.4124 32.7592ZM54.4716 32.1222C54.3942 31.8346 54.2027 31.5431 54.078 31.4099C53.8792 31.1995 53.6863 31.0509 53.4934 30.9698C53.2149 30.8525 52.9153 30.7923 52.6127 30.7928C52.2288 30.7928 51.88 30.8571 51.5975 30.9878C51.3149 31.1194 51.0772 31.2985 50.8902 31.5225C50.7033 31.7464 50.5628 32.0108 50.4732 32.3139C50.3835 32.613 50.3383 32.9412 50.3383 33.2848C50.3383 33.6361 50.3853 33.9623 50.4777 34.2576C50.571 34.5549 50.7212 34.8155 50.9239 35.0316C51.1265 35.2498 51.3857 35.4196 51.6974 35.5393C52.0073 35.658 52.3833 35.7196 52.8139 35.7182C53.7025 35.7153 54.1701 35.5194 54.3611 35.4132C54.3952 35.3943 54.4273 35.3617 54.3872 35.2677L54.1865 34.7099C54.1557 34.6267 54.0708 34.6568 54.0708 34.6568C53.8506 34.7382 53.5388 34.8846 52.8081 34.8826C52.3307 34.8819 51.978 34.7423 51.7559 34.5236C51.5299 34.2997 51.4169 33.9735 51.3993 33.5102L54.478 33.5125C54.478 33.5125 54.5591 33.5118 54.5674 33.4334C54.5707 33.401 54.6728 32.808 54.4757 32.1228L54.4716 32.1222ZM26.8024 32.7592C26.8459 32.4696 26.9262 32.2283 27.0519 32.0411C27.2405 31.7554 27.5273 31.5991 27.9306 31.5991C28.334 31.5991 28.6009 31.7562 28.7919 32.0411C28.9184 32.2293 28.9737 32.4793 28.9945 32.7592L26.7927 32.7588L26.8024 32.7592ZM29.8616 32.1222C29.7845 31.8346 29.5927 31.5431 29.468 31.4099C29.2693 31.1995 29.0764 31.0509 28.8835 30.9698C28.605 30.8525 28.3054 30.7923 28.0027 30.7928C27.6189 30.7928 27.2701 30.8571 26.9876 30.9878C26.705 31.1194 26.4673 31.2985 26.2802 31.5225C26.0938 31.7464 25.9529 32.0108 25.8633 32.3139C25.7738 32.613 25.7288 32.9412 25.7288 33.2848C25.7288 33.6361 25.7754 33.9623 25.8683 34.2576C25.9615 34.5549 26.1119 34.8155 26.3126 35.0316C26.5152 35.2498 26.7744 35.4196 27.0862 35.5393C27.396 35.658 27.7701 35.7196 28.2027 35.7182C29.0912 35.7153 29.5588 35.5194 29.7498 35.4132C29.7837 35.3943 29.816 35.3617 29.7757 35.2677L29.575 34.7099C29.544 34.6267 29.4591 34.6568 29.4591 34.6568C29.2389 34.7382 28.9271 34.8846 28.1964 34.8826C27.721 34.8819 27.3664 34.7423 27.1442 34.5236C26.9182 34.2997 26.8052 33.9735 26.7876 33.5102L29.8663 33.5125C29.8663 33.5125 29.9474 33.5118 29.9558 33.4334C29.9591 33.401 30.0612 32.808 29.8638 32.1228L29.8616 32.1222ZM20.158 34.7473C20.0373 34.652 20.0206 34.6286 19.9806 34.5666C19.9197 34.4734 19.8885 34.3408 19.8885 34.1709C19.8885 33.9046 19.9781 33.7115 20.1632 33.5822C20.1613 33.5826 20.4282 33.3544 21.0556 33.3622C21.3349 33.3671 21.6135 33.3907 21.8896 33.4326V34.8166H21.89C21.89 34.8166 21.5003 34.8998 21.0599 34.9261C20.4345 34.9633 20.1578 34.7477 20.1597 34.7483L20.158 34.7473ZM21.3816 32.6047C21.2569 32.5957 21.0952 32.5912 20.9023 32.5912C20.6392 32.5912 20.384 32.6237 20.1463 32.6874C19.9066 32.7514 19.6903 32.8507 19.5052 32.9827C19.3196 33.1139 19.1669 33.2856 19.059 33.4845C18.9501 33.6853 18.8945 33.9208 18.8945 34.1872C18.8945 34.4574 18.9419 34.691 19.0354 34.882C19.1271 35.0716 19.265 35.2355 19.4368 35.3588C19.6077 35.482 19.8187 35.5731 20.0623 35.6271C20.3039 35.6817 20.5767 35.7094 20.8768 35.7094C21.1924 35.7094 21.5061 35.6831 21.8101 35.6323C22.069 35.5881 22.3269 35.5384 22.5837 35.4833C22.6862 35.46 22.8 35.4293 22.8 35.4293C22.876 35.4102 22.8701 35.3297 22.8701 35.3297L22.8684 32.5501C22.8684 31.9402 22.7039 31.4865 22.3793 31.2067C22.0558 30.9268 21.5823 30.7859 20.9686 30.7859C20.7386 30.7859 20.3665 30.8168 20.1443 30.861C20.1443 30.861 19.474 30.9899 19.1973 31.2045C19.1973 31.2045 19.1365 31.2416 19.1697 31.3256L19.3879 31.9046C19.415 31.9797 19.4888 31.9541 19.4888 31.9541C19.4888 31.9541 19.512 31.945 19.5393 31.929C20.1297 31.6105 20.8779 31.6201 20.8779 31.6201C21.2092 31.6201 21.4664 31.6867 21.6379 31.817C21.8056 31.9446 21.8912 32.1374 21.8912 32.5428V32.6715C21.6281 32.6337 21.3846 32.6119 21.3846 32.6119L21.3816 32.6047ZM46.128 31.0354C46.1324 31.0253 46.1347 31.0143 46.1348 31.0032C46.1348 30.9921 46.1327 30.9812 46.1283 30.9709C46.124 30.9607 46.1177 30.9514 46.1097 30.9437C46.1017 30.9359 46.0922 30.9299 46.0818 30.9258C46.0294 30.9061 45.7681 30.8515 45.5674 30.8391C45.1816 30.8152 44.9672 30.8797 44.7743 30.9654C44.5838 31.0505 44.3729 31.1874 44.256 31.3456L44.2556 30.975C44.2556 30.9241 44.2192 30.883 44.1674 30.883H43.3801C43.3291 30.883 43.2921 30.9241 43.2921 30.975V35.5111C43.2921 35.5356 43.302 35.5591 43.3195 35.5764C43.337 35.5938 43.3607 35.6035 43.3854 35.6036H44.1921C44.2168 35.6035 44.2405 35.5938 44.258 35.5764C44.2754 35.5591 44.2852 35.5356 44.2852 35.5111V33.2334C44.2852 32.9284 44.3191 32.6254 44.3868 32.4343C44.4534 32.2453 44.544 32.0946 44.6557 31.9865C44.7622 31.8821 44.8925 31.8046 45.0356 31.7606C45.1699 31.7225 45.309 31.7031 45.4487 31.7031C45.6095 31.7031 45.7858 31.744 45.7858 31.744C45.845 31.7506 45.878 31.7147 45.898 31.6618C45.9508 31.5226 46.1007 31.1059 46.1299 31.0229" fill="#FFFFFE"/>
<path fill-rule="evenodd" clip-rule="evenodd" d="M38.5937 28.9418C38.494 28.9119 38.3925 28.8881 38.2899 28.8704C38.1519 28.8476 38.0121 28.8368 37.8721 28.8383C37.3162 28.8383 36.878 28.9939 36.5703 29.3012C36.2648 29.6062 36.0569 30.0708 35.9526 30.6821L35.915 30.8885H35.2173C35.2173 30.8885 35.1321 30.885 35.1142 30.977L34.9996 31.6102C34.9916 31.6708 35.0179 31.7086 35.0998 31.7082H35.779L35.0898 35.5191C35.0359 35.826 34.9741 36.0785 34.9057 36.2698C34.8383 36.4586 34.7724 36.6001 34.6914 36.7027C34.6128 36.8021 34.5384 36.8753 34.41 36.918C34.304 36.9533 34.182 36.9695 34.0483 36.9695C33.9739 36.9695 33.8749 36.9571 33.8018 36.9427C33.7288 36.9284 33.6908 36.9122 33.636 36.8894C33.636 36.8894 33.5563 36.8593 33.525 36.9384C33.4994 37.0031 33.3184 37.4963 33.297 37.5573C33.2752 37.6175 33.3058 37.665 33.3443 37.6787C33.4347 37.7107 33.502 37.7312 33.6251 37.7599C33.7962 37.7999 33.9404 37.8024 34.0754 37.8024C34.3583 37.8024 34.6161 37.763 34.8299 37.6866C35.045 37.6096 35.2323 37.4754 35.3979 37.2938C35.577 37.0979 35.6896 36.8927 35.7973 36.6128C35.9039 36.3354 35.9947 35.9911 36.0674 35.5898L36.7599 31.7082H37.7724C37.7724 31.7082 37.8577 31.7113 37.8754 31.6196L37.99 30.9865C37.998 30.9259 37.9719 30.8881 37.8897 30.8885H36.907C36.9119 30.8664 36.9565 30.524 37.0693 30.2017C37.1175 30.064 37.2081 29.9531 37.2848 29.8768C37.3565 29.8042 37.4448 29.7498 37.5422 29.7181C37.649 29.6854 37.7604 29.6695 37.8721 29.671C37.9647 29.671 38.0555 29.682 38.1247 29.6963C38.2199 29.7164 38.257 29.727 38.2819 29.7344C38.3821 29.7647 38.3955 29.7353 38.4152 29.6873L38.6502 29.048C38.6743 28.9792 38.6155 28.9503 38.5937 28.9418ZM24.8616 35.5272C24.8616 35.5782 24.825 35.6197 24.7735 35.6197H23.9585C23.9068 35.6197 23.8702 35.5782 23.8702 35.5272V29.0285C23.8702 28.9777 23.9068 28.9366 23.9585 28.9366H24.7735C24.825 28.9366 24.8616 28.9777 24.8616 29.0285V35.5272Z" fill="#FFFFFE"/>
</svg>
