<svg width="68" height="68" viewBox="0 0 68 68" fill="none" xmlns="http://www.w3.org/2000/svg">
<path d="M8 0.5H60C64.1421 0.5 67.5 3.85786 67.5 8V60C67.5 64.1421 64.1421 67.5 60 67.5H8C3.85786 67.5 0.5 64.1421 0.5 60V8C0.5 3.85786 3.85786 0.5 8 0.5Z" stroke="#ECECEE"/>
<path fill-rule="evenodd" clip-rule="evenodd" d="M34.4965 50.3974C33.245 50.3974 32.6017 49.5812 32.6017 49.5812C31.5731 49.5365 23.5344 49.5588 23.5344 49.5588L22.7518 42.9529C22.7518 42.9529 17.8006 39.463 17.3981 39.0605C15.0214 28.2787 23.6119 18 34.4968 18C45.3818 18 53.9722 28.2787 51.5956 39.0605C51.1931 39.463 46.2419 42.9529 46.2419 42.9529L45.4593 49.5588C45.4593 49.5588 37.4206 49.5365 36.392 49.5812C36.392 49.5812 35.7487 50.3974 34.4965 50.3974Z" fill="#ED1C24"/>
<path fill-rule="evenodd" clip-rule="evenodd" d="M34.5087 40.3509L33.7491 21.2823C32.8331 21.0953 30.4962 21.3197 29.2437 22.2544L32.8892 40.4257L27.9164 23.0022C26.7243 22.9876 24.3187 25.0032 24.14 25.6008L31.3936 41.0613L23.2427 26.9281C22.4388 27.2272 20.6815 30.4614 20.9619 30.8372L30.0476 41.9587L20.7002 32.4617C20.7002 32.4617 19.485 34.3125 20.2775 37.4474L25.5573 41.2603L26.2183 46.4694H32.6916C32.6916 46.4694 33.7506 47.4733 34.5021 47.4733C35.2535 47.4733 36.3125 46.4694 36.3125 46.4694H42.7858L43.4468 41.2603L48.7266 37.4474C49.5191 34.3125 48.3039 32.4617 48.3039 32.4617L38.9566 41.9587L48.0422 30.8372C48.3226 30.4614 46.5653 27.2272 45.7614 26.9281L37.6105 41.0613L44.8641 25.6008C44.6854 25.0032 42.2799 22.9876 41.0878 23.0022L36.115 40.4257L39.7604 22.2544C38.5079 21.3197 36.171 21.0953 35.255 21.2823L34.5087 40.3509Z" fill="#FFD500"/>
</svg>
