<svg width="16" height="17" viewBox="0 0 16 17" fill="none" xmlns="http://www.w3.org/2000/svg">
<path d="M7.33333 10.9879V10.9307L4.86193 8.45934L5.80474 7.51653L7.33333 9.04513V2.6546H8.66667V9.04513L10.1953 7.51653L11.1381 8.45934L8.66667 10.9307V10.9879H8.60948L8 11.5974L7.39052 10.9879H7.33333Z" fill="white"/>
<path d="M2 8.6546V12.6546C2 13.7592 2.89543 14.6546 4 14.6546H12C13.1046 14.6546 14 13.7592 14 12.6546V8.6546H12.6667V12.6546C12.6667 13.0228 12.3682 13.3213 12 13.3213H4C3.63181 13.3213 3.33333 13.0228 3.33333 12.6546V8.6546H2Z" fill="white"/>
</svg>
