<svg fill="none" height="89" viewBox="0 0 264 89" width="264" xmlns="http://www.w3.org/2000/svg"><g fill="#231f20"><path d="m125.855 77.8774c.063.0517.137.0896.216.1113.08.0217.162.0268.244.015l.06.0165 9.207-3.3737c.103-.0276.196-.0828.27-.1596s.126-.1724.15-.2763c.025-.1125.018-.23-.021-.3385-.039-.1084-.109-.2034-.2-.2735l-8.109-5.9066c-.112-.0872-.252-.1305-.393-.1215-.142.0089-.275.0695-.375.1702-.094.0888-.156.2063-.176.3341-.021.1278.002.2588.063.3726l1.938 4.7553-2.962 3.7833c-.081.0884-.135.1985-.154.317-.02.1184-.005.24.044.3498.047.0896.115.1666.198.2246zm8.843-3.9112-7.503 2.7227 2.365-3.0309c.088-.0909.144-.2074.161-.3325s-.006-.2523-.067-.3632l-1.563-3.8421z"/><path d="m146.801 84.9906c3.155.3256 6.622-.5761 10.402-2.7051 4.265-2.3878 6.973-5.4544 7.984-9.1329 1.07-3.897.197-8.4496-2.527-13.1776-1.255-2.1487-2.853-4.0773-4.732-5.7092-1.498-1.2779-2.814-2.7547-3.911-4.3893-.622-.9461-1.161-1.9432-1.614-2.9805-.206-.4781-.442-.9433-.704-1.393-.909-1.5803-2.121-2.9661-3.566-4.0784-1.445-1.1122-3.095-1.929-4.856-2.4038s-3.598-.5982-5.407-.3633c-1.808.235-3.553.8237-5.134 1.7326-1.58.9088-2.967 2.1201-4.079 3.5646-1.113 1.4444-1.93 3.0938-2.405 4.854-.475 1.7601-.599 3.5965-.364 5.4044.235 1.8078.824 3.5517 1.734 5.132.325.5618.69 1.1005 1.089 1.6124.641.8319 1.212 1.7153 1.707 2.6413 1.024 1.8354 1.774 3.811 2.225 5.8637.5 2.2281 1.33 4.3688 2.464 6.351 3.332 5.6409 7.179 8.6994 11.694 9.1771zm-5.862-45.1007c1.98.2164 3.88.8988 5.545 1.9915 1.665 1.0926 3.047 2.5642 4.033 4.2941.246.3941.467.804.66 1.227.488 1.1126 1.074 2.1796 1.751 3.1885 1.152 1.739 2.537 3.3114 4.117 4.6728 1.768 1.5387 3.274 3.3539 4.46 5.3749 2.548 4.4205 3.379 8.6288 2.393 12.1846-.915 3.3317-3.382 6.1402-7.331 8.3552-8.637 4.8679-15.109 2.9531-20.248-5.997-1.075-1.8693-1.868-3.8871-2.353-5.9881-.476-2.1745-1.266-4.2678-2.348-6.2136-.543-.9891-1.165-1.9325-1.86-2.8212-1.525-1.939-2.445-4.2843-2.645-6.7429-.2-2.4587.329-4.9217 1.521-7.0814 1.192-2.1598 2.994-3.9207 5.182-5.0628 2.187-1.1421 4.662-1.6147 7.117-1.359z"/><path d="m141.159 50.6912c.134.2063.219.4404.249.6847l.608 4.6659c.01.0665-.001.1345-.03.1951s-.076.1111-.134.1449-.125.0494-.192.0447-.132-.0295-.184-.071l-3.74-2.8588c-.194-.1521-.354-.3424-.471-.5589z"/><path d="m137.135 52.642c-.084-.2164-.122-.4477-.113-.6796l.151-3.1199c.004-.0559.021-.1101.051-.1577.029-.0476.07-.087.119-.1147s.103-.0428.159-.0439.112.0117.162.0375l2.778 1.4276c.203.1079.383.2537.531.4294z"/></g><path d="m147.979 55.2953c-1.92-.5272-3.049-2.5103-2.522-4.4294.527-1.9192 2.511-3.0476 4.431-2.5205s3.049 2.5102 2.522 4.4293c-.528 1.9192-2.511 3.0477-4.431 2.5206z" fill="#f7a6a8"/><path d="m133.782 63.5169c-1.92-.5271-3.049-2.5102-2.522-4.4293.528-1.9192 2.512-3.0477 4.431-2.5205 1.92.5271 3.049 2.5102 2.522 4.4293-.527 1.9192-2.511 3.0476-4.431 2.5205z" fill="#f7a6a8"/><path d="m144.319 49.5163c1.641 2.8825 4.946 4.106 7.359 2.7337.79-.4712 1.411-1.1805 1.773-2.0262-.652-.9791-1.217-2.0131-1.689-3.0903-1.036-2.366-2.736-4.3812-4.894-5.802-.43.0932-.844.2532-1.225.4742-2.405 1.3745-2.989 4.8295-1.324 7.7106z" fill="#231f20"/><path d="m128.212 58.9964c.313.5375.661 1.0531 1.044 1.5431.674.8608 1.277 1.7746 1.804 2.7326.847.0568 1.693-.1367 2.431-.5565 2.39-1.3785 2.958-4.8624 1.318-7.7448-1.641-2.8825-4.946-4.106-7.359-2.7337-.384.2111-.733.4822-1.032.803.113 2.1004.728 4.1431 1.794 5.9563z" fill="#231f20"/><path d="m147.905 47.8569c-.433-.1189-.687-.5662-.568-.999s.566-.6872.999-.5683.688.5661.569.999c-.119.4328-.566.6872-1 .5683z" fill="#fff"/><path d="m130.573 58.3144c-.433-.1189-.688-.5661-.569-.9989.119-.4329.566-.6873.999-.5684s.688.5662.569.999-.566.6873-.999.5683z" fill="#fff"/><path d="m128.967 31.1443c.384.0628.75.2067 1.074.4221.323.2154.598.4973.804.827.254.3208.428.6968.509 1.0976s.067.8151-.042 1.2092c-.31.8167-.884 1.5062-1.632 1.9583l.712 1.1177-.921.6606-1.286-1.7583.332-.2299c.647-.4097 1.184-.9715 1.563-1.6363.129-.2833.174-.5975.131-.9056-.044-.3081-.175-.5974-.377-.8338-.124-.2094-.29-.3908-.487-.5326-.198-.1417-.423-.2408-.661-.2908-.245-.0352-.493-.0217-.732.0398-.239.0614-.464.1695-.661.3181-.425.2579-.734.6699-.863 1.1501-.044.2323-.039.4712.014.7016.054.2303.154.447.296.6362l-.991.6508c-.3-.4196-.477-.9144-.511-1.429-.031-.493.082-.9845.324-1.4149.278-.4761.661-.8818 1.122-1.1851.661-.4727 1.477-.6774 2.283-.5728zm1.931 9.4494c-.113-.021-.22-.0646-.316-.1281-.095-.0636-.177-.1457-.24-.2416-.067-.0944-.114-.2016-.138-.3149-.023-.1134-.023-.2304.001-.3436.021-.1128.065-.2202.128-.3158.064-.0955.146-.1773.242-.2403.09-.0637.192-.1078.299-.1295.108-.0217.219-.0204.327.0038.222.0492.418.1811.547.3692.129.188.182.4181.148.6436-.017.1104-.057.2159-.117.3095-.061.0936-.141.1731-.235.2332-.092.0684-.196.1174-.307.144-.111.0265-.226.0301-.339.0105z" fill="#231f20"/><path clip-rule="evenodd" d="m110.98 2.98568c-16.9278 5.56526-28.34 19.03232-28.34 41.41742 0 30.5831 21.124 44.531 48.521 44.531s48.521-13.9479 48.521-44.531c0-30.4552-21.124-44.4031-48.521-44.4031-7.122 0-13.82.942592-19.834 2.87274l5.177 11.26456 6.351-9.67617 9.364 12.05477c22.479.3716 30.052 12.6404 30.052 27.8872 0 15.4835-7.81 28.0238-31.11 28.0238s-31.11-12.5403-31.11-28.0238 7.81-27.8959 31.11-27.8959c.199 0 .397.0009.594.0027l-8.875-11.42492-6.432 9.79962zm99.177 54.13972-.053-.0988-13.384 16.6799h-1.246l-8.533-10.7305.501-5.6487 52.746-56.17564h.512l11.01-.63981v56.81545h12.29l-1.408 16.3792h-10.882v14.7158h-17.283v-14.7158h-15.285l-8.875-16.3792h24.16l.128-27.1281zm8.572 16.5811-8.684-16.0264-12.86 16.0264zm-23.719 0-8.115-10.2057-.349 3.9356v.1279l-.512 6.1422zm-166.7223-39.3093.2664.1735 10.0667 6.5546 9.9-10.9261-.128 27.1281h-24.4524l14.4334-15.9294-9.7514-6.3494-.5243 11.8531-.0136.3078-.2627-.161-10.6384-6.5221-15.77514 16.801-.896167 10.1091v.1279l-.512093 6.1422h48.3928v14.7158h17.2831v-14.7158h10.882l1.4083-16.3792h-12.2903v-56.81545l-11.01.63981h-.512l-36.7166 39.10424 10.3116 6.3218.5247-11.8628z" fill="#4fc4f9" fill-rule="evenodd"/></svg>