<?xml version="1.0" encoding="UTF-8"?>
<svg width="30px" height="35px" viewBox="0 0 30 35" version="1.1" xmlns="http://www.w3.org/2000/svg" xmlns:xlink="http://www.w3.org/1999/xlink">
    <!-- Generator: Sketch 62 (91390) - https://sketch.com -->
    <title>feature/icon/2</title>
    <desc>Created with Sketch.</desc>
    <g id="light" stroke="none" stroke-width="1" fill="none" fill-rule="evenodd">
        <g id="Measure" transform="translate(-653.000000, -590.000000)" fill="#4FC4F9">
            <g id="icon/loading" transform="translate(648.000000, 585.000000)">
                <path d="M26.0398149,15.8059623 L29.5336106,10.6499282 C29.981542,9.98863252 29.845335,9.06274453 29.2291276,8.5820377 C28.6129203,8.10133087 27.7505058,8.24787429 27.3025745,8.90879993 L23.8087788,14.064834 C23.3608474,14.7261297 23.4970544,15.6516476 24.1132618,16.1323545 C24.3580895,16.3236751 24.6418828,16.4158198 24.9232623,16.4158198 C25.3494696,16.4158198 25.7698147,16.2041459 26.0398149,15.8059623 M28.3939546,20.8354362 L34.0463725,18.8659814 C34.7708558,18.613231 35.1674079,17.7783776 34.9322353,17.0008833 C34.6967179,16.223019 33.9194759,15.7989312 33.1943029,16.0502013 L27.5422298,18.0196561 C26.8177465,18.2724065 26.4208497,19.10726 26.6563671,19.8847542 C26.8456776,20.5105242 27.3863676,20.9083378 27.9677474,20.9083378 C28.1091268,20.9083378 28.2525752,20.884654 28.3939546,20.8354362 M34.9322353,27.4062064 C35.1674079,26.6287121 34.7708558,25.7938587 34.0463725,25.5411083 L28.3939546,23.5716535 C27.6698161,23.3189031 26.8915397,23.7448412 26.6563671,24.5223354 C26.4208497,25.2998297 26.8177465,26.1350532 27.5422298,26.3874335 L33.1943029,28.3572584 C33.3360272,28.4064762 33.4794756,28.42979 33.620855,28.42979 C34.2022347,28.42979 34.7429248,28.0319764 34.9322353,27.4062064 M29.2291276,35.825052 C29.845335,35.3439751 29.981542,34.4184571 29.5336106,33.7571615 L26.0398149,28.6014974 C25.5922284,27.9405718 24.7298139,27.7940284 24.1132618,28.2747352 C23.4970544,28.7558121 23.3608474,29.68133 23.8087788,30.3426257 L27.3025745,35.4982897 C27.5725747,35.8968434 27.9929198,36.1081472 28.419127,36.1081472 C28.7005065,36.1081472 28.9842998,36.0160025 29.2291276,35.825052 M21.3794666,37.5609994 L21.3794666,31.1878408 C21.3794666,30.3703801 20.76188,29.7076042 20.0001553,29.7076042 C19.2384306,29.7076042 18.6208439,30.3703801 18.6208439,31.1878408 L18.6208439,37.5609994 C18.6208439,38.3784601 19.2384306,39.041236 20.0001553,39.041236 C20.76188,39.041236 21.3794666,38.3784601 21.3794666,37.5609994 M12.6977361,35.4982897 L16.1911869,30.3426257 C16.6394631,29.68133 16.5032561,28.7558121 15.8870488,28.2747352 C15.2708414,27.7940284 14.408427,27.9405718 13.9604956,28.6014974 L10.4666999,33.7571615 C10.0187686,34.4184571 10.1549756,35.3439751 10.7708381,35.825052 C11.0160107,36.0160025 11.299804,36.1081472 11.5811835,36.1081472 C12.0073907,36.1081472 12.4277359,35.8968434 12.6977361,35.4982897 M6.80566274,28.3572584 L12.4580807,26.3874335 C13.182564,26.1350532 13.579116,25.2998297 13.3439434,24.5223354 C13.1087709,23.7448412 12.3311841,23.3207534 11.6060111,23.5716535 L5.95393798,25.5411083 C5.22945468,25.7938587 4.83255784,26.6287121 5.06773042,27.4062064 C5.25738574,28.0319764 5.79807579,28.42979 6.37945553,28.42979 C6.52083495,28.42979 6.66428333,28.4061062 6.80566274,28.3572584 M13.3439434,19.8847542 C13.579116,19.10726 13.182564,18.2724065 12.4580807,18.0196561 L6.80566274,16.0502013 C6.08117945,15.7974509 5.30324784,16.223019 5.06773042,17.0008833 C4.83255784,17.7783776 5.22945468,18.613231 5.95393798,18.8659814 L11.6060111,20.8354362 C11.7477354,20.8850241 11.8911837,20.9083378 12.0325632,20.9083378 C12.6139429,20.9083378 13.154633,20.5101542 13.3439434,19.8847542 M15.8870488,16.1323545 C16.5032561,15.6516476 16.6394631,14.7261297 16.1911869,14.064834 L12.6977361,8.90879993 C12.2498047,8.24750423 11.3870454,8.10096081 10.7708381,8.5820377 C10.1549756,9.06274453 10.0187686,9.98863252 10.4666999,10.6499282 L13.9604956,15.8059623 C14.230151,16.204516 14.6504961,16.4158198 15.0770482,16.4158198 C15.3580829,16.4158198 15.642221,16.3236751 15.8870488,16.1323545 M20.0001553,14.6998555 C19.2384306,14.6998555 18.6208439,14.0370796 18.6208439,13.2196189 L18.6208439,6.84609025 C18.6208439,6.02862959 19.2384306,5.36585366 20.0001553,5.36585366 C20.76188,5.36585366 21.3794666,6.02862959 21.3794666,6.84609025 L21.3794666,13.2196189 C21.3794666,14.0370796 20.76188,14.6998555 20.0001553,14.6998555" id="loading"></path>
            </g>
        </g>
    </g>
</svg>