<?xml version="1.0" encoding="UTF-8"?>
<svg width="34px" height="28px" viewBox="0 0 34 28" version="1.1" xmlns="http://www.w3.org/2000/svg" xmlns:xlink="http://www.w3.org/1999/xlink">
    <!-- Generator: Sketch 62 (91390) - https://sketch.com -->
    <title>feature/icon/9</title>
    <desc>Created with Sketch.</desc>
    <g id="light" stroke="none" stroke-width="1" fill="none" fill-rule="evenodd">
        <g id="Measure" transform="translate(-711.000000, -719.000000)" fill="#4FC4F9">
            <g id="icon/cloud" transform="translate(708.000000, 710.853659)">
                <path d="M30,35.1761518 C33.6805556,35.1761518 36.6666667,31.9715447 36.6666667,28.0216802 C36.6666667,24.6307588 34.4618056,21.7987805 31.5104167,21.053523 C31.9618056,20.3082656 32.2222222,19.4325881 32.2222222,18.4823848 C32.2222222,15.8553523 30.2256944,13.7127371 27.7777778,13.7127371 C26.6666667,13.7127371 25.6597222,14.1412602 24.8958333,14.8678862 C23.5590278,11.3838076 20.3819444,8.94308943 16.6666667,8.94308943 C11.7534722,8.94308943 7.77777778,13.2096883 7.77777778,18.4823848 C7.77777778,18.7432249 7.79513889,19.0226965 7.8125,19.2835366 C5.17361111,20.6063686 3.33333333,23.4942412 3.33333333,26.8292683 C3.33333333,31.4312331 6.82291667,35.1761518 11.1111111,35.1761518 L30,35.1761518 Z" id=""></path>
            </g>
        </g>
    </g>
</svg>