<?xml version="1.0" encoding="UTF-8"?>
<svg width="24px" height="24px" viewBox="0 0 24 24" version="1.1" xmlns="http://www.w3.org/2000/svg" xmlns:xlink="http://www.w3.org/1999/xlink">
    <!-- Generator: Sketch 62 (91390) - https://sketch.com -->
    <title>icon/features/accessable</title>
    <desc>Created with Sketch.</desc>
    <g id="icon/features/accessable" stroke="none" stroke-width="1" fill="none" fill-rule="evenodd">
        <path d="M13.0000119,4.80803787 L13.0000119,3.71428657 C13.0000119,3.3236611 12.6763508,3 12.2857254,3 C11.8950999,3 11.5714388,3.3236611 11.5714388,3.71428657 L11.5714388,4.80803787 C11.8058141,4.79687714 12.0513501,4.78571641 12.2857254,4.78571641 C12.5201006,4.78571641 12.7656366,4.79687714 13.0000119,4.80803787 Z M15.5334971,13.3125123 C15.6785865,13.3125123 15.7678724,13.2455479 15.8459975,13.1227799 C15.9687655,12.9330476 16.069212,12.7321545 16.2031407,12.5424221 C16.80582,11.7053675 17.7209997,11.0468846 18.7812688,11.0468846 C19.7076092,11.0468846 20.3102885,11.4709922 20.9576107,12.0736715 C21.0357358,12.1406359 21.1138609,12.1852788 21.2143074,12.1852788 C21.4040398,12.1852788 21.5714507,12.0178679 21.5714507,11.8281355 C21.5714507,11.7946533 21.5714507,11.7723319 21.56029,11.7500104 C20.5558245,7.5312554 16.437516,5.1428597 12.2857254,5.1428597 C8.11161324,5.1428597 4.03794767,7.5312554 3.01116073,11.7500104 C3,11.7723319 3,11.7946533 3,11.8281355 C3,12.0178679 3.16741091,12.1852788 3.35714328,12.1852788 C3.45758983,12.1852788 3.53571492,12.1406359 3.61384002,12.0736715 C4.26116222,11.4709922 4.86384151,11.0468846 5.7901819,11.0468846 C6.85045102,11.0468846 7.76563068,11.7053675 8.36830997,12.5424221 C8.5022387,12.7321545 8.60268525,12.9330476 8.72545325,13.1227799 C8.80357835,13.2455479 8.89286417,13.3125123 9.03795363,13.3125123 C9.19420381,13.3125123 9.28348963,13.2455479 9.36161473,13.1227799 C9.48438273,12.9330476 9.58482928,12.7321545 9.71875801,12.5424221 C10.3214373,11.7053675 11.2254562,11.0468846 12.2857254,11.0468846 C13.3459945,11.0468846 14.2500134,11.7053675 14.8526927,12.5424221 C14.9866214,12.7321545 15.087068,12.9330476 15.209836,13.1227799 C15.2879611,13.2455479 15.3772469,13.3125123 15.5334971,13.3125123 Z M10.1428657,20.8571641 C11.6942068,20.8571641 13.0000119,19.551359 13.0000119,18.0000179 L13.0000119,11.5267959 C12.7656366,11.4486708 12.5312614,11.4040279 12.2857194,11.4040279 C12.0401893,11.4040279 11.8058141,11.4486708 11.5714388,11.5267959 L11.5714388,18.0000179 C11.5714388,18.7477866 10.8906344,19.428591 10.1428657,19.428591 C9.39509691,19.428591 8.71429253,18.7477866 8.71429253,18.0000179 C8.71429253,17.6093924 8.39063143,17.2857313 8.00000596,17.2857313 C7.60938049,17.2857313 7.28571939,17.6093924 7.28571939,18.0000179 C7.28571939,19.551359 8.59152452,20.8571641 10.1428657,20.8571641 Z" id="" fill="#4FC4F9"></path>
    </g>
</svg>