<?xml version="1.0" encoding="UTF-8"?>
<svg width="24px" height="24px" viewBox="0 0 24 24" version="1.1" xmlns="http://www.w3.org/2000/svg" xmlns:xlink="http://www.w3.org/1999/xlink">
    <!-- Generator: Sketch 62 (91390) - https://sketch.com -->
    <title>icon/features/cloud</title>
    <desc>Created with Sketch.</desc>
    <g id="icon/features/cloud" stroke="none" stroke-width="1" fill="none" fill-rule="evenodd">
        <path d="M18,19.6666667 C20.2083333,19.6666667 22,17.875 22,15.6666667 C22,13.7708333 20.6770833,12.1875 18.90625,11.7708333 C19.1770833,11.3541667 19.3333333,10.8645833 19.3333333,10.3333333 C19.3333333,8.86458333 18.1354167,7.66666667 16.6666667,7.66666667 C16,7.66666667 15.3958333,7.90625 14.9375,8.3125 C14.1354167,6.36458333 12.2291667,5 10,5 C7.05208333,5 4.66666667,7.38541667 4.66666667,10.3333333 C4.66666667,10.4791667 4.67708333,10.6354167 4.6875,10.78125 C3.10416667,11.5208333 2,13.1354167 2,15 C2,17.5729167 4.09375,19.6666667 6.66666667,19.6666667 L18,19.6666667 Z" id="" fill="#4FC4F9"></path>
    </g>
</svg>