<?xml version="1.0" encoding="UTF-8"?>
<svg width="24px" height="24px" viewBox="0 0 24 24" version="1.1" xmlns="http://www.w3.org/2000/svg" xmlns:xlink="http://www.w3.org/1999/xlink">
    <!-- Generator: Sketch 62 (91390) - https://sketch.com -->
    <title>icon/features/cost</title>
    <desc>Created with Sketch.</desc>
    <g id="icon/features/cost" stroke="none" stroke-width="1" fill="none" fill-rule="evenodd">
        <path d="M12.2608696,21 C15.7214674,21 18.5217391,18.1997283 18.5217391,14.7391304 C18.5217391,13.5040761 18.1548913,12.3546196 17.53125,11.3763587 C16.9076087,10.3980978 14.2907609,7.08423913 13.3002717,3.7826087 C13.1535326,3.25679348 12.6521739,3 12.2608696,3 C11.8695652,3 11.3804348,3.25679348 11.2214674,3.7826087 C10.2309783,7.08423913 7.61413043,10.3980978 6.99048913,11.3763587 C6.37907609,12.3546196 6,13.5040761 6,14.7391304 C6,18.1997283 8.80027174,21 12.2608696,21 Z M10.6956522,17.8695652 C9.82744565,17.8695652 9.13043478,17.1725543 9.13043478,16.3043478 C9.13043478,15.9986413 9.22826087,15.705163 9.375,15.4605978 C9.53396739,15.2160326 10.1820652,14.3845109 10.4388587,13.5652174 C10.4755435,13.4307065 10.5978261,13.3695652 10.6956522,13.3695652 C10.7934783,13.3695652 10.9157609,13.4307065 10.9524457,13.5652174 C11.2092391,14.3845109 11.857337,15.2160326 12.0163043,15.4605978 C12.1630435,15.705163 12.2608696,15.9986413 12.2608696,16.3043478 C12.2608696,17.1725543 11.5638587,17.8695652 10.6956522,17.8695652 Z" id="ïƒ" fill="#4FC4F9"></path>
    </g>
</svg>