<?xml version="1.0" encoding="UTF-8"?>
<svg width="29px" height="32px" viewBox="0 0 29 32" version="1.1" xmlns="http://www.w3.org/2000/svg" xmlns:xlink="http://www.w3.org/1999/xlink">
    <!-- Generator: Sketch 62 (91390) - https://sketch.com -->
    <title>feature/icon/8</title>
    <desc>Created with Sketch.</desc>
    <g id="light" stroke="none" stroke-width="1" fill="none" fill-rule="evenodd">
        <g id="Measure" transform="translate(-653.000000, -716.000000)" fill="#4FC4F9">
            <g id="icon/setting" transform="translate(648.000000, 710.853659)">
                <path d="M21.3504659,36.5389113 C21.6852877,36.5389113 21.9457047,36.299364 22.0201096,35.9799675 C22.317729,34.7822309 22.4293363,33.4846829 22.5595447,32.266984 C23.1361823,32.0673612 23.7128199,31.8078516 24.2522551,31.5084175 L26.8192224,33.6643434 C26.9680321,33.7641548 27.1354431,33.8440039 27.302854,33.8440039 C27.9352952,33.8440039 30.4464589,30.9095492 30.892888,30.2707563 C31.0044953,30.1310204 31.0602989,29.9912844 31.0602989,29.8116239 C31.0602989,29.6319635 30.9858941,29.452303 30.8742868,29.312567 C30.1860419,28.4142646 29.5163983,27.5359244 28.883957,26.5577728 C29.1815764,25.9788668 29.404791,25.3799985 29.6094043,24.7412056 L33.0506287,24.1822618 C33.3482481,24.122375 33.5714626,23.763054 33.5714626,23.4636199 L33.5714626,19.0319944 C33.5714626,18.6926357 33.3482481,18.3732392 33.0320275,18.3133524 L29.6280055,17.7544086 C29.4419934,17.0956535 29.1815764,16.4368984 28.8653558,15.7981055 C29.4977971,14.8598785 30.1860419,13.9815383 30.8184832,13.0632736 C30.9114892,12.9235376 30.9672929,12.7838017 30.9672929,12.6041412 C30.9672929,12.444443 30.9300904,12.2847447 30.8370844,12.1649711 C30.0558334,10.9871967 28.7537486,9.74953557 27.7678843,8.771384 C27.6376758,8.65161034 27.4702649,8.57176123 27.302854,8.57176123 C27.1354431,8.57176123 26.9680321,8.63164806 26.8564249,8.75142172 L24.2150527,10.8873854 C23.6756175,10.5879512 23.1175811,10.3484039 22.5409435,10.1487811 L22.0201096,6.47572214 C21.9829071,6.13636344 21.6852877,5.87685383 21.3504659,5.87685383 L17.2209967,5.87685383 C16.8861749,5.87685383 16.6257579,6.11640116 16.5513531,6.43579759 C16.2537337,7.63353421 16.1421264,8.93108221 16.0119179,10.1487811 C15.4352803,10.3484039 14.8586427,10.6079135 14.3192075,10.9073476 L11.7522402,8.771384 C11.6034305,8.65161034 11.4360196,8.57176123 11.2686087,8.57176123 C10.6361674,8.57176123 8.12500373,11.4862537 7.67857462,12.1450088 C7.58556856,12.2847447 7.51116371,12.4244807 7.51116371,12.6041412 C7.51116371,12.7838017 7.58556856,12.9434999 7.69717583,13.0832358 C8.3854207,13.9815383 9.05506436,14.8798408 9.68750559,15.8380301 C9.38988619,16.4368984 9.14807042,17.0357667 8.96205829,17.6745595 L5.50223274,18.2335033 C5.22321455,18.2933901 5,18.6527111 5,18.9521453 L5,23.3837708 C5,23.7231295 5.22321455,24.0425259 5.53943517,24.1024127 L8.94345708,24.6413942 C9.12946921,25.3201116 9.38988619,25.9788668 9.7061068,26.6176596 C9.07366557,27.5558866 8.3854207,28.4342268 7.75297947,29.3524916 C7.65997341,29.4922275 7.60416977,29.6319635 7.60416977,29.8116239 C7.60416977,29.9713222 7.6413722,30.1310204 7.73437826,30.2707563 C8.51562919,31.4285684 9.81771408,32.6662296 10.8035783,33.6244189 C10.9337868,33.7641548 11.1011977,33.8440039 11.2686087,33.8440039 C11.4360196,33.8440039 11.6034305,33.7841171 11.733639,33.6643434 L14.35641,31.5283798 C14.8958451,31.8278139 15.4538815,32.0673612 16.0305191,32.266984 L16.5513531,35.940043 C16.5885555,36.2794017 16.8861749,36.5389113 17.2209967,36.5389113 L21.3504659,36.5389113 Z M19.2857313,26.3182255 C16.6629603,26.3182255 14.5238209,24.0225636 14.5238209,21.2078826 C14.5238209,18.3932015 16.6629603,16.0975397 19.2857313,16.0975397 C21.9085023,16.0975397 24.0476418,18.3932015 24.0476418,21.2078826 C24.0476418,24.0225636 21.9085023,26.3182255 19.2857313,26.3182255 Z" id=""></path>
            </g>
        </g>
    </g>
</svg>