<?xml version="1.0" encoding="UTF-8"?>
<svg width="24px" height="24px" viewBox="0 0 24 24" version="1.1" xmlns="http://www.w3.org/2000/svg" xmlns:xlink="http://www.w3.org/1999/xlink">
    <!-- Generator: Sketch 62 (91390) - https://sketch.com -->
    <title>icon/features/crud</title>
    <desc>Created with Sketch.</desc>
    <g id="icon/features/crud" stroke="none" stroke-width="1" fill="none" fill-rule="evenodd">
        <path d="M19.5714507,10.2254562 C19.6272543,10.2254562 20.8214522,9.51116967 20.9553809,9.43304458 C20.9888631,9.41072312 21.0000238,9.38840166 21.0000238,9.35491948 C21.0000238,9.15402639 20.5312733,8.03795363 20.4308267,7.81473907 C20.5647555,7.63616743 20.6763627,7.44643506 20.7656486,7.23438124 C20.9888631,7.21205978 22.428597,7.0558096 22.428597,6.88839868 L22.428597,5.32589682 C22.428597,5.15848591 20.9888631,5.00223572 20.7656486,4.97991427 C20.6763627,4.77902117 20.5647555,4.57812807 20.4308267,4.39955643 C20.5312733,4.17634188 21.0000238,3.06026912 21.0000238,2.85937602 C21.0000238,2.83705457 20.9888631,2.80357239 20.9553809,2.78125093 C20.8214522,2.70312584 19.6272543,2 19.5714507,2 L19.5044863,2.02232146 C19.1250216,2.40178619 18.7901998,2.83705457 18.4776994,3.27232295 C18.3660921,3.26116222 18.2544849,3.25000149 18.1428776,3.25000149 C18.0312703,3.25000149 17.919663,3.26116222 17.8080558,3.27232295 C17.6964485,3.10491203 16.8593939,2 16.7143044,2 C16.6585008,2 15.464303,2.71428657 15.3303742,2.78125093 C15.296892,2.80357239 15.2857313,2.83705457 15.2857313,2.85937602 C15.2857313,3.04910839 15.7544819,4.17634188 15.8549284,4.39955643 C15.7209997,4.57812807 15.6093924,4.77902117 15.5201066,4.97991427 C15.296892,5.00223572 13.8571582,5.15848591 13.8571582,5.32589682 L13.8571582,6.88839868 C13.8571582,7.0558096 15.296892,7.21205978 15.5201066,7.23438124 C15.6093924,7.44643506 15.7209997,7.63616743 15.8549284,7.81473907 C15.7544819,8.03795363 15.2857313,9.16518711 15.2857313,9.35491948 C15.2857313,9.37724094 15.296892,9.41072312 15.3303742,9.43304458 C15.464303,9.51116967 16.6585008,10.2254562 16.7143044,10.2254562 C16.8593939,10.2254562 17.6964485,9.10938348 17.8080558,8.94197256 C17.919663,8.95313329 18.0312703,8.96429402 18.1428776,8.96429402 C18.2544849,8.96429402 18.3660921,8.95313329 18.4776994,8.94197256 C18.5893067,9.10938348 19.4263613,10.2254562 19.5714507,10.2254562 Z M18.1428776,7.53572088 C17.3616266,7.53572088 16.7143044,6.89955941 16.7143044,6.10714775 C16.7143044,5.32589682 17.3616266,4.67857462 18.1428776,4.67857462 C18.9241285,4.67857462 19.5714507,5.32589682 19.5714507,6.10714775 C19.5714507,6.88839868 18.9352892,7.53572088 18.1428776,7.53572088 Z M9.18081332,18.9643059 C9.33706351,18.9643059 9.47099224,18.8526987 9.51563515,18.6964485 C9.66072461,18.1495728 9.71652825,17.5357328 9.77233189,16.9665357 C10.0736715,16.8772499 10.3526897,16.7656426 10.6317079,16.6205531 L11.9151916,17.6250186 C11.9821559,17.6696615 12.060281,17.7031437 12.1495669,17.7031437 C12.473228,17.7031437 13.7232295,16.341535 13.946444,16.0401953 C14.0022476,15.9843917 14.0245691,15.9062666 14.0245691,15.8281415 C14.0245691,15.7388557 13.9910869,15.6718913 13.946444,15.6049269 C13.5893007,15.1808193 13.2544789,14.7678724 12.9419785,14.3214433 C13.087068,14.0424251 13.209836,13.7634069 13.2991218,13.473228 L15.0290346,13.2053705 C15.174124,13.183049 15.2857313,13.0156381 15.2857313,12.8705487 L15.2857313,10.8058141 C15.2857313,10.6495639 15.174124,10.5044744 15.0178739,10.4709922 L13.3214433,10.2142955 C13.2209967,9.90179513 13.087068,9.60045549 12.9419785,9.29911584 C13.2544789,8.86384747 13.5893007,8.46206127 13.9129618,8.0267929 C13.9576047,7.95982853 13.9910869,7.89286417 13.9910869,7.81473907 C13.9910869,7.5022387 12.6741211,6.29688012 12.3839421,6.02902266 C12.3169778,5.97321902 12.2388527,5.93973684 12.1495669,5.93973684 C12.0714418,5.93973684 11.9933167,5.96205829 11.9263523,6.01786193 L10.6093865,7.01116669 C10.341529,6.87723796 10.0625108,6.75446995 9.77233189,6.66518413 L9.51563515,4.95759281 C9.4933137,4.80134263 9.33706351,4.67857462 9.18081332,4.67857462 L7.10491799,4.67857462 C6.94866781,4.67857462 6.81473907,4.7901819 6.77009616,4.94643208 C6.62500671,5.49330774 6.56920307,6.10714775 6.51339943,6.66518413 C6.21205978,6.76563068 5.93304159,6.87723796 5.65402341,7.02232742 L4.37053973,6.01786193 C4.30357537,5.97321902 4.22545027,5.93973684 4.13616445,5.93973684 C3.81250335,5.93973684 2.56250186,7.29018488 2.33928731,7.59152452 C2.28348367,7.65848889 2.26116222,7.73661398 2.26116222,7.81473907 C2.26116222,7.89286417 2.2946444,7.97098926 2.33928731,8.03795363 C2.69643059,8.46206127 3.03125242,8.8750082 3.34375279,9.3214373 C3.19866334,9.60045549 3.07589533,9.87947368 2.98660951,10.1696526 L1.25669673,10.4375101 C1.11160728,10.4598315 1,10.6272424 1,10.7723319 L1,12.8370665 C1,12.9933167 1.11160728,13.1384061 1.26785746,13.1607276 L2.96428806,13.4285851 C3.0647346,13.7410854 3.19866334,14.0424251 3.35491352,14.3437647 C3.03125242,14.7790331 2.69643059,15.19198 2.37276949,15.6160877 C2.32812658,15.683052 2.2946444,15.7500164 2.2946444,15.8281415 C2.2946444,16.1518026 3.61161026,17.3460004 3.90178917,17.6138579 C3.96875354,17.6696615 4.04687863,17.7031437 4.13616445,17.7031437 C4.21428955,17.7031437 4.30357537,17.6808223 4.359379,17.6250186 L5.67634486,16.6317139 C5.94420232,16.7656426 6.22322051,16.8884106 6.51339943,16.9776964 L6.77009616,18.6852877 C6.79241762,18.8415379 6.94866781,18.9643059 7.10491799,18.9643059 L9.18081332,18.9643059 Z M8.14286566,14.6785865 C6.56920307,14.6785865 5.28571939,13.3951029 5.28571939,11.8214403 C5.28571939,10.2477777 6.56920307,8.96429402 8.14286566,8.96429402 C9.71652825,8.96429402 11.0000119,10.2477777 11.0000119,11.8214403 C11.0000119,13.3951029 9.71652825,14.6785865 8.14286566,14.6785865 Z M19.5714507,21.6540413 C19.6272543,21.6540413 20.8214522,20.9397547 20.9553809,20.8616296 C20.9888631,20.8393082 21.0000238,20.8169867 21.0000238,20.7835045 C21.0000238,20.5826114 20.5312733,19.4665387 20.4308267,19.2433241 C20.5647555,19.0647525 20.6763627,18.8750201 20.7656486,18.6629663 C20.9888631,18.6406448 22.428597,18.4843947 22.428597,18.3169837 L22.428597,16.7544819 C22.428597,16.587071 20.9888631,16.4308208 20.7656486,16.4084993 C20.6763627,16.2076062 20.5647555,16.0067131 20.4308267,15.8281415 C20.5312733,15.6049269 21.0000238,14.4888542 21.0000238,14.2879611 C21.0000238,14.2656396 20.9888631,14.2321574 20.9553809,14.209836 C20.8214522,14.1317109 19.6272543,13.4285851 19.5714507,13.4285851 L19.5044863,13.4509065 C19.1250216,13.8303712 18.7901998,14.2656396 18.4776994,14.700908 C18.3660921,14.6897473 18.2544849,14.6785865 18.1428776,14.6785865 C18.0312703,14.6785865 17.919663,14.6897473 17.8080558,14.700908 C17.6964485,14.5334971 16.8593939,13.4285851 16.7143044,13.4285851 C16.6585008,13.4285851 15.464303,14.1428716 15.3303742,14.209836 C15.296892,14.2321574 15.2857313,14.2656396 15.2857313,14.2879611 C15.2857313,14.4776934 15.7544819,15.6049269 15.8549284,15.8281415 C15.7209997,16.0067131 15.6093924,16.2076062 15.5201066,16.4084993 C15.296892,16.4308208 13.8571582,16.587071 13.8571582,16.7544819 L13.8571582,18.3169837 C13.8571582,18.4843947 15.296892,18.6406448 15.5201066,18.6629663 C15.6093924,18.8750201 15.7209997,19.0647525 15.8549284,19.2433241 C15.7544819,19.4665387 15.2857313,20.5937722 15.2857313,20.7835045 C15.2857313,20.805826 15.296892,20.8393082 15.3303742,20.8616296 C15.464303,20.9397547 16.6585008,21.6540413 16.7143044,21.6540413 C16.8593939,21.6540413 17.6964485,20.5379685 17.8080558,20.3705576 C17.919663,20.3817183 18.0312703,20.3928791 18.1428776,20.3928791 C18.2544849,20.3928791 18.3660921,20.3817183 18.4776994,20.3705576 C18.5893067,20.5379685 19.4263613,21.6540413 19.5714507,21.6540413 Z M18.1428776,18.9643059 C17.3616266,18.9643059 16.7143044,18.3281445 16.7143044,17.5357328 C16.7143044,16.7544819 17.3616266,16.1071597 18.1428776,16.1071597 C18.9241285,16.1071597 19.5714507,16.7544819 19.5714507,17.5357328 C19.5714507,18.3169837 18.9352892,18.9643059 18.1428776,18.9643059 Z" id="" fill="#4FC4F9"></path>
    </g>
</svg>