<?xml version="1.0" encoding="UTF-8"?>
<svg width="31px" height="34px" viewBox="0 0 31 34" version="1.1" xmlns="http://www.w3.org/2000/svg" xmlns:xlink="http://www.w3.org/1999/xlink">
    <!-- Generator: Sketch 62 (91390) - https://sketch.com -->
    <title>feature/icon/5</title>
    <desc>Created with Sketch.</desc>
    <defs>
        <path d="M33.5714626,38.5830826 C34.8735475,38.5830826 35.9524179,37.4252705 35.9524179,36.0279111 C35.9524179,35.3491937 35.6920009,34.6904386 35.264173,34.2313062 L28.883957,27.3842452 C30.3906553,25.0486588 31.1905074,22.25394 31.1905074,19.4192967 C31.1905074,11.6539709 25.3311254,5.36585366 18.0952537,5.36585366 C10.859382,5.36585366 5,11.6539709 5,19.4192967 C5,27.1846224 10.859382,33.4727397 18.0952537,33.4727397 C20.7366259,33.4727397 23.3407957,32.6143618 25.5171376,30.9974173 L31.8973535,37.824516 C32.3251814,38.3036107 32.9390214,38.5830826 33.5714626,38.5830826 Z M18.0952537,28.3623968 C13.5007542,28.3623968 9.76191044,24.3499791 9.76191044,19.4192967 C9.76191044,14.4886142 13.5007542,10.4761966 18.0952537,10.4761966 C22.6897532,10.4761966 26.428597,14.4886142 26.428597,19.4192967 C26.428597,24.3499791 22.6897532,28.3623968 18.0952537,28.3623968 Z" id="path-1"></path>
    </defs>
    <g id="light" stroke="none" stroke-width="1" fill="none" fill-rule="evenodd">
        <g id="Measure" transform="translate(-653.000000, -653.000000)">
            <g id="icon/search" transform="translate(648.000000, 647.926829)">
                <mask id="mask-2" fill="white">
                    <use xlink:href="#path-1"></use>
                </mask>
                <use id="Mask" fill="#4FC4F9" fill-rule="evenodd" xlink:href="#path-1"></use>
            </g>
        </g>
    </g>
</svg>