<?xml version="1.0" encoding="UTF-8"?>
<svg width="30px" height="32px" viewBox="0 0 30 32" version="1.1" xmlns="http://www.w3.org/2000/svg" xmlns:xlink="http://www.w3.org/1999/xlink">
    <!-- Generator: Sketch 62 (91390) - https://sketch.com -->
    <title>feature/icon/3</title>
    <desc>Created with Sketch.</desc>
    <g id="light" stroke="none" stroke-width="1" fill="none" fill-rule="evenodd">
        <g id="Measure" transform="translate(-714.000000, -590.000000)" fill="#4FC4F9">
            <g id="icon/refresh" transform="translate(708.000000, 585.000000)">
                <path d="M11.2983686,18.6527111 C11.5773868,18.6527111 11.7633989,18.4730506 11.856405,18.1935787 C12.1726256,17.3950877 12.3958402,16.6365211 12.8422693,15.8579923 C14.572182,12.8237262 17.6413821,10.9871967 20.952398,10.9871967 C23.3519544,10.9871967 25.677106,11.9653483 27.4442212,13.7220287 L24.8772539,16.4768229 C24.6540393,16.7163702 24.5238308,17.0357667 24.5238308,17.3751254 C24.5238308,18.0738051 25.063266,18.6527111 25.7143084,18.6527111 L34.0476517,18.6527111 C34.6986941,18.6527111 35.2381293,18.0738051 35.2381293,17.3751254 L35.2381293,8.43202529 C35.2381293,7.73334559 34.6986941,7.15443956 34.0476517,7.15443956 C33.7314311,7.15443956 33.4338117,7.2941755 33.2105971,7.53372282 L30.7924395,10.1088566 C28.1510673,7.43391144 24.5982357,5.87685383 20.952398,5.87685383 C14.0885505,5.87685383 8.60119278,10.787574 7.00148849,17.8741823 L7.00148849,18.0139182 L7.00148849,18.0139182 C7.00148849,18.353277 7.26190547,18.6527111 7.5967273,18.6527111 L11.2983686,18.6527111 Z M20.8779931,36.5389113 C27.7418406,36.5389113 33.1733947,31.6082289 34.7544978,24.5415828 C34.773099,24.5016583 34.773099,24.4417714 34.773099,24.4018469 C34.773099,24.0624882 34.512682,23.763054 34.1778602,23.763054 L30.6064273,23.763054 C30.3274092,23.763054 30.141397,23.9427145 30.048391,24.2221864 C29.7321704,25.0206775 29.5089558,25.779244 29.0625267,26.5577728 C27.3326139,29.5920389 24.2634138,31.4285684 20.952398,31.4285684 C18.5528416,31.4285684 16.22769,30.4304545 14.479176,28.6737742 L17.0275421,25.9389422 C17.2507567,25.6993949 17.3809652,25.3799985 17.3809652,25.0406397 C17.3809652,24.3419601 16.84153,23.763054 16.1904875,23.763054 L7.85714428,23.763054 C7.20610183,23.763054 6.66666667,24.3419601 6.66666667,25.0406397 L6.66666667,33.9837398 C6.66666667,34.6824195 7.20610183,35.2613256 7.85714428,35.2613256 C8.17336489,35.2613256 8.47098429,35.1215896 8.69419885,34.8820423 L11.0937553,32.3069086 C13.7351275,35.001816 17.2507567,36.5389113 20.8779931,36.5389113 Z" id=""></path>
            </g>
        </g>
    </g>
</svg>