<?xml version="1.0" encoding="UTF-8"?>
<svg width="24px" height="24px" viewBox="0 0 24 24" version="1.1" xmlns="http://www.w3.org/2000/svg" xmlns:xlink="http://www.w3.org/1999/xlink">
    <!-- Generator: Sketch 62 (91390) - https://sketch.com -->
    <title>icon/features/realtime</title>
    <desc>Created with Sketch.</desc>
    <g id="icon/features/realtime" stroke="none" stroke-width="1" fill="none" fill-rule="evenodd">
        <path d="M6.59375,10.6666667 C6.75,10.6666667 6.85416667,10.5729167 6.90625,10.4270833 C7.08333333,10.0104167 7.20833333,9.61458333 7.45833333,9.20833333 C8.42708333,7.625 10.1458333,6.66666667 12,6.66666667 C13.34375,6.66666667 14.6458333,7.17708333 15.6354167,8.09375 L14.1979167,9.53125 C14.0729167,9.65625 14,9.82291667 14,10 C14,10.3645833 14.3020833,10.6666667 14.6666667,10.6666667 L19.3333333,10.6666667 C19.6979167,10.6666667 20,10.3645833 20,10 L20,5.33333333 C20,4.96875 19.6979167,4.66666667 19.3333333,4.66666667 C19.15625,4.66666667 18.9895833,4.73958333 18.8645833,4.86458333 L17.5104167,6.20833333 C16.03125,4.8125 14.0416667,4 12,4 C8.15625,4 5.08333333,6.5625 4.1875,10.2604167 L4.1875,10.3333333 L4.1875,10.3333333 C4.1875,10.5104167 4.33333333,10.6666667 4.52083333,10.6666667 L6.59375,10.6666667 Z M11.9583333,20 C15.8020833,20 18.84375,17.4270833 19.7291667,13.7395833 C19.7395833,13.71875 19.7395833,13.6875 19.7395833,13.6666667 C19.7395833,13.4895833 19.59375,13.3333333 19.40625,13.3333333 L17.40625,13.3333333 C17.25,13.3333333 17.1458333,13.4270833 17.09375,13.5729167 C16.9166667,13.9895833 16.7916667,14.3854167 16.5416667,14.7916667 C15.5729167,16.375 13.8541667,17.3333333 12,17.3333333 C10.65625,17.3333333 9.35416667,16.8125 8.375,15.8958333 L9.80208333,14.46875 C9.92708333,14.34375 10,14.1770833 10,14 C10,13.6354167 9.69791667,13.3333333 9.33333333,13.3333333 L4.66666667,13.3333333 C4.30208333,13.3333333 4,13.6354167 4,14 L4,18.6666667 C4,19.03125 4.30208333,19.3333333 4.66666667,19.3333333 C4.84375,19.3333333 5.01041667,19.2604167 5.13541667,19.1354167 L6.47916667,17.7916667 C7.95833333,19.1979167 9.92708333,20 11.9583333,20 Z" id="" fill="#4FC4F9"></path>
    </g>
</svg>