<?xml version="1.0" encoding="UTF-8"?>
<svg width="28px" height="29px" viewBox="0 0 28 29" version="1.1" xmlns="http://www.w3.org/2000/svg" xmlns:xlink="http://www.w3.org/1999/xlink">
    <!-- Generator: Sketch 62 (91390) - https://sketch.com -->
    <title>feature/icon/7</title>
    <desc>Created with Sketch.</desc>
    <g id="light" stroke="none" stroke-width="1" fill="none" fill-rule="evenodd">
        <g id="Measure" transform="translate(-594.000000, -718.000000)" fill="#4FC4F9">
            <g id="icon/move" transform="translate(588.000000, 710.853659)">
                <path d="M33.3333333,21.5558395 C33.3333333,21.8871227 33.2101449,22.2034747 32.9910145,22.4370838 L28.8913043,26.8062885 C28.6655072,27.047363 28.3695652,27.1621456 28.0742029,27.1621456 C27.7762319,27.1621456 27.4782609,27.0280771 27.2518841,26.7832697 C26.8002899,26.2958325 26.8026087,25.4845776 27.2571014,25.000251 L29.3626087,22.7077094 L21.1594203,22.7077094 L21.1594203,31.5363273 L23.2886957,29.2720926 C23.7428986,28.787766 24.4843478,28.7902545 24.9356522,29.2776918 C25.3869565,29.764818 25.3846377,30.552743 24.9304348,31.0370696 L20.8307246,35.4106292 C20.6049275,35.6517038 20.3089855,35.7723966 20.0133333,35.7723966 C19.7176812,35.7723966 19.4214493,35.6517038 19.1953623,35.4103181 L15.0956522,31.0370696 C14.6414493,30.552432 14.6376812,29.764818 15.0889855,29.2773807 C15.5405797,28.7902545 16.2713043,28.7880771 16.7252174,29.2724037 L18.8405797,31.5372605 L18.8405797,22.7077094 L10.6373913,22.7077094 L12.7431884,24.9999399 C13.1973913,25.4845776 13.1997101,26.3191623 12.7481159,26.8065995 C12.5214493,27.0510958 12.2237681,27.1733439 11.9257971,27.1733439 C11.6304348,27.1733439 11.3344928,27.0526511 11.1084058,26.8112655 L7.00869565,22.438017 C6.78985507,22.2044079 6.66666667,21.8852563 6.66666667,21.5539731 C6.66666667,21.22269 6.78985507,20.901983 7.00869565,20.6686851 L11.1084058,16.2901485 C11.5628986,15.8061329 12.2968116,15.796801 12.7481159,16.2839272 C13.1997101,16.7713644 13.1973913,17.5359597 12.7431884,18.0202863 L10.6373913,20.2191976 L18.8405797,20.2191976 L18.8405797,11.3899576 L16.7249275,13.6545034 C16.2710145,14.13883 15.544058,14.1366525 15.0924638,13.6492153 C14.6411594,13.1620891 14.6431884,12.374164 15.0973913,11.8895263 L19.1968116,7.51627785 C19.6489855,7.03381761 20.3791304,7.03381761 20.8315942,7.51658891 L24.9298551,11.8898374 C25.384058,12.374164 25.3852174,13.1620891 24.9336232,13.6492153 C24.7069565,13.8940226 24.4075362,14.0162708 24.1095652,14.0162708 C23.813913,14.0162708 23.5147826,13.895578 23.2886957,13.6545034 L21.1594203,11.3902687 L21.1594203,20.2191976 L29.3623188,20.2191976 L27.2568116,18.0202863 C26.8026087,17.5359597 26.8002899,16.7946942 27.2518841,16.307257 C27.7031884,15.8198197 28.4373913,15.8173312 28.8915942,16.3019689 L32.9913043,20.6749063 C33.2101449,20.9082043 33.3333333,21.2245564 33.3333333,21.5558395" id="move"></path>
            </g>
        </g>
    </g>
</svg>