<?xml version="1.0" encoding="UTF-8"?>
<svg width="24px" height="24px" viewBox="0 0 24 24" version="1.1" xmlns="http://www.w3.org/2000/svg" xmlns:xlink="http://www.w3.org/1999/xlink">
    <!-- Generator: Sketch 62 (91390) - https://sketch.com -->
    <title>icon/features/scalable</title>
    <desc>Created with Sketch.</desc>
    <g id="icon/features/scalable" stroke="none" stroke-width="1" fill="none" fill-rule="evenodd">
        <path d="M21,12.0581332 C21,12.2665027 20.9168478,12.465481 20.7689348,12.6124158 L18.0016304,15.3605462 C17.8492174,15.5121766 17.6494565,15.5843723 17.450087,15.5843723 C17.2489565,15.5843723 17.0478261,15.5000462 16.8950217,15.3460679 C16.5901957,15.039481 16.5917609,14.5292201 16.8985435,14.2245897 L18.3197609,12.7826332 L12.7826087,12.7826332 L12.7826087,18.3356332 L14.2198696,16.911481 C14.5264565,16.6068505 15.0269348,16.6084158 15.3315652,16.9150027 C15.6361957,17.221394 15.6346304,17.716981 15.3280435,18.0216114 L12.5607391,20.772481 C12.4083261,20.9241114 12.2085652,21.0000245 12.009,21.0000245 C11.8094348,21.0000245 11.6094783,20.9241114 11.4568696,20.7722853 L8.68956522,18.0216114 C8.38297826,17.7167853 8.38043478,17.221394 8.68506522,16.9148071 C8.9898913,16.6084158 9.48313043,16.6070462 9.78952174,16.9116766 L11.2173913,18.3362201 L11.2173913,12.7826332 L5.68023913,12.7826332 L7.10165217,14.224394 C7.40823913,14.5292201 7.40980435,15.0541549 7.10497826,15.3607419 C6.95197826,15.5145245 6.75104348,15.5914158 6.54991304,15.5914158 C6.35054348,15.5914158 6.15078261,15.5155027 5.99817391,15.3636766 L3.23086957,12.6130027 C3.08315217,12.4660679 3,12.2653288 3,12.0569592 C3,11.8485897 3.08315217,11.6468723 3.23086957,11.5001332 L5.99817391,8.74613316 C6.30495652,8.44169838 6.80034783,8.43582881 7.10497826,8.74222011 C7.40980435,9.04880707 7.40823913,9.52972011 7.10165217,9.83435055 L5.68023913,11.2174158 L11.2173913,11.2174158 L11.2173913,5.66402446 L9.78932609,7.08837229 C9.48293478,7.39300272 8.99223913,7.39163316 8.68741304,7.0850462 C8.38278261,6.7786549 8.38415217,6.28306794 8.69073913,5.97824185 L11.4578478,3.22756794 C11.7630652,2.92411142 12.255913,2.92411142 12.5613261,3.22776359 L15.3276522,5.97843751 C15.6342391,6.28306794 15.6350217,6.7786549 15.3301957,7.0850462 C15.1771957,7.23902446 14.975087,7.31591577 14.7739565,7.31591577 C14.5743913,7.31591577 14.3724783,7.24000272 14.2198696,7.08837229 L12.7826087,5.66422011 L12.7826087,11.2174158 L18.3195652,11.2174158 L16.8983478,9.83435055 C16.5917609,9.52972011 16.5901957,9.06348098 16.8950217,8.75689403 C17.1996522,8.45030707 17.6952391,8.44874185 18.0018261,8.75356794 L20.7691304,11.5040462 C20.9168478,11.6507853 21,11.8497636 21,12.0581332" id="move" fill="#4FC4F9"></path>
    </g>
</svg>