<?xml version="1.0" encoding="UTF-8"?>
<svg width="24px" height="24px" viewBox="0 0 24 24" version="1.1" xmlns="http://www.w3.org/2000/svg" xmlns:xlink="http://www.w3.org/1999/xlink">
    <!-- Generator: Sketch 62 (91390) - https://sketch.com -->
    <title>icon/features/search</title>
    <desc>Created with Sketch.</desc>
    <defs>
        <path d="M20.1428776,21.5714507 C20.9241285,21.5714507 21.5714507,20.9241285 21.5714507,20.1428776 C21.5714507,19.7634128 21.4152005,19.3951088 21.1585038,19.1384121 L17.3303742,15.3102825 C18.2343932,14.0044774 18.7143044,12.4419755 18.7143044,10.8571522 C18.7143044,6.51562919 15.1986753,3 10.8571522,3 C6.51562919,3 3,6.51562919 3,10.8571522 C3,15.1986753 6.51562919,18.7143044 10.8571522,18.7143044 C12.4419755,18.7143044 14.0044774,18.2343932 15.3102825,17.3303742 L19.1384121,21.1473431 C19.3951088,21.4152005 19.7634128,21.5714507 20.1428776,21.5714507 Z M10.8571463,15.8571582 C8.10045251,15.8571582 5.85714626,13.6138519 5.85714626,10.8571463 C5.85714626,8.10045251 8.10045251,5.85714626 10.8571463,5.85714626 C13.6138519,5.85714626 15.8571582,8.10045251 15.8571582,10.8571463 C15.8571582,13.6138519 13.6138519,15.8571582 10.8571463,15.8571582 Z" id="path-1"></path>
    </defs>
    <g id="icon/features/search" stroke="none" stroke-width="1" fill="none" fill-rule="evenodd">
        <mask id="mask-2" fill="white">
            <use xlink:href="#path-1"></use>
        </mask>
        <use id="Mask" fill="#4FC4F9" xlink:href="#path-1"></use>
    </g>
</svg>