<?xml version="1.0" encoding="UTF-8"?>
<svg width="30px" height="27px" viewBox="0 0 30 27" version="1.1" xmlns="http://www.w3.org/2000/svg" xmlns:xlink="http://www.w3.org/1999/xlink">
    <!-- Generator: Sketch 62 (91390) - https://sketch.com -->
    <title>feature/icon/1</title>
    <desc>Created with Sketch.</desc>
    <g id="light" stroke="none" stroke-width="1" fill="none" fill-rule="evenodd">
        <g id="Measure" transform="translate(-593.000000, -593.000000)" fill="#4FC4F9">
            <g id="icon/layout" transform="translate(588.000000, 585.000000)">
                <path d="M11.9642857,15.8420441 C12.8515625,15.8420441 13.5714286,15.0695049 13.5714286,14.1173055 L13.5714286,10.6678281 C13.5714286,9.71562863 12.8515625,8.94308943 11.9642857,8.94308943 L6.60714286,8.94308943 C5.71986607,8.94308943 5,9.71562863 5,10.6678281 L5,14.1173055 C5,15.0695049 5.71986607,15.8420441 6.60714286,15.8420441 L11.9642857,15.8420441 Z M22.6785714,15.8420441 C23.5658482,15.8420441 24.2857143,15.0695049 24.2857143,14.1173055 L24.2857143,10.6678281 C24.2857143,9.71562863 23.5658482,8.94308943 22.6785714,8.94308943 L17.3214286,8.94308943 C16.4341518,8.94308943 15.7142857,9.71562863 15.7142857,10.6678281 L15.7142857,14.1173055 C15.7142857,15.0695049 16.4341518,15.8420441 17.3214286,15.8420441 L22.6785714,15.8420441 Z M33.3928571,15.8420441 C34.2801339,15.8420441 35,15.0695049 35,14.1173055 L35,10.6678281 C35,9.71562863 34.2801339,8.94308943 33.3928571,8.94308943 L28.0357143,8.94308943 C27.1484375,8.94308943 26.4285714,9.71562863 26.4285714,10.6678281 L26.4285714,14.1173055 C26.4285714,15.0695049 27.1484375,15.8420441 28.0357143,15.8420441 L33.3928571,15.8420441 Z M11.9642857,25.0406504 C12.8515625,25.0406504 13.5714286,24.2681112 13.5714286,23.3159117 L13.5714286,19.8664344 C13.5714286,18.9142349 12.8515625,18.1416957 11.9642857,18.1416957 L6.60714286,18.1416957 C5.71986607,18.1416957 5,18.9142349 5,19.8664344 L5,23.3159117 C5,24.2681112 5.71986607,25.0406504 6.60714286,25.0406504 L11.9642857,25.0406504 Z M22.6785714,25.0406504 C23.5658482,25.0406504 24.2857143,24.2681112 24.2857143,23.3159117 L24.2857143,19.8664344 C24.2857143,18.9142349 23.5658482,18.1416957 22.6785714,18.1416957 L17.3214286,18.1416957 C16.4341518,18.1416957 15.7142857,18.9142349 15.7142857,19.8664344 L15.7142857,23.3159117 C15.7142857,24.2681112 16.4341518,25.0406504 17.3214286,25.0406504 L22.6785714,25.0406504 Z M33.3928571,25.0406504 C34.2801339,25.0406504 35,24.2681112 35,23.3159117 L35,19.8664344 C35,18.9142349 34.2801339,18.1416957 33.3928571,18.1416957 L28.0357143,18.1416957 C27.1484375,18.1416957 26.4285714,18.9142349 26.4285714,19.8664344 L26.4285714,23.3159117 C26.4285714,24.2681112 27.1484375,25.0406504 28.0357143,25.0406504 L33.3928571,25.0406504 Z M11.9642857,34.2392567 C12.8515625,34.2392567 13.5714286,33.4667175 13.5714286,32.514518 L13.5714286,29.0650407 C13.5714286,28.1128412 12.8515625,27.340302 11.9642857,27.340302 L6.60714286,27.340302 C5.71986607,27.340302 5,28.1128412 5,29.0650407 L5,32.514518 C5,33.4667175 5.71986607,34.2392567 6.60714286,34.2392567 L11.9642857,34.2392567 Z M22.6785714,34.2392567 C23.5658482,34.2392567 24.2857143,33.4667175 24.2857143,32.514518 L24.2857143,29.0650407 C24.2857143,28.1128412 23.5658482,27.340302 22.6785714,27.340302 L17.3214286,27.340302 C16.4341518,27.340302 15.7142857,28.1128412 15.7142857,29.0650407 L15.7142857,32.514518 C15.7142857,33.4667175 16.4341518,34.2392567 17.3214286,34.2392567 L22.6785714,34.2392567 Z M33.3928571,34.2392567 C34.2801339,34.2392567 35,33.4667175 35,32.514518 L35,29.0650407 C35,28.1128412 34.2801339,27.340302 33.3928571,27.340302 L28.0357143,27.340302 C27.1484375,27.340302 26.4285714,28.1128412 26.4285714,29.0650407 L26.4285714,32.514518 C26.4285714,33.4667175 27.1484375,34.2392567 28.0357143,34.2392567 L33.3928571,34.2392567 Z" id=""></path>
            </g>
        </g>
    </g>
</svg>