<svg fill="none" height="245" viewBox="0 0 727 245" width="727" xmlns="http://www.w3.org/2000/svg"><g fill="#231f20"><path d="m346.577 214.382c.176.142.379.246.597.306s.446.074.67.041l.166.046 25.354-9.287c.284-.076.541-.228.745-.44.204-.211.346-.474.411-.76.071-.31.051-.633-.057-.932s-.3-.56-.552-.753l-22.329-16.26c-.308-.24-.693-.359-1.083-.334-.389.024-.756.191-1.031.468-.259.245-.431.568-.487.92s.005.712.176 1.026l5.334 13.09-8.155 10.415c-.224.243-.371.546-.425.872-.054.327-.012.661.122.964.129.246.316.458.544.618zm24.354-10.767-20.663 7.495 6.514-8.343c.241-.251.396-.571.443-.916.046-.344-.018-.694-.185-1l-4.306-10.576z"/><path d="m404.26 233.962c8.687.896 18.235-1.586 28.644-7.447 11.745-6.573 19.202-15.015 21.985-25.141 2.949-10.728.542-23.26-6.957-36.276-3.456-5.915-7.858-11.224-13.032-15.716-4.125-3.518-7.749-7.583-10.771-12.083-1.71-2.605-3.197-5.349-4.444-8.205-.568-1.316-1.215-2.597-1.938-3.834-2.504-4.351-5.841-8.166-9.82-11.227-3.98-3.062-8.524-5.311-13.372-6.618-4.849-1.307-9.908-1.647-14.889-1-4.98.647-9.784 2.268-14.138 4.77-4.353 2.502-8.171 5.836-11.235 9.812-3.064 3.977-5.314 8.517-6.622 13.362-1.308 4.846-1.648 9.901-1.001 14.878.647 4.976 2.269 9.777 4.773 14.127.897 1.547 1.9 3.03 3.001 4.439 1.764 2.29 3.337 4.722 4.701 7.271 2.82 5.052 4.884 10.491 6.126 16.142 1.376 6.133 3.663 12.026 6.785 17.483 9.176 15.528 19.769 23.947 32.204 25.263zm-16.144-124.154c5.452.595 10.685 2.474 15.27 5.482s8.39 7.059 11.105 11.821c.679 1.085 1.287 2.213 1.818 3.378 1.345 3.062 2.959 6 4.823 8.777 3.171 4.787 6.986 9.115 11.338 12.863 4.867 4.236 9.015 9.233 12.28 14.796 7.017 12.169 9.304 23.754 6.592 33.542-2.521 9.172-9.314 16.903-20.19 23-23.783 13.401-41.606 8.13-55.759-16.508-2.961-5.146-5.144-10.701-6.479-16.484-1.31-5.986-3.487-11.749-6.465-17.105-1.495-2.723-3.208-5.32-5.123-7.766-4.2-5.338-6.734-11.794-7.284-18.562-.551-6.769.907-13.549 4.189-19.494 3.283-5.946 8.246-10.793 14.269-13.937s12.84-4.445 19.599-3.741z"/><path d="m388.721 139.542c.369.568.605 1.213.688 1.885l1.672 12.844c.028.183-.001.371-.081.537-.08.167-.209.306-.369.399-.161.093-.345.136-.53.123s-.362-.081-.507-.195l-10.299-7.87c-.533-.419-.974-.942-1.296-1.538z"/><path d="m377.641 144.914c-.231-.596-.337-1.232-.312-1.871l.418-8.588c.009-.154.056-.303.138-.434.081-.131.194-.24.328-.316.135-.076.286-.118.44-.121s.307.032.444.103l7.652 3.93c.558.297 1.054.699 1.461 1.182z"/></g><path d="m407.502 152.218c-5.287-1.451-8.396-6.91-6.944-12.193 1.452-5.284 6.915-8.39 12.202-6.939s8.396 6.91 6.944 12.193-6.916 8.39-12.202 6.939z" fill="#f7a6a8"/><path d="m368.407 174.85c-5.287-1.451-8.395-6.911-6.943-12.194s6.915-8.389 12.202-6.938 8.396 6.91 6.943 12.193c-1.452 5.283-6.915 8.39-12.202 6.939z" fill="#f7a6a8"/><path d="m397.425 136.308c4.519 7.935 13.62 11.303 20.264 7.525 2.176-1.297 3.886-3.25 4.883-5.578-1.795-2.695-3.352-5.541-4.652-8.507-2.853-6.513-7.534-12.06-13.475-15.972-1.186.257-2.325.698-3.374 1.306-6.623 3.783-8.232 13.295-3.646 21.226z" fill="#231f20"/><path d="m353.07 162.405c.86 1.48 1.82 2.899 2.874 4.248 1.856 2.37 3.517 4.885 4.967 7.522 2.334.157 4.663-.376 6.696-1.532 6.582-3.794 8.146-13.385 3.627-21.32-4.518-7.934-13.62-11.303-20.263-7.525-1.059.581-2.018 1.327-2.841 2.211.309 5.782 2.003 11.405 4.94 16.396z" fill="#231f20"/><path d="m407.301 131.742c-1.193-.327-1.894-1.559-1.567-2.75.328-1.192 1.56-1.893 2.753-1.566 1.193.328 1.894 1.559 1.566 2.751-.327 1.192-1.56 1.893-2.752 1.565z" fill="#fff"/><path d="m359.57 160.529c-1.193-.327-1.894-1.559-1.567-2.751.328-1.192 1.56-1.892 2.753-1.565s1.894 1.559 1.566 2.751c-.327 1.192-1.56 1.892-2.752 1.565z" fill="#fff"/><path d="m355.147 85.7339c1.057.1729 2.065.569 2.957 1.162.892.5929 1.647 1.369 2.215 2.2765.699.8832 1.179 1.9184 1.403 3.0217.223 1.1033.183 2.2436-.117 3.3287-.853 2.2482-2.435 4.1461-4.494 5.3912l1.962 3.076-2.538 1.819-3.541-4.84.915-.633c1.781-1.1281 3.259-2.6747 4.305-4.5048.355-.7798.479-1.6446.359-2.4929-.12-.8482-.48-1.6445-1.038-2.2951-.34-.5766-.797-1.0759-1.342-1.4662-.544-.3903-1.164-.6629-1.82-.8006-.672-.0969-1.357-.0596-2.015.1095s-1.276.4667-1.819.8758c-1.171.7099-2.023 1.844-2.378 3.166-.121.6395-.107 1.2972.04 1.9312s.424 1.2305.815 1.7515l-2.73 1.7915c-.825-1.1552-1.312-2.5173-1.406-3.9337-.086-1.3572.224-2.7101.892-3.8949.764-1.3109 1.821-2.4274 3.088-3.2625 1.821-1.3012 4.067-1.8647 6.287-1.5769zm5.319 26.0131c-.31-.058-.606-.178-.87-.353-.263-.175-.488-.401-.662-.665-.184-.26-.313-.555-.378-.867s-.065-.634.001-.946c.058-.311.178-.606.354-.869.175-.263.401-.488.665-.662.247-.175.528-.297.825-.356.296-.06.603-.056.898.01.613.135 1.153.499 1.508 1.016.356.518.501 1.151.407 1.772-.046.304-.156.594-.323.852-.168.258-.388.477-.647.642-.252.188-.539.323-.845.396-.306.074-.623.083-.933.03z" fill="#231f20"/><path clip-rule="evenodd" d="m305.615 8.21864c-46.615 15.31986-78.042 52.39226-78.042 114.01436 0 84.19 58.171 122.586 133.616 122.586 75.446 0 133.616-38.396 133.616-122.586 0-83.8369-58.17-122.233-133.616-122.233-19.612 0-38.057 2.59467-54.616 7.90776l14.257 31.01204 17.485-26.6369 25.783 33.1821c61.907 1.0215 82.761 34.7959 82.761 76.768 0 42.623-21.506 77.145-85.67 77.145s-85.669-34.522-85.669-77.145c0-42.6228 21.505-76.7918 85.669-76.7918.547 0 1.09.0025 1.631.0074l-24.436-31.4482-17.708 26.9767zm273.113 149.03736-.147-.272-36.856 45.916h-3.431l-23.497-29.539 1.379-15.55 145.25-154.64068h1.41l30.319-1.76129v156.40197h33.845l-3.878 45.089h-29.967v40.51h-47.594v-40.51h-42.09l-24.442-45.089h66.532l.353-74.6782zm23.605 45.644-23.914-44.117-35.412 44.117zm-65.316 0-22.348-28.094-.961 10.834v.352l-1.41 16.908zm-459.1187-108.2115.7336.4775 27.7221 18.044 27.262-30.0772-.352 74.6782h-67.3373l39.7473-43.851-26.8541-17.4784-1.4437 32.6294-.0375.847-.7234-.443-29.2955-17.954-43.44176 46.25-2.46784 27.829v.352l-1.4102 16.908h133.264v40.51h47.594v-40.51h29.966l3.878-45.089h-33.844v-156.40197l-30.32 1.76129h-1.41l-101.109 107.64668 28.3956 17.402 1.445-32.656z" fill="#4fc4f9" fill-rule="evenodd"/></svg>