<svg width="231" height="102" viewBox="0 0 231 102" fill="none" xmlns="http://www.w3.org/2000/svg">
<g clip-path="url(#clip0)">
<path fill-rule="evenodd" clip-rule="evenodd" d="M69.982 56.1265C69.2669 55.9101 68.6023 55.5526 68.0276 55.0752C62.4608 49.7645 69.5507 43.5373 77.7323 39.9384V29.6541C79.6868 30.8133 80.6572 30.9346 80.7785 31.1233L87.0192 24.8826L84.9165 19.6663C103.261 13.3178 110.648 10.8781 125.542 8.37105L122.846 5.93139L127.24 3.35693C137.255 6.71316 146.596 7.5758 145.005 15.9462C145.436 10.3255 138.414 8.12844 127.483 5.06874L125.461 6.41663L129.504 9.71894C115.273 12.1408 101.288 15.84 87.7201 20.7716L89.4319 25.4083L82.9621 31.8242C87.0703 33.0258 91.3991 33.2703 95.6165 32.539C99.8338 31.8076 103.828 30.1199 107.291 27.6053C107.291 27.5379 107.534 27.484 107.534 27.3627C106.882 26.6091 106.165 25.9145 105.391 25.287C106.172 25.3386 106.933 25.5508 107.628 25.9102C108.323 26.2696 108.936 26.7685 109.43 27.3758C109.923 27.983 110.286 28.6855 110.496 29.4393C110.705 30.1931 110.757 30.9821 110.648 31.7568H109.057C109.223 30.7725 109.052 29.7609 108.572 28.8858C104.5 31.9562 99.7336 33.9747 94.695 34.7623C89.6565 35.55 84.5014 35.0825 79.6868 33.4012V41.3402C75.2253 42.8634 67.3941 47.7562 67.3941 52.4603C67.4591 53.2449 67.7319 53.9981 68.1843 54.6424C68.6368 55.2867 69.2526 55.799 69.9685 56.1265H69.982Z" fill="#231F20"/>
<path fill-rule="evenodd" clip-rule="evenodd" d="M107.17 54.0373C97.3306 59.1053 87.9359 63.0816 73.2709 63.6342C54.4006 63.2568 51.4757 50.6811 60.4526 37.5527C68.8768 24.2626 82.3152 12.2799 103.787 4.77223C109.852 2.69649 119.072 0.0681218 127.806 0.000727748C140.449 -0.120582 152.715 3.85567 151.92 15.8788C151.489 25.1657 138.118 38.2941 131.095 47.6888C128.049 51.7324 127.564 54.4282 132.686 54.226C151.313 53.0129 168.351 46.5296 183.986 39.8172C173.472 46.9609 118.398 74.2555 118.088 55.6278C118.383 52.9199 119.418 50.3457 121.08 48.1875C123.164 45.2871 125.414 42.5103 127.82 39.8711C131.54 35.5983 140.827 25.3409 143.994 19.1811C149.238 7.57582 137.457 6.96928 127.321 3.35695L122.86 5.93141L125.488 8.37107C110.648 10.8781 103.261 13.3178 84.9166 19.6663L86.9924 24.9096L80.7517 31.1503C80.6304 30.9616 79.6599 30.8403 77.7055 29.6811V39.9385C69.5238 43.5373 62.434 49.7645 68.0007 55.0752C68.5754 55.5526 69.24 55.9101 69.9551 56.1265H69.8877C79.9699 61.8011 107.197 54.0373 107.143 54.0373H107.17Z" fill="#F47937"/>
<path fill-rule="evenodd" clip-rule="evenodd" d="M44.3858 81.0354V76.2773H51.3543V81.0354H44.3858ZM44.6958 100.634V83.6637H51.2195V100.634H44.6958ZM190.267 85.6721C191.919 85.6721 193.502 86.3282 194.67 87.496C195.838 88.6638 196.494 90.2477 196.494 91.8993C196.494 93.5509 195.838 95.1348 194.67 96.3026C193.502 97.4704 191.919 98.1265 190.267 98.1265C188.615 98.1265 187.032 97.4704 185.864 96.3026C184.696 95.1348 184.04 93.5509 184.04 91.8993C184.04 90.2477 184.696 88.6638 185.864 87.496C187.032 86.3282 188.615 85.6721 190.267 85.6721ZM190.267 101.065C192.072 101.06 193.835 100.52 195.334 99.5135C196.833 98.5073 198 97.0798 198.688 95.411C199.377 93.7423 199.555 91.907 199.202 90.1368C198.848 88.3666 197.978 86.7407 196.702 85.4643C195.426 84.1879 193.8 83.318 192.029 82.9646C190.259 82.6111 188.424 82.7898 186.755 83.4781C185.087 84.1665 183.659 85.3336 182.653 86.8323C181.647 88.331 181.107 90.0941 181.101 91.8993C181.098 93.1039 181.332 94.2974 181.792 95.411C182.251 96.5247 182.926 97.5365 183.778 98.3883C184.63 99.2401 185.642 99.9151 186.755 100.374C187.869 100.834 189.062 101.068 190.267 101.065ZM156.988 100.634H159.859V97.9378H156.988V100.634ZM178.729 98.3961C177.903 99.2442 176.916 99.9193 175.826 100.382C174.736 100.845 173.565 101.086 172.381 101.092C170.019 101.001 167.785 99.9993 166.147 98.2967C164.508 96.594 163.593 94.3229 163.593 91.9599C163.593 89.597 164.508 87.3259 166.147 85.6232C167.785 83.9206 170.019 82.9188 172.381 82.8281C174.763 82.8852 177.034 83.8494 178.729 85.5238C178.186 86.4436 177.756 87.4257 177.449 88.4487C176.89 87.6175 176.136 86.9367 175.252 86.4665C174.368 85.9963 173.382 85.7513 172.381 85.753C170.77 85.8277 169.251 86.52 168.138 87.6859C167.025 88.8519 166.404 90.4019 166.404 92.0139C166.404 93.6258 167.025 95.1758 168.138 96.3418C169.251 97.5078 170.77 98.2 172.381 98.2748C173.387 98.2614 174.375 98.0102 175.265 97.5416C176.155 97.0731 176.922 96.4006 177.503 95.579C177.79 96.5662 178.203 97.5128 178.729 98.3961ZM203.395 100.593V83.6637H205.97V86.036C206.505 85.2027 207.236 84.5132 208.099 84.0277C209.033 83.5015 210.088 83.2274 211.159 83.2324C212.228 83.2128 213.282 83.4879 214.205 84.0277C215.007 84.5647 215.609 85.3512 215.917 86.2651C216.466 85.3599 217.237 84.6099 218.157 84.0862C219.077 83.5625 220.115 83.2825 221.174 83.2728C221.873 83.2214 222.574 83.3145 223.235 83.5464C223.896 83.7784 224.502 84.1441 225.015 84.6207C226.038 85.8266 226.55 87.3834 226.444 88.9609V100.62H223.573V89.9449C223.604 89.0989 223.504 88.2532 223.277 87.4378C223.093 86.935 222.747 86.508 222.293 86.2247C221.763 85.8977 221.15 85.7293 220.527 85.7395C219.981 85.7327 219.439 85.8367 218.934 86.0452C218.429 86.2537 217.971 86.5623 217.589 86.9526C216.7 88.0053 216.264 89.3669 216.375 90.7401V100.634H213.504V89.5809C213.569 88.5783 213.335 87.579 212.831 86.71C212.544 86.3822 212.186 86.1243 211.784 85.9561C211.382 85.7879 210.947 85.7138 210.512 85.7395C209.712 85.7538 208.93 85.9818 208.248 86.3999C207.572 86.8348 207.056 87.4784 206.779 88.2331C206.42 89.4025 206.257 90.6228 206.293 91.8454V100.634L203.395 100.593ZM225.325 79.9301V76.6952H224.099V76.2773H227.024V76.6952H225.811V79.9301H225.325ZM227.455 79.9301V76.2773H228.196L229.113 78.8922C229.147 79.0833 229.206 79.2691 229.288 79.4449C229.311 79.2323 229.375 79.0263 229.477 78.8383L230.326 76.2773H231V79.9301H230.488V76.83L229.45 79.8762H228.951L227.94 76.83V79.9301H227.455ZM144.776 98.1265C143.994 99.1258 142.934 99.8715 141.73 100.27C141.434 100.397 141.127 100.496 140.813 100.566C139.535 100.88 138.221 101.025 136.904 100.997C135.151 101.118 133.408 100.643 131.958 99.6496C131.365 99.2244 130.891 98.6541 130.582 97.9932C130.273 97.3324 130.138 96.6032 130.192 95.8755C130.192 94.9369 130.419 94.0122 130.852 93.1798C131.325 92.3532 131.997 91.6581 132.807 91.158C133.696 90.671 134.671 90.3598 135.678 90.2414C137.384 90.0686 139.098 89.9876 140.813 89.9988H144.655V89.5135C144.686 89.1301 144.63 88.7446 144.493 88.3854C144.355 88.0262 144.139 87.7024 143.859 87.4378C143.186 86.9106 142.341 86.6513 141.487 86.71H140.813C140.135 86.7352 139.47 86.9004 138.859 87.1952C138.581 87.3528 138.343 87.5721 138.163 87.8361C137.983 88.1001 137.866 88.402 137.821 88.7183H131.284C131.368 87.8613 131.67 87.04 132.16 86.3323C132.651 85.6246 133.314 85.054 134.087 84.6746C136.208 83.7383 138.509 83.2782 140.827 83.3268C141.091 83.2976 141.358 83.2976 141.622 83.3268C144.068 83.154 146.511 83.7073 148.644 84.9173C149.405 85.4687 150.015 86.2015 150.42 87.049C150.825 87.8965 151.011 88.8317 150.963 89.7696V98.3961C150.931 98.8043 150.931 99.2144 150.963 99.6227C151.012 99.9753 151.093 100.323 151.205 100.661H145.167C145.032 100.325 144.928 99.9775 144.857 99.6227C144.786 99.24 144.746 98.8524 144.736 98.4635V98.1265H144.776ZM140.813 97.3313C141.8 97.285 142.746 96.9209 143.509 96.2934C143.903 95.9339 144.212 95.4907 144.413 94.9962C144.613 94.5017 144.701 93.9685 144.668 93.4359V93.0046H144.116C143.018 92.9772 141.919 93.0177 140.827 93.1259C140.039 93.1754 139.261 93.3202 138.508 93.5572C137.47 93.9211 136.972 94.5277 136.972 95.3903C136.967 95.6665 137.039 95.9386 137.179 96.1765C137.319 96.4144 137.523 96.6088 137.767 96.7382C138.531 97.1034 139.375 97.2703 140.22 97.2234L140.813 97.3313ZM121.309 91.6567C121.355 90.3057 120.871 88.9903 119.961 87.9904C119.533 87.5362 119.011 87.1804 118.431 86.9477C117.852 86.715 117.229 86.6109 116.605 86.6426C115.962 86.5937 115.316 86.6893 114.714 86.9226C114.112 87.1558 113.57 87.5206 113.128 87.9904C112.327 89.1266 111.897 90.4825 111.897 91.8723C111.897 93.2622 112.327 94.6181 113.128 95.7542C113.566 96.2145 114.099 96.5735 114.691 96.8063C115.282 97.0391 115.917 97.1401 116.551 97.1021C117.188 97.1341 117.824 97.025 118.413 96.7826C119.003 96.5403 119.531 96.1707 119.961 95.7003C120.896 94.566 121.377 93.125 121.309 91.6567ZM116.605 83.5694C117.482 83.3262 118.392 83.2216 119.301 83.2594C120.473 83.181 121.648 83.3551 122.747 83.7698C123.846 84.1845 124.843 84.8302 125.671 85.6632C126.499 86.4963 127.138 87.4973 127.546 88.5987C127.954 89.7001 128.121 90.8762 128.035 92.0476C128.153 94.4577 127.342 96.8212 125.771 98.6522C124.934 99.4643 123.937 100.094 122.845 100.503C121.752 100.911 120.587 101.089 119.422 101.024C118.511 101.025 117.605 100.903 116.727 100.661C116.256 100.534 115.803 100.349 115.379 100.108C114.008 99.5343 112.803 98.6259 111.874 97.466V97.9513C111.888 98.4017 111.865 98.8524 111.807 99.2992C111.8 99.7508 111.759 100.201 111.685 100.647H105.216C105.216 99.9192 105.337 99.2992 105.391 98.6387C105.422 98.0281 105.422 97.4162 105.391 96.8056V76.2773H111.874V86.1034C112.796 85.1455 113.926 84.4123 115.177 83.9603C115.603 83.7557 116.057 83.6149 116.524 83.5424L116.605 83.5694ZM94.8909 98.1265C94.0851 99.1301 93.0025 99.8753 91.7773 100.27C91.4894 100.416 91.18 100.517 90.8607 100.566C89.605 100.879 88.3132 101.024 87.0193 100.997C85.2452 101.112 83.4829 100.638 82.0051 99.6496C81.4233 99.2141 80.9578 98.6419 80.6498 97.9836C80.3418 97.3254 80.2008 96.6013 80.2394 95.8755C80.2305 94.9272 80.4823 93.9947 80.9673 93.1798C81.4397 92.3532 82.1116 91.6581 82.9217 91.158C83.7864 90.6701 84.7393 90.3585 85.7253 90.2414C87.4318 90.0721 89.1459 89.9911 90.8607 89.9988H94.7022C94.6733 89.9205 94.6733 89.8344 94.7022 89.7562V89.5135C94.7174 89.1317 94.6547 88.7508 94.5179 88.3939C94.3812 88.0371 94.1733 87.7118 93.9069 87.4378C93.271 86.9223 92.4746 86.6457 91.656 86.656H90.9281C90.2715 86.6798 89.6277 86.8453 89.0411 87.1413C88.7546 87.2883 88.5096 87.5047 88.3283 87.7707C88.147 88.0368 88.0352 88.344 88.0032 88.6644H81.3986C81.4944 87.802 81.8082 86.9783 82.3105 86.2708C82.8128 85.5633 83.487 84.9955 84.2696 84.6207C86.3623 83.685 88.6363 83.2247 90.9281 83.2728C91.1926 83.2482 91.4589 83.2482 91.7234 83.2728C94.1869 83.0997 96.6472 83.6527 98.7998 84.8633C99.5689 85.4253 100.181 86.1751 100.577 87.0412C100.974 87.9073 101.141 88.8607 101.064 89.8101V98.3961C101.064 98.8948 101.064 99.3126 101.064 99.6227C101.124 99.9785 101.224 100.327 101.361 100.661H95.3222C95.1566 100.336 95.0515 99.9846 95.0122 99.6227C94.938 99.2178 94.8975 98.8076 94.8909 98.3961V98.1265ZM90.8472 97.3313C91.8395 97.311 92.7933 96.9438 93.543 96.2934C93.9497 95.9437 94.267 95.502 94.4686 95.005C94.6702 94.508 94.7503 93.9701 94.7022 93.4359V93.0046H94.2169C93.0968 92.9774 91.976 93.0179 90.8607 93.1259C90.0911 93.1765 89.3306 93.3214 88.5963 93.5572C87.5584 93.9211 87.0193 94.5277 87.0193 95.3903C87.0255 95.6626 87.1005 95.929 87.2371 96.1646C87.3738 96.4002 87.5678 96.5975 87.801 96.7382C88.565 97.1034 89.4087 97.2703 90.2542 97.2234L90.8472 97.3313ZM71.3164 91.6567C71.4016 90.3237 70.9668 89.0096 70.1033 87.9904C69.6743 87.5369 69.1522 87.1816 68.5728 86.949C67.9935 86.7163 67.3707 86.6118 66.7471 86.6426H66.6258C65.9909 86.599 65.3542 86.6973 64.762 86.9305C64.1698 87.1636 63.637 87.5257 63.2022 87.9904C62.4016 89.1266 61.9719 90.4825 61.9719 91.8723C61.9719 93.2622 62.4016 94.6181 63.2022 95.7542C63.637 96.219 64.1698 96.5811 64.762 96.8142C65.3542 97.0474 65.9909 97.1457 66.6258 97.1021C67.271 97.1393 67.9163 97.0329 68.5153 96.7905C69.1144 96.548 69.6521 96.1757 70.0899 95.7003C70.9788 94.548 71.4108 93.108 71.303 91.6567H71.3164ZM66.6258 83.5694C67.5037 83.3311 68.4125 83.2266 69.3216 83.2594C70.4867 83.2011 71.6514 83.3828 72.7435 83.7932C73.8355 84.2036 74.8317 84.8339 75.6701 85.6451C76.4681 86.5009 77.0849 87.5093 77.4833 88.6095C77.8817 89.7098 78.0535 90.8792 77.9884 92.0476C78.0652 93.2434 77.9047 94.4426 77.5161 95.5761C77.1274 96.7096 76.5184 97.755 75.724 98.6522C74.8999 99.4631 73.9155 100.093 72.8339 100.502C71.7523 100.91 70.5973 101.088 69.4429 101.024C68.4963 101.028 67.5535 100.906 66.6393 100.661C64.789 100.125 63.1622 99.0041 62.0026 97.466V97.9513C62.0026 98.4365 61.9352 98.8678 61.9352 99.2992C61.9352 99.7305 61.8139 100.216 61.7599 100.647H55.2632C55.3765 99.9835 55.4351 99.3118 55.4384 98.6387C55.4384 97.9648 55.5732 97.2908 55.5732 96.8056V76.2773H62.0026V86.1034C62.912 85.1621 64.016 84.4306 65.2375 83.9603C65.6679 83.7661 66.1206 83.6258 66.5854 83.5424L66.6258 83.5694ZM16.242 76.2773H20.8787L32.794 100.634H24.9763L22.8331 95.7003H9.58344L7.33248 100.634H0L12.6431 76.2773H16.242ZM16.242 90.9827H20.5822L16.4307 81.6419L16.242 82.0732L11.8479 90.9827H16.242ZM33.8857 100.634V76.2773H40.3556V100.634H33.8857Z" fill="#F47937"/>
</g>
<defs>
<clipPath id="clip0">
<rect width="231" height="101.064" fill="white"/>
</clipPath>
</defs>
</svg>
