<svg width="231" height="96" viewBox="0 0 231 96" fill="none" xmlns="http://www.w3.org/2000/svg">
<path d="M156.598 0.884956C158.32 0.306182 160.139 0.0304827 161.955 0.00115297C165.41 -0.0262215 168.862 0.435234 172.221 1.23887C177.879 2.48636 183.341 4.49252 188.675 6.73331C199.81 11.5395 210.432 17.5267 220.396 24.4328C223.096 26.353 225.793 28.2887 228.305 30.4513C229.41 31.5033 230.522 32.6686 230.921 34.1879C231.211 35.7052 230.695 37.3927 229.5 38.3997C228.364 39.5181 226.622 39.8173 225.106 39.479C223.605 39.2717 222.298 38.4622 220.971 37.7916C215.4 35.0307 209.634 32.655 203.692 30.8228C201.058 29.9683 198.375 29.2801 195.694 28.5957C189.111 27.1038 182.396 26.1086 175.645 25.9052C172.729 25.7175 169.8 25.8407 166.896 26.1437C170.774 32.2482 175.156 38.0145 179.739 43.6028C180.687 44.7036 181.004 46.3461 180.419 47.6913C179.508 49.6467 177.109 50.8062 175.027 50.1218C174.041 49.8285 173.378 49.0034 172.688 48.2994C170.864 46.1408 169.081 43.943 167.409 41.6631C165.139 38.7692 163.058 35.7326 160.96 32.7117C159.842 30.9832 158.602 29.3251 157.644 27.5007C146.98 29.501 136.82 33.6483 127.319 38.8162C124.126 40.6111 120.956 42.457 117.935 44.5355C115.777 45.9296 113.79 47.5643 111.704 49.0601C110.748 49.8109 109.451 49.9517 108.278 49.805C106.737 49.371 105.314 48.2036 104.979 46.5827C104.708 45.7145 104.858 44.776 105.202 43.9508C105.617 43.1687 106.264 42.5391 106.937 41.974C112.56 37.3086 118.731 33.3256 125.188 29.9156C138.104 23.2108 152.249 18.5121 166.836 17.6049C170.152 17.5971 173.478 17.4719 176.786 17.7535C183.524 18.1895 190.204 19.3529 196.737 21.0404C202.131 22.5029 207.381 24.4485 212.569 26.5172C205.475 22.3934 198.213 18.5258 190.64 15.3465C185.466 13.1292 180.144 11.2364 174.681 9.86964C171.024 9.00148 167.278 8.366 163.508 8.51656C162.853 8.54784 162.213 8.69645 161.584 8.85874C160.927 9.01712 160.446 9.51768 159.902 9.87746C159.153 10.8297 159.257 12.1554 159.582 13.2504C159.887 14.1361 160.291 14.9887 160.765 15.7982C160.909 16.0132 160.919 16.2753 160.96 16.5255C158.117 16.7367 155.313 17.3077 152.537 17.9255C151.537 15.9038 150.591 13.7901 150.415 11.5141C150.315 9.77578 150.27 7.97494 150.89 6.32074C151.753 3.7143 154.032 1.73747 156.598 0.884956Z" fill="#F15E28"/>
<path d="M9.8199 68.0125C10.7956 67.1952 12.4224 67.3477 13.2319 68.3293C13.7794 69.0312 14.0532 69.8896 14.3562 70.7147C17.0292 77.8888 19.7001 85.0629 22.3691 92.2369C22.6214 92.9545 23.0124 93.8559 22.4337 94.5305C21.7845 95.1523 20.623 95.2892 19.9191 94.683C19.4713 94.2274 19.3149 93.5841 19.092 93.0054C18.4429 91.1361 17.7428 89.2864 17.1093 87.4132C14.0923 87.3662 11.0772 87.4034 8.06012 87.3917C7.21738 87.4053 6.36877 87.3428 5.53189 87.466C4.87881 89.6618 4.01847 91.795 3.2559 93.9576C2.88244 95.2227 0.999464 95.4613 0.244712 94.4347C-0.248028 93.7523 0.115661 92.8861 0.360076 92.1802C3.17182 84.6835 5.96402 77.181 8.77185 69.6843C9.0104 69.0703 9.30761 68.4466 9.8199 68.0125Z" fill="#4C4C4C"/>
<path d="M74.6523 67.5915C75.3289 67.3588 76.1794 67.5015 76.6174 68.1096C76.9889 68.5085 76.9498 69.0853 76.9713 69.5918C76.9655 77.4775 76.9752 85.3633 76.9655 93.2511C76.9967 93.9218 76.7074 94.6785 76.0484 94.9483C75.3719 95.1869 74.5037 95.1302 74.009 94.5553C73.6375 94.1545 73.5906 93.5776 73.5828 93.0595C73.5847 85.1717 73.5808 77.284 73.5847 69.3982C73.5632 68.6649 73.88 67.8065 74.6523 67.5915Z" fill="#4C4C4C"/>
<path d="M117.837 68.1328C118.51 67.4485 119.591 67.3605 120.471 67.6401C121.341 67.9392 121.924 68.7546 122.17 69.611C123.389 73.8912 124.62 78.1675 125.833 82.4496C126.539 84.7999 127.178 87.1698 127.759 89.5553C128.582 85.8793 129.737 82.2913 130.75 78.6661C131.579 75.737 132.43 72.8138 133.263 69.8867C133.451 69.2376 133.685 68.5513 134.221 68.1035C135.191 67.1904 136.953 67.292 137.77 68.3616C138.257 69.0323 138.439 69.8652 138.548 70.6747C139.745 77.9446 140.979 85.2066 142.181 92.4746C142.242 93.1707 142.431 94.0056 141.923 94.5863C141.45 95.1768 140.566 95.1416 139.917 94.9207C139.25 94.6489 139.107 93.8531 138.974 93.2293C137.879 86.1256 136.677 79.0376 135.66 71.9242C135.296 73.903 134.682 75.8231 134.145 77.7608C132.567 83.1105 131.046 88.4798 129.456 93.8276C129.149 95.169 127.303 95.4799 126.365 94.6215C126.087 94.3204 125.977 93.9137 125.854 93.5363C124.816 89.9835 123.791 86.4268 122.749 82.8759C121.758 79.2312 120.504 75.6549 119.746 71.9516C118.753 78.9438 117.546 85.9047 116.48 92.8852C116.367 93.6126 116.246 94.4788 115.546 94.8855C114.856 95.1807 113.852 95.1983 113.401 94.4964C112.98 93.9137 113.131 93.1531 113.215 92.4941C114.461 85.0444 115.698 77.5946 116.942 70.1468C117.083 69.4233 117.294 68.6627 117.837 68.1328Z" fill="#4C4C4C"/>
<path d="M198.189 67.5571C199.259 67.1719 200.475 68.0459 200.389 69.1937C200.409 77.0795 200.387 84.9673 200.401 92.855C200.383 93.4279 200.426 94.1005 199.984 94.5424C199.271 95.393 197.64 95.2366 197.196 94.1827C197.022 93.8366 197.018 93.4416 197.01 93.0662C197.008 85.3075 197.014 77.5468 197.008 69.7862C196.936 68.9082 197.174 67.7546 198.189 67.5571Z" fill="#4C4C4C"/>
<path d="M147.699 68.4659C148.976 68.0944 150.413 69.2285 150.264 70.566C150.268 71.8878 148.78 72.8713 147.558 72.4196C146.375 72.0833 145.779 70.5718 146.387 69.5101C146.639 68.988 147.165 68.6497 147.699 68.4659Z" fill="#4C4C4C"/>
<path d="M155.81 69.733C155.945 68.4836 157.593 68.0319 158.522 68.728C159.046 69.0937 159.163 69.7839 159.157 70.3822C159.155 71.7744 159.147 73.1666 159.161 74.5588C159.93 74.5568 160.733 74.5001 161.468 74.7719C162.522 75.2549 162.403 76.9931 161.328 77.3862C160.614 77.5719 159.867 77.4781 159.14 77.5191C159.161 82.8278 159.165 88.1365 159.14 93.4452C159.19 94.6164 157.933 95.379 156.873 95.0192C156.132 94.7904 155.728 94.0005 155.771 93.2575C155.767 88.0133 155.761 82.7691 155.777 77.525C155.047 77.4644 154.29 77.5739 153.587 77.3392C152.646 76.8406 152.601 75.2099 153.6 74.7484C154.298 74.5157 155.047 74.5588 155.775 74.5549C155.792 72.9495 155.706 71.3364 155.81 69.733Z" fill="#4C4C4C"/>
<path d="M166.455 69.7931C166.543 68.44 168.467 67.9395 169.325 68.8878C169.796 69.3903 169.8 70.1157 169.786 70.763C169.777 72.03 169.783 73.297 169.794 74.566C170.604 74.5621 171.46 74.4878 172.229 74.8046C173.066 75.3423 173.058 76.8244 172.156 77.2918C171.411 77.6183 170.578 77.4775 169.792 77.5049C169.763 82.7588 169.794 88.0128 169.777 93.2667C169.775 93.736 169.659 94.2287 169.362 94.6002C168.6 95.3335 167.114 95.2494 166.609 94.2541C166.341 93.6304 166.427 92.9323 166.414 92.2734C166.412 87.3519 166.429 82.4303 166.406 77.5088C165.545 77.4619 164.548 77.6828 163.848 77.0434C163.322 76.4744 163.463 75.6102 163.815 74.9884C164.579 74.4781 165.53 74.568 166.406 74.5602C166.453 72.9705 166.357 71.3769 166.455 69.7931Z" fill="#4C4C4C"/>
<path d="M11.3411 71.1909C12.8096 75.4965 14.3875 79.7669 15.899 84.0589C15.9674 84.2094 16.0398 84.5164 15.7269 84.4167C12.7157 84.4167 9.7065 84.4147 6.69531 84.4147C8.20482 79.9938 9.89226 75.6334 11.3411 71.1909Z" fill="#FEFEFE"/>
<path d="M25.9159 75.886C25.8886 74.3256 28.2232 73.784 28.9917 75.0569C29.4688 75.9388 29.1989 77.0025 29.2908 77.9645C29.9107 76.7522 30.8531 75.7022 32.0028 74.9728C32.8241 74.4723 33.8682 74.1594 34.8048 74.5075C35.8118 74.9298 35.9467 76.4393 35.1685 77.1354C34.666 77.6497 33.9327 77.7768 33.2836 78.0114C32.0693 78.4025 30.8825 79.0673 30.1629 80.1544C29.5 81.1907 29.3006 82.45 29.2947 83.6623C29.2889 86.7947 29.2947 89.9271 29.2928 93.0615C29.2889 93.6578 29.2204 94.3539 28.6905 94.7333C27.6875 95.5877 25.8514 94.8545 25.912 93.4662C25.8905 87.6061 25.8827 81.7461 25.9159 75.886Z" fill="#4C4C4C"/>
<path d="M44.1514 74.4154C45.6238 74.2864 47.145 74.3724 48.5489 74.871C49.2646 75.1428 49.9783 75.5221 50.4514 76.142C51.0322 76.9045 50.4827 78.197 49.5168 78.2772C48.7308 78.3417 48.0386 77.8978 47.319 77.6612C45.5983 77.0375 43.5218 77.1998 42.0612 78.3613C40.6964 79.3995 39.9768 81.0635 39.664 82.7079C39.3883 84.3875 39.4195 86.1415 39.9123 87.78C40.3581 89.2387 41.236 90.6133 42.5539 91.4267C43.7838 92.1599 45.2914 92.2479 46.6757 92.0074C47.5302 91.8608 48.2693 91.3622 49.1042 91.1549C49.7475 90.9887 50.602 91.3407 50.688 92.0641C50.8445 92.6957 50.5238 93.3546 50.0056 93.7144C48.5157 94.7742 46.6347 95.1437 44.8319 95.0714C42.4073 95.0088 39.9455 93.9705 38.4223 92.0446C36.6332 89.8976 36.0075 87.0077 36.0994 84.2683C36.1561 81.5699 37.036 78.7895 38.9698 76.8439C40.3346 75.4478 42.2156 74.611 44.1514 74.4154Z" fill="#4C4C4C"/>
<path d="M102.78 74.4039C103.515 74.2143 104.414 74.488 104.733 75.2232C105.061 76.0914 104.858 77.0436 104.915 77.945C105.908 76.2107 107.566 74.3687 109.75 74.357C110.781 74.3101 111.555 75.3718 111.268 76.3475C111.08 77.2724 110.11 77.6224 109.322 77.8883C107.948 78.2911 106.524 78.9618 105.758 80.2308C105.071 81.3062 104.927 82.6143 104.919 83.8618C104.917 86.9297 104.917 89.9956 104.921 93.0616C104.897 93.5133 104.907 94.0158 104.631 94.401C104.06 95.2633 102.664 95.3024 101.968 94.5809C101.587 94.1761 101.542 93.5915 101.53 93.0674C101.536 87.4596 101.532 81.8498 101.534 76.24C101.489 75.4422 101.909 74.5271 102.78 74.4039Z" fill="#4C4C4C"/>
<path d="M147.752 74.3888C148.342 74.3145 149.06 74.334 149.459 74.8522C149.873 75.2706 149.914 75.8865 149.916 76.4438C149.905 82.0477 149.918 87.6517 149.908 93.2576C149.938 93.9302 149.644 94.6595 148.989 94.9333C148.325 95.1816 147.419 95.1581 146.956 94.55C146.567 94.1551 146.53 93.5704 146.518 93.0503C146.518 87.902 146.518 82.7516 146.518 77.6033C146.522 76.9541 146.479 76.3011 146.571 75.6578C146.659 75.0418 147.146 74.5198 147.752 74.3888Z" fill="#4C4C4C"/>
<path d="M189.5 74.6685C190.114 74.211 191.056 74.252 191.676 74.692C192.095 75.085 192.286 75.6736 192.263 76.2406C192.251 81.913 192.265 87.5854 192.257 93.2597C192.257 93.8873 192.024 94.6128 191.41 94.8885C190.611 95.2991 189.387 95.0703 189.052 94.1591C188.767 93.4259 188.908 92.6242 188.87 91.8597C188.159 92.8921 187.281 93.8228 186.143 94.384C183.812 95.5435 180.918 95.2248 178.736 93.8717C176.433 92.4209 175.083 89.8261 174.638 87.1962C174.239 84.7443 174.393 82.1554 175.314 79.8325C176.143 77.7227 177.743 75.8632 179.862 74.9892C181.819 74.1856 184.144 74.0663 186.074 75.0127C187.232 75.5836 188.178 76.5222 188.863 77.6093C188.935 76.6238 188.628 75.39 189.5 74.6685Z" fill="#4C4C4C"/>
<path d="M55.4023 76.6414C57.1581 74.9891 59.6336 74.1679 62.0288 74.3869C64.1093 74.5081 66.09 75.5288 67.4666 77.0813C69.2557 79.0796 70.1414 81.8093 70.0535 84.4744C70.032 85.0023 69.809 85.6241 69.2713 85.8216C68.5283 86.1305 67.6993 85.9936 66.9171 86.021C63.1531 86.0367 59.3872 85.9858 55.6232 86.0504C55.7171 87.5247 56.1277 89.0342 57.1132 90.1722C58.1241 91.3884 59.6961 92.0962 61.2702 92.1138C62.7073 92.1431 64.2031 91.9339 65.4487 91.1733C66.1937 90.7666 66.8663 90.1995 67.6875 89.9453C68.3308 89.8182 69.1481 90.2015 69.2596 90.8976C69.5373 91.844 68.7532 92.6574 68.0434 93.1599C65.7029 94.8297 62.6721 95.3205 59.8584 94.9607C57.5512 94.6733 55.3905 93.3554 54.1078 91.4138C52.4654 88.9951 52.0039 85.9291 52.3481 83.0665C52.6316 80.6693 53.6562 78.3327 55.4023 76.6414Z" fill="#4C4C4C"/>
<path d="M86.9591 74.6262C89.194 74.0866 91.6675 74.3095 93.6659 75.4964C95.7013 76.6813 97.0681 78.7871 97.6977 81.0221C98.4232 83.6891 98.3625 86.5771 97.4592 89.1953C96.7533 91.0861 95.5215 92.8439 93.7636 93.8842C91.6558 95.159 89.0044 95.4093 86.656 94.723C84.3761 94.0777 82.4717 92.3571 81.4842 90.216C80.1077 87.2889 79.9884 83.8436 80.88 80.7581C81.7169 77.8799 83.9773 75.3301 86.9591 74.6262Z" fill="#4C4C4C"/>
<path d="M57.0779 79.29C58.8455 76.9123 62.7718 76.5877 64.8659 78.7034C66.1037 79.9489 66.6257 81.7361 66.6922 83.4548C63.0064 83.5096 59.3207 83.4705 55.6349 83.4744C55.7287 81.9883 56.112 80.4593 57.0779 79.29Z" fill="#FEFEFE"/>
<path d="M87.8839 77.4813C89.323 77.0922 90.944 77.3288 92.1543 78.2224C93.4585 79.1825 94.2054 80.7174 94.5359 82.2738C94.9602 84.3543 94.8585 86.5677 94.1233 88.5699C93.6286 89.7901 92.7918 90.9261 91.601 91.5381C89.7004 92.6135 87.1018 92.1814 85.6294 90.578C84.4328 89.309 83.9283 87.5512 83.7699 85.852C83.6115 83.8185 83.8345 81.6735 84.8688 79.8786C85.5199 78.7327 86.6051 77.8294 87.8839 77.4813Z" fill="#FEFEFE"/>
<path d="M182.128 77.4564C183.773 77.0008 185.65 77.5131 186.841 78.7351C188.041 79.8712 188.575 81.5195 188.804 83.117C189.066 85.2522 188.853 87.5184 187.822 89.4385C187.267 90.3927 186.469 91.2433 185.45 91.6989C183.605 92.5416 181.225 92.1623 179.827 90.6606C178.478 89.2841 177.963 87.3151 177.842 85.4399C177.766 83.5159 177.999 81.4921 179.019 79.8184C179.694 78.6667 180.828 77.7829 182.128 77.4564Z" fill="#FEFEFE"/>
</svg>
