<svg fill="none" height="28" viewBox="0 0 29 28" width="29" xmlns="http://www.w3.org/2000/svg"><path d="m6.31182 10.3842c-2.64909.8736-4.31182 2.1559-4.31182 3.5931 0 2.6491 5.70682 4.7909 12.7382 4.7909 7.0313 0 12.7382-2.1418 12.7382-4.7909 0-1.4372-1.6628-2.7195-4.3119-3.5931" fill="#65f8c3"/><g stroke-linecap="round" stroke-linejoin="round" stroke-miterlimit="2" stroke-width="2.81818"><path d="m6.31182 10.3842c-2.64909.8736-4.31182 2.1559-4.31182 3.5931 0 2.6491 5.70682 4.7909 12.7382 4.7909 7.0313 0 12.7382-2.1418 12.7382-4.7909 0-1.4372-1.6628-2.7195-4.3119-3.5931" stroke="#65f8c3"/><path d="m14.7382 11.5818c7.0351 0 12.7382-2.14495 12.7382-4.79089 0-2.64595-5.7031-4.79091-12.7382-4.79091-7.03512 0-12.7382 2.14496-12.7382 4.79091 0 2.64594 5.70308 4.79089 12.7382 4.79089z" stroke="#12c3f4"/><path d="m6.31182 17.5705c-2.64909.8736-4.31182 2.1559-4.31182 3.5932 0 2.6491 5.70682 4.7909 12.7382 4.7909 7.0313 0 12.7382-2.1418 12.7382-4.7909 0-1.4373-1.6628-2.7196-4.3119-3.5932-1.9586-.7891-15.93677-5.2137-20.29086-9.03229" stroke="#12c3f4"/></g></svg>