<svg width="32" height="32" viewBox="0 0 32 32" fill="none" xmlns="http://www.w3.org/2000/svg">
<path d="M7.31182 12.3842C4.66273 13.2578 3 14.5401 3 15.9773C3 18.6264 8.70682 20.7682 15.7382 20.7682C22.7695 20.7682 28.4764 18.6264 28.4764 15.9773C28.4764 14.5401 26.8136 13.2578 24.1645 12.3842" fill="#1493CC"/>
<path d="M7.31182 12.3842C4.66273 13.2578 3 14.5401 3 15.9773C3 18.6264 8.70682 20.7682 15.7382 20.7682C22.7695 20.7682 28.4764 18.6264 28.4764 15.9773C28.4764 14.5401 26.8136 13.2578 24.1645 12.3842" stroke="#1493CC" stroke-width="2.81818" stroke-miterlimit="2" stroke-linecap="round" stroke-linejoin="round"/>
<path d="M15.7382 13.5818C22.7733 13.5818 28.4764 11.4369 28.4764 8.79091C28.4764 6.14496 22.7733 4 15.7382 4C8.70308 4 3 6.14496 3 8.79091C3 11.4369 8.70308 13.5818 15.7382 13.5818Z" stroke="#4FC4F9" stroke-width="2.81818" stroke-miterlimit="2" stroke-linecap="round" stroke-linejoin="round"/>
<path d="M7.31182 19.5705C4.66273 20.4441 3 21.7264 3 23.1637C3 25.8128 8.70682 27.9546 15.7382 27.9546C22.7695 27.9546 28.4764 25.8128 28.4764 23.1637C28.4764 21.7264 26.8136 20.4441 24.1645 19.5705C22.2059 18.7814 8.22773 14.3568 3.87364 10.5382" stroke="#4FC4F9" stroke-width="2.81818" stroke-miterlimit="2" stroke-linecap="round" stroke-linejoin="round"/>
</svg>
