<svg width="100" height="100" viewBox="0 0 100 100" fill="none" xmlns="http://www.w3.org/2000/svg">
<g clip-path="url(#clip0)">
<path d="M99.9997 0.00146484H0.000610352V100.001H99.9997V0.00146484Z" fill="#00008F"/>
<path d="M56.2252 49.3849H61.968L99.9999 0H94.3827L56.2252 49.3849Z" fill="#FF1721"/>
<path d="M76.41 71.4217C78.153 76.2981 81.7446 88.9882 83.1725 89.9992H73.7433C73.715 88.8773 73.5666 87.7616 73.3008 86.6713C72.8942 85.2209 69.4836 74.2483 69.4836 74.2483H54.5062L52.1514 77.5866C52.1514 77.5866 54.9798 86.4404 55.1555 86.8745C55.4604 87.6566 56.8108 89.9992 56.8108 89.9992H47.7745C47.7745 89.9992 47.5403 88.647 47.4524 88.0838C47.3817 87.6291 46.5963 85.1383 46.5963 85.1383C46.5963 85.1383 44.5482 87.3827 43.9901 88.4232C43.4268 89.4618 43.177 89.9992 43.177 89.9992H36.1077C36.1077 89.9992 35.8717 88.647 35.7839 88.0838C35.7151 87.6291 34.8503 84.9385 34.8503 84.9385C34.8503 84.9385 32.8712 87.3414 32.3078 88.38C31.748 89.4205 31.5068 89.9992 31.5068 89.9992H24.5152C24.5152 89.9992 26.4909 88.1182 27.1816 87.3104C28.346 85.9409 32.6851 80.2704 32.6851 80.2704L30.9454 74.2483H16.0816C16.0816 74.2483 7.60671 85.3846 7.27263 85.729C6.93503 86.0684 4.4649 89.6134 4.40968 89.9992H0V87.195C0.0546935 87.1354 0.112762 87.0791 0.173918 87.0262C0.310089 86.9262 6.599 79.1196 12.3764 71.4217C17.5682 64.709 22.4395 58.1805 22.8667 57.5587C23.9019 56.055 25.3936 52.8081 25.3936 52.8081H33.0778C33.0778 52.8081 33.3155 55.7949 33.5395 56.52C33.7392 57.1608 38.4211 72.5224 38.5313 72.6878L41.1203 69.3771L36.6951 55.7552C36.6951 55.7552 35.6581 53.1921 35.3205 52.8081H44.2967C44.265 53.632 44.3638 54.4557 44.5895 55.2488C44.9546 56.372 46.8788 63.3155 46.8788 63.3155C46.8788 63.3155 53.0007 55.6416 53.3589 55.0904C53.7938 54.4029 54.0535 53.6193 54.1151 52.8081H61.5943C61.5943 52.8081 60.225 53.8088 57.8254 56.8438C57.0193 57.8653 49.1214 67.9026 49.1214 67.9026C49.1214 67.9026 49.8106 70.2521 50.1464 71.4217C50.2378 71.7576 50.3014 71.9849 50.3014 72.0091C50.3014 72.0195 50.4754 71.8059 50.7751 71.4217C52.8129 68.8396 62.0818 56.6855 62.6435 55.645C63.0964 54.8045 63.763 53.8484 64.154 52.8081H71.4507C71.4507 52.8081 71.6195 54.987 71.8417 55.5899L76.41 71.4217ZM65.3064 59.9169C64.235 62.2217 57.9288 69.899 57.9288 69.899H67.916C67.916 69.899 65.98 63.9373 65.6424 62.5937C65.4699 61.7346 65.4039 60.8575 65.4459 59.9823C65.4459 59.8601 65.4235 59.662 65.3064 59.9169ZM26.9335 59.9169C25.8621 62.2217 19.5559 69.899 19.5559 69.899H29.5431C29.5431 69.899 27.6089 63.9373 27.2713 62.5937C27.0987 61.7346 27.0327 60.8575 27.0748 59.9823C27.0748 59.8601 27.0508 59.662 26.9335 59.9169H26.9335ZM41.9696 83.1952L44.7188 79.4195C44.4655 79.1473 42.917 74.4517 42.917 74.4517L40.259 77.9001L41.9696 83.1952Z" fill="white"/>
</g>
<defs>
<clipPath id="clip0">
<rect width="100" height="100" fill="white"/>
</clipPath>
</defs>
</svg>
