<svg fill="none" height="71" viewBox="0 0 1440 71" width="1440" xmlns="http://www.w3.org/2000/svg" xmlns:xlink="http://www.w3.org/1999/xlink"><linearGradient id="a"><stop offset="0" stop-color="#65a9f8"/><stop offset=".7976" stop-color="#12c3f4"/></linearGradient><linearGradient id="b" gradientUnits="userSpaceOnUse" x1="-28.9107" x2="77.6229" xlink:href="#a" y1="-36.7748" y2="-36.7748"/><linearGradient id="c" gradientUnits="userSpaceOnUse" x1="-25.1913" x2="76.1905" xlink:href="#a" y1="-21.6473" y2="-21.6473"/><linearGradient id="d" gradientUnits="userSpaceOnUse" x1="-142.861" x2="52.5547" xlink:href="#a" y1="-3.02288" y2="-3.02288"/><linearGradient id="e" gradientUnits="userSpaceOnUse" x1="-93.8188" x2="1.09583" xlink:href="#a" y1="-13.1814" y2="-13.1814"/><linearGradient id="f" gradientUnits="userSpaceOnUse" x1="-18.9261" x2="160.01" xlink:href="#a" y1="86.8207" y2="86.8207"/><linearGradient id="g" gradientUnits="userSpaceOnUse" x1="-18.9261" x2="158.578" xlink:href="#a" y1="73.733" y2="73.733"/><linearGradient id="h" gradientUnits="userSpaceOnUse" x1="-60.4745" x2="134.941" xlink:href="#a" y1="130.216" y2="130.216"/><linearGradient id="i" gradientUnits="userSpaceOnUse" x1="-18.9261" x2="77.0012" xlink:href="#a" y1="106.615" y2="106.615"/><linearGradient id="j" gradientUnits="userSpaceOnUse" x1="-18.9261" x2="11.8664" xlink:href="#a" y1="121.938" y2="121.938"/><linearGradient id="k" gradientUnits="userSpaceOnUse" x1="-193.63" x2="77.6228" xlink:href="#a" y1="-28.3539" y2="-28.3539"/><linearGradient id="l" gradientUnits="userSpaceOnUse" x1="-28.9107" x2="77.6229" xlink:href="#a" y1="-36.7745" y2="-36.7745"/><linearGradient id="m" gradientUnits="userSpaceOnUse" x1="-25.6625" x2="66.2294" xlink:href="#a" y1="-33.6463" y2="-33.6463"/><linearGradient id="n" gradientUnits="userSpaceOnUse" x1="-18.9261" x2="160.01" xlink:href="#a" y1="86.8212" y2="86.8212"/><linearGradient id="o" gradientUnits="userSpaceOnUse" x1="-18.9261" x2="148.616" xlink:href="#a" y1="68.3635" y2="68.3635"/><linearGradient id="p" gradientUnits="userSpaceOnUse" x1="-28.9101" x2="76.7578" xlink:href="#a" y1="-36.7747" y2="-36.7747"/><linearGradient id="q" gradientUnits="userSpaceOnUse" x1="-25.6625" x2="66.2294" xlink:href="#a" y1="-33.6465" y2="-33.6465"/><linearGradient id="r" gradientUnits="userSpaceOnUse" x1="-18.9261" x2="148.616" xlink:href="#a" y1="68.363" y2="68.363"/><linearGradient id="s" gradientUnits="userSpaceOnUse" x1="101.456" x2="254.742" xlink:href="#a" y1="8.62335" y2="8.62335"/><linearGradient id="t" gradientUnits="userSpaceOnUse" x1="147.669" x2="239.561" xlink:href="#a" y1="-15.9659" y2="-15.9659"/><linearGradient id="u" gradientUnits="userSpaceOnUse" x1="-18.9261" x2="159.144" xlink:href="#a" y1="70.5776" y2="70.5776"/><linearGradient id="v" gradientUnits="userSpaceOnUse" x1="-18.9261" x2="46.3497" xlink:href="#a" y1="67.361" y2="67.361"/><linearGradient id="w" gradientUnits="userSpaceOnUse" x1="-28.9102" x2="77.6234" xlink:href="#a" y1="-36.7748" y2="-36.7748"/><linearGradient id="x" gradientUnits="userSpaceOnUse" x1="-25.1908" x2="76.191" xlink:href="#a" y1="-21.6473" y2="-21.6473"/><linearGradient id="y" gradientUnits="userSpaceOnUse" x1="-18.9256" x2="160.01" xlink:href="#a" y1="86.8207" y2="86.8207"/><linearGradient id="z" gradientUnits="userSpaceOnUse" x1="-18.9256" x2="158.578" xlink:href="#a" y1="73.733" y2="73.733"/><linearGradient id="A" gradientUnits="userSpaceOnUse" x1="101.457" x2="254.743" xlink:href="#a" y1="8.62335" y2="8.62335"/><linearGradient id="B" gradientUnits="userSpaceOnUse" x1="157.945" x2="259.328" xlink:href="#a" y1="20.1754" y2="20.1754"/><linearGradient id="C" gradientUnits="userSpaceOnUse" x1="-181.425" x2="208.776" xlink:href="#a" y1="133.872" y2="133.872"/><linearGradient id="D" gradientUnits="userSpaceOnUse" x1="-111.243" x2="160.01" xlink:href="#a" y1="130.42" y2="130.42"/><linearGradient id="E" gradientUnits="userSpaceOnUse" x1="-171.066" x2="24.3502" xlink:href="#a" y1="-36.5698" y2="-36.5698"/><linearGradient id="F" gradientUnits="userSpaceOnUse" x1="-88.679" x2="106.737" xlink:href="#a" y1="96.669" y2="96.669"/><linearGradient id="G" gradientUnits="userSpaceOnUse" x1="-18.9261" x2="38.8688" xlink:href="#a" y1="70.3918" y2="70.3918"/><linearGradient id="H" gradientUnits="userSpaceOnUse" x1="-35.3357" x2="51.7912" xlink:href="#a" y1="87.6012" y2="87.6012"/><linearGradient id="I" gradientUnits="userSpaceOnUse" x1="101.457" x2="254.743" xlink:href="#a" y1="8.62359" y2="8.62359"/><linearGradient id="J" gradientUnits="userSpaceOnUse" x1="139.251" x2="222.99" xlink:href="#a" y1="57.4058" y2="57.4058"/><linearGradient id="K" gradientUnits="userSpaceOnUse" x1="153.519" x2="256.976" xlink:href="#a" y1="9.77521" y2="9.77521"/><linearGradient id="L" gradientUnits="userSpaceOnUse" x1="147.669" x2="239.562" xlink:href="#a" y1="-15.9657" y2="-15.9657"/><linearGradient id="M" gradientUnits="userSpaceOnUse" x1="157.945" x2="259.328" xlink:href="#a" y1="20.1757" y2="20.1757"/><linearGradient id="N" gradientUnits="userSpaceOnUse" x1="-237.553" x2="154.718" xlink:href="#a" y1="19.4221" y2="19.4221"/><linearGradient id="O" gradientUnits="userSpaceOnUse" x1="-147.42" x2="139.425" xlink:href="#a" y1="72.9628" y2="72.9628"/><linearGradient id="P" gradientUnits="userSpaceOnUse" x1="-201.363" x2="153.693" xlink:href="#a" y1="29.0408" y2="29.0408"/><linearGradient id="Q" gradientUnits="userSpaceOnUse" x1="10.6966" x2="41.489" xlink:href="#a" y1="-1.1112" y2="-1.1112"/><linearGradient id="R" gradientUnits="userSpaceOnUse" x1="-190.842" x2="201.43" xlink:href="#a" y1="74.224" y2="74.224"/><linearGradient id="S" gradientUnits="userSpaceOnUse" x1="-189.817" x2="165.239" xlink:href="#a" y1="64.6049" y2="64.6049"/><linearGradient id="T" gradientUnits="userSpaceOnUse" x1="-175.549" x2="111.296" xlink:href="#a" y1="20.6825" y2="20.6825"/><linearGradient id="U" gradientUnits="userSpaceOnUse" x1="-6.32498" x2="89.6031" xlink:href="#a" y1="47.5762" y2="47.5762"/><linearGradient id="V" gradientUnits="userSpaceOnUse" x1="-244.899" x2="145.302" xlink:href="#a" y1="-40.2262" y2="-40.2262"/><linearGradient id="W" gradientUnits="userSpaceOnUse" x1="-242.944" x2="112.111" xlink:href="#a" y1="-60.6819" y2="-60.6819"/><linearGradient id="X" gradientUnits="userSpaceOnUse" x1="-296.952" x2="260.776" xlink:href="#a" y1="46.8393" y2="46.8393"/><linearGradient id="Y" gradientUnits="userSpaceOnUse" x1="-171.065" x2="24.3507" xlink:href="#a" y1="-36.5698" y2="-36.5698"/><linearGradient id="Z" gradientUnits="userSpaceOnUse" x1="-88.6785" x2="106.737" xlink:href="#a" y1="96.669" y2="96.669"/><linearGradient id="aa" gradientUnits="userSpaceOnUse" x1="-18.9256" x2="38.8693" xlink:href="#a" y1="70.3918" y2="70.3918"/><linearGradient id="ab" gradientUnits="userSpaceOnUse" x1="10.6971" x2="41.4895" xlink:href="#a" y1="-1.1112" y2="-1.1112"/><linearGradient id="ac" gradientUnits="userSpaceOnUse" x1="-113.747" x2="106.737" xlink:href="#a" y1="123.857" y2="123.857"/><linearGradient id="ad" gradientUnits="userSpaceOnUse" x1="1332.14" x2="1527.55" xlink:href="#a" y1="-50.0229" y2="-50.0229"/><linearGradient id="ae" gradientUnits="userSpaceOnUse" x1="1400.01" x2="1457.8" xlink:href="#a" y1="-23.7456" y2="-23.7456"/><linearGradient id="af" gradientUnits="userSpaceOnUse" x1="1278.87" x2="1457.8" xlink:href="#a" y1="-40.1751" y2="-40.1751"/><linearGradient id="ag" gradientUnits="userSpaceOnUse" x1="1290.26" x2="1457.8" xlink:href="#a" y1="-21.7173" y2="-21.7173"/><linearGradient id="ah" gradientUnits="userSpaceOnUse" x1="1414.53" x2="1609.94" xlink:href="#a" y1="83.2159" y2="83.2159"/><linearGradient id="ai" gradientUnits="userSpaceOnUse" x1="1361.25" x2="1467.79" xlink:href="#a" y1="83.4207" y2="83.4207"/><linearGradient id="aj" gradientUnits="userSpaceOnUse" x1="1372.65" x2="1464.54" xlink:href="#a" y1="80.2924" y2="80.2924"/><linearGradient id="ak" gradientUnits="userSpaceOnUse" x1="1391.54" x2="1469.56" xlink:href="#a" y1="-38.462" y2="-38.462"/><linearGradient id="al" gradientUnits="userSpaceOnUse" x1="1281.37" x2="1552.62" xlink:href="#a" y1="-75.3539" y2="-75.3539"/><linearGradient id="am" gradientUnits="userSpaceOnUse" x1="1293.57" x2="1683.78" xlink:href="#a" y1="86.8722" y2="86.8722"/><linearGradient id="an" gradientUnits="userSpaceOnUse" x1="1184.13" x2="1419.81" xlink:href="#a" y1="106.892" y2="106.892"/><linearGradient id="ao" gradientUnits="userSpaceOnUse" x1="1363.76" x2="1635.01" xlink:href="#a" y1="83.4207" y2="83.4207"/><linearGradient id="ap" gradientUnits="userSpaceOnUse" x1="1278.87" x2="1457.8" xlink:href="#a" y1="-40.1749" y2="-40.1749"/><linearGradient id="aq" gradientUnits="userSpaceOnUse" x1="1280.3" x2="1457.8" xlink:href="#a" y1="-27.087" y2="-27.087"/><linearGradient id="ar" gradientUnits="userSpaceOnUse" x1="1303.93" x2="1499.35" xlink:href="#a" y1="-83.5698" y2="-83.5698"/><linearGradient id="as" gradientUnits="userSpaceOnUse" x1="1361.87" x2="1457.8" xlink:href="#a" y1="-59.9691" y2="-59.9691"/><linearGradient id="at" gradientUnits="userSpaceOnUse" x1="1427.01" x2="1457.8" xlink:href="#a" y1="-75.2923" y2="-75.2923"/><linearGradient id="au" gradientUnits="userSpaceOnUse" x1="1362.69" x2="1464.07" xlink:href="#a" y1="68.2933" y2="68.2933"/><linearGradient id="av" gradientUnits="userSpaceOnUse" x1="1386.32" x2="1581.74" xlink:href="#a" y1="49.6688" y2="49.6688"/><linearGradient id="aw" gradientUnits="userSpaceOnUse" x1="1437.78" x2="1532.69" xlink:href="#a" y1="59.8266" y2="59.8266"/><linearGradient id="ax" gradientUnits="userSpaceOnUse" x1="1439.66" x2="1526.79" xlink:href="#a" y1="40.6009" y2="40.6009"/><linearGradient id="ay" gradientUnits="userSpaceOnUse" x1="1293.57" x2="1683.78" xlink:href="#a" y1="86.8724" y2="86.8724"/><linearGradient id="az" gradientUnits="userSpaceOnUse" x1="1370.59" x2="1657.43" xlink:href="#a" y1="127.18" y2="127.18"/><linearGradient id="aA" gradientUnits="userSpaceOnUse" x1="1326.77" x2="1681.82" xlink:href="#a" y1="107.328" y2="107.328"/><linearGradient id="aB" gradientUnits="userSpaceOnUse" x1="1223.48" x2="1326.94" xlink:href="#a" y1="126.593" y2="126.593"/><linearGradient id="aC" gradientUnits="userSpaceOnUse" x1="1237.45" x2="1629.72" xlink:href="#a" y1="-27.5779" y2="-27.5779"/><linearGradient id="aD" gradientUnits="userSpaceOnUse" x1="1327.58" x2="1614.42" xlink:href="#a" y1="25.9628" y2="25.9628"/><linearGradient id="aE" gradientUnits="userSpaceOnUse" x1="1273.64" x2="1628.69" xlink:href="#a" y1="-17.9592" y2="-17.9592"/><linearGradient id="aF" gradientUnits="userSpaceOnUse" x1="1349.27" x2="1445.2" xlink:href="#a" y1="-.930066" y2="-.930066"/><linearGradient id="aG" gradientUnits="userSpaceOnUse" x1="1284.16" x2="1676.43" xlink:href="#a" y1="27.224" y2="27.224"/><linearGradient id="aH" gradientUnits="userSpaceOnUse" x1="1285.18" x2="1640.24" xlink:href="#a" y1="17.6049" y2="17.6049"/><linearGradient id="aI" gradientUnits="userSpaceOnUse" x1="1299.45" x2="1586.3" xlink:href="#a" y1="-26.3175" y2="-26.3175"/><linearGradient id="aJ" gradientUnits="userSpaceOnUse" x1="1397.39" x2="1428.18" xlink:href="#a" y1="47.7573" y2="47.7573"/><linearGradient id="aK" gradientUnits="userSpaceOnUse" x1="1184.13" x2="1337.42" xlink:href="#a" y1="38.0226" y2="38.0226"/><linearGradient id="aL" gradientUnits="userSpaceOnUse" x1="1181.9" x2="1285.36" xlink:href="#a" y1="36.8708" y2="36.8708"/><linearGradient id="aM" gradientUnits="userSpaceOnUse" x1="1215.89" x2="1299.63" xlink:href="#a" y1="-10.7602" y2="-10.7602"/><linearGradient id="aN" gradientUnits="userSpaceOnUse" x1="1199.31" x2="1291.21" xlink:href="#a" y1="62.6119" y2="62.6119"/><linearGradient id="aO" gradientUnits="userSpaceOnUse" x1="1179.55" x2="1280.93" xlink:href="#a" y1="26.4705" y2="26.4705"/><linearGradient id="aP" gradientUnits="userSpaceOnUse" x1="1230.1" x2="1620.3" xlink:href="#a" y1="-87.2262" y2="-87.2262"/><linearGradient id="aQ" gradientUnits="userSpaceOnUse" x1="1178.05" x2="1735.78" xlink:href="#a" y1="-.160713" y2="-.160713"/><linearGradient id="aR" gradientUnits="userSpaceOnUse" x1="1437.78" x2="1532.7" xlink:href="#a" y1="59.8266" y2="59.8266"/><linearGradient id="aS" gradientUnits="userSpaceOnUse" x1="1361.25" x2="1581.74" xlink:href="#a" y1="76.8577" y2="76.8577"/><clipPath id="aT"><path d="m0 0h1440v71h-1440z"/></clipPath><g clip-path="url(#aT)"><path d="m0 0h1440v71h-1440z" fill="#fff"/><path d="m0 0h1440v71h-1440z" fill="#fff"/><g stroke-miterlimit="10" stroke-width="2"><path d="m21.7094-119.166c-44.717 42.5834-62.522 116.89918-39.7728 165.9889-22.7515-49.08972 7.6831-93.3662 67.9759-98.8939 44.7171-42.5832 32.0898-72.622-28.2031-67.095z" stroke="url(#b)"/><path d="m75.8743-89.6194c-74.63008 26.2668-116.6869 87.35267-93.9354 136.4424" stroke="url(#c)"/><path d="m49.915-52.071c-60.2928 5.5277-90.7273 49.80416-67.9758 98.8939-22.7515-49.08974-77.4428-54.365-122.1602-11.7818 60.2931-5.5277 145.41896-44.52897 190.136-87.1121z" stroke="url(#d)"/><path d="m.439753-34.8831c-22.146553 21.0916-64.308153 40.40881-94.171153 43.14528" stroke="url(#e)"/><path d="m-18.061 46.8228c22.7491 49.0873 77.4427 54.3622 122.157 11.7794 60.293-5.5277 72.921 24.5115 28.206 67.0948-60.293 5.528-127.6139-29.7845-150.363-78.8742z" stroke="url(#f)"/><path d="m-18.061 46.8228c22.7491 49.0873 101.6923 67.5902 176.322 41.3233" stroke="url(#g)"/><path d="m-18.0611 46.8228c22.74912 49.0873 90.0701 84.4022 150.3631 78.8742-44.7173 42.583-129.84316 81.584-190.136 87.114 44.7147-42.585 62.52202-116.8985 39.7729-165.9882z" stroke="url(#h)"/><path d="m-18.061 46.8228c22.74909 49.0873 65.1012 102.4352 94.5927 119.1562" stroke="url(#i)"/><path d="m-18.061 46.8228c22.74909 49.0873 34.5619 116.4272 26.38105 150.4082" stroke="url(#j)"/><path d="m21.7094-119.166c-44.717 42.5834-62.522 116.89918-39.7728 165.9889-22.7515-49.08972 7.6831-93.3662 67.9759-98.8939 44.7171-42.5832 32.0898-72.622-28.2031-67.095z" stroke="url(#b)"/><path d="m75.8743-89.6194c-74.63008 26.2668-116.6869 87.35267-93.9354 136.4424" stroke="url(#c)"/><path d="m49.915-52.071c-60.2928 5.5277-90.7273 49.80416-67.9758 98.8939-22.7515-49.08974-77.4428-54.365-122.1602-11.7818 60.2931-5.5277 145.41896-44.52897 190.136-87.1121z" stroke="url(#d)"/><path d="m.439753-34.8831c-22.146553 21.0916-64.308153 40.40881-94.171153 43.14528" stroke="url(#e)"/><path d="m-18.061 46.8228c22.7491 49.0873 77.4427 54.3622 122.157 11.7794 60.293-5.5277 72.921 24.5115 28.206 67.0948-60.293 5.528-127.6139-29.7845-150.363-78.8742z" stroke="url(#f)"/><path d="m-18.061 46.8228c22.7491 49.0873 101.6923 67.5902 176.322 41.3233" stroke="url(#g)"/><path d="m-18.0611 46.8228c22.74912 49.0873 90.0701 84.4022 150.3631 78.8742-44.7173 42.583-129.84316 81.584-190.136 87.114 44.7147-42.585 62.52202-116.8985 39.7729-165.9882z" stroke="url(#h)"/><path d="m-18.061 46.8228c22.74909 49.0873 65.1012 102.4352 94.5927 119.1562" stroke="url(#i)"/><path d="m-18.061 46.8228c22.74909 49.0873 34.5619 116.4272 26.38105 150.4082" stroke="url(#j)"/><path d="m-25.6942 34.2553c-1.379-1.6028-3.108-3.8416-4.5965-5.3443-2.003-2.0244-4.8204-4.5847-7.021-6.3947-1.61-1.1598-3.682-2.8127-5.3634-3.8629-2.4792-1.5457-5.8802-3.4581-8.4857-4.7775-1.5694-.6836-3.6296-1.6743-5.2324-2.2769-2.2173-.8335-5.2181-1.83619-7.4925-2.50543-1.5314-.37153-3.5534-.9574-5.1038-1.23605-2.5936-.46442-6.0755-.9574-8.6977-1.23129-.6882-.03572-1.6075-.10955-2.2982-.11908-.5406-.00714-1.2646-.02859-1.8053-.02144-.4739.00476-1.105.02858-1.579.06192.4454-.05239.7979-.09288 1.9315-.26674.9669-.19529 2.2626-.43583 3.2247-.65494 1.2932-.29532 3.0128-.71686 4.2964-1.05505 2.6293-.75021 6.1208-1.79811 8.7239-2.62691 1.5266-.5311 3.5724-1.217 5.0895-1.771915 1.791-.654942 4.1654-1.562335 5.9373-2.264915 3.4462-1.37657 6.8853-2.85317 10.2862-4.41074 3.8892-1.78145 7.7307-3.67242 11.4865-5.65632s7.4235-4.0583 10.9626-6.2065c2.1101-1.3456 4.9037-3.1675 6.9781-4.5679.9383-.674 2.2054-1.5528 3.1294-2.2435.9455-.7073 2.1887-1.6719 3.10562-2.4173.38582-.3334.9074-.774 1.28607-1.1146.25483-.231.59064-.543.83118-.7883-.52157.5001-1.19318 1.1932-1.65997 1.7457-.78355.9288-1.77192 2.2173-2.5031 3.1866-.6478.955-1.5671 2.1935-2.1625 3.1818-1.1955 1.9839-2.7174 4.6727-3.801 6.7185-.7812 1.7505-1.9291 4.0392-2.6007 5.83498-1.0098 2.70075-2.2126 6.35891-2.9937 9.135865-.3978 1.836225-1.0265 4.263075-1.3242 6.115975-.3787 2.36255-.755 5.53728-.9312 7.92598-.0286 1.991-.212 4.6489-.0977 6.6375.1691 2.9628.5835 6.902 1.0408 9.8337.543 2.2459 1.1122 5.2848 1.81 7.4902.8241 2.6078 2.1292 6.0231 3.2533 8.5166-22.7515-49.08972 19.16719-116.0296 93.6282-149.5124 4.2964 12.1293-3.882 29.8866-25.6523 50.6185-44.71709 42.58314-129.843 81.5844-190.1362 87.1145-27.767 2.5459-45.424-2.4507-52.026-12.744 73.459-35.5479 151.4443-24.56871 174.1958 24.521-2.0863-3.8868-4.9371-9.0763-7.633-12.5677z" stroke="url(#k)"/><path d="m-25.6942 34.2553c-1.379-1.6028-3.108-3.8416-4.5965-5.3443-2.003-2.0244-4.8204-4.5847-7.021-6.3947-1.61-1.1598-3.682-2.8127-5.3634-3.8629-2.4792-1.5457-5.8802-3.4581-8.4857-4.7775-1.5694-.6836-3.6296-1.6743-5.2324-2.2769-2.2173-.8335-5.2181-1.83619-7.4925-2.50543-1.5314-.37153-3.5534-.9574-5.1038-1.23605-2.5936-.46442-6.0755-.9574-8.6977-1.23129-.6882-.03572-1.6075-.10955-2.2982-.11908-.5406-.00714-1.2646-.02859-1.8053-.02144-.4739.00476-1.105.02858-1.579.06192.4454-.05239.7979-.09288 1.9315-.26674.9669-.19529 2.2626-.43583 3.2247-.65494 1.2932-.29532 3.0128-.71686 4.2964-1.05505 2.6293-.75021 6.1208-1.79811 8.7239-2.62691 1.5266-.5311 3.5724-1.217 5.0895-1.771915 1.791-.654942 4.1654-1.562335 5.9373-2.264915 3.4462-1.37657 6.8853-2.85317 10.2862-4.41074 3.8892-1.78145 7.7307-3.67242 11.4865-5.65632s7.4235-4.0583 10.9626-6.2065c2.1101-1.3456 4.9037-3.1675 6.9781-4.5679.9383-.674 2.2054-1.5528 3.1294-2.2435.9455-.7073 2.1887-1.6719 3.10562-2.4173.38582-.3334.9074-.774 1.28607-1.1146.25483-.231.59064-.543.83118-.7883-.52157.5001-1.19318 1.1932-1.65997 1.7457-.78355.9288-1.77192 2.2173-2.5031 3.1866-.6478.955-1.5671 2.1935-2.1625 3.1818-1.1955 1.9839-2.7174 4.6727-3.801 6.7185-.7812 1.7505-1.9291 4.0392-2.6007 5.83498-1.0098 2.70075-2.2126 6.35891-2.9937 9.135865-.3978 1.836225-1.0265 4.263075-1.3242 6.115975-.3787 2.36255-.755 5.53728-.9312 7.92598-.0286 1.991-.212 4.6489-.0977 6.6375.1691 2.9628.5835 6.902 1.0408 9.8337.543 2.2459 1.1122 5.2848 1.81 7.4902.8241 2.6078 2.1292 6.0231 3.2533 8.5166-22.7515-49.08972 19.16719-116.0296 93.6282-149.5124 4.2964 12.1293-3.882 29.8866-25.6523 50.6185-44.71709 42.58314-129.843 81.5844-190.1362 87.1145-27.767 2.5459-45.424-2.4507-52.026-12.744 73.459-35.5479 151.4443-24.56871 174.1958 24.521-2.0863-3.8868-4.9371-9.0763-7.633-12.5677z" stroke="url(#k)"/><path d="m21.7094-119.165c-44.717 42.5827-62.522 116.89842-39.7728 165.9882-22.7515-49.08978 7.6831-93.3663 67.9759-98.894 44.7171-42.5832 32.0898-72.6222-28.2031-67.0942z" stroke="url(#l)"/><path d="m65.7547-113.69c-69.04286 39.5583-106.5675 111.4234-83.8184 160.5131" stroke="url(#m)"/><path d="m-18.061 46.8232c22.7491 49.0874 77.4427 54.3628 122.157 11.7795 60.293-5.5277 72.921 24.5115 28.206 67.0943-60.293 5.528-127.6139-29.784-150.363-78.8738z" stroke="url(#n)"/><path d="m-18.061 46.8232c22.74909 49.0874 97.1625 56.8138 166.205 17.2548" stroke="url(#o)"/><path d="m-18.0604 46.8229c-22.7515-49.08969-4.9442-123.4054 39.7728-165.9889 30.9395-2.836 49.3279 3.692 53.8554 16.476-74.46103 33.4857-116.3797 100.42321-93.6282 149.5129z" stroke="url(#p)"/><path d="m-18.0604 46.8229c-22.7515-49.08969-4.9442-123.4054 39.7728-165.9889 30.9395-2.836 49.3279 3.692 53.8554 16.476-74.46103 33.4857-116.3797 100.42321-93.6282 149.5129z" stroke="url(#p)"/><path d="m-168.426-32.051c60.293-5.5277 127.6135 29.78437 150.3626 78.8741-22.7515-49.08973-4.9442-123.4055 39.7729-165.9891-60.2928 5.528-145.4185 44.5318-190.1355 87.115z" stroke="#65f8c3"/><path d="m-18.0612 46.8232c22.74912 49.0874-7.6831 93.3638-67.9759 98.8918 44.7171-42.583 129.8429-81.5846 190.1361-87.1147-44.7174 42.5857-99.41108 37.3127-122.1602-11.7771z" stroke="#65f8c3"/><path d="m-18.061 46.8232c22.74909 49.0874 47.8251 61.3358 56.0035 27.3576" stroke="#65f8c3"/><path d="m-18.061 46.8231c-22.7515-49.08973-100.737-60.0689-174.186-24.5234-7.736-12.0557-.3-31.37772 23.823-54.3507 44.717-42.5832 129.843-81.584 190.1359-87.115-44.7171 42.5836-62.5244 116.89937-39.7729 165.9891z" stroke="#65f8c3"/><path d="m-18.061 46.8231c-22.7515-49.08973-100.737-60.0689-174.186-24.5234-7.736-12.0557-.3-31.37772 23.823-54.3507 44.717-42.5832 129.843-81.584 190.1359-87.115-44.7171 42.5836-62.5244 116.89937-39.7729 165.9891z" stroke="#65f8c3"/><path d="m21.7094-119.166c-44.717 42.5834-62.522 116.89918-39.7728 165.9889-22.7515-49.08972 7.6831-93.3662 67.9759-98.8939 44.7171-42.5832 32.0898-72.622-28.2031-67.095z" stroke="url(#b)"/><path d="m65.7547-113.69c-69.04286 39.5581-106.5675 111.42315-83.8184 160.5129" stroke="url(#q)"/><path d="m-18.061 46.8228c22.7491 49.0873 77.4427 54.3622 122.157 11.7794 60.293-5.5277 72.921 24.5115 28.206 67.0948-60.293 5.528-127.6139-29.7845-150.363-78.8742z" stroke="url(#f)"/><path d="m-18.061 46.8228c22.74909 49.0873 97.1625 56.8132 166.205 17.2547" stroke="url(#r)"/><path d="m104.096 58.6023c44.717-42.5831 62.522-116.8989 39.773-165.9863 120.586-11.055 145.84 49.0207 56.409 134.1895 22.749 49.0873-7.684 93.3635-67.976 98.8915 44.714-42.5831 32.087-72.6224-28.206-67.0947z" stroke="url(#s)"/><path d="m148.142 64.0776c69.042-39.5586 106.567-111.4236 83.818-160.5109" stroke="url(#t)"/><path d="m27.4801 84.4831c2.6269.7574 6.2136 1.4505 8.9024 1.9458 1.3766.2549 3.2462.3835 4.637.5478 1.3456.1143 1.4028.1167 4.4179.2643 19.2363-1.2622 39.8324-10.7077 58.6616-28.6388 30.939-2.8365 49.328 3.6915 53.855 16.476-74.4585 33.4828-153.26352 20.8319-176.015-28.2554 1.1455 2.3458 2.8174 5.4062 4.1725 7.6378.9384 1.5433 2.4221 3.4509 3.4581 4.9299 1.86723 2.3006 4.5108 5.2443 6.59471 7.3497 1.39562 1.4099 3.484301 3.0484 4.97757 4.3535 1.88147 1.46 4.4798 3.2938 6.48035 4.587 1.5671 1.0122 3.77967 2.1601 5.39907 3.0866 2.6317 1.2813 6.2089 2.8484 8.9311 3.9249 1.6195.643 3.851 1.3075 5.5277 1.7909z" stroke="url(#u)"/><path d="m27.4801 84.4831c2.6269.7574 6.2136 1.4505 8.9024 1.9458 1.3766.2549 3.2462.3835 4.637.5478 1.3456.1143 1.4028.1167 4.4179.2643 19.2363-1.2622 39.8324-10.7077 58.6616-28.6388 30.939-2.8365 49.328 3.6915 53.855 16.476-74.4585 33.4828-153.26352 20.8319-176.015-28.2554 1.1455 2.3458 2.8174 5.4062 4.1725 7.6378.9384 1.5433 2.4221 3.4509 3.4581 4.9299 1.86723 2.3006 4.5108 5.2443 6.59471 7.3497 1.39562 1.4099 3.484301 3.0484 4.97757 4.3535 1.88147 1.46 4.4798 3.2938 6.48035 4.587 1.5671 1.0122 3.77967 2.1601 5.39907 3.0866 2.6317 1.2813 6.2089 2.8484 8.9311 3.9249 1.6195.643 3.851 1.3075 5.5277 1.7909z" stroke="url(#u)"/><path d="m21.7094-119.166c-44.717 42.5834-62.522 116.89918-39.7728 165.9889-22.7515-49.08972 7.6831-93.3662 67.9759-98.8939 44.7171-42.5832 32.0898-72.622-28.2031-67.095z" stroke="url(#b)"/><path d="m65.7547-113.69c-69.04286 39.5581-106.5675 111.42315-83.8184 160.5129" stroke="url(#q)"/><path d="m-18.061 46.8228c22.7491 49.0873 77.4427 54.3622 122.157 11.7794 60.293-5.5277 72.921 24.5115 28.206 67.0948-60.293 5.528-127.6139-29.7845-150.363-78.8742z" stroke="url(#f)"/><path d="m-18.061 46.8228c22.74909 49.0873 97.1625 56.8132 166.205 17.2547" stroke="url(#r)"/><path d="m-10.4304 59.3905c1.30035 1.5219 2.92936 3.6486 4.33689 5.0728 2.06962 2.0935 4.97042 4.749 7.23533 6.6328 1.52661 1.1075 3.50811 2.6698 5.09188 3.6915 1.9815 1.2813 4.7013 2.8722 6.7852 3.9797 1.6338.7669 3.7677 1.891 5.4467 2.5531 2.6651 1.0526 6.2732 2.3149 9.012 3.1604 1.5076.3715 3.4962.9574 5.0229 1.2384 2.5387.4668 5.9492.9693 8.5166 1.2551.5954.0429 1.3909.1072 1.9863.1429.7168.0429 1.6742.0834 2.3911.1191.0119 0 .0286.0024.0405.0024-26.4502 1.7362-50.32818-11.9986-63.4985-40.4159.8479 1.629 1.8743 3.8582 2.827 5.4277 1.3432 2.2077 3.1985 5.1228 4.8061 7.14z" stroke="url(#v)"/><path d="m-10.4304 59.3905c1.30035 1.5219 2.92936 3.6486 4.33689 5.0728 2.06962 2.0935 4.97042 4.749 7.23533 6.6328 1.52661 1.1075 3.50811 2.6698 5.09188 3.6915 1.9815 1.2813 4.7013 2.8722 6.7852 3.9797 1.6338.7669 3.7677 1.891 5.4467 2.5531 2.6651 1.0526 6.2732 2.3149 9.012 3.1604 1.5076.3715 3.4962.9574 5.0229 1.2384 2.5387.4668 5.9492.9693 8.5166 1.2551.5954.0429 1.3909.1072 1.9863.1429.7168.0429 1.6742.0834 2.3911.1191.0119 0 .0286.0024.0405.0024-26.4502 1.7362-50.32818-11.9986-63.4985-40.4159.8479 1.629 1.8743 3.8582 2.827 5.4277 1.3432 2.2077 3.1985 5.1228 4.8061 7.14z" stroke="url(#v)"/><path d="m21.7099-119.166c-44.7171 42.5834-62.522 116.89918-39.7728 165.9889-22.7516-49.08972 7.683-93.3662 67.9759-98.8939 44.7171-42.5832 32.0898-72.622-28.2031-67.095z" stroke="url(#w)"/><path d="m75.8748-89.6194c-74.63009 26.2668-116.6869 87.35267-93.9354 136.4424" stroke="url(#x)"/><path d="m49.915-52.071c-60.2928 5.5277-90.7273 49.80416-67.9758 98.8939-22.7515-49.08974-77.4428-54.365-122.1602-11.7818 60.2931-5.5277 145.41896-44.52897 190.136-87.1121z" stroke="url(#d)"/><path d="m-18.0605 46.8228c22.74908 49.0873 77.4427 54.3622 122.1575 11.7794 60.293-5.5277 72.92 24.5115 28.205 67.0948-60.2925 5.528-127.61342-29.7845-150.3625-78.8742z" stroke="url(#y)"/><path d="m-18.0605 46.8228c22.74908 49.0873 101.6923 67.5902 176.3225 41.3233" stroke="url(#z)"/><path d="m-18.0606 46.8228c22.74911 49.0873 90.0701 84.4022 150.3626 78.8742-44.7168 42.583-129.84268 81.584-190.1355 87.114 44.7147-42.585 62.52201-116.8985 39.7729-165.9882z" stroke="#65f8c3"/><path d="m-18.0605 46.8228c22.74908 49.0873 65.1012 102.4352 94.5927 119.1562" stroke="#65f8c3"/><path d="m-18.0605 46.8228c22.74908 49.0873 34.5619 116.4272 26.38104 150.4082" stroke="#65f8c3"/><path d="m104.097 58.6023c44.717-42.5831 62.522-116.8989 39.773-165.9863 120.585-11.055 145.84 49.0207 56.408 134.1895 22.749 49.0873-7.683 93.3635-67.976 98.8915 44.715-42.5831 32.087-72.6224-28.205-67.0947z" stroke="url(#A)"/><path d="m158.262 88.1463c74.63-26.2668 116.687-87.352714 93.938-136.4424" stroke="url(#B)"/><path d="m132.302 125.697c60.293-5.527 90.727-49.804 67.976-98.8913-89.432 85.1663-259.686 163.1713-380.272 174.2263 22.749 49.088 77.443 54.363 122.1579 11.78 60.29515-5.53 145.421-44.532 190.1381-87.115z" stroke="url(#C)"/><path d="m-18.0607 46.8228c22.7491 49.0873 101.5542 61.7382 176.0147 28.2554 4.297 12.1295-3.882 29.8868-25.652 50.6188-44.7169 42.583-129.84279 81.584-190.1356 87.114-27.7672 2.546-45.4244-2.45-52.0264-12.744 73.449-35.545 114.5484-104.1545 91.7993-153.2442z" stroke="url(#D)"/><path d="m-18.0607 46.8228c22.7491 49.0873 101.5542 61.7382 176.0147 28.2554 4.297 12.1295-3.882 29.8868-25.652 50.6188-44.7169 42.583-129.84279 81.584-190.1356 87.114-27.7672 2.546-45.4244-2.45-52.0264-12.744 73.449-35.545 114.5484-104.1545 91.7993-153.2442z" stroke="url(#D)"/><path d="m-168.426-32.051c60.293-5.5277 127.6135 29.78437 150.3626 78.8741-22.7515-49.08973-4.9442-123.4055 39.7729-165.9891-60.2928 5.528-145.4185 44.5318-190.1355 87.115z" stroke="url(#E)"/><path d="m-18.0612 46.8232c22.74912 49.0874-7.6831 93.3638-67.9759 98.8918 44.7171-42.583 129.8429-81.5846 190.1361-87.1147-44.7174 42.5857-99.41108 37.3127-122.1602-11.7771z" stroke="url(#F)"/><path d="m-18.061 46.8232c22.74909 49.0874 47.8251 61.3358 56.0035 27.3576" stroke="url(#G)"/><path d="m36.661 89.3707c-2.5245.7359-5.8803 1.7624-8.3833 2.5721-1.4695.5192-3.4391 1.1885-4.9014 1.7291-1.7243.6406-4.0154 1.5242-5.723 2.2077-3.3319 1.3313-6.6542 2.7579-9.9432 4.2634-3.75818 1.722-7.473485 3.551-11.10306 5.468-3.62957 1.917-7.17574 3.922-10.59574 5.999-2.0363 1.27-4.737 2.987-6.7424 4.306-.905.634-2.1244 1.46-3.0175 2.11-.9074.662-2.1053 1.567-2.9865 2.263-1.5314 1.214-1.5314 1.214-2.0125 1.624.0977-.126.2263-.293.3263-.417.5287-.655 1.2242-1.534 1.741-2.198.25-.322.5668-.76.8097-1.086 1.498-2.222 3.3962-5.254 4.7442-7.571.7192-1.239 1.5004-2.987 2.1411-4.266.7311-1.767 1.8171-4.082 2.4387-5.889.9336-2.7225 2.0339-6.4045 2.7389-9.1957.3453-1.8434.905-4.2845 1.1479-6.1422.312-2.3697.5954-5.5491.7002-7.9379-.031-1.9886.0738-4.6489-.1024-6.6304-.2596-2.9556-.7955-6.8828-1.3456-9.8003-.4573-1.7505-.955-4.1154-1.5266-5.8326-.8264-2.4769-2.0816-5.7325-3.1318-8.1237 13.17025 28.4198 37.0483 42.1545 63.4984 40.416-.0929.0357-.212.0905-.3072.1167-.3906.1-.9169.2095-1.3123.2953-.9193.2-2.1482.4453-3.0604.6644-1.2312.2954-2.8722.7098-4.0915 1.0551z" stroke="url(#H)"/><path d="m36.661 89.3707c-2.5245.7359-5.8803 1.7624-8.3833 2.5721-1.4695.5192-3.4391 1.1885-4.9014 1.7291-1.7243.6406-4.0154 1.5242-5.723 2.2077-3.3319 1.3313-6.6542 2.7579-9.9432 4.2634-3.75818 1.722-7.473485 3.551-11.10306 5.468-3.62957 1.917-7.17574 3.922-10.59574 5.999-2.0363 1.27-4.737 2.987-6.7424 4.306-.905.634-2.1244 1.46-3.0175 2.11-.9074.662-2.1053 1.567-2.9865 2.263-1.5314 1.214-1.5314 1.214-2.0125 1.624.0977-.126.2263-.293.3263-.417.5287-.655 1.2242-1.534 1.741-2.198.25-.322.5668-.76.8097-1.086 1.498-2.222 3.3962-5.254 4.7442-7.571.7192-1.239 1.5004-2.987 2.1411-4.266.7311-1.767 1.8171-4.082 2.4387-5.889.9336-2.7225 2.0339-6.4045 2.7389-9.1957.3453-1.8434.905-4.2845 1.1479-6.1422.312-2.3697.5954-5.5491.7002-7.9379-.031-1.9886.0738-4.6489-.1024-6.6304-.2596-2.9556-.7955-6.8828-1.3456-9.8003-.4573-1.7505-.955-4.1154-1.5266-5.8326-.8264-2.4769-2.0816-5.7325-3.1318-8.1237 13.17025 28.4198 37.0483 42.1545 63.4984 40.416-.0929.0357-.212.0905-.3072.1167-.3906.1-.9169.2095-1.3123.2953-.9193.2-2.1482.4453-3.0604.6644-1.2312.2954-2.8722.7098-4.0915 1.0551z" stroke="url(#H)"/><path d="m104.097 58.6026c44.717-42.5832 62.522-116.8989 39.773-165.9866 120.585-11.055 145.84 49.021 56.408 134.1897 22.749 49.0874-7.683 93.3643-67.976 98.8913 44.715-42.5829 32.087-72.6221-28.205-67.0944z" stroke="url(#I)"/><path d="m139.337 7.55044c90.725-8.318959 109.726 36.88156 42.441 100.95856" stroke="url(#J)"/><path d="m153.605-51.9969c112.355-10.3029 135.886 45.67448 52.558 125.0273" stroke="url(#K)"/><path d="m148.142 64.0778c69.043-39.5585 106.568-111.4236 83.818-160.5109" stroke="url(#L)"/><path d="m158.262 88.1465c74.63-26.2668 116.687-87.35267 93.938-136.4424" stroke="url(#M)"/><path d="m132.302 125.697c60.293-5.527 90.727-49.804 67.976-98.8913-89.432 85.1663-259.686 163.1713-380.272 174.2263 22.749 49.088 77.443 54.363 122.1579 11.78 60.29515-5.53 145.421-44.532 190.1381-87.115z" stroke="url(#C)"/><path d="m-86.0394 145.717c-60.2926 5.528-127.6136-29.784-150.3626-78.8742 89.431-85.1663 259.6856-163.1712 380.271-174.2268 22.749 49.0876 4.944 123.4033-39.773 165.9865-60.2925 5.5277-145.4183 44.5315-190.1354 87.1145z" stroke="url(#N)"/><path d="m-146.763 138.634c67.285-64.0747 195.3775-122.7623 286.1-131.08127" stroke="url(#O)"/><path d="m-200.707 110.338c83.328-79.3527 241.96-152.0322 354.312-162.3351" stroke="url(#P)"/><path d="m37.9426 74.1806c8.1808-33.9784-3.6319-101.3184-26.3811-150.4081" stroke="url(#Q)"/><path d="m143.869-107.384c-22.751-49.09-77.4424-54.365-122.1595-11.782 60.2928-5.527 72.9201 24.5119 28.2054 67.095 60.2931-5.5277 127.6141 29.7844 150.3631 78.8742 89.432-85.1664 64.177-145.2452-56.409-134.1872z" stroke="#65f8c3"/><path d="m200.278 26.8033c-22.752-49.0898-90.07-84.4043-150.363-78.8742-44.71708 42.58321-129.8429 81.5844-190.136 87.1145-44.717 42.5832-62.522 116.8994-39.773 165.9884 120.586-11.058 290.84-89.062 380.272-174.2287z" stroke="url(#R)"/><path d="m164.582-16.6921c-83.3277 79.3528-241.9572 152.0321-354.312 162.3331" stroke="url(#S)"/><path d="m110.639-44.988c-67.2853 64.0772-195.3778 122.7624-286.1 131.0814" stroke="url(#T)"/><path d="m88.7377 107.368c-22.7515-49.0894-65.1013-102.43744-94.59512-119.1563" stroke="url(#U)"/><path d="m-236.402 66.8429c-22.751-49.0898 7.683-93.3663 67.976-98.894 44.717-42.5832 129.8429-81.5839 190.1357-87.1149 44.7171-42.583 99.4083-37.31 122.1603 11.782-120.586 11.0557-290.84 89.0605-380.272 174.2269z" stroke="url(#V)"/><path d="m-242.287 20.6134c83.326-79.3529 241.957558-152.0304 354.312-162.3324" stroke="url(#W)"/><path d="m-168.426-32.0511c-24.124 22.97303-31.557 42.295-23.824 54.3507 6.605 10.291 24.262 15.29 52.027 12.744 60.2926-5.5277 145.41842-44.53131 190.1355-87.1145 21.7703-20.7319 29.9487-38.4892 25.6523-50.6191-4.5274-12.784-22.9158-19.312-53.8553-16.476 18.8266-17.928 39.4251-27.374 58.6614-28.638 9.3526-.586 21.8461-1.089 31.2161-1.191 4.746-.053 11.072.338 15.804.679 4.115.431 9.634.778 13.718 1.436 7.123 1.148 16.576 2.969 23.611 4.575 3.656 1.083 8.603 2.31 12.187 3.613 5.671 2.062 13.135 5.091 18.629 7.587 3.141 1.696 7.428 3.785 10.47 5.652 3.753 2.303 8.626 5.597 12.151 8.233 2.567 2.177 6.154 4.899 8.554 7.259 3.506 3.449 7.96 8.279 11.099 12.0656 1.881 2.6674 4.553 6.1183 6.273 8.8929 1.934 3.1223 4.296 7.4235 5.887 10.7315 1.219 2.9794 3.058 6.8757 4.066 9.9337 1.352 4.1154 2.867 9.7027 3.784 13.9372.479 3.2628 1.365 7.5878 1.598 10.8792.352 4.9395.488 11.5508.355 16.4998-.331 3.439-.577 8.0522-1.105 11.4674-.681 4.4155-1.86 10.26715-2.923 14.606438-1.021 3.410462-2.193 8.018872-3.408 11.365062-1.843 5.0776-4.56 11.7532-6.771 16.6808-1.795 3.5414-3.977 8.3808-5.984 11.8056-3.768 6.4256-9.082 14.8231-13.249 20.9963-5.347 7.0805-12.611 16.4378-18.472 23.0968-5.559 6.3184-13.549 14.2206-19.553 20.1197-3.601 3.272-8.336 7.709-12.001 10.906-3.699 3.224-8.722 7.418-12.546 10.493-3.863 2.994-8.953 7.066-12.875 9.979-4.628 3.437-10.88 7.909-15.621 11.186-7.86 5.216-18.432 12.032-26.443 17.012-9.6483 5.854-19.6463 11.508-29.8801 16.914-10.2337 5.407-20.7081 10.563-31.3062 15.419-9.274 4.249-18.6456 8.269-28.0363 12.022-4.637 1.782-10.7887 4.23-15.45189 5.94-5.22525 1.915-12.22718 4.37-17.50481 6.135-8.7358 2.763-20.4271 6.311-29.239 8.821-4.7609 1.206-11.0864 2.906-15.8711 4.013-5.5515 1.284-12.9797 2.873-18.5741 3.956-4.7847.822-11.1436 2.051-15.9473 2.737-6.4923.929-15.1732 1.993-21.6992 2.643-9.29.636-21.701 1.298-31.013 1.367-6.299.048-14.694-.5-20.977-.974-4.07-.476-9.531-.881-13.568-1.588-7.035-1.229-16.367-3.163-23.304-4.852-3.656-1.143-8.6-2.472-12.189-3.812-4.956-1.853-11.475-4.578-16.264-6.824-3.065-1.662-7.267-3.684-10.22-5.542-4.277-2.691-9.829-6.53-13.844-9.598-2.441-2.148-5.842-4.856-8.136-7.159-3.074-3.089-6.978-7.407-9.733-10.786-1.882-2.667-4.554-6.116-6.271-8.893-1.934-3.122-4.294-7.424-5.887-10.732-1.239-3.029-3.075-7.001-4.133-10.098-1.178-3.458-2.505-8.159-3.312-11.722-.541-3.256-1.51-7.566-1.806-10.853-.443-4.93-.695-11.536-.65-16.485.276-3.444.446-8.055.92-11.477.612-4.423 1.702-10.287 2.7-14.6377.97-3.42 2.07-8.0427 3.234-11.4008 1.768-5.099 4.39-11.808 6.528-16.7618 1.751-3.5366 3.852-8.3785 5.831-11.7913 4.072-7.0186 9.814-16.1997 14.323-22.9468 5.365-7.1067 12.684-16.4712 18.548-23.1707 5.17-5.90876 12.603-13.2989 18.19-18.81471 3.616-3.31279 8.367-7.80449 12.049-11.04349 3.715-3.2676 8.762-7.5188 12.606-10.6363 3.891-3.0342 9.021-7.1591 12.975-10.1123 4.665-3.4843 10.969-8.0189 15.752-11.3412 7.928-5.2943 18.595-12.2177 26.679-17.2738 9.767-5.9255 19.886-11.6509 30.246-17.1214 10.36-5.4706 20.9605-10.6911 31.6897-15.6067 9.3883-4.301 18.8742-8.369 28.3816-12.17 4.7203-1.722 10.9244-4.268 15.6448-5.99 5.2872-1.929 12.3748-4.406 17.7168-6.185 8.8381-2.779 20.66519-6.352 29.57956-8.876 4.81324-1.205 11.20784-2.908 16.04494-4.013 5.6086-1.281 13.1155-2.865 18.767-3.946 4.8276-.805 11.2412-2.013 16.0878-2.682 6.5423-.903 15.2923-1.932 21.8703-2.556-19.2362 1.263-39.8324 10.708-58.6614 28.639-60.2904 5.535-145.4161 44.5387-190.1331 87.1219z" stroke="url(#X)"/><path d="m-168.426-32.0511c-24.124 22.97303-31.557 42.295-23.824 54.3507 6.605 10.291 24.262 15.29 52.027 12.744 60.2926-5.5277 145.41842-44.53131 190.1355-87.1145 21.7703-20.7319 29.9487-38.4892 25.6523-50.6191-4.5274-12.784-22.9158-19.312-53.8553-16.476 18.8266-17.928 39.4251-27.374 58.6614-28.638 9.3526-.586 21.8461-1.089 31.2161-1.191 4.746-.053 11.072.338 15.804.679 4.115.431 9.634.778 13.718 1.436 7.123 1.148 16.576 2.969 23.611 4.575 3.656 1.083 8.603 2.31 12.187 3.613 5.671 2.062 13.135 5.091 18.629 7.587 3.141 1.696 7.428 3.785 10.47 5.652 3.753 2.303 8.626 5.597 12.151 8.233 2.567 2.177 6.154 4.899 8.554 7.259 3.506 3.449 7.96 8.279 11.099 12.0656 1.881 2.6674 4.553 6.1183 6.273 8.8929 1.934 3.1223 4.296 7.4235 5.887 10.7315 1.219 2.9794 3.058 6.8757 4.066 9.9337 1.352 4.1154 2.867 9.7027 3.784 13.9372.479 3.2628 1.365 7.5878 1.598 10.8792.352 4.9395.488 11.5508.355 16.4998-.331 3.439-.577 8.0522-1.105 11.4674-.681 4.4155-1.86 10.26715-2.923 14.606438-1.021 3.410462-2.193 8.018872-3.408 11.365062-1.843 5.0776-4.56 11.7532-6.771 16.6808-1.795 3.5414-3.977 8.3808-5.984 11.8056-3.768 6.4256-9.082 14.8231-13.249 20.9963-5.347 7.0805-12.611 16.4378-18.472 23.0968-5.559 6.3184-13.549 14.2206-19.553 20.1197-3.601 3.272-8.336 7.709-12.001 10.906-3.699 3.224-8.722 7.418-12.546 10.493-3.863 2.994-8.953 7.066-12.875 9.979-4.628 3.437-10.88 7.909-15.621 11.186-7.86 5.216-18.432 12.032-26.443 17.012-9.6483 5.854-19.6463 11.508-29.8801 16.914-10.2337 5.407-20.7081 10.563-31.3062 15.419-9.274 4.249-18.6456 8.269-28.0363 12.022-4.637 1.782-10.7887 4.23-15.45189 5.94-5.22525 1.915-12.22718 4.37-17.50481 6.135-8.7358 2.763-20.4271 6.311-29.239 8.821-4.7609 1.206-11.0864 2.906-15.8711 4.013-5.5515 1.284-12.9797 2.873-18.5741 3.956-4.7847.822-11.1436 2.051-15.9473 2.737-6.4923.929-15.1732 1.993-21.6992 2.643-9.29.636-21.701 1.298-31.013 1.367-6.299.048-14.694-.5-20.977-.974-4.07-.476-9.531-.881-13.568-1.588-7.035-1.229-16.367-3.163-23.304-4.852-3.656-1.143-8.6-2.472-12.189-3.812-4.956-1.853-11.475-4.578-16.264-6.824-3.065-1.662-7.267-3.684-10.22-5.542-4.277-2.691-9.829-6.53-13.844-9.598-2.441-2.148-5.842-4.856-8.136-7.159-3.074-3.089-6.978-7.407-9.733-10.786-1.882-2.667-4.554-6.116-6.271-8.893-1.934-3.122-4.294-7.424-5.887-10.732-1.239-3.029-3.075-7.001-4.133-10.098-1.178-3.458-2.505-8.159-3.312-11.722-.541-3.256-1.51-7.566-1.806-10.853-.443-4.93-.695-11.536-.65-16.485.276-3.444.446-8.055.92-11.477.612-4.423 1.702-10.287 2.7-14.6377.97-3.42 2.07-8.0427 3.234-11.4008 1.768-5.099 4.39-11.808 6.528-16.7618 1.751-3.5366 3.852-8.3785 5.831-11.7913 4.072-7.0186 9.814-16.1997 14.323-22.9468 5.365-7.1067 12.684-16.4712 18.548-23.1707 5.17-5.90876 12.603-13.2989 18.19-18.81471 3.616-3.31279 8.367-7.80449 12.049-11.04349 3.715-3.2676 8.762-7.5188 12.606-10.6363 3.891-3.0342 9.021-7.1591 12.975-10.1123 4.665-3.4843 10.969-8.0189 15.752-11.3412 7.928-5.2943 18.595-12.2177 26.679-17.2738 9.767-5.9255 19.886-11.6509 30.246-17.1214 10.36-5.4706 20.9605-10.6911 31.6897-15.6067 9.3883-4.301 18.8742-8.369 28.3816-12.17 4.7203-1.722 10.9244-4.268 15.6448-5.99 5.2872-1.929 12.3748-4.406 17.7168-6.185 8.8381-2.779 20.66519-6.352 29.57956-8.876 4.81324-1.205 11.20784-2.908 16.04494-4.013 5.6086-1.281 13.1155-2.865 18.767-3.946 4.8276-.805 11.2412-2.013 16.0878-2.682 6.5423-.903 15.2923-1.932 21.8703-2.556-19.2362 1.263-39.8324 10.708-58.6614 28.639-60.2904 5.535-145.4161 44.5387-190.1331 87.1219z" stroke="url(#X)"/><path d="m-18.0605 46.8232c22.74908 49.0874 77.4427 54.3628 122.1575 11.7795 60.293-5.5277 72.92 24.5115 28.205 67.0943-60.2925 5.528-127.61342-29.784-150.3625-78.8738z" stroke="#65f8c3"/><path d="m-18.0605 46.8232c22.74908 49.0874 97.1625 56.8138 166.2055 17.2548" stroke="#65f8c3"/><path d="m-18.0605 46.8232c22.74908 49.0874 101.6923 67.5898 176.3225 41.3233" stroke="#65f8c3"/><path d="m-18.0606 46.8232c22.74911 49.0874 90.0701 84.4018 150.3626 78.8738-44.7168 42.584-129.84268 81.585-190.1355 87.115 44.7147-42.586 62.52201-116.899 39.7729-165.9888z" stroke="#65f8c3"/><path d="m-18.0605 46.8232c22.74908 49.0874 65.1012 102.4358 94.5927 119.1568" stroke="#65f8c3"/><path d="m-18.0605 46.8232c22.74908 49.0874 34.5619 116.4278 26.38104 150.4078" stroke="#65f8c3"/><path d="m-18.0607 46.8232c22.74911 49.0874-7.6831 93.3638-67.9759 98.8918 44.7171-42.583 129.8429-81.5846 190.1356-87.1147-44.7169 42.5857-99.41059 37.3127-122.1597-11.7771z" stroke="#65f8c3"/><path d="m-18.0605 46.8232c22.74908 49.0874 47.8251 61.3358 56.0035 27.3576" stroke="#65f8c3"/><path d="m104.097 58.6026c44.717-42.5832 62.522-116.8989 39.773-165.9866 120.586-11.055 145.84 49.021 56.408 134.1897 22.75 49.0874-7.683 93.3643-67.975 98.8913 44.714-42.5829 32.087-72.6221-28.206-67.0944z" stroke="#65f8c3"/><path d="m139.338 7.55044c90.725-8.318959 109.725 36.88156 42.44 100.95856" stroke="#65f8c3"/><path d="m153.606-51.9969c112.355-10.3029 135.885 45.67448 52.557 125.0273" stroke="#65f8c3"/><path d="m148.143 64.0778c69.042-39.5585 106.567-111.4236 83.818-160.5109" stroke="#65f8c3"/><path d="m158.262 88.1465c74.63-26.2668 116.687-87.35267 93.938-136.4424" stroke="#65f8c3"/><path d="m132.302 125.697c60.293-5.527 90.728-49.804 67.976-98.8913-89.431 85.1663-259.6855 163.1713-380.271 174.2263 22.749 49.088 77.443 54.363 122.1573 11.78 60.29524-5.53 145.4211-44.532 190.1377-87.115z" stroke="#65f8c3"/><path d="m-86.0389 145.717c-60.2931 5.528-127.6141-29.784-150.3631-78.8742 89.432-85.1663 259.686-163.1712 380.272-174.2268 22.749 49.0876 4.944 123.4033-39.773 165.9865-60.293 5.5277-145.4189 44.5315-190.1359 87.1145z" stroke="#65f8c3"/><path d="m-146.763 138.634c67.2855-64.0747 195.378-122.7623 286.101-131.08127" stroke="#65f8c3"/><path d="m-200.706 110.338c83.328-79.3527 241.9595-152.0322 354.312-162.3351" stroke="#65f8c3"/><path d="m37.9431 74.1806c8.1808-33.9784-3.632-101.3184-26.3811-150.4081" stroke="#65f8c3"/><path d="m143.87-107.384c-22.752-49.09-77.4429-54.365-122.16-11.782 60.2928-5.527 72.9201 24.5119 28.2053 67.095 60.2927-5.5277 127.6137 29.7844 150.3627 78.8742 89.432-85.1664 64.177-145.2452-56.408-134.1872z" stroke="#65f8c3"/><path d="m200.278 26.8033c-22.751-49.0898-90.07-84.4043-150.3625-78.8742-44.7171 42.58321-129.8429 81.5844-190.1355 87.1145-44.717 42.5832-62.522 116.8994-39.773 165.9884 120.5855-11.058 290.84-89.062 380.271-174.2287z" stroke="#65f8c3"/><path d="m164.583-16.6921c-83.3282 79.3528-241.9577 152.0321-354.312 162.3331" stroke="#65f8c3"/><path d="m110.639-44.988c-67.2848 64.0772-195.3773 122.7624-286.1 131.0814" stroke="#65f8c3"/><path d="m88.7382 107.368c-22.7515-49.0894-65.1013-102.43744-94.59513-119.1563" stroke="#65f8c3"/><path d="m-236.401 66.8429c-22.752-49.0898 7.683-93.3663 67.975-98.894 44.718-42.5832 129.8434-81.5839 190.1362-87.1149 44.7171-42.583 99.4088-37.31 122.1598 11.782-120.5855 11.0557-290.84 89.0605-380.271 174.2269z" stroke="#65f8c3"/><path d="m-242.286 20.6134c83.325-79.3529 241.957046-152.0304 354.312-162.3324" stroke="#65f8c3"/><path d="m7.60115-134.608c5.59445-1.541 13.12025-3.346 18.77655-4.639 4.7895-1.096 11.2246-2.325 16.0354-3.32 6.5185-1.172 15.2399-2.568 21.8013-3.473 4.8299-.667 11.3102-1.233 16.1568-1.765 24.6468-1.617 47.0608 10.199 60.6568 34.81-13.251-7.676-31.992-16.728-46.9363-20.074-15.4067-3.451-36.8554-3.604-52.586-2.218-7.8212.689-18.2693 1.751-25.9524 3.368-14.923116 3.139-34.6976 7.993-49.2778 12.458-7.0663 2.163-16.3784 5.43-23.2088 8.255-13.3537 5.52-31.1896 12.8985-44.0217 19.5408-12.68 6.5637-29.182 16.0925-41.409 23.4684-6.097 3.6772-13.916 9.0929-19.62 13.3536-11.229 8.3833-25.395 20.6248-35.714 30.1036-4.961 4.556-10.918 11.3293-15.124 16.59028-10.333 12.92737-22.653 31.94932-27.686 47.71312-4.213 13.2013-6.151 32.8353-2.258 46.1342 1.744 5.954 4.673 14.2491 9.146 18.55 8.988 8.641 22.346 20.134 34.4 23.316 13.977 3.692 33.492 5.507 47.937 4.916 15.721-.643 36.479-4.899 51.6736-8.986 7.595-2.043 17.6763-5.001 25.0426-7.752 14.6898-5.487 34.1214-13.256 48.4229-19.6864 7.6998-3.4629 17.83115-8.369 25.418955-12.07 12.420045-6.0564 28.943645-14.2087 41.273245-20.4437 6.9138-3.4962 16.0259-8.3714 22.8373-12.0629 3.1961-1.7314 7.3711-4.2011 10.5196-6.0159 5.9183-3.4105 13.6751-8.2118 19.2695-12.1319 2.6127-1.8291 6.1589-4.1798 8.7003-6.1041 4.68-3.5462 10.934-8.2713 15.366-12.1248 6.218-5.4086 11.079-9.90509 17.614-17.11184 2.575-2.83888 5.795-6.80902 8.164-9.81936 1.784-2.2649 4.795-5.0109 5.676-7.7569-7.44 29.2009-22.83 57.4539-44.601 78.1834-60.2924 5.5278-145.4183 44.5314-190.1354 87.1144-24.1236 22.973-31.5566 42.295-23.8236 54.351 6.605 10.291 24.2619 15.29 52.0267 12.744 60.29278-5.528 145.4186-44.532 190.1353-87.115 21.771-20.732 29.949-38.4888 25.653-50.6184-4.528-12.7844-22.916-19.3125-53.856-16.476 21.771-20.7319 37.161-48.9825 44.601-78.1834 7.84-30.7799 6.847-62.6125-4.828-87.8032-.898-1.938-1.845-3.808-2.841-5.608-13.597-24.609-36.01-36.425-60.6548-34.805 5.0681-.429 11.8366-.974 16.9237-1.031 9.0311-.098 21.0751.114 30.0961.519 7.34.724 17.1 1.974 24.381 3.148 3.927.634 9.064 2.006 12.949 2.863 5.942 1.679 13.792 4.194 19.596 6.302 3.45 1.255 7.854 3.429 11.219 4.899 4.023 2.012 9.277 4.918 13.109 7.271 2.962 1.819 6.659 4.63 9.512 6.616 3.87 3.122 8.838 7.533 12.382 11.017 2.362 2.322 5.089 5.814 7.271 8.3073 2.246 2.8912 5.042 6.9066 6.971 10.017 1.724 2.7841 3.632 6.7233 5.189 9.6074 1.784 3.9702 3.885 9.3931 5.245 13.5276 1 3.0413 1.824 7.2424 2.605 10.3457.841 4.8251 1.627 11.3221 1.977 16.2092.238 3.3438-.017 7.8188-.024 11.1697-.269 4.3703-.907 10.1814-1.574 14.5088-.541 3.50574-1.715 8.0951-2.451 11.5651-1.417 5.10617-3.584 11.8414-5.392 16.8237-1.248 3.4414-3.351 7.8545-4.787 11.2221-3.22 6.4685-7.828 14.9375-11.482 21.1702-2.122 3.6176-5.425 8.1427-7.752 11.6317-4.746 6.3637-11.167 14.7994-16.411 20.7605-6.176 7.0186-14.974 15.8734-21.613 22.456-3.544 3.363-8.372 7.74-12.054 10.951-3.684 3.21-8.745 7.314-12.494 10.45-4.468 3.575-10.517 8.229-15.111 11.639-3.956 2.939-9.369 6.669-13.385 9.527-7.852 5.225-18.438 12.022-26.443 17.012-9.6476 5.854-19.6456 11.507-29.8794 16.914-10.2338 5.406-20.7081 10.562-31.3062 15.418-9.274 4.249-18.6456 8.269-28.0363 12.023-5.1753 2.06-12.1129 4.715-17.3453 6.632-4.65842 1.708-10.92918 3.811-15.6114 5.442-8.731 2.78-20.4319 6.293-29.239 8.822-5.5468 1.484-12.9774 3.346-18.5718 4.639-4.7394 1.098-11.1103 2.332-15.8711 3.33-6.4613 1.193-15.1089 2.619-21.6131 3.551-4.7914.686-11.2224 1.281-16.0334 1.829-6.699.548-15.649 1.248-22.37 1.298-8.891.066-20.746-.384-29.62-.905-7.259-.805-16.907-2.165-24.1-3.423-3.879-.676-8.94-2.112-12.772-3.017-5.218-1.512-12.106-3.78-17.195-5.683-3.456-1.293-7.881-3.467-11.258-4.953-4.575-2.353-10.551-5.747-14.904-8.488-2.875-1.808-6.412-4.657-9.158-6.652-3.384-2.799-7.726-6.745-10.826-9.858-2.27-2.279-4.93-5.661-7.043-8.088-2.246-2.891-5.042-6.906-6.971-10.017-1.724-2.784-3.632-6.723-5.187-9.605-1.548-3.327-3.372-7.878-4.558-11.351-1.053-3.084-2.022-7.328-2.887-10.469-.933-4.811-1.841-11.294-2.279-16.176-.3-3.337-.122-7.814-.176-11.165.197-4.37.743-10.188 1.343-14.523.486-3.51 1.593-8.114 2.277-11.5913 1.338-5.1228 3.403-11.8818 5.137-16.8832 1.198-3.4557 3.239-7.895 4.625-11.2793 3.499-7.0901 8.5-16.376 12.468-23.2136 2.086-3.5938 5.382-8.0665 7.687-11.5246 4.356-5.8897 10.253-13.6966 15.078-19.21 6.209-7.09722 15.005-16.09971 21.661-22.77774 3.558-3.40336 8.402-7.83786 12.099-11.08876 3.701-3.2533 8.788-7.414 12.553-10.591 4.504-3.6224 10.598-8.3357 15.228-11.7937 3.989-2.9794 9.448-6.7614 13.497-9.6599 7.921-5.3062 18.603-12.2057 26.679-17.2738 9.767-5.9254 19.886-11.6508 30.246-17.1214 10.36-5.4705 20.9606-10.691 31.6897-15.6067 9.3883-4.301 18.8743-8.369 28.3816-12.17 5.2396-2.079 12.263-4.756 17.5597-6.69 4.7132-1.719 11.0601-3.839 15.8019-5.485 8.8287-2.796 20.64384-6.416 29.57725-8.876z" stroke="#65f8c3"/><path d="m7.60115-134.608c5.59445-1.541 13.12025-3.346 18.77655-4.639 4.7895-1.096 11.2246-2.325 16.0354-3.32 6.5185-1.172 15.2399-2.568 21.8013-3.473 4.8299-.667 11.3102-1.233 16.1568-1.765 24.6468-1.617 47.0608 10.199 60.6568 34.81-13.251-7.676-31.992-16.728-46.9363-20.074-15.4067-3.451-36.8554-3.604-52.586-2.218-7.8212.689-18.2693 1.751-25.9524 3.368-14.923116 3.139-34.6976 7.993-49.2778 12.458-7.0663 2.163-16.3784 5.43-23.2088 8.255-13.3537 5.52-31.1896 12.8985-44.0217 19.5408-12.68 6.5637-29.182 16.0925-41.409 23.4684-6.097 3.6772-13.916 9.0929-19.62 13.3536-11.229 8.3833-25.395 20.6248-35.714 30.1036-4.961 4.556-10.918 11.3293-15.124 16.59028-10.333 12.92737-22.653 31.94932-27.686 47.71312-4.213 13.2013-6.151 32.8353-2.258 46.1342 1.744 5.954 4.673 14.2491 9.146 18.55 8.988 8.641 22.346 20.134 34.4 23.316 13.977 3.692 33.492 5.507 47.937 4.916 15.721-.643 36.479-4.899 51.6736-8.986 7.595-2.043 17.6763-5.001 25.0426-7.752 14.6898-5.487 34.1214-13.256 48.4229-19.6864 7.6998-3.4629 17.83115-8.369 25.418955-12.07 12.420045-6.0564 28.943645-14.2087 41.273245-20.4437 6.9138-3.4962 16.0259-8.3714 22.8373-12.0629 3.1961-1.7314 7.3711-4.2011 10.5196-6.0159 5.9183-3.4105 13.6751-8.2118 19.2695-12.1319 2.6127-1.8291 6.1589-4.1798 8.7003-6.1041 4.68-3.5462 10.934-8.2713 15.366-12.1248 6.218-5.4086 11.079-9.90509 17.614-17.11184 2.575-2.83888 5.795-6.80902 8.164-9.81936 1.784-2.2649 4.795-5.0109 5.676-7.7569-7.44 29.2009-22.83 57.4539-44.601 78.1834-60.2924 5.5278-145.4183 44.5314-190.1354 87.1144-24.1236 22.973-31.5566 42.295-23.8236 54.351 6.605 10.291 24.2619 15.29 52.0267 12.744 60.29278-5.528 145.4186-44.532 190.1353-87.115 21.771-20.732 29.949-38.4888 25.653-50.6184-4.528-12.7844-22.916-19.3125-53.856-16.476 21.771-20.7319 37.161-48.9825 44.601-78.1834 7.84-30.7799 6.847-62.6125-4.828-87.8032-.898-1.938-1.845-3.808-2.841-5.608-13.597-24.609-36.01-36.425-60.6548-34.805 5.0681-.429 11.8366-.974 16.9237-1.031 9.0311-.098 21.0751.114 30.0961.519 7.34.724 17.1 1.974 24.381 3.148 3.927.634 9.064 2.006 12.949 2.863 5.942 1.679 13.792 4.194 19.596 6.302 3.45 1.255 7.854 3.429 11.219 4.899 4.023 2.012 9.277 4.918 13.109 7.271 2.962 1.819 6.659 4.63 9.512 6.616 3.87 3.122 8.838 7.533 12.382 11.017 2.362 2.322 5.089 5.814 7.271 8.3073 2.246 2.8912 5.042 6.9066 6.971 10.017 1.724 2.7841 3.632 6.7233 5.189 9.6074 1.784 3.9702 3.885 9.3931 5.245 13.5276 1 3.0413 1.824 7.2424 2.605 10.3457.841 4.8251 1.627 11.3221 1.977 16.2092.238 3.3438-.017 7.8188-.024 11.1697-.269 4.3703-.907 10.1814-1.574 14.5088-.541 3.50574-1.715 8.0951-2.451 11.5651-1.417 5.10617-3.584 11.8414-5.392 16.8237-1.248 3.4414-3.351 7.8545-4.787 11.2221-3.22 6.4685-7.828 14.9375-11.482 21.1702-2.122 3.6176-5.425 8.1427-7.752 11.6317-4.746 6.3637-11.167 14.7994-16.411 20.7605-6.176 7.0186-14.974 15.8734-21.613 22.456-3.544 3.363-8.372 7.74-12.054 10.951-3.684 3.21-8.745 7.314-12.494 10.45-4.468 3.575-10.517 8.229-15.111 11.639-3.956 2.939-9.369 6.669-13.385 9.527-7.852 5.225-18.438 12.022-26.443 17.012-9.6476 5.854-19.6456 11.507-29.8794 16.914-10.2338 5.406-20.7081 10.562-31.3062 15.418-9.274 4.249-18.6456 8.269-28.0363 12.023-5.1753 2.06-12.1129 4.715-17.3453 6.632-4.65842 1.708-10.92918 3.811-15.6114 5.442-8.731 2.78-20.4319 6.293-29.239 8.822-5.5468 1.484-12.9774 3.346-18.5718 4.639-4.7394 1.098-11.1103 2.332-15.8711 3.33-6.4613 1.193-15.1089 2.619-21.6131 3.551-4.7914.686-11.2224 1.281-16.0334 1.829-6.699.548-15.649 1.248-22.37 1.298-8.891.066-20.746-.384-29.62-.905-7.259-.805-16.907-2.165-24.1-3.423-3.879-.676-8.94-2.112-12.772-3.017-5.218-1.512-12.106-3.78-17.195-5.683-3.456-1.293-7.881-3.467-11.258-4.953-4.575-2.353-10.551-5.747-14.904-8.488-2.875-1.808-6.412-4.657-9.158-6.652-3.384-2.799-7.726-6.745-10.826-9.858-2.27-2.279-4.93-5.661-7.043-8.088-2.246-2.891-5.042-6.906-6.971-10.017-1.724-2.784-3.632-6.723-5.187-9.605-1.548-3.327-3.372-7.878-4.558-11.351-1.053-3.084-2.022-7.328-2.887-10.469-.933-4.811-1.841-11.294-2.279-16.176-.3-3.337-.122-7.814-.176-11.165.197-4.37.743-10.188 1.343-14.523.486-3.51 1.593-8.114 2.277-11.5913 1.338-5.1228 3.403-11.8818 5.137-16.8832 1.198-3.4557 3.239-7.895 4.625-11.2793 3.499-7.0901 8.5-16.376 12.468-23.2136 2.086-3.5938 5.382-8.0665 7.687-11.5246 4.356-5.8897 10.253-13.6966 15.078-19.21 6.209-7.09722 15.005-16.09971 21.661-22.77774 3.558-3.40336 8.402-7.83786 12.099-11.08876 3.701-3.2533 8.788-7.414 12.553-10.591 4.504-3.6224 10.598-8.3357 15.228-11.7937 3.989-2.9794 9.448-6.7614 13.497-9.6599 7.921-5.3062 18.603-12.2057 26.679-17.2738 9.767-5.9254 19.886-11.6508 30.246-17.1214 10.36-5.4705 20.9606-10.691 31.6897-15.6067 9.3883-4.301 18.8743-8.369 28.3816-12.17 5.2396-2.079 12.263-4.756 17.5597-6.69 4.7132-1.719 11.0601-3.839 15.8019-5.485 8.8287-2.796 20.64384-6.416 29.57725-8.876z" stroke="#65f8c3"/><path d="m-168.426-32.051c60.293-5.5277 127.614 29.78437 150.3631 78.8741-22.7515-49.08973-4.9442-123.4055 39.7729-165.9891-60.2928 5.528-145.419 44.5318-190.136 87.115z" stroke="url(#Y)"/><path d="m-18.0607 46.8232c22.74911 49.0874-7.6831 93.3638-67.9759 98.8918 44.7171-42.583 129.8429-81.5846 190.1356-87.1147-44.7169 42.5857-99.41059 37.3127-122.1597-11.7771z" stroke="url(#Z)"/><path d="m-18.0605 46.8232c22.74908 49.0874 47.8251 61.3358 56.0035 27.3576" stroke="url(#aa)"/><path d="m-86.0389 145.717c-60.2931 5.528-127.6141-29.784-150.3631-78.8742 89.432-85.1663 259.686-163.1712 380.272-174.2268 22.749 49.0876 4.944 123.4033-39.773 165.9865-60.293 5.5277-145.4189 44.5315-190.1359 87.1145z" stroke="url(#N)"/><path d="m37.9431 74.1806c8.1808-33.9784-3.632-101.3184-26.3811-150.4081" stroke="url(#ab)"/><path d="m-109.86 200.068c-7.735-12.056-.3-31.378 23.8233-54.351 44.7171-42.583 129.8429-81.5846 190.1357-87.1147-18.8266 17.9288-39.4251 27.3742-58.6614 28.6389-.1405.1-.381.1333-.5501.1762-.3192.081-.7502.1643-1.0718.2358-1.0907.2167-2.5411.5382-3.6224.7978-1.0646.2549-2.4721.6454-3.5343.9217-2.5269.7312-5.8778 1.7672-8.3833 2.5721-1.6623.5621-3.8653 1.3457-5.511 1.9553-1.5433.5716-3.6415 1.248-5.1133 1.9839-3.3319 1.3313-6.6542 2.7579-9.94322 4.263-3.75818 1.722-7.47349 3.551-11.10306 5.468s-7.17582 3.923-10.59582 6c-2.0386 1.267-4.7346 2.988-6.7423 4.305-1.0574.72-2.453 1.701-3.4867 2.454-.7668.559-1.7624 1.343-2.515 1.919-.8597.669-1.0574.834-2.0124 1.624.2191-.288.5263-.662.7573-.945.6597-.81 1.4933-1.924 2.1221-2.758 1.4813-2.196 3.3604-5.187 4.6917-7.476.7359-1.265 1.5362-3.051 2.1935-4.361 1.1432-2.603 2.5269-6.139 3.4509-8.8282.6312-1.841 1.2099-4.3798 1.7267-6.2541.5073-2.3173 1.0574-5.4349 1.3671-7.7855.2453-1.8767.3381-4.406.481-6.2946.0286-2.9508-.1214-6.89-.381-9.8313-.1762-1.9982-.7479-4.6203-1.067-6.5994-.5882-2.515-1.5266-5.8374-2.3435-8.288-.5811-1.741-1.6195-3.9678-2.3149-5.6683 22.75151 49.085-18.3479 117.6944-91.7968 153.2404z" stroke="url(#ac)"/><path d="m-109.86 200.068c-7.735-12.056-.3-31.378 23.8233-54.351 44.7171-42.583 129.8429-81.5846 190.1357-87.1147-18.8266 17.9288-39.4251 27.3742-58.6614 28.6389-.1405.1-.381.1333-.5501.1762-.3192.081-.7502.1643-1.0718.2358-1.0907.2167-2.5411.5382-3.6224.7978-1.0646.2549-2.4721.6454-3.5343.9217-2.5269.7312-5.8778 1.7672-8.3833 2.5721-1.6623.5621-3.8653 1.3457-5.511 1.9553-1.5433.5716-3.6415 1.248-5.1133 1.9839-3.3319 1.3313-6.6542 2.7579-9.94322 4.263-3.75818 1.722-7.47349 3.551-11.10306 5.468s-7.17582 3.923-10.59582 6c-2.0386 1.267-4.7346 2.988-6.7423 4.305-1.0574.72-2.453 1.701-3.4867 2.454-.7668.559-1.7624 1.343-2.515 1.919-.8597.669-1.0574.834-2.0124 1.624.2191-.288.5263-.662.7573-.945.6597-.81 1.4933-1.924 2.1221-2.758 1.4813-2.196 3.3604-5.187 4.6917-7.476.7359-1.265 1.5362-3.051 2.1935-4.361 1.1432-2.603 2.5269-6.139 3.4509-8.8282.6312-1.841 1.2099-4.3798 1.7267-6.2541.5073-2.3173 1.0574-5.4349 1.3671-7.7855.2453-1.8767.3381-4.406.481-6.2946.0286-2.9508-.1214-6.89-.381-9.8313-.1762-1.9982-.7479-4.6203-1.067-6.5994-.5882-2.515-1.5266-5.8374-2.3435-8.288-.5811-1.741-1.6195-3.9678-2.3149-5.6683 22.75151 49.085-18.3479 117.6944-91.7968 153.2404z" stroke="url(#ac)"/><path d="m1524.92-99.071c-60.3 5.5277-90.73 49.8042-67.98 98.893881-22.75-49.089681-77.44-54.364981-122.16-11.781781 60.29-5.5277 145.42-44.529 190.14-87.1121z" stroke="url(#ad)"/><path d="m1400.93-27.5371c8.18-33.9784 33.26-21.7298 56.01 27.359901" stroke="url(#ae)"/><path d="m1334.78-11.9566c44.72-42.5831 99.41-37.3103 122.16 11.781835-22.75-49.089735-90.07-84.404235-150.36-78.874135-44.72 42.5808-32.09 72.62004 28.2 67.0923z" stroke="url(#af)"/><path d="m1290.73-17.4318c69.05-39.5586 143.46-31.835 166.21 17.254713" stroke="url(#ag)"/><path d="m1456.94-.177002c22.75 49.087302 90.07 84.401902 150.36 78.874102-44.72 42.5829-129.84 81.5849-190.13 87.1149 44.71-42.586 62.52-116.8993 39.77-165.989002z" stroke="url(#ah)"/><path d="m1456.94-.177002c22.75 49.087302 4.94 123.403002-39.77 165.986002-60.3 5.528-72.92-24.511-28.21-67.0945 60.29-5.5277 90.73-49.8018 67.98-98.891502z" stroke="url(#ai)"/><path d="m1456.94-.177002c22.75 49.087302-14.78 120.952002-83.82 160.511002" stroke="url(#aj)"/><path d="m1456.94-.177191c-2.07-3.896309-5.14-8.926259-7.63-12.567709-1.79-2.2292-4.34-5.0776-6.35-7.1115-1.48-1.4957-3.69-3.2414-5.27-4.6299-2.34-1.7719-5.57-3.9892-8.06-5.5444-1.67-1.0431-4.05-2.1672-5.79-3.096-2.21-1.017-5.2-2.2626-7.47-3.1176-1.55-.5811-3.68-1.167-5.25-1.6671-2.7-.6716-6.33-1.4456-9.06-1.9339-1.41-.2524-3.32-.3739-4.75-.5334-.94-.0596-2.2-.1239-3.14-.1382-.76-.0095-1.78.0191-2.54.0596.4-.0405.4-.0405 1.93-.2668 1.15-.2119 2.68-.5287 3.82-.7883 1.11-.2548 2.59-.6454 3.71-.9217 2.62-.7454 6.11-1.8052 8.72-2.6269 1.73-.5763 4.01-1.3789 5.72-2.0029 1.6-.5859 3.72-1.4242 5.31-2.0339 3.44-1.3766 6.88-2.8532 10.28-4.4108 3.89-1.7814 7.73-3.6724 11.49-5.6563 3.75-1.9839 7.42-4.0582 10.96-6.2065 2.11-1.3432 4.91-3.1699 6.98-4.5679 1.1-.7645 2.55-1.8076 3.62-2.6102.79-.5978 1.83-1.4361 2.61-2.0506.4-.3287.91-.7764 1.29-1.1193.26-.2287.58-.5502.83-.786-.45.4216-1.03 1.0051-1.42 1.4742-.86 1.0122-1.94 2.4055-2.74 3.4581-1.22 1.7672-2.78 4.175-3.88 6.0136-.69 1.1336-1.46 2.7198-2.09 3.8868-1.21 2.5769-2.7 6.0826-3.69 8.75-.69 1.8267-1.33 4.3536-1.9 6.2184-.58 2.3054-1.22 5.411-1.59 7.7569-.3 1.8719-.47 4.4012-.67 6.2851-.11 2.9508-.09 6.8971.08 9.8455.12 2.0006.61 4.637.86 6.6257.51 2.6578 1.39 6.166 2.21 8.74525.72 2.24109 2.01 5.09187 2.87 7.268659z" stroke="url(#ak)"/><path d="m1456.94-.177191c-2.07-3.896309-5.14-8.926259-7.63-12.567709-1.79-2.2292-4.34-5.0776-6.35-7.1115-1.48-1.4957-3.69-3.2414-5.27-4.6299-2.34-1.7719-5.57-3.9892-8.06-5.5444-1.67-1.0431-4.05-2.1672-5.79-3.096-2.21-1.017-5.2-2.2626-7.47-3.1176-1.55-.5811-3.68-1.167-5.25-1.6671-2.7-.6716-6.33-1.4456-9.06-1.9339-1.41-.2524-3.32-.3739-4.75-.5334-.94-.0596-2.2-.1239-3.14-.1382-.76-.0095-1.78.0191-2.54.0596.4-.0405.4-.0405 1.93-.2668 1.15-.2119 2.68-.5287 3.82-.7883 1.11-.2548 2.59-.6454 3.71-.9217 2.62-.7454 6.11-1.8052 8.72-2.6269 1.73-.5763 4.01-1.3789 5.72-2.0029 1.6-.5859 3.72-1.4242 5.31-2.0339 3.44-1.3766 6.88-2.8532 10.28-4.4108 3.89-1.7814 7.73-3.6724 11.49-5.6563 3.75-1.9839 7.42-4.0582 10.96-6.2065 2.11-1.3432 4.91-3.1699 6.98-4.5679 1.1-.7645 2.55-1.8076 3.62-2.6102.79-.5978 1.83-1.4361 2.61-2.0506.4-.3287.91-.7764 1.29-1.1193.26-.2287.58-.5502.83-.786-.45.4216-1.03 1.0051-1.42 1.4742-.86 1.0122-1.94 2.4055-2.74 3.4581-1.22 1.7672-2.78 4.175-3.88 6.0136-.69 1.1336-1.46 2.7198-2.09 3.8868-1.21 2.5769-2.7 6.0826-3.69 8.75-.69 1.8267-1.33 4.3536-1.9 6.2184-.58 2.3054-1.22 5.411-1.59 7.7569-.3 1.8719-.47 4.4012-.67 6.2851-.11 2.9508-.09 6.8971.08 9.8455.12 2.0006.61 4.637.86 6.6257.51 2.6578 1.39 6.166 2.21 8.74525.72 2.24109 2.01 5.09187 2.87 7.268659z" stroke="url(#ak)"/><path d="m1524.92-99.071c-60.3 5.5277-90.73 49.8042-67.98 98.893881-22.75-49.089681-77.44-54.364981-122.16-11.781781 60.29-5.5277 145.42-44.529 190.14-87.1121z" stroke="url(#ad)"/><path d="m1400.93-27.5371c8.18-33.9784 33.26-21.7298 56.01 27.359901" stroke="url(#ae)"/><path d="m1334.78-11.9566c44.72-42.5831 99.41-37.3103 122.16 11.781835-22.75-49.089735-90.07-84.404235-150.36-78.874135-44.72 42.5808-32.09 72.62004 28.2 67.0923z" stroke="url(#af)"/><path d="m1290.73-17.4318c69.05-39.5586 143.46-31.835 166.21 17.254713" stroke="url(#ag)"/><path d="m1456.94-.177002c22.75 49.087302 90.07 84.401902 150.36 78.874102-44.72 42.5829-129.84 81.5849-190.13 87.1149 44.71-42.586 62.52-116.8993 39.77-165.989002z" stroke="url(#ah)"/><path d="m1456.94-.177002c22.75 49.087302 4.94 123.403002-39.77 165.986002-60.3 5.528-72.92-24.511-28.21-67.0945 60.29-5.5277 90.73-49.8018 67.98-98.891502z" stroke="url(#ai)"/><path d="m1456.94-.177002c22.75 49.087302-14.78 120.952002-83.82 160.511002" stroke="url(#aj)"/><path d="m1449.31-12.7447c-1.38-1.6028-3.11-3.8416-4.6-5.3443-2-2.0244-4.82-4.5847-7.02-6.3947-1.61-1.1598-3.68-2.8127-5.37-3.8629-2.47-1.5457-5.88-3.4581-8.48-4.7775-1.57-.6836-3.63-1.6743-5.23-2.2769-2.22-.8335-5.22-1.8362-7.5-2.5054-1.53-.3716-3.55-.9574-5.1-1.2361-2.59-.4644-6.07-.9574-8.7-1.2313-.69-.0357-1.6-.1095-2.3-.119-.54-.0072-1.26-.0286-1.8-.0215-.47.0048-1.11.0286-1.58.0619.45-.0524.8-.0928 1.93-.2667.97-.1953 2.26-.4358 3.23-.6549 1.29-.2954 3.01-.7169 4.29-1.0551 2.63-.7502 6.12-1.7981 8.73-2.6269 1.52-.5311 3.57-1.217 5.09-1.7719 1.79-.655 4.16-1.5624 5.93-2.2649 3.45-1.3766 6.89-2.8532 10.29-4.4108 3.89-1.7814 7.73-3.6724 11.49-5.6563 3.75-1.9839 7.42-4.0583 10.96-6.2065 2.11-1.3456 4.9-3.1675 6.98-4.5679.94-.674 2.2-1.5528 3.13-2.2435.94-.7073 2.19-1.6719 3.1-2.4173.39-.3334.91-.774 1.29-1.1146.25-.231.59-.543.83-.7883-.52.5001-1.19 1.1932-1.66 1.7457-.78.9288-1.77 2.2173-2.5 3.1866-.65.955-1.57 2.1935-2.17 3.1818-1.19 1.9839-2.71 4.6727-3.8 6.7185-.78 1.7505-1.93 4.0392-2.6 5.835-1.01 2.7007-2.21 6.3589-2.99 9.1358-.4 1.8363-1.03 4.2631-1.33 6.116-.37 2.3626-.75 5.5373-.93 7.926-.03 1.991-.21 4.6489-.09 6.6375.16 2.9628.58 6.902 1.04 9.8337.54 2.2459 1.11 5.2848 1.81 7.49017.82 2.60787 2.13 6.0231 3.25 8.51664-22.75-49.08971 19.17-116.02941 93.63-149.51241 4.29 12.129-3.88 29.887-25.65 50.6185-44.72 42.5831-129.85 81.5844-190.14 87.1145-27.77 2.54592-45.43-2.4507-52.03-12.744 73.46-35.5479 151.45-24.5687 174.2 24.521026-2.09-3.886786-4.94-9.076306-7.63-12.567726z" stroke="url(#al)"/><path d="m1449.31-12.7447c-1.38-1.6028-3.11-3.8416-4.6-5.3443-2-2.0244-4.82-4.5847-7.02-6.3947-1.61-1.1598-3.68-2.8127-5.37-3.8629-2.47-1.5457-5.88-3.4581-8.48-4.7775-1.57-.6836-3.63-1.6743-5.23-2.2769-2.22-.8335-5.22-1.8362-7.5-2.5054-1.53-.3716-3.55-.9574-5.1-1.2361-2.59-.4644-6.07-.9574-8.7-1.2313-.69-.0357-1.6-.1095-2.3-.119-.54-.0072-1.26-.0286-1.8-.0215-.47.0048-1.11.0286-1.58.0619.45-.0524.8-.0928 1.93-.2667.97-.1953 2.26-.4358 3.23-.6549 1.29-.2954 3.01-.7169 4.29-1.0551 2.63-.7502 6.12-1.7981 8.73-2.6269 1.52-.5311 3.57-1.217 5.09-1.7719 1.79-.655 4.16-1.5624 5.93-2.2649 3.45-1.3766 6.89-2.8532 10.29-4.4108 3.89-1.7814 7.73-3.6724 11.49-5.6563 3.75-1.9839 7.42-4.0583 10.96-6.2065 2.11-1.3456 4.9-3.1675 6.98-4.5679.94-.674 2.2-1.5528 3.13-2.2435.94-.7073 2.19-1.6719 3.1-2.4173.39-.3334.91-.774 1.29-1.1146.25-.231.59-.543.83-.7883-.52.5001-1.19 1.1932-1.66 1.7457-.78.9288-1.77 2.2173-2.5 3.1866-.65.955-1.57 2.1935-2.17 3.1818-1.19 1.9839-2.71 4.6727-3.8 6.7185-.78 1.7505-1.93 4.0392-2.6 5.835-1.01 2.7007-2.21 6.3589-2.99 9.1358-.4 1.8363-1.03 4.2631-1.33 6.116-.37 2.3626-.75 5.5373-.93 7.926-.03 1.991-.21 4.6489-.09 6.6375.16 2.9628.58 6.902 1.04 9.8337.54 2.2459 1.11 5.2848 1.81 7.49017.82 2.60787 2.13 6.0231 3.25 8.51664-22.75-49.08971 19.17-116.02941 93.63-149.51241 4.29 12.129-3.88 29.887-25.65 50.6185-44.72 42.5831-129.85 81.5844-190.14 87.1145-27.77 2.54592-45.43-2.4507-52.03-12.744 73.46-35.5479 151.45-24.5687 174.2 24.521026-2.09-3.886786-4.94-9.076306-7.63-12.567726z" stroke="url(#al)"/><path d="m1334.78-11.9563c44.72-42.5832 99.41-37.3103 122.16 11.781779-22.75-49.089679-90.07-84.404179-150.36-78.874079-44.72 42.5807-32.09 72.61998 28.2 67.0923z" stroke="#65f8c3"/><path d="m1280.61-41.5027c74.63-26.2667 153.58-7.764 176.33 41.3257" stroke="#65f8c3"/><path d="m1306.57-79.051c60.3-5.5277 127.62 29.7844 150.37 78.8741-22.75-49.0897-4.95-123.4051 39.77-165.9891-60.29 5.528-145.42 44.532-190.14 87.115z" stroke="#65f8c3"/><path d="m1362.34-119.333c29.5 16.718 71.85 70.0664 94.6 119.156164" stroke="#65f8c3"/><path d="m1430.56-150.585c-8.18 33.978 3.63 101.3184 26.38 150.410558" stroke="#65f8c3"/><path d="m1456.94-.177002c22.75 49.087302 4.94 123.403002-39.77 165.986002-60.3 5.528-72.92-24.511-28.21-67.0945 60.29-5.5277 90.73-49.8018 67.98-98.891502z" stroke="#65f8c3"/><path d="m1456.94-.177002c22.75 49.087302-19.31 110.176002-93.94 136.442002" stroke="#65f8c3"/><path d="m1456.94-.177002c22.75 49.087302-7.68 93.363802-67.98 98.891602 44.72-42.5832 129.85-81.5844 190.14-87.1145-44.72 42.5855-99.41 37.3126-122.16-11.777102z" stroke="#65f8c3"/><path d="m1456.94-.1769c-22.75-49.0897-100.74-60.0689-174.19-24.5234-7.73-12.0557-.3-31.3777 23.83-54.3507 44.71-42.583 129.84-81.584 190.13-87.115-44.72 42.584-62.52 116.8994-39.77 165.9891z" stroke="#65f8c3"/><path d="m1456.94-.1769c-22.75-49.0897-100.74-60.0689-174.19-24.5234-7.73-12.0557-.3-31.3777 23.83-54.3507 44.71-42.583 129.84-81.584 190.13-87.115-44.72 42.584-62.52 116.8994-39.77 165.9891z" stroke="#65f8c3"/><path d="m1524.92-99.071c-60.3 5.5277-90.73 49.8042-67.98 98.893881-22.75-49.089681-77.44-54.364981-122.16-11.781781 60.29-5.5277 145.42-44.529 190.14-87.1121z" stroke="url(#ad)"/><path d="m1400.93-27.5371c8.18-33.9784 33.26-21.7298 56.01 27.359901" stroke="url(#ae)"/><path d="m1334.78-11.9566c44.72-42.5831 99.41-37.3103 122.16 11.781835-22.75-49.089735-90.07-84.404235-150.36-78.874135-44.72 42.5808-32.09 72.62004 28.2 67.0923z" stroke="url(#af)"/><path d="m1290.73-17.4318c69.05-39.5586 143.46-31.835 166.21 17.254713" stroke="url(#ag)"/><path d="m1456.94-.177002c22.75 49.087302 90.07 84.401902 150.36 78.874102-44.71 42.5829-129.84 81.5849-190.13 87.1149 44.71-42.586 62.52-116.8993 39.77-165.989002z" stroke="#65f8c3"/><path d="m1456.94-.177002c22.75 49.087302 4.94 123.403002-39.77 165.986002-60.3 5.528-72.92-24.511-28.21-67.0945 60.29-5.5277 90.73-49.8018 67.98-98.891502z" stroke="url(#ai)"/><path d="m1456.94-.177002c22.75 49.087302-14.78 120.952002-83.82 160.511002" stroke="url(#aj)"/><path d="m1607.3 78.697c60.29-5.5277 90.73-49.8042 67.98-98.8916-89.43 85.1664-259.69 163.1716-380.27 174.2266 22.75 49.087 77.44 54.363 122.15 11.779 60.3-5.53 145.42-44.531 190.14-87.114z" stroke="url(#am)"/><path d="m1417.17 165.809c-44.72 42.583-99.41 37.31-122.16-11.779-120.59 11.055-145.84-49.021-56.41-134.1897 22.75 49.0874 90.07 84.4017 150.36 78.8742-44.71 42.5855-32.09 72.6245 28.21 67.0945z" stroke="url(#an)"/><path d="m1456.94-.177002c22.75 49.087302 101.55 61.738502 176.01 28.255402 4.3 12.1295-3.88 29.8868-25.65 50.6187-44.71 42.5829-129.84 81.5849-190.13 87.1149-27.77 2.546-45.43-2.451-52.03-12.744 73.45-35.546 114.55-104.1553 91.8-153.245002z" stroke="url(#ao)"/><path d="m1456.94-.177002c22.75 49.087302 101.55 61.738502 176.01 28.255402 4.3 12.1295-3.88 29.8868-25.65 50.6187-44.71 42.5829-129.84 81.5849-190.13 87.1149-27.77 2.546-45.43-2.451-52.03-12.744 73.45-35.546 114.55-104.1553 91.8-153.245002z" stroke="url(#ao)"/><path d="m1334.78-11.9563c44.72-42.5832 99.41-37.3103 122.16 11.781779-22.75-49.089679-90.07-84.404179-150.36-78.874079-44.72 42.5807-32.09 72.61998 28.2 67.0923z" stroke="url(#ap)"/><path d="m1280.61-41.5024c74.63-26.2668 153.58-7.7641 176.33 41.325644" stroke="url(#aq)"/><path d="m1306.57-79.051c60.3-5.5277 127.62 29.7844 150.37 78.8741-22.75-49.0897-4.95-123.4051 39.77-165.9891-60.29 5.528-145.42 44.532-190.14 87.115z" stroke="url(#ar)"/><path d="m1362.34-119.333c29.5 16.718 71.85 70.0664 94.6 119.156164" stroke="url(#as)"/><path d="m1430.56-150.585c-8.18 33.978 3.63 101.3184 26.38 150.410558" stroke="url(#at)"/><path d="m1456.94-.177002c22.75 49.087302 4.94 123.403002-39.77 165.986002-60.3 5.528-72.92-24.511-28.21-67.0945 60.29-5.5277 90.73-49.8018 67.98-98.891502z" stroke="url(#ai)"/><path d="m1456.94-.177002c22.75 49.087302-19.31 110.176002-93.94 136.442002" stroke="url(#au)"/><path d="m1456.94-.177002c22.75 49.087302-7.68 93.363802-67.98 98.891602 44.72-42.5832 129.85-81.5844 190.14-87.1145-44.72 42.5855-99.41 37.3126-122.16-11.777102z" stroke="url(#av)"/><path d="m1438.44 81.529c22.14-21.0915 64.3-40.4087 94.17-43.1452" stroke="url(#aw)"/><path d="m1511.66 42.3705c-2.52.7359-5.88 1.7623-8.38 2.5721-1.47.5192-3.44 1.1884-4.9 1.729-1.73.6407-4.02 1.5243-5.73 2.2078-3.33 1.3313-6.65 2.7579-9.94 4.2631-3.76 1.7219-7.47 3.551-11.1 5.4682s-7.18 3.9225-10.6 5.9992c-2.04 1.2694-4.74 2.9865-6.74 4.306-.91.6335-2.13 1.4599-3.02 2.1101-.91.662-2.1 1.5671-2.99 2.2625-1.53 1.2146-1.53 1.2146-2.01 1.6243.1-.1263.23-.293.33-.4168.53-.655 1.22-1.5338 1.74-2.1982.25-.3216.57-.7598.81-1.0861 1.5-2.222 3.4-5.2538 4.74-7.5711.72-1.2384 1.5-2.9865 2.14-4.2655.74-1.7671 1.82-4.082 2.44-5.8897.94-2.7221 2.04-6.4041 2.74-9.1954.35-1.8433.91-4.2845 1.15-6.1421.31-2.3697.6-5.5492.7-7.9379-.03-1.9887.07-4.649-.1-6.6304-.26-2.9556-.8-6.8829-1.35-9.8004-.45-1.7504-.95-4.11538-1.52-5.83252-.83-2.47688-2.09-5.73255-3.14-8.123682 13.17 28.419702 37.05 42.154502 63.5 40.415902-.09.0357-.21.0905-.3.1167-.4.1-.92.2096-1.32.2953-.92.2001-2.15.4454-3.06.6645-1.23.2953-2.87.7097-4.09 1.0551z" stroke="url(#ax)"/><path d="m1511.66 42.3705c-2.52.7359-5.88 1.7623-8.38 2.5721-1.47.5192-3.44 1.1884-4.9 1.729-1.73.6407-4.02 1.5243-5.73 2.2078-3.33 1.3313-6.65 2.7579-9.94 4.2631-3.76 1.7219-7.47 3.551-11.1 5.4682s-7.18 3.9225-10.6 5.9992c-2.04 1.2694-4.74 2.9865-6.74 4.306-.91.6335-2.13 1.4599-3.02 2.1101-.91.662-2.1 1.5671-2.99 2.2625-1.53 1.2146-1.53 1.2146-2.01 1.6243.1-.1263.23-.293.33-.4168.53-.655 1.22-1.5338 1.74-2.1982.25-.3216.57-.7598.81-1.0861 1.5-2.222 3.4-5.2538 4.74-7.5711.72-1.2384 1.5-2.9865 2.14-4.2655.74-1.7671 1.82-4.082 2.44-5.8897.94-2.7221 2.04-6.4041 2.74-9.1954.35-1.8433.91-4.2845 1.15-6.1421.31-2.3697.6-5.5492.7-7.9379-.03-1.9887.07-4.649-.1-6.6304-.26-2.9556-.8-6.8829-1.35-9.8004-.45-1.7504-.95-4.11538-1.52-5.83252-.83-2.47688-2.09-5.73255-3.14-8.123682 13.17 28.419702 37.05 42.154502 63.5 40.415902-.09.0357-.21.0905-.3.1167-.4.1-.92.2096-1.32.2953-.92.2001-2.15.4454-3.06.6645-1.23.2953-2.87.7097-4.09 1.0551z" stroke="url(#ax)"/><path d="m1607.3 78.6972c60.29-5.5277 90.73-49.8042 67.98-98.8915-89.43 85.1663-259.69 163.1713-380.27 174.2263 22.75 49.088 77.44 54.363 122.15 11.78 60.3-5.53 145.42-44.532 190.14-87.1148z" stroke="url(#ay)"/><path d="m1656.78 61.5093c-67.29 64.0747-195.38 122.7627-286.1 131.0817" stroke="url(#az)"/><path d="m1681.16 26.0303c-83.32 79.3527-241.95 152.0327-354.31 162.3327" stroke="url(#aA)"/><path d="m1417.17 165.809c-44.72 42.584-99.41 37.311-122.16-11.779-120.59 11.055-145.84-49.021-56.41-134.1894 22.75 49.0873 90.07 84.4014 150.36 78.8741-44.71 42.5853-32.09 72.6253 28.21 67.0943z" stroke="url(#an)"/><path d="m1326.85 188.366c-112.35 10.303-135.88-45.675-52.55-125.0276" stroke="url(#aB)"/><path d="m1388.96 98.717c-60.29 5.528-127.61-29.7844-150.36-78.8742 89.43-85.1663 259.68-163.1708 380.27-174.2268 22.75 49.088 4.94 123.4033-39.77 165.9865-60.3 5.5277-145.42 44.5313-190.14 87.1145z" stroke="url(#aC)"/><path d="m1328.24 91.6341c67.28-64.0748 195.37-122.7624 286.1-131.0814" stroke="url(#aD)"/><path d="m1274.29 63.3382c83.33-79.3529 241.96-152.0324 354.32-162.3353" stroke="url(#aE)"/><path d="m1444.73 58.4345c-29.49-16.7189-71.84-70.0693-94.59-119.1567" stroke="url(#aF)"/><path d="m1675.28-20.1967c-22.75-49.0898-90.07-84.4043-150.36-78.8742-44.72 42.5832-129.85 81.5844-190.14 87.1145-44.72 42.5832-62.52 116.8994-39.77 165.9884 120.58-11.058 290.84-89.0624 380.27-174.2287z" stroke="url(#aG)"/><path d="m1639.58-63.6921c-83.33 79.3528-241.96 152.0324-354.31 162.3328" stroke="url(#aH)"/><path d="m1585.64-91.988c-67.29 64.0772-195.38 122.7624-286.1 131.0814" stroke="url(#aI)"/><path d="m1427.32 122.874c-22.76-49.0901-34.57-116.43007-26.39-150.4109" stroke="url(#aJ)"/><path d="m1295.01 154.032c-22.76-49.089-4.95-123.4052 39.77-165.9883-60.29 5.52768-72.92-24.5116-28.21-67.0947-60.29 5.5277-90.72 49.8042-67.97 98.8939-89.43 85.1661-64.18 145.2451 56.41 134.1891z" stroke="url(#aK)"/><path d="m1285.27 98.6433c-112.35 10.3027-135.88-45.6745-52.56-125.0273" stroke="url(#aL)"/><path d="m1299.54 39.0935c-90.72 8.319-109.73-36.88154-42.44-100.9587" stroke="url(#aM)"/><path d="m1206.92 143.082c-22.76-49.0901 14.77-120.9551 83.81-160.5136" stroke="url(#aN)"/><path d="m1186.68 94.9421c-22.75-49.0897 19.3-110.178 93.93-136.4423" stroke="url(#aO)"/><path d="m1238.6 19.8429c-22.75-49.0898 7.68-93.3663 67.97-98.894 44.72-42.5829 129.85-81.5839 190.14-87.1149 44.72-42.583 99.41-37.31 122.16 11.782-120.59 11.056-290.84 89.0605-380.27 174.2269z" stroke="url(#aP)"/><path d="m1306.57-79.0511c-24.12 22.973-31.55 42.295-23.82 54.3507 6.6 10.291 24.26 15.28996 52.03 12.744 60.29-5.5277 145.42-44.5313 190.13-87.1145 21.77-20.7321 29.95-38.4891 25.65-50.6191-4.52-12.784-22.91-19.312-53.85-16.476 18.83-17.928 39.42-27.374 58.66-28.638 9.35-.586 21.85-1.089 31.22-1.191 4.74-.053 11.07.338 15.8.679 4.12.431 9.63.778 13.72 1.436 7.12 1.148 16.58 2.969 23.61 4.575 3.66 1.083 8.6 2.31 12.19 3.613 5.67 2.062 13.13 5.091 18.63 7.587 3.14 1.696 7.42 3.785 10.47 5.652 3.75 2.303 8.62 5.597 12.15 8.233 2.56 2.177 6.15 4.899 8.55 7.259 3.51 3.449 7.96 8.279 11.1 12.066 1.88 2.667 4.55 6.118 6.27 8.892 1.94 3.123 4.3 7.424 5.89 10.732 1.22 2.979 3.06 6.876 4.07 9.934 1.35 4.115 2.86 9.702 3.78 13.937.48 3.2627 1.36 7.5877 1.6 10.8791.35 4.9395.49 11.5508.35 16.4998-.33 3.439-.57 8.0522-1.1 11.4674-.68 4.4155-1.86 10.2671-2.92 14.6064-1.03 3.4105-2.2 8.0189-3.41 11.3651-1.85 5.0776-4.56 11.7532-6.77 16.6808-1.8 3.5414-3.98 8.3808-5.99 11.8056-3.77 6.42558-9.08 14.82314-13.25 20.9963-5.34 7.0805-12.61 16.4378-18.47 23.0968-5.56 6.3184-13.55 14.2206-19.55 20.1199-3.6 3.2723-8.34 7.7092-12 10.9054-3.7 3.2247-8.72 7.4187-12.55 10.4933-3.86 2.9937-8.95 7.0663-12.87 9.979-4.63 3.4366-10.88 7.9093-15.63 11.1864-7.85 5.2157-18.43 12.0317-26.44 17.0117-9.65 5.854-19.64 11.508-29.88 16.914-10.23 5.407-20.71 10.563-31.3 15.419-9.28 4.249-18.65 8.269-28.04 12.022-4.64 1.782-10.79 4.23-15.45 5.94-5.23 1.915-12.23 4.37-17.51 6.135-8.73 2.763-20.42 6.311-29.24 8.821-4.76 1.206-11.08 2.906-15.87 4.013-5.55 1.284-12.98 2.873-18.57 3.956-4.79.822-11.15 2.051-15.95 2.737-6.49.929-15.17 1.993-21.7 2.643-9.29.636-21.7 1.298-31.01 1.367-6.3.048-14.7-.5-20.98-.974-4.07-.476-9.53-.881-13.57-1.588-7.03-1.229-16.36-3.163-23.3-4.852-3.66-1.143-8.6-2.472-12.19-3.812-4.96-1.853-11.47-4.578-16.26-6.824-3.07-1.662-7.27-3.684-10.22-5.542-4.28-2.691-9.83-6.53-13.85-9.598-2.44-2.148-5.84-4.856-8.13-7.159-3.08-3.089-6.98-7.407-9.74-10.786-1.88-2.667-4.55-6.116-6.27-8.893-1.93-3.122-4.29-7.424-5.88-10.732-1.24-3.029-3.08-7.001-4.14-10.098-1.18-3.458-2.5-8.159-3.31-11.722-.54-3.2555-1.51-7.5663-1.8-10.8529-.45-4.9299-.7-11.5365-.65-16.4855.27-3.4438.44-8.0546.91-11.4769.62-4.4227 1.71-10.2862 2.71-14.6374.96-3.42 2.06-8.0427 3.23-11.4008 1.77-5.099 4.39-11.808 6.53-16.7618 1.75-3.5366 3.85-8.3785 5.83-11.7913 4.07-7.01861 9.81-16.19972 14.32-22.9468 5.37-7.1067 12.69-16.4712 18.55-23.1707 5.17-5.9088 12.6-13.2989 18.19-18.8147 3.61-3.3128 8.37-7.8045 12.05-11.0435 3.71-3.2676 8.76-7.5188 12.6-10.6363 3.9-3.0342 9.03-7.1591 12.98-10.1123 4.66-3.4843 10.97-8.0189 15.75-11.3412 7.93-5.2939 18.6-12.2179 26.68-17.2739 9.77-5.925 19.89-11.651 30.25-17.121 10.36-5.471 20.96-10.691 31.69-15.607 9.38-4.301 18.87-8.369 28.38-12.17 4.72-1.722 10.92-4.268 15.64-5.99 5.29-1.929 12.38-4.406 17.72-6.185 8.84-2.779 20.66-6.352 29.58-8.876 4.81-1.205 11.21-2.908 16.04-4.013 5.61-1.281 13.12-2.865 18.77-3.946 4.83-.805 11.24-2.013 16.09-2.682 6.54-.903 15.29-1.932 21.87-2.556-19.24 1.263-39.83 10.708-58.66 28.639-60.29 5.535-145.42 44.539-190.14 87.1219z" stroke="url(#aQ)"/><path d="m1306.57-79.0511c-24.12 22.973-31.55 42.295-23.82 54.3507 6.6 10.291 24.26 15.28996 52.03 12.744 60.29-5.5277 145.42-44.5313 190.13-87.1145 21.77-20.7321 29.95-38.4891 25.65-50.6191-4.52-12.784-22.91-19.312-53.85-16.476 18.83-17.928 39.42-27.374 58.66-28.638 9.35-.586 21.85-1.089 31.22-1.191 4.74-.053 11.07.338 15.8.679 4.12.431 9.63.778 13.72 1.436 7.12 1.148 16.58 2.969 23.61 4.575 3.66 1.083 8.6 2.31 12.19 3.613 5.67 2.062 13.13 5.091 18.63 7.587 3.14 1.696 7.42 3.785 10.47 5.652 3.75 2.303 8.62 5.597 12.15 8.233 2.56 2.177 6.15 4.899 8.55 7.259 3.51 3.449 7.96 8.279 11.1 12.066 1.88 2.667 4.55 6.118 6.27 8.892 1.94 3.123 4.3 7.424 5.89 10.732 1.22 2.979 3.06 6.876 4.07 9.934 1.35 4.115 2.86 9.702 3.78 13.937.48 3.2627 1.36 7.5877 1.6 10.8791.35 4.9395.49 11.5508.35 16.4998-.33 3.439-.57 8.0522-1.1 11.4674-.68 4.4155-1.86 10.2671-2.92 14.6064-1.03 3.4105-2.2 8.0189-3.41 11.3651-1.85 5.0776-4.56 11.7532-6.77 16.6808-1.8 3.5414-3.98 8.3808-5.99 11.8056-3.77 6.42558-9.08 14.82314-13.25 20.9963-5.34 7.0805-12.61 16.4378-18.47 23.0968-5.56 6.3184-13.55 14.2206-19.55 20.1199-3.6 3.2723-8.34 7.7092-12 10.9054-3.7 3.2247-8.72 7.4187-12.55 10.4933-3.86 2.9937-8.95 7.0663-12.87 9.979-4.63 3.4366-10.88 7.9093-15.63 11.1864-7.85 5.2157-18.43 12.0317-26.44 17.0117-9.65 5.854-19.64 11.508-29.88 16.914-10.23 5.407-20.71 10.563-31.3 15.419-9.28 4.249-18.65 8.269-28.04 12.022-4.64 1.782-10.79 4.23-15.45 5.94-5.23 1.915-12.23 4.37-17.51 6.135-8.73 2.763-20.42 6.311-29.24 8.821-4.76 1.206-11.08 2.906-15.87 4.013-5.55 1.284-12.98 2.873-18.57 3.956-4.79.822-11.15 2.051-15.95 2.737-6.49.929-15.17 1.993-21.7 2.643-9.29.636-21.7 1.298-31.01 1.367-6.3.048-14.7-.5-20.98-.974-4.07-.476-9.53-.881-13.57-1.588-7.03-1.229-16.36-3.163-23.3-4.852-3.66-1.143-8.6-2.472-12.19-3.812-4.96-1.853-11.47-4.578-16.26-6.824-3.07-1.662-7.27-3.684-10.22-5.542-4.28-2.691-9.83-6.53-13.85-9.598-2.44-2.148-5.84-4.856-8.13-7.159-3.08-3.089-6.98-7.407-9.74-10.786-1.88-2.667-4.55-6.116-6.27-8.893-1.93-3.122-4.29-7.424-5.88-10.732-1.24-3.029-3.08-7.001-4.14-10.098-1.18-3.458-2.5-8.159-3.31-11.722-.54-3.2555-1.51-7.5663-1.8-10.8529-.45-4.9299-.7-11.5365-.65-16.4855.27-3.4438.44-8.0546.91-11.4769.62-4.4227 1.71-10.2862 2.71-14.6374.96-3.42 2.06-8.0427 3.23-11.4008 1.77-5.099 4.39-11.808 6.53-16.7618 1.75-3.5366 3.85-8.3785 5.83-11.7913 4.07-7.01861 9.81-16.19972 14.32-22.9468 5.37-7.1067 12.69-16.4712 18.55-23.1707 5.17-5.9088 12.6-13.2989 18.19-18.8147 3.61-3.3128 8.37-7.8045 12.05-11.0435 3.71-3.2676 8.76-7.5188 12.6-10.6363 3.9-3.0342 9.03-7.1591 12.98-10.1123 4.66-3.4843 10.97-8.0189 15.75-11.3412 7.93-5.2939 18.6-12.2179 26.68-17.2739 9.77-5.925 19.89-11.651 30.25-17.121 10.36-5.471 20.96-10.691 31.69-15.607 9.38-4.301 18.87-8.369 28.38-12.17 4.72-1.722 10.92-4.268 15.64-5.99 5.29-1.929 12.38-4.406 17.72-6.185 8.84-2.779 20.66-6.352 29.58-8.876 4.81-1.205 11.21-2.908 16.04-4.013 5.61-1.281 13.12-2.865 18.77-3.946 4.83-.805 11.24-2.013 16.09-2.682 6.54-.903 15.29-1.932 21.87-2.556-19.24 1.263-39.83 10.708-58.66 28.639-60.29 5.535-145.42 44.539-190.14 87.1219z" stroke="url(#aQ)"/><path d="m1456.94-.177002c22.75 49.087302 90.07 84.401902 150.36 78.874102-44.71 42.5829-129.84 81.5849-190.13 87.1149 44.71-42.586 62.52-116.8993 39.77-165.989002z" stroke="#65f8c3"/><path d="m1456.94-.177002c22.75 49.087302 4.94 123.403002-39.77 165.986002-60.3 5.528-72.92-24.511-28.21-67.0945 60.29-5.5277 90.73-49.8018 67.98-98.891502z" stroke="#65f8c3"/><path d="m1456.94-.177002c22.75 49.087302-14.78 120.952002-83.82 160.511002" stroke="#65f8c3"/><path d="m1456.94-.177002c22.75 49.087302-19.31 110.176002-93.94 136.442002" stroke="#65f8c3"/><path d="m1456.94-.177002c22.75 49.087302-7.68 93.363802-67.98 98.891602 44.72-42.5832 129.85-81.5844 190.14-87.1145-44.72 42.5855-99.41 37.3126-122.16-11.777102z" stroke="#65f8c3"/><path d="m1607.3 78.6972c60.3-5.5277 90.73-49.8042 67.98-98.8915-89.43 85.1663-259.69 163.1713-380.27 174.2263 22.75 49.088 77.44 54.363 122.15 11.78 60.3-5.53 145.43-44.532 190.14-87.1148z" stroke="#65f8c3"/><path d="m1656.78 61.5093c-67.29 64.0747-195.38 122.7627-286.1 131.0817" stroke="#65f8c3"/><path d="m1681.17 26.0303c-83.33 79.3527-241.96 152.0327-354.32 162.3327" stroke="#65f8c3"/><path d="m1417.17 165.809c-44.72 42.584-99.41 37.311-122.16-11.779-120.59 11.055-145.84-49.021-56.41-134.1894 22.75 49.0873 90.07 84.4014 150.36 78.8741-44.71 42.5853-32.09 72.6253 28.21 67.0943z" stroke="#65f8c3"/><path d="m1326.85 188.366c-112.35 10.303-135.88-45.675-52.55-125.0276" stroke="#65f8c3"/><path d="m1388.96 98.717c-60.29 5.528-127.61-29.7844-150.36-78.8742 89.43-85.1663 259.68-163.1708 380.27-174.2268 22.75 49.088 4.94 123.4033-39.77 165.9865-60.3 5.5277-145.42 44.5313-190.14 87.1145z" stroke="#65f8c3"/><path d="m1328.24 91.6341c67.28-64.0748 195.37-122.7624 286.1-131.0814" stroke="#65f8c3"/><path d="m1274.29 63.3382c83.33-79.3529 241.96-152.0324 354.32-162.3353" stroke="#65f8c3"/><path d="m1444.73 58.4345c-29.49-16.7189-71.84-70.0693-94.59-119.1567" stroke="#65f8c3"/><path d="m1675.28-20.1967c-22.75-49.0898-90.07-84.4043-150.36-78.8742-44.72 42.5832-129.85 81.5844-190.14 87.1145-44.72 42.5832-62.52 116.8994-39.77 165.9884 120.58-11.058 290.84-89.0624 380.27-174.2287z" stroke="#65f8c3"/><path d="m1639.58-63.6921c-83.33 79.3528-241.95 152.0324-354.31 162.3328" stroke="#65f8c3"/><path d="m1585.64-91.988c-67.29 64.0772-195.38 122.7624-286.1 131.0814" stroke="#65f8c3"/><path d="m1427.32 122.874c-22.75-49.0901-34.57-116.43007-26.39-150.4109" stroke="#65f8c3"/><path d="m1295.01 154.032c-22.75-49.089-4.95-123.4052 39.77-165.9883-60.29 5.52768-72.92-24.5116-28.21-67.0947-60.29 5.5277-90.72 49.8042-67.97 98.8939-89.43 85.1661-64.18 145.2451 56.41 134.1891z" stroke="#65f8c3"/><path d="m1285.27 98.6433c-112.35 10.3027-135.88-45.6745-52.56-125.0273" stroke="#65f8c3"/><path d="m1299.54 39.0935c-90.72 8.319-109.73-36.88154-42.44-100.9587" stroke="#65f8c3"/><path d="m1206.92 143.082c-22.76-49.0901 14.77-120.9551 83.81-160.5136" stroke="#65f8c3"/><path d="m1186.68 94.9421c-22.75-49.0897 19.3-110.178 93.93-136.4423" stroke="#65f8c3"/><path d="m1238.6 19.8429c-22.75-49.0898 7.68-93.3663 67.97-98.894 44.72-42.5829 129.85-81.5839 190.14-87.1149 44.72-42.583 99.41-37.31 122.16 11.782-120.59 11.056-290.84 89.0605-380.27 174.2269z" stroke="#65f8c3"/><path d="m1482.6-181.608c5.6-1.541 13.12-3.346 18.78-4.639 4.79-1.096 11.22-2.325 16.03-3.32 6.52-1.172 15.24-2.568 21.8-3.473 4.83-.667 11.31-1.233 16.16-1.765 24.65-1.617 47.06 10.199 60.66 34.81-13.25-7.676-31.99-16.728-46.94-20.074-15.4-3.451-36.85-3.604-52.58-2.218-7.83.689-18.27 1.751-25.96 3.368-14.92 3.139-34.69 7.993-49.27 12.458-7.07 2.163-16.38 5.43-23.21 8.255-13.36 5.52-31.19 12.898-44.02 19.541-12.68 6.564-29.19 16.092-41.41 23.468-6.1 3.677-13.92 9.093-19.62 13.354-11.23 8.3831-25.4 20.6246-35.72 30.1034-4.96 4.556-10.92 11.3293-15.12 16.5903-10.34 12.9274-22.66 31.9493-27.69 47.71313-4.21 13.20126-6.15 32.83527-2.26 46.13417 1.75 5.954 4.68 14.2491 9.15 18.5503 8.99 8.6405 22.35 20.1341 34.4 23.316 13.98 3.6915 33.49 5.5063 47.94 4.9156 15.72-.643 36.48-4.899 51.67-8.9858 7.6-2.0434 17.68-5.0014 25.04-7.7521 14.69-5.4873 34.12-13.2561 48.43-19.6864 7.7-3.4629 17.83-8.369 25.42-12.07 12.42-6.0564 28.94-14.2087 41.27-20.4437 6.91-3.4962 16.02-8.37138 22.84-12.06288 3.19-1.73142 7.37-4.201156 10.52-6.01594 5.91-3.41047 13.67-8.21179 19.26-12.13188 2.62-1.8291 6.16-4.1798 8.7-6.1041 4.68-3.5462 10.94-8.2713 15.37-12.1248 6.22-5.4086 11.08-9.9051 17.62-17.1118 2.57-2.8389 5.79-6.8091 8.16-9.8194 1.78-2.2649 4.79-5.0109 5.67-7.7569-7.44 29.2009-22.83 57.45392-44.6 78.1834-60.29 5.5278-145.41 44.5313-190.13 87.1145-24.12 22.9729-31.56 42.2949-23.82 54.3509 6.6 10.291 24.26 15.29 52.02 12.744 60.29-5.528 145.42-44.532 190.14-87.1147 21.77-20.7319 29.95-38.4891 25.65-50.6187-4.53-12.7844-22.92-19.31245-53.86-16.476 21.77-20.73186 37.16-48.9825 44.6-78.1834 7.85-30.7799 6.85-62.6122-4.82-87.8032-.9-1.938-1.85-3.808-2.84-5.608-13.6-24.609-36.01-36.425-60.66-34.805 5.07-.429 11.84-.974 16.92-1.031 9.04-.098 21.08.114 30.1.519 7.34.724 17.1 1.974 24.38 3.148 3.93.634 9.07 2.006 12.95 2.863 5.94 1.679 13.79 4.194 19.6 6.302 3.45 1.255 7.85 3.429 11.22 4.899 4.02 2.012 9.27 4.918 13.1 7.271 2.97 1.819 6.66 4.63 9.52 6.616 3.87 3.122 8.83 7.533 12.38 11.017 2.36 2.322 5.09 5.814 7.27 8.307 2.25 2.892 5.04 6.907 6.97 10.017 1.73 2.784 3.63 6.724 5.19 9.608 1.78 3.97 3.88 9.393 5.24 13.527 1 3.042 1.83 7.243 2.61 10.346.84 4.8251 1.63 11.3221 1.98 16.2092.24 3.3438-.02 7.8188-.03 11.1697-.27 4.3703-.9 10.1814-1.57 14.5088-.54 3.5057-1.72 8.0951-2.45 11.5651-1.42 5.1062-3.59 11.8414-5.39 16.8237-1.25 3.4414-3.35 7.8545-4.79 11.2221-3.22 6.4685-7.83 14.93749-11.48 21.17016-2.12 3.61766-5.43 8.14271-7.75 11.63174-4.75 6.3637-11.17 14.7994-16.42 20.7605-6.17 7.0186-14.97 15.8734-21.61 22.4562-3.54 3.3628-8.37 7.7402-12.05 10.9506-3.69 3.2104-8.75 7.314-12.5 10.4505-4.46 3.5748-10.51 8.2285-15.11 11.639-3.95 2.9389-9.37 6.6685-13.38 9.5264-7.85 5.2253-18.44 12.0223-26.45 17.0123-9.64 5.854-19.64 11.507-29.88 16.914-10.23 5.406-20.7 10.562-31.3 15.418-9.28 4.249-18.65 8.269-28.04 12.023-5.17 2.06-12.11 4.715-17.34 6.632-4.66 1.708-10.93 3.811-15.61 5.442-8.74 2.78-20.44 6.293-29.24 8.822-5.55 1.484-12.98 3.346-18.58 4.639-4.73 1.098-11.11 2.332-15.87 3.33-6.46 1.193-15.11 2.619-21.61 3.551-4.79.686-11.22 1.281-16.03 1.829-6.7.548-15.65 1.248-22.37 1.298-8.89.066-20.75-.384-29.62-.905-7.26-.805-16.91-2.165-24.1-3.423-3.88-.676-8.94-2.112-12.78-3.017-5.21-1.512-12.1-3.78-17.19-5.683-3.46-1.293-7.88-3.467-11.26-4.953-4.57-2.353-10.55-5.747-14.9-8.488-2.88-1.808-6.41-4.657-9.16-6.652-3.38-2.799-7.73-6.745-10.83-9.858-2.27-2.279-4.93-5.661-7.04-8.088-2.24-2.891-5.04-6.906-6.97-10.017-1.72-2.784-3.63-6.723-5.19-9.605-1.55-3.327-3.37-7.878-4.56-11.351-1.05-3.084-2.02-7.328-2.88-10.469-.94-4.8109-1.84-11.2937-2.28-16.176-.3-3.3366-.12-7.814-.18-11.165.2-4.3702.75-10.1885 1.35-14.523.48-3.5105 1.59-8.1142 2.27-11.5913 1.34-5.1228 3.41-11.8818 5.14-16.8832 1.2-3.4557 3.24-7.895 4.62-11.2793 3.5-7.0901 8.5-16.37597 12.47-23.21357 2.09-3.59385 5.39-8.0665 7.69-11.52463 4.36-5.8897 10.25-13.6966 15.08-19.21 6.21-7.0972 15-16.0997 21.66-22.7777 3.56-3.4034 8.4-7.8379 12.1-11.0888 3.7-3.2533 8.79-7.414 12.55-10.591 4.5-3.6224 10.6-8.3357 15.23-11.7937 3.99-2.9794 9.45-6.7614 13.5-9.6599 7.92-5.3059 18.6-12.2059 26.67-17.2739 9.77-5.925 19.89-11.651 30.25-17.121 10.36-5.471 20.96-10.691 31.69-15.607 9.39-4.301 18.87-8.369 28.38-12.17 5.24-2.079 12.27-4.756 17.56-6.69 4.72-1.719 11.06-3.839 15.8-5.485 8.83-2.796 20.65-6.416 29.58-8.876z" stroke="#65f8c3"/><path d="m1482.6-181.608c5.6-1.541 13.12-3.346 18.78-4.639 4.79-1.096 11.22-2.325 16.03-3.32 6.52-1.172 15.24-2.568 21.8-3.473 4.83-.667 11.31-1.233 16.16-1.765 24.65-1.617 47.06 10.199 60.66 34.81-13.25-7.676-31.99-16.728-46.94-20.074-15.4-3.451-36.85-3.604-52.58-2.218-7.83.689-18.27 1.751-25.96 3.368-14.92 3.139-34.69 7.993-49.27 12.458-7.07 2.163-16.38 5.43-23.21 8.255-13.36 5.52-31.19 12.898-44.02 19.541-12.68 6.564-29.19 16.092-41.41 23.468-6.1 3.677-13.92 9.093-19.62 13.354-11.23 8.3831-25.4 20.6246-35.72 30.1034-4.96 4.556-10.92 11.3293-15.12 16.5903-10.34 12.9274-22.66 31.9493-27.69 47.71313-4.21 13.20126-6.15 32.83527-2.26 46.13417 1.75 5.954 4.68 14.2491 9.15 18.5503 8.99 8.6405 22.35 20.1341 34.4 23.316 13.98 3.6915 33.49 5.5063 47.94 4.9156 15.72-.643 36.48-4.899 51.67-8.9858 7.6-2.0434 17.68-5.0014 25.04-7.7521 14.69-5.4873 34.12-13.2561 48.43-19.6864 7.7-3.4629 17.83-8.369 25.42-12.07 12.42-6.0564 28.94-14.2087 41.27-20.4437 6.91-3.4962 16.02-8.37138 22.84-12.06288 3.19-1.73142 7.37-4.201156 10.52-6.01594 5.91-3.41047 13.67-8.21179 19.26-12.13188 2.62-1.8291 6.16-4.1798 8.7-6.1041 4.68-3.5462 10.94-8.2713 15.37-12.1248 6.22-5.4086 11.08-9.9051 17.62-17.1118 2.57-2.8389 5.79-6.8091 8.16-9.8194 1.78-2.2649 4.79-5.0109 5.67-7.7569-7.44 29.2009-22.83 57.45392-44.6 78.1834-60.29 5.5278-145.41 44.5313-190.13 87.1145-24.12 22.9729-31.56 42.2949-23.82 54.3509 6.6 10.291 24.26 15.29 52.02 12.744 60.29-5.528 145.42-44.532 190.14-87.1147 21.77-20.7319 29.95-38.4891 25.65-50.6187-4.53-12.7844-22.92-19.31245-53.86-16.476 21.77-20.73186 37.16-48.9825 44.6-78.1834 7.85-30.7799 6.85-62.6122-4.82-87.8032-.9-1.938-1.85-3.808-2.84-5.608-13.6-24.609-36.01-36.425-60.66-34.805 5.07-.429 11.84-.974 16.92-1.031 9.04-.098 21.08.114 30.1.519 7.34.724 17.1 1.974 24.38 3.148 3.93.634 9.07 2.006 12.95 2.863 5.94 1.679 13.79 4.194 19.6 6.302 3.45 1.255 7.85 3.429 11.22 4.899 4.02 2.012 9.27 4.918 13.1 7.271 2.97 1.819 6.66 4.63 9.52 6.616 3.87 3.122 8.83 7.533 12.38 11.017 2.36 2.322 5.09 5.814 7.27 8.307 2.25 2.892 5.04 6.907 6.97 10.017 1.73 2.784 3.63 6.724 5.19 9.608 1.78 3.97 3.88 9.393 5.24 13.527 1 3.042 1.83 7.243 2.61 10.346.84 4.8251 1.63 11.3221 1.98 16.2092.24 3.3438-.02 7.8188-.03 11.1697-.27 4.3703-.9 10.1814-1.57 14.5088-.54 3.5057-1.72 8.0951-2.45 11.5651-1.42 5.1062-3.59 11.8414-5.39 16.8237-1.25 3.4414-3.35 7.8545-4.79 11.2221-3.22 6.4685-7.83 14.93749-11.48 21.17016-2.12 3.61766-5.43 8.14271-7.75 11.63174-4.75 6.3637-11.17 14.7994-16.42 20.7605-6.17 7.0186-14.97 15.8734-21.61 22.4562-3.54 3.3628-8.37 7.7402-12.05 10.9506-3.69 3.2104-8.75 7.314-12.5 10.4505-4.46 3.5748-10.51 8.2285-15.11 11.639-3.95 2.9389-9.37 6.6685-13.38 9.5264-7.85 5.2253-18.44 12.0223-26.45 17.0123-9.64 5.854-19.64 11.507-29.88 16.914-10.23 5.406-20.7 10.562-31.3 15.418-9.28 4.249-18.65 8.269-28.04 12.023-5.17 2.06-12.11 4.715-17.34 6.632-4.66 1.708-10.93 3.811-15.61 5.442-8.74 2.78-20.44 6.293-29.24 8.822-5.55 1.484-12.98 3.346-18.58 4.639-4.73 1.098-11.11 2.332-15.87 3.33-6.46 1.193-15.11 2.619-21.61 3.551-4.79.686-11.22 1.281-16.03 1.829-6.7.548-15.65 1.248-22.37 1.298-8.89.066-20.75-.384-29.62-.905-7.26-.805-16.91-2.165-24.1-3.423-3.88-.676-8.94-2.112-12.78-3.017-5.21-1.512-12.1-3.78-17.19-5.683-3.46-1.293-7.88-3.467-11.26-4.953-4.57-2.353-10.55-5.747-14.9-8.488-2.88-1.808-6.41-4.657-9.16-6.652-3.38-2.799-7.73-6.745-10.83-9.858-2.27-2.279-4.93-5.661-7.04-8.088-2.24-2.891-5.04-6.906-6.97-10.017-1.72-2.784-3.63-6.723-5.19-9.605-1.55-3.327-3.37-7.878-4.56-11.351-1.05-3.084-2.02-7.328-2.88-10.469-.94-4.8109-1.84-11.2937-2.28-16.176-.3-3.3366-.12-7.814-.18-11.165.2-4.3702.75-10.1885 1.35-14.523.48-3.5105 1.59-8.1142 2.27-11.5913 1.34-5.1228 3.41-11.8818 5.14-16.8832 1.2-3.4557 3.24-7.895 4.62-11.2793 3.5-7.0901 8.5-16.37597 12.47-23.21357 2.09-3.59385 5.39-8.0665 7.69-11.52463 4.36-5.8897 10.25-13.6966 15.08-19.21 6.21-7.0972 15-16.0997 21.66-22.7777 3.56-3.4034 8.4-7.8379 12.1-11.0888 3.7-3.2533 8.79-7.414 12.55-10.591 4.5-3.6224 10.6-8.3357 15.23-11.7937 3.99-2.9794 9.45-6.7614 13.5-9.6599 7.92-5.3059 18.6-12.2059 26.67-17.2739 9.77-5.925 19.89-11.651 30.25-17.121 10.36-5.471 20.96-10.691 31.69-15.607 9.39-4.301 18.87-8.369 28.38-12.17 5.24-2.079 12.27-4.756 17.56-6.69 4.72-1.719 11.06-3.839 15.8-5.485 8.83-2.796 20.65-6.416 29.58-8.876z" stroke="#65f8c3"/><path d="m1334.78-11.9563c44.72-42.5832 99.41-37.3103 122.16 11.781779-22.75-49.089679-90.07-84.404179-150.36-78.874079-44.72 42.5807-32.09 72.61998 28.2 67.0923z" stroke="url(#ap)"/><path d="m1280.61-41.5024c74.63-26.2668 153.58-7.7641 176.33 41.325644" stroke="url(#aq)"/><path d="m1306.57-79.051c60.3-5.5277 127.62 29.7844 150.37 78.8741-22.75-49.0897-4.95-123.4051 39.77-165.9891-60.29 5.528-145.42 44.532-190.14 87.115z" stroke="url(#ar)"/><path d="m1362.34-119.333c29.5 16.718 71.85 70.0664 94.6 119.156164" stroke="url(#as)"/><path d="m1430.56-150.585c-8.18 33.978 3.63 101.3184 26.38 150.410558" stroke="url(#at)"/><path d="m1456.94-.177002c22.75 49.087302 4.94 123.403002-39.77 165.986002-60.3 5.528-72.92-24.511-28.21-67.0945 60.29-5.5277 90.73-49.8018 67.98-98.891502z" stroke="url(#ai)"/><path d="m1456.94-.177002c22.75 49.087302-19.31 110.176002-93.94 136.442002" stroke="url(#au)"/><path d="m1456.94-.177002c22.75 49.087302-7.68 93.363802-67.98 98.891602 44.72-42.5832 129.85-81.5844 190.14-87.1145-44.72 42.5855-99.41 37.3126-122.16-11.777102z" stroke="url(#av)"/><path d="m1438.44 81.529c22.14-21.0915 64.3-40.4087 94.17-43.1452" stroke="url(#aR)"/><path d="m1417.17 165.809c-44.72 42.584-99.41 37.311-122.16-11.779-120.59 11.055-145.84-49.021-56.41-134.1894 22.75 49.0873 90.07 84.4014 150.36 78.8741-44.71 42.5853-32.09 72.6253 28.21 67.0943z" stroke="url(#an)"/><path d="m1388.96 98.717c-60.29 5.528-127.61-29.7844-150.36-78.8742 89.43-85.1663 259.68-163.1708 380.27-174.2268 22.75 49.088 4.94 123.4033-39.77 165.9865-60.3 5.5277-145.42 44.5313-190.14 87.1145z" stroke="url(#aC)"/><path d="m1444.73 58.4345c-29.49-16.7189-71.84-70.0693-94.59-119.1567" stroke="url(#aF)"/><path d="m1365.14 153.068c-7.74-12.056-.3-31.378 23.82-54.351 44.72-42.5831 129.85-81.5843 190.14-87.1144-18.83 17.9287-39.43 27.3742-58.66 28.6388-.14.1-.38.1334-.55.1762-.32.081-.75.1644-1.07.2358-1.1.2167-2.55.5383-3.63.7979-1.06.2548-2.47.6454-3.53.9216-2.53.7312-5.88 1.7672-8.38 2.5722-1.67.562-3.87 1.3456-5.52 1.9553-1.54.5716-3.64 1.2479-5.11 1.9839-3.33 1.3313-6.65 2.7579-9.94 4.263-3.76 1.7219-7.48 3.551-11.1 5.4682-3.63 1.9172-7.18 3.9225-10.6 5.9993-2.04 1.267-4.74 2.9889-6.74 4.3059-1.06.7193-2.46 1.7005-3.49 2.4531-.77.5597-1.76 1.3432-2.51 1.9196-.86.6692-1.06.8335-2.02 1.6242.22-.2881.53-.662.76-.9454.66-.8098 1.49-1.9244 2.12-2.758 1.48-2.1958 3.36-5.1871 4.69-7.4758.74-1.2647 1.54-3.0509 2.2-4.3608 1.14-2.6031 2.52-6.1398 3.45-8.8286.63-1.841 1.21-4.3798 1.73-6.2541.5-2.3173 1.05-5.4348 1.36-7.7855.25-1.8767.34-4.4059.48-6.2946.03-2.9508-.12-6.89-.38-9.8313-.17-1.9981-.75-4.6203-1.06-6.5994-.59-2.515-1.53-5.83732-2.35-8.28799-.58-1.74096-1.62-3.96776-2.31-5.668229 22.75 49.084919-18.35 117.694119-91.8 153.240119z" stroke="url(#aS)"/><path d="m1365.14 153.068c-7.74-12.056-.3-31.378 23.82-54.351 44.72-42.5831 129.85-81.5843 190.14-87.1144-18.83 17.9287-39.43 27.3742-58.66 28.6388-.14.1-.38.1334-.55.1762-.32.081-.75.1644-1.07.2358-1.1.2167-2.55.5383-3.63.7979-1.06.2548-2.47.6454-3.53.9216-2.53.7312-5.88 1.7672-8.38 2.5722-1.67.562-3.87 1.3456-5.52 1.9553-1.54.5716-3.64 1.2479-5.11 1.9839-3.33 1.3313-6.65 2.7579-9.94 4.263-3.76 1.7219-7.48 3.551-11.1 5.4682-3.63 1.9172-7.18 3.9225-10.6 5.9993-2.04 1.267-4.74 2.9889-6.74 4.3059-1.06.7193-2.46 1.7005-3.49 2.4531-.77.5597-1.76 1.3432-2.51 1.9196-.86.6692-1.06.8335-2.02 1.6242.22-.2881.53-.662.76-.9454.66-.8098 1.49-1.9244 2.12-2.758 1.48-2.1958 3.36-5.1871 4.69-7.4758.74-1.2647 1.54-3.0509 2.2-4.3608 1.14-2.6031 2.52-6.1398 3.45-8.8286.63-1.841 1.21-4.3798 1.73-6.2541.5-2.3173 1.05-5.4348 1.36-7.7855.25-1.8767.34-4.4059.48-6.2946.03-2.9508-.12-6.89-.38-9.8313-.17-1.9981-.75-4.6203-1.06-6.5994-.59-2.515-1.53-5.83732-2.35-8.28799-.58-1.74096-1.62-3.96776-2.31-5.668229 22.75 49.084919-18.35 117.694119-91.8 153.240119z" stroke="url(#aS)"/></g></g></svg>