<svg fill="none" height="71" viewBox="0 0 56 71" width="56" xmlns="http://www.w3.org/2000/svg"><path d="m26.5954 70.8686c-14.6884 0-26.59560267-3.066-26.59560267-6.8481s11.90720267-6.8481 26.59560267-6.8481c14.6883 0 26.5955 3.066 26.5955 6.8481s-11.9072 6.8481-26.5955 6.8481z" fill="#f0f4f9"/><g fill="#000"><path d="m21.024 45.583c-.2094.6221-.3849 1.2552-.5256 1.8964-.1471.6321-.267 1.2643-.3721 1.8964-.206 1.2643-.3546 2.5236-.4457 3.778-.1797 2.5165-.1713 5.043.0252 7.5582l.6938-1.1652c-.5067.3245-1.0028.6701-1.4969 1.0135l-.7337.5352-.7233.5521c-.4772.3814-.9503.7649-1.4107 1.1758-.4692.4113-.9169.8467-1.3413 1.3043.615-.103 1.2242-.2388 1.8249-.4067.595-.1559 1.1752-.3414 1.7555-.531l.8578-.3013.8409-.3203c.5593-.2234 1.1206-.4467 1.6673-.6932l.6307-.2803.0694-.8829c.1965-2.5152.2049-5.0417.0252-7.5582-.0925-1.2642-.2376-2.5285-.4457-3.778-.1051-.6321-.225-1.2643-.3701-1.8964-.1417-.641-.3171-1.274-.5256-1.8964z"/><path d="m30.695 47.6904c-.2099.6222-.386 1.2552-.5277 1.8964-.1471.6322-.267 1.2643-.3721 1.8964-.206 1.2643-.3539 2.5335-.4436 3.8075-.0897 1.2741-.1317 2.5426-.1261 3.8055 0 1.2642.0504 2.539.1534 3.8075l.6917-1.161c-.5067.3245-1.0007.67-1.4948 1.0135l-.7337.5352-.7254.5521c-.4751.3792-.9503.7627-1.4086 1.1757-.4698.4099-.9182.8439-1.3434 1.3001.6142-.1038 1.2226-.2395 1.8228-.4067.5971-.158 1.1773-.3434 1.7555-.5331l.8578-.3013.8409-.3181c.5593-.2255 1.1206-.4489 1.6694-.6954l.6307-.276.0715-.885c.103-1.2643.1492-2.5285.1555-3.8075s-.0378-2.5286-.1282-3.8055-.2376-2.5285-.4436-3.8075c-.1051-.6321-.225-1.2642-.3721-1.8964-.1424-.6412-.3192-1.2743-.5299-1.8964z"/><path d="m16.6108 2.93069-11.12175 11.14661-2.6007-11.99788c-.05878-.27816-.04641-.56669.03596-.83877.08238-.272074.23208-.518847.43519-.717356.2031-.198509.453-.342306.72646-.41801.27345-.0757041.56156-.080856.83753-.0149766z"/></g><path d="m29.6862 53.1681h11.8661c.5225 0 1.0235-.208 1.393-.5782.3694-.3703.577-.8725.577-1.3961v-28.703c0-5.4981-2.1787-10.7711-6.057-14.65965-3.8783-3.88853-9.1387-6.0742-14.6245-6.07643h-.0442c-4.7607 0-9.3265 1.89542-12.6928 5.26929-3.36641 3.37389-5.25761 7.94979-5.25761 12.72119v8.5211c0 6.6055 2.61818 12.9405 7.27861 17.6113 4.6603 4.6707 10.9812 7.2948 17.572 7.2948z" fill="#fff"/><path clip-rule="evenodd" d="m29.2486 52.1701c-6.163-.1159-12.0495-2.62-16.417-6.9973-4.47337-4.4834-6.98688-10.5646-6.98688-16.906v-8.5211c0-4.5073 1.78654-8.8295 4.96588-12.01592 3.1793-3.18636 7.4908-4.97604 11.986-4.97604h.0438c5.2202.00223 10.2267 2.0821 13.9179 5.78303 3.6914 3.70113 5.7654 8.72043 5.7654 13.95453v28.703c0 .2595-.1029.508-.2853.6908-.1823.1827-.4292.285-.6861.285zm5.6111 1.9971h6.6926c.788 0 1.5433-.3138 2.0998-.8716.5565-.5577.8687-1.3136.8687-2.1013v-28.703c0-5.7622-2.2833-11.2889-6.3485-15.3648-4.0653-4.07602-9.5798-6.367477-15.3311-6.36982h-.0446c-5.0263 0-9.8463 2.00116-13.39971 5.56254-3.55337 3.5613-5.54923 8.39098-5.54923 13.42648v8.5211c0 6.8696 2.72284 13.4583 7.57024 18.3165 4.8475 4.8583 11.4225 7.5881 18.2789 7.5881h5.1735z" fill="#000" fill-rule="evenodd"/><path d="m26.491 25.987c-2.3223 0-4.2049-1.8868-4.2049-4.2142s1.8826-4.2142 4.2049-4.2142c2.3222 0 4.2048 1.8868 4.2048 4.2142s-1.8826 4.2142-4.2048 4.2142z" fill="#ffaeae"/><path d="m19.5523 22.826c-4.4123 0-7.9892-3.5848-7.9892-8.007 0-4.4221 3.5769-8.00699 7.9892-8.00699s7.9892 3.58489 7.9892 8.00699c0 4.4222-3.5769 8.007-7.9892 8.007z" fill="#fff"/><path clip-rule="evenodd" d="m19.5528 7.81005c3.8587 0 6.9907 3.13575 6.9907 7.00845 0 3.8728-3.132 7.0085-6.9907 7.0085s-6.9906-3.1357-6.9906-7.0085c0-3.8727 3.1319-7.00845 6.9906-7.00845zm8.9877 7.00845c0-4.9715-4.0218-9.00551-8.9877-9.00551s-8.9877 4.03401-8.9877 9.00551 4.0218 9.0056 8.9877 9.0056 8.9877-4.0341 8.9877-9.0056z" fill="#000" fill-rule="evenodd"/><path d="m43.0533 53.307 12.1373-6.9935-4.6274 6.8017 5.4368 5.8683z" fill="#000"/><circle cx="16.3492" cy="12.3751" fill="#191919" r="2.29651"/></svg>