<svg width="27" height="27" viewBox="0 0 27 27" fill="none" xmlns="http://www.w3.org/2000/svg">
<path fill-rule="evenodd" clip-rule="evenodd" d="M20.7858 5.8811C21.2197 6.31502 21.2197 7.01853 20.7858 7.45245L7.45245 20.7858C7.01853 21.2197 6.31502 21.2197 5.8811 20.7858C5.44719 20.3519 5.44719 19.6483 5.8811 19.2144L19.2144 5.8811C19.6483 5.44719 20.3519 5.44719 20.7858 5.8811Z" fill="#06AFF2"/>
<path fill-rule="evenodd" clip-rule="evenodd" d="M5.8811 5.8811C6.31502 5.44719 7.01853 5.44719 7.45245 5.8811L20.7858 19.2144C21.2197 19.6483 21.2197 20.3519 20.7858 20.7858C20.3519 21.2197 19.6483 21.2197 19.2144 20.7858L5.8811 7.45245C5.44719 7.01853 5.44719 6.31502 5.8811 5.8811Z" fill="#06AFF2"/>
</svg>
