<svg fill="none" height="27" viewBox="0 0 27 27" width="27" xmlns="http://www.w3.org/2000/svg"><g clip-rule="evenodd" fill="#06aff2" fill-rule="evenodd"><path d="m20.7858 5.8811c.4339.43392.4339 1.13743 0 1.57135l-13.33335 13.33335c-.43392.4339-1.13743.4339-1.57135 0-.43391-.4339-.43391-1.1375 0-1.5714l13.3333-13.3333c.4339-.43391 1.1375-.43391 1.5714 0z"/><path d="m5.8811 5.8811c.43392-.43391 1.13743-.43391 1.57135 0l13.33335 13.3333c.4339.4339.4339 1.1375 0 1.5714s-1.1375.4339-1.5714 0l-13.3333-13.33335c-.43391-.43392-.43391-1.13743 0-1.57135z"/></g></svg>