<svg width="231" height="85" viewBox="0 0 231 85" fill="none" xmlns="http://www.w3.org/2000/svg">
<g clip-path="url(#clip0)">
<path d="M95.332 15.251H137.13L136.619 18.1636H121.261L116.427 45.7687C115.909 48.7295 112.771 51.161 109.488 51.161H100.265L100.772 48.252H109.999C111.52 48.252 112.959 47.1788 113.193 45.7687L118.026 18.1636H94.8212L95.332 15.251Z" fill="#464647"/>
<path d="M147.622 13.4561H180.908L180.401 16.365H165.431L164.546 21.4167H183.521L183.01 24.3256H168.688L182.266 33.1412L180.12 35.6245L163.891 25.0954L162.611 32.4158H159.376L160.649 25.1398C155.205 29.333 148.188 32.7563 139.776 35.7097L139.036 33.0561C146.035 30.5728 152.052 27.7083 156.926 24.3256H141.723L142.234 21.4167H161.301L162.185 16.365H147.111L147.622 13.4561ZM146.468 52.3601C143.662 52.3601 141.69 50.3061 142.134 47.7783L143.836 38.0634C144.269 35.5801 146.967 33.4854 149.758 33.4854H171.774C174.628 33.4854 176.497 35.5801 176.064 38.0634L174.361 47.7783C173.917 50.3061 171.323 52.3601 168.469 52.3601H146.468ZM168.995 49.4475C169.49 49.4577 169.973 49.2975 170.364 48.9936C170.755 48.6897 171.03 48.2606 171.142 47.7783L171.771 44.1848H145.997L145.365 47.7783C145.202 48.7221 145.931 49.4475 146.975 49.4475H168.995ZM146.505 41.2721H172.281L172.844 38.0634C173.007 37.1234 172.326 36.3943 171.282 36.3943H149.262C148.218 36.3943 147.234 37.1345 147.067 38.0634L146.505 41.2721Z" fill="#464647"/>
<path d="M190.564 52.2711C187.233 52.2711 185.046 49.8322 185.564 46.8789L190.46 18.9332C190.975 15.9725 194.021 13.541 197.348 13.541H225.882C229.161 13.541 231.433 15.9799 230.926 18.9332L226.033 46.8789C225.515 49.8396 222.377 52.2711 219.098 52.2711H190.564ZM219.605 49.3622C221.13 49.3622 222.566 48.2519 222.799 46.8789L227.695 18.9332C227.932 17.5639 226.892 16.4499 225.371 16.4499H196.837C195.357 16.4499 193.932 17.5602 193.691 18.9332L188.799 46.8789C188.558 48.2519 189.598 49.3622 191.075 49.3622H219.605ZM220.193 46.2793H216.056C212.777 46.2793 210.504 43.8404 211.008 40.8871L212.614 31.731H204.102C202.399 38.1928 199.361 42.7708 193.902 46.7937L192.089 44.6546C196.681 41.2313 199.313 37.3379 200.819 31.731H194.494L195.005 28.8184H222.873L222.362 31.731H215.849L214.242 40.8871C214.002 42.2564 215.045 43.3704 216.566 43.3704H220.704L220.193 46.2793ZM222.669 23.7259H197.037L197.547 20.817H223.165L222.669 23.7259Z" fill="#464647"/>
<path d="M94.0552 63.5559C94.0364 63.3669 94.0452 63.1762 94.0811 62.9897C94.1696 62.6615 94.3667 62.3731 94.6403 62.1714C94.9138 61.9698 95.2477 61.8668 95.5873 61.8794C96.4755 61.8794 96.8197 62.3457 96.8567 63.0748L97.1898 70.1509H97.2268L100.928 62.8601C101.08 62.564 101.312 62.3157 101.597 62.1426C101.881 61.9696 102.208 61.8785 102.541 61.8794C102.837 61.8538 103.132 61.9404 103.367 62.1221C103.603 62.3038 103.761 62.5672 103.811 62.8601L104.94 70.1509H104.977L107.789 63.0748C107.899 62.7172 108.124 62.4061 108.43 62.1899C108.735 61.9737 109.103 61.8645 109.477 61.8794C110.291 61.8794 110.691 62.4456 110.587 62.9897C110.556 63.1856 110.497 63.3761 110.413 63.5559L106.472 72.6454C106.296 73.0409 106.006 73.3753 105.64 73.6059C105.273 73.8366 104.847 73.9531 104.414 73.9407C103.507 73.9407 102.9 73.4115 102.797 72.7268L101.775 66.302H101.738L98.4703 72.7268C98.2709 73.0953 97.9752 73.4028 97.6148 73.6166C97.2544 73.8303 96.8428 73.9423 96.4237 73.9407C95.3912 73.9407 94.8842 73.3448 94.8212 72.6454L94.0552 63.5559Z" fill="#87888B"/>
<path d="M112.234 63.5559C112.215 63.3669 112.224 63.1762 112.26 62.9897C112.348 62.6615 112.545 62.3731 112.819 62.1714C113.093 61.9698 113.426 61.8668 113.766 61.8794C114.654 61.8794 114.999 62.3457 115.036 63.0748L115.369 70.1509H115.406L119.088 62.8601C119.241 62.564 119.472 62.3157 119.757 62.1426C120.041 61.9696 120.368 61.8785 120.702 61.8794C120.998 61.8538 121.293 61.9404 121.528 62.1221C121.763 62.3038 121.921 62.5672 121.971 62.8601L123.1 70.1509H123.137L125.946 63.0748C126.057 62.7173 126.283 62.4064 126.589 62.1903C126.895 61.9742 127.263 61.8649 127.637 61.8794C128.451 61.8794 128.851 62.4456 128.747 62.9897C128.716 63.1856 128.657 63.3761 128.573 63.5559L124.632 72.6454C124.456 73.0409 124.166 73.3753 123.8 73.6059C123.434 73.8366 123.007 73.9531 122.574 73.9407C121.668 73.9407 121.057 73.4115 120.957 72.7268L119.936 66.302H119.91L116.642 72.7268C116.442 73.0953 116.147 73.4028 115.786 73.6166C115.426 73.8303 115.014 73.9423 114.595 73.9407C113.559 73.9407 113.056 73.3448 112.993 72.6454L112.234 63.5559Z" fill="#87888B"/>
<path d="M130.413 63.5559C130.394 63.3669 130.403 63.1762 130.439 62.9897C130.527 62.6615 130.724 62.3731 130.998 62.1714C131.272 61.9698 131.605 61.8668 131.945 61.8794C132.833 61.8794 133.177 62.3457 133.214 63.0748L133.548 70.1509H133.585L137.267 62.8601C137.42 62.564 137.651 62.3157 137.936 62.1426C138.22 61.9696 138.547 61.8785 138.881 61.8794C139.177 61.8538 139.471 61.9404 139.707 62.1221C139.942 62.3038 140.1 62.5672 140.15 62.8601L141.279 70.1509H141.316L144.125 63.0748C144.236 62.7173 144.462 62.4064 144.768 62.1903C145.073 61.9742 145.442 61.8649 145.816 61.8794C146.63 61.8794 147.03 62.4456 146.926 62.9897C146.895 63.1856 146.836 63.3761 146.752 63.5559L142.811 72.6454C142.635 73.0409 142.345 73.3753 141.979 73.6059C141.613 73.8366 141.186 73.9531 140.753 73.9407C139.846 73.9407 139.236 73.4115 139.136 72.7268L138.114 66.302H138.077L134.806 72.7268C134.608 73.0955 134.313 73.4033 133.953 73.6172C133.593 73.831 133.182 73.9429 132.763 73.9407C131.727 73.9407 131.223 73.3448 131.16 72.6454L130.413 63.5559Z" fill="#87888B"/>
<path d="M149.465 71.447C149.637 71.4275 149.811 71.4485 149.973 71.5082C150.135 71.568 150.282 71.6648 150.4 71.7909C150.518 71.9171 150.605 72.0692 150.654 72.235C150.703 72.4008 150.713 72.5758 150.683 72.746C150.59 73.1177 150.375 73.4474 150.072 73.6823C149.769 73.9172 149.397 74.0436 149.014 74.0413C148.842 74.0606 148.668 74.0396 148.506 73.9801C148.345 73.9206 148.199 73.8241 148.08 73.6984C147.962 73.5727 147.875 73.4212 147.826 73.2558C147.776 73.0905 147.766 72.9159 147.796 72.746C147.888 72.3736 148.103 72.043 148.406 71.8074C148.708 71.5718 149.081 71.4449 149.465 71.447Z" fill="#87888B"/>
<path d="M155.594 63.286C155.67 62.9104 155.879 62.5747 156.182 62.3398C156.485 62.1048 156.862 61.9862 157.244 62.0054H160.312C164.457 62.0054 166.404 64.3999 165.757 68.0971C165.146 71.5908 162.233 73.8558 158.425 73.8558H155.205C154.595 73.8558 153.795 73.556 153.962 72.6049L155.594 63.286ZM156.919 71.5464H158.769C161.156 71.5464 162.522 69.9661 162.873 67.9676C163.244 65.8359 162.407 64.2889 159.857 64.2889H158.173L156.919 71.5464Z" fill="#87888B"/>
<path d="M171.797 67.5007L169.439 63.8405C169.364 63.7342 169.31 63.6141 169.282 63.4871C169.253 63.36 169.25 63.2286 169.272 63.1003C169.355 62.7394 169.563 62.4195 169.859 62.1972C170.155 61.975 170.52 61.8649 170.89 61.8864C171.111 61.8885 171.329 61.9457 171.523 62.053C171.717 62.1602 171.881 62.3142 172 62.5008L173.78 65.4282L176.586 62.5008C176.93 62.139 177.397 61.9197 177.896 61.8864C178.691 61.8864 179.217 62.3676 179.087 63.1003C179.029 63.3857 178.881 63.6449 178.665 63.8405L175.027 67.5007L177.914 71.9418C178.068 72.197 178.127 72.4985 178.081 72.793C177.959 73.4925 177.285 73.9551 176.471 73.9551C176.262 73.9686 176.054 73.9246 175.869 73.8281C175.683 73.7315 175.528 73.586 175.42 73.4074L173.051 69.614L169.35 73.4074C169.193 73.5803 169 73.7183 168.786 73.8126C168.572 73.9069 168.341 73.9555 168.107 73.9551C167.293 73.9551 166.782 73.4925 166.904 72.793C166.975 72.4707 167.137 72.1755 167.37 71.9418L171.797 67.5007Z" fill="#87888B"/>
<path d="M183.88 68.2818L181.164 63.8407C181.033 63.6175 180.987 63.3548 181.034 63.1005C181.112 62.7512 181.308 62.4394 181.589 62.2182C181.87 61.9969 182.219 61.8798 182.577 61.8866C182.782 61.8699 182.988 61.9073 183.173 61.995C183.359 62.0827 183.518 62.2176 183.636 62.3862L185.69 65.8614L188.965 62.3862C189.126 62.2236 189.318 62.0955 189.53 62.0096C189.742 61.9237 189.969 61.8819 190.197 61.8866C190.356 61.8704 190.517 61.8917 190.666 61.9486C190.816 62.0056 190.95 62.0967 191.058 62.2146C191.165 62.3326 191.244 62.4741 191.288 62.6279C191.331 62.7817 191.338 62.9436 191.308 63.1005C191.252 63.3794 191.117 63.6364 190.919 63.8407L186.648 68.2818L185.871 72.7229C185.806 73.0898 185.605 73.4185 185.307 73.6436C185.01 73.8686 184.639 73.9733 184.269 73.9368C183.288 73.9368 182.988 73.3409 183.095 72.7229L183.88 68.2818Z" fill="#87888B"/>
<path d="M193.536 71.4465C193.707 71.4277 193.881 71.4492 194.043 71.5092C194.204 71.5692 194.35 71.6661 194.468 71.7922C194.586 71.9182 194.672 72.0701 194.721 72.2356C194.77 72.4011 194.78 72.5757 194.75 72.7456C194.657 73.1176 194.442 73.4477 194.14 73.6827C193.837 73.9177 193.464 74.0438 193.08 74.0409C192.909 74.0595 192.736 74.0381 192.575 73.9783C192.413 73.9185 192.268 73.822 192.15 73.6964C192.032 73.5707 191.945 73.4194 191.896 73.2544C191.847 73.0894 191.837 72.9152 191.867 72.7456C191.958 72.3729 192.173 72.0419 192.476 71.8062C192.778 71.5705 193.152 71.4438 193.536 71.4465Z" fill="#87888B"/>
<path d="M205.771 61.8047C207.122 61.8047 209.679 62.2044 209.42 63.6551C209.359 63.9664 209.193 64.2472 208.948 64.4496C208.704 64.652 208.397 64.7636 208.08 64.7654C207.322 64.7654 206.903 64.1806 205.353 64.1806C203.058 64.1806 201.57 65.9275 201.215 67.9593C200.86 69.9911 201.77 71.638 204.046 71.638C205.597 71.638 206.352 70.9385 207.107 70.9385C207.252 70.9334 207.397 70.9602 207.531 71.0168C207.665 71.0735 207.785 71.1587 207.883 71.2666C207.98 71.3744 208.053 71.5023 208.096 71.6412C208.139 71.7802 208.152 71.9268 208.132 72.071C207.851 73.6698 204.994 74.0325 203.624 74.0325C199.872 74.0325 197.732 71.353 198.336 67.9112C198.659 66.1813 199.581 64.6206 200.941 63.5038C202.301 62.3869 204.011 61.7852 205.771 61.8047Z" fill="#87888B"/>
<path d="M212.255 63.1891C212.317 62.8124 212.516 62.472 212.814 62.233C213.112 61.994 213.487 61.8732 213.868 61.8938C214.075 61.9053 214.277 61.9599 214.461 62.0543C214.646 62.1486 214.808 62.2805 214.938 62.4415L219.568 69.4733H219.605L220.715 63.1817C220.779 62.8051 220.979 62.4651 221.277 62.2262C221.575 61.9874 221.951 61.8665 222.332 61.8864C223.128 61.8864 223.635 62.3527 223.491 63.1817L221.836 72.6376C221.773 73.0145 221.574 73.355 221.275 73.594C220.977 73.833 220.601 73.9536 220.219 73.9329C220.013 73.9209 219.812 73.866 219.628 73.7717C219.445 73.6773 219.283 73.5457 219.153 73.3851L214.509 66.4274H214.472L213.384 72.6376C213.321 73.0142 213.122 73.3547 212.824 73.5937C212.527 73.8327 212.151 73.9535 211.77 73.9329C210.974 73.9329 210.464 73.4703 210.608 72.6376L212.255 63.1891Z" fill="#87888B"/>
<path d="M36.3171 49.0852C36.3171 49.0852 41.3651 2.29457 80.5874 0C80.5874 0 78.737 29.6073 69.1146 36.4688C59.4922 43.3303 48.7003 44.4961 42.2793 48.6263C42.2793 48.6263 40.2141 42.8899 66.3611 14.9073C66.3648 14.9073 49.3924 22.2499 36.3171 49.0852Z" fill="url(#paint0_linear)"/>
<path d="M2.84049e-05 23.5005C2.84049e-05 23.5005 -0.714248 43.2116 17.8977 47.1382C17.8977 47.1382 29.5111 48.2485 30.6066 50.643C30.6066 50.643 24.8998 21.7241 2.84049e-05 23.5005Z" fill="url(#paint1_linear)"/>
<path d="M15.9546 65.3871C12.3217 70.9279 10.8287 77.6012 11.754 84.1618C18.188 82.3988 23.7548 78.3431 27.4052 72.7593C31.0323 67.2177 32.5188 60.5455 31.5872 53.9883H31.5502C25.1335 55.7547 19.5857 59.8096 15.9546 65.3871Z" fill="url(#paint2_linear)"/>
<path d="M37.3792 54.0332C37.3792 54.0332 43.952 78.1595 66.1945 74.8879C66.1945 74.8879 65.8244 58.1153 48.952 56.102C48.9372 56.0946 38.4636 55.9688 37.3792 54.0332Z" fill="#7867AE"/>
</g>
<defs>
<linearGradient id="paint0_linear" x1="52.5012" y1="8.19013" x2="64.2997" y2="40.6101" gradientUnits="userSpaceOnUse">
<stop stop-color="#9984BE"/>
<stop offset="0.23" stop-color="#8E7CBA"/>
<stop offset="0.58" stop-color="#8374B5"/>
<stop offset="1" stop-color="#8071B4"/>
</linearGradient>
<linearGradient id="paint1_linear" x1="-2.37966" y1="30.0437" x2="33.3712" y2="43.0561" gradientUnits="userSpaceOnUse">
<stop stop-color="#9A8DC3"/>
<stop offset="0.17" stop-color="#8C7DBA"/>
<stop offset="0.45" stop-color="#7A68AE"/>
<stop offset="0.73" stop-color="#6F5BA7"/>
<stop offset="1" stop-color="#6B57A5"/>
</linearGradient>
<linearGradient id="paint2_linear" x1="18.7969" y1="85.4016" x2="24.5555" y2="52.7485" gradientUnits="userSpaceOnUse">
<stop stop-color="#7867AE"/>
<stop offset="0.11" stop-color="#7563AC"/>
<stop offset="0.47" stop-color="#6D5AA7"/>
<stop offset="1" stop-color="#6B57A5"/>
</linearGradient>
<clipPath id="clip0">
<rect width="231" height="84.1625" fill="white"/>
</clipPath>
</defs>
</svg>
