<svg width="165" height="92" viewBox="0 0 165 92" fill="none" xmlns="http://www.w3.org/2000/svg">
<g clip-path="url(#clip0)">
<path d="M97.4425 45.0602C97.4425 36.6597 97.529 28.2592 97.3875 19.8587C97.3875 17.6584 97.9376 17.1005 100.138 17.0533C102.582 16.9983 102.747 18.0592 102.739 20.0159C102.676 35.8503 102.739 51.6925 102.684 67.5269C102.684 68.6585 103.297 70.2695 101.23 70.3952C99.3049 70.5052 97.4425 70.4659 96.8925 68.0377C95.8709 63.4695 94.8231 58.9038 93.7491 54.3408C92.9628 50.5193 91.8642 46.7688 90.4644 43.127V50.1602C90.4644 56.0303 90.3779 61.9004 90.5115 67.7627C90.5587 69.8687 89.82 70.3795 87.8319 70.3795C85.8437 70.3795 85.1522 69.8609 85.1679 67.7627C85.2465 51.9204 85.1679 36.086 85.2544 20.2516C85.2544 19.1357 84.2956 17.2812 86.7081 17.179C88.8299 17.0847 90.8966 16.9747 91.4231 19.788C92.2089 23.8114 93.0419 27.827 93.8749 31.8347C94.8021 36.272 95.7347 40.725 96.6724 45.1938L97.4425 45.0602Z" fill="#2090CA"/>
<path d="M44.0063 61.2962C43.9434 62.7971 44.2106 64.8874 43.2205 66.7969C41.6488 69.8852 37.5075 71.1897 32.5411 70.176C29.1777 69.4923 27.3075 67.2291 27.1267 63.5122C27.056 62.0505 27.2053 60.5732 27.1267 59.1194C26.8753 55.9761 29.1384 55.1903 31.3702 54.3573C32.7532 53.8622 32.4546 54.9781 32.4546 55.6932C32.4546 57.8464 32.3996 59.9995 32.4546 62.1448C32.5332 64.0387 33.154 65.7989 35.3858 65.8461C37.8061 65.909 38.4191 64.0544 38.5291 62.0663C38.8748 56.927 37.4682 52.2199 35.0243 47.7485C33.1069 44.2359 31.3388 40.6761 29.3899 37.1477C26.7652 32.4327 26.5059 27.4899 27.3782 22.3506C27.4962 21.6818 27.7161 21.0352 28.0304 20.4332C30.0107 16.6769 35.1029 16.3704 39.6449 17.6356C42.9376 18.555 44.6978 22.6885 43.8963 26.3426C43.3933 28.6215 41.5388 29.2894 39.6921 29.9888C38.6705 30.3817 38.5762 29.6273 38.5762 28.8808C38.5762 27.6156 38.5762 26.3426 38.5762 25.0695C38.5762 22.9792 37.5389 21.5805 35.4879 21.5255C33.4369 21.4705 32.6589 23.0185 32.5018 24.8574C32.0996 28.5741 32.7761 32.328 34.4506 35.6703C36.3052 39.2223 38.144 42.7428 40.1872 46.224C42.9096 50.7653 44.2377 56.0064 44.0063 61.2962Z" fill="#2090CA"/>
<path d="M67.2039 44.2821V67.134C67.2039 68.8392 67.7304 70.6623 64.76 70.5523C62.0096 70.4502 61.6167 69.1693 61.6167 66.8511C61.6874 53.0834 61.6167 39.3471 61.6167 25.5402C61.6167 23.4892 61.6953 21.4381 61.6167 19.3871C61.546 17.8705 61.8367 16.9668 63.652 17.1082C65.2943 17.2418 67.1725 16.8018 67.1803 19.3793C67.1803 21.2338 67.1803 23.0884 67.1803 24.9429L67.2039 44.2821Z" fill="#2491CB"/>
<path d="M0.512363 0.363094C1.57323 0.284511 2.64195 0.143062 3.70282 0.143062C56.3637 0.143062 109.014 0.143062 161.654 0.143062C162.691 0.143062 164.011 -0.52489 164.797 0.811015C164.579 1.06382 164.303 1.26014 163.992 1.38328C163.681 1.50641 163.346 1.55272 163.013 1.51826L5.99743 1.57327C1.10959 1.57327 1.76183 1.10177 1.76183 5.76958C1.76183 32.2834 1.76183 58.7972 1.76183 85.3109C1.80468 85.6355 1.76605 85.9657 1.64944 86.2716C1.53283 86.5775 1.3419 86.8496 1.09387 87.0633L0.535938 86.9769C0.0251506 86.2697 0.229465 85.4603 0.229465 84.698C0.229465 57.346 0.229465 29.994 0.229465 2.64199C0.213749 1.87188 0.0015758 1.07034 0.512363 0.363094Z" fill="#229AD9"/>
<path d="M163.02 1.57332C163.413 0.826788 164.12 0.866079 164.804 0.866079C164.843 5.58104 164.914 10.241 164.914 14.9324C164.914 37.7999 164.843 60.6753 165 83.5429C165 86.7333 164.049 87.5742 161.118 87.2441C159.091 87.0241 157.016 87.2441 154.965 87.1813C154.494 87.1813 153.928 87.1813 153.857 86.5133C153.763 85.7275 154.321 85.531 154.949 85.5232C157 85.5232 159.059 85.4132 161.11 85.5232C162.776 85.6175 163.468 84.9967 163.256 83.3464C163.224 82.8597 163.224 82.3715 163.256 81.8848C163.256 56.2721 163.256 30.6646 163.256 5.06239C163.232 3.86794 163.098 2.70491 163.02 1.57332Z" fill="#2393CF"/>
<path d="M0.510816 0.36377C0.510816 29.235 0.510816 58.1063 0.510816 86.9776C-0.27501 86.3803 0.0707532 85.5317 0.0707532 84.8008C0.0550367 57.3755 0.0576561 29.9528 0.0786115 2.53265C0.0786115 1.80183 -0.267152 0.953139 0.510816 0.36377Z" fill="#3C9FD7"/>
<path d="M67.031 11.6233C67.031 13.5407 64.6264 15.7096 62.8111 15.5525C62.0253 15.5053 61.8839 14.9867 61.7503 14.4287C61.3102 12.4642 64.3356 9.33657 66.3002 9.75306C67.4554 10.0202 66.7953 11.0497 67.031 11.6233Z" fill="#2995CF"/>
<path d="M1.07655 87.0634C1.07655 86.3955 1.02154 85.7039 1.7445 85.311L9.60277 85.4839C10.2707 85.4839 11.1273 85.4132 11.088 86.3955C11.0487 87.3778 10.1293 87.1813 9.51633 87.1813C6.68735 87.1499 3.88195 87.0949 1.07655 87.0634Z" fill="#2090CC"/>
<path d="M43.747 91.252C43.2129 91.246 42.692 91.0855 42.2472 90.7898C41.8023 90.4942 41.4526 90.0761 41.2402 89.5861C40.5212 88.1709 40.1647 86.5994 40.2029 85.0126C40.2029 84.7454 40.2029 84.1796 40.2029 83.3073V82.7258H35.095V81.5156H41.4602V84.3446C42.0889 83.8941 43.0162 83.1318 44.2421 82.0578L45.1851 82.9065C44.3036 83.629 43.3856 84.3057 42.4347 84.934C42.728 85.0627 43.0116 85.2124 43.2834 85.3819C44.2421 85.8534 44.9415 86.2306 45.3972 86.4978L44.6743 87.6215C43.5663 86.93 42.5368 86.3092 41.586 85.7355C41.586 86.8319 41.8559 87.9114 42.3718 88.8788C42.7647 89.6646 43.2284 89.9947 43.7627 89.9947C44.1242 89.9947 44.3599 89.7904 44.4778 89.366C44.6271 88.8002 44.7371 88.3366 44.7921 87.983C44.9195 88.0249 45.041 88.083 45.1536 88.1559L45.9395 88.4702C45.8271 89.0833 45.6615 89.6854 45.4444 90.2697C45.3147 90.6016 45.0761 90.8796 44.7677 91.0581C44.4593 91.2366 44.0994 91.305 43.747 91.252Z" fill="#2090CA"/>
<path d="M73.2155 83.574L72.2725 82.8589L72.0446 85.9551H73.7027C73.7027 86.3113 73.7027 86.4292 73.7027 86.3087C73.6477 87.4796 73.6005 88.2654 73.5691 88.6662C73.5691 89.7664 72.9404 90.3086 71.7774 90.2379C71.4473 90.2693 70.8501 90.285 69.9857 90.285C69.8914 89.8607 69.8207 89.4992 69.7578 89.2084H70.4808C70.8344 89.2084 71.1094 89.2556 71.2666 89.2556C71.9581 89.2556 72.3039 88.9962 72.3039 88.399C72.3591 87.9374 72.388 87.473 72.3903 87.0081H68.4612V91.4009H67.2039V87.071H63.3533V85.9551H67.2039V83.8412H64.0606V82.7254H67.2039V80.7529H68.4612V82.7254H72.0917C71.7364 82.4369 71.3608 82.1743 70.968 81.9395C70.8882 81.9066 70.814 81.8615 70.748 81.8059L71.5102 80.9415C72.3432 81.4759 73.1683 82.0417 73.9777 82.6389L73.2155 83.574ZM70.968 83.8412H68.4612V85.9551H70.8187L70.968 83.8412Z" fill="#2090CA"/>
<path d="M93.0576 86.2219C92.8847 86.0726 92.5939 85.8054 92.2089 85.4361C91.8238 85.0668 91.5331 84.776 91.3602 84.6503L92.2089 83.9352C92.9947 84.5874 93.5684 85.1139 93.9613 85.5068L93.0576 86.2219ZM92.6096 91.4713L91.4466 91.0626C91.7452 90.2296 92.1643 88.8859 92.7039 87.0313C92.8855 87.0809 93.064 87.1412 93.2383 87.2121C93.4257 87.2678 93.6073 87.3415 93.7805 87.4321C93.2697 89.0509 92.8847 90.3711 92.6096 91.4713ZM93.3326 83.3065C92.5468 82.5207 92.0281 82.0256 91.6745 81.6956L92.5232 80.9805C92.9083 81.3105 93.4505 81.7663 94.1342 82.4107L94.2677 82.5443L93.3326 83.3065ZM94.4485 87.2356V86.2062H97.5918V84.9489H98.7548V86.2062H101.985V87.2278H99.1163C99.9303 88.3592 101.028 89.2563 102.299 89.8289C102.224 89.9073 102.163 89.9976 102.118 90.0961C101.923 90.3091 101.741 90.5348 101.576 90.7719C100.434 90.1534 99.4638 89.2593 98.7548 88.1708V91.5734H97.5918V88.1708C96.7814 89.2939 95.7216 90.2138 94.4956 90.8583C94.3657 90.6503 94.2156 90.4555 94.0477 90.2768C93.985 90.163 93.9085 90.0574 93.8198 89.9625C95.1218 89.3163 96.2589 88.3809 97.1439 87.2278L94.4485 87.2356ZM95.2343 85.7583C95.0176 85.4774 94.7784 85.2146 94.5192 84.9725C95.3707 84.4303 96.1943 83.8454 96.9867 83.2201L97.7725 83.8959C97.301 84.3124 96.5781 84.8703 95.6272 85.554C95.4701 85.5933 95.3443 85.6561 95.2579 85.7347L95.2343 85.7583ZM94.6056 83.558V81.4991H101.733V83.558H100.617V82.4814H95.7922V83.558H94.6056ZM100.971 85.7111L100.075 85.0353C99.4463 84.556 98.9434 84.1866 98.5505 83.9195L99.2656 83.1965C99.8078 83.5265 100.586 84.0531 101.623 84.7682C101.568 84.7682 101.623 84.7682 101.804 84.9017L100.971 85.7111Z" fill="#2090CA"/>
<path d="M120.931 91.4248L120.232 90.529C120.34 90.4301 120.424 90.308 120.478 90.172C120.533 90.0359 120.556 89.8893 120.546 89.7431V85.5704H119.556V84.4467H121.709V89.586C122.039 89.3188 122.385 89.0595 122.738 88.8002C122.794 89.1916 122.87 89.5798 122.966 89.9632C122.442 90.2618 121.963 90.5604 121.528 90.859C121.317 91.0346 121.118 91.2236 120.931 91.4248ZM121.34 83.5666C120.892 82.9143 120.428 82.2228 119.949 81.5077L120.931 80.9655C121.206 81.2955 121.575 81.8063 122.055 82.49L122.369 82.9379L121.34 83.5666ZM122.503 85.924V84.871H125.332C125.492 84.6457 125.626 84.4032 125.732 84.1481C125.795 83.9988 125.834 83.8966 125.866 83.8337L127.029 83.9752C126.938 84.189 126.833 84.3965 126.715 84.596L126.581 84.871H130.392V85.9005H125.952C125.663 86.3059 125.351 86.6942 125.017 87.0635H129.661V91.5034H128.498V90.8747H125.049V91.5034H123.846V88.1872C123.548 88.4544 123.218 88.7216 122.864 88.973C122.707 88.6226 122.512 88.2906 122.283 87.9829C123.17 87.4038 123.965 86.6938 124.64 85.8769L122.503 85.924ZM127.618 84.3524V83.2287H125.371V84.3524H124.255V83.2287H122.73V82.2385H124.255V80.9419H125.371V82.2385H127.618V80.9419H128.734V82.2385H130.353V83.2287H128.734V84.3524H127.618ZM125.017 88.1558V89.9946H128.467V88.1558H125.017Z" fill="#2090CA"/>
<path d="M138.306 24.0322C138.306 19.6552 135.579 17.2663 131.233 17.1484C130.942 17.1484 130.652 17.1484 130.353 17.1484C122.581 17.1012 120.797 18.8536 120.797 26.5783C120.797 32.341 120.797 38.1038 120.797 43.8665C120.797 50.4124 120.742 56.9662 120.797 63.5121C120.844 67.5592 122.974 69.8773 126.966 70.3253C128.518 70.5098 130.085 70.5335 131.642 70.396C135.956 70.0031 138.282 67.7085 138.313 63.3235C138.413 50.2317 138.41 37.1346 138.306 24.0322ZM129.606 65.8853C127.359 66.0268 126.164 64.4551 126.149 61.5083C126.149 55.5596 126.149 49.603 126.149 43.6543C126.149 37.7056 126.196 31.9455 126.149 26.0911C126.149 23.6314 126.722 21.7769 129.536 21.6354C131.893 21.5176 133.048 22.9714 133.056 25.9811C133.056 37.7685 133.056 49.5952 133.056 61.4061C133.064 63.8501 132.373 65.7046 129.606 65.8853Z" fill="#2090CA"/>
</g>
<defs>
<clipPath id="clip0">
<rect width="165" height="91.5567" fill="white"/>
</clipPath>
</defs>
</svg>
