<svg fill="none" height="30" viewBox="0 0 33 30" width="33" xmlns="http://www.w3.org/2000/svg"><path clip-rule="evenodd" d="m16.29 0c-9.00001 0-16.29 6.73731-16.29 15.055 0 6.6541 4.66999 12.2916 11.14 14.2879.81.1386 1.11-.3235 1.11-.7301 0-.3605-.01-1.3031-.02-2.56-4.53001.9057-5.49001-2.0147-5.49001-2.0147-.74-1.7375-1.81-2.2088-1.81-2.2088-1.48-.9335.11-.915.11-.915 1.63.1109 2.5 1.5526 2.5 1.5526 1.45 2.3013 3.81001 1.6359 4.74001 1.2477.15-.9704.57-1.6358 1.03-2.0147-3.61001-.3697-7.41001-1.6636-7.41001-7.4305 0-1.645.63-2.9851 1.68-4.0387-.17-.38812-.73-1.91303.15-3.98321 0 0 1.37-.40664 4.48001 1.54339 1.3-.3327 2.69-.49906 4.08-.5083 1.38.00924 2.78.1756 4.08.5083 3.11-1.95003 4.48-1.54339 4.48-1.54339.89 2.07018.33 3.60433.16 3.98321 1.04 1.0536 1.67 2.3937 1.67 4.0387 0 5.7854-3.81 7.0516-7.44 7.4305.58.4621 1.11 1.3863 1.11 2.791 0 2.0147-.02 3.6321-.02 4.1311 0 .4067.29.8688 1.12.7209 6.47-1.9963 11.13-7.6338 11.13-14.2787 0-8.32689-7.29-15.0642-16.29-15.0642z" fill="#191919" fill-rule="evenodd"/></svg>