<svg fill="none" height="541" viewBox="0 0 570 541" width="570" xmlns="http://www.w3.org/2000/svg" xmlns:xlink="http://www.w3.org/1999/xlink"><filter id="a" color-interpolation-filters="sRGB" filterUnits="userSpaceOnUse" height="382.752" width="382.752" x="87.6945" y="78.5283"><feFlood flood-opacity="0" result="BackgroundImageFix"/><feGaussianBlur in="BackgroundImage" stdDeviation="4.63333"/><feComposite in2="SourceAlpha" operator="in" result="effect1_backgroundBlur"/><feBlend in="SourceGraphic" in2="effect1_backgroundBlur" mode="normal" result="shape"/></filter><filter id="b" color-interpolation-filters="sRGB" filterUnits="userSpaceOnUse" height="382.752" width="382.752" x="87.6945" y="78.5283"><feFlood flood-opacity="0" result="BackgroundImageFix"/><feGaussianBlur in="BackgroundImage" stdDeviation="4.63333"/><feComposite in2="SourceAlpha" operator="in" result="effect1_backgroundBlur"/><feBlend in="SourceGraphic" in2="effect1_backgroundBlur" mode="normal" result="shape"/></filter><linearGradient id="c" gradientUnits="userSpaceOnUse" x1="374.914" x2="183.228" y1="424.723" y2="115.086"><stop offset="0" stop-color="#12c3f4"/><stop offset=".0001" stop-color="#b4efff"/><stop offset="1" stop-color="#00b0ff"/></linearGradient><linearGradient id="d" gradientUnits="userSpaceOnUse" x1="707.327" x2="-370.296" y1="203.969" y2="203.969"><stop offset="0" stop-color="#f3f3f3"/><stop offset=".47315" stop-color="#f0f0f0" stop-opacity=".405934"/><stop offset=".745595" stop-color="#c4c4c4" stop-opacity="0"/></linearGradient><linearGradient id="e"><stop offset="0" stop-color="#12c3f4"/><stop offset="1" stop-color="#65f8c3" stop-opacity=".03"/></linearGradient><linearGradient id="f" gradientUnits="userSpaceOnUse" x1="0" x2="76.9595" xlink:href="#e" y1="262.622" y2="343.079"/><linearGradient id="g" gradientUnits="userSpaceOnUse" x1="80.5372" x2="201.294" xlink:href="#e" y1="84.0391" y2="208.296"/><linearGradient id="h" gradientUnits="userSpaceOnUse" x1="28.0128" x2="75.251" xlink:href="#e" y1="49.0229" y2="3.53431"/><linearGradient id="i" gradientUnits="userSpaceOnUse" x1="560.259" x2="390.467" xlink:href="#e" y1="339.657" y2="505.947"/><linearGradient id="j" gradientUnits="userSpaceOnUse" x1="337.906" x2="421.927" xlink:href="#e" y1="0" y2="85.7714"/><linearGradient id="k" gradientUnits="userSpaceOnUse" x1="507.735" x2="567.237" xlink:href="#e" y1="134.812" y2="196.065"/><mask id="l" height="380" maskUnits="userSpaceOnUse" width="394" x="77" y="70"><path d="m469.217 70.0328v1.7508h-390.4305v-1.7509z" fill="url(#d)"/><path d="m469.217 101.547v1.751h-390.4305v-1.751z" fill="url(#d)"/><path d="m469.217 133.062v1.751h-390.4305v-1.751z" fill="url(#d)"/><path d="m469.217 164.577v1.751h-390.4305v-1.751z" fill="url(#d)"/><path d="m469.217 196.091v1.751h-390.4305v-1.751z" fill="url(#d)"/><path d="m469.217 227.606v1.751h-390.4305v-1.751z" fill="url(#d)"/><path d="m469.217 259.121v1.751h-390.4305v-1.751z" fill="url(#d)"/><path d="m469.217 290.635v1.751h-390.4305v-1.751z" fill="url(#d)"/><path d="m469.217 322.15v1.751h-390.4305v-1.751z" fill="url(#d)"/><path d="m469.217 353.665v1.751h-390.4305v-1.751z" fill="url(#d)"/><path d="m469.217 385.18v1.75h-390.4305v-1.751z" fill="url(#d)"/><path d="m469.217 416.694v1.751h-390.4305v-1.751z" fill="url(#d)"/><path d="m469.217 448.209v1.751h-390.4305v-1.751z" fill="url(#d)"/><path d="m469.217 78.459h1.751v371.501h-1.751z" fill="url(#d)"/><path d="m441.204 78.459h1.751v371.501h-1.751z" fill="url(#d)"/><path d="m413.191 78.459h1.751v371.501h-1.751z" fill="url(#d)"/><path d="m385.178 78.459h1.751v371.501h-1.751z" fill="url(#d)"/><path d="m357.165 78.459h1.751v371.501h-1.751z" fill="url(#d)"/><path d="m329.152 78.459h1.751v371.501h-1.751z" fill="url(#d)"/><path d="m301.139 78.459h1.751v371.501h-1.751z" fill="url(#d)"/><path d="m273.126 78.459h1.751v371.501h-1.751z" fill="url(#d)"/><path d="m245.113 78.459h1.751v371.501h-1.751z" fill="url(#d)"/><path d="m217.101 78.459h1.75v371.501h-1.75z" fill="url(#d)"/><path d="m189.088 78.459h1.75v371.501h-1.75z" fill="url(#d)"/><path d="m161.075 78.459h1.75v371.501h-1.75z" fill="url(#d)"/><path d="m133.062 78.459h1.75v371.501h-1.75z" fill="url(#d)"/><path d="m105.049 78.459h1.751v371.501h-1.751z" fill="url(#d)"/><path d="m77.0358 78.459h1.7508l-.0001 371.501h-1.7507z" fill="url(#d)"/></mask><g filter="url(#a)"><path d="m124.252 365.747c-52.9326-85.504-26.5283-197.729 58.976-250.661 85.504-52.9329 197.728-26.5286 250.661 58.975 52.933 85.504 26.528 197.729-58.976 250.662-85.504 52.932-197.729 26.528-250.661-58.976z" fill="url(#c)"/></g><g mask="url(#l)"><g filter="url(#b)"><path d="m124.252 365.747c-52.9326-85.504-26.5283-197.729 58.976-250.661 85.504-52.9329 197.728-26.5286 250.661 58.975 52.933 85.504 26.528 197.729-58.976 250.662-85.504 52.932-197.729 26.528-250.661-58.976z" fill="#4fc4f9"/></g></g><path d="m0 283.631c0-11.603 9.40637-21.009 21.0097-21.009h38.5178c11.6033 0 21.0097 9.406 21.0097 21.009v35.016c0 11.604-9.4063 21.01-21.0097 21.01h-38.5178c-11.60333 0-21.0097-9.406-21.0097-21.01z" fill="url(#f)"/><path d="m80.5372 105.049c0-11.6036 9.4064-21.0099 21.0098-21.0099h82.288c11.603 0 21.01 9.4063 21.01 21.0099v78.786c0 11.604-9.407 21.01-21.01 21.01h-82.288c-11.6034 0-21.0098-9.406-21.0098-21.01z" fill="url(#g)"/><path d="m38.5177 49.0229c-5.8017 0-10.5049-4.7031-10.5049-10.5048v-26.2621c0-5.80172 4.7032-10.50489 10.5049-10.50489h24.5113c5.8017 0 10.5049 4.70318 10.5049 10.50489v26.2621c0 5.8017-4.7032 10.5048-10.5049 10.5048z" fill="url(#h)"/><path d="m539.249 339.657c11.603 0 21.01 9.406 21.01 21.009v127.81c0 11.603-9.407 21.009-21.01 21.009h-124.307c-11.604 0-21.01-9.406-21.01-21.009v-127.81c0-11.603 9.406-21.009 21.01-21.009z" fill="url(#i)"/><path d="m337.906 14.0065c0-7.73558 6.271-14.0065 14.007-14.0065h57.776c7.736 0 14.007 6.27091 14.007 14.0065v56.0259c0 7.7355-6.271 14.0064-14.007 14.0064h-57.776c-7.736 0-14.007-6.2709-14.007-14.0064z" fill="url(#j)"/><g fill="#fff"><path d="m367.67 285.701v-5.321l-16.426-6.406-1.423-.488 1.423-.462 16.426-6.514v-5.321l-22.761 10.261v3.963z"/><path d="m402.686 283.95v-4.94l15.163-5.949 1.313-.453-1.313-.429-15.163-6.049v-4.941l21.01 9.528v3.68z"/><path d="m248.614 175.401v3.501h-3.501v-3.501z"/><path d="m248.615 203.413v3.502h-3.502v-3.502z"/><path d="m248.615 231.426v3.501h-3.502v-3.501z"/><path d="m248.615 259.439v3.502h-3.502v-3.502z"/><path d="m248.615 287.452v3.501h-3.502v-3.501z"/><path d="m248.615 315.464v3.502h-3.502v-3.502z"/><path d="m239.861 175.4v3.502h-3.502v-3.502z"/><path d="m239.861 203.413v3.502h-3.502v-3.502z"/><path d="m239.861 231.426v3.501h-3.502v-3.501z"/><path d="m239.861 259.439v3.502h-3.502v-3.502z"/><path d="m239.861 287.452v3.501h-3.502v-3.501z"/><path d="m239.861 315.464v3.502h-3.502v-3.502z"/><path d="m231.107 175.4v3.502h-3.502v-3.502z"/><path d="m231.107 203.413v3.502h-3.502v-3.502z"/><path d="m231.107 231.426v3.501h-3.502v-3.501z"/><path d="m231.107 259.439v3.502h-3.502v-3.502z"/><path d="m231.107 287.452v3.501h-3.502v-3.501z"/><path d="m231.107 315.464v3.502h-3.502v-3.502z"/><path d="m222.353 175.4v3.502h-3.502v-3.502z"/><path d="m222.353 203.413v3.502h-3.502v-3.502z"/><path d="m222.353 231.426v3.501h-3.502v-3.501z"/><path d="m222.353 259.439v3.502h-3.502v-3.502z"/><path d="m222.353 287.452v3.501h-3.502v-3.501z"/><path d="m222.353 315.464v3.502h-3.502v-3.502z"/><path d="m213.599 175.4v3.502h-3.502v-3.502z"/><path d="m213.599 203.413v3.502h-3.502v-3.502z"/><path d="m213.599 231.426v3.501h-3.502v-3.501z"/><path d="m213.599 259.439v3.502h-3.502v-3.502z"/><path d="m213.599 287.452v3.501h-3.502v-3.501z"/><path d="m213.599 315.464v3.502h-3.502v-3.502z"/><path d="m204.845 175.4v3.502h-3.502v-3.502z"/><path d="m204.845 203.413v3.502h-3.502v-3.502z"/><path d="m204.845 231.426v3.502h-3.502v-3.502z"/><path d="m204.845 259.439v3.502h-3.502v-3.502z"/><path d="m204.845 287.452v3.501h-3.502v-3.501z"/><path d="m204.845 315.464v3.502h-3.502v-3.502z"/><path d="m196.091 175.4v3.502h-3.502v-3.502z"/><path d="m196.091 203.413v3.502h-3.502v-3.502z"/><path d="m196.091 231.426v3.502h-3.502v-3.502z"/><path d="m196.091 259.439v3.502h-3.502v-3.502z"/><path d="m196.091 287.452v3.501h-3.502v-3.501z"/><path d="m196.091 315.464v3.502h-3.502v-3.502z"/><path d="m187.337 175.4v3.502h-3.502v-3.502z"/><path d="m187.337 203.413v3.502h-3.502v-3.502z"/><path d="m187.337 231.426v3.502h-3.502v-3.502z"/><path d="m187.337 259.439v3.502h-3.502v-3.502z"/><path d="m187.337 287.452v3.501h-3.502v-3.501z"/><path d="m187.337 315.464v3.502h-3.502v-3.502z"/><path d="m178.583 175.4v3.502h-3.502v-3.502z"/><path d="m178.583 203.413v3.502h-3.502v-3.502z"/><path d="m178.583 231.426v3.502h-3.502v-3.502z"/><path d="m178.583 259.439v3.502h-3.502v-3.502z"/><path d="m178.583 287.452v3.501h-3.502v-3.501z"/><path d="m178.583 315.464v3.502h-3.502v-3.502z"/><path d="m169.829 175.4v3.502h-3.502v-3.502z"/><path d="m169.829 203.413v3.502h-3.502v-3.502z"/><path d="m169.829 231.426v3.502h-3.502v-3.502z"/><path d="m169.829 259.439v3.502h-3.502v-3.502z"/><path d="m169.829 287.452v3.501h-3.502v-3.501z"/><path d="m169.829 315.464v3.502h-3.502v-3.502z"/><path d="m161.074 175.4v3.502h-3.501v-3.502z"/><path d="m161.074 203.413v3.502h-3.501v-3.502z"/><path d="m161.074 231.426v3.501h-3.501v-3.501z"/><path d="m161.074 259.439v3.502h-3.501v-3.502z"/><path d="m161.074 287.452v3.501h-3.501v-3.501z"/><path d="m161.074 315.464v3.502h-3.501v-3.502z"/><path d="m152.32 175.4v3.502h-3.501v-3.502z"/><path d="m152.32 203.413v3.502h-3.501v-3.502z"/><path d="m152.32 231.426v3.501h-3.501v-3.501z"/><path d="m152.32 259.439v3.502h-3.501v-3.502z"/><path d="m152.32 287.452v3.501h-3.501v-3.501z"/><path d="m152.32 315.464v3.502h-3.501v-3.502z"/><path d="m143.566 175.4v3.502h-3.501v-3.502z"/><path d="m143.566 203.413v3.502h-3.501v-3.502z"/><path d="m143.566 231.426v3.501h-3.501v-3.501z"/><path d="m143.566 259.439v3.502h-3.501v-3.502z"/><path d="m143.566 287.452v3.501h-3.501v-3.501z"/><path d="m143.566 315.464v3.502h-3.501v-3.502z"/></g><path d="m507.735 155.822c0-11.603 9.406-21.01 21.009-21.01h19.259c11.603 0 21.01 9.407 21.01 21.01v17.508c0 11.604-9.406 21.01-21.01 21.01h-19.259c-11.603 0-21.009-9.406-21.009-21.01z" fill="url(#k)"/><path clip-rule="evenodd" d="m98.0453 21.0098h-45.5211v110.3012h45.5211zm-47.2719-1.7508v113.803h49.0227v-113.803z" fill="#4fc4f9" fill-rule="evenodd"/><path clip-rule="evenodd" d="m274.877 470.968v68.281h166.327v-68.281zm-1.751 70.032h169.829v-71.783h-169.829z" fill="#4fc4f9" fill-rule="evenodd"/></svg>