<svg fill="none" height="31" viewBox="0 0 30 31" width="30" xmlns="http://www.w3.org/2000/svg"><path d="m25.7345 14.6657-20.62496-10.31254c-.16165-.08084-.34323-.11323-.52286-.09328-.17964.01996-.34967.09142-.48964.20578-.13366.11203-.23343.25911-.28808.42473-.05466.16562-.06203.34319-.02129.51277l2.48437 9.15934h10.60316v1.875h-10.60316l-2.52187 9.1313c-.03823.1416-.04269.2902-.01303.4339.02966.1436.09261.2783.1838.3932s.20806.2068.34123.2683c.13316.0615.2789.0909.4255.0858.14675-.0008.29126-.0362.42187-.1031l20.62496-10.3125c.1536-.0787.2825-.1982.3725-.3454s.1376-.3164.1376-.489c0-.1725-.0476-.3417-.1376-.4889s-.2189-.2668-.3725-.3454z" fill="#4fc4f9"/></svg>