<svg width="232" height="77" viewBox="0 0 232 77" fill="none" xmlns="http://www.w3.org/2000/svg">
<g clip-path="url(#clip0)">
<path d="M93.87 18.3198H86.53C86.4328 18.3211 86.3368 18.3416 86.2476 18.38C86.1583 18.4184 86.0774 18.474 86.0096 18.5436C85.9419 18.6133 85.8884 18.6956 85.8525 18.7859C85.8165 18.8762 85.7987 18.9726 85.8 19.0698V57.2298C85.8 57.3257 85.8189 57.4206 85.8556 57.5092C85.8922 57.5977 85.946 57.6782 86.0138 57.746C86.0816 57.8138 86.1621 57.8676 86.2506 57.9043C86.3392 57.9409 86.4341 57.9598 86.53 57.9598H93.87C94.0645 57.9598 94.2513 57.8833 94.3897 57.7466C94.5282 57.61 94.6074 57.4243 94.61 57.2298V19.0698C94.61 18.8726 94.5324 18.6834 94.3939 18.543C94.2554 18.4026 94.0672 18.3225 93.87 18.3198Z" fill="#00CC36"/>
<path d="M37 52.53V23.83C37 20.19 32 17.21 25.83 17.21C19.66 17.21 14.65 20.21 14.65 23.83V52.53C14.65 56.2 19.65 59.16 25.83 59.16C26.6958 59.1576 27.5606 59.1042 28.42 59C28.4295 59.3987 28.5184 59.7916 28.6815 60.1557C28.8446 60.5197 29.0787 60.8475 29.37 61.12C30.28 61.9 31.37 62.22 33.45 62.26H37.45C37.5454 62.2626 37.6404 62.2463 37.7294 62.2119C37.8184 62.1776 37.8997 62.1258 37.9686 62.0598C38.0374 61.9937 38.0925 61.9146 38.1305 61.8271C38.1685 61.7396 38.1887 61.6454 38.19 61.55V58.75C38.2017 58.6538 38.1923 58.5562 38.1626 58.464C38.1329 58.3718 38.0835 58.2872 38.0179 58.2159C37.9524 58.1446 37.8721 58.0884 37.7827 58.0511C37.6933 58.0138 37.5968 57.9964 37.5 58H34.05C33.23 58 32.78 58 32.68 57.75C35.31 56.57 37 54.67 37 52.53ZM28.32 52.82C28.32 53.82 27.22 54.65 25.84 54.65C24.46 54.65 23.39 53.84 23.39 52.82V23.82C23.39 22.82 24.47 21.99 25.84 21.99C27.21 21.99 28.32 22.81 28.32 23.82V52.82Z" fill="#00CC36"/>
<path d="M0.729946 27.1498H8.06995C8.16708 27.1499 8.26322 27.1303 8.35259 27.0923C8.44196 27.0542 8.52271 26.9985 8.58997 26.9284C8.65724 26.8584 8.70963 26.7754 8.744 26.6846C8.77836 26.5937 8.79399 26.4969 8.78995 26.3998V19.0698C8.79399 18.9728 8.77836 18.8759 8.744 18.7851C8.70963 18.6942 8.65724 18.6113 8.58997 18.5412C8.52271 18.4711 8.44196 18.4154 8.35259 18.3774C8.26322 18.3393 8.16708 18.3197 8.06995 18.3198H0.729946C0.632766 18.3211 0.536794 18.3416 0.447511 18.38C0.358229 18.4184 0.277385 18.474 0.209596 18.5436C0.141808 18.6133 0.0884025 18.6956 0.0524305 18.7859C0.0164585 18.8762 -0.00137572 18.9726 -5.35908e-05 19.0698V26.3998C-0.00137572 26.497 0.0164585 26.5935 0.0524305 26.6838C0.0884025 26.7741 0.141808 26.8564 0.209596 26.926C0.277385 26.9957 0.358229 27.0513 0.447511 27.0897C0.536794 27.1281 0.632766 27.1485 0.729946 27.1498Z" fill="#00CC36"/>
<path d="M43.65 18.3899C43.5533 18.3873 43.4571 18.4039 43.3668 18.4387C43.2766 18.4736 43.1942 18.526 43.1244 18.593C43.0546 18.66 42.9989 18.7402 42.9603 18.829C42.9218 18.9177 42.9013 19.0132 42.9 19.1099V57.2699C42.9 57.368 42.9195 57.465 42.9573 57.5554C42.9951 57.6459 43.0505 57.7279 43.1203 57.7967C43.1901 57.8656 43.2728 57.9199 43.3638 57.9565C43.4547 57.9931 43.552 58.0112 43.65 58.0099H51C51.0959 58.0086 51.1906 57.9884 51.2786 57.9505C51.3667 57.9127 51.4464 57.8578 51.5133 57.7891C51.5802 57.7203 51.6328 57.6391 51.6683 57.5501C51.7038 57.461 51.7213 57.3658 51.72 57.2699V19.1099C51.72 18.919 51.6442 18.7358 51.5091 18.6008C51.3741 18.4658 51.191 18.3899 51 18.3899H43.65Z" fill="#00CC36"/>
<path d="M0.729998 57.9998H8.07C8.16578 58.0012 8.26086 57.9832 8.3495 57.9469C8.43814 57.9106 8.51851 57.8567 8.58578 57.7885C8.65305 57.7203 8.70582 57.6392 8.74091 57.55C8.77601 57.4609 8.79271 57.3656 8.79 57.2698V31.9998C8.79416 31.9037 8.77847 31.8078 8.74389 31.718C8.70931 31.6282 8.6566 31.5465 8.58903 31.478C8.52147 31.4095 8.44051 31.3556 8.3512 31.3198C8.2619 31.284 8.16617 31.267 8.07 31.2698H0.729998C0.633761 31.2685 0.53823 31.2865 0.449054 31.3227C0.359879 31.3589 0.278868 31.4126 0.210811 31.4806C0.142754 31.5487 0.0890331 31.6297 0.0528238 31.7189C0.0166145 31.8081 -0.001348 31.9036 -1.82679e-06 31.9998V57.2298C-0.00544445 57.329 0.00940941 57.4283 0.0436506 57.5215C0.0778918 57.6147 0.1308 57.7 0.199137 57.7721C0.267474 57.8442 0.349801 57.9015 0.441081 57.9407C0.532361 57.9799 0.630672 58 0.729998 57.9998Z" fill="#00CC36"/>
<path d="M64.1999 57.2302C64.1999 57.4221 64.2754 57.6063 64.4102 57.7429C64.5449 57.8795 64.7281 57.9576 64.9199 57.9602H72.4999C72.6935 57.9602 72.8792 57.8833 73.0161 57.7464C73.153 57.6095 73.2299 57.4238 73.2299 57.2302V43.0602L82.4499 19.3302C82.4637 19.2441 82.4637 19.1563 82.4499 19.0702C82.4211 18.8705 82.3214 18.6879 82.169 18.5557C82.0166 18.4235 81.8217 18.3505 81.6199 18.3502H74.2399C74.0882 18.3487 73.9395 18.3927 73.8129 18.4764C73.6864 18.5602 73.5878 18.6799 73.5299 18.8202L68.7599 31.1902L63.9299 18.7702C63.8709 18.6371 63.774 18.5244 63.6513 18.4461C63.5286 18.3679 63.3855 18.3275 63.2399 18.3302H55.4899C55.1199 18.3302 54.9499 18.6602 54.9499 19.0502C54.9412 19.1366 54.9412 19.2238 54.9499 19.3102L64.1499 43.0402V57.2202L64.1999 57.2302Z" fill="#00CC36"/>
<path d="M0.569976 15.3H8.31998C8.78998 15.3 8.83998 14.93 8.95998 14.65C9.34264 13.5086 9.97459 12.4668 10.81 11.6C12.0083 10.4656 13.5638 9.78327 15.21 9.67C23.28 8.48 36.21 7.88 47.3 7.88C58.39 7.88 71.3 8.48 79.37 9.67C81.0226 9.78119 82.5851 10.4635 83.79 11.6C84.6248 12.469 85.2596 13.51 85.65 14.65C85.75 14.93 85.8 15.3 86.31 15.3H94.03C94.1144 15.2982 94.1973 15.2773 94.2725 15.2388C94.3477 15.2004 94.4133 15.1455 94.4643 15.0782C94.5152 15.0108 94.5503 14.9329 94.5669 14.8501C94.5835 14.7672 94.5811 14.6818 94.56 14.6C94.4561 12.2924 93.768 10.0489 92.56 8.08C91.5085 6.48708 90.0088 5.24134 88.25 4.5C83 2.09 66.64 0 47.31 0C28 0 11.61 2.09 6.36998 4.5C4.59951 5.24853 3.08229 6.49147 1.99998 8.08C0.790366 10.0482 0.102058 12.2921 -2.36565e-05 14.6C-0.0157948 14.6821 -0.013943 14.7666 0.00540902 14.8479C0.024761 14.9292 0.0611715 15.0055 0.112228 15.0717C0.163285 15.1379 0.227823 15.1925 0.301566 15.2318C0.375309 15.2712 0.456573 15.2944 0.539976 15.3" fill="#00CC36"/>
<path d="M93.9999 61.1499H86.2799C85.7699 61.1499 85.7299 61.5199 85.6299 61.7799C85.2394 62.9251 84.6009 63.97 83.7599 64.8399C82.5491 65.9658 80.9893 66.6434 79.3399 66.7599C71.2899 67.9399 58.3399 68.5699 47.2699 68.5699C36.1999 68.5699 23.2699 67.9399 15.1899 66.7599C13.5435 66.6435 11.9868 65.9658 10.7799 64.8399C9.96809 63.9714 9.36002 62.9329 8.99994 61.7999C8.87994 61.5399 8.82994 61.1699 8.35994 61.1699H0.609936C0.524873 61.1736 0.441666 61.196 0.366222 61.2354C0.290778 61.2749 0.224947 61.3305 0.173405 61.3982C0.121863 61.466 0.0858726 61.5443 0.0679903 61.6275C0.0501081 61.7108 0.0507723 61.7969 0.0699358 61.8799C0.177593 64.1837 0.865546 66.423 2.06994 68.3899C3.16318 69.9755 4.69105 71.2117 6.46994 71.9499C11.7099 74.3299 28.0699 76.4499 47.3899 76.4499C66.7199 76.4499 83.0599 74.3299 88.3299 71.9499C90.0966 71.2226 91.6048 69.9826 92.6599 68.3899C93.858 66.4202 94.5455 64.1825 94.6599 61.8799C94.6829 61.7975 94.6866 61.7109 94.6709 61.6268C94.6551 61.5427 94.6204 61.4634 94.5692 61.3948C94.518 61.3263 94.4518 61.2704 94.3757 61.2314C94.2995 61.1924 94.2155 61.1714 94.1299 61.1699" fill="#00CC36"/>
<path d="M229.53 21.9998H220.82V20.3998C220.87 20.1123 220.857 19.8173 220.781 19.5354C220.706 19.2536 220.569 18.9917 220.381 18.7683C220.194 18.5448 219.959 18.3651 219.695 18.2418C219.43 18.1186 219.142 18.0547 218.85 18.0547C218.558 18.0547 218.27 18.1186 218.005 18.2418C217.741 18.3651 217.506 18.5448 217.319 18.7683C217.131 18.9917 216.994 19.2536 216.919 19.5354C216.843 19.8173 216.83 20.1123 216.88 20.3998V21.9998H206.16V20.3998C206.079 19.9363 205.837 19.5162 205.476 19.2135C205.116 18.9108 204.661 18.7449 204.19 18.7449C203.719 18.7449 203.264 18.9108 202.904 19.2135C202.543 19.5162 202.301 19.9363 202.22 20.3998V21.9998H193.53C193.243 21.9494 192.947 21.9626 192.666 22.0384C192.384 22.1141 192.122 22.2507 191.898 22.4384C191.675 22.6261 191.495 22.8605 191.372 23.1251C191.249 23.3896 191.185 23.6779 191.185 23.9698C191.185 24.2617 191.249 24.55 191.372 24.8145C191.495 25.0791 191.675 25.3134 191.898 25.5012C192.122 25.6889 192.384 25.8254 192.666 25.9012C192.947 25.977 193.243 25.9902 193.53 25.9398H202.22V29.1298C202.301 29.5933 202.543 30.0134 202.904 30.3161C203.264 30.6188 203.719 30.7847 204.19 30.7847C204.661 30.7847 205.116 30.6188 205.476 30.3161C205.837 30.0134 206.079 29.5933 206.16 29.1298V25.9998H216.88V29.1898C216.83 29.4773 216.843 29.7723 216.919 30.0542C216.994 30.336 217.131 30.5979 217.319 30.8213C217.506 31.0448 217.741 31.2245 218.005 31.3478C218.27 31.471 218.558 31.5349 218.85 31.5349C219.142 31.5349 219.43 31.471 219.695 31.3478C219.959 31.2245 220.194 31.0448 220.381 30.8213C220.569 30.5979 220.706 30.336 220.781 30.0542C220.857 29.7723 220.87 29.4773 220.82 29.1898V25.9998H229.53C229.994 25.9186 230.414 25.6765 230.716 25.3162C231.019 24.9559 231.185 24.5004 231.185 24.0298C231.185 23.5592 231.019 23.1037 230.716 22.7434C230.414 22.383 229.994 22.141 229.53 22.0598V21.9998Z" fill="#00CC36"/>
<path d="M226.2 46.9098C225.67 46.9098 225.161 47.1205 224.786 47.4956C224.411 47.8707 224.2 48.3794 224.2 48.9098V51.7698C224.225 52.0826 224.181 52.397 224.071 52.6908C223.961 52.9847 223.788 53.2508 223.564 53.4702C223.339 53.6897 223.07 53.8571 222.774 53.9608C222.477 54.0644 222.162 54.1016 221.85 54.0698H203C201.8 54.0698 199.46 54.0698 199.46 52.7698C199.46 51.7698 201.14 50.5298 203.1 49.4398L225.78 36.3698C226.129 36.1367 226.396 35.7998 226.542 35.4067C226.689 35.0137 226.709 34.5844 226.598 34.1796C226.488 33.7748 226.253 33.4151 225.926 33.1513C225.6 32.8875 225.199 32.7331 224.78 32.7098H196.84C196.551 32.655 196.253 32.6647 195.968 32.7381C195.683 32.8115 195.418 32.9468 195.192 33.1345C194.965 33.3222 194.783 33.5575 194.658 33.8238C194.532 34.09 194.467 34.3806 194.467 34.6748C194.467 34.969 194.532 35.2596 194.658 35.5258C194.783 35.7921 194.965 36.0274 195.192 36.2151C195.418 36.4028 195.683 36.5381 195.968 36.6115C196.253 36.685 196.551 36.6946 196.84 36.6398H217.57L201.11 45.9998C199.76 46.7598 195.47 49.4098 195.47 52.7598C195.47 56.8998 200.17 57.9998 202.95 57.9998H221.88C222.708 58.0286 223.533 57.888 224.304 57.5866C225.076 57.2851 225.778 56.8291 226.367 56.2467C226.956 55.6642 227.42 54.9676 227.73 54.1994C228.04 53.4313 228.19 52.6079 228.17 51.7798V48.8798C228.162 48.3597 227.952 47.8632 227.584 47.4954C227.217 47.1276 226.72 46.9175 226.2 46.9098Z" fill="#00CC36"/>
<path d="M151 34.4002C157.58 34.4002 162.56 32.6902 165.81 29.3302C166.757 28.3476 167.546 27.2243 168.15 26.0002H183.43C183.893 25.919 184.314 25.6769 184.616 25.3166C184.919 24.9563 185.085 24.5008 185.085 24.0302C185.085 23.5596 184.919 23.1041 184.616 22.7438C184.314 22.3834 183.893 22.1414 183.43 22.0602H169.37C169.455 21.5076 169.499 20.9493 169.5 20.3902C169.405 19.9282 169.149 19.5148 168.779 19.2229C168.408 18.931 167.947 18.7795 167.475 18.795C167.004 18.8106 166.553 18.9922 166.203 19.3079C165.852 19.6236 165.624 20.053 165.56 20.5202C165.552 21.0388 165.488 21.5551 165.37 22.0602H152.43C152.142 22.0098 151.847 22.023 151.566 22.0988C151.284 22.1746 151.022 22.3111 150.798 22.4988C150.575 22.6866 150.395 22.9209 150.272 23.1855C150.149 23.45 150.085 23.7383 150.085 24.0302C150.085 24.3221 150.149 24.6104 150.272 24.8749C150.395 25.1395 150.575 25.3738 150.798 25.5616C151.022 25.7493 151.284 25.8858 151.566 25.9616C151.847 26.0374 152.142 26.0506 152.43 26.0002H163.51C163.34 26.2102 163.15 26.4302 162.95 26.6402C160.47 29.2002 156.43 30.5002 150.95 30.5002C150.486 30.5814 150.066 30.8234 149.764 31.1838C149.461 31.5441 149.295 31.9996 149.295 32.4702C149.295 32.9408 149.461 33.3963 149.764 33.7566C150.066 34.1169 150.486 34.359 150.95 34.4402L151 34.4002Z" fill="#00CC36"/>
<path d="M168.75 27.8599C168.668 28.3719 168.787 28.8959 169.084 29.3213C169.381 29.7466 169.831 30.0402 170.34 30.1399C170.43 30.1399 179.25 31.7799 183.83 34.3299C184.135 34.5019 184.48 34.5883 184.83 34.5799C185.257 34.5654 185.669 34.4143 186.004 34.1487C186.339 33.8831 186.581 33.517 186.693 33.1042C186.804 32.6914 186.781 32.2536 186.626 31.855C186.471 31.4565 186.192 31.1182 185.83 30.8899C180.6 27.9999 171.43 26.3399 171 26.2699C170.493 26.196 169.976 26.3198 169.558 26.6157C169.139 26.9116 168.85 27.357 168.75 27.8599Z" fill="#00CC36"/>
<path d="M186 34.9302H150.71C150.246 35.0114 149.826 35.2534 149.524 35.6138C149.221 35.9741 149.055 36.4296 149.055 36.9002C149.055 37.3708 149.221 37.8263 149.524 38.1866C149.826 38.5469 150.246 38.789 150.71 38.8702H177.71V52.4502C177.724 52.7317 177.658 53.0115 177.518 53.2562C177.378 53.5009 177.17 53.7001 176.92 53.8302C176.62 53.9502 175.05 54.4302 170.5 53.4302C170.029 53.4076 169.564 53.5525 169.189 53.8391C168.815 54.1258 168.553 54.5359 168.451 54.9967C168.35 55.4576 168.414 55.9396 168.633 56.3574C168.853 56.7753 169.213 57.1022 169.65 57.2802C171.403 57.7061 173.196 57.9474 175 58.0002C176.872 58.1446 178.73 57.5846 180.21 56.4302C180.663 56.0319 181.024 55.5388 181.266 54.9859C181.508 54.4329 181.625 53.8335 181.61 53.2302V38.8702H186C186.463 38.789 186.884 38.5469 187.186 38.1866C187.489 37.8263 187.655 37.3708 187.655 36.9002C187.655 36.4296 187.489 35.9741 187.186 35.6138C186.884 35.2534 186.463 35.0114 186 34.9302Z" fill="#00CC36"/>
<path d="M174 51.1C174.379 50.687 174.608 50.1588 174.65 49.6V42.8C174.6 42.2344 174.372 41.699 174 41.27C173.521 40.8341 172.907 40.5764 172.26 40.54H154.76C154.113 40.5747 153.498 40.8327 153.02 41.27C152.653 41.6995 152.436 42.2364 152.4 42.8V49.6C152.428 50.1565 152.647 50.6863 153.02 51.1C153.497 51.541 154.112 51.8026 154.76 51.84H172.26C172.908 51.8002 173.522 51.5389 174 51.1ZM170.83 47.49C170.83 48.1 170.58 48.38 169.93 48.38H157.14C156.49 48.38 156.21 48.1 156.21 47.49V44.91C156.21 44.28 156.49 44 157.14 44H170C170.65 44 170.9 44.28 170.9 44.91L170.83 47.49Z" fill="#00CC36"/>
<path d="M142.81 53.6798C138.645 53.3572 134.54 52.4898 130.6 51.0998C133.299 48.9792 135.44 46.2335 136.84 43.0998C136.968 42.7481 137.023 42.3736 137 41.9998C137 41.4694 136.789 40.9607 136.414 40.5856C136.039 40.2106 135.53 39.9998 135 39.9998H120.83C121.13 39.3598 121.41 38.7398 121.65 38.1298H138.1C138.542 38.1196 138.969 37.9628 139.313 37.6841C139.657 37.4054 139.898 37.0206 140 36.5898C140.254 36.6947 140.525 36.7491 140.8 36.7498C141.178 36.7378 141.546 36.6187 141.859 36.4063C142.172 36.1938 142.419 35.8969 142.57 35.5498C143.248 33.7451 143.495 31.8068 143.29 29.8898C143.229 29.3346 142.978 28.8177 142.579 28.4273C142.179 28.037 141.656 27.7975 141.1 27.7498H135.76C136.474 26.5692 137.051 25.3111 137.48 23.9998C137.555 23.7518 137.579 23.4913 137.552 23.2337C137.524 22.976 137.445 22.7265 137.32 22.4998C139.07 22.2998 140.08 22.1598 140.12 22.1498C140.615 22.0782 141.061 21.8131 141.36 21.4127C141.659 21.0123 141.787 20.5095 141.715 20.0148C141.643 19.5202 141.378 19.0743 140.978 18.7752C140.577 18.476 140.075 18.3482 139.58 18.4198C129.633 19.6807 119.598 20.1122 109.58 19.7098C109.097 19.7157 108.635 19.9059 108.289 20.2414C107.942 20.577 107.736 21.0325 107.715 21.5146C107.693 21.9966 107.856 22.4688 108.172 22.8342C108.487 23.1996 108.93 23.4306 109.41 23.4798L111.28 23.5598C111.236 24.0026 111.353 24.4464 111.61 24.8098C112.4 25.9098 113.33 27.2998 113.61 27.7398H107.9C107.629 27.7395 107.36 27.7944 107.111 27.9011C106.861 28.0078 106.636 28.1641 106.449 28.3605C106.262 28.557 106.117 28.7894 106.023 29.0437C105.928 29.298 105.886 29.5689 105.9 29.8398L106.23 34.5198C106.273 35.0203 106.502 35.4863 106.873 35.8254C107.243 36.1644 107.728 36.3517 108.23 36.3498H108.37C108.587 36.3355 108.8 36.2848 109 36.1998C109 36.7303 109.211 37.239 109.586 37.6141C109.961 37.9891 110.47 38.1998 111 38.1998H117.41C115.038 43.2334 111.073 47.3453 106.13 49.8998C105.764 50.1204 105.478 50.4526 105.314 50.8475C105.151 51.2425 105.118 51.6794 105.221 52.0944C105.324 52.5093 105.557 52.8803 105.886 53.1531C106.215 53.4258 106.623 53.5859 107.05 53.6098C107.371 53.6122 107.688 53.533 107.97 53.3798C111.351 51.6202 114.36 49.2228 116.83 46.3198C118.361 48.3078 120.221 50.0192 122.33 51.3798C118.567 52.8923 114.587 53.7936 110.54 54.0498C110.082 54.1366 109.669 54.3804 109.372 54.7391C109.075 55.0978 108.913 55.549 108.913 56.0148C108.913 56.4806 109.075 56.9318 109.372 57.2906C109.669 57.6493 110.082 57.8931 110.54 57.9798C116.114 57.7083 121.566 56.2599 126.54 53.7298C131.616 55.9174 137.026 57.2293 142.54 57.6098H142.64C143.1 57.5341 143.519 57.3001 143.825 56.9481C144.131 56.5961 144.304 56.1483 144.315 55.6822C144.325 55.216 144.173 54.7608 143.884 54.3952C143.594 54.0295 143.186 53.7765 142.73 53.6798H142.81ZM139.37 32.3098C139.338 32.8894 139.213 33.46 139 33.9998C138.949 34.1366 138.909 34.277 138.88 34.4198C138.64 34.3174 138.381 34.263 138.12 34.2598H122.94C123.2 33.2598 123.36 32.3498 123.46 31.6798H138.74C138.825 31.6683 138.912 31.6766 138.994 31.7042C139.076 31.7318 139.15 31.7778 139.211 31.8388C139.272 31.8998 139.318 31.974 139.346 32.0557C139.373 32.1374 139.382 32.2244 139.37 32.3098ZM133.71 22.8898C133.113 24.6815 132.16 26.3343 130.91 27.7498H127.2L125.2 23.4498C128.48 23.2998 131.39 23.0798 133.75 22.8698L133.71 22.8898ZM117.06 26.3598C116.566 25.4153 116.001 24.5094 115.37 23.6498H116.63C118.31 23.6498 119.94 23.6498 121.51 23.5798C121.413 23.9895 121.459 24.4198 121.64 24.7998L123 27.7498H117C117.194 27.3105 117.215 26.8142 117.06 26.3598ZM111 34.2598C110.738 34.2606 110.48 34.315 110.24 34.4198V34.2498L110.11 32.3598C110.102 32.2735 110.111 32.1864 110.139 32.1041C110.166 32.0218 110.21 31.9462 110.269 31.8821C110.327 31.818 110.399 31.7669 110.478 31.7321C110.557 31.6972 110.643 31.6794 110.73 31.6798H119.53C119.4 32.3698 119.21 33.2498 118.92 34.2598H111ZM120 43.9998H131.88C130.432 46.0942 128.575 47.8734 126.42 49.2298C123.933 47.9618 121.745 46.179 120 43.9998Z" fill="#00CC36"/>
</g>
<defs>
<clipPath id="clip0">
<rect width="231.5" height="76.43" fill="white"/>
</clipPath>
</defs>
</svg>
