<svg viewBox="0 0 490.60366 164.00981" xmlns="http://www.w3.org/2000/svg"><path d="m36.478 59.399v-19.017h-9.55v28.566h28.566v-9.549z" fill="#009ade"/><path d="m74.429 21.365h-47.501v14.242h9.467v-4.693h28.567v28.485h-4.775v9.549h14.242z" fill="#003764"/><path d="m87.0245 21.36486h14.65368v35.39934h21.075v12.184h-35.72868z" fill="#003764"/><path d="m129.00977 21.36486h36.79885v12.184h-22.14516v5.92733h19.01686v11.36068h-19.01686v18.11129h-14.65369z" fill="#003764"/><path d="m194.04577 21.52951h5.02177l18.60524 47.41864h-4.85711l-5.76269-14.736h-21.56889l-5.68036 14.736h-4.85711zm-7.1622 28.81342h18.60524l-9.138-24.2856z" fill="#009ade"/><path d="m223.92939 21.52951h4.52782v47.41864h-4.52782z" fill="#009ade"/><path d="m280.89375 57.238a12.05823 12.05823 0 0 0 1.57412-4.338 30.42219 30.42219 0 0 0 .35376-4.659h3.85578a36.65141 36.65141 0 0 1 -.80542 6.26592 17.52425 17.52425 0 0 1 -2.414 5.81536l7.52466 8.86851h-5.20741l-4.506-5.46216a18.33949 18.33949 0 0 1 -6.504 5.14066 19.84521 19.84521 0 0 1 -8.11092 1.54242 15.91047 15.91047 0 0 1 -5.6663-.9962 14.09091 14.09091 0 0 1 -4.6039-2.79505 12.89789 12.89789 0 0 1 -3.08985-4.338 13.71085 13.71085 0 0 1 -1.12637-5.62291 12.36736 12.36736 0 0 1 .89943-4.75575 15.11651 15.11651 0 0 1 2.41013-3.98427 17.793 17.793 0 0 1 3.502-3.18107 27.478 27.478 0 0 1 4.2418-2.40958 36.204 36.204 0 0 1 -3.40635-4.72349 10.62112 10.62112 0 0 1 -1.54186-5.62292 8.71409 8.71409 0 0 1 .83545-3.888 8.44174 8.44174 0 0 1 2.24883-2.85957 9.56982 9.56982 0 0 1 3.30956-1.73544 13.69149 13.69149 0 0 1 4.01653-.57792 10.64566 10.64566 0 0 1 3.9203.70641 9.45493 9.45493 0 0 1 3.08428 1.92835 8.67967 8.67967 0 0 1 2.69938 6.29762 10.0372 10.0372 0 0 1 -.73923 4.01652 10.28963 10.28963 0 0 1 -1.99185 3.02032 16.36742 16.36742 0 0 1 -2.92409 2.40958q-1.672 1.09383-3.47031 2.18487zm-15.35914-12.14585a19.26239 19.26239 0 0 0 -3.56654 2.15261 15.20587 15.20587 0 0 0 -2.82786 2.7956 13.75951 13.75951 0 0 0 -1.89563 3.30956 9.68976 9.68976 0 0 0 -.707 3.63106 10.21244 10.21244 0 0 0 .8032 4.145 9.28366 9.28366 0 0 0 2.18542 3.11655 9.71761 9.71761 0 0 0 3.2773 1.99186 11.74861 11.74861 0 0 0 4.145.707 12.62829 12.62829 0 0 0 6.58686-1.70261 20.26086 20.26086 0 0 0 5.17293-4.46652zm8.22551-10.60338a5.80228 5.80228 0 0 0 -.35321-5.36594 5.78649 5.78649 0 0 0 -5.109-2.73163 6.89667 6.89667 0 0 0 -2.31335.386 6.4934 6.4934 0 0 0 -1.96015 1.09243 5.22117 5.22117 0 0 0 -1.38167 1.73488 5.09852 5.09852 0 0 0 -.514 2.31335 5.829 5.829 0 0 0 .514 2.24939 15.685 15.685 0 0 0 1.25318 2.37788q.73757 1.15639 1.57413 2.21712.83434 1.06045 1.47845 1.83111 1.92734-1.15641 3.88748-2.53807a8.47018 8.47018 0 0 0 2.92414-3.56652z" fill="#009ade"/><path d="m312.25335 69.19075v-46.26931h15.80913q1.92732 0 3.79125.09623a25.94281 25.94281 0 0 1 3.66276.45 18.37273 18.37273 0 0 1 3.50257 1.06017 16.52323 16.52323 0 0 1 3.30956 1.86337 14.07669 14.07669 0 0 1 3.79181 4.081 23.73642 23.73642 0 0 1 2.34562 5.0767 29.88076 29.88076 0 0 1 1.22092 5.3982 39.67355 39.67355 0 0 1 .35321 5.04443 38.77386 38.77386 0 0 1 -.28924 4.69124 30.93711 30.93711 0 0 1 -.93169 4.659 24.0069 24.0069 0 0 1 -1.70317 4.37029 16.81537 16.81537 0 0 1 -2.66656 3.82352 14.235 14.235 0 0 1 -3.50257 2.89183 18.1156 18.1156 0 0 1 -3.98426 1.70317 23.82325 23.82325 0 0 1 -4.338.83545q-2.25023.22528-4.56218.22472zm4.37029-3.72729h10.47489a41.33 41.33 0 0 0 5.55839-.3532 16.08061 16.08061 0 0 0 5.302-1.7677 10.46072 10.46072 0 0 0 3.79126-3.1488 17.32 17.32 0 0 0 2.34561-4.33747 23.25752 23.25752 0 0 0 1.22092-4.91651 36.37973 36.37973 0 0 0 .35376-4.94821 41.69317 41.69317 0 0 0 -.3215-5.10895 20.965 20.965 0 0 0 -1.22092-4.94821 16.49333 16.49333 0 0 0 -2.44184-4.30577 12.25246 12.25246 0 0 0 -3.98426-3.245 13.65085 13.65085 0 0 0 -4.88425-1.41394 50.76321 50.76321 0 0 0 -5.71914-.32094h-10.47492z" fill="#009ade"/><path d="m352.80241 69.19075 18.18644-46.26931h4.94821l17.737 46.26931h-4.49876l-5.33368-14.52368h-21.07827l-5.46272 14.52368zm11.43883-18.251h18.12248l-9.06151-24.291z" fill="#009ade"/><path d="m394.12351 22.92144h33.67349v3.72729h-14.65159v42.542h-4.37029v-42.542h-14.65161z" fill="#009ade"/><path d="m426.5761 69.19075 18.18645-46.26931h4.9482l17.737 46.26931h-4.49875l-5.33367-14.52368h-21.07833l-5.46272 14.52368zm11.43884-18.251h18.12248l-9.06152-24.291z" fill="#009ade"/><g fill="#003764"><path d="m49.40263 114.44285q4.47948 2.38623 5.48242 8.36426h-4.08887a7.43775 7.43775 0 0 0 -3.02832-4.86719 10.253 10.253 0 0 0 -5.792-1.52539 8.99916 8.99916 0 0 0 -6.98242 3.17481q-2.83595 3.17577-2.835 9.46484a15.34957 15.34957 0 0 0 2.33886 8.85156q2.33935 3.41455 7.62793 3.415a9.62173 9.62173 0 0 0 6.70117-2.39746q2.65431-2.39794 2.7168-7.75195h-9.54682v-3.42481h13.38672v16.31348h-2.65625l-.9961-3.92285a15.46973 15.46973 0 0 1 -3.65527 3.19629 13.50911 13.50911 0 0 1 -6.79883 1.53613 13.12 13.12 0 0 1 -9.167-3.50781q-4.18506-4.4004-4.18555-12.0791 0-7.65968 4.09082-12.1836a12.91871 12.91871 0 0 1 10.06445-4.31738 15.24532 15.24532 0 0 1 7.32326 1.66117z"/><path d="m62.66825 113.57078h13.8584a13.60992 13.60992 0 0 1 5.64551 1.0166q4.21875 1.95117 4.21875 7.20215a7.49876 7.49876 0 0 1 -4.2959 7.28516 6.242 6.242 0 0 1 2.6875 1.90918 6.86473 6.86473 0 0 1 1.00684 3.83984l.1455 4.08887a12.53921 12.53921 0 0 0 .29 2.59473 2.55141 2.55141 0 0 0 1.32813 1.86816v.68453h-5.06442a3.8283 3.8283 0 0 1 -.332-1.0166 19.42432 19.42432 0 0 1 -.207-2.4082l-.249-5.085q-.14062-2.98827-2.15723-4.00586a8.71428 8.71428 0 0 0 -3.61035-.56054h-9.13485v13.0762h-4.12988zm13.415 13.96778a7.6151 7.6151 0 0 0 4.46973-1.16211q1.645-1.16163 1.6455-4.19239 0-3.25781-2.30078-4.4414a7.34317 7.34317 0 0 0 -3.29-.62305h-9.80957v10.419z"/><path d="m101.72977 113.57078h4.66993l11.0625 30.48922h-4.52539l-3.0918-9.13184h-12.05859l-3.30079 9.13184h-4.23339zm6.78614 17.99512-4.62791-13.4707-4.919 13.4707z"/><path d="m121.40556 113.57078h12.18652a11.42618 11.42618 0 0 1 9.626 4.46192 16.60827 16.60827 0 0 1 3.05175 10.31543 20.79032 20.79032 0 0 1 -1.80175 8.77929q-3.17579 6.93311-10.917 6.93262h-12.1455zm11.376 26.96094a10.952 10.952 0 0 0 3.36914-.43555 7.4426 7.4426 0 0 0 3.85547-3.11328 12.9441 12.9441 0 0 0 1.72559-4.73242 18.43148 18.43148 0 0 0 .30469-3.19629q0-5.666-2.20215-8.80078-2.20312-3.13331-7.09278-3.13379h-7.16406v23.41211z"/><path d="m156.37821 113.57078v18.84571a11.00987 11.00987 0 0 0 1.25489 5.5205q1.86181 3.3208 6.27636 3.32129 5.29248 0 7.19629-3.59082a11.35024 11.35024 0 0 0 1.02539-5.251v-18.84568h4.17186v17.123q0 5.625-1.52051 8.65527-2.79053 5.521-10.53809 5.52051-7.74756 0-10.51757-5.52051-1.52052-3.03077-1.52051-8.65527v-17.123z"/><path d="m191.47489 113.57078h4.66992l11.0625 30.48922h-4.52539l-3.09179-9.13184h-12.0586l-3.30078 9.13184h-4.2334zm6.78611 17.99512-4.62792-13.4707-4.919 13.4707z"/><path d="m229.99638 113.57078v3.63184h-10.27344v26.85738h-4.17188v-26.85738h-10.27441v-3.63184z"/><path d="m234.18876 113.57078h22.125v3.73633h-18.09863v9.25589h16.72949v3.5293h-16.72949v10.3359h18.41015v3.6318h-22.43652z"/><path d="m274.34989 113.57078h13.64356a9.26367 9.26367 0 0 1 6.53418 2.293 8.33042 8.33042 0 0 1 2.4873 6.44531 9.37373 9.37373 0 0 1 -2.21973 6.21582q-2.22069 2.64552-6.79492 2.64649h-9.51953v12.8886h-4.13086zm16.02051 4.19238a8.87776 8.87776 0 0 0 -3.72949-.64355h-8.16016v10.56445h8.16016a7.76273 7.76273 0 0 0 4.48144-1.18261q1.72119-1.18361 1.72071-4.17188 0-3.36328-2.47266-4.56641z"/><path d="m302.806 113.57078h13.8584a13.60987 13.60987 0 0 1 5.6455 1.0166q4.21875 1.95117 4.21875 7.20215a7.49876 7.49876 0 0 1 -4.2959 7.28516 6.242 6.242 0 0 1 2.6875 1.90918 6.86465 6.86465 0 0 1 1.00684 3.83984l.14551 4.08887a12.53781 12.53781 0 0 0 .29 2.59473 2.55138 2.55138 0 0 0 1.32812 1.86816v.68453h-5.06445a3.82794 3.82794 0 0 1 -.332-1.0166 19.42229 19.42229 0 0 1 -.207-2.4082l-.249-5.085q-.14062-2.98827-2.15722-4.00586a8.71431 8.71431 0 0 0 -3.61035-.56054h-9.13477v13.0762h-4.12993zm13.415 13.96778a7.61507 7.61507 0 0 0 4.46972-1.16211q1.645-1.16163 1.64551-4.19239 0-3.25781-2.30078-4.4414a7.34317 7.34317 0 0 0 -3.29-.62305h-9.80957v10.419z"/><path d="m358.11845 117.92918a16.81368 16.81368 0 0 1 3.03027 10.35742 18.12463 18.12463 0 0 1 -3.46582 11.35254q-4.06934 5.313-11.60254 5.31348-7.03564 0-11.0625-4.64942a17.55407 17.55407 0 0 1 -3.59082-11.332 18.02484 18.02484 0 0 1 3.07227-10.585q3.94335-5.64551 11.66406-5.64551 8.07422.00001 11.95508 5.18849zm-3.64258 19.43359a16.67021 16.67021 0 0 0 2.43848-9.0039 12.84963 12.84963 0 0 0 -2.8125-8.66211 9.59316 9.59316 0 0 0 -7.68946-3.28223 10.0073 10.0073 0 0 0 -7.7207 3.251q-2.98829 3.25048-2.98926 9.58594a14.01286 14.01286 0 0 0 2.56348 8.54785q2.56347 3.48047 8.3125 3.47949 5.45801-.00002 7.89746-3.91604z"/><path d="m381.052 134.96922a12.89939 12.89939 0 0 1 -1.14258 5.99805q-2.11962 3.90234-8.0625 3.90234a9.3704 9.3704 0 0 1 -5.86035-1.85742q-2.43018-1.85742-2.43066-6.61035v-2.17969h3.88086v2.17969a5.4972 5.4972 0 0 0 1.11328 3.74609 4.39642 4.39642 0 0 0 3.46289 1.25586q3.30762 0 4.32715-2.2627a14.72372 14.72372 0 0 0 .623-5.251v-20.31931h4.08891z"/><path d="m387.71415 113.57078h22.125v3.73633h-18.09863v9.25589h16.72948v3.5293h-16.72948v10.3359h18.41015v3.6318h-22.43652z"/><path d="m437.23563 115.79149a10.81761 10.81761 0 0 1 3.50782 6.93261h-4.02637a7.66755 7.66755 0 0 0 -8.31641-6.39258 8.96166 8.96166 0 0 0 -7.14355 3.167q-2.72167 3.16845-2.72168 9.71191a14.29837 14.29837 0 0 0 2.457 8.69336q2.45655 3.334 7.33008 3.334a7.70426 7.70426 0 0 0 6.83008-3.50781 13.489 13.489 0 0 0 1.85547-4.85742h4.02636a13.8354 13.8354 0 0 1 -3.52832 8.07422 12.48438 12.48438 0 0 1 -9.68457 3.92285 12.68852 12.68852 0 0 1 -8.82129-3.21875q-4.69921-4.2583-4.69824-13.14746a16.93027 16.93027 0 0 1 3.52832-11.06934 12.82 12.82 0 0 1 10.52344-4.69336q5.72318-.00002 8.88186 3.05077z"/><path d="m468.53544 113.57078v3.63184h-10.27344v26.85738h-4.17187v-26.85738h-10.27442v-3.63184z"/></g><path d="m26.92802 89.83152h440.51953v2.10352h-440.51953z" fill="#003e69"/></svg>