<svg fill="none" height="35" viewBox="0 0 148 35" width="148" xmlns="http://www.w3.org/2000/svg"><g fill="#12c3f4"><path d="m35.2688 5.48219c-6.6189-6.64292-17.3519-6.64292-23.9708 0l-10.818369 10.85731c-.639508.6426-.639508 1.6771 0 2.3196l10.818369 10.8574c6.6189 6.6429 17.3519 6.6429 23.9708.0109 6.6296-6.6321 6.6296-17.4023 0-24.04521zm-2.558 20.85441c-4.8603 4.8787-12.7475 4.8787-17.6078 0l-7.96183-7.9824c-.46898-.4683-.46898-1.2306 0-1.7097l7.95123-7.97153c4.8602-4.87874 12.7475-4.87874 17.6077 0 4.871 4.87873 4.871 12.78493.0107 17.66363z"/><path d="m49.4439 16.3504-4.7643-4.8678c-.2878-.2941-.7674-.0218-.6715.3811.8207 3.7135.8207 7.5904 0 11.3039-.0853.4029.3943.6643.6715.3811l4.7643-4.8678c.6288-.6534.6288-1.688 0-2.3305z"/><path d="m23.9598 26.0426c4.6092 0 8.3456-3.8176 8.3456-8.5269 0-4.7092-3.7364-8.52687-8.3456-8.52687-4.6091 0-8.3455 3.81767-8.3455 8.52687 0 4.7093 3.7364 8.5269 8.3455 8.5269z"/><path d="m59.4233 19.0123c0-.9069.1531-1.6887.4591-2.3454.3061-.6567.7346-1.2196 1.2855-1.6887.551-.469 1.1937-.813 1.9283-1.0319s1.5609-.344 2.4179-.344c1.0713 0 2.0201.1876 2.8771.5629.8264.3752 1.5304.8756 2.0507 1.5323.5203-.6567 1.1936-1.1571 2.02-1.5323.8264-.3753 1.7752-.5629 2.8465-.5629.857 0 1.6528.1251 2.3873.344.7346.2189 1.3774.5629 1.9283 1.0319.5509.4691.9794 1.032 1.2855 1.6887s.4591 1.4385.4591 2.3454v8.9438h-4.3156v-7.6929c0-.9382-.1836-1.5949-.5509-2.0014s-.8876-.5942-1.5916-.5942-1.2549.2502-1.714.7193c-.4285.4691-.6427 1.2196-.6427 2.2828v7.3177h-4.3156v-7.3177c0-1.0319-.2143-1.7825-.6428-2.2828-.4285-.4691-.9794-.7193-1.6834-.7193-.6733 0-1.2242.1877-1.5915.5942-.3979.4065-.5816 1.0632-.5816 2.0014v7.6929h-4.3156z"/><path d="m84.9497 10.2562c0-.68799.2143-1.28215.6734-1.75123s1.01-.71926 1.714-.71926c.6733 0 1.2548.25018 1.714.71926.4591.46908.7039 1.06324.7039 1.75123 0 .688-.2448 1.2822-.7039 1.7512-.4592.4691-1.0407.688-1.714.688-.6734 0-1.2549-.2189-1.714-.688-.4285-.5003-.6734-1.0632-.6734-1.7512zm.2449 5.6915c0-.7192.2142-1.2196.6121-1.501.3979-.2815.9488-.4379 1.6222-.4379.4897 0 .9182.0626 1.3161.1877s.6427.1876.7652.2189v13.572h-4.3156z"/><path d="m93.4893 9.72458c0-.71926.2142-1.21961.6121-1.50106.3979-.28144.9488-.43781 1.6222-.43781.4897 0 .9182.06254 1.3161.18763s.6427.18763.7652.21891v19.76395h-4.3156z"/><path d="m105.701 27.9561c-.551-1.0007-1.102-2.0327-1.622-3.0959-.521-1.0633-1.01-2.064-1.439-2.9709-.428-.9068-.796-1.7199-1.071-2.3454-.276-.6567-.459-1.0632-.551-1.2508-.153-.3753-.306-.7818-.459-1.2197-.184-.469-.245-.8756-.245-1.2196 0-.5003.184-.9381.551-1.3134.367-.344.887-.5316 1.622-.5316.582 0 1.041.0625 1.408.1876s.551.1877.612.2189c.306.9069.612 1.8138.98 2.7207.336.9069.673 1.7512.979 2.533s.582 1.4698.857 2.064c.245.5942.428 1.0007.551 1.2509.122-.2502.275-.6568.52-1.2196.245-.5629.49-1.2197.765-1.9076.276-.688.551-1.4073.827-2.0953.275-.6879.52-1.3134.704-1.7825.122-.2814.214-.5316.367-.7818.122-.2501.306-.4378.49-.6254.183-.1876.428-.3127.673-.4066.276-.0938.612-.125.98-.125.367 0 .673.0312.979.125.275.0626.551.1564.765.2502s.398.1877.52.2502c.123.0938.215.1251.245.1564-.061.3439-.245.813-.52 1.501-.275.6567-.582 1.4385-.949 2.2829-.367.8443-.765 1.7512-1.194 2.6894-.428.9381-.857 1.845-1.254 2.7206-.398.8757-.796 1.6575-1.163 2.3767-.368.688-.643 1.2509-.827 1.6262h-4.101z"/><path d="m122.259 21.4515c0 1.9076.827 2.8458 2.51 2.8458 1.684 0 2.51-.9382 2.51-2.8458v-5.5038c0-.7193.214-1.2197.612-1.5011.398-.2815.949-.4378 1.622-.4378.49 0 .919.0625 1.316.1876.398.1251.643.1877.766.2189v7.8493c0 1.032-.184 1.9076-.521 2.6581-.336.7506-.826 1.376-1.438 1.8763-.612.5004-1.316.8757-2.173 1.1258-.827.2502-1.745.3753-2.694.3753-.979 0-1.867-.1251-2.693-.3753-.827-.2501-1.561-.6254-2.173-1.1258-.612-.5003-1.072-1.1257-1.439-1.8763-.337-.7505-.52-1.6574-.52-2.6581v-6.3169c0-.7193.214-1.2197.612-1.5011.398-.2815.949-.4378 1.622-.4378.49 0 .918.0625 1.316.1876s.643.1877.765.2189z"/><path d="m135.972 23.7031c.153.1251.367.2502.704.4066.336.1563.734.3127 1.193.4378s.98.2502 1.561.344c.582.0938 1.194.1563 1.837.1563.734 0 1.285-.0625 1.652-.2189.368-.1251.551-.3752.551-.7192 0-.3753-.153-.6255-.459-.7506-.306-.125-.796-.2501-1.469-.3439l-1.408-.1564c-.704-.0938-1.377-.2189-2.02-.4065-.643-.1877-1.224-.4379-1.714-.7818-.49-.344-.888-.7819-1.163-1.3135s-.428-1.1883-.428-2.0014c0-.688.122-1.3134.367-1.8763s.612-1.0633 1.132-1.5011c.521-.4378 1.194-.7818 1.99-1.0007.796-.2501 1.775-.3752 2.877-.3752 1.132 0 2.081.0625 2.907.2189.827.1563 1.5.3752 2.112.688.337.1876.612.4065.827.6567.214.2501.306.5941.306.9694 0 .2815-.061.5629-.184.7818-.122.2189-.245.4378-.398.5942-.153.1563-.306.2814-.428.3752-.123.0939-.214.1564-.245.1564-.061-.0625-.214-.1564-.429-.3127-.244-.1564-.55-.2815-.979-.4378-.398-.1251-.888-.2502-1.439-.3753-.55-.1251-1.193-.1564-1.928-.1564-.796 0-1.377.0939-1.683.2815s-.459.4378-.459.7505.153.5316.428.6567c.276.1251.704.2502 1.286.344l2.448.344c.612.0938 1.194.2189 1.745.4066.551.1876 1.071.4378 1.5.7505.428.344.795.7505 1.04 1.2509.245.5003.398 1.1258.398 1.8763 0 1.5323-.581 2.7207-1.714 3.5963-1.132.8443-2.724 1.2821-4.744 1.2821-1.041 0-1.989-.0625-2.816-.2189-.826-.1563-1.5-.3127-2.112-.5003-.581-.1877-1.071-.4066-1.438-.5942-.367-.2189-.612-.3753-.765-.4691z"/></g></svg>