<svg fill="none" height="37" viewBox="0 0 53 37" width="53" xmlns="http://www.w3.org/2000/svg"><g fill="#12c3f4"><path d="m32.1195 2.94877c-3.9175-3.931695-10.27-3.931695-14.1875 0l-6.403 6.42608c-.3785.38028-.3785.99255 0 1.37285l6.403 6.4261c3.9175 3.9317 10.27 3.9317 14.1875.0064 3.9238-3.9252 3.9238-10.29973 0-14.23143zm-1.514 12.34293c-2.8767 2.8876-7.5448 2.8876-10.4214 0l-4.7124-4.7245c-.2776-.2771-.2776-.72828 0-1.01188l4.706-4.71804c2.8767-2.88754 7.5448-2.88754 10.4214 0 2.883 2.88754 2.883 7.56692.0064 10.45442z"/><path d="m40.5093 9.3813-2.8198-2.8811c-.1703-.17403-.4542-.01289-.3974.22559.4857 2.19788.4857 4.49241 0 6.69031-.0505.2385.2334.3932.3974.2256l2.8198-2.8811c.3722-.3867.3722-.99903 0-1.3793z"/><path d="m25.4263 15.1177c2.7279 0 4.9394-2.2595 4.9394-5.0467 0-2.78726-2.2115-5.04677-4.9394-5.04677-2.728 0-4.9395 2.25951-4.9395 5.04677 0 2.7872 2.2115 5.0467 4.9395 5.0467z"/><path d="m0 31.5029c0-.5368.0905757-.9995.271728-1.3882.181152-.3887.434764-.7218.760842-.9994.32607-.2777.70649-.4813 1.14125-.6108.43477-.1296.92388-.2036 1.4311-.2036.63403 0 1.19561.111 1.70283.3331.48911.2221.90576.5183 1.21372.907.30796-.3887.70649-.6849 1.1956-.907s1.05068-.3331 1.68471-.3331c.50723 0 .97822.074 1.41302.2036.4347.1295.8152.3331 1.1412.6108.3261.2776.5797.6107.7609.9994.1811.3887.2717.8514.2717 1.3882v5.2935h-2.5542v-4.5532c0-.5552-.1087-.9439-.3261-1.1845s-.52536-.3517-.94201-.3517-.74273.1481-1.01445.4257c-.25362.2777-.38042.7219-.38042 1.3512v4.331h-2.55424v-4.331c0-.6108-.12681-1.055-.38042-1.3512-.25362-.2776-.57969-.4257-.99634-.4257-.39853 0-.72461.1111-.94199.3517-.2355.2406-.34419.6293-.34419 1.1845v4.5532h-2.55424z"/><path d="m15.1084 26.3205c0-.4072.1268-.7589.3985-1.0365.2718-.2776.5978-.4257 1.0145-.4257.3985 0 .7427.1481 1.0144.4257.2718.2776.4167.6293.4167 1.0365s-.1449.7588-.4167 1.0365c-.2717.2776-.6159.4072-1.0144.4072s-.7427-.1296-1.0145-.4072c-.2536-.2962-.3985-.6293-.3985-1.0365zm.1449 3.3686c0-.4257.1268-.7219.3623-.8885.2355-.1665.5616-.2591.9601-.2591.2899 0 .5435.037.779.1111.2355.074.3804.111.4529.1295v8.0328h-2.5543z"/><path d="m20.1621 26.0058c0-.4257.1268-.7218.3623-.8884s.5616-.2591.9601-.2591c.2899 0 .5435.037.779.111.2355.0741.3804.1111.4529.1296v11.6975h-2.5543z"/><path d="m27.3899 36.7964c-.326-.5923-.6521-1.2031-.9601-1.8323-.3079-.6293-.5978-1.2216-.8514-1.7584-.2536-.5367-.471-1.018-.634-1.3881-.1631-.3887-.2717-.6293-.3261-.7404-.0906-.2221-.1811-.4627-.2717-.7218-.1087-.2777-.1449-.5183-.1449-.7219 0-.2961.1087-.5552.326-.7774.2174-.2035.5254-.3146.9601-.3146.3442 0 .616.037.8333.1111.2174.074.3261.111.3623.1295.1812.5368.3623 1.0735.5797 1.6103.1993.5367.3986 1.0365.5797 1.4992.1812.4627.3442.8699.5072 1.2216.145.3516.2537.5923.3261.7403.0725-.148.1631-.3887.308-.7218.1449-.3332.2898-.7219.4529-1.1291.163-.4072.326-.8328.4891-1.24.163-.4072.3079-.7774.4166-1.055.0725-.1666.1268-.3147.2174-.4628.0725-.148.1811-.2591.2898-.3701.1087-.1111.2537-.1851.3986-.2407.163-.0555.3623-.074.5797-.074.2173 0 .3985.0185.5796.074.1631.0371.3261.0926.4529.1481s.2355.1111.308.1481c.0724.0555.1268.074.1449.0925-.0362.2036-.1449.4813-.308.8885-.163.3886-.3441.8514-.5615 1.3511s-.4529 1.0365-.7065 1.5918c-.2536.5552-.5072 1.092-.7427 1.6102-.2355.5183-.471.981-.6884 1.4067-.2174.4072-.3804.7403-.4891.9624h-2.4275z"/><path d="m37.1905 32.9466c0 1.129.4891 1.6843 1.4854 1.6843.9964 0 1.4855-.5553 1.4855-1.6843v-3.2576c0-.4257.1268-.7218.3623-.8884s.5615-.2591.9601-.2591c.2898 0 .5434.037.7789.1111.2355.074.3804.111.4529.1295v4.6457c0 .6108-.1087 1.1291-.308 1.5733-.1992.4442-.4891.8144-.8514 1.1105s-.7789.5182-1.2861.6663c-.4892.1481-1.0326.2221-1.5942.2221-.5797 0-1.105-.074-1.5941-.2221s-.9239-.3702-1.2862-.6663-.634-.6663-.8514-1.1105c-.1993-.4442-.308-.981-.308-1.5733v-3.7388c0-.4257.1268-.7218.3623-.8884s.5616-.2591.9601-.2591c.2899 0 .5435.037.779.1111.2355.074.3804.111.4529.1295z"/><path d="m45.3062 34.2792c.0906.074.2174.1481.4166.2406.1993.0926.4348.1851.7065.2591.2718.0741.5797.1481.9239.2036.3442.0556.7065.0926 1.0869.0926.4348 0 .7609-.037.9782-.1296.2174-.074.3261-.2221.3261-.4257 0-.2221-.0906-.3701-.2717-.4442-.1812-.074-.471-.1481-.8695-.2036l-.8333-.0925c-.4167-.0556-.8152-.1296-1.1956-.2406-.3805-.1111-.7246-.2592-1.0145-.4628-.2898-.2036-.5253-.4627-.6884-.7773-.163-.3147-.2536-.7034-.2536-1.1846 0-.4072.0725-.7774.2174-1.1105.1449-.3332.3623-.6293.6703-.8884.3079-.2592.7065-.4628 1.1775-.5923.4709-.1481 1.0506-.2221 1.7028-.2221.6702 0 1.2318.037 1.7209.1295.4891.0926.8877.2221 1.25.4072.1992.1111.3623.2406.4891.3887s.1811.3517.1811.5738c0 .1666-.0362.3331-.1087.4627-.0724.1296-.1449.2591-.2355.3517-.0905.0925-.1811.1666-.2536.2221-.0724.0555-.1268.0925-.1449.0925-.0362-.037-.1268-.0925-.2536-.1851-.1449-.0925-.3261-.1665-.5797-.2591-.2355-.074-.5253-.1481-.8514-.2221s-.7065-.0925-1.1413-.0925c-.471 0-.8151.0555-.9963.1665-.1811.1111-.2717.2592-.2717.4442 0 .1851.0906.3147.2536.3887.163.0741.4166.1481.7608.2036l1.4492.2036c.3623.0556.7065.1296 1.0326.2406.3261.1111.634.2592.8877.4442.2536.2036.4709.4443.6159.7404.1449.2961.2355.6663.2355 1.1105 0 .907-.3442 1.6103-1.0145 2.1285-.6702.4998-1.6122.7589-2.8078.7589-.616 0-1.1775-.037-1.6666-.1296-.4891-.0925-.8877-.1851-1.25-.2961-.3442-.1111-.634-.2406-.8514-.3517-.2174-.1295-.3623-.2221-.4529-.2776z"/></g></svg>