<svg fill="none" height="40" viewBox="0 0 40 40" width="40" xmlns="http://www.w3.org/2000/svg"><circle cx="20" cy="20" fill="#fff" r="19.5" stroke="#f9f9f9"/><path d="m12.222 26.1668c-.3376 0-.6112-.2736-.6112-.6111s.2736-.6111.6112-.6111h15.5555c.3375 0 .6111.2736.6111.6111s-.2736.6111-.6111.6111zm0-4.4445c-.3376 0-.6112-.2736-.6112-.6111s.2736-.6111.6112-.6111h15.5555c.3375 0 .6111.2736.6111.6111s-.2736.6111-.6111.6111zm-.6112-5.0555c0-.3375.2736-.6111.6112-.6111h15.5555c.3375 0 .6111.2736.6111.6111s-.2736.6111-.6111.6111h-15.5555c-.3376 0-.6112-.2736-.6112-.6111z" fill="#4fc4f9" stroke="#4fc4f9"/></svg>