<svg fill="none" height="32" viewBox="0 0 32 32" width="32" xmlns="http://www.w3.org/2000/svg"><path d="m14.7425 25.6207c5.9043 0 10.6907-4.7864 10.6907-10.6907 0-5.90435-4.7864-10.69074-10.6907-10.69074-5.90429 0-10.69068 4.78639-10.69068 10.69074 0 5.9043 4.78639 10.6907 10.69068 10.6907z" stroke="#4fc4f9" stroke-linecap="round" stroke-linejoin="round" stroke-miterlimit="2" stroke-width="2.81818"/><path d="m24.3273 26.2811c1.4746 1.7511 2.6727 3.1796 2.6727 3.1796s-1.1981-1.4285-2.6727-3.1796zm0 0c-1.4745-1.751-2.6726-3.1795-2.6726-3.1795s1.1827 1.4285 2.6726 3.1795z" stroke="#4fc4f9" stroke-linecap="round" stroke-linejoin="round" stroke-miterlimit="2" stroke-width="2.81818"/><path d="m22.4995 11.4431c2.3583 0 4.2701-1.9118 4.2701-4.27013s-1.9118-4.27014-4.2701-4.27014-4.2701 1.91181-4.2701 4.27014 1.9118 4.27013 4.2701 4.27013z" fill="#00ffa2"/><circle cx="15" cy="15" fill="#4fc4f9" r="3"/></svg>