<svg width="32" height="32" viewBox="0 0 32 32" fill="none" xmlns="http://www.w3.org/2000/svg">
<path d="M14.7425 25.6204C20.6468 25.6204 25.4332 20.834 25.4332 14.9297C25.4332 9.0254 20.6468 4.23901 14.7425 4.23901C8.83815 4.23901 4.05176 9.0254 4.05176 14.9297C4.05176 20.834 8.83815 25.6204 14.7425 25.6204Z" stroke="#4FC4F9" stroke-width="2.81818" stroke-miterlimit="2" stroke-linecap="round" stroke-linejoin="round"/>
<path d="M24.3272 26.2809C25.8018 28.032 26.9999 29.4605 26.9999 29.4605C26.9999 29.4605 25.8018 28.032 24.3272 26.2809ZM24.3272 26.2809C22.8526 24.5299 21.6545 23.1014 21.6545 23.1014C21.6545 23.1014 22.8373 24.5299 24.3272 26.2809Z" stroke="#4FC4F9" stroke-width="2.81818" stroke-miterlimit="2" stroke-linecap="round" stroke-linejoin="round"/>
<path d="M22.4994 11.443C24.8577 11.443 26.7695 9.53116 26.7695 7.17282C26.7695 4.81449 24.8577 2.90269 22.4994 2.90269C20.1411 2.90269 18.2292 4.81449 18.2292 7.17282C18.2292 9.53116 20.1411 11.443 22.4994 11.443Z" fill="#1493CC"/>
<circle cx="15" cy="15" r="3" fill="#4FC4F9"/>
</svg>
