<svg fill="none" height="28" viewBox="0 0 29 28" width="29" xmlns="http://www.w3.org/2000/svg"><g stroke="#12c3f4" stroke-miterlimit="2" stroke-width="2.81818"><path d="m4.81818 16.8889c1.55644 0 2.81818-1.212 2.81818-2.7071s-1.26174-2.7071-2.81818-2.7071-2.81818 1.212-2.81818 2.7071 1.26174 2.7071 2.81818 2.7071z" fill="#65f8c3"/><path d="m24.5457 7.41414c1.5565 0 2.8182-1.212 2.8182-2.70707s-1.2617-2.70707-2.8182-2.70707c-1.5564 0-2.8182 1.212-2.8182 2.70707s1.2618 2.70707 2.8182 2.70707z"/><path d="m24.5457 16.8889c1.5565 0 2.8182-1.212 2.8182-2.7071s-1.2617-2.7071-2.8182-2.7071c-1.5564 0-2.8182 1.212-2.8182 2.7071s1.2618 2.7071 2.8182 2.7071z"/><path d="m24.5457 26.3637c1.5565 0 2.8182-1.212 2.8182-2.7071s-1.2617-2.7071-2.8182-2.7071c-1.5564 0-2.8182 1.212-2.8182 2.7071s1.2618 2.7071 2.8182 2.7071z"/><g stroke-linecap="round" stroke-linejoin="round"><path d="m21.7275 23.6566h-8.4546v-18.94951h8.4546"/><path d="m7.63623 14.1818h14.09087"/></g></g></svg>