<svg width="32" height="32" viewBox="0 0 32 32" fill="none" xmlns="http://www.w3.org/2000/svg">
<path d="M5.81818 18.8889C7.37462 18.8889 8.63636 17.6769 8.63636 16.1818C8.63636 14.6868 7.37462 13.4748 5.81818 13.4748C4.26174 13.4748 3 14.6868 3 16.1818C3 17.6769 4.26174 18.8889 5.81818 18.8889Z" fill="#1493CC" stroke="#4FC4F9" stroke-width="2.81818" stroke-miterlimit="2"/>
<path d="M25.5455 9.41414C27.1019 9.41414 28.3637 8.20214 28.3637 6.70707C28.3637 5.212 27.1019 4 25.5455 4C23.989 4 22.7273 5.212 22.7273 6.70707C22.7273 8.20214 23.989 9.41414 25.5455 9.41414Z" stroke="#4FC4F9" stroke-width="2.81818" stroke-miterlimit="2"/>
<path d="M25.5455 18.8889C27.1019 18.8889 28.3637 17.6769 28.3637 16.1818C28.3637 14.6868 27.1019 13.4748 25.5455 13.4748C23.989 13.4748 22.7273 14.6868 22.7273 16.1818C22.7273 17.6769 23.989 18.8889 25.5455 18.8889Z" stroke="#4FC4F9" stroke-width="2.81818" stroke-miterlimit="2"/>
<path d="M25.5455 28.3636C27.1019 28.3636 28.3637 27.1517 28.3637 25.6566C28.3637 24.1615 27.1019 22.9495 25.5455 22.9495C23.989 22.9495 22.7273 24.1615 22.7273 25.6566C22.7273 27.1517 23.989 28.3636 25.5455 28.3636Z" stroke="#4FC4F9" stroke-width="2.81818" stroke-miterlimit="2"/>
<path d="M22.7272 25.6565H14.2727V6.70706H22.7272" stroke="#4FC4F9" stroke-width="2.81818" stroke-miterlimit="2" stroke-linecap="round" stroke-linejoin="round"/>
<path d="M8.63647 16.1818H22.7274" stroke="#4FC4F9" stroke-width="2.81818" stroke-miterlimit="2" stroke-linecap="round" stroke-linejoin="round"/>
</svg>
