<svg width="27" height="27" viewBox="0 0 27 27" fill="none" xmlns="http://www.w3.org/2000/svg">
<path d="M18.2247 18.2247H24.0657C24.7795 18.2247 25.3636 17.6407 25.3636 16.9268V3.29798C25.3636 2.58409 24.7795 2 24.0657 2H10.4369C9.72298 2 9.13889 2.58409 9.13889 3.29798V9.13889" stroke="#12C3F4" stroke-width="2.81818" stroke-miterlimit="2" stroke-linecap="round" stroke-linejoin="round"/>
<path d="M9.13889 9.13889H3.29798C2.58409 9.13889 2 9.72298 2 10.4369V24.0657C2 24.7795 2.58409 25.3636 3.29798 25.3636H16.9268C17.6407 25.3636 18.2247 24.7795 18.2247 24.0657V18.2247" stroke="#12C3F4" stroke-width="2.81818" stroke-miterlimit="2" stroke-linecap="round" stroke-linejoin="round"/>
<path d="M10.4369 9.13889H16.9268C17.6407 9.13889 18.2247 9.72298 18.2247 10.4369V16.9268C18.2247 17.6407 17.6407 18.2247 16.9268 18.2247H10.4369C9.72298 18.2247 9.13889 17.6407 9.13889 16.9268V10.4369C9.13889 9.72298 9.71 9.13889 10.4369 9.13889Z" fill="#65F8C3" stroke="#12C3F4" stroke-width="2.81818" stroke-miterlimit="2" stroke-linecap="round" stroke-linejoin="round"/>
</svg>
