<svg width="32" height="32" viewBox="0 0 32 32" fill="none" xmlns="http://www.w3.org/2000/svg">
<path d="M20.2248 20.2247H26.0657C26.7796 20.2247 27.3637 19.6407 27.3637 18.9268V5.29798C27.3637 4.58409 26.7796 4 26.0657 4H12.4369C11.723 4 11.1389 4.58409 11.1389 5.29798V11.1389" stroke="#4FC4F9" stroke-width="2.81818" stroke-miterlimit="2" stroke-linecap="round" stroke-linejoin="round"/>
<path d="M11.1389 11.1389H5.29798C4.58409 11.1389 4 11.723 4 12.4369V26.0657C4 26.7795 4.58409 27.3636 5.29798 27.3636H18.9268C19.6407 27.3636 20.2247 26.7795 20.2247 26.0657V20.2247" stroke="#4FC4F9" stroke-width="2.81818" stroke-miterlimit="2" stroke-linecap="round" stroke-linejoin="round"/>
<path d="M12.4369 11.1389H18.9268C19.6407 11.1389 20.2248 11.723 20.2248 12.4369V18.9268C20.2248 19.6407 19.6407 20.2247 18.9268 20.2247H12.4369C11.723 20.2247 11.1389 19.6407 11.1389 18.9268V12.4369C11.1389 11.723 11.71 11.1389 12.4369 11.1389Z" fill="#1493CC" stroke="#4FC4F9" stroke-width="2.81818" stroke-miterlimit="2" stroke-linecap="round" stroke-linejoin="round"/>
</svg>
