<svg fill="none" height="27" viewBox="0 0 27 27" width="27" xmlns="http://www.w3.org/2000/svg"><g stroke="#12c3f4" stroke-linecap="round" stroke-linejoin="round" stroke-miterlimit="2" stroke-width="2.81818"><path d="m18.2247 18.2247h5.841c.7138 0 1.2979-.584 1.2979-1.2979v-13.62882c0-.71389-.5841-1.29798-1.2979-1.29798h-13.6288c-.71392 0-1.29801.58409-1.29801 1.29798v5.84091"/><path d="m9.13889 9.13889h-5.84091c-.71389 0-1.29798.58409-1.29798 1.29801v13.6288c0 .7138.58409 1.2979 1.29798 1.2979h13.62882c.7139 0 1.2979-.5841 1.2979-1.2979v-5.841"/><path d="m10.4369 9.13889h6.4899c.7139 0 1.2979.58409 1.2979 1.29801v6.4899c0 .7139-.584 1.2979-1.2979 1.2979h-6.4899c-.71392 0-1.29801-.584-1.29801-1.2979v-6.4899c0-.71392.57111-1.29801 1.29801-1.29801z" fill="#65f8c3"/></g></svg>