<svg width="231" height="79" viewBox="0 0 231 79" fill="none" xmlns="http://www.w3.org/2000/svg">
<g clip-path="url(#clip0)">
<path d="M78.0809 39.4272C78.0809 60.7767 60.7732 78.0815 39.4266 78.0815C18.0771 78.0815 0.772217 60.7767 0.772217 39.4272C0.772217 18.0777 18.0771 0.769951 39.4266 0.769951C60.7732 0.769951 78.0809 18.0777 78.0809 39.4272Z" fill="white"/>
<path d="M89.7678 18.9963H110.824V23.3168H103.08V44.9995H97.5067V23.3168H89.7678V18.9963Z" fill="#231F20"/>
<path d="M121.774 23.3158H128.66C131.096 23.3531 132.538 24.3183 132.538 26.605C132.538 28.9002 131.096 30.1211 128.66 30.1527H121.774V23.3158ZM121.774 34.6771H127.666C127.666 34.6771 131.317 42.6861 131.785 44.9985H138.651L133.377 34.3065C137.094 33.3471 138.056 28.9146 138.056 25.5478C138.056 20.2708 132.17 18.8316 127.235 18.9953H116.196V44.9985H121.774V34.6771Z" fill="#231F20"/>
<path d="M145.566 18.9963H164.216V23.3168H151.145V29.4298H163.17V33.7502H151.145V40.679H164.606V44.9995H145.566V18.9963Z" fill="#231F20"/>
<path d="M187.031 44.999L177.483 27.7086L177.405 27.7804V44.999H172.191V18.9958H179.106L188.6 35.9875L188.672 35.9186V18.9958H193.888V44.999H187.031Z" fill="#231F20"/>
<path d="M207.568 23.5179H210.452C217.074 23.4489 218.048 27.8556 218.048 31.9951C218.048 36.1403 217.074 40.7538 210.452 40.6791H207.568V23.5179ZM201.99 44.9995H210.843C218.947 45.0714 223.988 41.041 223.988 31.9951C223.988 22.9577 218.947 18.9245 210.843 18.9963H201.99V44.9995Z" fill="#231F20"/>
<path d="M107.193 66.3687H104.495V55.0016L101.654 66.3687H98.8533L96.0123 55.0016L95.9692 66.3687H93.2689V51.9365H97.6239L100.221 61.7695L102.823 51.9365H107.193V66.3687Z" fill="#231F20"/>
<path d="M129.18 66.3682H126.273V51.936H129.18V66.3682Z" fill="#231F20"/>
<path d="M186.533 57.0555C186.352 57.4462 186.041 57.7134 185.602 57.8627C185.369 57.946 185.093 57.9891 184.772 58.0035C184.439 58.0322 183.95 58.0408 183.324 58.0408H182.982H180.825V54.3782H183.103C184.148 54.3782 184.821 54.3897 185.116 54.4156C185.421 54.4414 185.702 54.5362 185.958 54.6971C186.234 54.8608 186.421 55.059 186.533 55.3032C186.648 55.5589 186.705 55.849 186.705 56.1679C186.705 56.504 186.648 56.7999 186.533 57.0555ZM186.788 60.3677L187.687 60.1005C188.388 59.819 188.934 59.2991 189.311 58.67C189.707 58.0236 189.802 56.909 189.802 56.1047C189.802 55.3377 189.52 54.5104 189.15 53.8525C188.716 53.0999 188.118 52.5828 187.354 52.2984C186.992 52.1749 186.656 52.0973 186.346 52.0542C185.792 51.9767 185.025 51.9365 184.045 51.9365H177.918V66.3687H180.825V60.6808L183.597 60.6492L186.673 66.3687H190.164L186.788 60.3677Z" fill="#231F20"/>
<path d="M215.408 63.1823C214.724 63.7999 213.871 64.1102 212.848 64.1102C212.032 64.1102 211.329 63.9148 210.737 63.5242C210.266 63.2168 209.881 62.8089 209.582 62.2975C209.358 61.9068 209.194 61.5104 209.085 61.1054C208.936 60.5596 208.861 59.9075 208.861 59.1549C208.861 57.8076 209.12 56.7131 209.625 55.8657C210.3 54.7568 211.375 54.1967 212.848 54.1967C214.408 54.1967 215.517 54.8114 216.178 56.0495C216.606 56.8539 216.824 57.8737 216.824 59.1146C216.824 60.9675 216.353 62.3263 215.408 63.1823ZM218.099 53.8519C216.856 52.4099 215.1 51.6946 212.834 51.6946C210.605 51.6946 208.881 52.3697 207.672 53.7112C206.462 55.0556 205.856 56.8969 205.856 59.2324C205.856 61.2232 206.347 62.8634 207.333 64.1705C208.548 65.7964 210.398 66.6094 212.871 66.6094C215.241 66.6094 217.034 65.8424 218.255 64.3141C219.303 62.9956 219.832 61.2806 219.832 59.175C219.832 56.9688 219.251 55.1935 218.099 53.8519Z" fill="#231F20"/>
<path d="M157.412 56.6734C157.176 55.8145 156.714 54.1972 154.241 54.1972C152.801 54.1972 150.69 55.1567 150.69 59.2129C150.69 61.7925 151.704 64.105 154.241 64.105C155.898 64.105 157.053 63.1656 157.412 61.4104H160.405C159.811 64.5244 157.774 66.6875 154.183 66.6875C150.371 66.6875 147.639 64.128 147.639 59.1755C147.639 54.157 150.529 51.6147 154.221 51.6147C158.509 51.6147 160.25 54.5563 160.405 56.6734H157.412Z" fill="#231F20"/>
<path d="M225.127 46.6426H223.573V50.7764H222.952V46.6426H221.41V46.0853H225.127V46.6426Z" fill="#231F20"/>
<path d="M230.23 50.7773H229.641V46.8504L228.277 50.7773H227.719L226.378 46.7844L226.361 50.7773H225.763V46.0863H226.699L227.805 49.4071L227.929 49.7949L228.012 50.1023L228.282 49.3496L229.406 46.0863H230.23V50.7773Z" fill="#231F20"/>
<path d="M7.81375 46.9091L7.86546 46.777L8.01771 46.3633L8.16709 45.9899L8.23316 45.8175C8.9542 44.0394 9.86195 42.2095 10.9622 40.3566C11.1058 40.0492 11.2552 39.7476 11.4046 39.4431L6.77386 39.4546L7.89706 36.9726C11.7234 35.9299 18.0978 33.7984 24.1821 27.8979L24.3631 27.8865H27.5661L23.4237 36.7629L30.0768 36.7428L28.8559 39.3857L22.2143 39.4086C22.2143 39.4086 19.0975 45.6365 18.0404 50.092C17.2217 55.0646 18.026 58.776 22.4815 60.1664C25.2335 61.0196 28.6663 60.8242 32.3663 59.7757C40.9756 57.0955 50.1796 51.175 56.9131 43.3413C67.9986 30.4632 68.2141 17.2864 57.4043 13.9225C50.4668 11.768 40.6855 14.1638 31.6338 19.5586C42.9204 12.2794 55.3302 8.8609 63.8936 11.5267C65.4994 12.0266 66.8898 12.716 68.0733 13.5663C60.998 5.76706 50.7828 0.872066 39.4244 0.872066C18.0806 0.872066 0.77002 18.1798 0.77002 39.5264C0.77002 47.409 3.13421 54.7371 7.18177 60.8501C5.65065 57.0726 5.8661 52.2264 7.81375 46.9091Z" fill="#D71920"/>
<path d="M72.2021 19.0204C74.7875 26.044 71.5529 36.5263 62.6247 46.9023C49.221 62.4893 28.0467 71.9145 15.3381 67.9589C13.761 67.4676 12.3907 66.7926 11.2216 65.9566C18.2739 73.483 28.2995 78.1826 39.4252 78.1826C60.7776 78.1826 78.0853 60.8778 78.0853 39.5283C78.0853 31.9904 75.9222 24.9639 72.2021 19.0204Z" fill="#D71920"/>
</g>
<defs>
<clipPath id="clip0">
<rect width="231" height="78.9527" fill="white"/>
</clipPath>
</defs>
</svg>
