<svg width="124" height="70" viewBox="0 0 124 70" fill="none" xmlns="http://www.w3.org/2000/svg">
<path d="M26.9388 43.1513H29.2339L29.1363 46.667C29.949 45.3696 31.0754 44.379 32.3624 43.7022C33.6493 43.026 35.0863 42.6841 36.6697 42.6841C39.4319 42.6841 41.7792 43.5978 43.7043 45.4184C45.6296 47.2459 46.5955 49.4363 46.5955 52.0172C46.5955 54.8003 45.6607 57.1161 43.7915 58.9576C41.9256 60.8062 39.5504 61.7267 36.6695 61.7267C35.086 61.7267 33.6454 61.385 32.3517 60.6943C31.0611 60.0037 29.9381 59.0203 29.1361 57.7299C29.1883 58.6298 29.2303 59.4595 29.2582 60.1991C29.2859 60.9455 29.3 61.4756 29.3 61.7896V69.9997H26.9388V43.1513ZM36.4953 44.8534C34.5805 44.8534 32.8924 45.5649 31.4277 47.0018C29.9665 48.4458 29.2339 50.1269 29.2339 52.0519C29.2339 54.1445 29.9488 55.9163 31.386 57.3744C32.8157 58.8391 34.5457 59.5644 36.5686 59.5644C38.5986 59.5644 40.3459 58.8672 41.8106 57.472C43.2754 56.0836 44.0044 54.3749 44.0044 52.345C44.0044 50.2104 43.2754 48.4318 41.8106 46.9948C40.3459 45.5649 38.5741 44.8534 36.4953 44.8534Z" fill="#DC3A82"/>
<path d="M81.0924 42.5029C83.8165 42.5029 86.1425 43.4309 88.0578 45.2863C89.9794 47.1419 90.9385 49.3671 90.9385 51.9477C90.9385 54.6682 89.9969 56.9842 88.1204 58.8954C86.2405 60.8068 83.9559 61.7623 81.2636 61.7623C78.5117 61.7623 76.1889 60.8277 74.288 58.9514C72.3838 57.082 71.4351 54.8289 71.4351 52.1852C71.4351 49.5275 72.3872 47.2534 74.2948 45.3564C76.2028 43.4518 78.4663 42.5029 81.0924 42.5029ZM81.0054 44.7492C79.0802 44.7492 77.4271 45.4609 76.0493 46.8699C74.6648 48.2858 73.9776 50.0508 73.9776 52.15C73.9776 54.2498 74.6648 56.0076 76.0493 57.4164C77.4271 58.8255 79.1569 59.5301 81.232 59.5301C83.2896 59.5301 85.0058 58.8185 86.3659 57.4026C87.7295 55.9797 88.4131 54.1661 88.4131 51.9477C88.4131 49.8971 87.7052 48.1743 86.2891 46.807C84.8735 45.44 83.1119 44.7492 81.0054 44.7492Z" fill="#DC3A82"/>
<path d="M23.1932 39.0564C23.1932 38.0745 22.3944 37.2759 21.4144 37.2759C20.431 37.2759 19.6358 38.0745 19.6358 39.0564C19.6358 40.0396 20.431 40.8351 21.4144 40.8351C22.3944 40.8351 23.1932 40.0399 23.1932 39.0564Z" fill="#DC3A82"/>
<path d="M52.2667 59.4678C52.2667 58.4285 51.4227 57.5845 50.38 57.5845C49.3338 57.5845 48.4861 58.4285 48.4861 59.4678C48.4861 60.5141 49.3338 61.3581 50.38 61.3581C51.4227 61.3581 52.2667 60.5141 52.2667 59.4678Z" fill="#DC3A82"/>
<path d="M69.3599 56.9004C69.231 57.0748 69.095 57.2423 68.9483 57.4024C67.658 58.8184 66.036 59.5299 64.0864 59.5299C62.1264 59.5299 60.4942 58.8253 59.1862 57.4162C57.8852 56.0074 57.2296 54.2496 57.2296 52.1498C57.2296 50.0504 57.8852 48.2854 59.1862 46.8765C60.494 45.4604 62.0565 44.749 63.8771 44.749C65.8685 44.749 67.532 45.4398 68.8716 46.8068C69.046 46.981 69.2062 47.1626 69.3529 47.3508L71.0584 45.8511C70.8979 45.6627 70.727 45.4745 70.549 45.2863C68.732 43.4378 66.5384 42.5029 63.9573 42.5029C61.4776 42.5029 59.3326 43.4586 57.5295 45.3562C55.7263 47.2531 54.8264 49.5273 54.8264 52.1849C54.8264 54.8217 55.7229 57.0818 57.5224 58.9512C59.3185 60.8207 61.5194 61.7621 64.1178 61.7621C66.6673 61.7621 68.8262 60.8066 70.6051 58.8952C70.7617 58.7208 70.9118 58.5465 71.0548 58.3721L69.3599 56.9004Z" fill="#DC3A82"/>
<path d="M46.5958 0V14.7008H70.3891C73.0151 14.7008 75.1497 12.5696 75.1497 9.93991V0H46.5958ZM71.069 10.0866C71.069 11.1991 70.1691 12.1024 69.0567 12.1024H50.6729V2.36477H71.069V10.0866Z" fill="#DC3A82"/>
<path d="M43.0069 16.7378V33.2731H54.3768C57.0065 33.2731 59.1377 30.9432 59.1377 28.3135V16.7378H43.0069ZM55.0603 28.6588C55.0603 29.7714 54.1604 30.6747 53.0445 30.6747H47.084V19.1026H55.0603V28.6588Z" fill="#DC3A82"/>
<path d="M61.3558 16.7378V33.2731H72.7256C75.3556 33.2731 77.4865 30.9432 77.4865 28.3135V16.7378H61.3558ZM73.4094 28.6588C73.4094 29.7714 72.5093 30.6747 71.3933 30.6747H65.4329V19.1026H73.4094V28.6588Z" fill="#DC3A82"/>
<path d="M36.1117 5.88389V3.30641H29.1155V0H25.0347V3.30641H17.7629V5.88389H25.0347V12.4373H17.7629V15.0145H25.0347V21.5645H17.7629V24.1419H25.0347V30.6953H17.7629V33.2762H36.1117V30.6953H29.1155V24.1419H36.1117V21.5645H29.1155V15.0145H36.1117V12.4373H29.1155V5.88389H36.1117Z" fill="#DC3A82"/>
<path d="M117.396 15.9911H123.273L105.542 0H99.6681L81.9365 15.9911H87.8134L90.3282 13.724H114.889L117.396 15.9911ZM93.1844 11.1467L102.605 2.6508L112.025 11.1467H93.1844Z" fill="#DC3A82"/>
<path d="M118.212 28.5123L116.423 24.1351H111.882L113.528 28.5264C114.121 29.7958 113.26 30.5386 112.144 30.5386H92.7346L96.2258 21.1776H115.506V18.6001H84.5593V21.1776H91.6568L87.0287 33.273H113.703C116.329 33.2732 119.611 32.5093 118.212 28.5123Z" fill="#DC3A82"/>
<path d="M16.3573 0.00390625L11.8268 4.08806V1.86631H0V30.054H7.06617C9.69587 30.054 11.8268 27.9195 11.8268 25.2934V9.38603L22.2307 0.0041209H16.3573V0.00390625ZM7.74992 25.4396C7.74992 26.5488 6.85005 27.452 5.73405 27.452H4.07392V4.23448H7.75013V25.4396H7.74992Z" fill="#DC3A82"/>
<path d="M120.019 46.5348C119.667 45.565 119.088 44.6444 118.307 43.9191L118.163 43.7795L118.007 43.661L117.693 43.4097C117.476 43.2563 117.246 43.1237 117.016 42.9843C116.775 42.8728 116.545 42.7541 116.297 42.6563C116.046 42.5725 115.806 42.4681 115.547 42.4193C114.536 42.1543 113.479 42.1332 112.475 42.3148C110.455 42.6774 108.652 43.9262 107.54 45.6002C107.428 45.7745 107.316 45.9559 107.212 46.1373C106.835 45.3003 106.27 44.5191 105.538 43.9123C104.694 43.2217 103.661 42.7963 102.626 42.629C101.583 42.4617 100.53 42.5452 99.5529 42.8313C97.8299 43.3194 96.3266 44.4076 95.2735 45.8026V43.0821H92.9751V61.2462H95.2735V51.2993C95.3189 50.7204 95.4095 50.1485 95.5562 49.5971C95.7618 48.83 96.086 48.1113 96.5114 47.4698C97.3555 46.1795 98.6565 45.2097 100.1 44.8333C101.544 44.4356 103.107 44.7077 104.132 45.5935C104.648 46.0399 105.029 46.6258 105.269 47.3025C105.514 47.9792 105.608 48.7326 105.608 49.5068V51.1601V61.2464H107.906V51.1601C107.927 50.3508 107.983 49.5485 108.192 48.7953C108.398 48.035 108.729 47.3306 109.165 46.7095C110.03 45.468 111.372 44.5892 112.837 44.359C114.285 44.1289 115.819 44.5127 116.806 45.5098C117.305 45.9913 117.675 46.6051 117.909 47.2886C118.146 47.9792 118.243 48.7326 118.243 49.5068V61.2464H120.538V49.5068C120.518 48.5157 120.378 47.5116 120.019 46.5348Z" fill="#DC3A82"/>
<path d="M18.0382 3.30713H14.0414V34.5988H18.0382V3.30713Z" fill="#DC3A82"/>
<path d="M14.7705 43.0815L8.67387 57.7301L2.59133 43.0815H0L7.40804 61.2456H9.67157L17.4108 43.0815H14.7705Z" fill="#DC3A82"/>
<path d="M22.5935 43.0815H20.2357V61.2456H22.5935V43.0815Z" fill="#DC3A82"/>
</svg>
