<svg width="231" height="58" viewBox="0 0 231 58" fill="none" xmlns="http://www.w3.org/2000/svg">
<path d="M1.15558 12.5938C1.15558 12.5938 6.84219 35.896 7.74976 39.6783C8.80905 44.0929 10.7177 45.7177 16.2207 44.6219L19.7716 30.1747C20.6715 26.5861 21.2752 24.0277 21.8537 20.3772H21.9554C22.3619 24.0636 22.9407 26.5969 23.6813 30.1873C23.6813 30.1873 25.1268 36.7459 25.867 40.1907C26.6092 43.6343 28.6746 45.8047 34.0648 44.6231L42.5256 12.5963H35.6945L32.8061 26.443C32.0295 30.4736 31.3247 33.6229 30.7814 37.3102H30.6851C30.1913 33.6597 29.5632 30.6351 28.7737 26.7081L25.7661 12.5963H18.6487L15.4316 26.3526C14.5202 30.5327 13.6677 33.9083 13.1256 37.4705H13.0275C12.4723 34.1158 11.7329 29.8734 10.9322 25.8269C10.9322 25.8269 9.02086 15.9878 8.35026 12.5963L1.15624 12.5972L1.15558 12.5938ZM66.276 12.5938V44.6207H72.7797V37.8199V12.5923H66.276V12.5938ZM157.875 12.5938V36.2206C157.875 39.4781 158.488 41.7604 159.8 43.1547C160.946 44.3741 162.833 45.1637 165.095 45.1637C167.018 45.1637 168.91 44.799 169.801 44.4669L169.718 39.3844C169.054 39.5477 168.291 39.6784 167.247 39.6784C165.031 39.6784 164.288 38.2594 164.288 35.3345V26.2951H169.953V20.1674H164.288V12.5939H157.875L157.875 12.5938ZM51.7414 20.0183C47.6995 20.0183 44.491 21.1532 42.7421 22.1639L44.022 26.5466C45.6226 25.5375 48.1712 24.7022 50.5843 24.7022C54.5796 24.6919 55.2328 26.9613 55.2328 28.4167V28.7609C46.5271 28.7479 41.028 31.7603 41.028 37.901C41.028 41.6501 43.8274 45.1636 48.695 45.1636C51.6914 45.1636 54.1974 43.9686 55.6993 42.0538H55.8465C55.8465 42.0538 56.8411 46.2122 62.3203 44.622C62.0324 42.8913 61.9389 41.046 61.9389 38.8235V30.2677C61.9389 24.8146 59.6106 20.0184 51.7415 20.0184L51.7414 20.0183ZM90.6463 20.0183C86.5765 20.0183 84.7476 22.0808 83.6386 23.8307H83.5422V20.5615H77.3355V44.6222H83.8739V30.5116C83.8739 29.8501 83.9495 29.1506 84.1804 28.542C84.7221 27.1213 86.0439 25.4595 88.1542 25.4595C90.7924 25.4595 92.027 27.6899 92.027 30.9089V44.622H98.5583V30.3406C98.5583 29.7091 98.6449 28.9485 98.8307 28.3902C99.3677 26.7742 100.793 25.4592 102.754 25.4592C105.429 25.4592 106.713 27.6509 106.713 31.4386V44.622H113.248V30.451C113.248 22.9775 109.454 20.0184 105.17 20.0184C103.273 20.0184 101.775 20.4941 100.421 21.3253C99.2835 22.0236 98.2648 23.0157 97.3744 24.3221H97.278C96.242 21.7291 93.8114 20.0184 90.6452 20.0184L90.6463 20.0183ZM126.55 20.0183C122.509 20.0183 119.302 21.1532 117.551 22.1639L118.833 26.5466C120.432 25.5375 122.982 24.7022 125.394 24.7022C129.386 24.6919 130.041 26.9613 130.041 28.4167V28.7609C121.337 28.7479 115.837 31.7603 115.837 37.901C115.837 41.6501 118.638 45.1636 123.508 45.1636C126.502 45.1636 129.009 43.9686 130.508 42.0538H130.656C130.656 42.0538 131.65 46.2122 137.13 44.622C136.842 42.8913 136.749 41.046 136.749 38.8235V30.2677C136.749 24.8146 134.42 20.0184 126.55 20.0184L126.55 20.0183ZM153.703 20.0183C151.199 20.0183 148.35 21.6345 147.155 25.099H146.972V20.5611H141.086V44.6219H147.796V32.3013C147.796 31.6366 147.836 31.0571 147.942 30.5257C148.438 27.9448 150.412 26.295 153.245 26.295C154.023 26.295 154.579 26.3792 155.182 26.4662V20.1672C154.677 20.0651 154.331 20.0181 153.703 20.0181L153.703 20.0183ZM55.4428 33.0246V36.0262C55.4428 36.4702 55.4041 36.9284 55.2812 37.3289C54.7778 38.996 53.0508 40.4047 50.892 40.4047C49.0921 40.4047 47.6623 39.3832 47.6623 37.2222C47.6623 33.9169 51.3009 33.0032 55.443 33.0246H55.4428ZM130.252 33.0246V36.0262C130.252 36.4702 130.212 36.9284 130.09 37.3289C129.587 38.996 127.86 40.4047 125.702 40.4047C123.901 40.4047 122.471 39.3832 122.471 37.2222C122.471 33.9169 126.11 33.0032 130.252 33.0246H130.252Z" fill="#007DC6"/>
<path d="M205.118 1.01123C203.018 1.01123 201.349 2.18376 201.349 3.61119L202.624 18.0501C202.765 18.92 203.831 19.591 205.119 19.591C206.41 19.5893 207.472 18.9189 207.615 18.0501L208.897 3.61119C208.897 2.18389 207.223 1.01135 205.12 1.01135L205.118 1.01123ZM184.338 12.5934C183.248 12.6193 182.009 13.4446 181.222 14.8102C180.168 16.6287 180.355 18.6609 181.588 19.3739L194.728 25.4934C195.549 25.7987 196.664 25.2158 197.309 24.1027C197.31 24.1026 197.309 24.1023 197.309 24.1021C197.958 22.9836 197.908 21.726 197.225 21.1681L185.357 12.8438C185.049 12.6653 184.702 12.585 184.339 12.5936L184.338 12.5934ZM225.898 12.5934C225.534 12.5848 225.188 12.6651 224.881 12.8437L213.011 21.1679C212.332 21.7257 212.282 22.9835 212.927 24.1019L212.928 24.1026C213.576 25.2156 214.687 25.7986 215.508 25.4932L228.654 19.374C229.892 18.6611 230.069 16.629 229.023 14.8104C228.232 13.4447 226.991 12.6194 225.902 12.5935L225.898 12.5934ZM195.219 31.6435C195.049 31.6412 194.884 31.6674 194.73 31.7255L181.589 37.8376C180.357 38.5537 180.17 40.5867 181.224 42.4071C182.274 44.2221 184.125 45.0849 185.358 44.3731L197.227 36.0553C197.91 35.4907 197.96 34.2333 197.311 33.1159L197.317 33.1184C196.792 32.2082 195.956 31.6533 195.219 31.6433L195.219 31.6435ZM215.022 31.6435C214.287 31.6535 213.452 32.2084 212.926 33.1186L212.931 33.1161C212.285 34.2335 212.335 35.4908 213.014 36.0555L224.884 44.3733C226.114 45.0851 227.967 44.2223 229.022 42.4073C230.068 40.5868 229.891 38.5538 228.653 37.8378L215.511 31.7257C215.357 31.6676 215.192 31.6413 215.022 31.6437L215.022 31.6435ZM205.116 37.6275C203.83 37.629 202.767 38.2972 202.626 39.1649L201.351 53.6031C201.351 55.0329 203.02 56.2031 205.12 56.2031C207.223 56.2031 208.895 55.0329 208.895 53.6031L207.617 39.1649C207.473 38.2972 206.411 37.6292 205.121 37.6275H205.116H205.116Z" fill="#FFC220"/>
</svg>
