<svg width="231" height="57" viewBox="0 0 231 57" fill="none" xmlns="http://www.w3.org/2000/svg">
<g clip-path="url(#clip0)">
<path d="M231 39.0937C230.383 39.4636 230.436 40.1859 230.189 40.7321C229.449 42.6891 228.131 44.3744 226.409 45.564C224.688 46.7535 222.645 47.3909 220.553 47.3915C211.744 47.5676 202.935 47.3915 194.127 47.3915C192.506 47.3915 191.29 46.722 191.343 44.9779C191.396 43.2338 192.576 42.7933 194.127 42.7933C202.706 42.7933 211.286 42.7933 219.848 42.7933C220.886 42.8677 221.925 42.6722 222.865 42.2258C223.804 41.7793 224.612 41.0971 225.21 40.2457C225.808 39.3942 226.175 38.4025 226.276 37.367C226.377 36.3316 226.208 35.2877 225.785 34.3369C225.31 33.1884 224.486 32.2174 223.431 31.5602C222.376 30.9031 221.141 30.5927 219.901 30.6725C213.435 30.6725 206.97 30.6725 200.522 30.6725C198.497 30.7214 196.505 30.1615 194.803 29.0653C193.1 27.9691 191.766 26.3871 190.973 24.524C190.084 22.7618 189.732 20.7773 189.96 18.8167C190.189 16.8561 190.988 15.0058 192.259 13.4955C193.211 12.2198 194.451 11.1865 195.878 10.4794C197.304 9.77231 198.877 9.41138 200.469 9.42587C209.278 9.33778 217.91 9.42587 226.613 9.42587C228.234 9.42587 229.52 10.0249 229.52 11.7514C229.52 13.4779 228.287 14.024 226.613 14.024C218.098 14.024 209.589 14.024 201.085 14.024C199.491 13.9217 197.92 14.4496 196.711 15.4941C195.501 16.5386 194.751 18.0162 194.62 19.6088C194.532 20.4491 194.624 21.2986 194.891 22.1004C195.157 22.9022 195.592 23.6379 196.166 24.2583C196.739 24.8787 197.439 25.3695 198.217 25.6978C198.996 26.0262 199.836 26.1846 200.68 26.1624C206.23 26.1624 211.779 26.1624 217.346 26.1624C225.45 26.1624 227.917 27.7656 230.965 34.9712L231 39.0937Z" fill="#7B8282"/>
<path d="M35.8515 25.7394C33.1737 20.4542 30.5663 15.5389 28.1351 10.4299C27.8575 9.51657 27.2583 8.73484 26.4484 8.22951C25.6386 7.72417 24.6731 7.5295 23.7307 7.68155C19.802 7.91058 15.8557 7.68155 11.9094 7.68155C10.9757 7.68155 10.3238 7.80487 10.9228 8.96762L28.6988 44.2025L37.8071 26.2151C41.6829 18.5515 45.6292 10.9232 49.4346 3.31242C49.7982 2.25736 50.5077 1.35612 51.4479 0.75491C52.3881 0.153702 53.5038 -0.1122 54.6141 0.0003422C62.5596 0.123664 70.4698 0.194134 78.4505 0.0003422C79.1829 -0.0750188 79.9219 0.0532673 80.586 0.371064C81.2502 0.688861 81.8137 1.18383 82.2145 1.80144C82.6153 2.41904 82.8378 3.13531 82.8576 3.8713C82.8773 4.6073 82.6935 5.33446 82.3264 5.97266C77.5168 14.9047 73.1477 23.9953 68.479 32.9274C65.7131 38.2126 63.0705 43.6035 60.4807 49.0121C59.547 50.95 58.5956 52.8879 57.5562 54.773C57.2319 55.4306 56.73 55.9844 56.1073 56.3716C55.4846 56.7588 54.766 56.964 54.0327 56.964C53.2995 56.964 52.5808 56.7588 51.9582 56.3716C51.3355 55.9844 50.8336 55.4306 50.5092 54.773C47.8842 49.8401 45.4354 44.8191 42.8985 39.851C42.7303 39.5494 42.6421 39.2098 42.6421 38.8644C42.6421 38.5191 42.7303 38.1795 42.8985 37.8779C44.167 35.3938 45.4178 32.8921 46.8272 30.0909L53.9799 44.1849L72.4782 7.75202H64.5327C62.2777 7.75202 60.0227 7.75202 57.7852 7.75202C57.241 7.67284 56.6862 7.78616 56.2166 8.07242C55.747 8.35869 55.3921 8.79993 55.2131 9.31997C52.0067 15.7856 48.7299 22.2159 45.4706 28.6992C41.2072 37.1203 36.9497 45.5532 32.698 53.9978C32.4228 54.8261 31.896 55.5479 31.1911 56.0625C30.4862 56.5771 29.6382 56.8589 28.7655 56.8686C27.8927 56.8783 27.0387 56.6154 26.3225 56.1166C25.6063 55.6177 25.0637 54.9079 24.7701 54.0859C18.8272 42.3057 12.9195 30.5666 7.04698 18.8686C4.95051 14.8166 2.90688 10.7822 0.880877 6.73021C-1.14513 2.67819 0.422823 0.0003422 5.02098 0.0003422C12.896 0.0003422 20.771 0.0003422 28.646 0.0003422C29.5558 -0.078277 30.4674 0.128986 31.2538 0.593228C32.0402 1.05747 32.662 1.75555 33.0327 2.59011L39.745 15.856C39.9447 16.1386 40.0619 16.471 40.0837 16.8163C40.1055 17.1616 40.0309 17.5062 39.8683 17.8116C38.5294 20.3661 37.2785 22.903 35.8515 25.7394Z" fill="#FE5D47"/>
<path d="M98.1996 16.613V39.7623C98.9748 39.9738 99.2743 39.3924 99.6795 39.0753C104.753 34.988 109.862 30.9184 114.883 26.7431C116.028 25.7917 116.751 25.5803 118.019 26.7431C122.917 30.8303 127.938 34.7766 132.906 38.7582C133.434 39.1634 133.857 39.78 134.668 39.8328V16.7011C131.144 19.5727 127.797 22.2506 124.467 24.8756C123.903 25.316 123.393 26.3555 122.6 25.9326C121.558 25.2763 120.615 24.4755 119.799 23.5543C119.288 23.061 120.01 22.7087 120.345 22.4268C125.401 18.3395 130.492 14.2347 135.566 10.0946C135.906 9.73209 136.356 9.49103 136.846 9.4083C137.336 9.32557 137.839 9.40573 138.279 9.63651C138.71 9.88032 139.059 10.2465 139.282 10.6887C139.504 11.1309 139.591 11.6292 139.53 12.1206C139.53 22.9377 139.53 33.7607 139.53 44.5895C139.6 45.1147 139.499 45.6484 139.242 46.1116C138.985 46.5749 138.586 46.9431 138.103 47.1617C136.94 47.6902 136.077 47.056 135.249 46.3865C129.523 41.7707 123.762 37.1902 118.072 32.504C116.945 31.5526 116.31 31.4645 115.095 32.504C109.598 37.0845 104.013 41.5417 98.4286 46.0342C97.4244 46.8446 96.4378 47.9545 94.9051 47.1793C93.3724 46.4041 93.5486 45.0476 93.5486 43.6558C93.5486 33.3907 93.5486 23.1256 93.5486 12.8605C93.5486 11.5744 93.5486 10.306 94.9404 9.61889C96.3321 8.93181 97.213 9.81268 98.1467 10.5702C102.886 14.3932 107.607 18.2691 112.399 22.0392C113.65 23.0258 113.439 23.4662 112.399 24.5056C110.814 26.0031 109.774 26.0207 108.101 24.5056C105 21.8454 101.723 19.379 98.1996 16.613Z" fill="#7B8282"/>
<path d="M163.19 9.39016C167.348 9.39016 171.488 9.39016 175.646 9.39016C177.081 9.33178 178.513 9.56401 179.856 10.0729C181.199 10.5818 182.425 11.3568 183.461 12.3515C184.497 13.3462 185.321 14.54 185.884 15.8612C186.447 17.1824 186.738 18.6037 186.738 20.0399C186.738 21.4761 186.447 22.8974 185.884 24.2186C185.321 25.5398 184.497 26.7336 183.461 27.7283C182.425 28.723 181.199 29.498 179.856 30.0069C178.513 30.5158 177.081 30.748 175.646 30.6897C168.599 30.6897 161.552 30.6897 154.505 30.6897C151.88 30.6897 151.263 31.271 151.246 33.8608C151.246 37.3843 151.246 40.9078 151.246 44.4313C151.246 45.9992 150.876 47.3558 149.096 47.4262C147.317 47.4967 146.612 46.1402 146.612 44.4665C146.612 40.6964 146.612 36.9262 146.612 33.1561C146.561 32.1974 146.716 31.2388 147.067 30.3451C147.417 29.4513 147.956 28.6432 148.645 27.9753C149.335 27.3073 150.16 26.7951 151.064 26.4732C151.969 26.1513 152.932 26.0271 153.888 26.1091H175.294C179.469 26.1091 182.129 23.7836 182.164 20.1192C182.2 16.4548 179.504 13.9707 175.223 13.9707C166.79 13.9707 158.351 13.9707 149.907 13.9707C148.339 13.9707 147.07 13.6183 146.789 11.8918C146.542 10.5705 147.757 9.42539 149.748 9.40777C154.188 9.37254 158.698 9.39016 163.19 9.39016Z" fill="#7B8282"/>
</g>
<defs>
<clipPath id="clip0">
<rect width="231" height="56.9572" fill="white"/>
</clipPath>
</defs>
</svg>
