<svg width="100" height="100" viewBox="0 0 100 100" fill="none" xmlns="http://www.w3.org/2000/svg">
<g clip-path="url(#clip0)">
<path d="M50.2 99.8002C42.26 99.7002 34.33 99.6402 26.49 97.9702C20.4051 96.7776 14.8225 93.7745 10.4738 89.3545C6.12515 84.9344 3.21333 79.3036 2.11999 73.2001C-0.711012 57.9296 -0.704232 42.2682 2.13999 27.0002C4.72999 13.3602 13.38 5.00015 26.87 2.00015C38.85 -0.629848 51 -0.139848 63.17 0.520152C70.09 0.900152 76.8 2.21015 83 5.60015C91.17 10.1002 95.89 17.1902 97.94 26.1102C100.63 37.8502 100.16 49.7902 99.67 61.7002C99.5203 67.2117 98.5427 72.6693 96.77 77.8902C95.3473 82.2208 92.9358 86.1607 89.7265 89.3978C86.5172 92.6348 82.5982 95.0802 78.28 96.5402C71.07 99.1902 63.55 99.5402 55.99 99.8002C54.06 99.8502 52.13 99.8002 50.2 99.8002Z" fill="#E9620B"/>
<path d="M80.18 31.2002H71.84C71.6693 31.2002 71.5055 31.2673 71.3839 31.387C71.2623 31.5068 71.1926 31.6695 71.19 31.8402V70.0002C71.1926 70.1718 71.2619 70.3356 71.3832 70.457C71.5046 70.5783 71.6684 70.6476 71.84 70.6502H80.18C80.3507 70.6476 80.5134 70.5779 80.6332 70.4563C80.7529 70.3347 80.82 70.1709 80.82 70.0002V31.8402C80.82 31.6705 80.7526 31.5077 80.6325 31.3876C80.5125 31.2676 80.3497 31.2002 80.18 31.2002Z" fill="white"/>
<path d="M51.65 31.2002H19.82C19.6503 31.2002 19.4875 31.2677 19.3674 31.3877C19.2474 31.5077 19.18 31.6705 19.18 31.8402V70.0002C19.18 70.1709 19.2471 70.3348 19.3668 70.4564C19.4866 70.578 19.6493 70.6476 19.82 70.6502H28.16C28.3316 70.6477 28.4954 70.5784 28.6168 70.457C28.7381 70.3357 28.8074 70.1718 28.81 70.0002V40.0902C28.8126 39.9187 28.8819 39.7548 29.0032 39.6335C29.1246 39.5121 29.2884 39.4428 29.46 39.4402H47.46C48.3172 39.3816 49.1772 39.5048 49.9835 39.8016C50.7898 40.0984 51.5243 40.5623 52.139 41.1627C52.7536 41.7632 53.2344 42.4867 53.5499 43.2859C53.8655 44.085 54.0086 44.9419 53.97 45.8002V70.0002C53.9726 70.1718 54.0419 70.3357 54.1632 70.457C54.2846 70.5784 54.4484 70.6477 54.62 70.6502H62.96C63.1306 70.6476 63.2934 70.578 63.4132 70.4564C63.5329 70.3348 63.6 70.1709 63.6 70.0002V42.9202C63.6942 41.4025 63.4648 39.8822 62.9269 38.4598C62.389 37.0375 61.5549 35.7458 60.48 34.6702C59.3576 33.4816 57.9874 32.5545 56.4666 31.9548C54.9458 31.3551 53.3116 31.0975 51.68 31.2002" fill="white"/>
<path d="M45.8 46.3804H37C36.8311 46.3829 36.6698 46.4512 36.5503 46.5707C36.4308 46.6901 36.3626 46.8514 36.36 47.0204V70.0004C36.36 70.1701 36.4274 70.3329 36.5474 70.4529C36.6675 70.5729 36.8302 70.6404 37 70.6404H45.8C45.9707 70.6404 46.1345 70.5733 46.2561 70.4535C46.3777 70.3338 46.4474 70.171 46.45 70.0004V47.0004C46.4449 46.8305 46.3744 46.6692 46.2533 46.55C46.1323 46.4308 45.9699 46.3628 45.8 46.3604" fill="white"/>
</g>
<defs>
<clipPath id="clip0">
<rect width="100" height="99.82" fill="white"/>
</clipPath>
</defs>
</svg>
