<svg width="100" height="102" viewBox="0 0 100 102" fill="none" xmlns="http://www.w3.org/2000/svg">
<g clip-path="url(#clip0)">
<path fill-rule="evenodd" clip-rule="evenodd" d="M50.0527 0.144531L56.2252 0.500638L61.9889 1.62831L67.6536 3.36268L72.9292 5.71694L77.9807 8.68449L82.5243 12.3115L86.6064 16.2682L90.3455 20.746L93.4054 25.7578L96.0234 30.9939L97.9688 36.5663H76.6881L64.2376 5.20916L50.3033 40.2791L36.1184 5.61802L9.74011 71.2537L20.4431 86.5399H79.992L90.3455 70.8976L88.9672 67.5278H96.973L94.7836 72.6386L92.0271 77.4922L88.8617 81.9435L85.1358 86.0322L81.0537 89.7647L76.6684 93.062L71.8214 95.7723L66.7699 97.9156L61.3558 99.5049L55.7966 100.527L50.0329 100.883L43.7549 100.527L37.734 99.3994L31.9176 97.5067L26.5101 95.0535L21.4587 91.9343L16.8425 88.2018L12.6615 83.9615L8.98833 79.3453L5.93505 74.2213L3.43571 68.7544L1.6288 62.9248L0.501126 56.838L0.14502 50.5006L0.501126 44.183L1.6288 38.0435L3.46209 32.2205L5.93505 26.7272L9.00152 21.6164L12.6747 17.0002L16.8556 12.8127L21.4718 9.08017L26.5233 5.96094L31.9308 3.455L37.7472 1.61512L43.7747 0.500638L50.0527 0.144531ZM59.7995 35.8277L73.9316 71.2537H17.3964L31.6539 36.0849L45.6871 70.746L59.7995 35.8277ZM77.5059 38.7953H98.5755L99.0899 41.4331H78.6467L77.5059 38.7953ZM79.4842 43.6489H99.446L99.7032 46.1548H80.4536L79.4842 43.6489ZM81.3175 48.3508H99.8417V50.9886H82.3529L81.3175 48.3508ZM83.2959 53.211H99.8285L99.5713 55.7169H84.2917L83.2959 53.211ZM85.1292 57.9657H99.3207L98.8063 60.5705H86.125L85.1292 57.9657ZM87.1076 62.8193H98.3183L97.6589 65.2725H88.1165L87.1076 62.8193Z" fill="#FF0000"/>
<path d="M50.0527 0.144531L56.2252 0.500638L61.9889 1.62831L67.6536 3.36268L72.9292 5.71694L77.9807 8.6845L82.5243 12.3115L86.6064 16.2682L90.3455 20.746L93.4054 25.7578L96.0234 30.9939L97.9688 36.5663H76.6881L64.2376 5.20916L50.3033 40.2791L36.1184 5.61802L9.74011 71.2537L20.4431 86.5399H79.992L90.3455 70.8976L88.9672 67.5278H96.973L94.7836 72.6386L92.0271 77.4922L88.8617 81.9435L85.1358 86.0322L81.0538 89.7647L76.6684 93.062L71.8214 95.7723L66.7699 97.9156L61.3558 99.5049L55.7966 100.527L50.0329 100.883L43.7549 100.527L37.734 99.3994L31.9176 97.5067L26.5101 95.0535L21.4587 91.9343L16.8425 88.2018L12.6615 83.9615L8.98833 79.3453L5.93505 74.2213L3.43571 68.7544L1.6288 62.9248L0.501126 56.838L0.14502 50.5006L0.501126 44.183L1.6288 38.0435L3.46209 32.2205L5.93505 26.7272L9.00152 21.6164L12.6747 17.0002L16.8557 12.8127L21.4718 9.08017L26.5233 5.96094L31.9308 3.455L37.7472 1.61512L43.7747 0.500638L50.0527 0.144531ZM59.7995 35.8277L73.9316 71.2537H17.3964L31.6539 36.0849L45.6871 70.746L59.7995 35.8277ZM77.5059 38.7953H98.5755L99.0899 41.4331H78.6467L77.5059 38.7953ZM79.4842 43.6489H99.446L99.7032 46.1548H80.4536L79.4842 43.6489ZM81.3175 48.3508H99.8417V50.9886H82.3529L81.3175 48.3508ZM83.2959 53.211H99.8285L99.5713 55.7169H84.2917L83.2959 53.211ZM85.1292 57.9657H99.3207L98.8063 60.5705H86.125L85.1292 57.9657ZM87.1076 62.8193H98.3183L97.6589 65.2725H88.1165L87.1076 62.8193Z" stroke="#FF0000" stroke-width="0.290161" stroke-linejoin="round"/>
</g>
<defs>
<clipPath id="clip0">
<rect width="100" height="101.002" fill="white"/>
</clipPath>
</defs>
</svg>
